G04*
G04 #@! TF.GenerationSoftware,Altium Limited,Altium Designer,25.4.2 (15)*
G04*
G04 Layer_Color=128*
%FSLAX45Y45*%
%MOMM*%
G71*
G04*
G04 #@! TF.SameCoordinates,06A15A35-0CF4-41CC-B1E9-9CFDA875056D*
G04*
G04*
G04 #@! TF.FilePolarity,Positive*
G04*
G01*
G75*
%ADD20C,1.00000*%
D20*
X3450000Y3040000D02*
Y3350000D01*
X2400000Y1990000D02*
X3450000Y3040000D01*
X5500000Y2540000D02*
X7230000Y810000D01*
X8040000D01*
X8620001Y1390001D01*
X8133873Y13696127D02*
Y13960600D01*
X4140000Y12190000D02*
Y12525000D01*
X8620000Y13210001D02*
X8620001Y1430000D01*
X8133873Y13696127D02*
X8620000Y13210001D01*
X6100000Y6170000D02*
X7280000D01*
X4690000Y4760000D02*
X6100000Y6170000D01*
X4446408Y4760000D02*
X4690000D01*
X7420000Y6310000D02*
Y6830002D01*
X7280000Y6170000D02*
X7420000Y6310000D01*
X4140000Y12190000D02*
X4430000Y11900000D01*
X5130000Y9067912D02*
X6447912Y7749999D01*
X4430000Y10370000D02*
Y11900000D01*
X5130000Y9067912D02*
Y9670000D01*
X4430000Y10370000D02*
X5130000Y9670000D01*
X7880000Y7749999D02*
X8190000Y8059999D01*
X7370000Y13330000D02*
X8010000D01*
X8190000Y8059999D02*
Y13150000D01*
X8010000Y13330000D02*
X8190000Y13150000D01*
X7276500Y13236501D02*
X7370000Y13330000D01*
X7276500Y12978500D02*
Y13236501D01*
M02*
