G04*
G04 #@! TF.GenerationSoftware,Altium Limited,Altium Designer,25.4.2 (15)*
G04*
G04 Layer_Color=16711935*
%FSLAX45Y45*%
%MOMM*%
G71*
G04*
G04 #@! TF.SameCoordinates,06A15A35-0CF4-41CC-B1E9-9CFDA875056D*
G04*
G04*
G04 #@! TF.FilePolarity,Negative*
G04*
G01*
G75*
%ADD20C,1.00000*%
%ADD65O,2.30320X1.60320*%
%ADD66C,3.60000*%
%ADD67C,3.14960*%
%ADD68C,2.60000*%
%ADD69C,0.10000*%
%ADD70C,2.10000*%
%ADD71R,2.10000X2.10000*%
%ADD72C,1.40320*%
%ADD73C,1.85320*%
%ADD74R,1.85320X1.85320*%
%ADD75R,1.55000X1.55000*%
%ADD76C,1.55000*%
G04:AMPARAMS|DCode=77|XSize=1.8032mm|YSize=1.8032mm|CornerRadius=0.5016mm|HoleSize=0mm|Usage=FLASHONLY|Rotation=180.000|XOffset=0mm|YOffset=0mm|HoleType=Round|Shape=RoundedRectangle|*
%AMROUNDEDRECTD77*
21,1,1.80320,0.80000,0,0,180.0*
21,1,0.80000,1.80320,0,0,180.0*
1,1,1.00320,-0.40000,0.40000*
1,1,1.00320,0.40000,0.40000*
1,1,1.00320,0.40000,-0.40000*
1,1,1.00320,-0.40000,-0.40000*
%
%ADD77ROUNDEDRECTD77*%
%ADD78C,1.95320*%
%ADD79R,1.95320X1.95320*%
G04:AMPARAMS|DCode=80|XSize=1.8032mm|YSize=1.8032mm|CornerRadius=0.5016mm|HoleSize=0mm|Usage=FLASHONLY|Rotation=270.000|XOffset=0mm|YOffset=0mm|HoleType=Round|Shape=RoundedRectangle|*
%AMROUNDEDRECTD80*
21,1,1.80320,0.80000,0,0,270.0*
21,1,0.80000,1.80320,0,0,270.0*
1,1,1.00320,-0.40000,-0.40000*
1,1,1.00320,-0.40000,0.40000*
1,1,1.00320,0.40000,0.40000*
1,1,1.00320,0.40000,-0.40000*
%
%ADD80ROUNDEDRECTD80*%
%ADD81C,1.45320*%
%ADD82R,1.45320X1.45320*%
%ADD83R,2.00320X2.00320*%
%ADD84C,2.00320*%
%ADD85C,1.75320*%
%ADD86O,1.50320X2.15320*%
%ADD87R,1.85320X1.85320*%
%ADD88R,1.55000X1.55000*%
%ADD89C,2.20320*%
%ADD90R,1.70320X1.70320*%
%ADD91C,1.70320*%
%ADD92R,1.60000X1.60000*%
%ADD93C,1.60000*%
%ADD94R,1.95320X1.95320*%
%ADD95C,6.20320*%
%ADD96C,3.10000*%
%ADD97C,2.33320*%
%ADD98C,0.70000*%
D20*
X2400000Y1990000D02*
X3450000Y3040000D01*
Y3350000D01*
X5500000Y2540000D02*
X7230000Y810000D01*
X8040000D01*
X8620001Y1390001D01*
Y1430000D01*
X8133873Y13706126D02*
Y13960600D01*
Y13706126D02*
X8620000Y13220000D01*
X8620001Y1430000D01*
X7276500Y12978500D02*
Y13236501D01*
X7370000Y13330000D01*
X8010000D01*
X8190000Y13150000D01*
Y8059999D02*
Y13150000D01*
X7880000Y7749999D02*
X8190000Y8059999D01*
X4140000Y12190000D02*
Y12525000D01*
Y12190000D02*
X4430000Y11900000D01*
Y10370000D02*
Y11900000D01*
Y10370000D02*
X5130000Y9670000D01*
Y9067912D02*
Y9670000D01*
Y9067912D02*
X6447912Y7749999D01*
X7420000Y6310000D02*
Y6830002D01*
X7280000Y6170000D02*
X7420000Y6310000D01*
X6150000Y6170000D02*
X7280000D01*
X4740000Y4760000D02*
X6150000Y6170000D01*
X4446408Y4760000D02*
X4740000D01*
D65*
X6460000Y7749999D02*
D03*
Y7250000D02*
D03*
X7880000Y7749999D02*
D03*
Y7250000D02*
D03*
D66*
X4960000Y810000D02*
D03*
X8040000Y810000D02*
D03*
X5500000Y2540000D02*
D03*
X2360000Y1980000D02*
D03*
X6250000Y2500000D02*
D03*
Y3250000D02*
D03*
Y4000000D02*
D03*
Y4750000D02*
D03*
Y5500000D02*
D03*
X9058478Y9156751D02*
D03*
D67*
X4650000Y3090000D02*
D03*
X3220000Y1500000D02*
D03*
X5820000Y330000D02*
D03*
X7250000Y1920000D02*
D03*
D68*
X8133873Y13960600D02*
D03*
X7383855D02*
D03*
X6633838D02*
D03*
X4633855D02*
D03*
X3883838D02*
D03*
X3133838D02*
D03*
D69*
X8133855Y14598956D02*
D03*
X7383820D02*
D03*
X6633838Y14597350D02*
D03*
X4633855Y14606599D02*
D03*
X3883820D02*
D03*
X3133838Y14604993D02*
D03*
X9673567Y9156769D02*
D03*
D70*
X7781000Y12975000D02*
D03*
X7654000Y12545000D02*
D03*
X7527000Y12975000D02*
D03*
X7400000Y12545000D02*
D03*
X7273000Y12975000D02*
D03*
X7146000Y12545000D02*
D03*
X3886000Y12525000D02*
D03*
X4013000Y12955000D02*
D03*
X4140000Y12525000D02*
D03*
X4267000Y12955000D02*
D03*
X4394000Y12525000D02*
D03*
X4521000Y12955000D02*
D03*
D71*
X7019000Y12975000D02*
D03*
X3759000Y12955000D02*
D03*
D72*
X3320000Y10420000D02*
D03*
X4820000D02*
D03*
X6960000D02*
D03*
X5460000D02*
D03*
D73*
X9640000Y11976000D02*
D03*
Y11722000D02*
D03*
Y11468000D02*
D03*
Y11214000D02*
D03*
Y10960000D02*
D03*
Y10706000D02*
D03*
Y10452000D02*
D03*
X3026001Y290000D02*
D03*
X3280001D02*
D03*
X3534001D02*
D03*
X3788001D02*
D03*
X4042001D02*
D03*
X270000Y6150000D02*
D03*
D74*
X9640000Y10198000D02*
D03*
X270000Y6404000D02*
D03*
D75*
X9400000Y13638998D02*
D03*
X6730000Y12959000D02*
D03*
X6530000Y12561001D02*
D03*
X3290000Y12551001D02*
D03*
X3500000Y12948999D02*
D03*
D76*
X9400000Y13241000D02*
D03*
X6730000Y12561000D02*
D03*
X6530000Y12959000D02*
D03*
X3290000Y12949001D02*
D03*
X3500000Y12551000D02*
D03*
X4249000Y3500000D02*
D03*
X3400000Y5890000D02*
D03*
D77*
X5680000Y11460000D02*
D03*
X8870000Y12730000D02*
D03*
X5060000Y7840000D02*
D03*
D78*
X6140000Y11190000D02*
D03*
X2710000Y13300000D02*
D03*
X2670000Y5230000D02*
D03*
X3450000Y3350000D02*
D03*
D79*
X6140000Y11690000D02*
D03*
X2710000Y12800000D02*
D03*
X2670000Y4730000D02*
D03*
D80*
X2700000Y13850000D02*
D03*
X160000Y5450000D02*
D03*
X4510000Y590000D02*
D03*
D81*
X2136500Y11764000D02*
D03*
X1882500Y11510000D02*
D03*
D82*
X2136500Y11256000D02*
D03*
D83*
X2900000Y11158000D02*
D03*
X2760000Y8944000D02*
D03*
D84*
X2900000Y10904000D02*
D03*
Y10650000D02*
D03*
X2760000Y8436000D02*
D03*
Y8690000D02*
D03*
D85*
X7275000Y5365000D02*
D03*
Y4855000D02*
D03*
X7785000D02*
D03*
Y5365000D02*
D03*
D86*
X2300000Y320000D02*
D03*
X2100000D02*
D03*
X3280001Y940000D02*
D03*
X3480000D02*
D03*
X1750000Y330000D02*
D03*
X1550000D02*
D03*
D87*
X2772001Y290000D02*
D03*
D88*
X3851001Y3500000D02*
D03*
X3002001Y5890000D02*
D03*
D89*
X2950000Y3735000D02*
D03*
X2700000Y3985000D02*
D03*
X3200000D02*
D03*
X3015000Y5160000D02*
D03*
X3265000Y5410000D02*
D03*
Y4910000D02*
D03*
D90*
X4801000Y5329000D02*
D03*
X4791000Y3769000D02*
D03*
D91*
X4801000Y5583000D02*
D03*
Y5837000D02*
D03*
Y6091000D02*
D03*
X4039000Y5329000D02*
D03*
Y5583000D02*
D03*
Y5837000D02*
D03*
Y6091000D02*
D03*
X4791000Y4023000D02*
D03*
Y4277000D02*
D03*
Y4531000D02*
D03*
X4029000Y3769000D02*
D03*
Y4023000D02*
D03*
Y4277000D02*
D03*
Y4531000D02*
D03*
D92*
X430000Y4300000D02*
D03*
D93*
X230000D02*
D03*
X430000Y4100000D02*
D03*
X230000D02*
D03*
X430000Y3900000D02*
D03*
X230000D02*
D03*
X430000Y3700000D02*
D03*
X230000D02*
D03*
X430000Y3500000D02*
D03*
X230000D02*
D03*
X430000Y3300000D02*
D03*
X230000D02*
D03*
X430000Y3100000D02*
D03*
X230000D02*
D03*
X430000Y2900000D02*
D03*
X230000D02*
D03*
X430000Y2700000D02*
D03*
X230000D02*
D03*
X430000Y2500000D02*
D03*
X230000D02*
D03*
D94*
X2950000Y3350000D02*
D03*
D95*
X500000Y14500000D02*
D03*
X9500000D02*
D03*
Y7500000D02*
D03*
X500000D02*
D03*
Y500000D02*
D03*
X9500000D02*
D03*
D96*
X8000000Y6500000D02*
D03*
X8997500Y5500000D02*
D03*
X9000000Y2500000D02*
D03*
X8000000Y1500000D02*
D03*
D97*
X5370000Y3290000D02*
D03*
Y4040000D02*
D03*
Y4790000D02*
D03*
Y5790000D02*
D03*
D98*
X780000Y3960000D02*
D03*
X3710000Y3610000D02*
D03*
Y3390000D02*
D03*
X4245170Y9465495D02*
D03*
X1940000Y8170000D02*
D03*
X2508825Y12058115D02*
D03*
X795000Y11180000D02*
D03*
Y10980000D02*
D03*
Y10780000D02*
D03*
Y10580000D02*
D03*
Y10380000D02*
D03*
X510000Y10890000D02*
D03*
X1410000Y10170000D02*
D03*
X1604555Y10168132D02*
D03*
X1578639Y10500000D02*
D03*
X5800000Y10830000D02*
D03*
X5980000Y10790000D02*
D03*
X5710031Y11011142D02*
D03*
X5980000Y10060000D02*
D03*
X3860000Y9170000D02*
D03*
X3690000Y8690000D02*
D03*
Y9790000D02*
D03*
Y9250000D02*
D03*
X3750000Y8580000D02*
D03*
X4077032Y7215323D02*
D03*
X4033621Y7105745D02*
D03*
X1430000Y6700000D02*
D03*
X1290000Y6980000D02*
D03*
X520000Y10320000D02*
D03*
X320000D02*
D03*
X420000Y10440000D02*
D03*
X750000Y9890000D02*
D03*
X660000Y10030000D02*
D03*
X2942392Y11491194D02*
D03*
X2940000Y11710000D02*
D03*
X2960000Y11340000D02*
D03*
X2940000Y11950000D02*
D03*
X5730000Y12330000D02*
D03*
X6047870Y12332174D02*
D03*
X2200000Y3810000D02*
D03*
Y3960000D02*
D03*
X8820000Y10700000D02*
D03*
X8850000Y11740000D02*
D03*
Y11540000D02*
D03*
Y10940000D02*
D03*
Y11340000D02*
D03*
Y11140000D02*
D03*
Y11920000D02*
D03*
X7250000Y10320000D02*
D03*
X6387832Y8881307D02*
D03*
X5955000Y8805000D02*
D03*
X6044999Y8700000D02*
D03*
X5962388Y9078323D02*
D03*
X5390000Y9220000D02*
D03*
X1715000Y4420000D02*
D03*
Y4000000D02*
D03*
X725593Y2259762D02*
D03*
X820000Y2010000D02*
D03*
Y1300000D02*
D03*
X743800Y4660000D02*
D03*
X810000Y4790000D02*
D03*
X835000Y3410000D02*
D03*
X740000Y3250000D02*
D03*
Y2950000D02*
D03*
X840000Y2700000D02*
D03*
X740000Y2520000D02*
D03*
X815000Y4120780D02*
D03*
X6443435Y9934534D02*
D03*
X850000Y6725000D02*
D03*
X6920000Y8740000D02*
D03*
Y9100000D02*
D03*
X2353743Y9873743D02*
D03*
X2858323Y9272388D02*
D03*
X4590000Y7930000D02*
D03*
Y8250000D02*
D03*
X4477612Y8238323D02*
D03*
X3600000Y8140000D02*
D03*
X3561625Y8368292D02*
D03*
X3820000Y8040000D02*
D03*
X3790000Y7770000D02*
D03*
X3440000Y9460000D02*
D03*
X3503441Y9683441D02*
D03*
X6670000Y9290000D02*
D03*
X5010000Y12330000D02*
D03*
X5315000Y12329915D02*
D03*
X5220000Y12889999D02*
D03*
X2120000Y13210001D02*
D03*
X1940000Y13389999D02*
D03*
X1660000Y13150533D02*
D03*
X1460000Y13250000D02*
D03*
X1215000Y10410000D02*
D03*
X1950000Y10070000D02*
D03*
X1416298Y10060000D02*
D03*
X1540000Y10680000D02*
D03*
X2030000Y10497000D02*
D03*
X2097300Y9730000D02*
D03*
X1550500Y9760000D02*
D03*
X970000Y9670000D02*
D03*
X960000Y10170000D02*
D03*
X3260000Y9280000D02*
D03*
X6750800Y10593517D02*
D03*
X7510000Y11060000D02*
D03*
X7790000Y10470000D02*
D03*
X7540000Y10320000D02*
D03*
X7270000Y10150000D02*
D03*
X4680000Y9790000D02*
D03*
X6390000Y9180000D02*
D03*
X5860000Y8880000D02*
D03*
X5760000Y8770000D02*
D03*
X4690000Y6470000D02*
D03*
X4688949Y7621898D02*
D03*
X3816500Y7215000D02*
D03*
X3450000Y6910000D02*
D03*
X3170353Y7985352D02*
D03*
X3190000Y8100000D02*
D03*
X3110000Y9420000D02*
D03*
X3080000Y7387700D02*
D03*
X2101707Y7754000D02*
D03*
X1640000Y5240000D02*
D03*
X1661848Y4596750D02*
D03*
X1606073Y4691561D02*
D03*
X1620000Y3420000D02*
D03*
X1605000Y2010000D02*
D03*
Y2710000D02*
D03*
X1625000Y4130000D02*
D03*
X1629604Y1410396D02*
D03*
X1330000Y5560000D02*
D03*
X230000Y5250000D02*
D03*
X420000Y5360000D02*
D03*
X760000Y4980000D02*
D03*
Y5203500D02*
D03*
X4320000Y7530000D02*
D03*
X4350000Y9370000D02*
D03*
X4690000Y9200000D02*
D03*
X4770000Y8800000D02*
D03*
X4808000Y8907700D02*
D03*
X4130000Y7710000D02*
D03*
X3620000Y8510000D02*
D03*
Y9600000D02*
D03*
X3807552Y9779946D02*
D03*
X3988000Y9168000D02*
D03*
X3990000Y9450000D02*
D03*
X3978323Y10492388D02*
D03*
X4370000Y8800000D02*
D03*
Y8600000D02*
D03*
X3970000D02*
D03*
Y8800000D02*
D03*
X3944291Y6520285D02*
D03*
X3960000Y6830000D02*
D03*
X3750000Y7530000D02*
D03*
X3690000Y7780000D02*
D03*
X4070000D02*
D03*
X880000Y10880000D02*
D03*
Y11080000D02*
D03*
X980000Y10980000D02*
D03*
Y11180000D02*
D03*
X520000Y11420000D02*
D03*
X310000D02*
D03*
X410000Y10790000D02*
D03*
X510000Y10690000D02*
D03*
X520000Y11230000D02*
D03*
X300000D02*
D03*
X310000Y10890000D02*
D03*
Y10690000D02*
D03*
X400000Y9930000D02*
D03*
Y9780000D02*
D03*
X500000Y10030000D02*
D03*
X300000D02*
D03*
X3140000Y9280000D02*
D03*
X3130054Y10440000D02*
D03*
X3630000Y10440000D02*
D03*
X3732000Y10365000D02*
D03*
X3490000Y10310000D02*
D03*
X2700000Y10550000D02*
D03*
X9030000Y11540000D02*
D03*
Y11340000D02*
D03*
Y11140000D02*
D03*
Y10940000D02*
D03*
X9230000Y11540000D02*
D03*
Y11340000D02*
D03*
Y11140000D02*
D03*
Y10940000D02*
D03*
X9200000Y10540000D02*
D03*
X9300000Y10440000D02*
D03*
X9230000Y11740000D02*
D03*
X9030000D02*
D03*
X9230000Y11920000D02*
D03*
X9030000D02*
D03*
X7800000Y11340000D02*
D03*
Y11540000D02*
D03*
Y11740000D02*
D03*
Y11920000D02*
D03*
X7970000Y10940000D02*
D03*
Y11140000D02*
D03*
Y11340000D02*
D03*
Y11540000D02*
D03*
Y11740000D02*
D03*
Y11920000D02*
D03*
X5010000Y11620000D02*
D03*
Y11820000D02*
D03*
X4950000Y11310000D02*
D03*
X4210000Y11070000D02*
D03*
X4810000Y11620000D02*
D03*
Y11420000D02*
D03*
X4640000D02*
D03*
Y11620000D02*
D03*
X4810000Y11820000D02*
D03*
X4640000D02*
D03*
X3650000Y11070000D02*
D03*
X3850000D02*
D03*
X4050000D02*
D03*
X3450000Y11270000D02*
D03*
X3650000D02*
D03*
X3850000D02*
D03*
X4050000D02*
D03*
X4210000D02*
D03*
X3250000Y11470000D02*
D03*
X3450000D02*
D03*
X3650000D02*
D03*
X3850000D02*
D03*
X4050000D02*
D03*
X4210000D02*
D03*
X3560000Y9820000D02*
D03*
X2620000Y12060000D02*
D03*
X5070000Y8710000D02*
D03*
X5860000Y8020000D02*
D03*
X6080000Y7810000D02*
D03*
X7180000Y8120000D02*
D03*
X6980000D02*
D03*
X6780000D02*
D03*
X6580000D02*
D03*
X7180000Y8320000D02*
D03*
X6980000D02*
D03*
X6780000D02*
D03*
X6580000D02*
D03*
X6380000D02*
D03*
X6390000Y8120000D02*
D03*
X6190000Y8320000D02*
D03*
X5490000Y7440000D02*
D03*
Y7640000D02*
D03*
Y7840000D02*
D03*
X5690000Y7240000D02*
D03*
Y7440000D02*
D03*
Y7640000D02*
D03*
Y7840000D02*
D03*
X6090000Y7640000D02*
D03*
X5890000Y7440000D02*
D03*
Y7640000D02*
D03*
Y7840000D02*
D03*
X4170000Y8800000D02*
D03*
Y8600000D02*
D03*
X4770000D02*
D03*
X4970000D02*
D03*
X5170000D02*
D03*
X4970000Y8800000D02*
D03*
X169244Y12016035D02*
D03*
X398840Y13102980D02*
D03*
X930000Y9350000D02*
D03*
X870000Y9290000D02*
D03*
X7098800Y9647200D02*
D03*
X5570000Y8290000D02*
D03*
X7780000Y10150000D02*
D03*
X4740000Y7800000D02*
D03*
X964969Y9998511D02*
D03*
X2380000Y12300000D02*
D03*
X2400000Y12180000D02*
D03*
X550000Y6470000D02*
D03*
X970000Y6450000D02*
D03*
X2420000Y1040000D02*
D03*
X1700000Y3260000D02*
D03*
Y1880000D02*
D03*
Y2550000D02*
D03*
X2370000Y5970000D02*
D03*
X1920000Y1180000D02*
D03*
X2020000D02*
D03*
X1820000D02*
D03*
X1427700Y890001D02*
D03*
X1920000Y1080000D02*
D03*
Y980000D02*
D03*
Y880000D02*
D03*
Y780000D02*
D03*
Y680000D02*
D03*
Y580000D02*
D03*
Y480000D02*
D03*
X5940000Y5600000D02*
D03*
X7370000Y6770000D02*
D03*
X7470000D02*
D03*
Y6870000D02*
D03*
X7370000D02*
D03*
X1860000Y12780000D02*
D03*
X2170000Y10330000D02*
D03*
X3720000Y13460001D02*
D03*
X7250000Y11060000D02*
D03*
X5072997Y11305758D02*
D03*
X2660000Y10990000D02*
D03*
Y10860000D02*
D03*
X1010000Y5520000D02*
D03*
X6655676Y13405606D02*
D03*
X7180000Y11550000D02*
D03*
X7170000Y12290000D02*
D03*
X600000Y5380000D02*
D03*
X5950000Y4610000D02*
D03*
X7830000Y9240000D02*
D03*
X5170000Y3720000D02*
D03*
X7970000Y8760000D02*
D03*
X4440000Y4820000D02*
D03*
Y4720000D02*
D03*
X4640000D02*
D03*
Y4820000D02*
D03*
X2427300Y870000D02*
D03*
X1427700Y700000D02*
D03*
Y1060000D02*
D03*
X460000Y5627700D02*
D03*
X115000Y10047700D02*
D03*
X5679800Y14030000D02*
D03*
X6659800Y13510001D02*
D03*
X7400000Y11832700D02*
D03*
X7950000Y10562300D02*
D03*
X6300000Y9560700D02*
D03*
X3720000Y6649800D02*
D03*
X3080000Y6867700D02*
D03*
X1860000Y10990000D02*
D03*
X1630000Y11200000D02*
D03*
X170000Y11460000D02*
D03*
X770000Y12989999D02*
D03*
X680000Y11700000D02*
D03*
X1120000Y10460000D02*
D03*
X5530000Y10780000D02*
D03*
X4693000Y10730393D02*
D03*
X4947000Y10893000D02*
D03*
X3510000Y3590000D02*
D03*
X3310000Y3690000D02*
D03*
Y3490000D02*
D03*
X1270000Y11160000D02*
D03*
X2300000Y1190000D02*
D03*
X4140000Y13410001D02*
D03*
X601109Y5698891D02*
D03*
M02*
