M48
;Layer_Color=9474304
;FILE_FORMAT=4:4
METRIC,LZ
;TYPE=PLATED
T01F00S00C0.3000
T02F00S00C0.7000
T03F00S00C0.7500
T04F00S00C0.8000
T05F00S00C0.9000
T06F00S00C1.0000
T07F00S00C1.1000
T08F00S00C1.2000
T09F00S00C1.4200
T10F00S00C1.5000
T11F00S00C1.8000
T12F00S00C2.6416
;TYPE=NON_PLATED
T13F00S00C1.5000
T14F00S00C3.0000
T15F00S00C3.5000
%
T01
X00082Y0013
X0014277Y00106
Y00089
Y0007
X00182Y00118
X0016296Y0014104
X0017Y00188
X00192Y00118
Y00108
Y00098
Y00088
Y00078
Y00068
Y00058
Y00048
X00202Y00118
X0023Y00119
X00242Y00104
X0024273Y00087
X00595Y00461
X00594Y0056
X00464Y00482
Y00472
X00444
Y00482
X00517Y00372
X00371Y00361
Y00339
X00351Y00359
X00331Y00369
Y00349
X0022Y00381
Y00396
X001715Y004
X001625Y00413
X001715Y00442
X00166185Y00459675
X00160607Y00469156
X00164Y00524
X00133Y00556
X00101Y00552
X0006Y00538
X00042Y00536
X00023Y00525
X00076Y0052035
Y00498
X00081Y00479
X0007438Y00466
X000815Y00412078
X00078Y00396
X000835Y00341
X00074Y00325
Y00295
X00084Y0027
X00074Y00252
X00072559Y00225976
X00082Y00201
X001605
X0017Y00255
X001605Y00271
X0017Y00326
X00162Y00342
X00060111Y00569889
X00046Y0056277
X00055Y00647
X00097Y00645
X00085Y006725
X00143Y0067
X00129Y00698
X00087Y00929
X00093Y00935
X00097Y00967
X0015505Y00976
X0004Y00978
X0020973Y00973
X00285832Y00927239
X00314Y00928
X00326
X00311Y00942
X00344Y00946
X00350344Y00968344
X00356Y00982
X00369Y00979
X00380755Y00977995
X00362Y0096
X00369Y00925
X00386Y00917
X003988Y009168
X00399Y00945
X00424517Y0094655
X00435Y00937
X00469Y0092
X004808Y0089077
X00477Y0088
Y0086
X00497
Y0088
X00507Y00871
X00517Y0086
X00557Y00829
X00549Y00784
Y00764
Y00744
X00569
Y00764
Y00784
X00586Y00802
X00576Y00877
X00586Y00888
X00539Y00922
X00468Y00979
X00437Y0088
Y0086
X00417
Y0088
X00397
Y0086
X00375Y00858
X00369Y00869
X00362Y00851
X00356162Y00836829
X0036Y00814
X00382Y00804
X00379Y00777
X00369Y00778
X00375Y00753
X0038165Y007215
X00407703Y00721532
X00403362Y00710574
X00396Y00683
X00394429Y00652029
X00372Y0066498
X00345Y00691
X00308Y0068677
Y0073877
X00317035Y00798535
X00319Y0081
X00407Y00778
X00413Y00771
X00432Y00753
X00468895Y0076219
X00474Y0078
X00459Y00793
Y00825
X00447761Y00823832
X00469Y00647
X00569Y00724
X00210171Y007754
X00194Y00817
X00237Y00597
X00589Y00744
Y00764
X00609
X00608Y00781
X00589Y00784
X00639Y00812
X00658
X00678
X00698
X00718
Y00832
X00698
X00678
X00658
X00638
X00619
X006045Y0087
X005955Y008805
X00596239Y00907832
X00639Y00918
X00638783Y00888131
X00692Y00874
Y0091
X00667Y00929
X0063Y0095607
X0070988Y0096472
X00783Y00924
X00797Y00876
X00747Y00687
Y00677
X00737
Y00687
X00727Y01015
X00725Y01032
X00754
X00779Y01047
X00795Y0105623
X00797Y01094
Y01114
Y01134
X0078
Y01154
X00797
Y01174
X0078
Y01192
X00797
X0074Y0118327
X00718Y01155
X00725Y01106
X00751
X00778Y01015
X0067508Y01059352
X00644343Y00993453
X00598Y01006
Y01079
X00604787Y01233217
X00717Y01229
X00665568Y01340561
X0066598Y01351
X00885Y01192
X00903
Y01174
X00885
Y01154
X00903
X00923
Y01174
Y01192
Y01134
X00903
X00885
Y01114
X00903
X00923
Y01094
X00903
X00885
X00882Y0107
X0092Y01054
X0093Y01044
X0058Y01083
X00571003Y01101114
X00553Y01078
X004947Y010893
X004693Y01073039
X00464Y01142
X00481
Y01162
X00464
Y01182
X00481
X00501
Y01162
X00495Y01131
X005073Y01130576
X00421Y01127
X00405
Y01147
X00421
X00385
Y01127
X00365
Y01147
X00345
Y01127
X00325Y01147
X00294239Y01149119
X00296Y01134
X00294Y01171
Y01195
X00262Y01206
X00250882Y01205811
X0024Y01218
X00238Y0123
X00212Y01321
X00194Y01339
X00372Y01346
X00414Y01341
X00522Y01289
X005315Y01232991
X00501Y01233
X00573
X00421Y01107
X00405
X00385
X00365
X00363Y01044
X003732Y010365
X00349Y01031
X00313005Y01044
X0027Y01055
X00266Y01086
Y01099
X00203Y010497
X00217Y01033
X00195Y01007
X00235374Y00987374
X00397832Y01049239
X00157864Y0105
X00154Y01068
X00160455Y01016813
X00141Y01017
X0014163Y01006
X00096497Y00999851
X00096Y01017
X000795Y01038
Y01058
Y01078
X00088Y01088
X000795Y01098
X00088Y01108
X000795Y01118
X00098
Y01098
X00127Y01116
X00163Y0112
X00186Y01099
X001215Y01041
X00112Y01046
X00042Y01044
X00032Y01032
X00052
X0005Y01003
X00066
X00075Y00989
X0004Y00993
X0003Y01003
X000115Y0100477
X00031Y01069
X00041Y01079
X00051Y01089
Y01069
X00031Y01089
X0003Y01123
X00031Y01142
X00017Y01146
X00052Y01142
Y01123
X00068Y0117
X00016924Y01201603
X00039884Y01310298
X00077Y01299
X00146Y01325
X00166Y01315053
X00186Y01278
X0056798Y01403
T02
X00155Y00033
X00175
X0021Y00032
X0023
X00328Y00094
X00348
T03
X0021365Y011256
Y011764
X0018825Y01151
T04
X00023Y0025
Y0027
Y0029
Y0031
Y0033
Y0035
Y0037
Y0039
Y0041
Y0043
X00043
Y0041
Y0039
Y0037
Y0035
Y0033
Y0031
Y0029
Y0027
Y0025
X00646Y00725
Y00775
X00788
Y00725
T05
X00451Y00059
X004791Y003769
Y004023
Y004277
Y004531
X004029
Y004277
Y004023
Y003769
X004039Y005329
Y005583
Y005837
X004801
Y005583
Y005329
X00016Y00545
X004039Y006091
X004801
X00506Y00784
X00887Y01273
X00568Y01146
X0027Y01385
T06
X007275Y004855
Y005365
X007785
Y004855
X004249Y0035
X003851
X00345Y00335
X00295
X00267Y00473
Y00523
X003002Y00589
X0034
X00276Y008436
Y00869
Y008944
X00614Y01119
Y01169
X00653Y012561
X00673Y012561
Y012959
X00653Y012959
X00696Y01042
X0094Y013241
Y013639
X0035Y012949
X00329Y012949
Y012551
X0035Y012551
X00271Y0128
Y0133
X0029Y011158
Y010904
Y01065
X00332Y01042
X00482
X00546
T07
X002772Y00029
X003026
X00328
X003534
X003788
X004042
X00027Y00615
Y006404
X007146Y012545
X0074
X007654
X007781Y012975
X007527
X007273
X007019
X00964Y011976
Y011722
Y011468
Y011214
Y01096
Y010706
Y010452
Y010198
X004394Y012525
X00414
X003886
X003759Y012955
X004013
X004267
X004521
T08
X00295Y003735
X0027Y003985
X0032
X003265Y00491
X003015Y00516
X003265Y00541
X00313384Y0139606
X00388384
X00463386
X00663384
X00738385
X00813387
T09
X00537Y00329
Y00404
Y00479
Y00579
T10
X008Y0015
X009Y0025
X0089975Y0055
X008Y0065
T11
X00496Y00081
X00804Y00081
X00625Y0025
Y00325
Y004
Y00475
Y0055
X0055Y00254
X00236Y00198
X00905848Y00915675
T12
X00322Y0015
X00582Y00033
X00725Y00192
X00465Y00309
T13
X00313384Y01460499
X00388382Y0146066
X00463386
X00663384Y01459735
X00738382Y01459896
X00813385
T14
X00967357Y00915677
T15
X0005Y0005
X0095
X0005Y0075
X0095
X0005Y0145
X0095
M30
