G04*
G04 #@! TF.GenerationSoftware,Altium Limited,Altium Designer,24.3.1 (35)*
G04*
G04 Layer_Color=8388736*
%FSLAX25Y25*%
%MOIN*%
G70*
G04*
G04 #@! TF.SameCoordinates,B66C1CC3-219B-4653-80DD-37234FDAD4F4*
G04*
G04*
G04 #@! TF.FilePolarity,Negative*
G04*
G01*
G75*
%ADD10C,0.00787*%
%ADD23R,0.01545X0.03959*%
G04:AMPARAMS|DCode=24|XSize=39.59mil|YSize=15.45mil|CornerRadius=7.73mil|HoleSize=0mil|Usage=FLASHONLY|Rotation=90.000|XOffset=0mil|YOffset=0mil|HoleType=Round|Shape=RoundedRectangle|*
%AMROUNDEDRECTD24*
21,1,0.03959,0.00000,0,0,90.0*
21,1,0.02414,0.01545,0,0,90.0*
1,1,0.01545,0.00000,0.01207*
1,1,0.01545,0.00000,-0.01207*
1,1,0.01545,0.00000,-0.01207*
1,1,0.01545,0.00000,0.01207*
%
%ADD24ROUNDEDRECTD24*%
G04:AMPARAMS|DCode=32|XSize=39.59mil|YSize=15.45mil|CornerRadius=7.73mil|HoleSize=0mil|Usage=FLASHONLY|Rotation=0.000|XOffset=0mil|YOffset=0mil|HoleType=Round|Shape=RoundedRectangle|*
%AMROUNDEDRECTD32*
21,1,0.03959,0.00000,0,0,0.0*
21,1,0.02414,0.01545,0,0,0.0*
1,1,0.01545,0.01207,0.00000*
1,1,0.01545,-0.01207,0.00000*
1,1,0.01545,-0.01207,0.00000*
1,1,0.01545,0.01207,0.00000*
%
%ADD32ROUNDEDRECTD32*%
%ADD33R,0.03959X0.01545*%
%ADD34R,0.14961X0.09843*%
%ADD35R,0.31102X0.09055*%
%ADD36R,0.13386X0.09055*%
%ADD50R,0.07099X0.04737*%
%ADD51R,0.12402X0.12402*%
%ADD52C,0.01240*%
%ADD53R,0.05072X0.02965*%
%ADD54P,0.05586X4X75.0*%
G04:AMPARAMS|DCode=55|XSize=86.74mil|YSize=51.31mil|CornerRadius=0mil|HoleSize=0mil|Usage=FLASHONLY|Rotation=30.000|XOffset=0mil|YOffset=0mil|HoleType=Round|Shape=Rectangle|*
%AMROTATEDRECTD55*
4,1,4,-0.02473,-0.04390,-0.05039,0.00053,0.02473,0.04390,0.05039,-0.00053,-0.02473,-0.04390,0.0*
%
%ADD55ROTATEDRECTD55*%

%ADD56P,0.05586X4X345.0*%
G04:AMPARAMS|DCode=57|XSize=86.74mil|YSize=51.31mil|CornerRadius=0mil|HoleSize=0mil|Usage=FLASHONLY|Rotation=300.000|XOffset=0mil|YOffset=0mil|HoleType=Round|Shape=Rectangle|*
%AMROTATEDRECTD57*
4,1,4,-0.04390,0.02473,0.00053,0.05039,0.04390,-0.02473,-0.00053,-0.05039,-0.04390,0.02473,0.0*
%
%ADD57ROTATEDRECTD57*%

%ADD58O,0.03359X0.06804*%
%ADD59R,0.03359X0.06804*%
%ADD60R,0.04737X0.07099*%
%ADD61R,0.05131X0.03162*%
%ADD62O,0.06804X0.03359*%
%ADD63R,0.05721X0.04737*%
%ADD64R,0.04737X0.05721*%
%ADD65R,0.01981X0.06509*%
G04:AMPARAMS|DCode=66|XSize=70.99mil|YSize=31.62mil|CornerRadius=15.81mil|HoleSize=0mil|Usage=FLASHONLY|Rotation=180.000|XOffset=0mil|YOffset=0mil|HoleType=Round|Shape=RoundedRectangle|*
%AMROUNDEDRECTD66*
21,1,0.07099,0.00000,0,0,180.0*
21,1,0.03937,0.03162,0,0,180.0*
1,1,0.03162,-0.01968,0.00000*
1,1,0.03162,0.01968,0.00000*
1,1,0.03162,0.01968,0.00000*
1,1,0.03162,-0.01968,0.00000*
%
%ADD66ROUNDEDRECTD66*%
%ADD67R,0.06804X0.03359*%
%ADD68R,0.07887X0.04343*%
%ADD69R,0.06312X0.02572*%
%ADD70R,0.04934X0.03556*%
%ADD71R,0.11036X0.05131*%
%ADD72C,0.07874*%
%ADD73R,0.05131X0.11036*%
%ADD74R,0.35249X0.21272*%
%ADD75R,0.07099X0.03162*%
%ADD76R,0.07887X0.13398*%
%ADD77C,0.05906*%
%ADD78R,0.15436X0.20473*%
%ADD79C,0.08674*%
%ADD80R,0.08674X0.08674*%
%ADD81C,0.09461*%
%ADD82C,0.10642*%
%ADD83C,0.06312*%
%ADD84R,0.10249X0.10249*%
%ADD85C,0.10249*%
%ADD86C,0.07296*%
%ADD87R,0.07296X0.07296*%
%ADD88C,0.06706*%
%ADD89O,0.05930X0.06312*%
%ADD90O,0.06312X0.05930*%
%ADD91O,0.08477X0.05918*%
%ADD92C,0.05918*%
%ADD93R,0.05918X0.05918*%
%ADD94C,0.12611*%
%ADD95C,0.16548*%
%ADD96C,0.05524*%
%ADD97O,0.09068X0.06312*%
%ADD98C,0.32296*%
%ADD99C,0.04724*%
%ADD100C,0.03950*%
%ADD101C,0.07887*%
%ADD102R,0.35433X0.35433*%
%ADD103R,0.28055X0.07874*%
%ADD104R,1.34843X0.63499*%
%ADD105R,0.35433X0.39370*%
%ADD106R,0.35433X0.36417*%
G36*
X90059Y250757D02*
X108127Y232688D01*
X25731Y232688D01*
X43799Y250757D01*
X90059Y250757D01*
D02*
G37*
G36*
X108127Y170627D02*
X90059Y152559D01*
X43799D01*
X25731Y170627D01*
X108127Y170627D01*
D02*
G37*
G36*
X561881Y136516D02*
Y136379D01*
X561776Y136126D01*
X561582Y135932D01*
X561329Y135827D01*
X561055D01*
X560802Y135932D01*
X560608Y136126D01*
X560503Y136379D01*
Y136516D01*
Y139764D01*
X561881D01*
Y136516D01*
D02*
G37*
G36*
X559322D02*
Y136379D01*
X559217Y136126D01*
X559023Y135932D01*
X558770Y135827D01*
X558496D01*
X558243Y135932D01*
X558049Y136126D01*
X557944Y136379D01*
Y136516D01*
Y139764D01*
X559322D01*
X559322Y136516D01*
D02*
G37*
G36*
X556763D02*
Y136379D01*
X556658Y136126D01*
X556464Y135932D01*
X556211Y135827D01*
X555937D01*
X555684Y135932D01*
X555490Y136126D01*
X555385Y136379D01*
Y136516D01*
Y139764D01*
X556763D01*
Y136516D01*
D02*
G37*
G36*
X554204D02*
Y136379D01*
X554099Y136126D01*
X553905Y135932D01*
X553652Y135827D01*
X553378D01*
X553124Y135932D01*
X552931Y136126D01*
X552826Y136379D01*
Y136516D01*
X552826D01*
Y139764D01*
X554204D01*
Y136516D01*
D02*
G37*
G36*
X551645D02*
Y136379D01*
X551540Y136126D01*
X551346Y135932D01*
X551093Y135827D01*
X550819D01*
X550565Y135932D01*
X550372Y136126D01*
X550267Y136379D01*
Y136516D01*
Y139764D01*
X551645D01*
Y136516D01*
D02*
G37*
G36*
X651476Y136516D02*
Y136379D01*
X651371Y136126D01*
X651178Y135932D01*
X650924Y135827D01*
X650650D01*
X650397Y135932D01*
X650203Y136126D01*
X650098Y136379D01*
Y136516D01*
Y139764D01*
X651476D01*
Y136516D01*
D02*
G37*
G36*
X648917D02*
Y136379D01*
X648812Y136126D01*
X648619Y135932D01*
X648365Y135827D01*
X648091D01*
X647838Y135932D01*
X647644Y136126D01*
X647539Y136379D01*
Y136516D01*
Y139764D01*
X648917D01*
X648917Y136516D01*
D02*
G37*
G36*
X646358D02*
Y136379D01*
X646253Y136126D01*
X646060Y135932D01*
X645806Y135827D01*
X645532D01*
X645279Y135932D01*
X645085Y136126D01*
X644980Y136379D01*
Y136516D01*
Y139764D01*
X646358D01*
Y136516D01*
D02*
G37*
G36*
X643799D02*
Y136379D01*
X643694Y136126D01*
X643501Y135932D01*
X643247Y135827D01*
X642973D01*
X642720Y135932D01*
X642526Y136126D01*
X642421Y136379D01*
Y136516D01*
X642421D01*
Y139764D01*
X643799D01*
Y136516D01*
D02*
G37*
G36*
X641240D02*
Y136379D01*
X641135Y136126D01*
X640941Y135932D01*
X640688Y135827D01*
X640414D01*
X640161Y135932D01*
X639967Y136126D01*
X639862Y136379D01*
Y136516D01*
Y139764D01*
X641240D01*
Y136516D01*
D02*
G37*
G36*
X567491Y132776D02*
X564106D01*
X563853Y132880D01*
X563659Y133074D01*
X563554Y133327D01*
Y133465D01*
Y133602D01*
X563659Y133855D01*
X563853Y134049D01*
X564106Y134154D01*
X567491D01*
Y132776D01*
D02*
G37*
G36*
X548295Y134049D02*
X548489Y133855D01*
X548594Y133602D01*
Y133465D01*
Y133327D01*
X548489Y133074D01*
X548295Y132880D01*
X548041Y132776D01*
X544657D01*
Y134154D01*
X548041D01*
X548295Y134049D01*
D02*
G37*
G36*
X657087Y132776D02*
X653701D01*
X653448Y132880D01*
X653255Y133074D01*
X653150Y133327D01*
Y133465D01*
Y133602D01*
X653255Y133855D01*
X653448Y134049D01*
X653701Y134153D01*
X657087D01*
Y132776D01*
D02*
G37*
G36*
X637890Y134049D02*
X638084Y133855D01*
X638189Y133602D01*
Y133465D01*
Y133327D01*
X638084Y133074D01*
X637890Y132880D01*
X637637Y132776D01*
X634252D01*
Y134153D01*
X637637D01*
X637890Y134049D01*
D02*
G37*
G36*
X564243Y131595D02*
X567491D01*
Y130217D01*
X564106D01*
X563853Y130321D01*
X563659Y130515D01*
X563554Y130769D01*
Y130905D01*
Y131043D01*
X563659Y131296D01*
X563853Y131490D01*
X564106Y131595D01*
X564243D01*
Y131595D01*
D02*
G37*
G36*
X548295Y131490D02*
X548489Y131296D01*
X548594Y131043D01*
Y130905D01*
Y130769D01*
X548489Y130515D01*
X548295Y130321D01*
X548041Y130217D01*
X544657D01*
Y131595D01*
X547904Y131595D01*
X548041D01*
X548295Y131490D01*
D02*
G37*
G36*
X653839Y131595D02*
X657087D01*
Y130217D01*
X653701D01*
X653448Y130321D01*
X653255Y130515D01*
X653150Y130769D01*
Y130905D01*
Y131043D01*
X653255Y131296D01*
X653448Y131490D01*
X653701Y131595D01*
X653839D01*
Y131595D01*
D02*
G37*
G36*
X637890Y131490D02*
X638084Y131296D01*
X638189Y131043D01*
Y130905D01*
Y130769D01*
X638084Y130515D01*
X637890Y130321D01*
X637637Y130217D01*
X634252D01*
Y131595D01*
X637500Y131595D01*
X637637D01*
X637890Y131490D01*
D02*
G37*
G36*
X567491Y127657D02*
X564106D01*
X563853Y127762D01*
X563659Y127956D01*
X563554Y128209D01*
Y128347D01*
Y128483D01*
X563659Y128737D01*
X563853Y128930D01*
X564106Y129035D01*
X567491D01*
Y127657D01*
D02*
G37*
G36*
X548295Y128930D02*
X548489Y128737D01*
X548594Y128483D01*
Y128347D01*
Y128209D01*
X548489Y127956D01*
X548295Y127762D01*
X548041Y127657D01*
X544657D01*
Y129035D01*
X548041D01*
X548295Y128930D01*
D02*
G37*
G36*
X657087Y127657D02*
X653701D01*
X653448Y127762D01*
X653255Y127956D01*
X653150Y128209D01*
Y128347D01*
Y128483D01*
X653255Y128737D01*
X653448Y128930D01*
X653701Y129035D01*
X657087D01*
Y127657D01*
D02*
G37*
G36*
X637890Y128930D02*
X638084Y128737D01*
X638189Y128483D01*
Y128347D01*
Y128209D01*
X638084Y127956D01*
X637890Y127762D01*
X637637Y127657D01*
X634252D01*
Y129035D01*
X637637D01*
X637890Y128930D01*
D02*
G37*
G36*
X567491Y125098D02*
X564243Y125098D01*
X564106D01*
X563853Y125203D01*
X563659Y125397D01*
X563554Y125650D01*
Y125787D01*
Y125925D01*
X563659Y126178D01*
X563853Y126372D01*
X564106Y126476D01*
X567491D01*
Y125098D01*
D02*
G37*
G36*
X548295Y126372D02*
X548489Y126178D01*
X548594Y125925D01*
Y125787D01*
Y125650D01*
X548489Y125397D01*
X548295Y125203D01*
X548041Y125098D01*
X547904D01*
Y125098D01*
X544657D01*
Y126476D01*
X548041D01*
X548295Y126372D01*
D02*
G37*
G36*
X657087Y125098D02*
X653839Y125098D01*
X653701D01*
X653448Y125203D01*
X653255Y125397D01*
X653150Y125650D01*
Y125787D01*
Y125924D01*
X653255Y126178D01*
X653448Y126372D01*
X653701Y126476D01*
X657087D01*
Y125098D01*
D02*
G37*
G36*
X637890Y126372D02*
X638084Y126178D01*
X638189Y125924D01*
Y125787D01*
Y125650D01*
X638084Y125397D01*
X637890Y125203D01*
X637637Y125098D01*
X637500D01*
Y125098D01*
X634252D01*
Y126476D01*
X637637D01*
X637890Y126372D01*
D02*
G37*
G36*
X567491Y122539D02*
X564106D01*
X563853Y122644D01*
X563659Y122838D01*
X563554Y123091D01*
Y123228D01*
Y123365D01*
X563659Y123619D01*
X563853Y123812D01*
X564106Y123917D01*
X567491D01*
Y122539D01*
D02*
G37*
G36*
X548295Y123812D02*
X548489Y123619D01*
X548594Y123365D01*
Y123228D01*
Y123091D01*
X548489Y122838D01*
X548295Y122644D01*
X548041Y122539D01*
X544657D01*
Y123917D01*
X548041D01*
X548295Y123812D01*
D02*
G37*
G36*
X657087Y122539D02*
X653701D01*
X653448Y122644D01*
X653255Y122838D01*
X653150Y123091D01*
Y123228D01*
Y123365D01*
X653255Y123619D01*
X653448Y123812D01*
X653701Y123917D01*
X657087D01*
Y122539D01*
D02*
G37*
G36*
X637890Y123812D02*
X638084Y123619D01*
X638189Y123365D01*
Y123228D01*
Y123091D01*
X638084Y122838D01*
X637890Y122644D01*
X637637Y122539D01*
X634252D01*
Y123917D01*
X637637D01*
X637890Y123812D01*
D02*
G37*
G36*
X561582Y120761D02*
X561776Y120568D01*
X561881Y120314D01*
Y120177D01*
Y116929D01*
X560503D01*
Y120177D01*
Y120314D01*
X560608Y120568D01*
X560802Y120761D01*
X561055Y120866D01*
X561329D01*
X561582Y120761D01*
D02*
G37*
G36*
X559023D02*
X559217Y120568D01*
X559322Y120314D01*
Y120177D01*
X559322D01*
Y116929D01*
X557944D01*
Y120177D01*
Y120314D01*
X558049Y120568D01*
X558243Y120761D01*
X558496Y120866D01*
X558770D01*
X559023Y120761D01*
D02*
G37*
G36*
X556464D02*
X556658Y120568D01*
X556763Y120314D01*
Y120177D01*
Y116929D01*
X555385D01*
Y120177D01*
Y120314D01*
X555490Y120568D01*
X555684Y120761D01*
X555937Y120866D01*
X556211D01*
X556464Y120761D01*
D02*
G37*
G36*
X553905D02*
X554099Y120568D01*
X554204Y120314D01*
Y120177D01*
Y116929D01*
X552826D01*
X552826Y120177D01*
Y120314D01*
X552931Y120568D01*
X553124Y120761D01*
X553378Y120866D01*
X553652D01*
X553905Y120761D01*
D02*
G37*
G36*
X551346D02*
X551540Y120568D01*
X551645Y120314D01*
Y120177D01*
Y116929D01*
X550267D01*
Y120177D01*
Y120314D01*
X550372Y120568D01*
X550565Y120761D01*
X550819Y120866D01*
X551093D01*
X551346Y120761D01*
D02*
G37*
G36*
X651178Y120761D02*
X651371Y120567D01*
X651476Y120314D01*
Y120177D01*
Y116929D01*
X650098D01*
Y120177D01*
Y120314D01*
X650203Y120567D01*
X650397Y120761D01*
X650650Y120866D01*
X650924D01*
X651178Y120761D01*
D02*
G37*
G36*
X648619D02*
X648812Y120567D01*
X648917Y120314D01*
Y120177D01*
X648917D01*
Y116929D01*
X647539D01*
Y120177D01*
Y120314D01*
X647644Y120567D01*
X647838Y120761D01*
X648091Y120866D01*
X648365D01*
X648619Y120761D01*
D02*
G37*
G36*
X646060D02*
X646253Y120567D01*
X646358Y120314D01*
Y120177D01*
Y116929D01*
X644980D01*
Y120177D01*
Y120314D01*
X645085Y120567D01*
X645279Y120761D01*
X645532Y120866D01*
X645806D01*
X646060Y120761D01*
D02*
G37*
G36*
X643501D02*
X643694Y120567D01*
X643799Y120314D01*
Y120177D01*
Y116929D01*
X642421D01*
X642421Y120177D01*
Y120314D01*
X642526Y120567D01*
X642720Y120761D01*
X642973Y120866D01*
X643247D01*
X643501Y120761D01*
D02*
G37*
G36*
X640941D02*
X641135Y120567D01*
X641240Y120314D01*
Y120177D01*
Y116929D01*
X639862D01*
Y120177D01*
Y120314D01*
X639967Y120567D01*
X640161Y120761D01*
X640414Y120866D01*
X640688D01*
X640941Y120761D01*
D02*
G37*
G36*
X650463Y42815D02*
Y42678D01*
X650359Y42425D01*
X650165Y42231D01*
X649912Y42126D01*
X649638D01*
X649384Y42231D01*
X649191Y42425D01*
X649086Y42678D01*
Y42815D01*
Y46063D01*
X650463D01*
Y42815D01*
D02*
G37*
G36*
X647904D02*
Y42678D01*
X647800Y42425D01*
X647606Y42231D01*
X647353Y42126D01*
X647079D01*
X646825Y42231D01*
X646631Y42425D01*
X646526Y42678D01*
Y42815D01*
Y46063D01*
X647904D01*
X647904Y42815D01*
D02*
G37*
G36*
X645345D02*
Y42678D01*
X645240Y42425D01*
X645047Y42231D01*
X644794Y42126D01*
X644519D01*
X644266Y42231D01*
X644072Y42425D01*
X643967Y42678D01*
Y42815D01*
Y46063D01*
X645345D01*
Y42815D01*
D02*
G37*
G36*
X642786D02*
Y42678D01*
X642682Y42425D01*
X642488Y42231D01*
X642234Y42126D01*
X641960D01*
X641707Y42231D01*
X641513Y42425D01*
X641408Y42678D01*
Y42815D01*
X641408D01*
Y46063D01*
X642786D01*
Y42815D01*
D02*
G37*
G36*
X640227D02*
Y42678D01*
X640122Y42425D01*
X639929Y42231D01*
X639675Y42126D01*
X639401D01*
X639148Y42231D01*
X638954Y42425D01*
X638849Y42678D01*
Y42815D01*
Y46063D01*
X640227D01*
Y42815D01*
D02*
G37*
G36*
X556595Y42815D02*
Y42678D01*
X556490Y42425D01*
X556296Y42231D01*
X556043Y42126D01*
X555768D01*
X555515Y42231D01*
X555321Y42425D01*
X555217Y42678D01*
Y42815D01*
Y46063D01*
X556595D01*
Y42815D01*
D02*
G37*
G36*
X554035D02*
Y42678D01*
X553931Y42425D01*
X553737Y42231D01*
X553483Y42126D01*
X553209D01*
X552956Y42231D01*
X552762Y42425D01*
X552658Y42678D01*
Y42815D01*
Y46063D01*
X554035D01*
X554035Y42815D01*
D02*
G37*
G36*
X551476D02*
Y42678D01*
X551371Y42425D01*
X551178Y42231D01*
X550924Y42126D01*
X550650D01*
X550397Y42231D01*
X550203Y42425D01*
X550098Y42678D01*
Y42815D01*
Y46063D01*
X551476D01*
Y42815D01*
D02*
G37*
G36*
X548917D02*
Y42678D01*
X548812Y42425D01*
X548619Y42231D01*
X548365Y42126D01*
X548091D01*
X547838Y42231D01*
X547644Y42425D01*
X547539Y42678D01*
Y42815D01*
X547539D01*
Y46063D01*
X548917D01*
Y42815D01*
D02*
G37*
G36*
X546358D02*
Y42678D01*
X546253Y42425D01*
X546060Y42231D01*
X545806Y42126D01*
X545532D01*
X545279Y42231D01*
X545085Y42425D01*
X544980Y42678D01*
Y42815D01*
Y46063D01*
X546358D01*
Y42815D01*
D02*
G37*
G36*
X656074Y39075D02*
X652689D01*
X652435Y39180D01*
X652242Y39373D01*
X652137Y39627D01*
Y39764D01*
Y39901D01*
X652242Y40154D01*
X652435Y40348D01*
X652689Y40453D01*
X656074D01*
Y39075D01*
D02*
G37*
G36*
X636877Y40348D02*
X637071Y40154D01*
X637176Y39901D01*
Y39764D01*
Y39627D01*
X637071Y39373D01*
X636877Y39180D01*
X636624Y39075D01*
X633239D01*
Y40453D01*
X636624D01*
X636877Y40348D01*
D02*
G37*
G36*
X562205Y39075D02*
X558820D01*
X558566Y39180D01*
X558373Y39373D01*
X558268Y39627D01*
Y39764D01*
Y39901D01*
X558373Y40154D01*
X558566Y40348D01*
X558820Y40453D01*
X562205D01*
Y39075D01*
D02*
G37*
G36*
X543008Y40348D02*
X543202Y40154D01*
X543307Y39901D01*
Y39764D01*
Y39627D01*
X543202Y39373D01*
X543008Y39180D01*
X542755Y39075D01*
X539370D01*
Y40453D01*
X542755D01*
X543008Y40348D01*
D02*
G37*
G36*
X652826Y37894D02*
X656074D01*
Y36516D01*
X652689D01*
X652435Y36621D01*
X652242Y36814D01*
X652137Y37068D01*
Y37205D01*
Y37342D01*
X652242Y37595D01*
X652435Y37789D01*
X652689Y37894D01*
X652826D01*
Y37894D01*
D02*
G37*
G36*
X636877Y37789D02*
X637071Y37595D01*
X637176Y37342D01*
Y37205D01*
Y37068D01*
X637071Y36814D01*
X636877Y36621D01*
X636624Y36516D01*
X633239D01*
Y37894D01*
X636487Y37894D01*
X636624D01*
X636877Y37789D01*
D02*
G37*
G36*
X558957Y37894D02*
X562205D01*
Y36516D01*
X558820D01*
X558566Y36621D01*
X558373Y36814D01*
X558268Y37068D01*
Y37205D01*
Y37342D01*
X558373Y37595D01*
X558566Y37789D01*
X558820Y37894D01*
X558957D01*
Y37894D01*
D02*
G37*
G36*
X543008Y37789D02*
X543202Y37595D01*
X543307Y37342D01*
Y37205D01*
Y37068D01*
X543202Y36814D01*
X543008Y36621D01*
X542755Y36516D01*
X539370D01*
Y37894D01*
X542618Y37894D01*
X542755D01*
X543008Y37789D01*
D02*
G37*
G36*
X656074Y33957D02*
X652689D01*
X652435Y34062D01*
X652242Y34255D01*
X652137Y34509D01*
Y34646D01*
Y34783D01*
X652242Y35036D01*
X652435Y35230D01*
X652689Y35335D01*
X656074D01*
Y33957D01*
D02*
G37*
G36*
X636877Y35230D02*
X637071Y35036D01*
X637176Y34783D01*
Y34646D01*
Y34509D01*
X637071Y34255D01*
X636877Y34062D01*
X636624Y33957D01*
X633239D01*
Y35335D01*
X636624D01*
X636877Y35230D01*
D02*
G37*
G36*
X562205Y33957D02*
X558820D01*
X558566Y34062D01*
X558373Y34255D01*
X558268Y34509D01*
Y34646D01*
Y34783D01*
X558373Y35036D01*
X558566Y35230D01*
X558820Y35335D01*
X562205D01*
Y33957D01*
D02*
G37*
G36*
X543008Y35230D02*
X543202Y35036D01*
X543307Y34783D01*
Y34646D01*
Y34509D01*
X543202Y34255D01*
X543008Y34062D01*
X542755Y33957D01*
X539370D01*
Y35335D01*
X542755D01*
X543008Y35230D01*
D02*
G37*
G36*
X656074Y31398D02*
X652826Y31398D01*
X652689D01*
X652435Y31503D01*
X652242Y31696D01*
X652137Y31950D01*
Y32087D01*
Y32224D01*
X652242Y32477D01*
X652435Y32671D01*
X652689Y32776D01*
X656074D01*
Y31398D01*
D02*
G37*
G36*
X636877Y32671D02*
X637071Y32477D01*
X637176Y32224D01*
Y32087D01*
Y31950D01*
X637071Y31696D01*
X636877Y31503D01*
X636624Y31398D01*
X636487D01*
Y31398D01*
X633239D01*
Y32776D01*
X636624D01*
X636877Y32671D01*
D02*
G37*
G36*
X562205Y31398D02*
X558957Y31398D01*
X558820D01*
X558566Y31503D01*
X558373Y31696D01*
X558268Y31950D01*
Y32087D01*
Y32224D01*
X558373Y32477D01*
X558566Y32671D01*
X558820Y32776D01*
X562205D01*
Y31398D01*
D02*
G37*
G36*
X543008Y32671D02*
X543202Y32477D01*
X543307Y32224D01*
Y32087D01*
Y31950D01*
X543202Y31696D01*
X543008Y31503D01*
X542755Y31398D01*
X542618D01*
Y31398D01*
X539370D01*
Y32776D01*
X542755D01*
X543008Y32671D01*
D02*
G37*
G36*
X656074Y28839D02*
X652689D01*
X652435Y28943D01*
X652242Y29137D01*
X652137Y29390D01*
Y29528D01*
Y29665D01*
X652242Y29918D01*
X652435Y30112D01*
X652689Y30217D01*
X656074D01*
Y28839D01*
D02*
G37*
G36*
X636877Y30112D02*
X637071Y29918D01*
X637176Y29665D01*
Y29528D01*
Y29390D01*
X637071Y29137D01*
X636877Y28943D01*
X636624Y28839D01*
X633239D01*
Y30217D01*
X636624D01*
X636877Y30112D01*
D02*
G37*
G36*
X562205Y28839D02*
X558820D01*
X558566Y28943D01*
X558373Y29137D01*
X558268Y29390D01*
Y29528D01*
Y29665D01*
X558373Y29918D01*
X558566Y30112D01*
X558820Y30217D01*
X562205D01*
Y28839D01*
D02*
G37*
G36*
X543008Y30112D02*
X543202Y29918D01*
X543307Y29665D01*
Y29528D01*
Y29390D01*
X543202Y29137D01*
X543008Y28943D01*
X542755Y28839D01*
X539370D01*
Y30217D01*
X542755D01*
X543008Y30112D01*
D02*
G37*
G36*
X650165Y27060D02*
X650359Y26867D01*
X650463Y26613D01*
Y26476D01*
Y23228D01*
X649086D01*
Y26476D01*
Y26613D01*
X649191Y26867D01*
X649384Y27060D01*
X649638Y27165D01*
X649912D01*
X650165Y27060D01*
D02*
G37*
G36*
X647606D02*
X647800Y26867D01*
X647904Y26613D01*
Y26476D01*
X647904D01*
Y23228D01*
X646526D01*
Y26476D01*
Y26613D01*
X646631Y26867D01*
X646825Y27060D01*
X647079Y27165D01*
X647353D01*
X647606Y27060D01*
D02*
G37*
G36*
X645047D02*
X645240Y26867D01*
X645345Y26613D01*
Y26476D01*
Y23228D01*
X643967D01*
Y26476D01*
Y26613D01*
X644072Y26867D01*
X644266Y27060D01*
X644519Y27165D01*
X644794D01*
X645047Y27060D01*
D02*
G37*
G36*
X642488D02*
X642682Y26867D01*
X642786Y26613D01*
Y26476D01*
Y23228D01*
X641408D01*
X641408Y26476D01*
Y26613D01*
X641513Y26867D01*
X641707Y27060D01*
X641960Y27165D01*
X642234D01*
X642488Y27060D01*
D02*
G37*
G36*
X639929D02*
X640122Y26867D01*
X640227Y26613D01*
Y26476D01*
Y23228D01*
X638849D01*
Y26476D01*
Y26613D01*
X638954Y26867D01*
X639148Y27060D01*
X639401Y27165D01*
X639675D01*
X639929Y27060D01*
D02*
G37*
G36*
X556296Y27060D02*
X556490Y26867D01*
X556595Y26613D01*
Y26476D01*
Y23228D01*
X555217D01*
Y26476D01*
Y26613D01*
X555321Y26867D01*
X555515Y27060D01*
X555768Y27165D01*
X556043D01*
X556296Y27060D01*
D02*
G37*
G36*
X553737D02*
X553931Y26867D01*
X554035Y26613D01*
Y26476D01*
X554035D01*
Y23228D01*
X552658D01*
Y26476D01*
Y26613D01*
X552762Y26867D01*
X552956Y27060D01*
X553209Y27165D01*
X553483D01*
X553737Y27060D01*
D02*
G37*
G36*
X551178D02*
X551371Y26867D01*
X551476Y26613D01*
Y26476D01*
Y23228D01*
X550098D01*
Y26476D01*
Y26613D01*
X550203Y26867D01*
X550397Y27060D01*
X550650Y27165D01*
X550924D01*
X551178Y27060D01*
D02*
G37*
G36*
X548619D02*
X548812Y26867D01*
X548917Y26613D01*
Y26476D01*
Y23228D01*
X547539D01*
X547539Y26476D01*
Y26613D01*
X547644Y26867D01*
X547838Y27060D01*
X548091Y27165D01*
X548365D01*
X548619Y27060D01*
D02*
G37*
G36*
X546060D02*
X546253Y26867D01*
X546358Y26613D01*
Y26476D01*
Y23228D01*
X544980D01*
Y26476D01*
Y26613D01*
X545085Y26867D01*
X545279Y27060D01*
X545532Y27165D01*
X545806D01*
X546060Y27060D01*
D02*
G37*
D10*
X71066Y108268D02*
G03*
X71066Y108268I-21854J0D01*
G01*
D23*
X489173Y192125D02*
D03*
X506299Y193711D02*
D03*
X515748Y198043D02*
D03*
X498032D02*
D03*
X524016Y193606D02*
D03*
X541687Y193582D02*
D03*
X550348Y197914D02*
D03*
X533465Y198043D02*
D03*
X120080Y307089D02*
D03*
D24*
X489173Y200001D02*
D03*
X506299Y201587D02*
D03*
X120080Y299213D02*
D03*
X498032Y190166D02*
D03*
X550348Y190038D02*
D03*
X533465Y190166D02*
D03*
X515748Y190166D02*
D03*
X541687Y201458D02*
D03*
X524016Y201483D02*
D03*
D32*
X653477Y152898D02*
D03*
X546456Y67323D02*
D03*
X640550Y65354D02*
D03*
X551447Y156693D02*
D03*
D33*
X645601Y152898D02*
D03*
X648426Y65354D02*
D03*
X554332Y67323D02*
D03*
X559323Y156693D02*
D03*
D34*
X825197Y260433D02*
D03*
X771260Y243504D02*
D03*
X771260Y260433D02*
D03*
X825197Y243504D02*
D03*
X825197Y316535D02*
D03*
X771260Y299606D02*
D03*
Y316535D02*
D03*
X825197Y299606D02*
D03*
X825197Y206299D02*
D03*
X771260Y189370D02*
D03*
X771260Y206299D02*
D03*
X825197Y189370D02*
D03*
D35*
X802165Y232087D02*
D03*
X802165Y288189D02*
D03*
X802165Y177953D02*
D03*
D36*
X811024Y272047D02*
D03*
X811024Y328150D02*
D03*
X811024Y217913D02*
D03*
D50*
X625432Y40551D02*
D03*
Y28740D02*
D03*
X304561Y60039D02*
D03*
X304561Y48228D02*
D03*
X580709Y306102D02*
D03*
X335116Y93504D02*
D03*
X580709Y294291D02*
D03*
X660593Y285244D02*
D03*
X661950Y250480D02*
D03*
X567258Y347923D02*
D03*
X675197Y122879D02*
D03*
X629134Y408465D02*
D03*
X673790Y28740D02*
D03*
X613189Y153543D02*
D03*
X573397Y153937D02*
D03*
X625591Y102461D02*
D03*
X579528Y29004D02*
D03*
X540282Y289339D02*
D03*
X529947Y289370D02*
D03*
X559858Y190930D02*
D03*
X479936Y186649D02*
D03*
X536389Y122578D02*
D03*
X530709Y29130D02*
D03*
X335116Y105315D02*
D03*
X349874Y85460D02*
D03*
X349874Y73649D02*
D03*
X629134Y396654D02*
D03*
X635827Y385827D02*
D03*
Y374016D02*
D03*
X402223Y62889D02*
D03*
X402223Y74700D02*
D03*
X291339Y64961D02*
D03*
Y76772D02*
D03*
X233268Y154528D02*
D03*
Y142717D02*
D03*
X661950Y262291D02*
D03*
X579528Y40815D02*
D03*
X530709Y40941D02*
D03*
X673790Y40551D02*
D03*
X613189Y141732D02*
D03*
X573397Y142126D02*
D03*
X625591Y114272D02*
D03*
X536389Y134389D02*
D03*
X625591Y134487D02*
D03*
Y122676D02*
D03*
X675197Y134690D02*
D03*
X614961Y134350D02*
D03*
Y122539D02*
D03*
X339567Y85748D02*
D03*
X339567Y73937D02*
D03*
X550254Y301150D02*
D03*
X550254Y289339D02*
D03*
X591536Y294291D02*
D03*
X591535Y306102D02*
D03*
X656377Y312449D02*
D03*
X656377Y324260D02*
D03*
X566548Y321424D02*
D03*
X566548Y309613D02*
D03*
X660593Y273433D02*
D03*
X567258Y336112D02*
D03*
X529947Y301181D02*
D03*
X540282Y301150D02*
D03*
X484217Y384590D02*
D03*
X484217Y372779D02*
D03*
X493810Y372779D02*
D03*
Y384590D02*
D03*
X504565Y372755D02*
D03*
X504565Y384566D02*
D03*
X559858Y202741D02*
D03*
X479936Y198460D02*
D03*
X494095Y229365D02*
D03*
X494095Y217554D02*
D03*
D51*
X645669Y128347D02*
D03*
X550787Y34646D02*
D03*
X644657Y34646D02*
D03*
X556074Y128347D02*
D03*
D52*
X640551Y137795D02*
D03*
X643110D02*
D03*
X645669Y137866D02*
D03*
X648228Y137795D02*
D03*
X650787Y137866D02*
D03*
Y118898D02*
D03*
X648228D02*
D03*
X645669Y118827D02*
D03*
X643110Y118898D02*
D03*
X640551Y118827D02*
D03*
X655118Y133465D02*
D03*
Y130905D02*
D03*
X655189Y128347D02*
D03*
X655118Y125787D02*
D03*
X655189Y123228D02*
D03*
X636221D02*
D03*
Y125787D02*
D03*
X636149Y128347D02*
D03*
X636221Y130905D02*
D03*
X636149Y133465D02*
D03*
X545669Y44094D02*
D03*
X548228D02*
D03*
X550787Y44166D02*
D03*
X553346Y44094D02*
D03*
X555905Y44166D02*
D03*
Y25197D02*
D03*
X553346D02*
D03*
X550787Y25126D02*
D03*
X548228Y25197D02*
D03*
X545669Y25126D02*
D03*
X560236Y39764D02*
D03*
Y37205D02*
D03*
X560307Y34646D02*
D03*
X560236Y32087D02*
D03*
X560307Y29528D02*
D03*
X541339D02*
D03*
Y32087D02*
D03*
X541267Y34646D02*
D03*
X541339Y37205D02*
D03*
X541267Y39764D02*
D03*
X639538Y44094D02*
D03*
X642097D02*
D03*
X644657Y44166D02*
D03*
X647216Y44094D02*
D03*
X649775Y44166D02*
D03*
Y25197D02*
D03*
X647216D02*
D03*
X644657Y25126D02*
D03*
X642097Y25197D02*
D03*
X639538Y25126D02*
D03*
X654105Y39764D02*
D03*
Y37205D02*
D03*
X654176Y34646D02*
D03*
X654105Y32087D02*
D03*
X654176Y29528D02*
D03*
X635208D02*
D03*
Y32087D02*
D03*
X635137Y34646D02*
D03*
X635208Y37205D02*
D03*
X635137Y39764D02*
D03*
X550956Y137795D02*
D03*
X553515D02*
D03*
X556074Y137866D02*
D03*
X558633Y137795D02*
D03*
X561192Y137866D02*
D03*
Y118898D02*
D03*
X558633D02*
D03*
X556074Y118827D02*
D03*
X553515Y118898D02*
D03*
X550956Y118827D02*
D03*
X565523Y133465D02*
D03*
Y130905D02*
D03*
X565594Y128347D02*
D03*
X565523Y125787D02*
D03*
X565594Y123228D02*
D03*
X546625D02*
D03*
Y125787D02*
D03*
X546554Y128347D02*
D03*
X546625Y130905D02*
D03*
X546554Y133465D02*
D03*
D53*
X359406Y82929D02*
D03*
X368382D02*
D03*
X359406Y73874D02*
D03*
X368382D02*
D03*
X392774Y82891D02*
D03*
X383798D02*
D03*
X392774Y73488D02*
D03*
X383798D02*
D03*
D54*
X778357Y67126D02*
D03*
X763593Y97638D02*
D03*
X774890Y135976D02*
D03*
X767530Y165338D02*
D03*
D55*
X771879Y63386D02*
D03*
X757115Y93898D02*
D03*
X768412Y132236D02*
D03*
X761052Y161598D02*
D03*
D56*
X755118Y69084D02*
D03*
X779724Y81879D02*
D03*
X758071Y139950D02*
D03*
X781693Y148809D02*
D03*
D57*
X751378Y75562D02*
D03*
X775984Y88358D02*
D03*
X754331Y146428D02*
D03*
X777953Y155287D02*
D03*
D58*
X547262Y369165D02*
D03*
X542262Y369165D02*
D03*
X537261Y369165D02*
D03*
X532262Y369165D02*
D03*
X522262Y369165D02*
D03*
X517262Y369165D02*
D03*
X512262Y369165D02*
D03*
Y390519D02*
D03*
X517262Y390519D02*
D03*
X522262Y390519D02*
D03*
X532262Y390519D02*
D03*
X537262Y390519D02*
D03*
X542262Y390519D02*
D03*
X527262Y369165D02*
D03*
Y390519D02*
D03*
X539049Y334760D02*
D03*
X548451Y251657D02*
D03*
X539049Y313405D02*
D03*
X534050Y334760D02*
D03*
X548451Y230303D02*
D03*
X534050Y313405D02*
D03*
X549050Y334760D02*
D03*
X544050Y334760D02*
D03*
X529050Y334760D02*
D03*
X524050Y334760D02*
D03*
X519050Y334760D02*
D03*
Y313405D02*
D03*
X524050Y313405D02*
D03*
X529049Y313405D02*
D03*
X544050Y313405D02*
D03*
X549050Y313405D02*
D03*
X554049Y313405D02*
D03*
X563451Y230303D02*
D03*
X558451D02*
D03*
X553451Y230303D02*
D03*
Y251657D02*
D03*
X558451Y251657D02*
D03*
D59*
X547262Y390519D02*
D03*
X554049Y334760D02*
D03*
X563451Y251657D02*
D03*
D60*
X615932Y396654D02*
D03*
X520669Y211614D02*
D03*
X325787Y90551D02*
D03*
X424213Y73819D02*
D03*
X511463Y262633D02*
D03*
X499652Y262633D02*
D03*
X532480Y211614D02*
D03*
X500000Y208661D02*
D03*
X488189Y208661D02*
D03*
X604121Y396654D02*
D03*
X600583Y306102D02*
D03*
X612394Y306102D02*
D03*
X646928Y323472D02*
D03*
X678150Y314961D02*
D03*
X504384Y400087D02*
D03*
X556235Y346443D02*
D03*
X366142Y297244D02*
D03*
X354331Y318898D02*
D03*
X366142Y287402D02*
D03*
X534646Y222279D02*
D03*
X366142Y230709D02*
D03*
X689961Y314961D02*
D03*
X339084Y63847D02*
D03*
X350894Y63847D02*
D03*
X623306Y370275D02*
D03*
X611495D02*
D03*
X354331Y230709D02*
D03*
X256761Y177165D02*
D03*
X635117Y323472D02*
D03*
X530754Y272869D02*
D03*
X354331Y297244D02*
D03*
X366142Y318898D02*
D03*
X354331Y287402D02*
D03*
Y328740D02*
D03*
X366142D02*
D03*
X244950Y177165D02*
D03*
X530656Y262633D02*
D03*
X518845Y262633D02*
D03*
X595223Y361898D02*
D03*
X583412Y361898D02*
D03*
X313976Y90551D02*
D03*
X516195Y400087D02*
D03*
X635117Y309693D02*
D03*
X646928Y309693D02*
D03*
X628030Y318748D02*
D03*
X616219Y318748D02*
D03*
X544424Y346443D02*
D03*
X525553Y345262D02*
D03*
X537364Y345262D02*
D03*
X556266Y261050D02*
D03*
X568077Y261050D02*
D03*
X534646Y232025D02*
D03*
X522835Y232025D02*
D03*
X518944Y272869D02*
D03*
X522835Y222279D02*
D03*
X510827Y272869D02*
D03*
X499016Y272869D02*
D03*
X412402Y73819D02*
D03*
D61*
X612598Y383858D02*
D03*
X512644Y219720D02*
D03*
X371121Y54439D02*
D03*
X612598Y380118D02*
D03*
X381357Y50698D02*
D03*
X371121D02*
D03*
Y58179D02*
D03*
X381357D02*
D03*
X622835Y387598D02*
D03*
X502408Y215980D02*
D03*
X622835Y380118D02*
D03*
X612598Y387598D02*
D03*
X502408Y223460D02*
D03*
X512644Y223460D02*
D03*
X512644Y215980D02*
D03*
D62*
X578640Y371554D02*
D03*
X578640Y314614D02*
D03*
X323913Y81969D02*
D03*
X672030Y286622D02*
D03*
X671471Y255973D02*
D03*
X651699Y336327D02*
D03*
X460283Y370545D02*
D03*
X438929Y290374D02*
D03*
X426325Y345545D02*
D03*
Y330545D02*
D03*
Y325545D02*
D03*
X578640Y381554D02*
D03*
Y376554D02*
D03*
X599994Y371554D02*
D03*
X599994Y376554D02*
D03*
X599994Y386554D02*
D03*
X599994Y381554D02*
D03*
X302559Y71969D02*
D03*
X302559Y76969D02*
D03*
X302559Y81969D02*
D03*
X323913Y76969D02*
D03*
Y71969D02*
D03*
X302559Y66969D02*
D03*
X630345Y336327D02*
D03*
X438929Y340545D02*
D03*
X438929Y335545D02*
D03*
X426325Y335545D02*
D03*
X460284Y325374D02*
D03*
X404971Y310545D02*
D03*
X404971Y335545D02*
D03*
X404971Y320545D02*
D03*
X693385Y296622D02*
D03*
X671471Y265972D02*
D03*
X599994Y324614D02*
D03*
X671471Y260972D02*
D03*
X692825Y255972D02*
D03*
X692825Y260972D02*
D03*
Y265972D02*
D03*
X692825Y270972D02*
D03*
X693385Y301622D02*
D03*
X693385Y291622D02*
D03*
X693385Y286622D02*
D03*
X672030Y291622D02*
D03*
Y296622D02*
D03*
X578640Y324614D02*
D03*
Y319614D02*
D03*
X599994Y314614D02*
D03*
X599994Y319614D02*
D03*
X599994Y329614D02*
D03*
X651699Y346327D02*
D03*
X651699Y341327D02*
D03*
X651699Y331327D02*
D03*
X630345Y331327D02*
D03*
X630345Y341327D02*
D03*
X460283Y340545D02*
D03*
X460283Y345545D02*
D03*
X460283Y350545D02*
D03*
X460283Y355545D02*
D03*
X460283Y360545D02*
D03*
X460283Y365545D02*
D03*
X438929Y370545D02*
D03*
X438929Y365545D02*
D03*
X438929Y360545D02*
D03*
X438929Y355545D02*
D03*
X438929Y350545D02*
D03*
X438929Y345545D02*
D03*
X438929Y320374D02*
D03*
Y315374D02*
D03*
X438929Y310374D02*
D03*
Y305374D02*
D03*
X438929Y295374D02*
D03*
X460284Y290374D02*
D03*
X460284Y295374D02*
D03*
X460283Y300374D02*
D03*
X460284Y305374D02*
D03*
X460284Y310374D02*
D03*
X460284Y315374D02*
D03*
X460283Y320374D02*
D03*
X438929Y300374D02*
D03*
X426325Y315545D02*
D03*
X426325Y320545D02*
D03*
X426325Y340545D02*
D03*
X404971Y345545D02*
D03*
Y330545D02*
D03*
X404971Y315545D02*
D03*
X404971Y340545D02*
D03*
X404971Y325545D02*
D03*
D63*
X627165Y152362D02*
D03*
X658199Y362370D02*
D03*
X632495D02*
D03*
X663779Y121782D02*
D03*
X662373Y27461D02*
D03*
X573397Y121713D02*
D03*
X568110Y27461D02*
D03*
X494095Y244094D02*
D03*
X494095Y236221D02*
D03*
X568110Y35335D02*
D03*
X662373Y35335D02*
D03*
X663779Y129656D02*
D03*
X627165Y144488D02*
D03*
X573397Y129587D02*
D03*
X617794Y338984D02*
D03*
X617794Y331110D02*
D03*
X617400Y354496D02*
D03*
X617400Y346622D02*
D03*
X658199Y354496D02*
D03*
X632495D02*
D03*
X641351Y362370D02*
D03*
X641351Y354496D02*
D03*
X649619Y362370D02*
D03*
X649619Y354496D02*
D03*
X609133Y338984D02*
D03*
X609133Y331110D02*
D03*
D64*
X523622Y142520D02*
D03*
X677129Y248118D02*
D03*
X521879Y57480D02*
D03*
X618110Y49213D02*
D03*
X610236D02*
D03*
X529753Y57480D02*
D03*
X531496Y142520D02*
D03*
X685003Y248118D02*
D03*
X559731Y213401D02*
D03*
X513432Y233995D02*
D03*
X505558Y233995D02*
D03*
X559495Y221295D02*
D03*
X551621Y221295D02*
D03*
X551857Y213401D02*
D03*
D65*
X637085Y294890D02*
D03*
X644959D02*
D03*
X642991D02*
D03*
X641022D02*
D03*
X639054D02*
D03*
X637085Y277370D02*
D03*
X639054D02*
D03*
X641022D02*
D03*
X642991D02*
D03*
X644959D02*
D03*
D66*
X621005Y265874D02*
D03*
X404331Y270309D02*
D03*
Y223925D02*
D03*
Y290309D02*
D03*
X597777Y235874D02*
D03*
X427559Y300309D02*
D03*
Y280309D02*
D03*
Y253925D02*
D03*
X404331Y285309D02*
D03*
Y280309D02*
D03*
X427559Y248925D02*
D03*
X621005Y240874D02*
D03*
X621005Y245874D02*
D03*
X621005Y250874D02*
D03*
X621005Y255874D02*
D03*
Y260874D02*
D03*
X597777Y265874D02*
D03*
X597777Y260874D02*
D03*
X597777Y255874D02*
D03*
Y250874D02*
D03*
Y245874D02*
D03*
X597777Y240874D02*
D03*
X404331Y248925D02*
D03*
Y243925D02*
D03*
Y238925D02*
D03*
Y233925D02*
D03*
Y228925D02*
D03*
X427559Y223925D02*
D03*
Y228925D02*
D03*
Y233925D02*
D03*
Y238925D02*
D03*
Y243925D02*
D03*
X404331Y295309D02*
D03*
Y275309D02*
D03*
X427559Y270309D02*
D03*
Y285309D02*
D03*
Y290309D02*
D03*
Y295309D02*
D03*
Y275309D02*
D03*
D67*
X460283Y335545D02*
D03*
X578640Y386554D02*
D03*
X323913Y66969D02*
D03*
X671471Y270972D02*
D03*
X672030Y301622D02*
D03*
X578640Y329614D02*
D03*
X630345Y346327D02*
D03*
X438929Y325374D02*
D03*
X426325Y310545D02*
D03*
D68*
X95473Y270472D02*
D03*
X95472Y288583D02*
D03*
X95472Y279528D02*
D03*
D69*
X505558Y241472D02*
D03*
X522881Y249149D02*
D03*
X522880Y241472D02*
D03*
X505558Y244031D02*
D03*
X505558Y249149D02*
D03*
X505558Y246590D02*
D03*
X522881Y244031D02*
D03*
X522880Y246590D02*
D03*
D70*
X440551Y242126D02*
D03*
X449606Y238386D02*
D03*
X440551Y234646D02*
D03*
D71*
X354807Y109449D02*
D03*
Y97244D02*
D03*
D72*
X859252Y9834D02*
D03*
Y39370D02*
D03*
X827756Y9834D02*
D03*
X859252Y442922D02*
D03*
Y413386D02*
D03*
X827756Y442922D02*
D03*
X6890Y442922D02*
D03*
Y413386D02*
D03*
X38386Y442922D02*
D03*
X9834Y6890D02*
D03*
X39370D02*
D03*
X9834Y38386D02*
D03*
D73*
X262008Y147705D02*
D03*
X249803D02*
D03*
D74*
X90551Y180512D02*
D03*
X43307Y180512D02*
D03*
X43307Y223031D02*
D03*
X90551Y223031D02*
D03*
D75*
X621005Y235874D02*
D03*
X404331Y253925D02*
D03*
Y300309D02*
D03*
D76*
X119095Y279527D02*
D03*
D77*
X212598Y104331D02*
X289370D01*
X281496Y190785D02*
X299213Y173068D01*
X301181Y424213D02*
X302608D01*
X212598Y110236D02*
Y111024D01*
X260827Y366452D02*
Y394656D01*
X264286Y362992D02*
X273312D01*
X260827Y366452D02*
X264286Y362992D01*
X159886Y181102D02*
X189266D01*
X131890D02*
X159886D01*
X111221Y201772D02*
X131890Y181102D01*
X21176Y201772D02*
X111221D01*
X17717Y198312D02*
X21176Y201772D01*
X17717Y144207D02*
Y198312D01*
X194882Y108774D02*
Y136782D01*
X191422Y140241D02*
X194882Y136782D01*
X24606Y140748D02*
X25113Y140241D01*
X191422D01*
X21176Y140748D02*
X24606D01*
X17717Y144207D02*
X21176Y140748D01*
X301181Y424213D02*
X310039Y415354D01*
X306580Y398115D02*
X310039Y401575D01*
Y415354D01*
X264286Y398115D02*
X306580D01*
X259842Y424213D02*
X301181D01*
X260827Y394656D02*
X264286Y398115D01*
X281496Y190785D02*
Y354808D01*
X273312Y362992D02*
X281496Y354808D01*
X289370Y104331D02*
X299213Y114173D01*
Y173068D01*
X235236Y399606D02*
X259842Y424213D01*
X235236Y184562D02*
Y207833D01*
Y399606D01*
X231777Y181102D02*
X235236Y184562D01*
X189266Y181102D02*
X231777D01*
X212598Y104331D02*
Y110236D01*
X198341Y105315D02*
X211614D01*
X194882Y108774D02*
X198341Y105315D01*
X212598Y100236D02*
Y104331D01*
D78*
X66101Y180864D02*
D03*
X67085Y222835D02*
D03*
D79*
X435039Y107283D02*
D03*
D80*
X445039D02*
D03*
D81*
X115157Y413386D02*
D03*
Y333386D02*
D03*
X11811Y375000D02*
D03*
Y352362D02*
D03*
D82*
X255906Y124881D02*
D03*
Y55983D02*
D03*
X189373Y154528D02*
D03*
X164370D02*
D03*
X167717Y425394D02*
D03*
X189961Y425197D02*
D03*
D83*
X316339Y161417D02*
D03*
X266339D02*
D03*
X337992Y127953D02*
D03*
X287992D02*
D03*
X741142Y159449D02*
D03*
X759842Y183071D02*
D03*
X778253Y168395D02*
D03*
X788639Y53150D02*
D03*
X789370Y71850D02*
D03*
X826772Y285433D02*
D03*
Y273622D02*
D03*
Y279528D02*
D03*
Y223425D02*
D03*
Y217520D02*
D03*
Y229331D02*
D03*
X814973Y173425D02*
D03*
X822835D02*
D03*
X830709D02*
D03*
X686593Y160848D02*
D03*
X750000Y260433D02*
D03*
D84*
X814961Y71102D02*
D03*
D85*
Y91102D02*
D03*
Y111102D02*
D03*
Y131102D02*
D03*
Y151102D02*
D03*
D86*
X212598Y90236D02*
D03*
Y100236D02*
D03*
Y110236D02*
D03*
D87*
Y120236D02*
D03*
D88*
X651575Y86614D02*
D03*
X407480Y118110D02*
D03*
X752834Y243504D02*
D03*
X753292Y293307D02*
D03*
X753937Y176181D02*
D03*
X450787Y262795D02*
D03*
X539370Y244031D02*
D03*
X479936Y217554D02*
D03*
Y229365D02*
D03*
X606672Y346203D02*
D03*
X660593Y299213D02*
D03*
X674213Y336327D02*
D03*
X646654Y383858D02*
D03*
X591339Y344914D02*
D03*
X318898Y45276D02*
D03*
X692913Y235236D02*
D03*
X390639Y54635D02*
D03*
X325636Y59055D02*
D03*
X443972Y392717D02*
D03*
X275000Y75984D02*
D03*
Y125197D02*
D03*
X298228Y360236D02*
D03*
X236221Y76772D02*
D03*
X298228Y409449D02*
D03*
X236221Y125984D02*
D03*
X32480Y290552D02*
D03*
X6890D02*
D03*
X32178Y264764D02*
D03*
X6890D02*
D03*
X5906Y76772D02*
D03*
X33465D02*
D03*
X387795Y444882D02*
D03*
Y421260D02*
D03*
X360236D02*
D03*
Y444882D02*
D03*
X387795Y30512D02*
D03*
X360236D02*
D03*
X387795Y6890D02*
D03*
X360236D02*
D03*
X190945Y31496D02*
D03*
X163386D02*
D03*
X190945Y7874D02*
D03*
X163386D02*
D03*
D89*
X333661Y351732D02*
D03*
Y371732D02*
D03*
Y391732D02*
D03*
Y411732D02*
D03*
X272047Y351378D02*
D03*
Y371378D02*
D03*
Y391378D02*
D03*
Y411378D02*
D03*
D90*
X271024Y324560D02*
D03*
X291024D02*
D03*
X311024D02*
D03*
X331024D02*
D03*
X271024Y194882D02*
D03*
X291024D02*
D03*
X311024D02*
D03*
X331024D02*
D03*
X271024Y227362D02*
D03*
X291024D02*
D03*
X311024D02*
D03*
X331024D02*
D03*
X271024Y259842D02*
D03*
X291024D02*
D03*
X311024D02*
D03*
X331024D02*
D03*
X271024Y292323D02*
D03*
X291024D02*
D03*
X311024D02*
D03*
X331024D02*
D03*
D91*
X645633Y257173D02*
D03*
Y249299D02*
D03*
D92*
X603543Y420079D02*
D03*
Y412205D02*
D03*
X595669Y420079D02*
D03*
Y412205D02*
D03*
X587795Y420079D02*
D03*
Y412205D02*
D03*
X548425Y420079D02*
D03*
X556299Y412205D02*
D03*
Y420079D02*
D03*
X564173Y412205D02*
D03*
Y420079D02*
D03*
X572047Y412205D02*
D03*
Y420079D02*
D03*
X579921Y412205D02*
D03*
Y420079D02*
D03*
D93*
X548425Y412205D02*
D03*
D94*
X19685Y62992D02*
D03*
X66929Y173228D02*
D03*
X374016Y433071D02*
D03*
Y19685D02*
D03*
X19685Y277559D02*
D03*
X433071Y19685D02*
D03*
X66929Y230315D02*
D03*
X19685Y19685D02*
D03*
X464567Y433071D02*
D03*
X19685D02*
D03*
X846457Y19685D02*
D03*
Y433071D02*
D03*
X492126D02*
D03*
X433071D02*
D03*
D95*
X787402Y433071D02*
D03*
X78740Y19685D02*
D03*
X787402D02*
D03*
D96*
X139764Y403543D02*
D03*
X118110Y227529D02*
D03*
X189266Y181102D02*
D03*
X159886D02*
D03*
X561024Y351969D02*
D03*
X341535Y108268D02*
D03*
D97*
X714538Y59055D02*
D03*
Y78740D02*
D03*
X714567Y104331D02*
D03*
X714567Y118110D02*
D03*
X714538Y162598D02*
D03*
Y142913D02*
D03*
D98*
X49213Y108268D02*
D03*
X125591D02*
D03*
X49213Y364173D02*
D03*
D99*
X642520Y125197D02*
D03*
X648819D02*
D03*
Y131496D02*
D03*
X642520D02*
D03*
X547638Y31496D02*
D03*
X553937D02*
D03*
Y37795D02*
D03*
X547638D02*
D03*
X641507Y31496D02*
D03*
X647806D02*
D03*
Y37795D02*
D03*
X641507D02*
D03*
X552924Y125197D02*
D03*
X559223D02*
D03*
Y131496D02*
D03*
X552924D02*
D03*
D100*
X458561Y275309D02*
D03*
X442913Y330709D02*
D03*
X434055Y330545D02*
D03*
X388779Y339567D02*
D03*
X644882Y396109D02*
D03*
X565983Y395866D02*
D03*
X532480Y361221D02*
D03*
X513779Y359252D02*
D03*
X547693Y353346D02*
D03*
Y361221D02*
D03*
X535433Y356299D02*
D03*
X525982Y398987D02*
D03*
X552756Y389961D02*
D03*
X586343Y371554D02*
D03*
X576918Y336112D02*
D03*
X594882Y158465D02*
D03*
X594050Y95911D02*
D03*
X569898Y293094D02*
D03*
X561024Y301969D02*
D03*
X565945Y270669D02*
D03*
X552756Y206299D02*
D03*
X539954Y327550D02*
D03*
X376239Y82677D02*
D03*
X331496Y86614D02*
D03*
X527416Y320474D02*
D03*
X497097Y407481D02*
D03*
X475318D02*
D03*
X503937Y349623D02*
D03*
X504921Y322835D02*
D03*
X106299Y308842D02*
D03*
X79724Y308071D02*
D03*
X609962Y324755D02*
D03*
X599599Y294291D02*
D03*
X603937Y158465D02*
D03*
X534050Y327550D02*
D03*
X496960Y396937D02*
D03*
X591535Y397638D02*
D03*
X634842Y237205D02*
D03*
X632874Y216535D02*
D03*
X593504Y199803D02*
D03*
X89567Y333661D02*
D03*
X515844Y349623D02*
D03*
X509842Y328740D02*
D03*
X569358Y185438D02*
D03*
X587598Y236221D02*
D03*
Y229331D02*
D03*
X660433Y335420D02*
D03*
X476378Y125984D02*
D03*
Y151575D02*
D03*
X373031Y232283D02*
D03*
X483268Y208661D02*
D03*
Y239491D02*
D03*
X523622Y254921D02*
D03*
X536114Y269720D02*
D03*
X490180Y250124D02*
D03*
X498471Y263779D02*
D03*
Y250124D02*
D03*
X533465Y250376D02*
D03*
X533557Y241900D02*
D03*
X507072Y206693D02*
D03*
X468504Y335545D02*
D03*
X696386Y280512D02*
D03*
X699936Y237205D02*
D03*
X672244Y321850D02*
D03*
X679134Y280052D02*
D03*
X542459Y228590D02*
D03*
X544291Y221787D02*
D03*
X618110Y377236D02*
D03*
X606299Y370079D02*
D03*
X628150Y375984D02*
D03*
X626968Y391248D02*
D03*
X603346Y281496D02*
D03*
X664173Y357874D02*
D03*
X673228Y279528D02*
D03*
X669749Y250480D02*
D03*
X644882Y372047D02*
D03*
X642717Y322291D02*
D03*
X623979Y296937D02*
D03*
X624055Y287012D02*
D03*
X623979Y292606D02*
D03*
Y301268D02*
D03*
X624055Y276527D02*
D03*
X628270Y263923D02*
D03*
X570866Y282480D02*
D03*
X653150Y115949D02*
D03*
X646306Y115658D02*
D03*
X639468Y115949D02*
D03*
X581496Y153937D02*
D03*
X463285Y374747D02*
D03*
X440551Y246606D02*
D03*
X438929Y286144D02*
D03*
X426325Y349641D02*
D03*
X411063Y270530D02*
D03*
X364961Y308268D02*
D03*
X360236D02*
D03*
X355512D02*
D03*
X559731Y195335D02*
D03*
X472441Y186614D02*
D03*
X397244Y223622D02*
D03*
X278543Y57087D02*
D03*
X306102Y61024D02*
D03*
X592520Y166535D02*
D03*
X469086Y306102D02*
D03*
X453740Y291339D02*
D03*
X433046Y264764D02*
D03*
X450787Y254921D02*
D03*
X416916Y264673D02*
D03*
X420866Y261417D02*
D03*
X316929Y366142D02*
D03*
Y386811D02*
D03*
X650591Y428150D02*
D03*
X504921Y87598D02*
D03*
X376239Y72580D02*
D03*
X624260Y326622D02*
D03*
X535794Y307841D02*
D03*
X516535Y167323D02*
D03*
X432283Y339640D02*
D03*
X469906Y325374D02*
D03*
X511417Y305512D02*
D03*
X427559Y304875D02*
D03*
X406217Y305214D02*
D03*
X432564Y281144D02*
D03*
X516617Y87598D02*
D03*
X379921Y339567D02*
D03*
Y351378D02*
D03*
X446760Y349266D02*
D03*
X387795Y267717D02*
D03*
X384252Y262598D02*
D03*
X510630Y296063D02*
D03*
X593254Y381554D02*
D03*
X600787Y364701D02*
D03*
X566142Y201181D02*
D03*
X511417Y168110D02*
D03*
X468504Y345545D02*
D03*
X472441Y295276D02*
D03*
X473228Y274898D02*
D03*
X468504Y274516D02*
D03*
X523464Y295244D02*
D03*
X697759Y220204D02*
D03*
X650827Y277995D02*
D03*
X651424Y301268D02*
D03*
Y296937D02*
D03*
Y292606D02*
D03*
X645633Y268590D02*
D03*
X636495D02*
D03*
X651615Y285476D02*
D03*
X445276Y275309D02*
D03*
X432564Y275490D02*
D03*
X443904Y376569D02*
D03*
X443972Y384412D02*
D03*
X642913Y420866D02*
D03*
D101*
X620177Y163465D02*
D03*
X640650Y163268D02*
D03*
X517913Y153150D02*
D03*
X517717Y132677D02*
D03*
Y143701D02*
D03*
X512598Y44882D02*
D03*
X512795Y65354D02*
D03*
X590551Y58071D02*
D03*
X581102Y58268D02*
D03*
X570079D02*
D03*
D102*
X19685Y62992D02*
D03*
Y277559D02*
D03*
D103*
X630366Y163386D02*
D03*
D104*
X87106Y112458D02*
D03*
D105*
X374016Y433071D02*
D03*
X374016Y19685D02*
D03*
D106*
X177165Y18209D02*
D03*
M02*
