G04*
G04 #@! TF.GenerationSoftware,Altium Limited,Altium Designer,24.3.1 (35)*
G04*
G04 Layer_Color=16711935*
%FSLAX25Y25*%
%MOIN*%
G70*
G04*
G04 #@! TF.SameCoordinates,B66C1CC3-219B-4653-80DD-37234FDAD4F4*
G04*
G04*
G04 #@! TF.FilePolarity,Negative*
G04*
G01*
G75*
%ADD10C,0.00787*%
%ADD13C,0.01181*%
%ADD15C,0.01378*%
%ADD50R,0.07099X0.04737*%
%ADD60R,0.04737X0.07099*%
%ADD79C,0.08674*%
%ADD80R,0.08674X0.08674*%
%ADD81C,0.09461*%
%ADD82C,0.10642*%
%ADD83C,0.06312*%
%ADD84R,0.10249X0.10249*%
%ADD85C,0.10249*%
%ADD86C,0.07296*%
%ADD87R,0.07296X0.07296*%
%ADD88C,0.06706*%
%ADD89O,0.05930X0.06312*%
%ADD90O,0.06312X0.05930*%
%ADD91O,0.08477X0.05918*%
%ADD92C,0.05918*%
%ADD93R,0.05918X0.05918*%
%ADD94C,0.12611*%
%ADD95C,0.16548*%
%ADD96C,0.05524*%
%ADD97O,0.09068X0.06312*%
%ADD98C,0.32296*%
%ADD99C,0.04724*%
%ADD100C,0.03950*%
%ADD101C,0.07887*%
%ADD102R,0.35433X0.35433*%
%ADD103R,0.28055X0.07874*%
%ADD104R,1.34843X0.63499*%
%ADD105R,0.35433X0.39370*%
%ADD106R,0.35433X0.36417*%
%ADD107C,0.01968*%
%ADD110C,0.01575*%
D10*
X124016Y227529D02*
G03*
X124016Y227529I-5906J0D01*
G01*
D13*
X273031Y161417D02*
G03*
X273031Y161417I-6693J0D01*
G01*
X277716Y194882D02*
G03*
X277716Y194882I-6693J0D01*
G01*
Y227362D02*
G03*
X277716Y227362I-6693J0D01*
G01*
Y259842D02*
G03*
X277716Y259842I-6693J0D01*
G01*
Y292323D02*
G03*
X277716Y292323I-6693J0D01*
G01*
Y324560D02*
G03*
X277716Y324560I-6693J0D01*
G01*
X278740Y351378D02*
G03*
X278740Y351378I-6693J0D01*
G01*
X278771Y411287D02*
G03*
X278771Y411287I-6693J0D01*
G01*
X304921Y409449D02*
G03*
X304921Y409449I-6693J0D01*
G01*
X196066Y154528D02*
G03*
X196066Y154528I-6693J0D01*
G01*
X171063D02*
G03*
X171063Y154528I-6693J0D01*
G01*
X194385Y181102D02*
G03*
X194385Y181102I-5118J0D01*
G01*
X165004D02*
G03*
X165004Y181102I-5118J0D01*
G01*
X223493Y375197D02*
G03*
X223493Y375197I-8926J0D01*
G01*
X148690D02*
G03*
X148690Y375197I-8926J0D01*
G01*
X223493Y209842D02*
G03*
X223493Y209842I-8926J0D01*
G01*
X148690D02*
G03*
X148690Y209842I-8926J0D01*
G01*
D15*
X203740Y110236D02*
X222441D01*
D50*
X659412Y274890D02*
D03*
X659412Y286701D02*
D03*
D60*
X632558Y285476D02*
D03*
X632640Y276465D02*
D03*
X632558Y304524D02*
D03*
Y313866D02*
D03*
Y295776D02*
D03*
X644369Y295776D02*
D03*
X644451Y276465D02*
D03*
X644369Y285476D02*
D03*
X644369Y313866D02*
D03*
Y304524D02*
D03*
D79*
X435039Y107283D02*
D03*
D80*
X445039D02*
D03*
D81*
X115157Y413386D02*
D03*
Y333386D02*
D03*
X11811Y375000D02*
D03*
Y352362D02*
D03*
D82*
X255906Y124881D02*
D03*
Y55983D02*
D03*
X189373Y154528D02*
D03*
X164370D02*
D03*
X167717Y425394D02*
D03*
X189961Y425197D02*
D03*
D83*
X316339Y161417D02*
D03*
X266339D02*
D03*
X337992Y127953D02*
D03*
X287992D02*
D03*
X741142Y159449D02*
D03*
X759842Y183071D02*
D03*
X778253Y168395D02*
D03*
X788639Y53150D02*
D03*
X789370Y71850D02*
D03*
X826772Y285433D02*
D03*
Y273622D02*
D03*
Y279528D02*
D03*
Y223425D02*
D03*
Y217520D02*
D03*
Y229331D02*
D03*
X814973Y173425D02*
D03*
X822835D02*
D03*
X830709D02*
D03*
X686593Y160848D02*
D03*
X750000Y260433D02*
D03*
D84*
X814961Y71102D02*
D03*
D85*
Y91102D02*
D03*
Y111102D02*
D03*
Y131102D02*
D03*
Y151102D02*
D03*
D86*
X212598Y90236D02*
D03*
Y100236D02*
D03*
Y110236D02*
D03*
D87*
Y120236D02*
D03*
D88*
X651575Y86614D02*
D03*
X407480Y118110D02*
D03*
X752834Y243504D02*
D03*
X753292Y293307D02*
D03*
X753937Y176181D02*
D03*
X450787Y262795D02*
D03*
X539370Y244031D02*
D03*
X479936Y217554D02*
D03*
Y229365D02*
D03*
X606672Y346203D02*
D03*
X660593Y299213D02*
D03*
X674213Y336327D02*
D03*
X646654Y383858D02*
D03*
X591339Y344914D02*
D03*
X318898Y45276D02*
D03*
X692913Y235236D02*
D03*
X390639Y54635D02*
D03*
X325636Y59055D02*
D03*
X443972Y392717D02*
D03*
X275000Y75984D02*
D03*
Y125197D02*
D03*
X298228Y360236D02*
D03*
X236221Y76772D02*
D03*
X298228Y409449D02*
D03*
X236221Y125984D02*
D03*
X32480Y290552D02*
D03*
X6890D02*
D03*
X32178Y264764D02*
D03*
X6890D02*
D03*
X5906Y76772D02*
D03*
X33465D02*
D03*
X387795Y444882D02*
D03*
Y421260D02*
D03*
X360236D02*
D03*
Y444882D02*
D03*
X387795Y30512D02*
D03*
X360236D02*
D03*
X387795Y6890D02*
D03*
X360236D02*
D03*
X190945Y31496D02*
D03*
X163386D02*
D03*
X190945Y7874D02*
D03*
X163386D02*
D03*
D89*
X333661Y351732D02*
D03*
Y371732D02*
D03*
Y391732D02*
D03*
Y411732D02*
D03*
X272047Y351378D02*
D03*
Y371378D02*
D03*
Y391378D02*
D03*
Y411378D02*
D03*
D90*
X271024Y324560D02*
D03*
X291024D02*
D03*
X311024D02*
D03*
X331024D02*
D03*
X271024Y194882D02*
D03*
X291024D02*
D03*
X311024D02*
D03*
X331024D02*
D03*
X271024Y227362D02*
D03*
X291024D02*
D03*
X311024D02*
D03*
X331024D02*
D03*
X271024Y259842D02*
D03*
X291024D02*
D03*
X311024D02*
D03*
X331024D02*
D03*
X271024Y292323D02*
D03*
X291024D02*
D03*
X311024D02*
D03*
X331024D02*
D03*
D91*
X645633Y257173D02*
D03*
Y249299D02*
D03*
D92*
X603543Y420079D02*
D03*
Y412205D02*
D03*
X595669Y420079D02*
D03*
Y412205D02*
D03*
X587795Y420079D02*
D03*
Y412205D02*
D03*
X548425Y420079D02*
D03*
X556299Y412205D02*
D03*
Y420079D02*
D03*
X564173Y412205D02*
D03*
Y420079D02*
D03*
X572047Y412205D02*
D03*
Y420079D02*
D03*
X579921Y412205D02*
D03*
Y420079D02*
D03*
D93*
X548425Y412205D02*
D03*
D94*
X19685Y62992D02*
D03*
X66929Y173228D02*
D03*
X374016Y433071D02*
D03*
Y19685D02*
D03*
X19685Y277559D02*
D03*
X433071Y19685D02*
D03*
X66929Y230315D02*
D03*
X19685Y19685D02*
D03*
X464567Y433071D02*
D03*
X19685D02*
D03*
X846457Y19685D02*
D03*
Y433071D02*
D03*
X492126D02*
D03*
X433071D02*
D03*
D95*
X787402Y433071D02*
D03*
X78740Y19685D02*
D03*
X787402D02*
D03*
D96*
X139764Y403543D02*
D03*
X118110Y227529D02*
D03*
X189266Y181102D02*
D03*
X159886D02*
D03*
X561024Y351969D02*
D03*
X341535Y108268D02*
D03*
D97*
X714538Y59055D02*
D03*
Y78740D02*
D03*
X714567Y104331D02*
D03*
X714567Y118110D02*
D03*
X714538Y162598D02*
D03*
Y142913D02*
D03*
D98*
X49213Y108268D02*
D03*
X125591D02*
D03*
X49213Y364173D02*
D03*
D99*
X642520Y125197D02*
D03*
X648819D02*
D03*
Y131496D02*
D03*
X642520D02*
D03*
X547638Y31496D02*
D03*
X553937D02*
D03*
Y37795D02*
D03*
X547638D02*
D03*
X641507Y31496D02*
D03*
X647806D02*
D03*
Y37795D02*
D03*
X641507D02*
D03*
X552924Y125197D02*
D03*
X559223D02*
D03*
Y131496D02*
D03*
X552924D02*
D03*
D100*
X458561Y275309D02*
D03*
X442913Y330709D02*
D03*
X434055Y330545D02*
D03*
X388779Y339567D02*
D03*
X644882Y396109D02*
D03*
X565983Y395866D02*
D03*
X532480Y361221D02*
D03*
X513779Y359252D02*
D03*
X547693Y353346D02*
D03*
Y361221D02*
D03*
X535433Y356299D02*
D03*
X525982Y398987D02*
D03*
X552756Y389961D02*
D03*
X586343Y371554D02*
D03*
X576918Y336112D02*
D03*
X594882Y158465D02*
D03*
X594050Y95911D02*
D03*
X569898Y293094D02*
D03*
X561024Y301969D02*
D03*
X565945Y270669D02*
D03*
X552756Y206299D02*
D03*
X539954Y327550D02*
D03*
X376239Y82677D02*
D03*
X331496Y86614D02*
D03*
X527416Y320474D02*
D03*
X497097Y407481D02*
D03*
X475318D02*
D03*
X503937Y349623D02*
D03*
X504921Y322835D02*
D03*
X106299Y308842D02*
D03*
X79724Y308071D02*
D03*
X609962Y324755D02*
D03*
X599599Y294291D02*
D03*
X603937Y158465D02*
D03*
X534050Y327550D02*
D03*
X496960Y396937D02*
D03*
X591535Y397638D02*
D03*
X634842Y237205D02*
D03*
X632874Y216535D02*
D03*
X593504Y199803D02*
D03*
X89567Y333661D02*
D03*
X515844Y349623D02*
D03*
X509842Y328740D02*
D03*
X569358Y185438D02*
D03*
X587598Y236221D02*
D03*
Y229331D02*
D03*
X660433Y335420D02*
D03*
X476378Y125984D02*
D03*
Y151575D02*
D03*
X373031Y232283D02*
D03*
X483268Y208661D02*
D03*
Y239491D02*
D03*
X523622Y254921D02*
D03*
X536114Y269720D02*
D03*
X490180Y250124D02*
D03*
X498471Y263779D02*
D03*
Y250124D02*
D03*
X533465Y250376D02*
D03*
X533557Y241900D02*
D03*
X507072Y206693D02*
D03*
X468504Y335545D02*
D03*
X696386Y280512D02*
D03*
X699936Y237205D02*
D03*
X672244Y321850D02*
D03*
X679134Y280052D02*
D03*
X542459Y228590D02*
D03*
X544291Y221787D02*
D03*
X618110Y377236D02*
D03*
X606299Y370079D02*
D03*
X628150Y375984D02*
D03*
X626968Y391248D02*
D03*
X603346Y281496D02*
D03*
X664173Y357874D02*
D03*
X673228Y279528D02*
D03*
X669749Y250480D02*
D03*
X644882Y372047D02*
D03*
X642717Y322291D02*
D03*
X623979Y296937D02*
D03*
X624055Y287012D02*
D03*
X623979Y292606D02*
D03*
Y301268D02*
D03*
X624055Y276527D02*
D03*
X628270Y263923D02*
D03*
X570866Y282480D02*
D03*
X653150Y115949D02*
D03*
X646306Y115658D02*
D03*
X639468Y115949D02*
D03*
X581496Y153937D02*
D03*
X463285Y374747D02*
D03*
X440551Y246606D02*
D03*
X438929Y286144D02*
D03*
X426325Y349641D02*
D03*
X411063Y270530D02*
D03*
X364961Y308268D02*
D03*
X360236D02*
D03*
X355512D02*
D03*
X559731Y195335D02*
D03*
X472441Y186614D02*
D03*
X397244Y223622D02*
D03*
X278543Y57087D02*
D03*
X306102Y61024D02*
D03*
X592520Y166535D02*
D03*
X469086Y306102D02*
D03*
X453740Y291339D02*
D03*
X433046Y264764D02*
D03*
X450787Y254921D02*
D03*
X416916Y264673D02*
D03*
X420866Y261417D02*
D03*
X316929Y366142D02*
D03*
Y386811D02*
D03*
X650591Y428150D02*
D03*
X504921Y87598D02*
D03*
X376239Y72580D02*
D03*
X624260Y326622D02*
D03*
X535794Y307841D02*
D03*
X516535Y167323D02*
D03*
X432283Y339640D02*
D03*
X469906Y325374D02*
D03*
X511417Y305512D02*
D03*
X427559Y304875D02*
D03*
X406217Y305214D02*
D03*
X432564Y281144D02*
D03*
X516617Y87598D02*
D03*
X379921Y339567D02*
D03*
Y351378D02*
D03*
X446760Y349266D02*
D03*
X387795Y267717D02*
D03*
X384252Y262598D02*
D03*
X510630Y296063D02*
D03*
X593254Y381554D02*
D03*
X600787Y364701D02*
D03*
X566142Y201181D02*
D03*
X511417Y168110D02*
D03*
X468504Y345545D02*
D03*
X472441Y295276D02*
D03*
X473228Y274898D02*
D03*
X468504Y274516D02*
D03*
X523464Y295244D02*
D03*
X697759Y220204D02*
D03*
X650827Y277995D02*
D03*
X651424Y301268D02*
D03*
Y296937D02*
D03*
Y292606D02*
D03*
X645633Y268590D02*
D03*
X636495D02*
D03*
X651615Y285476D02*
D03*
X445276Y275309D02*
D03*
X432564Y275490D02*
D03*
X443904Y376569D02*
D03*
X443972Y384412D02*
D03*
X642913Y420866D02*
D03*
D101*
X620177Y163465D02*
D03*
X640650Y163268D02*
D03*
X517913Y153150D02*
D03*
X517717Y132677D02*
D03*
Y143701D02*
D03*
X512598Y44882D02*
D03*
X512795Y65354D02*
D03*
X590551Y58071D02*
D03*
X581102Y58268D02*
D03*
X570079D02*
D03*
D102*
X19685Y62992D02*
D03*
Y277559D02*
D03*
D103*
X630366Y163386D02*
D03*
D104*
X87106Y112458D02*
D03*
D105*
X374016Y433071D02*
D03*
X374016Y19685D02*
D03*
D106*
X177165Y18209D02*
D03*
D107*
X76772Y230315D02*
G03*
X76772Y230315I-9843J0D01*
G01*
Y173228D02*
G03*
X76772Y173228I-9843J0D01*
G01*
D110*
X222441Y110236D02*
X232283Y120079D01*
X298228D01*
X299213Y121063D01*
Y133858D01*
X204724D02*
X299213D01*
X203740Y132874D02*
X204724Y133858D01*
X203740Y110236D02*
Y132874D01*
M02*
