M48
;Layer_Color=9474304
;FILE_FORMAT=2:5
INCH
;TYPE=PLATED
T01F00S00C0.01968
T02F00S00C0.03150
T03F00S00C0.03937
T04F00S00C0.05906
T05F00S00C0.07087
T06F00S00C0.07874
%
T01
X0317913Y0096457
X0345472Y0100394
X0370866Y0125984
X0415609Y0122047
Y0111950
X0544291Y0126969
X0555988Y0126969
X0633420Y0135281
X0678839Y0155319
X0685676Y0155028
X0692520Y0155319
X0643307Y0197835
X0634252
X0631890Y0205906
X0632874Y0239173
X0626968Y0268701
Y0275590
X0674213Y0276575
X0672244Y0255906
X0667640Y0303293
X0675865Y0307961
X0685003
X0709119Y0289850
X0739306Y0276575
X0737129Y0259574
X0605512Y0240551
X0599101Y0234705
X0592126Y0245669
X0583661Y0261157
X0581829Y0267960
X0572927Y0281271
X0572835Y0289746
X0562992Y0294291
X0575484Y0309090
X0605315Y0310039
X0537841Y0303150
Y0289494
X0529551
X0522638Y0278861
Y0248031
X0546442Y0246063
X0550787Y0207480
X0555905Y0206693
X0515748Y0190945
Y0165354
X0511811Y0225984
X0490158Y0294291
X0479921Y0285977
X0472416Y0304134
X0608729Y0224808
X0620866Y0193307
X0436614Y0262992
X0412402Y0271654
X0423622Y0301969
X0427165Y0307087
X0450433Y0309900
X0456286Y0304043
X0460236Y0300787
X0145669Y0348212
X0119095Y0347441
X0128937Y0373031
X0356299Y0405512
Y0426181
X0419291Y0390748
Y0378937
X0428150
X0465695Y0389011
X0466929Y0344245
X0445587Y0344584
X0404331Y0347638
X0399606
X0394882
X0473425Y0369915
X0482283Y0370079
X0471654Y0379011
X0486130Y0388636
X0507874Y0384915
Y0374915
X0509276Y0364744
X0508456Y0345472
X0511811Y0334646
X0512598Y0314268
X0507874Y0313886
X0497931Y0314679
X0484646
X0471935Y0314860
Y0320514
X0478299Y0325515
X0493110Y0330709
X0550000Y0335433
X0550787Y0344882
X0562834Y0334614
X0575164Y0347211
X0566786Y0359844
X0573420Y0366920
X0579324
X0549213Y0368110
X0544291Y0362205
X0543307Y0388993
X0555214
X0553150Y0398622
X0571850Y0400591
X0574803Y0395669
X0587063Y0392717
Y0400591
X0592126Y0429331
X0605353Y0435236
X0565352Y0438357
X0536330Y0436307
X0536467Y0446851
X0514688
X0502656Y0414117
X0483274Y0415939
X0483343Y0423782
X0616288Y0375482
X0609268Y0332464
X0610236Y0321850
X0600394Y0341339
X0638969Y0333662
X0642717Y0320866
X0663426Y0315897
Y0326382
X0663349Y0331976
Y0336307
Y0340638
X0663630Y0365992
X0649332Y0364125
X0682087Y0361661
X0690794Y0340638
Y0336307
Y0331976
X0690985Y0324846
X0690197Y0317366
X0712598Y0318898
X0718504Y0319422
X0735757Y0319882
X0711614Y0361221
X0699803Y0374790
X0703543Y0397244
X0684252Y0411417
X0667520Y0415354
X0657480Y0416606
X0645669Y0409449
X0640158Y0404071
X0625714Y0410924
X0632624Y0420925
X0630905Y0437008
X0666339Y0430618
X0684252Y0435479
X0682283Y0460236
X0689961Y0467520
T02
X0045276Y0116142
X0072835
X0202756Y0070866
Y0047244
X0230315
Y0070866
X0275590Y0116142
X0314370Y0115354
X0380906Y0147638
X0399606Y0069882
Y0046260
X0427165
Y0069882
X0587008Y0070866
X0593307
Y0077165
X0587008
X0680877Y0077165
Y0070866
X0687176
Y0077165
X0753908Y0098425
Y0118110
X0753937Y0143701
X0828740Y0111221
X0828010Y0092520
X0817623Y0207765
X0799213Y0222441
X0789370Y0299803
X0685003Y0296543
Y0288669
X0681890Y0170866
Y0164567
X0688189
Y0170866
X0725963Y0200218
X0753908Y0201969
Y0182283
X0753937Y0157480
X0780512Y0198819
X0598594Y0170866
Y0164567
X0592294
Y0170866
X0314370Y0164567
X0330394Y0234252
X0350394
X0370394
Y0266732
X0350394
X0330394
Y0299213
X0350394
X0370394
X0310394
Y0266732
Y0234252
X0228637Y0220472
X0199256
X0157480Y0266899
X0275590Y0165354
X0071548Y0304134
X0046260
Y0329922
X0071850
X0179134Y0442913
X0311417Y0450748
Y0430748
Y0410748
Y0390748
X0310394Y0363930
Y0331693
X0330394
X0350394
X0370394
Y0363930
X0350394
X0330394
X0337598Y0399606
X0373031Y0391102
Y0411102
Y0431102
Y0451102
X0399606Y0460630
X0427165
X0337598Y0448819
X0587795Y0451575
Y0459449
X0595669
X0603543
Y0451575
X0595669
X0611417
X0619291
Y0459449
X0611417
X0600394Y0391339
X0627165Y0451575
X0635039
X0642913
Y0459449
X0635039
X0627165
X0427165Y0484252
X0399606
T03
X0251969Y0129606
Y0139606
Y0149606
X0365006Y0098425
X0358268Y0084646
X0430009Y0094005
X0551968Y0084252
X0552165Y0104724
X0609449Y0097638
X0620472
X0629921Y0097441
X0690945Y0125984
X0793307Y0215551
X0854343Y0212795
X0862205
X0870079
X0866142Y0256890
Y0262795
Y0268701
X0792204Y0282874
X0732283Y0274606
X0680020Y0202638
X0659547Y0202835
X0557283Y0192520
X0557087Y0183071
Y0172047
X0519306Y0256925
Y0268736
X0490158Y0302165
X0578740Y0283401
X0446850Y0157480
X0377362Y0167323
X0327362
X0355709Y0200787
X0305709
X0251969Y0159606
X0483343Y0432087
X0630709Y0384284
X0646042Y0385573
X0713583Y0375697
X0699963Y0338583
X0686024Y0423228
X0792662Y0332677
X0866142Y0324803
Y0318898
Y0312992
T04
X0295276Y0095353
X0474409Y0146653
X0484410
X0295276Y0164251
X0228743Y0193898
X0203740
X0179134Y0249212
X0253937
X0154528Y0372756
Y0452756
X0051181Y0414370
Y0391732
X0179134Y0414567
X0253937
X0229331Y0464567
X0207087Y0464764
T05
X0854331Y0110472
Y0130472
Y0150472
Y0170472
Y0190472
T06
X0106299Y0212598
Y0269685
M30
