G04*
G04 #@! TF.GenerationSoftware,Altium Limited,Altium Designer,24.3.1 (35)*
G04*
G04 Layer_Color=8421504*
%FSLAX25Y25*%
%MOIN*%
G70*
G04*
G04 #@! TF.SameCoordinates,4BCA059C-AF56-4B13-9012-704562AF90CC*
G04*
G04*
G04 #@! TF.FilePolarity,Positive*
G04*
G01*
G75*
%ADD14R,0.05906X0.05906*%
%ADD15R,0.05906X0.05906*%
%ADD16R,0.06299X0.03937*%
%ADD17R,0.02756X0.04134*%
%ADD18R,0.01654X0.03504*%
%ADD19R,0.04921X0.03937*%
%ADD20R,0.03937X0.06299*%
%ADD21R,0.02165X0.04272*%
%ADD22C,0.03937*%
D14*
X584646Y183858D02*
D03*
X661024D02*
D03*
X267341Y183856D02*
D03*
X114567Y183858D02*
D03*
X190963Y183463D02*
D03*
X343719Y185825D02*
D03*
X508286Y186612D02*
D03*
D15*
X599593Y183861D02*
D03*
X675971D02*
D03*
X282288Y183859D02*
D03*
X129514Y183861D02*
D03*
X205910Y183465D02*
D03*
X523233Y186615D02*
D03*
X358666Y185827D02*
D03*
D16*
X353937Y93701D02*
D03*
Y105512D02*
D03*
X518504Y94095D02*
D03*
X518504Y105905D02*
D03*
X188189Y99606D02*
D03*
Y87795D02*
D03*
X264567Y100000D02*
D03*
Y88189D02*
D03*
X243701Y100394D02*
D03*
Y88583D02*
D03*
X658268Y100496D02*
D03*
X648032D02*
D03*
X581598Y100000D02*
D03*
X571362D02*
D03*
X254331D02*
D03*
X177953Y99606D02*
D03*
X111507Y99753D02*
D03*
X101271D02*
D03*
X742520Y59449D02*
D03*
X611520Y101969D02*
D03*
X218110Y101575D02*
D03*
X141428Y101721D02*
D03*
X294488Y101969D02*
D03*
X611520Y90157D02*
D03*
X560732Y100394D02*
D03*
X688189Y90654D02*
D03*
X637402Y100890D02*
D03*
X294488Y90157D02*
D03*
X218110Y89764D02*
D03*
X167323Y100000D02*
D03*
X141428Y89910D02*
D03*
X90641Y100146D02*
D03*
X581598Y88189D02*
D03*
X560732Y88583D02*
D03*
X658268Y88685D02*
D03*
X637402Y89079D02*
D03*
X167323Y88189D02*
D03*
X111507Y87942D02*
D03*
X90641Y88335D02*
D03*
X571362Y88189D02*
D03*
X648032Y88685D02*
D03*
X254331Y88189D02*
D03*
X177953Y87795D02*
D03*
X101271Y87942D02*
D03*
X688189Y102464D02*
D03*
X742520Y71260D02*
D03*
D17*
X333858Y93701D02*
D03*
X337598Y102756D02*
D03*
X341339Y93701D02*
D03*
X505905Y94094D02*
D03*
X502165Y103150D02*
D03*
X498425Y94094D02*
D03*
D18*
X277165Y102264D02*
D03*
X282283Y85768D02*
D03*
X279724D02*
D03*
X277165D02*
D03*
X274606D02*
D03*
Y102264D02*
D03*
X279724D02*
D03*
X282283D02*
D03*
X670866Y102760D02*
D03*
X200787Y101870D02*
D03*
X124106Y102016D02*
D03*
X594197Y102264D02*
D03*
X596756D02*
D03*
X203346Y101870D02*
D03*
X126665Y102016D02*
D03*
X599315Y102264D02*
D03*
X675984Y102760D02*
D03*
X205906Y101870D02*
D03*
X129224Y102016D02*
D03*
X591638Y85768D02*
D03*
X668307Y86264D02*
D03*
X198228Y85374D02*
D03*
X121546Y85520D02*
D03*
X594197Y85768D02*
D03*
X670866Y86264D02*
D03*
X200787Y85374D02*
D03*
X124106Y85520D02*
D03*
X673425Y102760D02*
D03*
X596756Y85768D02*
D03*
X599315D02*
D03*
X591638Y102264D02*
D03*
X129224Y85520D02*
D03*
X126665D02*
D03*
X121546Y102016D02*
D03*
X198228Y101870D02*
D03*
X203346Y85374D02*
D03*
X205906D02*
D03*
X668307Y102760D02*
D03*
X673425Y86264D02*
D03*
X675984D02*
D03*
D19*
X620575Y98031D02*
D03*
X227165Y97638D02*
D03*
X150484Y97784D02*
D03*
X303543Y98031D02*
D03*
X620575Y90157D02*
D03*
X697244Y90654D02*
D03*
X303543Y90157D02*
D03*
X227165Y89764D02*
D03*
X150484Y89910D02*
D03*
X697244Y98527D02*
D03*
D20*
X590260Y76772D02*
D03*
X666929Y77268D02*
D03*
X273228Y76772D02*
D03*
X196850Y76378D02*
D03*
X120169Y76524D02*
D03*
X131980D02*
D03*
X208661Y76378D02*
D03*
X285039Y76772D02*
D03*
X602071D02*
D03*
X678740Y77268D02*
D03*
D21*
X754331Y68268D02*
D03*
Y59291D02*
D03*
D22*
X859252Y9834D02*
D03*
Y39370D02*
D03*
X827756Y9834D02*
D03*
X6890Y187016D02*
D03*
Y157480D02*
D03*
X38386Y187016D02*
D03*
X859252Y187016D02*
D03*
Y157480D02*
D03*
X827756Y187016D02*
D03*
X6975Y9938D02*
D03*
Y39474D02*
D03*
X38471Y9938D02*
D03*
M02*
