G04*
G04 #@! TF.GenerationSoftware,Altium Limited,Altium Designer,24.3.1 (35)*
G04*
G04 Layer_Physical_Order=1*
G04 Layer_Color=255*
%FSLAX25Y25*%
%MOIN*%
G70*
G04*
G04 #@! TF.SameCoordinates,4BCA059C-AF56-4B13-9012-704562AF90CC*
G04*
G04*
G04 #@! TF.FilePolarity,Positive*
G04*
G01*
G75*
%ADD11C,0.01181*%
%ADD14R,0.05906X0.05906*%
%ADD15R,0.05906X0.05906*%
%ADD16R,0.06299X0.03937*%
%ADD17R,0.02756X0.04134*%
%ADD18R,0.01654X0.03504*%
%ADD19R,0.04921X0.03937*%
%ADD20R,0.03937X0.06299*%
%ADD21R,0.02165X0.04272*%
%ADD22C,0.03937*%
%ADD40C,0.01000*%
%ADD41C,0.01968*%
%ADD42R,0.03937X0.03937*%
%ADD43C,0.05512*%
%ADD44R,0.05512X0.05512*%
%ADD45C,0.08661*%
%ADD46C,0.11811*%
%ADD47C,0.05906*%
%ADD48C,0.03150*%
D11*
X754331Y44488D02*
Y59291D01*
D14*
X584646Y183858D02*
D03*
X661024D02*
D03*
X267341Y183856D02*
D03*
X114567Y183858D02*
D03*
X190963Y183463D02*
D03*
X343719Y185825D02*
D03*
X508286Y186612D02*
D03*
D15*
X599593Y183861D02*
D03*
X675971D02*
D03*
X282288Y183859D02*
D03*
X129514Y183861D02*
D03*
X205910Y183465D02*
D03*
X523233Y186615D02*
D03*
X358666Y185827D02*
D03*
D16*
X353937Y93701D02*
D03*
Y105512D02*
D03*
X518504Y94095D02*
D03*
X518504Y105905D02*
D03*
X188189Y99606D02*
D03*
Y87795D02*
D03*
X264567Y100000D02*
D03*
Y88189D02*
D03*
X243701Y100394D02*
D03*
Y88583D02*
D03*
X658268Y100496D02*
D03*
X648032D02*
D03*
X581598Y100000D02*
D03*
X571362D02*
D03*
X254331D02*
D03*
X177953Y99606D02*
D03*
X111507Y99753D02*
D03*
X101271D02*
D03*
X742520Y59449D02*
D03*
X611520Y101969D02*
D03*
X218110Y101575D02*
D03*
X141428Y101721D02*
D03*
X294488Y101969D02*
D03*
X611520Y90157D02*
D03*
X560732Y100394D02*
D03*
X688189Y90654D02*
D03*
X637402Y100890D02*
D03*
X294488Y90157D02*
D03*
X218110Y89764D02*
D03*
X167323Y100000D02*
D03*
X141428Y89910D02*
D03*
X90641Y100146D02*
D03*
X581598Y88189D02*
D03*
X560732Y88583D02*
D03*
X658268Y88685D02*
D03*
X637402Y89079D02*
D03*
X167323Y88189D02*
D03*
X111507Y87942D02*
D03*
X90641Y88335D02*
D03*
X571362Y88189D02*
D03*
X648032Y88685D02*
D03*
X254331Y88189D02*
D03*
X177953Y87795D02*
D03*
X101271Y87942D02*
D03*
X688189Y102464D02*
D03*
X742520Y71260D02*
D03*
D17*
X333858Y93701D02*
D03*
X337598Y102756D02*
D03*
X341339Y93701D02*
D03*
X505905Y94094D02*
D03*
X502165Y103150D02*
D03*
X498425Y94094D02*
D03*
D18*
X277165Y102264D02*
D03*
X282283Y85768D02*
D03*
X279724D02*
D03*
X277165D02*
D03*
X274606D02*
D03*
Y102264D02*
D03*
X279724D02*
D03*
X282283D02*
D03*
X670866Y102760D02*
D03*
X200787Y101870D02*
D03*
X124106Y102016D02*
D03*
X594197Y102264D02*
D03*
X596756D02*
D03*
X203346Y101870D02*
D03*
X126665Y102016D02*
D03*
X599315Y102264D02*
D03*
X675984Y102760D02*
D03*
X205906Y101870D02*
D03*
X129224Y102016D02*
D03*
X591638Y85768D02*
D03*
X668307Y86264D02*
D03*
X198228Y85374D02*
D03*
X121546Y85520D02*
D03*
X594197Y85768D02*
D03*
X670866Y86264D02*
D03*
X200787Y85374D02*
D03*
X124106Y85520D02*
D03*
X673425Y102760D02*
D03*
X596756Y85768D02*
D03*
X599315D02*
D03*
X591638Y102264D02*
D03*
X129224Y85520D02*
D03*
X126665D02*
D03*
X121546Y102016D02*
D03*
X198228Y101870D02*
D03*
X203346Y85374D02*
D03*
X205906D02*
D03*
X668307Y102760D02*
D03*
X673425Y86264D02*
D03*
X675984D02*
D03*
D19*
X620575Y98031D02*
D03*
X227165Y97638D02*
D03*
X150484Y97784D02*
D03*
X303543Y98031D02*
D03*
X620575Y90157D02*
D03*
X697244Y90654D02*
D03*
X303543Y90157D02*
D03*
X227165Y89764D02*
D03*
X150484Y89910D02*
D03*
X697244Y98527D02*
D03*
D20*
X590260Y76772D02*
D03*
X666929Y77268D02*
D03*
X273228Y76772D02*
D03*
X196850Y76378D02*
D03*
X120169Y76524D02*
D03*
X131980D02*
D03*
X208661Y76378D02*
D03*
X285039Y76772D02*
D03*
X602071D02*
D03*
X678740Y77268D02*
D03*
D21*
X754331Y68268D02*
D03*
Y59291D02*
D03*
D22*
X859252Y9834D02*
D03*
Y39370D02*
D03*
X827756Y9834D02*
D03*
X6890Y187016D02*
D03*
Y157480D02*
D03*
X38386Y187016D02*
D03*
X859252Y187016D02*
D03*
Y157480D02*
D03*
X827756Y187016D02*
D03*
X6975Y9938D02*
D03*
Y39474D02*
D03*
X38471Y9938D02*
D03*
X279803Y165354D02*
D03*
X597126D02*
D03*
X673504D02*
D03*
X203425D02*
D03*
X127047D02*
D03*
D40*
X126917Y165485D02*
X127047Y165354D01*
Y165326D02*
X135417Y156957D01*
Y105268D02*
Y156957D01*
X126917Y165485D02*
Y181264D01*
X663677Y166709D02*
Y181205D01*
X661024Y183858D02*
X663677Y181205D01*
X660157Y163188D02*
X663677Y166709D01*
X658268Y100496D02*
X659449D01*
X648032D02*
X658268D01*
X583853Y163263D02*
X587126Y166535D01*
X505905Y94783D02*
Y110630D01*
X266562Y163294D02*
X269976Y166709D01*
X190078Y163188D02*
X193598Y166709D01*
X112835Y98425D02*
X113174Y98764D01*
X593964Y100426D02*
Y102032D01*
Y99891D02*
Y100426D01*
X117047Y165354D02*
Y180820D01*
X117020Y180847D02*
X117047Y180820D01*
X117020Y180847D02*
Y181405D01*
X115579Y163886D02*
X117047Y165354D01*
X113548Y163269D02*
X114993D01*
X115579Y163855D01*
X114567Y183858D02*
X117020Y181405D01*
X115579Y163855D02*
Y163886D01*
X101271Y150992D02*
X113548Y163269D01*
X603543Y40551D02*
X612205Y49213D01*
X603543Y39370D02*
Y40551D01*
X595522Y39518D02*
X617717Y61713D01*
X564173Y31496D02*
X564173Y31496D01*
X595669D02*
X595669Y31496D01*
X587795Y31496D02*
X587795Y31496D01*
X579921D02*
X586614Y24803D01*
X734716Y24874D02*
X754331Y44488D01*
X603543Y31496D02*
X610136Y24903D01*
X586614Y24803D02*
X734646D01*
X563049Y56243D02*
X579921Y39370D01*
X535588Y56243D02*
X563049D01*
X372809Y54061D02*
X557356D01*
X572047Y39370D01*
X318986Y51880D02*
X551663D01*
X564173Y39370D01*
X244395Y49699D02*
X545970D01*
X556299Y39370D01*
X587795Y62496D02*
X602071Y76772D01*
X587795Y39370D02*
Y62496D01*
X617717Y61713D02*
X670512D01*
X678740Y69941D01*
Y77268D01*
Y78449D01*
X602071Y76772D02*
Y77953D01*
X217717Y76378D02*
X244395Y49699D01*
X294094Y76772D02*
X318986Y51880D01*
X148246Y76524D02*
X185400Y39370D01*
X548425D01*
X523233Y164131D02*
X525591Y161773D01*
X523233Y164131D02*
Y186615D01*
X525591Y111811D02*
Y161773D01*
X519685Y105905D02*
X525591Y111811D01*
X518504Y105905D02*
X519685D01*
X502165Y163322D02*
X508286Y169442D01*
Y186612D01*
X502165Y144833D02*
Y163322D01*
X337598Y163464D02*
X343719Y169585D01*
Y185825D01*
X343719Y185825D02*
X343719Y185825D01*
X337598Y102756D02*
Y163464D01*
X358666Y164273D02*
X361024Y161915D01*
X358666Y164273D02*
Y185827D01*
X358666Y185827D02*
X358666Y185827D01*
X361024Y119685D02*
Y161915D01*
X356587Y115248D02*
X361024Y119685D01*
X356587Y106980D02*
Y115248D01*
X355118Y105512D02*
X356587Y106980D01*
X353937Y105512D02*
X355118D01*
X673780Y166535D02*
X682177Y158138D01*
X673504Y166535D02*
X673780D01*
X682177Y106012D02*
Y158138D01*
X660157Y163117D02*
Y163188D01*
X648032Y150992D02*
X660157Y163117D01*
X648032Y100496D02*
Y150992D01*
X673677Y166709D02*
Y182143D01*
X673504Y166535D02*
X673677Y166709D01*
X583633Y163263D02*
X583853D01*
X574012Y153642D02*
X583633Y163263D01*
X574012Y101469D02*
Y153642D01*
X572543Y100000D02*
X574012Y101469D01*
X597008Y166654D02*
Y185849D01*
Y166654D02*
X597126Y166535D01*
X597605Y185849D02*
X599593Y183861D01*
X597008Y185849D02*
X597605D01*
X597126Y166520D02*
X605508Y158138D01*
X597126Y166520D02*
Y166535D01*
X605508Y105516D02*
Y158138D01*
X587008Y166654D02*
Y181496D01*
Y166654D02*
X587126Y166535D01*
X584646Y183858D02*
X587008Y181496D01*
X269976Y166709D02*
Y177747D01*
X269794Y177930D02*
X269976Y177747D01*
X269794Y177930D02*
Y181404D01*
X267341Y183856D02*
X269794Y181404D01*
X266562Y163176D02*
Y163294D01*
X266515Y163176D02*
X266562D01*
X254331Y150992D02*
X266515Y163176D01*
X254331Y100000D02*
Y150992D01*
X280079Y166535D02*
X288476Y158138D01*
X279803Y166535D02*
X280079D01*
X288476Y105516D02*
Y158138D01*
X279976Y166709D02*
Y181548D01*
X279803Y166535D02*
X279976Y166709D01*
Y181548D02*
X282288Y183859D01*
X193598Y166709D02*
Y180827D01*
X190963Y183463D02*
X193598Y180827D01*
X203598Y166709D02*
Y182824D01*
X203425Y166535D02*
X203598Y166709D01*
X203701Y166535D02*
X214563Y155673D01*
X203425Y166535D02*
X203701D01*
X214563Y105122D02*
Y155673D01*
X190078Y163117D02*
Y163188D01*
X180602Y153642D02*
X190078Y163117D01*
X180602Y101075D02*
Y153642D01*
X179134Y99606D02*
X180602Y101075D01*
X126917Y181264D02*
X129514Y183861D01*
X101271Y99753D02*
Y150992D01*
X572543Y100000D02*
X581598D01*
X288476Y105516D02*
X290941D01*
X188189Y99606D02*
X189657Y98138D01*
X195270D01*
X195770Y97638D01*
X200202D01*
X200787Y98224D01*
Y101870D01*
X179134Y99606D02*
X188189D01*
X605508Y105516D02*
X607972D01*
X682177Y106012D02*
X684642D01*
X571362Y100000D02*
X572543D01*
X204457Y105122D02*
X214563D01*
X177953Y99606D02*
X179134D01*
X135417Y105268D02*
X137881D01*
X127776D02*
X135417D01*
X341339Y93701D02*
Y111417D01*
X341339Y111417D02*
X341339Y111417D01*
X505905Y110630D02*
X506693Y111417D01*
X333858Y93012D02*
X372809Y54061D01*
X333858Y93012D02*
Y93701D01*
X505905Y94094D02*
Y94783D01*
X208661Y76378D02*
X217717D01*
X131980Y76524D02*
X148246D01*
X285039Y76772D02*
X294094D01*
X498425Y93405D02*
X535588Y56243D01*
X596756Y85768D02*
X596988Y85535D01*
Y82933D02*
Y85535D01*
X673425Y86264D02*
X673658Y86031D01*
Y83429D02*
Y86031D01*
X502165Y103150D02*
Y144833D01*
X203498Y82122D02*
X208661Y76958D01*
X273110Y88189D02*
X274606Y86693D01*
Y85768D02*
Y86693D01*
X264567Y88189D02*
X273110D01*
X263386D02*
X264567D01*
X261917Y89657D02*
X263386Y88189D01*
X261917Y89657D02*
Y90377D01*
X260636Y91657D02*
X261917Y90377D01*
X247957Y91657D02*
X260636D01*
X244882Y88583D02*
X247957Y91657D01*
X243701Y88583D02*
X244882D01*
X254331Y100000D02*
X264567D01*
X101271Y99753D02*
X111507D01*
X742520Y55306D02*
Y59449D01*
X741732Y54519D02*
X742520Y55306D01*
X741732Y53937D02*
Y54519D01*
X661417Y98527D02*
X670039D01*
X659449Y100496D02*
X661417Y98527D01*
X670866Y99354D02*
Y102760D01*
X670039Y98527D02*
X670866Y99354D01*
X581598Y100000D02*
X583067Y98531D01*
X592605D01*
X593964Y99891D01*
Y102032D02*
X594197Y102264D01*
X111507Y99753D02*
X112835Y98425D01*
X113174Y98764D02*
X122995D01*
X123873Y99643D01*
Y101784D01*
X124106Y102016D01*
X264567Y100000D02*
X265555Y99012D01*
X276054D01*
X276933Y99891D01*
Y102032D01*
X277165Y102264D01*
X596988Y104637D02*
X597867Y105516D01*
X616169Y101969D02*
X618614Y99524D01*
Y99500D02*
Y99524D01*
Y99500D02*
X620083Y98031D01*
X620575D01*
X596756Y102264D02*
X596988Y102496D01*
Y104637D01*
X597867Y105516D02*
X605508D01*
X611520Y101969D02*
X616169D01*
X607972Y105516D02*
X611520Y101969D01*
X203346Y101870D02*
X203579Y102102D01*
Y104243D01*
X204457Y105122D01*
X214563D02*
X218110Y101575D01*
X225205Y99106D02*
X226673Y97638D01*
X227165D01*
X222760Y101575D02*
X225205Y99130D01*
X218110Y101575D02*
X222760D01*
X225205Y99106D02*
Y99130D01*
X126665Y102016D02*
X126897Y102249D01*
Y104390D01*
X127776Y105268D01*
X137881D02*
X141428Y101721D01*
X148523Y99253D02*
X149991Y97784D01*
X150484D01*
X146078Y101721D02*
X148523Y99276D01*
X141428Y101721D02*
X146078D01*
X148523Y99253D02*
Y99276D01*
X279724Y102264D02*
X279957Y102496D01*
Y104637D01*
X280835Y105516D01*
X288476D01*
X290941D02*
X294488Y101969D01*
X301583Y99500D02*
X303051Y98031D01*
X303543D01*
X299138Y101969D02*
X301583Y99524D01*
X294488Y101969D02*
X299138D01*
X301583Y99500D02*
Y99524D01*
X560732Y100394D02*
X561913D01*
X563382Y98925D01*
Y95574D02*
Y98925D01*
Y95574D02*
X563968Y94988D01*
X599315D01*
X611520Y90157D02*
X620575D01*
X611520Y90157D02*
X611520Y90157D01*
X599315Y94988D02*
X605508D01*
X599315D02*
Y102264D01*
X605508Y94988D02*
X610339Y90157D01*
X611520D01*
X640051Y96070D02*
Y99421D01*
X640637Y95484D02*
X675984D01*
X640051Y96070D02*
X640637Y95484D01*
X638583Y100890D02*
X640051Y99421D01*
X637402Y100890D02*
X638583D01*
X675984Y95484D02*
X682177D01*
X675984D02*
Y102760D01*
X687008Y90654D02*
X688189D01*
X682177Y95484D02*
X687008Y90654D01*
X688189D02*
X688189Y90654D01*
X697244D01*
X246350Y95574D02*
Y98925D01*
X246936Y94988D02*
X282283D01*
X246350Y95574D02*
X246936Y94988D01*
X244882Y100394D02*
X246350Y98925D01*
X243701Y100394D02*
X244882D01*
X282283Y94988D02*
X288476D01*
X282283D02*
Y102264D01*
X293307Y90157D02*
X294488D01*
X288476Y94988D02*
X293307Y90157D01*
X294488D02*
X294488Y90157D01*
X303543D01*
X169973Y95180D02*
Y98531D01*
X170558Y94594D02*
X205906D01*
X169973Y95180D02*
X170558Y94594D01*
X168504Y100000D02*
X169973Y98531D01*
X167323Y100000D02*
X168504D01*
X205906Y94594D02*
X212098D01*
X205906D02*
Y101870D01*
X216929Y89764D02*
X218110D01*
X212098Y94594D02*
X216929Y89764D01*
X218110D02*
X218110Y89764D01*
X227165D01*
X93291Y95327D02*
Y98678D01*
X93876Y94741D02*
X129224D01*
X93291Y95327D02*
X93876Y94741D01*
X91822Y100146D02*
X93291Y98678D01*
X90641Y100146D02*
X91822D01*
X129224Y94741D02*
X135417D01*
X129224D02*
Y102016D01*
X140247Y89910D02*
X141428D01*
X135417Y94741D02*
X140247Y89910D01*
X141428D02*
X141428Y89910D01*
X150484D01*
X561913Y88583D02*
X564988Y91657D01*
X560732Y88583D02*
X561913D01*
X577668Y91657D02*
X578949Y90377D01*
Y89657D02*
X580417Y88189D01*
X578949Y89657D02*
Y90377D01*
X564988Y91657D02*
X577668D01*
X580417Y88189D02*
X581598D01*
X590142D01*
X591638Y86693D01*
Y85768D02*
Y86693D01*
X638583Y89079D02*
X641657Y92154D01*
X637402Y89079D02*
X638583D01*
X654337Y92154D02*
X655618Y90873D01*
X641657Y92154D02*
X654337D01*
X655618Y90153D02*
Y90873D01*
X657087Y88685D02*
X658268D01*
X655618Y90153D02*
X657087Y88685D01*
X658268D02*
X666811D01*
X668307Y87189D01*
Y86264D02*
Y87189D01*
X168504Y88189D02*
X171579Y91264D01*
X167323Y88189D02*
X168504D01*
X184258Y91264D02*
X185539Y89983D01*
X171579Y91264D02*
X184258D01*
X185539Y89264D02*
Y89983D01*
X187008Y87795D02*
X188189D01*
X185539Y89264D02*
X187008Y87795D01*
X188189D02*
X196732D01*
X198228Y86299D01*
Y85374D02*
Y86299D01*
X91822Y88335D02*
X94897Y91410D01*
X90641Y88335D02*
X91822D01*
X107577Y91410D02*
X108858Y90129D01*
X94897Y91410D02*
X107577D01*
X108858Y89410D02*
Y90129D01*
X110326Y87942D02*
X111507D01*
X108858Y89410D02*
X110326Y87942D01*
X111507D02*
X120051D01*
X121546Y86446D01*
Y85520D02*
Y86446D01*
X594197Y81890D02*
Y85768D01*
X590260Y77953D02*
X594197Y81890D01*
X571362Y88189D02*
X572543D01*
X590260Y76772D02*
Y77953D01*
X581598Y79134D02*
X589079D01*
X590260Y77953D01*
X572543Y88189D02*
X581598Y79134D01*
X658268Y79630D02*
X665748D01*
X648032Y88685D02*
X649213D01*
X658268Y79630D01*
X666929Y77268D02*
Y78449D01*
X670866Y82386D01*
X665748Y79630D02*
X666929Y78449D01*
X670866Y82386D02*
Y86264D01*
X264567Y79134D02*
X272047D01*
X254331Y88189D02*
X255512D01*
X264567Y79134D01*
X273228Y76772D02*
Y77953D01*
X277165Y81890D01*
X272047Y79134D02*
X273228Y77953D01*
X277165Y81890D02*
Y85768D01*
X188189Y78740D02*
X195669D01*
X177953Y87795D02*
X179134D01*
X188189Y78740D01*
X196850Y76378D02*
Y77559D01*
X200787Y81496D01*
X195669Y78740D02*
X196850Y77559D01*
X200787Y81496D02*
Y85374D01*
X111507Y78887D02*
X118987D01*
X101271Y87942D02*
X102452D01*
X111507Y78887D01*
X120169Y76524D02*
Y77705D01*
X124106Y81642D01*
X118987Y78887D02*
X120169Y77705D01*
X124106Y81642D02*
Y85520D01*
X673425Y102760D02*
X673658Y102992D01*
Y105133D01*
X674536Y106012D01*
X682177D01*
X684642D02*
X688189Y102464D01*
X695284Y99996D02*
X696752Y98527D01*
X697244D01*
X692839Y102464D02*
X695284Y100020D01*
X688189Y102464D02*
X692839D01*
X695284Y99996D02*
Y100020D01*
X131980Y76524D02*
Y77705D01*
X130511Y79174D02*
X131980Y77705D01*
X129759Y79174D02*
X130511D01*
X126665Y82268D02*
X129759Y79174D01*
X126665Y82268D02*
Y85520D01*
X203346Y85374D02*
X203498Y85223D01*
Y82122D02*
Y85223D01*
X285039Y76772D02*
Y77953D01*
X281815Y81177D02*
X285039Y77953D01*
X279957Y82933D02*
Y85535D01*
X279724Y85768D02*
X279957Y85535D01*
X281713Y81177D02*
X281815D01*
X279957Y82933D02*
X281713Y81177D01*
X675516Y81673D02*
X678740Y78449D01*
X675413Y81673D02*
X675516D01*
X673658Y83429D02*
X675413Y81673D01*
X598846Y81177D02*
X602071Y77953D01*
X598744Y81177D02*
X598846D01*
X596988Y82933D02*
X598744Y81177D01*
X498425Y93405D02*
Y94094D01*
D41*
X197359Y103349D02*
X198228Y102480D01*
Y101870D02*
Y102480D01*
X197359Y103349D02*
Y106095D01*
X198228Y106964D02*
Y107283D01*
X197359Y106095D02*
X198228Y106964D01*
X591480Y102421D02*
Y103831D01*
X591408Y103903D02*
X591480Y103831D01*
X591408Y103903D02*
Y106049D01*
X592126Y106767D01*
Y107087D01*
X556299Y31496D02*
X564173D01*
X548425D02*
X553937Y25984D01*
X566536D02*
X572047Y31496D01*
X553937Y25984D02*
X566536D01*
X587795Y31496D02*
X595669D01*
X518504Y85039D02*
Y94094D01*
X518504Y94095D01*
X681158Y85012D02*
X681496Y84674D01*
X129224Y85520D02*
X133948D01*
X205906Y85374D02*
X211207D01*
X282283Y85768D02*
X286776D01*
X353937Y93701D02*
X353937Y93701D01*
X353937Y88189D02*
Y93701D01*
X599315Y85366D02*
Y85768D01*
Y85366D02*
X599642Y85039D01*
X604199D01*
X675984Y85338D02*
Y86264D01*
Y85338D02*
X676311Y85012D01*
X681158D01*
X668165Y102902D02*
Y106944D01*
X668023Y107087D02*
X668165Y106944D01*
X274531Y102339D02*
Y107012D01*
X274456Y107087D02*
X274531Y107012D01*
X121546Y102016D02*
X121600Y102070D01*
Y107033D01*
X121653Y107087D01*
X741732Y72047D02*
Y80709D01*
Y72047D02*
X742520Y71260D01*
X752392D01*
X754331Y69321D01*
Y68268D02*
Y69321D01*
D42*
X269803Y165354D02*
D03*
X587126D02*
D03*
X663504D02*
D03*
X193425D02*
D03*
X117047D02*
D03*
D43*
X603543Y39370D02*
D03*
X595669D02*
D03*
X587795D02*
D03*
X579921D02*
D03*
X572047D02*
D03*
X564173D02*
D03*
X556299D02*
D03*
X548425D02*
D03*
X603543Y31496D02*
D03*
X595669D02*
D03*
X587795D02*
D03*
X579921D02*
D03*
X572047D02*
D03*
X564173D02*
D03*
X556299D02*
D03*
D44*
X548425D02*
D03*
D45*
X827172Y167323D02*
D03*
X39770D02*
D03*
X433471D02*
D03*
D46*
X744882Y135827D02*
D03*
X351181Y155512D02*
D03*
X274803Y135827D02*
D03*
X198425D02*
D03*
X122047D02*
D03*
X515748Y155512D02*
D03*
X592126Y135827D02*
D03*
X668504D02*
D03*
X787402Y19685D02*
D03*
X78740D02*
D03*
D47*
X612205Y49213D02*
D03*
X741732Y80709D02*
D03*
D48*
X341339Y111417D02*
D03*
X506693D02*
D03*
X518504Y85039D02*
D03*
X681496Y84674D02*
D03*
X741732Y53937D02*
D03*
X211207Y85374D02*
D03*
X286776Y85768D02*
D03*
X353937Y88189D02*
D03*
X604199Y85039D02*
D03*
X668023Y107087D02*
D03*
X592126Y107087D02*
D03*
X274456Y107087D02*
D03*
X198228Y107283D02*
D03*
X121653Y107087D02*
D03*
X133948Y85520D02*
D03*
M02*
