M48
;Layer_Color=9474304
;FILE_FORMAT=2:5
INCH
;TYPE=PLATED
T01F00S00C0.01968
T02F00S00C0.02953
T03F00S00C0.03937
%
T01
X0133948Y0085520
X0121653Y0107087
X0198228Y0107284
X0211207Y0085374
X0286776Y0085768
X0274456Y0107087
X0341339Y0111417
X0353937Y0088189
X0518504Y0085039
X0506693Y0111417
X0592126Y0107087
X0604199Y0085039
X0681496Y0084674
X0668023Y0107087
X0741732Y0053937
T02
X0663504Y0165354
X0673504
X0597126
X0587126
X0279803
X0269803
X0203425
X0193425
X0127047
X0117047
T03
X0548425Y0031496
Y0039370
X0556299
X0564173
X0572047
X0579921
X0587795
X0595669
X0603543
Y0031496
X0595669
X0587795
X0579921
X0572047
X0564173
X0556299
X0612205Y0049213
X0741732Y0080709
M30
