G04*
G04 #@! TF.GenerationSoftware,Altium Limited,Altium Designer,24.3.1 (35)*
G04*
G04 Layer_Color=16711935*
%FSLAX25Y25*%
%MOIN*%
G70*
G04*
G04 #@! TF.SameCoordinates,4BCA059C-AF56-4B13-9012-704562AF90CC*
G04*
G04*
G04 #@! TF.FilePolarity,Negative*
G04*
G01*
G75*
%ADD32C,0.04737*%
%ADD33R,0.04737X0.04737*%
%ADD34C,0.06312*%
%ADD35R,0.06312X0.06312*%
%ADD36C,0.09461*%
%ADD37C,0.12611*%
%ADD38C,0.06706*%
%ADD39C,0.03950*%
D32*
X279803Y165354D02*
D03*
X597126D02*
D03*
X673504D02*
D03*
X203425D02*
D03*
X127047D02*
D03*
D33*
X269803D02*
D03*
X587126D02*
D03*
X663504D02*
D03*
X193425D02*
D03*
X117047D02*
D03*
D34*
X603543Y39370D02*
D03*
X595669D02*
D03*
X587795D02*
D03*
X579921D02*
D03*
X572047D02*
D03*
X564173D02*
D03*
X556299D02*
D03*
X548425D02*
D03*
X603543Y31496D02*
D03*
X595669D02*
D03*
X587795D02*
D03*
X579921D02*
D03*
X572047D02*
D03*
X564173D02*
D03*
X556299D02*
D03*
D35*
X548425D02*
D03*
D36*
X827172Y167323D02*
D03*
X39770D02*
D03*
X433471D02*
D03*
D37*
X744882Y135827D02*
D03*
X351181Y155512D02*
D03*
X274803Y135827D02*
D03*
X198425D02*
D03*
X122047D02*
D03*
X515748Y155512D02*
D03*
X592126Y135827D02*
D03*
X668504D02*
D03*
X787402Y19685D02*
D03*
X78740D02*
D03*
D38*
X612205Y49213D02*
D03*
X741732Y80709D02*
D03*
D39*
X341339Y111417D02*
D03*
X506693D02*
D03*
X518504Y85039D02*
D03*
X681496Y84674D02*
D03*
X741732Y53937D02*
D03*
X211207Y85374D02*
D03*
X286776Y85768D02*
D03*
X353937Y88189D02*
D03*
X604199Y85039D02*
D03*
X668023Y107087D02*
D03*
X592126Y107087D02*
D03*
X274456Y107087D02*
D03*
X198228Y107283D02*
D03*
X121653Y107087D02*
D03*
X133948Y85520D02*
D03*
M02*
