G04*
G04 #@! TF.GenerationSoftware,Altium Limited,Altium Designer,24.3.1 (35)*
G04*
G04 Layer_Physical_Order=2*
G04 Layer_Color=16711680*
%FSLAX25Y25*%
%MOIN*%
G70*
G04*
G04 #@! TF.SameCoordinates,4BCA059C-AF56-4B13-9012-704562AF90CC*
G04*
G04*
G04 #@! TF.FilePolarity,Positive*
G04*
G01*
G75*
%ADD22C,0.03937*%
%ADD40C,0.01000*%
%ADD41C,0.01968*%
%ADD42R,0.03937X0.03937*%
%ADD43C,0.05512*%
%ADD44R,0.05512X0.05512*%
%ADD45C,0.08661*%
%ADD46C,0.11811*%
%ADD47C,0.05906*%
%ADD48C,0.03150*%
G36*
X866142Y175591D02*
X866447Y175285D01*
X866142Y160999D01*
X865788Y160645D01*
X790158D01*
Y67716D01*
X772835Y50394D01*
X768504D01*
Y21654D01*
X539370D01*
Y45276D01*
X543096D01*
X543510Y44276D01*
X542073Y42839D01*
X541635Y42183D01*
X541481Y41409D01*
Y37332D01*
X541635Y36557D01*
X542073Y35901D01*
X544630Y33344D01*
Y33268D01*
X544669Y33072D01*
Y27740D01*
X552181D01*
Y29117D01*
X553181Y29385D01*
X553294Y29190D01*
X553993Y28491D01*
X554849Y27996D01*
X555799Y27742D01*
Y31496D01*
X556799D01*
Y27742D01*
X557749Y27996D01*
X558605Y28491D01*
X559305Y29190D01*
X559689Y29856D01*
X560236Y29962D01*
X560783Y29856D01*
X561168Y29190D01*
X561867Y28491D01*
X562723Y27996D01*
X563673Y27742D01*
Y31496D01*
X564673D01*
Y27742D01*
X565623Y27996D01*
X566479Y28491D01*
X567179Y29190D01*
X567563Y29856D01*
X568110Y29962D01*
X568657Y29856D01*
X569042Y29190D01*
X569741Y28491D01*
X570598Y27996D01*
X571553Y27740D01*
X572542D01*
X573497Y27996D01*
X574353Y28491D01*
X575053Y29190D01*
X575437Y29856D01*
X575984Y29962D01*
X576531Y29856D01*
X576916Y29190D01*
X577615Y28491D01*
X578472Y27996D01*
X579427Y27740D01*
X580416D01*
X581371Y27996D01*
X582227Y28491D01*
X582927Y29190D01*
X583311Y29856D01*
X583858Y29962D01*
X584405Y29856D01*
X584790Y29190D01*
X585489Y28491D01*
X586346Y27996D01*
X587295Y27742D01*
Y31496D01*
X588295D01*
Y27742D01*
X589245Y27996D01*
X590101Y28491D01*
X590801Y29190D01*
X591185Y29856D01*
X591732Y29962D01*
X592279Y29856D01*
X592664Y29190D01*
X593363Y28491D01*
X594220Y27996D01*
X595169Y27742D01*
Y31496D01*
X596169D01*
Y27742D01*
X597119Y27996D01*
X597975Y28491D01*
X598675Y29190D01*
X599059Y29856D01*
X599606Y29962D01*
X600153Y29856D01*
X600538Y29190D01*
X601237Y28491D01*
X602094Y27996D01*
X603049Y27740D01*
X604038D01*
X604993Y27996D01*
X605850Y28491D01*
X606549Y29190D01*
X607043Y30046D01*
X607299Y31002D01*
Y31991D01*
X607043Y32946D01*
X606549Y33802D01*
X605850Y34501D01*
X605184Y34886D01*
X605078Y35433D01*
X605184Y35980D01*
X605850Y36365D01*
X606549Y37064D01*
X607043Y37920D01*
X607299Y38876D01*
Y39865D01*
X607043Y40820D01*
X606549Y41676D01*
X605850Y42375D01*
X604993Y42870D01*
X604038Y43126D01*
X603049D01*
X602094Y42870D01*
X601237Y42375D01*
X600538Y41676D01*
X600153Y41010D01*
X599606Y40905D01*
X599059Y41010D01*
X598675Y41676D01*
X597975Y42375D01*
X597119Y42870D01*
X596164Y43126D01*
X595175D01*
X594220Y42870D01*
X593363Y42375D01*
X592664Y41676D01*
X592279Y41010D01*
X591732Y40905D01*
X591185Y41010D01*
X590801Y41676D01*
X590101Y42375D01*
X589245Y42870D01*
X588290Y43126D01*
X587301D01*
X586346Y42870D01*
X585489Y42375D01*
X584790Y41676D01*
X584405Y41010D01*
X583858Y40905D01*
X583311Y41010D01*
X582927Y41676D01*
X582227Y42375D01*
X581371Y42870D01*
X580416Y43126D01*
X579427D01*
X578472Y42870D01*
X577615Y42375D01*
X576916Y41676D01*
X576531Y41010D01*
X575984Y40905D01*
X575437Y41010D01*
X575053Y41676D01*
X574353Y42375D01*
X573497Y42870D01*
X572542Y43126D01*
X571553D01*
X570598Y42870D01*
X569741Y42375D01*
X569042Y41676D01*
X568657Y41010D01*
X568110Y40905D01*
X567563Y41010D01*
X567179Y41676D01*
X566479Y42375D01*
X565623Y42870D01*
X564668Y43126D01*
X563679D01*
X562723Y42870D01*
X561867Y42375D01*
X561168Y41676D01*
X560783Y41010D01*
X560236Y40905D01*
X559689Y41010D01*
X559305Y41676D01*
X558605Y42375D01*
X557749Y42870D01*
X556794Y43126D01*
X555805D01*
X554849Y42870D01*
X553993Y42375D01*
X553294Y41676D01*
X552909Y41010D01*
X552362Y40905D01*
X551815Y41010D01*
X551431Y41676D01*
X550731Y42375D01*
X549875Y42870D01*
X549163Y43061D01*
X548858Y43252D01*
X548433Y44126D01*
X548480Y44361D01*
Y45276D01*
X611626D01*
X611684Y45260D01*
X612725D01*
X612784Y45276D01*
X618110D01*
X620079Y63386D01*
X764567D01*
Y160645D01*
X520380D01*
X520150Y160876D01*
X519019Y161631D01*
X517762Y162152D01*
X516428Y162417D01*
X515068D01*
X513734Y162152D01*
X512477Y161631D01*
X511346Y160876D01*
X511116Y160645D01*
X402078D01*
X402362Y112992D01*
X503575D01*
X504181Y111992D01*
X504161Y111917D01*
X506693D01*
Y110917D01*
X504161D01*
X504181Y110843D01*
X503575Y109843D01*
X344457D01*
X343850Y110843D01*
X343870Y110917D01*
X341339D01*
Y111917D01*
X343870D01*
X343738Y112411D01*
X344330Y113386D01*
X396063D01*
X398031Y115354D01*
Y160645D01*
X355814D01*
X355583Y160876D01*
X354452Y161631D01*
X353195Y162152D01*
X351861Y162417D01*
X350501D01*
X349167Y162152D01*
X347910Y161631D01*
X346779Y160876D01*
X346549Y160645D01*
X0D01*
Y182419D01*
X461Y182610D01*
X866142D01*
Y175591D01*
D02*
G37*
%LPC*%
G36*
X666472Y168323D02*
X664004D01*
Y165854D01*
X666472D01*
Y168323D01*
D02*
G37*
G36*
X663004D02*
X660535D01*
Y165854D01*
X663004D01*
Y168323D01*
D02*
G37*
G36*
X590095D02*
X587626D01*
Y165854D01*
X590095D01*
Y168323D01*
D02*
G37*
G36*
X586626D02*
X584158D01*
Y165854D01*
X586626D01*
Y168323D01*
D02*
G37*
G36*
X272772D02*
X270303D01*
Y165854D01*
X272772D01*
Y168323D01*
D02*
G37*
G36*
X269303D02*
X266835D01*
Y165854D01*
X269303D01*
Y168323D01*
D02*
G37*
G36*
X196394D02*
X193925D01*
Y165854D01*
X196394D01*
Y168323D01*
D02*
G37*
G36*
X192925D02*
X190457D01*
Y165854D01*
X192925D01*
Y168323D01*
D02*
G37*
G36*
X120016D02*
X117547D01*
Y165854D01*
X120016D01*
Y168323D01*
D02*
G37*
G36*
X116547D02*
X114079D01*
Y165854D01*
X116547D01*
Y168323D01*
D02*
G37*
G36*
X673895D02*
X673113D01*
X672358Y168121D01*
X671681Y167730D01*
X671129Y167177D01*
X670738Y166500D01*
X670535Y165745D01*
Y164963D01*
X670738Y164208D01*
X671129Y163532D01*
X671681Y162979D01*
X672358Y162588D01*
X673113Y162386D01*
X673895D01*
X674650Y162588D01*
X675327Y162979D01*
X675879Y163532D01*
X676270Y164208D01*
X676472Y164963D01*
Y165745D01*
X676270Y166500D01*
X675879Y167177D01*
X675327Y167730D01*
X674650Y168121D01*
X673895Y168323D01*
D02*
G37*
G36*
X666472Y164854D02*
X664004D01*
Y162386D01*
X666472D01*
Y164854D01*
D02*
G37*
G36*
X663004D02*
X660535D01*
Y162386D01*
X663004D01*
Y164854D01*
D02*
G37*
G36*
X597517Y168323D02*
X596735D01*
X595980Y168121D01*
X595303Y167730D01*
X594751Y167177D01*
X594360Y166500D01*
X594158Y165745D01*
Y164963D01*
X594360Y164208D01*
X594751Y163532D01*
X595303Y162979D01*
X595980Y162588D01*
X596735Y162386D01*
X597517D01*
X598272Y162588D01*
X598949Y162979D01*
X599501Y163532D01*
X599892Y164208D01*
X600095Y164963D01*
Y165745D01*
X599892Y166500D01*
X599501Y167177D01*
X598949Y167730D01*
X598272Y168121D01*
X597517Y168323D01*
D02*
G37*
G36*
X590095Y164854D02*
X587626D01*
Y162386D01*
X590095D01*
Y164854D01*
D02*
G37*
G36*
X586626D02*
X584158D01*
Y162386D01*
X586626D01*
Y164854D01*
D02*
G37*
G36*
X280194Y168323D02*
X279412D01*
X278657Y168121D01*
X277980Y167730D01*
X277428Y167177D01*
X277037Y166500D01*
X276835Y165745D01*
Y164963D01*
X277037Y164208D01*
X277428Y163532D01*
X277980Y162979D01*
X278657Y162588D01*
X279412Y162386D01*
X280194D01*
X280949Y162588D01*
X281626Y162979D01*
X282178Y163532D01*
X282569Y164208D01*
X282772Y164963D01*
Y165745D01*
X282569Y166500D01*
X282178Y167177D01*
X281626Y167730D01*
X280949Y168121D01*
X280194Y168323D01*
D02*
G37*
G36*
X272772Y164854D02*
X270303D01*
Y162386D01*
X272772D01*
Y164854D01*
D02*
G37*
G36*
X269303D02*
X266835D01*
Y162386D01*
X269303D01*
Y164854D01*
D02*
G37*
G36*
X203816Y168323D02*
X203034D01*
X202279Y168121D01*
X201603Y167730D01*
X201050Y167177D01*
X200659Y166500D01*
X200457Y165745D01*
Y164963D01*
X200659Y164208D01*
X201050Y163532D01*
X201603Y162979D01*
X202279Y162588D01*
X203034Y162386D01*
X203816D01*
X204571Y162588D01*
X205248Y162979D01*
X205801Y163532D01*
X206191Y164208D01*
X206394Y164963D01*
Y165745D01*
X206191Y166500D01*
X205801Y167177D01*
X205248Y167730D01*
X204571Y168121D01*
X203816Y168323D01*
D02*
G37*
G36*
X196394Y164854D02*
X193925D01*
Y162386D01*
X196394D01*
Y164854D01*
D02*
G37*
G36*
X192925D02*
X190457D01*
Y162386D01*
X192925D01*
Y164854D01*
D02*
G37*
G36*
X127438Y168323D02*
X126656D01*
X125901Y168121D01*
X125224Y167730D01*
X124672Y167177D01*
X124281Y166500D01*
X124079Y165745D01*
Y164963D01*
X124281Y164208D01*
X124672Y163532D01*
X125224Y162979D01*
X125901Y162588D01*
X126656Y162386D01*
X127438D01*
X128193Y162588D01*
X128870Y162979D01*
X129423Y163532D01*
X129813Y164208D01*
X130016Y164963D01*
Y165745D01*
X129813Y166500D01*
X129423Y167177D01*
X128870Y167730D01*
X128193Y168121D01*
X127438Y168323D01*
D02*
G37*
G36*
X120016Y164854D02*
X117547D01*
Y162386D01*
X120016D01*
Y164854D01*
D02*
G37*
G36*
X116547D02*
X114079D01*
Y162386D01*
X116547D01*
Y164854D01*
D02*
G37*
G36*
X827874Y172653D02*
X826470D01*
X825114Y172290D01*
X823899Y171588D01*
X822906Y170596D01*
X822204Y169380D01*
X821841Y168025D01*
Y166621D01*
X822204Y165265D01*
X822906Y164050D01*
X823899Y163057D01*
X825114Y162355D01*
X826470Y161992D01*
X827874D01*
X829229Y162355D01*
X830445Y163057D01*
X831437Y164050D01*
X832139Y165265D01*
X832502Y166621D01*
Y168025D01*
X832139Y169380D01*
X831437Y170596D01*
X830445Y171588D01*
X829229Y172290D01*
X827874Y172653D01*
D02*
G37*
G36*
X434173D02*
X432769D01*
X431413Y172290D01*
X430198Y171588D01*
X429205Y170596D01*
X428503Y169380D01*
X428140Y168025D01*
Y166621D01*
X428503Y165265D01*
X429205Y164050D01*
X430198Y163057D01*
X431413Y162355D01*
X432769Y161992D01*
X434173D01*
X435528Y162355D01*
X436744Y163057D01*
X437737Y164050D01*
X438438Y165265D01*
X438802Y166621D01*
Y168025D01*
X438438Y169380D01*
X437737Y170596D01*
X436744Y171588D01*
X435528Y172290D01*
X434173Y172653D01*
D02*
G37*
G36*
X40472D02*
X39068D01*
X37712Y172290D01*
X36497Y171588D01*
X35504Y170596D01*
X34803Y169380D01*
X34439Y168025D01*
Y166621D01*
X34803Y165265D01*
X35504Y164050D01*
X36497Y163057D01*
X37712Y162355D01*
X39068Y161992D01*
X40472D01*
X41828Y162355D01*
X43043Y163057D01*
X44036Y164050D01*
X44737Y165265D01*
X45101Y166621D01*
Y168025D01*
X44737Y169380D01*
X44036Y170596D01*
X43043Y171588D01*
X41828Y172290D01*
X40472Y172653D01*
D02*
G37*
G36*
X742232Y56469D02*
Y54437D01*
X744264D01*
X744132Y54931D01*
X743793Y55518D01*
X743313Y55997D01*
X742726Y56336D01*
X742232Y56469D01*
D02*
G37*
G36*
X741232D02*
X740738Y56336D01*
X740151Y55997D01*
X739672Y55518D01*
X739333Y54931D01*
X739201Y54437D01*
X741232D01*
Y56469D01*
D02*
G37*
G36*
X744264Y53437D02*
X742232D01*
Y51405D01*
X742726Y51538D01*
X743313Y51877D01*
X743793Y52356D01*
X744132Y52943D01*
X744264Y53437D01*
D02*
G37*
G36*
X741232D02*
X739201D01*
X739333Y52943D01*
X739672Y52356D01*
X740151Y51877D01*
X740738Y51538D01*
X741232Y51405D01*
Y53437D01*
D02*
G37*
%LPD*%
D22*
X279803Y165354D02*
D03*
X597126D02*
D03*
X673504D02*
D03*
X203425D02*
D03*
X127047D02*
D03*
D40*
X337007Y176378D02*
X341732D01*
X341779Y176425D01*
D41*
X211541Y85039D02*
X353937D01*
X546654Y33268D02*
X547968Y31953D01*
X543504Y37332D02*
X546654Y34182D01*
X547968Y31953D02*
X548882D01*
Y31039D02*
Y31953D01*
X546654Y33268D02*
Y34182D01*
X604199Y85039D02*
X666401D01*
X546457Y44361D02*
Y85039D01*
X543504Y37332D02*
Y41409D01*
X546457Y44361D01*
X353937Y85039D02*
X518504D01*
X546457D01*
X604199D01*
X720889Y81080D02*
X741361D01*
X741732Y80709D01*
X694882Y107087D02*
X720889Y81080D01*
X666401Y84674D02*
X681496D01*
X668023Y107087D02*
X694882D01*
X592126D02*
X668023D01*
X211207Y85374D02*
X211541Y85039D01*
X286776Y85768D02*
X287008Y85535D01*
X133858Y85039D02*
X211541D01*
X353937D02*
Y88189D01*
X590945Y107087D02*
X592126D01*
X590945D02*
X592126Y107087D01*
X274456Y107087D02*
X274606D01*
X590945Y107087D01*
X198031Y107087D02*
X198228Y107283D01*
X198031Y107087D02*
X274606Y107087D01*
X121653Y107087D02*
X198031Y107087D01*
D42*
X269803Y165354D02*
D03*
X587126D02*
D03*
X663504D02*
D03*
X193425D02*
D03*
X117047D02*
D03*
D43*
X603543Y39370D02*
D03*
X595669D02*
D03*
X587795D02*
D03*
X579921D02*
D03*
X572047D02*
D03*
X564173D02*
D03*
X556299D02*
D03*
X548425D02*
D03*
X603543Y31496D02*
D03*
X595669D02*
D03*
X587795D02*
D03*
X579921D02*
D03*
X572047D02*
D03*
X564173D02*
D03*
X556299D02*
D03*
D44*
X548425D02*
D03*
D45*
X827172Y167323D02*
D03*
X39770D02*
D03*
X433471D02*
D03*
D46*
X744882Y135827D02*
D03*
X351181Y155512D02*
D03*
X274803Y135827D02*
D03*
X198425D02*
D03*
X122047D02*
D03*
X515748Y155512D02*
D03*
X592126Y135827D02*
D03*
X668504D02*
D03*
X787402Y19685D02*
D03*
X78740D02*
D03*
D47*
X612205Y49213D02*
D03*
X741732Y80709D02*
D03*
D48*
X341339Y111417D02*
D03*
X506693D02*
D03*
X518504Y85039D02*
D03*
X681496Y84674D02*
D03*
X741732Y53937D02*
D03*
X211207Y85374D02*
D03*
X286776Y85768D02*
D03*
X353937Y88189D02*
D03*
X604199Y85039D02*
D03*
X668023Y107087D02*
D03*
X592126Y107087D02*
D03*
X274456Y107087D02*
D03*
X198228Y107283D02*
D03*
X121653Y107087D02*
D03*
X133948Y85520D02*
D03*
M02*
