ISO-10303-21;
HEADER;
FILE_DESCRIPTION (( 'STEP AP203' ),
    '1' );
FILE_NAME ('711341.104 ראיבא.STEP',
    '2026-01-12T12:10:08',
    ( '' ),
    ( '' ),
    'SwSTEP 2.0',
    'SolidWorks 2022',
    '' );
FILE_SCHEMA (( 'CONFIG_CONTROL_DESIGN' ));
ENDSEC;

DATA;
#1 = CARTESIAN_POINT ( 'NONE',  ( 0.000000000000000000, 0.000000000000000000, 0.000000000000000000 ) ) ;
#2 = AXIS2_PLACEMENT_3D ( 'NONE', #112, #170, #39 ) ;
#3 = DIRECTION ( 'NONE',  ( 0.000000000000000000, 0.000000000000000000, 1.000000000000000000 ) ) ;
#4 = ORGANIZATION ( 'UNSPECIFIED', 'UNSPECIFIED', '' ) ;
#5 = ORIENTED_EDGE ( 'NONE', *, *, #79, .T. ) ;
#6 = CIRCLE ( 'NONE', #319, 7.000000000000000000 ) ;
#7 = CC_DESIGN_DATE_AND_TIME_ASSIGNMENT ( #193, #167, ( #19 ) ) ;
#8 = CALENDAR_DATE ( 2026, 12, 1 ) ;
#9 = ORIENTED_EDGE ( 'NONE', *, *, #172, .F. ) ;
#10 = EDGE_CURVE ( 'NONE', #28, #309, #220, .T. ) ;
#11 =( NAMED_UNIT ( * ) SI_UNIT ( $, .STERADIAN. ) SOLID_ANGLE_UNIT ( ) );
#12 = VERTEX_POINT ( 'NONE', #324 ) ;
#13 =( LENGTH_UNIT ( ) NAMED_UNIT ( * ) SI_UNIT ( .MILLI., .METRE. ) );
#14 = ORIENTED_EDGE ( 'NONE', *, *, #222, .T. ) ;
#15 = VECTOR ( 'NONE', #251, 1000.000000000000000 ) ;
#16 = FACE_OUTER_BOUND ( 'NONE', #317, .T. ) ;
#17 = CARTESIAN_POINT ( 'NONE',  ( 0.000000000000000000, 2.200000000000000178, 0.000000000000000000 ) ) ;
#18 = DIRECTION ( 'NONE',  ( 0.000000000000000000, 1.000000000000000000, 0.000000000000000000 ) ) ;
#19 = SECURITY_CLASSIFICATION ( '', '', #171 ) ;
#20 = CIRCLE ( 'NONE', #182, 2.250000000000000000 ) ;
#21 = DIRECTION ( 'NONE',  ( 0.000000000000000000, -1.000000000000000000, 0.000000000000000000 ) ) ;
#22 = EDGE_CURVE ( 'NONE', #158, #299, #71, .T. ) ;
#23 = CARTESIAN_POINT ( 'NONE',  ( 0.000000000000000000, 0.6999999999999999556, -4.000000000000000000 ) ) ;
#24 = PRODUCT_DEFINITION_SHAPE ( 'NONE', 'NONE',  #238 ) ;
#25 = FACE_OUTER_BOUND ( 'NONE', #80, .T. ) ;
#26 = LINE ( 'NONE', #23, #44 ) ;
#27 = COORDINATED_UNIVERSAL_TIME_OFFSET ( 3, 0, .AHEAD. ) ;
#28 = VERTEX_POINT ( 'NONE', #291 ) ;
#29 = EDGE_LOOP ( 'NONE', ( #207, #188 ) ) ;
#30 = CIRCLE ( 'NONE', #155, 4.000000000000000000 ) ;
#31 = EDGE_LOOP ( 'NONE', ( #255, #229, #67, #168 ) ) ;
#32 = EDGE_LOOP ( 'NONE', ( #244, #194 ) ) ;
#33 = APPROVAL_ROLE ( '' ) ;
#34 = ORIENTED_EDGE ( 'NONE', *, *, #263, .F. ) ;
#35 = CC_DESIGN_APPROVAL ( #131, ( #238 ) ) ;
#36 = CIRCLE ( 'NONE', #266, 2.250000000000000000 ) ;
#37 = DIRECTION ( 'NONE',  ( -0.000000000000000000, -1.000000000000000000, -0.000000000000000000 ) ) ;
#38 = AXIS2_PLACEMENT_3D ( 'NONE', #163, #198, #65 ) ;
#39 = DIRECTION ( 'NONE',  ( 0.000000000000000000, 0.000000000000000000, 1.000000000000000000 ) ) ;
#40 = APPROVAL_ROLE ( '' ) ;
#41 = CARTESIAN_POINT ( 'NONE',  ( 0.000000000000000000, 2.200000000000000178, 0.000000000000000000 ) ) ;
#42 = FACE_OUTER_BOUND ( 'NONE', #241, .T. ) ;
#43 = APPROVAL_PERSON_ORGANIZATION ( #272, #157, #195 ) ;
#44 = VECTOR ( 'NONE', #226, 1000.000000000000000 ) ;
#45 = ADVANCED_FACE ( 'NONE', ( #42 ), #315, .T. ) ;
#46 = DIRECTION ( 'NONE',  ( 0.000000000000000000, 0.000000000000000000, -1.000000000000000000 ) ) ;
#47 = CARTESIAN_POINT ( 'NONE',  ( 0.000000000000000000, 0.000000000000000000, 0.000000000000000000 ) ) ;
#48 = DIRECTION ( 'NONE',  ( 0.000000000000000000, 0.000000000000000000, 1.000000000000000000 ) ) ;
#49 = AXIS2_PLACEMENT_3D ( 'NONE', #88, #144, #46 ) ;
#50 = DIRECTION ( 'NONE',  ( -0.000000000000000000, 1.000000000000000000, -0.000000000000000000 ) ) ;
#51 = PLANE ( 'NONE',  #257 ) ;
#52 = DIRECTION ( 'NONE',  ( 0.000000000000000000, -1.000000000000000000, 0.000000000000000000 ) ) ;
#53 = FACE_OUTER_BOUND ( 'NONE', #286, .T. ) ;
#54 = ORIENTED_EDGE ( 'NONE', *, *, #83, .F. ) ;
#55 = EDGE_CURVE ( 'NONE', #309, #102, #20, .T. ) ;
#56 = ORIENTED_EDGE ( 'NONE', *, *, #93, .T. ) ;
#57 = CALENDAR_DATE ( 2026, 12, 1 ) ;
#58 = VERTEX_POINT ( 'NONE', #196 ) ;
#59 = PERSON_AND_ORGANIZATION ( #259, #4 ) ;
#60 = APPROVAL_DATE_TIME ( #189, #146 ) ;
#61 = PLANE ( 'NONE',  #38 ) ;
#62 = CIRCLE ( 'NONE', #2, 7.000000000000000000 ) ;
#63 = EDGE_LOOP ( 'NONE', ( #209, #269, #234, #129 ) ) ;
#64 = COORDINATED_UNIVERSAL_TIME_OFFSET ( 3, 0, .AHEAD. ) ;
#65 = DIRECTION ( 'NONE',  ( 0.000000000000000000, -0.000000000000000000, -1.000000000000000000 ) ) ;
#66 = ADVANCED_FACE ( 'NONE', ( #240, #16 ), #61, .T. ) ;
#67 = ORIENTED_EDGE ( 'NONE', *, *, #10, .T. ) ;
#68 = DIRECTION ( 'NONE',  ( 0.000000000000000000, 1.000000000000000000, 0.000000000000000000 ) ) ;
#69 = CARTESIAN_POINT ( 'NONE',  ( 0.000000000000000000, 0.7000000000000000666, -7.000000000000000000 ) ) ;
#70 = DIRECTION ( 'NONE',  ( 0.000000000000000000, 1.000000000000000000, 0.000000000000000000 ) ) ;
#71 = CIRCLE ( 'NONE', #78, 7.000000000000000000 ) ;
#72 = CARTESIAN_POINT ( 'NONE',  ( 0.000000000000000000, 2.200000000000000178, 0.000000000000000000 ) ) ;
#73 = DIRECTION ( 'NONE',  ( 0.000000000000000000, 0.000000000000000000, -1.000000000000000000 ) ) ;
#74 = CC_DESIGN_PERSON_AND_ORGANIZATION_ASSIGNMENT ( #165, #161, ( #134 ) ) ;
#75 = CARTESIAN_POINT ( 'NONE',  ( 0.000000000000000000, 2.200000000000000178, 0.000000000000000000 ) ) ;
#76 = PRODUCT ( '711341.104 ראיבא', '711341.104 ראיבא', '', ( #253 ) ) ;
#77 = AXIS2_PLACEMENT_3D ( 'NONE', #75, #37, #211 ) ;
#78 = AXIS2_PLACEMENT_3D ( 'NONE', #17, #135, #111 ) ;
#79 = EDGE_CURVE ( 'NONE', #12, #212, #310, .T. ) ;
#80 = EDGE_LOOP ( 'NONE', ( #5, #14, #9, #128 ) ) ;
#81 = CLOSED_SHELL ( 'NONE', ( #184, #295, #100, #328, #104, #66, #45, #206, #139 ) ) ;
#82 = ORIENTED_EDGE ( 'NONE', *, *, #263, .T. ) ;
#83 = EDGE_CURVE ( 'NONE', #299, #158, #62, .T. ) ;
#84 = DIRECTION ( 'NONE',  ( 0.000000000000000000, 0.000000000000000000, 1.000000000000000000 ) ) ;
#85 = ORIENTED_EDGE ( 'NONE', *, *, #55, .F. ) ;
#86 = LOCAL_TIME ( 15, 10, 8.000000000000000000, #133 ) ;
#87 = ORIENTED_EDGE ( 'NONE', *, *, #325, .T. ) ;
#88 = CARTESIAN_POINT ( 'NONE',  ( 0.000000000000000000, 0.6999999999999999556, 0.000000000000000000 ) ) ;
#89 = COORDINATED_UNIVERSAL_TIME_OFFSET ( 3, 0, .AHEAD. ) ;
#90 = VERTEX_POINT ( 'NONE', #215 ) ;
#91 = CC_DESIGN_SECURITY_CLASSIFICATION ( #19, ( #134 ) ) ;
#92 = DIRECTION ( 'NONE',  ( 0.000000000000000000, -0.000000000000000000, 1.000000000000000000 ) ) ;
#93 = EDGE_CURVE ( 'NONE', #158, #214, #294, .T. ) ;
#94 = CARTESIAN_POINT ( 'NONE',  ( 2.755455298081544285E-16, 0.000000000000000000, -2.250000000000000000 ) ) ;
#95 = DIRECTION ( 'NONE',  ( 0.000000000000000000, 0.000000000000000000, 1.000000000000000000 ) ) ;
#96 = AXIS2_PLACEMENT_3D ( 'NONE', #307, #236, #156 ) ;
#97 = FACE_OUTER_BOUND ( 'NONE', #31, .T. ) ;
#98 = DIRECTION ( 'NONE',  ( 0.000000000000000000, 1.000000000000000000, 0.000000000000000000 ) ) ;
#99 = ORIENTED_EDGE ( 'NONE', *, *, #22, .T. ) ;
#100 = ADVANCED_FACE ( 'NONE', ( #108 ), #166, .T. ) ;
#101 = AXIS2_PLACEMENT_3D ( 'NONE', #301, #50, #225 ) ;
#102 = VERTEX_POINT ( 'NONE', #201 ) ;
#103 = APPROVAL_DATE_TIME ( #289, #131 ) ;
#104 = ADVANCED_FACE ( 'NONE', ( #252, #282 ), #51, .T. ) ;
#105 = DIRECTION ( 'NONE',  ( 0.000000000000000000, 0.000000000000000000, -1.000000000000000000 ) ) ;
#106 = ORIENTED_EDGE ( 'NONE', *, *, #22, .F. ) ;
#107 = DIRECTION ( 'NONE',  ( 0.000000000000000000, -1.000000000000000000, 0.000000000000000000 ) ) ;
#108 = FACE_OUTER_BOUND ( 'NONE', #322, .T. ) ;
#109 = DIRECTION ( 'NONE',  ( 1.000000000000000000, 0.000000000000000000, 0.000000000000000000 ) ) ;
#110 = EDGE_CURVE ( 'NONE', #299, #90, #250, .T. ) ;
#111 = DIRECTION ( 'NONE',  ( 0.000000000000000000, 0.000000000000000000, 1.000000000000000000 ) ) ;
#112 = CARTESIAN_POINT ( 'NONE',  ( 0.000000000000000000, 2.200000000000000178, 0.000000000000000000 ) ) ;
#113 = DIRECTION ( 'NONE',  ( -0.000000000000000000, -1.000000000000000000, -0.000000000000000000 ) ) ;
#114 = SHAPE_DEFINITION_REPRESENTATION ( #24, #197 ) ;
#115 = CARTESIAN_POINT ( 'NONE',  ( 0.000000000000000000, 0.6999999999999999556, 0.000000000000000000 ) ) ;
#116 = CC_DESIGN_PERSON_AND_ORGANIZATION_ASSIGNMENT ( #321, #219, ( #19 ) ) ;
#117 = CIRCLE ( 'NONE', #127, 4.000000000000000000 ) ;
#118 = APPROVAL_PERSON_ORGANIZATION ( #59, #131, #40 ) ;
#119 = DIRECTION ( 'NONE',  ( 0.000000000000000000, 0.000000000000000000, -1.000000000000000000 ) ) ;
#120 = CARTESIAN_POINT ( 'NONE',  ( 0.000000000000000000, 0.000000000000000000, 0.000000000000000000 ) ) ;
#121 = EDGE_CURVE ( 'NONE', #102, #309, #284, .T. ) ;
#122 = FACE_OUTER_BOUND ( 'NONE', #233, .T. ) ;
#123 = CIRCLE ( 'NONE', #203, 2.250000000000000000 ) ;
#124 = LINE ( 'NONE', #276, #149 ) ;
#125 = CALENDAR_DATE ( 2026, 12, 1 ) ;
#126 = EDGE_CURVE ( 'NONE', #212, #12, #275, .T. ) ;
#127 = AXIS2_PLACEMENT_3D ( 'NONE', #1, #52, #180 ) ;
#128 = ORIENTED_EDGE ( 'NONE', *, *, #232, .F. ) ;
#129 = ORIENTED_EDGE ( 'NONE', *, *, #10, .F. ) ;
#130 = APPLICATION_PROTOCOL_DEFINITION ( 'international standard', 'config_control_design', 1994, #256 ) ;
#131 = APPROVAL ( #186, 'UNSPECIFIED' ) ;
#132 = VERTEX_POINT ( 'NONE', #200 ) ;
#133 = COORDINATED_UNIVERSAL_TIME_OFFSET ( 3, 0, .AHEAD. ) ;
#134 = PRODUCT_DEFINITION_FORMATION_WITH_SPECIFIED_SOURCE ( 'ANY', '', #76, .NOT_KNOWN. ) ;
#135 = DIRECTION ( 'NONE',  ( 0.000000000000000000, 1.000000000000000000, 0.000000000000000000 ) ) ;
#136 = AXIS2_PLACEMENT_3D ( 'NONE', #304, #68, #48 ) ;
#137 =( NAMED_UNIT ( * ) PLANE_ANGLE_UNIT ( ) SI_UNIT ( $, .RADIAN. ) );
#138 = DIRECTION ( 'NONE',  ( -0.000000000000000000, -1.000000000000000000, -0.000000000000000000 ) ) ;
#139 = ADVANCED_FACE ( 'NONE', ( #97 ), #281, .F. ) ;
#140 = COORDINATED_UNIVERSAL_TIME_OFFSET ( 3, 0, .AHEAD. ) ;
#141 = CARTESIAN_POINT ( 'NONE',  ( 0.000000000000000000, 2.200000000000000178, 0.000000000000000000 ) ) ;
#142 = APPROVAL_STATUS ( 'not_yet_approved' ) ;
#143 = DIRECTION ( 'NONE',  ( 0.000000000000000000, 0.000000000000000000, -1.000000000000000000 ) ) ;
#144 = DIRECTION ( 'NONE',  ( -0.000000000000000000, -1.000000000000000000, -0.000000000000000000 ) ) ;
#145 = DIRECTION ( 'NONE',  ( -0.000000000000000000, 1.000000000000000000, -0.000000000000000000 ) ) ;
#146 = APPROVAL ( #316, 'UNSPECIFIED' ) ;
#147 = CARTESIAN_POINT ( 'NONE',  ( 0.000000000000000000, 2.200000000000000178, -7.000000000000000000 ) ) ;
#148 =( GEOMETRIC_REPRESENTATION_CONTEXT ( 3 ) GLOBAL_UNCERTAINTY_ASSIGNED_CONTEXT ( ( #302 ) ) GLOBAL_UNIT_ASSIGNED_CONTEXT ( ( #13, #137, #11 ) ) REPRESENTATION_CONTEXT ( 'NONE', 'WORKASPACE' ) );
#149 = VECTOR ( 'NONE', #176, 1000.000000000000000 ) ;
#150 = FACE_OUTER_BOUND ( 'NONE', #63, .T. ) ;
#151 = DIRECTION ( 'NONE',  ( 0.000000000000000000, -0.000000000000000000, 1.000000000000000000 ) ) ;
#152 = CARTESIAN_POINT ( 'NONE',  ( 0.000000000000000000, 0.000000000000000000, 0.000000000000000000 ) ) ;
#153 = AXIS2_PLACEMENT_3D ( 'NONE', #141, #113, #73 ) ;
#154 = CYLINDRICAL_SURFACE ( 'NONE', #77, 7.000000000000000000 ) ;
#155 = AXIS2_PLACEMENT_3D ( 'NONE', #47, #278, #119 ) ;
#156 = DIRECTION ( 'NONE',  ( 0.000000000000000000, 0.000000000000000000, -1.000000000000000000 ) ) ;
#157 = APPROVAL ( #142, 'UNSPECIFIED' ) ;
#158 = VERTEX_POINT ( 'NONE', #147 ) ;
#159 = PERSON_AND_ORGANIZATION ( #259, #4 ) ;
#160 = EDGE_LOOP ( 'NONE', ( #99, #254 ) ) ;
#161 = PERSON_AND_ORGANIZATION_ROLE ( 'creator' ) ;
#162 = AXIS2_PLACEMENT_3D ( 'NONE', #239, #181, #109 ) ;
#163 = CARTESIAN_POINT ( 'NONE',  ( 0.000000000000000000, 0.6999999999999999556, 0.000000000000000000 ) ) ;
#164 = CC_DESIGN_DATE_AND_TIME_ASSIGNMENT ( #228, #210, ( #238 ) ) ;
#165 = PERSON_AND_ORGANIZATION ( #259, #4 ) ;
#166 = CYLINDRICAL_SURFACE ( 'NONE', #153, 7.000000000000000000 ) ;
#167 = DATE_TIME_ROLE ( 'classification_date' ) ;
#168 = ORIENTED_EDGE ( 'NONE', *, *, #55, .T. ) ;
#169 = APPLICATION_CONTEXT ( 'configuration controlled 3d designs of mechanical parts and assemblies' ) ;
#170 = DIRECTION ( 'NONE',  ( 0.000000000000000000, 1.000000000000000000, 0.000000000000000000 ) ) ;
#171 = SECURITY_CLASSIFICATION_LEVEL ( 'unclassified' ) ;
#172 = EDGE_CURVE ( 'NONE', #58, #132, #117, .T. ) ;
#173 = CYLINDRICAL_SURFACE ( 'NONE', #306, 2.250000000000000000 ) ;
#174 = DATE_AND_TIME ( #318, #208 ) ;
#175 = DIRECTION ( 'NONE',  ( 0.000000000000000000, 0.000000000000000000, -1.000000000000000000 ) ) ;
#176 = DIRECTION ( 'NONE',  ( -0.000000000000000000, -1.000000000000000000, -0.000000000000000000 ) ) ;
#177 = CC_DESIGN_PERSON_AND_ORGANIZATION_ASSIGNMENT ( #159, #283, ( #238 ) ) ;
#178 = AXIS2_PLACEMENT_3D ( 'NONE', #267, #217, #143 ) ;
#179 = DIRECTION ( 'NONE',  ( 0.000000000000000000, 0.000000000000000000, -1.000000000000000000 ) ) ;
#180 = DIRECTION ( 'NONE',  ( 0.000000000000000000, 0.000000000000000000, -1.000000000000000000 ) ) ;
#181 = DIRECTION ( 'NONE',  ( 0.000000000000000000, 0.000000000000000000, 1.000000000000000000 ) ) ;
#182 = AXIS2_PLACEMENT_3D ( 'NONE', #41, #192, #84 ) ;
#183 = EDGE_CURVE ( 'NONE', #314, #28, #36, .T. ) ;
#184 = ADVANCED_FACE ( 'NONE', ( #150 ), #173, .F. ) ;
#185 = ORIENTED_EDGE ( 'NONE', *, *, #242, .F. ) ;
#186 = APPROVAL_STATUS ( 'not_yet_approved' ) ;
#187 = MANIFOLD_SOLID_BREP ( 'ֲûנוח-ֲûעÿםףעü2', #81 ) ;
#188 = ORIENTED_EDGE ( 'NONE', *, *, #183, .T. ) ;
#189 = DATE_AND_TIME ( #8, #86 ) ;
#190 = ORIENTED_EDGE ( 'NONE', *, *, #93, .F. ) ;
#191 = PERSON_AND_ORGANIZATION ( #259, #4 ) ;
#192 = DIRECTION ( 'NONE',  ( 0.000000000000000000, 1.000000000000000000, 0.000000000000000000 ) ) ;
#193 = DATE_AND_TIME ( #323, #199 ) ;
#194 = ORIENTED_EDGE ( 'NONE', *, *, #126, .F. ) ;
#195 = APPROVAL_ROLE ( '' ) ;
#196 = CARTESIAN_POINT ( 'NONE',  ( 0.000000000000000000, 0.000000000000000000, -4.000000000000000000 ) ) ;
#197 = ADVANCED_BREP_SHAPE_REPRESENTATION ( '711341.104 °נשסנ', ( #187, #162 ), #148 ) ;
#198 = DIRECTION ( 'NONE',  ( 0.000000000000000000, -1.000000000000000000, 0.000000000000000000 ) ) ;
#199 = LOCAL_TIME ( 15, 10, 8.000000000000000000, #89 ) ;
#200 = CARTESIAN_POINT ( 'NONE',  ( 4.898587196589412829E-16, 0.000000000000000000, 4.000000000000000000 ) ) ;
#201 = CARTESIAN_POINT ( 'NONE',  ( 2.755455298081544285E-16, 2.200000000000000178, -2.250000000000000000 ) ) ;
#202 = DIRECTION ( 'NONE',  ( 0.000000000000000000, -1.000000000000000000, 0.000000000000000000 ) ) ;
#203 = AXIS2_PLACEMENT_3D ( 'NONE', #120, #329, #95 ) ;
#204 = CYLINDRICAL_SURFACE ( 'NONE', #96, 4.000000000000000000 ) ;
#205 = CARTESIAN_POINT ( 'NONE',  ( 0.000000000000000000, 0.000000000000000000, 0.000000000000000000 ) ) ;
#206 = ADVANCED_FACE ( 'NONE', ( #247, #122 ), #223, .F. ) ;
#207 = ORIENTED_EDGE ( 'NONE', *, *, #279, .T. ) ;
#208 = LOCAL_TIME ( 15, 10, 8.000000000000000000, #64 ) ;
#209 = ORIENTED_EDGE ( 'NONE', *, *, #183, .F. ) ;
#210 = DATE_TIME_ROLE ( 'creation_date' ) ;
#211 = DIRECTION ( 'NONE',  ( 0.000000000000000000, 0.000000000000000000, -1.000000000000000000 ) ) ;
#212 = VERTEX_POINT ( 'NONE', #221 ) ;
#213 = APPLICATION_PROTOCOL_DEFINITION ( 'international standard', 'config_control_design', 1994, #169 ) ;
#214 = VERTEX_POINT ( 'NONE', #69 ) ;
#215 = CARTESIAN_POINT ( 'NONE',  ( 8.572527594031473190E-16, 0.7000000000000000666, 7.000000000000000000 ) ) ;
#216 = VECTOR ( 'NONE', #264, 1000.000000000000000 ) ;
#217 = DIRECTION ( 'NONE',  ( 0.000000000000000000, -1.000000000000000000, 0.000000000000000000 ) ) ;
#218 = CC_DESIGN_PERSON_AND_ORGANIZATION_ASSIGNMENT ( #265, #235, ( #76 ) ) ;
#219 = PERSON_AND_ORGANIZATION_ROLE ( 'classification_officer' ) ;
#220 = LINE ( 'NONE', #271, #216 ) ;
#221 = CARTESIAN_POINT ( 'NONE',  ( 4.898587196589412829E-16, 0.6999999999999999556, 4.000000000000000000 ) ) ;
#222 = EDGE_CURVE ( 'NONE', #212, #132, #124, .T. ) ;
#223 = PLANE ( 'NONE',  #293 ) ;
#224 = LINE ( 'NONE', #94, #15 ) ;
#225 = DIRECTION ( 'NONE',  ( 0.000000000000000000, 0.000000000000000000, 1.000000000000000000 ) ) ;
#226 = DIRECTION ( 'NONE',  ( -0.000000000000000000, -1.000000000000000000, -0.000000000000000000 ) ) ;
#227 = PRODUCT_RELATED_PRODUCT_CATEGORY ( 'detail', '', ( #76 ) ) ;
#228 = DATE_AND_TIME ( #125, #308 ) ;
#229 = ORIENTED_EDGE ( 'NONE', *, *, #279, .F. ) ;
#230 = ORIENTED_EDGE ( 'NONE', *, *, #222, .F. ) ;
#231 = AXIS2_PLACEMENT_3D ( 'NONE', #115, #202, #179 ) ;
#232 = EDGE_CURVE ( 'NONE', #12, #58, #26, .T. ) ;
#233 = EDGE_LOOP ( 'NONE', ( #297, #82 ) ) ;
#234 = ORIENTED_EDGE ( 'NONE', *, *, #121, .T. ) ;
#235 = PERSON_AND_ORGANIZATION_ROLE ( 'design_owner' ) ;
#236 = DIRECTION ( 'NONE',  ( -0.000000000000000000, -1.000000000000000000, -0.000000000000000000 ) ) ;
#237 = ORIENTED_EDGE ( 'NONE', *, *, #121, .F. ) ;
#238 = PRODUCT_DEFINITION ( 'UNKNOWN', '', #134, #268 ) ;
#239 = CARTESIAN_POINT ( 'NONE',  ( 0.000000000000000000, 0.000000000000000000, 0.000000000000000000 ) ) ;
#240 = FACE_BOUND ( 'NONE', #32, .T. ) ;
#241 = EDGE_LOOP ( 'NONE', ( #230, #288, #274, #34 ) ) ;
#242 = EDGE_CURVE ( 'NONE', #214, #90, #6, .T. ) ;
#243 = LOCAL_TIME ( 15, 10, 8.000000000000000000, #140 ) ;
#244 = ORIENTED_EDGE ( 'NONE', *, *, #79, .F. ) ;
#245 = CIRCLE ( 'NONE', #313, 7.000000000000000000 ) ;
#246 = ORIENTED_EDGE ( 'NONE', *, *, #110, .F. ) ;
#247 = FACE_BOUND ( 'NONE', #29, .T. ) ;
#248 = CARTESIAN_POINT ( 'NONE',  ( 0.000000000000000000, 0.000000000000000000, 0.000000000000000000 ) ) ;
#249 = VECTOR ( 'NONE', #327, 1000.000000000000000 ) ;
#250 = LINE ( 'NONE', #280, #249 ) ;
#251 = DIRECTION ( 'NONE',  ( -0.000000000000000000, 1.000000000000000000, -0.000000000000000000 ) ) ;
#252 = FACE_BOUND ( 'NONE', #311, .T. ) ;
#253 = MECHANICAL_CONTEXT ( 'NONE', #169, 'mechanical' ) ;
#254 = ORIENTED_EDGE ( 'NONE', *, *, #83, .T. ) ;
#255 = ORIENTED_EDGE ( 'NONE', *, *, #270, .F. ) ;
#256 = APPLICATION_CONTEXT ( 'configuration controlled 3d designs of mechanical parts and assemblies' ) ;
#257 = AXIS2_PLACEMENT_3D ( 'NONE', #72, #70, #92 ) ;
#258 = ORIENTED_EDGE ( 'NONE', *, *, #242, .T. ) ;
#259 = PERSON ( 'UNSPECIFIED', 'UNSPECIFIED', 'UNSPECIFIED', ('UNSPECIFIED'), ('UNSPECIFIED'), ('UNSPECIFIED') ) ;
#260 = CARTESIAN_POINT ( 'NONE',  ( 8.572527594031473190E-16, 2.200000000000000178, 7.000000000000000000 ) ) ;
#261 = ORIENTED_EDGE ( 'NONE', *, *, #325, .F. ) ;
#262 = CARTESIAN_POINT ( 'NONE',  ( 0.000000000000000000, 0.7000000000000000666, 0.000000000000000000 ) ) ;
#263 = EDGE_CURVE ( 'NONE', #132, #58, #30, .T. ) ;
#264 = DIRECTION ( 'NONE',  ( -0.000000000000000000, 1.000000000000000000, -0.000000000000000000 ) ) ;
#265 = PERSON_AND_ORGANIZATION ( #259, #4 ) ;
#266 = AXIS2_PLACEMENT_3D ( 'NONE', #248, #98, #303 ) ;
#267 = CARTESIAN_POINT ( 'NONE',  ( 0.000000000000000000, 0.6999999999999999556, 0.000000000000000000 ) ) ;
#268 = DESIGN_CONTEXT ( 'detailed design', #256, 'design' ) ;
#269 = ORIENTED_EDGE ( 'NONE', *, *, #270, .T. ) ;
#270 = EDGE_CURVE ( 'NONE', #314, #102, #224, .T. ) ;
#271 = CARTESIAN_POINT ( 'NONE',  ( 0.000000000000000000, 0.000000000000000000, 2.250000000000000000 ) ) ;
#272 = PERSON_AND_ORGANIZATION ( #259, #4 ) ;
#273 = APPROVAL_PERSON_ORGANIZATION ( #290, #146, #33 ) ;
#274 = ORIENTED_EDGE ( 'NONE', *, *, #232, .T. ) ;
#275 = CIRCLE ( 'NONE', #231, 4.000000000000000000 ) ;
#276 = CARTESIAN_POINT ( 'NONE',  ( 4.898587196589412829E-16, 0.6999999999999999556, 4.000000000000000000 ) ) ;
#277 = APPROVAL_DATE_TIME ( #174, #157 ) ;
#278 = DIRECTION ( 'NONE',  ( 0.000000000000000000, -1.000000000000000000, 0.000000000000000000 ) ) ;
#279 = EDGE_CURVE ( 'NONE', #28, #314, #123, .T. ) ;
#280 = CARTESIAN_POINT ( 'NONE',  ( 8.572527594031473190E-16, 2.200000000000000178, 7.000000000000000000 ) ) ;
#281 = CYLINDRICAL_SURFACE ( 'NONE', #101, 2.250000000000000000 ) ;
#282 = FACE_OUTER_BOUND ( 'NONE', #160, .T. ) ;
#283 = PERSON_AND_ORGANIZATION_ROLE ( 'creator' ) ;
#284 = CIRCLE ( 'NONE', #136, 2.250000000000000000 ) ;
#285 = CC_DESIGN_PERSON_AND_ORGANIZATION_ASSIGNMENT ( #191, #292, ( #134 ) ) ;
#286 = EDGE_LOOP ( 'NONE', ( #246, #106, #56, #261 ) ) ;
#287 = CARTESIAN_POINT ( 'NONE',  ( 2.755455298081544285E-16, 0.000000000000000000, -2.250000000000000000 ) ) ;
#288 = ORIENTED_EDGE ( 'NONE', *, *, #126, .T. ) ;
#289 = DATE_AND_TIME ( #57, #243 ) ;
#290 = PERSON_AND_ORGANIZATION ( #259, #4 ) ;
#291 = CARTESIAN_POINT ( 'NONE',  ( 0.000000000000000000, 0.000000000000000000, 2.250000000000000000 ) ) ;
#292 = PERSON_AND_ORGANIZATION_ROLE ( 'design_supplier' ) ;
#293 = AXIS2_PLACEMENT_3D ( 'NONE', #152, #18, #151 ) ;
#294 = LINE ( 'NONE', #320, #300 ) ;
#295 = ADVANCED_FACE ( 'NONE', ( #25 ), #204, .T. ) ;
#296 = ORIENTED_EDGE ( 'NONE', *, *, #110, .T. ) ;
#297 = ORIENTED_EDGE ( 'NONE', *, *, #172, .T. ) ;
#298 = CC_DESIGN_APPROVAL ( #146, ( #134 ) ) ;
#299 = VERTEX_POINT ( 'NONE', #260 ) ;
#300 = VECTOR ( 'NONE', #138, 1000.000000000000000 ) ;
#301 = CARTESIAN_POINT ( 'NONE',  ( 0.000000000000000000, 0.000000000000000000, 0.000000000000000000 ) ) ;
#302 = UNCERTAINTY_MEASURE_WITH_UNIT (LENGTH_MEASURE( 1.000000000000000082E-05 ), #13, 'distance_accuracy_value', 'NONE');
#303 = DIRECTION ( 'NONE',  ( 0.000000000000000000, 0.000000000000000000, 1.000000000000000000 ) ) ;
#304 = CARTESIAN_POINT ( 'NONE',  ( 0.000000000000000000, 2.200000000000000178, 0.000000000000000000 ) ) ;
#305 = CC_DESIGN_APPROVAL ( #157, ( #19 ) ) ;
#306 = AXIS2_PLACEMENT_3D ( 'NONE', #205, #145, #3 ) ;
#307 = CARTESIAN_POINT ( 'NONE',  ( 0.000000000000000000, 0.6999999999999999556, 0.000000000000000000 ) ) ;
#308 = LOCAL_TIME ( 15, 10, 8.000000000000000000, #27 ) ;
#309 = VERTEX_POINT ( 'NONE', #312 ) ;
#310 = CIRCLE ( 'NONE', #178, 4.000000000000000000 ) ;
#311 = EDGE_LOOP ( 'NONE', ( #85, #237 ) ) ;
#312 = CARTESIAN_POINT ( 'NONE',  ( 0.000000000000000000, 2.200000000000000178, 2.250000000000000000 ) ) ;
#313 = AXIS2_PLACEMENT_3D ( 'NONE', #262, #107, #105 ) ;
#314 = VERTEX_POINT ( 'NONE', #287 ) ;
#315 = CYLINDRICAL_SURFACE ( 'NONE', #49, 4.000000000000000000 ) ;
#316 = APPROVAL_STATUS ( 'not_yet_approved' ) ;
#317 = EDGE_LOOP ( 'NONE', ( #258, #87 ) ) ;
#318 = CALENDAR_DATE ( 2026, 12, 1 ) ;
#319 = AXIS2_PLACEMENT_3D ( 'NONE', #326, #21, #175 ) ;
#320 = CARTESIAN_POINT ( 'NONE',  ( 0.000000000000000000, 2.200000000000000178, -7.000000000000000000 ) ) ;
#321 = PERSON_AND_ORGANIZATION ( #259, #4 ) ;
#322 = EDGE_LOOP ( 'NONE', ( #54, #296, #185, #190 ) ) ;
#323 = CALENDAR_DATE ( 2026, 12, 1 ) ;
#324 = CARTESIAN_POINT ( 'NONE',  ( 0.000000000000000000, 0.6999999999999999556, -4.000000000000000000 ) ) ;
#325 = EDGE_CURVE ( 'NONE', #90, #214, #245, .T. ) ;
#326 = CARTESIAN_POINT ( 'NONE',  ( 0.000000000000000000, 0.7000000000000000666, 0.000000000000000000 ) ) ;
#327 = DIRECTION ( 'NONE',  ( -0.000000000000000000, -1.000000000000000000, -0.000000000000000000 ) ) ;
#328 = ADVANCED_FACE ( 'NONE', ( #53 ), #154, .T. ) ;
#329 = DIRECTION ( 'NONE',  ( 0.000000000000000000, 1.000000000000000000, 0.000000000000000000 ) ) ;
ENDSEC;
END-ISO-10303-21;
