ISO-10303-21;
HEADER;
FILE_DESCRIPTION (( 'STEP AP203' ),
    '1' );
FILE_NAME ('753124.036 стойка.STEP',
    '2026-01-12T12:09:56',
    ( '' ),
    ( '' ),
    'SwSTEP 2.0',
    'SolidWorks 2022',
    '' );
FILE_SCHEMA (( 'CONFIG_CONTROL_DESIGN' ));
ENDSEC;

DATA;
#1 = CYLINDRICAL_SURFACE ( 'NONE', #492, 2.000000000000000000 ) ;
#2 = VERTEX_POINT ( 'NONE', #179 ) ;
#3 = DIRECTION ( 'NONE',  ( -0.000000000000000000, -1.000000000000000000, -0.000000000000000000 ) ) ;
#4 = DIRECTION ( 'NONE',  ( 0.000000000000000000, -0.000000000000000000, 1.000000000000000000 ) ) ;
#5 = EDGE_LOOP ( 'NONE', ( #452, #316, #754, #602 ) ) ;
#6 = LINE ( 'NONE', #212, #410 ) ;
#7 = EDGE_CURVE ( 'NONE', #47, #598, #816, .T. ) ;
#8 = DIRECTION ( 'NONE',  ( 0.8660254037844414832, 0.000000000000000000, 0.4999999999999951705 ) ) ;
#9 = EDGE_LOOP ( 'NONE', ( #142, #233, #673, #745, #469, #696, #537 ) ) ;
#10 = CARTESIAN_POINT ( 'NONE',  ( 2.449293598294706414E-16, -8.499999999999994671, -2.000000000000000000 ) ) ;
#11 = AXIS2_PLACEMENT_3D ( 'NONE', #483, #817, #400 ) ;
#12 = VECTOR ( 'NONE', #74, 1000.000000000000000 ) ;
#13 = FACE_BOUND ( 'NONE', #324, .T. ) ;
#14 = ORIENTED_EDGE ( 'NONE', *, *, #490, .F. ) ;
#15 = CARTESIAN_POINT ( 'NONE',  ( 0.000000000000000000, 0.000000000000000000, 0.000000000000000000 ) ) ;
#16 = ORIENTED_EDGE ( 'NONE', *, *, #213, .F. ) ;
#17 = ADVANCED_FACE ( 'NONE', ( #583 ), #590, .T. ) ;
#18 = DIRECTION ( 'NONE',  ( 8.659560562354978464E-17, 0.7071067811865439090, -0.7071067811865512365 ) ) ;
#19 = LINE ( 'NONE', #484, #423 ) ;
#20 = VERTEX_POINT ( 'NONE', #450 ) ;
#21 = AXIS2_PLACEMENT_3D ( 'NONE', #772, #437, #692 ) ;
#22 = APPROVAL ( #101, 'UNSPECIFIED' ) ;
#23 = AXIS2_PLACEMENT_3D ( 'NONE', #786, #118, #568 ) ;
#24 = VECTOR ( 'NONE', #71, 1000.000000000000000 ) ;
#25 = VERTEX_POINT ( 'NONE', #790 ) ;
#26 = CARTESIAN_POINT ( 'NONE',  ( 4.837938458043933716E-14, 10.00000000000000000, 6.928203230275513214 ) ) ;
#27 = EDGE_CURVE ( 'NONE', #658, #20, #99, .T. ) ;
#28 = DIRECTION ( 'NONE',  ( 0.000000000000000000, -0.000000000000000000, -1.000000000000000000 ) ) ;
#29 = ORIENTED_EDGE ( 'NONE', *, *, #27, .F. ) ;
#30 = CARTESIAN_POINT ( 'NONE',  ( 0.000000000000000000, 3.000000000000000000, 0.000000000000000000 ) ) ;
#31 = COORDINATED_UNIVERSAL_TIME_OFFSET ( 3, 0, .AHEAD. ) ;
#32 = EDGE_CURVE ( 'NONE', #821, #2, #789, .T. ) ;
#33 = ORIENTED_EDGE ( 'NONE', *, *, #471, .F. ) ;
#34 = DIRECTION ( 'NONE',  ( 0.000000000000000000, 1.000000000000000000, 0.000000000000000000 ) ) ;
#35 = DIRECTION ( 'NONE',  ( -0.000000000000000000, -1.000000000000000000, -0.000000000000000000 ) ) ;
#36 = ORIENTED_EDGE ( 'NONE', *, *, #346, .T. ) ;
#37 = CIRCLE ( 'NONE', #690, 6.000000000000000888 ) ;
#38 = DIRECTION ( 'NONE',  ( 0.000000000000000000, 0.000000000000000000, 1.000000000000000000 ) ) ;
#39 = VECTOR ( 'NONE', #528, 1000.000000000000000 ) ;
#40 = EDGE_CURVE ( 'NONE', #102, #75, #293, .T. ) ;
#41 = DIRECTION ( 'NONE',  ( -0.8660254037844380415, 0.000000000000000000, 0.5000000000000011102 ) ) ;
#42 = COORDINATED_UNIVERSAL_TIME_OFFSET ( 3, 0, .AHEAD. ) ;
#43 = VERTEX_POINT ( 'NONE', #222 ) ;
#44 = FACE_OUTER_BOUND ( 'NONE', #586, .T. ) ;
#45 = ADVANCED_FACE ( 'NONE', ( #424 ), #100, .F. ) ;
#46 = CARTESIAN_POINT ( 'NONE',  ( 7.347880794884120722E-16, -0.5000000000000000000, -6.000000000000000888 ) ) ;
#47 = VERTEX_POINT ( 'NONE', #555 ) ;
#48 = LINE ( 'NONE', #500, #647 ) ;
#49 = DIRECTION ( 'NONE',  ( -0.000000000000000000, 1.000000000000000000, -0.000000000000000000 ) ) ;
#50 = ORIENTED_EDGE ( 'NONE', *, *, #782, .T. ) ;
#51 = LINE ( 'NONE', #853, #456 ) ;
#52 = VECTOR ( 'NONE', #512, 1000.000000000000000 ) ;
#53 = SECURITY_CLASSIFICATION ( '', '', #228 ) ;
#54 = CARTESIAN_POINT ( 'NONE',  ( 0.000000000000000000, 0.000000000000000000, 0.000000000000000000 ) ) ;
#55 = ORIENTED_EDGE ( 'NONE', *, *, #104, .T. ) ;
#56 = CARTESIAN_POINT ( 'NONE',  ( 6.000000000000034639, 10.00000000000000000, 3.464101615137700652 ) ) ;
#57 = ORIENTED_EDGE ( 'NONE', *, *, #632, .T. ) ;
#58 = FACE_OUTER_BOUND ( 'NONE', #5, .T. ) ;
#59 = ORIENTED_EDGE ( 'NONE', *, *, #502, .F. ) ;
#60 = DIRECTION ( 'NONE',  ( 0.000000000000000000, -1.000000000000000000, 0.000000000000000000 ) ) ;
#61 = ORIENTED_EDGE ( 'NONE', *, *, #478, .F. ) ;
#62 = PLANE ( 'NONE',  #338 ) ;
#63 = DIRECTION ( 'NONE',  ( 0.4999999999999950595, 0.000000000000000000, -0.8660254037844415942 ) ) ;
#64 = ORIENTED_EDGE ( 'NONE', *, *, #186, .T. ) ;
#65 = CARTESIAN_POINT ( 'NONE',  ( 0.000000000000000000, -9.000000000000001776, 0.000000000000000000 ) ) ;
#66 = APPROVAL_PERSON_ORGANIZATION ( #151, #432, #706 ) ;
#67 = DIRECTION ( 'NONE',  ( 0.000000000000000000, 0.000000000000000000, -1.000000000000000000 ) ) ;
#68 = VERTEX_POINT ( 'NONE', #286 ) ;
#69 = CARTESIAN_POINT ( 'NONE',  ( 0.000000000000000000, -8.499999999999994671, 0.000000000000000000 ) ) ;
#70 = EDGE_CURVE ( 'NONE', #434, #598, #363, .T. ) ;
#71 = DIRECTION ( 'NONE',  ( -0.000000000000000000, -1.000000000000000000, -0.000000000000000000 ) ) ;
#72 = ORIENTED_EDGE ( 'NONE', *, *, #208, .F. ) ;
#73 = PLANE ( 'NONE',  #203 ) ;
#74 = DIRECTION ( 'NONE',  ( -0.000000000000000000, -1.000000000000000000, -0.000000000000000000 ) ) ;
#75 = VERTEX_POINT ( 'NONE', #497 ) ;
#76 = AXIS2_PLACEMENT_3D ( 'NONE', #455, #857, #522 ) ;
#77 = LINE ( 'NONE', #746, #256 ) ;
#78 = AXIS2_PLACEMENT_3D ( 'NONE', #591, #397, #8 ) ;
#79 = CARTESIAN_POINT ( 'NONE',  ( 0.000000000000000000, 0.000000000000000000, 0.000000000000000000 ) ) ;
#80 = ORIENTED_EDGE ( 'NONE', *, *, #331, .T. ) ;
#81 = PLANE ( 'NONE',  #325 ) ;
#82 = DIRECTION ( 'NONE',  ( 0.000000000000000000, 0.000000000000000000, 1.000000000000000000 ) ) ;
#83 = VERTEX_POINT ( 'NONE', #636 ) ;
#84 = DIRECTION ( 'NONE',  ( 0.000000000000000000, 1.000000000000000000, 0.000000000000000000 ) ) ;
#85 = ORIENTED_EDGE ( 'NONE', *, *, #700, .F. ) ;
#86 = VECTOR ( 'NONE', #569, 1000.000000000000000 ) ;
#87 = CIRCLE ( 'NONE', #191, 1.499999999999997780 ) ;
#88 = DIRECTION ( 'NONE',  ( 0.000000000000000000, 0.000000000000000000, 1.000000000000000000 ) ) ;
#89 = EDGE_LOOP ( 'NONE', ( #114, #689, #308, #642 ) ) ;
#90 = EDGE_CURVE ( 'NONE', #97, #610, #758, .T. ) ;
#91 = CARTESIAN_POINT ( 'NONE',  ( -5.999999999999987566, 0.000000000000000000, 3.464101615137783252 ) ) ;
#92 = ORIENTED_EDGE ( 'NONE', *, *, #193, .T. ) ;
#93 = CARTESIAN_POINT ( 'NONE',  ( 0.000000000000000000, 0.000000000000000000, 0.000000000000000000 ) ) ;
#94 = CARTESIAN_POINT ( 'NONE',  ( 4.837938458043933716E-14, 0.000000000000000000, 6.928203230275513214 ) ) ;
#95 = PERSON_AND_ORGANIZATION_ROLE ( 'creator' ) ;
#96 = EDGE_CURVE ( 'NONE', #242, #123, #300, .T. ) ;
#97 = VERTEX_POINT ( 'NONE', #493 ) ;
#98 = DIRECTION ( 'NONE',  ( 0.000000000000000000, -1.000000000000000000, 0.000000000000000000 ) ) ;
#99 = CIRCLE ( 'NONE', #76, 4.500000000000000000 ) ;
#100 = CYLINDRICAL_SURFACE ( 'NONE', #757, 2.000000000000000000 ) ;
#101 = APPROVAL_STATUS ( 'not_yet_approved' ) ;
#102 = VERTEX_POINT ( 'NONE', #825 ) ;
#103 = AXIS2_PLACEMENT_3D ( 'NONE', #309, #318, #395 ) ;
#104 = EDGE_CURVE ( 'NONE', #220, #47, #235, .T. ) ;
#105 = CARTESIAN_POINT ( 'NONE',  ( 0.000000000000000000, 0.000000000000000000, 0.000000000000000000 ) ) ;
#106 = CARTESIAN_POINT ( 'NONE',  ( 0.000000000000000000, 0.000000000000000000, -6.928203230275514102 ) ) ;
#107 = APPROVAL_DATE_TIME ( #305, #22 ) ;
#108 = EDGE_LOOP ( 'NONE', ( #333, #462, #337, #117, #361 ) ) ;
#109 = DIRECTION ( 'NONE',  ( -0.000000000000000000, 1.000000000000000000, -0.000000000000000000 ) ) ;
#110 = ADVANCED_FACE ( 'NONE', ( #487 ), #827, .F. ) ;
#111 = DIRECTION ( 'NONE',  ( 0.000000000000000000, -0.000000000000000000, 1.000000000000000000 ) ) ;
#112 = EDGE_LOOP ( 'NONE', ( #728, #544, #824 ) ) ;
#113 = DIRECTION ( 'NONE',  ( -0.8660254037844380415, 0.000000000000000000, 0.5000000000000011102 ) ) ;
#114 = ORIENTED_EDGE ( 'NONE', *, *, #122, .F. ) ;
#115 = CARTESIAN_POINT ( 'NONE',  ( 2.449293598294706414E-16, 9.499999999999996447, -2.000000000000000000 ) ) ;
#116 = PERSON_AND_ORGANIZATION ( #422, #581 ) ;
#117 = ORIENTED_EDGE ( 'NONE', *, *, #818, .T. ) ;
#118 = DIRECTION ( 'NONE',  ( 0.000000000000000000, -1.000000000000000000, 0.000000000000000000 ) ) ;
#119 = AXIS2_PLACEMENT_3D ( 'NONE', #595, #516, #862 ) ;
#120 = APPROVAL_PERSON_ORGANIZATION ( #116, #510, #774 ) ;
#121 = CARTESIAN_POINT ( 'NONE',  ( 0.000000000000000000, 0.000000000000000000, 0.000000000000000000 ) ) ;
#122 = EDGE_CURVE ( 'NONE', #25, #610, #617, .T. ) ;
#123 = VERTEX_POINT ( 'NONE', #91 ) ;
#124 = CARTESIAN_POINT ( 'NONE',  ( 0.000000000000000000, 3.000000000000000000, 2.000000000000000000 ) ) ;
#125 = CARTESIAN_POINT ( 'NONE',  ( 0.000000000000000000, -9.000000000000001776, 1.499999999999997780 ) ) ;
#126 = CARTESIAN_POINT ( 'NONE',  ( -6.000000000000011546, 10.00000000000000000, -3.464101615137742840 ) ) ;
#127 = ADVANCED_FACE ( 'NONE', ( #231 ), #200, .T. ) ;
#128 = VERTEX_POINT ( 'NONE', #353 ) ;
#129 = PRODUCT_DEFINITION_SHAPE ( 'NONE', 'NONE',  #798 ) ;
#130 = CARTESIAN_POINT ( 'NONE',  ( -5.999999999999987566, 7.000000000000000000, 3.464101615137783252 ) ) ;
#131 = VECTOR ( 'NONE', #565, 1000.000000000000000 ) ;
#132 = PLANE ( 'NONE',  #295 ) ;
#133 = EDGE_CURVE ( 'NONE', #402, #710, #168, .T. ) ;
#134 = AXIS2_PLACEMENT_3D ( 'NONE', #253, #784, #797 ) ;
#135 = CIRCLE ( 'NONE', #596, 4.500000000000000000 ) ;
#136 = DIRECTION ( 'NONE',  ( 0.000000000000000000, -1.000000000000000000, 0.000000000000000000 ) ) ;
#137 = DIRECTION ( 'NONE',  ( 0.000000000000000000, -1.000000000000000000, 0.000000000000000000 ) ) ;
#138 = ORIENTED_EDGE ( 'NONE', *, *, #304, .T. ) ;
#139 = CC_DESIGN_PERSON_AND_ORGANIZATION_ASSIGNMENT ( #449, #440, ( #798 ) ) ;
#140 = LINE ( 'NONE', #291, #747 ) ;
#141 = PLANE ( 'NONE',  #649 ) ;
#142 = ORIENTED_EDGE ( 'NONE', *, *, #614, .F. ) ;
#143 = DIRECTION ( 'NONE',  ( 0.000000000000000000, 0.000000000000000000, -1.000000000000000000 ) ) ;
#144 = AXIS2_PLACEMENT_3D ( 'NONE', #625, #35, #695 ) ;
#145 = DIRECTION ( 'NONE',  ( 0.000000000000000000, -0.000000000000000000, -1.000000000000000000 ) ) ;
#146 = ORIENTED_EDGE ( 'NONE', *, *, #676, .F. ) ;
#147 = FACE_OUTER_BOUND ( 'NONE', #348, .T. ) ;
#148 = CONICAL_SURFACE ( 'NONE', #11, 1.499999999999997780, 0.7853981633974447263 ) ;
#149 = VECTOR ( 'NONE', #347, 1000.000000000000000 ) ;
#150 = EDGE_CURVE ( 'NONE', #707, #631, #350, .T. ) ;
#151 = PERSON_AND_ORGANIZATION ( #422, #581 ) ;
#152 = VERTEX_POINT ( 'NONE', #698 ) ;
#153 = DIRECTION ( 'NONE',  ( 0.8660254037844380415, 0.000000000000000000, -0.5000000000000011102 ) ) ;
#154 = CARTESIAN_POINT ( 'NONE',  ( 0.000000000000000000, 10.00000000000000000, 0.000000000000000000 ) ) ;
#155 = EDGE_LOOP ( 'NONE', ( #14, #480, #306, #661 ) ) ;
#156 = CARTESIAN_POINT ( 'NONE',  ( -2.999999999999968914, 0.000000000000000000, 5.196152422706646234 ) ) ;
#157 = ORIENTED_EDGE ( 'NONE', *, *, #592, .F. ) ;
#158 = EDGE_CURVE ( 'NONE', #25, #68, #622, .T. ) ;
#159 = DIRECTION ( 'NONE',  ( 0.000000000000000000, 0.000000000000000000, 1.000000000000000000 ) ) ;
#160 = CIRCLE ( 'NONE', #760, 6.000000000000000888 ) ;
#161 = LOCAL_TIME ( 15, 9, 56.00000000000000000, #503 ) ;
#162 = ORIENTED_EDGE ( 'NONE', *, *, #855, .F. ) ;
#163 = CC_DESIGN_PERSON_AND_ORGANIZATION_ASSIGNMENT ( #494, #236, ( #53 ) ) ;
#164 = CARTESIAN_POINT ( 'NONE',  ( 0.000000000000000000, 0.000000000000000000, -6.928203230275514102 ) ) ;
#165 = APPROVAL_DATE_TIME ( #637, #510 ) ;
#166 = ORIENTED_EDGE ( 'NONE', *, *, #354, .T. ) ;
#167 = DIRECTION ( 'NONE',  ( 0.8660254037844344888, 0.000000000000000000, -0.5000000000000071054 ) ) ;
#168 = LINE ( 'NONE', #507, #732 ) ;
#169 = EDGE_CURVE ( 'NONE', #631, #152, #172, .T. ) ;
#170 = EDGE_LOOP ( 'NONE', ( #273, #138 ) ) ;
#171 = DIRECTION ( 'NONE',  ( 0.000000000000000000, 0.000000000000000000, -1.000000000000000000 ) ) ;
#172 = LINE ( 'NONE', #94, #294 ) ;
#173 = CIRCLE ( 'NONE', #665, 2.000000000000000000 ) ;
#174 = APPROVAL_DATE_TIME ( #839, #432 ) ;
#175 = VERTEX_POINT ( 'NONE', #106 ) ;
#176 = AXIS2_PLACEMENT_3D ( 'NONE', #391, #336, #597 ) ;
#177 = DIRECTION ( 'NONE',  ( -0.000000000000000000, -1.000000000000000000, -0.000000000000000000 ) ) ;
#178 = APPLICATION_CONTEXT ( 'configuration controlled 3d designs of mechanical parts and assemblies' ) ;
#179 = CARTESIAN_POINT ( 'NONE',  ( 3.061616997868393988E-16, 10.00000000000000000, -2.500000000000009326 ) ) ;
#180 = LINE ( 'NONE', #577, #421 ) ;
#181 = EDGE_CURVE ( 'NONE', #352, #83, #371, .T. ) ;
#182 = CARTESIAN_POINT ( 'NONE',  ( 5.999999999999962697, 10.00000000000000000, -3.464101615137825885 ) ) ;
#183 = DIRECTION ( 'NONE',  ( 0.000000000000000000, 0.000000000000000000, 1.000000000000000000 ) ) ;
#184 = DIRECTION ( 'NONE',  ( 0.000000000000000000, -1.000000000000000000, 0.000000000000000000 ) ) ;
#185 = EDGE_LOOP ( 'NONE', ( #57, #387, #211, #567 ) ) ;
#186 = EDGE_CURVE ( 'NONE', #367, #402, #573, .T. ) ;
#187 = DIRECTION ( 'NONE',  ( 0.000000000000000000, -1.000000000000000000, 0.000000000000000000 ) ) ;
#188 = DIRECTION ( 'NONE',  ( 0.000000000000000000, 0.000000000000000000, -1.000000000000000000 ) ) ;
#189 = CARTESIAN_POINT ( 'NONE',  ( 0.000000000000000000, -9.000000000000001776, 1.499999999999997780 ) ) ;
#190 = AXIS2_PLACEMENT_3D ( 'NONE', #788, #664, #453 ) ;
#191 = AXIS2_PLACEMENT_3D ( 'NONE', #473, #60, #260 ) ;
#192 = LINE ( 'NONE', #199, #396 ) ;
#193 = EDGE_CURVE ( 'NONE', #382, #25, #160, .T. ) ;
#194 = ORIENTED_EDGE ( 'NONE', *, *, #427, .T. ) ;
#195 = DIRECTION ( 'NONE',  ( -1.039100930793199338E-14, 0.000000000000000000, -1.000000000000000000 ) ) ;
#196 = DIRECTION ( 'NONE',  ( -0.000000000000000000, -1.000000000000000000, -0.000000000000000000 ) ) ;
#197 = ADVANCED_FACE ( 'NONE', ( #58 ), #719, .F. ) ;
#198 = CARTESIAN_POINT ( 'NONE',  ( 0.000000000000000000, 3.000000000000000000, 0.000000000000000000 ) ) ;
#199 = CARTESIAN_POINT ( 'NONE',  ( 0.000000000000000000, 3.000000000000000000, 2.000000000000000000 ) ) ;
#200 = CONICAL_SURFACE ( 'NONE', #576, 1.499999999999997780, 0.7853981633974447263 ) ;
#201 = LINE ( 'NONE', #736, #666 ) ;
#202 = ORIENTED_EDGE ( 'NONE', *, *, #527, .F. ) ;
#203 = AXIS2_PLACEMENT_3D ( 'NONE', #683, #412, #629 ) ;
#204 = APPROVAL_PERSON_ORGANIZATION ( #834, #22, #709 ) ;
#205 = CARTESIAN_POINT ( 'NONE',  ( 0.000000000000000000, 10.00000000000000000, 4.500000000000000000 ) ) ;
#206 = CARTESIAN_POINT ( 'NONE',  ( 6.000000000000034639, 7.000000000000000000, 3.464101615137700652 ) ) ;
#207 = ORIENTED_EDGE ( 'NONE', *, *, #676, .T. ) ;
#208 = EDGE_CURVE ( 'NONE', #655, #787, #192, .T. ) ;
#209 = DIRECTION ( 'NONE',  ( 0.8660254037844415942, 0.000000000000000000, 0.4999999999999950595 ) ) ;
#210 = DIRECTION ( 'NONE',  ( 1.000000000000000000, 0.000000000000000000, 0.000000000000000000 ) ) ;
#211 = ORIENTED_EDGE ( 'NONE', *, *, #471, .T. ) ;
#212 = CARTESIAN_POINT ( 'NONE',  ( -5.999999999999987566, 7.000000000000000000, 3.464101615137783252 ) ) ;
#213 = EDGE_CURVE ( 'NONE', #352, #97, #454, .T. ) ;
#214 = PERSON_AND_ORGANIZATION_ROLE ( 'design_owner' ) ;
#215 = ORIENTED_EDGE ( 'NONE', *, *, #552, .F. ) ;
#216 = DIRECTION ( 'NONE',  ( 0.000000000000000000, -1.000000000000000000, 0.000000000000000000 ) ) ;
#217 = CIRCLE ( 'NONE', #311, 6.000000000000000888 ) ;
#218 = CIRCLE ( 'NONE', #704, 2.000000000000000000 ) ;
#219 = PLANE ( 'NONE',  #482 ) ;
#220 = VERTEX_POINT ( 'NONE', #654 ) ;
#221 = ORIENTED_EDGE ( 'NONE', *, *, #657, .F. ) ;
#222 = CARTESIAN_POINT ( 'NONE',  ( 2.449293598294706414E-16, 3.000000000000000000, -2.000000000000000000 ) ) ;
#223 = DIRECTION ( 'NONE',  ( -0.000000000000000000, 1.000000000000000000, -0.000000000000000000 ) ) ;
#224 = EDGE_LOOP ( 'NONE', ( #429, #578, #749, #268 ) ) ;
#225 = DIRECTION ( 'NONE',  ( -0.000000000000000000, 1.000000000000000000, -0.000000000000000000 ) ) ;
#226 = CIRCLE ( 'NONE', #436, 4.500000000000000000 ) ;
#227 = CIRCLE ( 'NONE', #679, 2.000000000000000000 ) ;
#228 = SECURITY_CLASSIFICATION_LEVEL ( 'unclassified' ) ;
#229 = ORIENTED_EDGE ( 'NONE', *, *, #346, .F. ) ;
#230 = DIRECTION ( 'NONE',  ( 0.000000000000000000, 0.000000000000000000, -1.000000000000000000 ) ) ;
#231 = FACE_OUTER_BOUND ( 'NONE', #460, .T. ) ;
#232 = APPROVAL_STATUS ( 'not_yet_approved' ) ;
#233 = ORIENTED_EDGE ( 'NONE', *, *, #90, .T. ) ;
#234 = DIRECTION ( 'NONE',  ( -0.000000000000000000, 1.000000000000000000, -0.000000000000000000 ) ) ;
#235 = LINE ( 'NONE', #501, #394 ) ;
#236 = PERSON_AND_ORGANIZATION_ROLE ( 'classification_officer' ) ;
#237 = ORIENTED_EDGE ( 'NONE', *, *, #122, .T. ) ;
#238 = FACE_OUTER_BOUND ( 'NONE', #345, .T. ) ;
#239 = DIRECTION ( 'NONE',  ( 0.000000000000000000, -1.000000000000000000, 0.000000000000000000 ) ) ;
#240 = AXIS2_PLACEMENT_3D ( 'NONE', #526, #589, #725 ) ;
#241 = EDGE_CURVE ( 'NONE', #707, #409, #458, .T. ) ;
#242 = VERTEX_POINT ( 'NONE', #130 ) ;
#243 = CIRCLE ( 'NONE', #365, 4.500000000000000000 ) ;
#244 = FACE_OUTER_BOUND ( 'NONE', #108, .T. ) ;
#245 = LINE ( 'NONE', #125, #467 ) ;
#246 = ORIENTED_EDGE ( 'NONE', *, *, #310, .T. ) ;
#247 = LINE ( 'NONE', #515, #819 ) ;
#248 = DIRECTION ( 'NONE',  ( 0.000000000000000000, 0.000000000000000000, 1.000000000000000000 ) ) ;
#249 = EDGE_LOOP ( 'NONE', ( #420, #486, #808, #166, #261, #795 ) ) ;
#250 = CARTESIAN_POINT ( 'NONE',  ( 5.510910596163088569E-16, 7.000000000000000000, -4.500000000000000000 ) ) ;
#251 = EDGE_CURVE ( 'NONE', #815, #631, #448, .T. ) ;
#252 = VECTOR ( 'NONE', #431, 1000.000000000000000 ) ;
#253 = CARTESIAN_POINT ( 'NONE',  ( 0.000000000000000000, -0.5000000000000000000, 0.000000000000000000 ) ) ;
#254 = ORIENTED_EDGE ( 'NONE', *, *, #855, .T. ) ;
#255 = CARTESIAN_POINT ( 'NONE',  ( 5.510910596163088569E-16, 10.00000000000000000, -4.500000000000000000 ) ) ;
#256 = VECTOR ( 'NONE', #545, 1000.000000000000000 ) ;
#257 = AXIS2_PLACEMENT_3D ( 'NONE', #539, #681, #145 ) ;
#258 = DIRECTION ( 'NONE',  ( 0.000000000000000000, 1.000000000000000000, 0.000000000000000000 ) ) ;
#259 = EDGE_CURVE ( 'NONE', #610, #710, #607, .T. ) ;
#260 = DIRECTION ( 'NONE',  ( 0.000000000000000000, 0.000000000000000000, -1.000000000000000000 ) ) ;
#261 = ORIENTED_EDGE ( 'NONE', *, *, #241, .T. ) ;
#262 = CARTESIAN_POINT ( 'NONE',  ( 4.837938458043933716E-14, 7.000000000000000000, 6.928203230275513214 ) ) ;
#263 = CARTESIAN_POINT ( 'NONE',  ( 0.000000000000000000, 3.000000000000000000, 0.000000000000000000 ) ) ;
#264 = ORIENTED_EDGE ( 'NONE', *, *, #459, .T. ) ;
#265 = CARTESIAN_POINT ( 'NONE',  ( 5.999999999999962697, 7.000000000000000000, -3.464101615137826329 ) ) ;
#266 = VECTOR ( 'NONE', #41, 1000.000000000000114 ) ;
#267 = DIRECTION ( 'NONE',  ( 0.000000000000000000, 1.000000000000000000, 0.000000000000000000 ) ) ;
#268 = ORIENTED_EDGE ( 'NONE', *, *, #519, .F. ) ;
#269 = VECTOR ( 'NONE', #729, 1000.000000000000000 ) ;
#270 = PRODUCT_DEFINITION_FORMATION_WITH_SPECIFIED_SOURCE ( 'ANY', '', #393, .NOT_KNOWN. ) ;
#271 = CARTESIAN_POINT ( 'NONE',  ( 0.000000000000000000, 10.00000000000000000, -6.928203230275514102 ) ) ;
#272 = DIRECTION ( 'NONE',  ( 0.000000000000000000, 0.000000000000000000, 1.000000000000000000 ) ) ;
#273 = ORIENTED_EDGE ( 'NONE', *, *, #32, .T. ) ;
#274 = ADVANCED_FACE ( 'NONE', ( #466 ), #659, .F. ) ;
#275 = CARTESIAN_POINT ( 'NONE',  ( 5.999999999999962697, 0.000000000000000000, -3.464101615137825885 ) ) ;
#276 = ORIENTED_EDGE ( 'NONE', *, *, #27, .T. ) ;
#277 = DIRECTION ( 'NONE',  ( 0.8660254037844415942, 0.000000000000000000, 0.4999999999999950595 ) ) ;
#278 = CARTESIAN_POINT ( 'NONE',  ( 0.000000000000000000, 9.499999999999996447, 0.000000000000000000 ) ) ;
#279 = ORIENTED_EDGE ( 'NONE', *, *, #650, .T. ) ;
#280 = AXIS2_PLACEMENT_3D ( 'NONE', #606, #680, #810 ) ;
#281 = LOCAL_TIME ( 15, 9, 56.00000000000000000, #31 ) ;
#282 = ADVANCED_FACE ( 'NONE', ( #644, #385 ), #322, .T. ) ;
#283 = ORIENTED_EDGE ( 'NONE', *, *, #150, .F. ) ;
#284 = CARTESIAN_POINT ( 'NONE',  ( 0.000000000000000000, 0.000000000000000000, 0.000000000000000000 ) ) ;
#285 = ORIENTED_EDGE ( 'NONE', *, *, #663, .T. ) ;
#286 = CARTESIAN_POINT ( 'NONE',  ( -6.000000000000011546, 0.000000000000000000, -3.464101615137742840 ) ) ;
#287 = APPROVAL_STATUS ( 'not_yet_approved' ) ;
#288 = VERTEX_POINT ( 'NONE', #115 ) ;
#289 = CLOSED_SHELL ( 'NONE', ( #127, #321, #541, #45, #433, #299, #609, #404, #390, #621, #399, #582, #335, #274, #738, #442, #110, #594, #809, #843, #282, #17, #600, #753, #686, #197, #587, #832, #360 ) ) ;
#290 = EDGE_CURVE ( 'NONE', #379, #694, #226, .T. ) ;
#291 = CARTESIAN_POINT ( 'NONE',  ( -5.999999999999987566, 0.000000000000000000, 3.464101615137783252 ) ) ;
#292 = UNCERTAINTY_MEASURE_WITH_UNIT (LENGTH_MEASURE( 1.000000000000000082E-05 ), #556, 'distance_accuracy_value', 'NONE');
#293 = LINE ( 'NONE', #358, #86 ) ;
#294 = VECTOR ( 'NONE', #705, 1000.000000000000227 ) ;
#295 = AXIS2_PLACEMENT_3D ( 'NONE', #660, #604, #536 ) ;
#296 = DATE_TIME_ROLE ( 'creation_date' ) ;
#297 = EDGE_LOOP ( 'NONE', ( #835, #495 ) ) ;
#298 = CARTESIAN_POINT ( 'NONE',  ( 0.000000000000000000, 0.000000000000000000, 0.000000000000000000 ) ) ;
#299 = ADVANCED_FACE ( 'NONE', ( #530 ), #793, .T. ) ;
#300 = LINE ( 'NONE', #837, #131 ) ;
#301 = ORIENTED_EDGE ( 'NONE', *, *, #767, .T. ) ;
#302 = CARTESIAN_POINT ( 'NONE',  ( 0.000000000000000000, 10.00000000000000000, 0.000000000000000000 ) ) ;
#303 = DIRECTION ( 'NONE',  ( -0.000000000000000000, 1.000000000000000000, -0.000000000000000000 ) ) ;
#304 = EDGE_CURVE ( 'NONE', #2, #821, #846, .T. ) ;
#305 = DATE_AND_TIME ( #366, #691 ) ;
#306 = ORIENTED_EDGE ( 'NONE', *, *, #251, .F. ) ;
#307 = CARTESIAN_POINT ( 'NONE',  ( 0.000000000000000000, -0.5000000000000000000, 0.000000000000000000 ) ) ;
#308 = ORIENTED_EDGE ( 'NONE', *, *, #663, .F. ) ;
#309 = CARTESIAN_POINT ( 'NONE',  ( 1.170938346284344789E-14, 7.000000000000000000, -4.336808689942017736E-16 ) ) ;
#310 = EDGE_CURVE ( 'NONE', #770, #220, #245, .T. ) ;
#311 = AXIS2_PLACEMENT_3D ( 'NONE', #407, #534, #143 ) ;
#312 = ORIENTED_EDGE ( 'NONE', *, *, #7, .T. ) ;
#313 =( GEOMETRIC_REPRESENTATION_CONTEXT ( 3 ) GLOBAL_UNCERTAINTY_ASSIGNED_CONTEXT ( ( #292 ) ) GLOBAL_UNIT_ASSIGNED_CONTEXT ( ( #556, #417, #618 ) ) REPRESENTATION_CONTEXT ( 'NONE', 'WORKASPACE' ) );
#314 = PLANE ( 'NONE',  #411 ) ;
#315 = CARTESIAN_POINT ( 'NONE',  ( 0.000000000000000000, 10.00000000000000000, 0.000000000000000000 ) ) ;
#316 = ORIENTED_EDGE ( 'NONE', *, *, #331, .F. ) ;
#317 = PLANE ( 'NONE',  #635 ) ;
#318 = DIRECTION ( 'NONE',  ( -0.000000000000000000, 1.000000000000000000, 0.000000000000000000 ) ) ;
#319 = ORIENTED_EDGE ( 'NONE', *, *, #158, .F. ) ;
#320 = DIRECTION ( 'NONE',  ( -0.8660254037844415942, 0.000000000000000000, -0.4999999999999950595 ) ) ;
#321 = ADVANCED_FACE ( 'NONE', ( #463 ), #389, .T. ) ;
#322 = PLANE ( 'NONE',  #103 ) ;
#323 = DIRECTION ( 'NONE',  ( -0.8660254037844414832, 0.000000000000000000, -0.4999999999999951705 ) ) ;
#324 = EDGE_LOOP ( 'NONE', ( #605, #33 ) ) ;
#325 = AXIS2_PLACEMENT_3D ( 'NONE', #93, #831, #496 ) ;
#326 = VECTOR ( 'NONE', #323, 1000.000000000000000 ) ;
#327 = DIRECTION ( 'NONE',  ( 0.000000000000000000, -1.000000000000000000, 0.000000000000000000 ) ) ;
#328 = CARTESIAN_POINT ( 'NONE',  ( 5.999999999999962697, 0.000000000000000000, -3.464101615137825885 ) ) ;
#329 = ORIENTED_EDGE ( 'NONE', *, *, #386, .F. ) ;
#330 = CARTESIAN_POINT ( 'NONE',  ( 0.000000000000000000, -0.5000000000000000000, 6.000000000000000888 ) ) ;
#331 = EDGE_CURVE ( 'NONE', #787, #288, #381, .T. ) ;
#332 = PLANE ( 'NONE',  #78 ) ;
#333 = ORIENTED_EDGE ( 'NONE', *, *, #713, .F. ) ;
#334 = DIRECTION ( 'NONE',  ( 0.000000000000000000, 0.000000000000000000, 1.000000000000000000 ) ) ;
#335 = ADVANCED_FACE ( 'NONE', ( #721 ), #62, .F. ) ;
#336 = DIRECTION ( 'NONE',  ( 0.000000000000000000, 1.000000000000000000, 0.000000000000000000 ) ) ;
#337 = ORIENTED_EDGE ( 'NONE', *, *, #40, .T. ) ;
#338 = AXIS2_PLACEMENT_3D ( 'NONE', #121, #856, #416 ) ;
#339 = PLANE ( 'NONE',  #364 ) ;
#340 = CYLINDRICAL_SURFACE ( 'NONE', #750, 6.000000000000000888 ) ;
#341 = EDGE_LOOP ( 'NONE', ( #756, #329, #840 ) ) ;
#342 = EDGE_CURVE ( 'NONE', #288, #2, #343, .T. ) ;
#343 = LINE ( 'NONE', #615, #677 ) ;
#344 = CARTESIAN_POINT ( 'NONE',  ( 0.000000000000000000, -0.5000000000000000000, 0.000000000000000000 ) ) ;
#345 = EDGE_LOOP ( 'NONE', ( #85, #64, #645, #285, #221 ) ) ;
#346 = EDGE_CURVE ( 'NONE', #434, #220, #792, .T. ) ;
#347 = DIRECTION ( 'NONE',  ( 3.380207847158600080E-15, 0.000000000000000000, 1.000000000000000000 ) ) ;
#348 = EDGE_LOOP ( 'NONE', ( #50, #712, #561, #202 ) ) ;
#349 = EDGE_CURVE ( 'NONE', #43, #288, #77, .T. ) ;
#350 = LINE ( 'NONE', #26, #687 ) ;
#351 = DIRECTION ( 'NONE',  ( 0.000000000000000000, -1.000000000000000000, 0.000000000000000000 ) ) ;
#352 = VERTEX_POINT ( 'NONE', #330 ) ;
#353 = CARTESIAN_POINT ( 'NONE',  ( -6.000000000000011546, 7.000000000000000000, -3.464101615137742840 ) ) ;
#354 = EDGE_CURVE ( 'NONE', #242, #707, #6, .T. ) ;
#355 = DIRECTION ( 'NONE',  ( 0.000000000000000000, 0.000000000000000000, 1.000000000000000000 ) ) ;
#356 = EDGE_LOOP ( 'NONE', ( #616, #829, #678, #619, #283 ) ) ;
#357 = FACE_OUTER_BOUND ( 'NONE', #628, .T. ) ;
#358 = CARTESIAN_POINT ( 'NONE',  ( 6.000000000000034639, 0.000000000000000000, 3.464101615137700652 ) ) ;
#359 = SHAPE_DEFINITION_REPRESENTATION ( #129, #508 ) ;
#360 = ADVANCED_FACE ( 'NONE', ( #357 ), #148, .T. ) ;
#361 = ORIENTED_EDGE ( 'NONE', *, *, #186, .F. ) ;
#362 = LINE ( 'NONE', #836, #611 ) ;
#363 = LINE ( 'NONE', #842, #773 ) ;
#364 = AXIS2_PLACEMENT_3D ( 'NONE', #271, #752, #153 ) ;
#365 = AXIS2_PLACEMENT_3D ( 'NONE', #154, #623, #88 ) ;
#366 = CALENDAR_DATE ( 2026, 12, 1 ) ;
#367 = VERTEX_POINT ( 'NONE', #265 ) ;
#368 = CC_DESIGN_SECURITY_CLASSIFICATION ( #53, ( #270 ) ) ;
#369 = DIRECTION ( 'NONE',  ( 0.000000000000000000, 0.000000000000000000, -1.000000000000000000 ) ) ;
#370 = EDGE_CURVE ( 'NONE', #815, #382, #37, .T. ) ;
#371 = LINE ( 'NONE', #641, #491 ) ;
#372 = CALENDAR_DATE ( 2026, 12, 1 ) ;
#373 = VERTEX_POINT ( 'NONE', #742 ) ;
#374 = DIRECTION ( 'NONE',  ( 3.380207847158600080E-15, 0.000000000000000000, 1.000000000000000000 ) ) ;
#375 = EDGE_CURVE ( 'NONE', #83, #815, #634, .T. ) ;
#376 = DIRECTION ( 'NONE',  ( 0.8660254037844345998, 0.000000000000000000, -0.5000000000000072164 ) ) ;
#377 = CARTESIAN_POINT ( 'NONE',  ( 0.000000000000000000, -0.5000000000000000000, 0.000000000000000000 ) ) ;
#378 = CYLINDRICAL_SURFACE ( 'NONE', #794, 2.000000000000000000 ) ;
#379 = VERTEX_POINT ( 'NONE', #205 ) ;
#380 = CARTESIAN_POINT ( 'NONE',  ( 0.000000000000000000, 0.000000000000000000, 0.000000000000000000 ) ) ;
#381 = CIRCLE ( 'NONE', #190, 2.000000000000000000 ) ;
#382 = VERTEX_POINT ( 'NONE', #538 ) ;
#383 = AXIS2_PLACEMENT_3D ( 'NONE', #56, #505, #711 ) ;
#384 = DIRECTION ( 'NONE',  ( 0.000000000000000000, 1.000000000000000000, 0.000000000000000000 ) ) ;
#385 = FACE_OUTER_BOUND ( 'NONE', #249, .T. ) ;
#386 = EDGE_CURVE ( 'NONE', #123, #815, #140, .T. ) ;
#387 = ORIENTED_EDGE ( 'NONE', *, *, #70, .T. ) ;
#388 = LINE ( 'NONE', #858, #24 ) ;
#389 = CYLINDRICAL_SURFACE ( 'NONE', #830, 2.000000000000000000 ) ;
#390 = ADVANCED_FACE ( 'NONE', ( #668 ), #813, .F. ) ;
#391 = CARTESIAN_POINT ( 'NONE',  ( 0.000000000000000000, -8.499999999999994671, 0.000000000000000000 ) ) ;
#392 = ORIENTED_EDGE ( 'NONE', *, *, #775, .F. ) ;
#393 = PRODUCT ( '753124.036 стойка', '753124.036 стойка', '', ( #744 ) ) ;
#394 = VECTOR ( 'NONE', #225, 1000.000000000000000 ) ;
#395 = DIRECTION ( 'NONE',  ( 0.000000000000000000, -0.000000000000000000, 1.000000000000000000 ) ) ;
#396 = VECTOR ( 'NONE', #580, 1000.000000000000000 ) ;
#397 = DIRECTION ( 'NONE',  ( -0.4999999999999951705, 0.000000000000000000, 0.8660254037844414832 ) ) ;
#398 = LOCAL_TIME ( 15, 9, 56.00000000000000000, #769 ) ;
#399 = ADVANCED_FACE ( 'NONE', ( #612 ), #73, .F. ) ;
#400 = DIRECTION ( 'NONE',  ( 0.000000000000000000, 0.000000000000000000, 1.000000000000000000 ) ) ;
#401 = DIRECTION ( 'NONE',  ( 0.000000000000000000, 0.000000000000000000, 1.000000000000000000 ) ) ;
#402 = VERTEX_POINT ( 'NONE', #275 ) ;
#403 = CYLINDRICAL_SURFACE ( 'NONE', #280, 4.500000000000000000 ) ;
#404 = ADVANCED_FACE ( 'NONE', ( #562 ), #339, .F. ) ;
#405 = LINE ( 'NONE', #799, #326 ) ;
#406 = ORIENTED_EDGE ( 'NONE', *, *, #241, .F. ) ;
#407 = CARTESIAN_POINT ( 'NONE',  ( 0.000000000000000000, 0.000000000000000000, 0.000000000000000000 ) ) ;
#408 = CARTESIAN_POINT ( 'NONE',  ( 0.000000000000000000, 9.499999999999996447, 2.000000000000000000 ) ) ;
#409 = VERTEX_POINT ( 'NONE', #739 ) ;
#410 = VECTOR ( 'NONE', #277, 1000.000000000000000 ) ;
#411 = AXIS2_PLACEMENT_3D ( 'NONE', #298, #639, #850 ) ;
#412 = DIRECTION ( 'NONE',  ( -0.5000000000000072164, 0.000000000000000000, -0.8660254037844345998 ) ) ;
#413 = CARTESIAN_POINT ( 'NONE',  ( 0.000000000000000000, 10.00000000000000000, 2.500000000000009326 ) ) ;
#414 = EDGE_CURVE ( 'NONE', #710, #75, #217, .T. ) ;
#415 = EDGE_LOOP ( 'NONE', ( #852, #29 ) ) ;
#416 = DIRECTION ( 'NONE',  ( 0.000000000000000000, -0.000000000000000000, 1.000000000000000000 ) ) ;
#417 =( NAMED_UNIT ( * ) PLANE_ANGLE_UNIT ( ) SI_UNIT ( $, .RADIAN. ) );
#418 = ORIENTED_EDGE ( 'NONE', *, *, #70, .F. ) ;
#419 = FACE_OUTER_BOUND ( 'NONE', #765, .T. ) ;
#420 = ORIENTED_EDGE ( 'NONE', *, *, #700, .T. ) ;
#421 = VECTOR ( 'NONE', #777, 1000.000000000000000 ) ;
#422 = PERSON ( 'UNSPECIFIED', 'UNSPECIFIED', 'UNSPECIFIED', ('UNSPECIFIED'), ('UNSPECIFIED'), ('UNSPECIFIED') ) ;
#423 = VECTOR ( 'NONE', #547, 1000.000000000000000 ) ;
#424 = FACE_OUTER_BOUND ( 'NONE', #859, .T. ) ;
#425 = FACE_OUTER_BOUND ( 'NONE', #297, .T. ) ;
#426 = EDGE_LOOP ( 'NONE', ( #418, #36, #55, #312 ) ) ;
#427 = EDGE_CURVE ( 'NONE', #655, #43, #861, .T. ) ;
#428 = DIRECTION ( 'NONE',  ( -0.000000000000000000, 1.000000000000000000, -0.000000000000000000 ) ) ;
#429 = ORIENTED_EDGE ( 'NONE', *, *, #860, .F. ) ;
#430 = LINE ( 'NONE', #584, #535 ) ;
#431 = DIRECTION ( 'NONE',  ( -0.000000000000000000, 1.000000000000000000, -0.000000000000000000 ) ) ;
#432 = APPROVAL ( #287, 'UNSPECIFIED' ) ;
#433 = ADVANCED_FACE ( 'NONE', ( #147 ), #403, .T. ) ;
#434 = VERTEX_POINT ( 'NONE', #10 ) ;
#435 = DIRECTION ( 'NONE',  ( 0.000000000000000000, -1.000000000000000000, 0.000000000000000000 ) ) ;
#436 = AXIS2_PLACEMENT_3D ( 'NONE', #585, #847, #648 ) ;
#437 = DIRECTION ( 'NONE',  ( 0.000000000000000000, 1.000000000000000000, 0.000000000000000000 ) ) ;
#438 = AXIS2_PLACEMENT_3D ( 'NONE', #54, #327, #714 ) ;
#439 = VECTOR ( 'NONE', #177, 1000.000000000000000 ) ;
#440 = PERSON_AND_ORGANIZATION_ROLE ( 'creator' ) ;
#441 = ORIENTED_EDGE ( 'NONE', *, *, #169, .T. ) ;
#442 = ADVANCED_FACE ( 'NONE', ( #475 ), #81, .F. ) ;
#443 = DIRECTION ( 'NONE',  ( 0.000000000000000000, -0.000000000000000000, 1.000000000000000000 ) ) ;
#444 = DIRECTION ( 'NONE',  ( 0.000000000000000000, 0.000000000000000000, 1.000000000000000000 ) ) ;
#445 = ORIENTED_EDGE ( 'NONE', *, *, #557, .F. ) ;
#446 = CARTESIAN_POINT ( 'NONE',  ( 0.000000000000000000, -9.000000000000001776, 0.000000000000000000 ) ) ;
#447 = DESIGN_CONTEXT ( 'detailed design', #525, 'design' ) ;
#448 = LINE ( 'NONE', #520, #269 ) ;
#449 = PERSON_AND_ORGANIZATION ( #422, #581 ) ;
#450 = CARTESIAN_POINT ( 'NONE',  ( 0.000000000000000000, 7.000000000000000000, 4.500000000000000000 ) ) ;
#451 = CARTESIAN_POINT ( 'NONE',  ( 2.449293598294706414E-16, -0.5000000000000000000, -2.000000000000000000 ) ) ;
#452 = ORIENTED_EDGE ( 'NONE', *, *, #342, .F. ) ;
#453 = DIRECTION ( 'NONE',  ( 0.000000000000000000, 0.000000000000000000, 1.000000000000000000 ) ) ;
#454 = CIRCLE ( 'NONE', #134, 6.000000000000000888 ) ;
#455 = CARTESIAN_POINT ( 'NONE',  ( 0.000000000000000000, 7.000000000000000000, 0.000000000000000000 ) ) ;
#456 = VECTOR ( 'NONE', #652, 999.9999999999998863 ) ;
#457 = LINE ( 'NONE', #724, #149 ) ;
#458 = LINE ( 'NONE', #262, #703 ) ;
#459 = EDGE_CURVE ( 'NONE', #152, #102, #247, .T. ) ;
#460 = EDGE_LOOP ( 'NONE', ( #737, #254, #638, #624 ) ) ;
#461 = LINE ( 'NONE', #126, #12 ) ;
#462 = ORIENTED_EDGE ( 'NONE', *, *, #557, .T. ) ;
#463 = FACE_OUTER_BOUND ( 'NONE', #185, .T. ) ;
#464 = CC_DESIGN_PERSON_AND_ORGANIZATION_ASSIGNMENT ( #764, #95, ( #270 ) ) ;
#465 = LINE ( 'NONE', #328, #39 ) ;
#466 = FACE_OUTER_BOUND ( 'NONE', #485, .T. ) ;
#467 = VECTOR ( 'NONE', #851, 1000.000000000000114 ) ;
#468 = DIRECTION ( 'NONE',  ( 0.000000000000000000, 0.000000000000000000, 1.000000000000000000 ) ) ;
#469 = ORIENTED_EDGE ( 'NONE', *, *, #478, .T. ) ;
#470 = CC_DESIGN_APPROVAL ( #432, ( #798 ) ) ;
#471 = EDGE_CURVE ( 'NONE', #598, #47, #173, .T. ) ;
#472 = DIRECTION ( 'NONE',  ( 1.000000000000000000, 0.000000000000000000, -3.380207847158600080E-15 ) ) ;
#473 = CARTESIAN_POINT ( 'NONE',  ( 0.000000000000000000, -9.000000000000001776, 0.000000000000000000 ) ) ;
#474 = ORIENTED_EDGE ( 'NONE', *, *, #527, .T. ) ;
#475 = FACE_OUTER_BOUND ( 'NONE', #341, .T. ) ;
#476 = ORIENTED_EDGE ( 'NONE', *, *, #370, .T. ) ;
#477 = DIRECTION ( 'NONE',  ( -3.380207847158600080E-15, 0.000000000000000000, -1.000000000000000000 ) ) ;
#478 = EDGE_CURVE ( 'NONE', #75, #152, #778, .T. ) ;
#479 = APPLICATION_PROTOCOL_DEFINITION ( 'international standard', 'config_control_design', 1994, #525 ) ;
#480 = ORIENTED_EDGE ( 'NONE', *, *, #169, .F. ) ;
#481 = AXIS2_PLACEMENT_3D ( 'NONE', #542, #34, #334 ) ;
#482 = AXIS2_PLACEMENT_3D ( 'NONE', #344, #351, #28 ) ;
#483 = CARTESIAN_POINT ( 'NONE',  ( 0.000000000000000000, -9.000000000000001776, 0.000000000000000000 ) ) ;
#484 = CARTESIAN_POINT ( 'NONE',  ( 6.000000000000034639, 0.000000000000000000, 3.464101615137700652 ) ) ;
#485 = EDGE_LOOP ( 'NONE', ( #61, #575, #701 ) ) ;
#486 = ORIENTED_EDGE ( 'NONE', *, *, #592, .T. ) ;
#487 = FACE_OUTER_BOUND ( 'NONE', #548, .T. ) ;
#488 = CARTESIAN_POINT ( 'NONE',  ( 1.836970198721027222E-16, -9.000000000000001776, -1.499999999999997780 ) ) ;
#489 = ORIENTED_EDGE ( 'NONE', *, *, #767, .F. ) ;
#490 = EDGE_CURVE ( 'NONE', #152, #83, #506, .T. ) ;
#491 = VECTOR ( 'NONE', #303, 1000.000000000000000 ) ;
#492 = AXIS2_PLACEMENT_3D ( 'NONE', #263, #532, #468 ) ;
#493 = CARTESIAN_POINT ( 'NONE',  ( 7.347880794884120722E-16, -0.5000000000000000000, -6.000000000000000888 ) ) ;
#494 = PERSON_AND_ORGANIZATION ( #422, #581 ) ;
#495 = ORIENTED_EDGE ( 'NONE', *, *, #614, .T. ) ;
#496 = DIRECTION ( 'NONE',  ( 0.000000000000000000, -0.000000000000000000, 1.000000000000000000 ) ) ;
#497 = CARTESIAN_POINT ( 'NONE',  ( 5.999999999999999112, 0.000000000000000000, -6.234605584759195711E-14 ) ) ;
#498 = CALENDAR_DATE ( 2026, 12, 1 ) ;
#499 = ORIENTED_EDGE ( 'NONE', *, *, #531, .T. ) ;
#500 = CARTESIAN_POINT ( 'NONE',  ( -6.000000000000011546, 0.000000000000000000, -3.464101615137742840 ) ) ;
#501 = CARTESIAN_POINT ( 'NONE',  ( 0.000000000000000000, -9.000000000000001776, 2.000000000000000000 ) ) ;
#502 = EDGE_CURVE ( 'NONE', #658, #694, #180, .T. ) ;
#503 = COORDINATED_UNIVERSAL_TIME_OFFSET ( 3, 0, .AHEAD. ) ;
#504 = EDGE_LOOP ( 'NONE', ( #406, #854, #441, #264, #445 ) ) ;
#505 = DIRECTION ( 'NONE',  ( -1.000000000000000000, 0.000000000000000000, 1.039100930793199338E-14 ) ) ;
#506 = CIRCLE ( 'NONE', #620, 6.000000000000000888 ) ;
#507 = CARTESIAN_POINT ( 'NONE',  ( 5.999999999999962697, 0.000000000000000000, -3.464101615137825885 ) ) ;
#508 = ADVANCED_BREP_SHAPE_REPRESENTATION ( '753124.036 ёЄющър', ( #593, #550 ), #313 ) ;
#509 = CIRCLE ( 'NONE', #176, 2.000000000000000000 ) ;
#510 = APPROVAL ( #232, 'UNSPECIFIED' ) ;
#511 = ORIENTED_EDGE ( 'NONE', *, *, #743, .T. ) ;
#512 = DIRECTION ( 'NONE',  ( 0.000000000000000000, 0.7071067811865439090, 0.7071067811865512365 ) ) ;
#513 = DIRECTION ( 'NONE',  ( 0.000000000000000000, 0.000000000000000000, -1.000000000000000000 ) ) ;
#514 = DIRECTION ( 'NONE',  ( 0.000000000000000000, -1.000000000000000000, 0.000000000000000000 ) ) ;
#515 = CARTESIAN_POINT ( 'NONE',  ( 4.837938458043933716E-14, 0.000000000000000000, 6.928203230275513214 ) ) ;
#516 = DIRECTION ( 'NONE',  ( 0.000000000000000000, 1.000000000000000000, 0.000000000000000000 ) ) ;
#517 = DIRECTION ( 'NONE',  ( -0.000000000000000000, 1.000000000000000000, -0.000000000000000000 ) ) ;
#518 = FACE_OUTER_BOUND ( 'NONE', #155, .T. ) ;
#519 = EDGE_CURVE ( 'NONE', #787, #821, #697, .T. ) ;
#520 = CARTESIAN_POINT ( 'NONE',  ( -5.999999999999987566, 0.000000000000000000, 3.464101615137783252 ) ) ;
#521 = VECTOR ( 'NONE', #3, 1000.000000000000000 ) ;
#522 = DIRECTION ( 'NONE',  ( 0.000000000000000000, 0.000000000000000000, 1.000000000000000000 ) ) ;
#523 = AXIS2_PLACEMENT_3D ( 'NONE', #791, #601, #4 ) ;
#524 = CARTESIAN_POINT ( 'NONE',  ( 4.837938458043933716E-14, 7.000000000000000000, 6.928203230275513214 ) ) ;
#525 = APPLICATION_CONTEXT ( 'configuration controlled 3d designs of mechanical parts and assemblies' ) ;
#526 = CARTESIAN_POINT ( 'NONE',  ( 0.000000000000000000, -0.5000000000000000000, 0.000000000000000000 ) ) ;
#527 = EDGE_CURVE ( 'NONE', #20, #379, #430, .T. ) ;
#528 = DIRECTION ( 'NONE',  ( -0.8660254037844414832, 0.000000000000000000, -0.4999999999999951705 ) ) ;
#529 = ORIENTED_EDGE ( 'NONE', *, *, #158, .T. ) ;
#530 = FACE_OUTER_BOUND ( 'NONE', #9, .T. ) ;
#531 = EDGE_CURVE ( 'NONE', #382, #123, #48, .T. ) ;
#532 = DIRECTION ( 'NONE',  ( -0.000000000000000000, 1.000000000000000000, -0.000000000000000000 ) ) ;
#533 = ORIENTED_EDGE ( 'NONE', *, *, #96, .F. ) ;
#534 = DIRECTION ( 'NONE',  ( 0.000000000000000000, -1.000000000000000000, 0.000000000000000000 ) ) ;
#535 = VECTOR ( 'NONE', #109, 1000.000000000000000 ) ;
#536 = DIRECTION ( 'NONE',  ( 0.000000000000000000, -0.000000000000000000, 1.000000000000000000 ) ) ;
#537 = ORIENTED_EDGE ( 'NONE', *, *, #181, .F. ) ;
#538 = CARTESIAN_POINT ( 'NONE',  ( -6.000000000000000000, 0.000000000000000000, 2.028124708295160127E-14 ) ) ;
#539 = CARTESIAN_POINT ( 'NONE',  ( 0.000000000000000000, -9.000000000000001776, 0.000000000000000000 ) ) ;
#540 = EDGE_LOOP ( 'NONE', ( #194, #207 ) ) ;
#541 = ADVANCED_FACE ( 'NONE', ( #845 ), #722, .F. ) ;
#542 = CARTESIAN_POINT ( 'NONE',  ( 0.000000000000000000, 3.000000000000000000, 0.000000000000000000 ) ) ;
#543 = LINE ( 'NONE', #488, #735 ) ;
#544 = ORIENTED_EDGE ( 'NONE', *, *, #133, .F. ) ;
#545 = DIRECTION ( 'NONE',  ( -0.000000000000000000, 1.000000000000000000, -0.000000000000000000 ) ) ;
#546 = EDGE_CURVE ( 'NONE', #175, #25, #362, .T. ) ;
#547 = DIRECTION ( 'NONE',  ( -1.039100930793199338E-14, 0.000000000000000000, -1.000000000000000000 ) ) ;
#548 = EDGE_LOOP ( 'NONE', ( #651, #489, #319 ) ) ;
#549 = AXIS2_PLACEMENT_3D ( 'NONE', #69, #804, #603 ) ;
#550 = AXIS2_PLACEMENT_3D ( 'NONE', #79, #355, #210 ) ;
#551 = AXIS2_PLACEMENT_3D ( 'NONE', #702, #384, #38 ) ;
#552 = EDGE_CURVE ( 'NONE', #770, #373, #822, .T. ) ;
#553 = PLANE ( 'NONE',  #257 ) ;
#554 = ORIENTED_EDGE ( 'NONE', *, *, #838, .T. ) ;
#555 = CARTESIAN_POINT ( 'NONE',  ( 0.000000000000000000, -0.5000000000000000000, 2.000000000000000000 ) ) ;
#556 =( LENGTH_UNIT ( ) NAMED_UNIT ( * ) SI_UNIT ( .MILLI., .METRE. ) );
#557 = EDGE_CURVE ( 'NONE', #409, #102, #588, .T. ) ;
#558 = ORIENTED_EDGE ( 'NONE', *, *, #290, .T. ) ;
#559 = DIRECTION ( 'NONE',  ( -0.000000000000000000, 1.000000000000000000, -0.000000000000000000 ) ) ;
#560 = CALENDAR_DATE ( 2026, 12, 1 ) ;
#561 = ORIENTED_EDGE ( 'NONE', *, *, #290, .F. ) ;
#562 = FACE_OUTER_BOUND ( 'NONE', #718, .T. ) ;
#563 = AXIS2_PLACEMENT_3D ( 'NONE', #315, #196, #599 ) ;
#564 = AXIS2_PLACEMENT_3D ( 'NONE', #667, #137, #67 ) ;
#565 = DIRECTION ( 'NONE',  ( -0.000000000000000000, -1.000000000000000000, -0.000000000000000000 ) ) ;
#566 = DATE_AND_TIME ( #715, #398 ) ;
#567 = ORIENTED_EDGE ( 'NONE', *, *, #104, .F. ) ;
#568 = DIRECTION ( 'NONE',  ( 0.000000000000000000, 0.000000000000000000, -1.000000000000000000 ) ) ;
#569 = DIRECTION ( 'NONE',  ( -1.039100930793199338E-14, 0.000000000000000000, -1.000000000000000000 ) ) ;
#570 = DATE_TIME_ROLE ( 'classification_date' ) ;
#571 = ORIENTED_EDGE ( 'NONE', *, *, #181, .T. ) ;
#572 = CARTESIAN_POINT ( 'NONE',  ( 0.000000000000000000, -9.000000000000001776, 0.000000000000000000 ) ) ;
#573 = LINE ( 'NONE', #182, #521 ) ;
#574 = COORDINATED_UNIVERSAL_TIME_OFFSET ( 3, 0, .AHEAD. ) ;
#575 = ORIENTED_EDGE ( 'NONE', *, *, #40, .F. ) ;
#576 = AXIS2_PLACEMENT_3D ( 'NONE', #630, #768, #159 ) ;
#577 = CARTESIAN_POINT ( 'NONE',  ( 5.510910596163088569E-16, 7.000000000000000000, -4.500000000000000000 ) ) ;
#578 = ORIENTED_EDGE ( 'NONE', *, *, #342, .T. ) ;
#579 = AXIS2_PLACEMENT_3D ( 'NONE', #671, #472, #477 ) ;
#580 = DIRECTION ( 'NONE',  ( -0.000000000000000000, 1.000000000000000000, -0.000000000000000000 ) ) ;
#581 = ORGANIZATION ( 'UNSPECIFIED', 'UNSPECIFIED', '' ) ;
#582 = ADVANCED_FACE ( 'NONE', ( #244 ), #643, .F. ) ;
#583 = FACE_OUTER_BOUND ( 'NONE', #812, .T. ) ;
#584 = CARTESIAN_POINT ( 'NONE',  ( 0.000000000000000000, 7.000000000000000000, 4.500000000000000000 ) ) ;
#585 = CARTESIAN_POINT ( 'NONE',  ( 0.000000000000000000, 10.00000000000000000, 0.000000000000000000 ) ) ;
#586 = EDGE_LOOP ( 'NONE', ( #558, #554 ) ) ;
#587 = ADVANCED_FACE ( 'NONE', ( #783 ), #378, .T. ) ;
#588 = LINE ( 'NONE', #766, #439 ) ;
#589 = DIRECTION ( 'NONE',  ( -0.000000000000000000, 1.000000000000000000, -0.000000000000000000 ) ) ;
#590 = CYLINDRICAL_SURFACE ( 'NONE', #674, 4.500000000000000000 ) ;
#591 = CARTESIAN_POINT ( 'NONE',  ( 5.999999999999962697, 10.00000000000000000, -3.464101615137825885 ) ) ;
#592 = EDGE_CURVE ( 'NONE', #781, #128, #51, .T. ) ;
#593 = MANIFOLD_SOLID_BREP ( 'Фаска2', #289 ) ;
#594 = ADVANCED_FACE ( 'NONE', ( #633 ), #314, .F. ) ;
#595 = CARTESIAN_POINT ( 'NONE',  ( 0.000000000000000000, 9.499999999999996447, 0.000000000000000000 ) ) ;
#596 = AXIS2_PLACEMENT_3D ( 'NONE', #688, #820, #272 ) ;
#597 = DIRECTION ( 'NONE',  ( 0.000000000000000000, 0.000000000000000000, -1.000000000000000000 ) ) ;
#598 = VERTEX_POINT ( 'NONE', #451 ) ;
#599 = DIRECTION ( 'NONE',  ( 0.000000000000000000, 0.000000000000000000, 1.000000000000000000 ) ) ;
#600 = ADVANCED_FACE ( 'NONE', ( #771, #44 ), #317, .T. ) ;
#601 = DIRECTION ( 'NONE',  ( 0.000000000000000000, 1.000000000000000000, 0.000000000000000000 ) ) ;
#602 = ORIENTED_EDGE ( 'NONE', *, *, #304, .F. ) ;
#603 = DIRECTION ( 'NONE',  ( 0.000000000000000000, 0.000000000000000000, -1.000000000000000000 ) ) ;
#604 = DIRECTION ( 'NONE',  ( 0.000000000000000000, 1.000000000000000000, 0.000000000000000000 ) ) ;
#605 = ORIENTED_EDGE ( 'NONE', *, *, #7, .F. ) ;
#606 = CARTESIAN_POINT ( 'NONE',  ( 0.000000000000000000, 7.000000000000000000, 0.000000000000000000 ) ) ;
#607 = CIRCLE ( 'NONE', #438, 6.000000000000000888 ) ;
#608 = FACE_OUTER_BOUND ( 'NONE', #653, .T. ) ;
#609 = ADVANCED_FACE ( 'NONE', ( #238 ), #332, .F. ) ;
#610 = VERTEX_POINT ( 'NONE', #801 ) ;
#611 = VECTOR ( 'NONE', #113, 1000.000000000000114 ) ;
#612 = FACE_OUTER_BOUND ( 'NONE', #504, .T. ) ;
#613 = ORIENTED_EDGE ( 'NONE', *, *, #349, .F. ) ;
#614 = EDGE_CURVE ( 'NONE', #97, #352, #779, .T. ) ;
#615 = CARTESIAN_POINT ( 'NONE',  ( 2.449293598294706414E-16, 9.499999999999996447, -2.000000000000000000 ) ) ;
#616 = ORIENTED_EDGE ( 'NONE', *, *, #354, .F. ) ;
#617 = CIRCLE ( 'NONE', #803, 6.000000000000000888 ) ;
#618 =( NAMED_UNIT ( * ) SI_UNIT ( $, .STERADIAN. ) SOLID_ANGLE_UNIT ( ) );
#619 = ORIENTED_EDGE ( 'NONE', *, *, #251, .T. ) ;
#620 = AXIS2_PLACEMENT_3D ( 'NONE', #105, #98, #171 ) ;
#621 = ADVANCED_FACE ( 'NONE', ( #656 ), #141, .F. ) ;
#622 = LINE ( 'NONE', #164, #266 ) ;
#623 = DIRECTION ( 'NONE',  ( 0.000000000000000000, 1.000000000000000000, 0.000000000000000000 ) ) ;
#624 = ORIENTED_EDGE ( 'NONE', *, *, #310, .F. ) ;
#625 = CARTESIAN_POINT ( 'NONE',  ( 0.000000000000000000, 10.00000000000000000, 0.000000000000000000 ) ) ;
#626 = CC_DESIGN_DATE_AND_TIME_ASSIGNMENT ( #566, #296, ( #798 ) ) ;
#627 = PERSON_AND_ORGANIZATION_ROLE ( 'design_supplier' ) ;
#628 = EDGE_LOOP ( 'NONE', ( #162, #215, #246, #229 ) ) ;
#629 = DIRECTION ( 'NONE',  ( -0.8660254037844344888, 0.000000000000000000, 0.5000000000000071054 ) ) ;
#630 = CARTESIAN_POINT ( 'NONE',  ( 0.000000000000000000, -9.000000000000001776, 0.000000000000000000 ) ) ;
#631 = VERTEX_POINT ( 'NONE', #807 ) ;
#632 = EDGE_CURVE ( 'NONE', #220, #434, #509, .T. ) ;
#633 = FACE_OUTER_BOUND ( 'NONE', #89, .T. ) ;
#634 = CIRCLE ( 'NONE', #805, 6.000000000000000888 ) ;
#635 = AXIS2_PLACEMENT_3D ( 'NONE', #302, #841, #443 ) ;
#636 = CARTESIAN_POINT ( 'NONE',  ( 0.000000000000000000, 0.000000000000000000, 6.000000000000000888 ) ) ;
#637 = DATE_AND_TIME ( #498, #751 ) ;
#638 = ORIENTED_EDGE ( 'NONE', *, *, #632, .F. ) ;
#639 = DIRECTION ( 'NONE',  ( 0.000000000000000000, 1.000000000000000000, 0.000000000000000000 ) ) ;
#640 = CC_DESIGN_PERSON_AND_ORGANIZATION_ASSIGNMENT ( #828, #627, ( #270 ) ) ;
#641 = CARTESIAN_POINT ( 'NONE',  ( 0.000000000000000000, -0.5000000000000000000, 6.000000000000000888 ) ) ;
#642 = ORIENTED_EDGE ( 'NONE', *, *, #259, .F. ) ;
#643 = PLANE ( 'NONE',  #383 ) ;
#644 = FACE_BOUND ( 'NONE', #415, .T. ) ;
#645 = ORIENTED_EDGE ( 'NONE', *, *, #133, .T. ) ;
#646 = DIRECTION ( 'NONE',  ( 0.000000000000000000, 0.000000000000000000, 1.000000000000000000 ) ) ;
#647 = VECTOR ( 'NONE', #374, 1000.000000000000000 ) ;
#648 = DIRECTION ( 'NONE',  ( 0.000000000000000000, 0.000000000000000000, 1.000000000000000000 ) ) ;
#649 = AXIS2_PLACEMENT_3D ( 'NONE', #731, #63, #320 ) ;
#650 = EDGE_CURVE ( 'NONE', #373, #770, #87, .T. ) ;
#651 = ORIENTED_EDGE ( 'NONE', *, *, #193, .F. ) ;
#652 = DIRECTION ( 'NONE',  ( -0.8660254037844380415, 0.000000000000000000, 0.5000000000000012212 ) ) ;
#653 = EDGE_LOOP ( 'NONE', ( #613, #826, #741, #80 ) ) ;
#654 = CARTESIAN_POINT ( 'NONE',  ( 0.000000000000000000, -8.499999999999994671, 2.000000000000000000 ) ) ;
#655 = VERTEX_POINT ( 'NONE', #124 ) ;
#656 = FACE_OUTER_BOUND ( 'NONE', #356, .T. ) ;
#657 = EDGE_CURVE ( 'NONE', #781, #175, #388, .T. ) ;
#658 = VERTEX_POINT ( 'NONE', #250 ) ;
#659 = PLANE ( 'NONE',  #734 ) ;
#660 = CARTESIAN_POINT ( 'NONE',  ( 0.000000000000000000, 3.000000000000000000, 0.000000000000000000 ) ) ;
#661 = ORIENTED_EDGE ( 'NONE', *, *, #375, .F. ) ;
#662 = AXIS2_PLACEMENT_3D ( 'NONE', #377, #514, #188 ) ;
#663 = EDGE_CURVE ( 'NONE', #710, #175, #465, .T. ) ;
#664 = DIRECTION ( 'NONE',  ( 0.000000000000000000, 1.000000000000000000, 0.000000000000000000 ) ) ;
#665 = AXIS2_PLACEMENT_3D ( 'NONE', #307, #435, #717 ) ;
#666 = VECTOR ( 'NONE', #669, 1000.000000000000000 ) ;
#667 = CARTESIAN_POINT ( 'NONE',  ( 0.000000000000000000, -0.5000000000000000000, 0.000000000000000000 ) ) ;
#668 = FACE_OUTER_BOUND ( 'NONE', #685, .T. ) ;
#669 = DIRECTION ( 'NONE',  ( 3.380207847158600080E-15, 0.000000000000000000, 1.000000000000000000 ) ) ;
#670 = ORIENTED_EDGE ( 'NONE', *, *, #838, .F. ) ;
#671 = CARTESIAN_POINT ( 'NONE',  ( -6.000000000000011546, 10.00000000000000000, -3.464101615137742840 ) ) ;
#672 = FACE_OUTER_BOUND ( 'NONE', #540, .T. ) ;
#673 = ORIENTED_EDGE ( 'NONE', *, *, #259, .T. ) ;
#674 = AXIS2_PLACEMENT_3D ( 'NONE', #849, #517, #183 ) ;
#675 = CARTESIAN_POINT ( 'NONE',  ( 0.000000000000000000, 0.000000000000000000, 0.000000000000000000 ) ) ;
#676 = EDGE_CURVE ( 'NONE', #43, #655, #227, .T. ) ;
#677 = VECTOR ( 'NONE', #18, 1000.000000000000000 ) ;
#678 = ORIENTED_EDGE ( 'NONE', *, *, #386, .T. ) ;
#679 = AXIS2_PLACEMENT_3D ( 'NONE', #198, #267, #401 ) ;
#680 = DIRECTION ( 'NONE',  ( -0.000000000000000000, 1.000000000000000000, -0.000000000000000000 ) ) ;
#681 = DIRECTION ( 'NONE',  ( 0.000000000000000000, -1.000000000000000000, 0.000000000000000000 ) ) ;
#682 = ORIENTED_EDGE ( 'NONE', *, *, #657, .T. ) ;
#683 = CARTESIAN_POINT ( 'NONE',  ( 4.837938458043933716E-14, 10.00000000000000000, 6.928203230275513214 ) ) ;
#684 = CARTESIAN_POINT ( 'NONE',  ( 0.000000000000000000, 7.000000000000000000, -6.928203230275514102 ) ) ;
#685 = EDGE_LOOP ( 'NONE', ( #392, #511, #301, #499, #533 ) ) ;
#686 = ADVANCED_FACE ( 'NONE', ( #672 ), #132, .T. ) ;
#687 = VECTOR ( 'NONE', #780, 1000.000000000000000 ) ;
#688 = CARTESIAN_POINT ( 'NONE',  ( 0.000000000000000000, 7.000000000000000000, 0.000000000000000000 ) ) ;
#689 = ORIENTED_EDGE ( 'NONE', *, *, #546, .F. ) ;
#690 = AXIS2_PLACEMENT_3D ( 'NONE', #15, #216, #230 ) ;
#691 = LOCAL_TIME ( 15, 9, 56.00000000000000000, #42 ) ;
#692 = DIRECTION ( 'NONE',  ( 0.000000000000000000, -0.000000000000000000, 1.000000000000000000 ) ) ;
#693 = DIRECTION ( 'NONE',  ( 0.000000000000000000, 0.000000000000000000, 1.000000000000000000 ) ) ;
#694 = VERTEX_POINT ( 'NONE', #255 ) ;
#695 = DIRECTION ( 'NONE',  ( 0.000000000000000000, 0.000000000000000000, 1.000000000000000000 ) ) ;
#696 = ORIENTED_EDGE ( 'NONE', *, *, #490, .T. ) ;
#697 = LINE ( 'NONE', #708, #52 ) ;
#698 = CARTESIAN_POINT ( 'NONE',  ( 3.000000000000041744, 0.000000000000000000, 5.196152422706605378 ) ) ;
#699 = DATE_AND_TIME ( #372, #161 ) ;
#700 = EDGE_CURVE ( 'NONE', #367, #781, #405, .T. ) ;
#701 = ORIENTED_EDGE ( 'NONE', *, *, #459, .F. ) ;
#702 = CARTESIAN_POINT ( 'NONE',  ( 0.000000000000000000, 9.499999999999996447, 0.000000000000000000 ) ) ;
#703 = VECTOR ( 'NONE', #376, 999.9999999999998863 ) ;
#704 = AXIS2_PLACEMENT_3D ( 'NONE', #278, #84, #693 ) ;
#705 = DIRECTION ( 'NONE',  ( 0.8660254037844344888, 0.000000000000000000, -0.5000000000000071054 ) ) ;
#706 = APPROVAL_ROLE ( '' ) ;
#707 = VERTEX_POINT ( 'NONE', #524 ) ;
#708 = CARTESIAN_POINT ( 'NONE',  ( 0.000000000000000000, 9.499999999999996447, 2.000000000000000000 ) ) ;
#709 = APPROVAL_ROLE ( '' ) ;
#710 = VERTEX_POINT ( 'NONE', #727 ) ;
#711 = DIRECTION ( 'NONE',  ( 1.039100930793199338E-14, 0.000000000000000000, 1.000000000000000000 ) ) ;
#712 = ORIENTED_EDGE ( 'NONE', *, *, #502, .T. ) ;
#713 = EDGE_CURVE ( 'NONE', #409, #367, #796, .T. ) ;
#714 = DIRECTION ( 'NONE',  ( 0.000000000000000000, 0.000000000000000000, -1.000000000000000000 ) ) ;
#715 = CALENDAR_DATE ( 2026, 12, 1 ) ;
#716 = ORIENTED_EDGE ( 'NONE', *, *, #546, .T. ) ;
#717 = DIRECTION ( 'NONE',  ( 0.000000000000000000, 0.000000000000000000, -1.000000000000000000 ) ) ;
#718 = EDGE_LOOP ( 'NONE', ( #157, #682, #716, #529, #726 ) ) ;
#719 = CONICAL_SURFACE ( 'NONE', #119, 2.000000000000000000, 0.7853981633974533860 ) ;
#720 = CC_DESIGN_PERSON_AND_ORGANIZATION_ASSIGNMENT ( #814, #214, ( #393 ) ) ;
#721 = FACE_OUTER_BOUND ( 'NONE', #112, .T. ) ;
#722 = CONICAL_SURFACE ( 'NONE', #551, 2.000000000000000000, 0.7853981633974533860 ) ;
#723 = ORIENTED_EDGE ( 'NONE', *, *, #349, .T. ) ;
#724 = CARTESIAN_POINT ( 'NONE',  ( -6.000000000000011546, 7.000000000000000000, -3.464101615137742840 ) ) ;
#725 = DIRECTION ( 'NONE',  ( 0.000000000000000000, 0.000000000000000000, 1.000000000000000000 ) ) ;
#726 = ORIENTED_EDGE ( 'NONE', *, *, #743, .F. ) ;
#727 = CARTESIAN_POINT ( 'NONE',  ( 2.999999999999971134, 0.000000000000000000, -5.196152422706648899 ) ) ;
#728 = ORIENTED_EDGE ( 'NONE', *, *, #414, .F. ) ;
#729 = DIRECTION ( 'NONE',  ( 0.8660254037844415942, 0.000000000000000000, 0.4999999999999950595 ) ) ;
#730 = CC_DESIGN_DATE_AND_TIME_ASSIGNMENT ( #699, #570, ( #53 ) ) ;
#731 = CARTESIAN_POINT ( 'NONE',  ( -5.999999999999987566, 10.00000000000000000, 3.464101615137783252 ) ) ;
#732 = VECTOR ( 'NONE', #763, 1000.000000000000000 ) ;
#733 = DIRECTION ( 'NONE',  ( 0.000000000000000000, 0.000000000000000000, -1.000000000000000000 ) ) ;
#734 = AXIS2_PLACEMENT_3D ( 'NONE', #380, #258, #111 ) ;
#735 = VECTOR ( 'NONE', #811, 1000.000000000000114 ) ;
#736 = CARTESIAN_POINT ( 'NONE',  ( -6.000000000000011546, 0.000000000000000000, -3.464101615137742840 ) ) ;
#737 = ORIENTED_EDGE ( 'NONE', *, *, #650, .F. ) ;
#738 = ADVANCED_FACE ( 'NONE', ( #518 ), #740, .F. ) ;
#739 = CARTESIAN_POINT ( 'NONE',  ( 6.000000000000034639, 7.000000000000000000, 3.464101615137700652 ) ) ;
#740 = PLANE ( 'NONE',  #523 ) ;
#741 = ORIENTED_EDGE ( 'NONE', *, *, #208, .T. ) ;
#742 = CARTESIAN_POINT ( 'NONE',  ( 2.143131898507866818E-16, -9.000000000000001776, -1.499999999999997780 ) ) ;
#743 = EDGE_CURVE ( 'NONE', #128, #68, #461, .T. ) ;
#744 = MECHANICAL_CONTEXT ( 'NONE', #178, 'mechanical' ) ;
#745 = ORIENTED_EDGE ( 'NONE', *, *, #414, .T. ) ;
#746 = CARTESIAN_POINT ( 'NONE',  ( 2.449293598294706414E-16, 3.000000000000000000, -2.000000000000000000 ) ) ;
#747 = VECTOR ( 'NONE', #209, 1000.000000000000000 ) ;
#748 = APPLICATION_PROTOCOL_DEFINITION ( 'international standard', 'config_control_design', 1994, #178 ) ;
#749 = ORIENTED_EDGE ( 'NONE', *, *, #32, .F. ) ;
#750 = AXIS2_PLACEMENT_3D ( 'NONE', #755, #223, #82 ) ;
#751 = LOCAL_TIME ( 15, 9, 56.00000000000000000, #574 ) ;
#752 = DIRECTION ( 'NONE',  ( 0.5000000000000011102, -0.000000000000000000, 0.8660254037844380415 ) ) ;
#753 = ADVANCED_FACE ( 'NONE', ( #608 ), #1, .F. ) ;
#754 = ORIENTED_EDGE ( 'NONE', *, *, #519, .T. ) ;
#755 = CARTESIAN_POINT ( 'NONE',  ( 0.000000000000000000, -0.5000000000000000000, 0.000000000000000000 ) ) ;
#756 = ORIENTED_EDGE ( 'NONE', *, *, #370, .F. ) ;
#757 = AXIS2_PLACEMENT_3D ( 'NONE', #30, #428, #444 ) ;
#758 = LINE ( 'NONE', #46, #252 ) ;
#759 = ORIENTED_EDGE ( 'NONE', *, *, #552, .T. ) ;
#760 = AXIS2_PLACEMENT_3D ( 'NONE', #800, #187, #513 ) ;
#761 = AXIS2_PLACEMENT_3D ( 'NONE', #446, #184, #369 ) ;
#762 = CC_DESIGN_APPROVAL ( #510, ( #53 ) ) ;
#763 = DIRECTION ( 'NONE',  ( -0.8660254037844414832, 0.000000000000000000, -0.4999999999999951705 ) ) ;
#764 = PERSON_AND_ORGANIZATION ( #422, #581 ) ;
#765 = EDGE_LOOP ( 'NONE', ( #759, #279 ) ) ;
#766 = CARTESIAN_POINT ( 'NONE',  ( 6.000000000000034639, 10.00000000000000000, 3.464101615137700652 ) ) ;
#767 = EDGE_CURVE ( 'NONE', #68, #382, #201, .T. ) ;
#768 = DIRECTION ( 'NONE',  ( 0.000000000000000000, 1.000000000000000000, 0.000000000000000000 ) ) ;
#769 = COORDINATED_UNIVERSAL_TIME_OFFSET ( 3, 0, .AHEAD. ) ;
#770 = VERTEX_POINT ( 'NONE', #189 ) ;
#771 = FACE_BOUND ( 'NONE', #170, .T. ) ;
#772 = CARTESIAN_POINT ( 'NONE',  ( 0.000000000000000000, 0.000000000000000000, 0.000000000000000000 ) ) ;
#773 = VECTOR ( 'NONE', #559, 1000.000000000000000 ) ;
#774 = APPROVAL_ROLE ( '' ) ;
#775 = EDGE_CURVE ( 'NONE', #128, #242, #457, .T. ) ;
#776 = ORIENTED_EDGE ( 'NONE', *, *, #860, .T. ) ;
#777 = DIRECTION ( 'NONE',  ( -0.000000000000000000, 1.000000000000000000, -0.000000000000000000 ) ) ;
#778 = CIRCLE ( 'NONE', #23, 6.000000000000000888 ) ;
#779 = CIRCLE ( 'NONE', #564, 6.000000000000000888 ) ;
#780 = DIRECTION ( 'NONE',  ( -0.000000000000000000, -1.000000000000000000, -0.000000000000000000 ) ) ;
#781 = VERTEX_POINT ( 'NONE', #684 ) ;
#782 = EDGE_CURVE ( 'NONE', #20, #658, #135, .T. ) ;
#783 = FACE_OUTER_BOUND ( 'NONE', #426, .T. ) ;
#784 = DIRECTION ( 'NONE',  ( 0.000000000000000000, -1.000000000000000000, 0.000000000000000000 ) ) ;
#785 = ORIENTED_EDGE ( 'NONE', *, *, #90, .F. ) ;
#786 = CARTESIAN_POINT ( 'NONE',  ( 0.000000000000000000, 0.000000000000000000, 0.000000000000000000 ) ) ;
#787 = VERTEX_POINT ( 'NONE', #408 ) ;
#788 = CARTESIAN_POINT ( 'NONE',  ( 0.000000000000000000, 9.499999999999996447, 0.000000000000000000 ) ) ;
#789 = CIRCLE ( 'NONE', #144, 2.500000000000009326 ) ;
#790 = CARTESIAN_POINT ( 'NONE',  ( -3.000000000000006217, 0.000000000000000000, -5.196152422706626695 ) ) ;
#791 = CARTESIAN_POINT ( 'NONE',  ( 0.000000000000000000, 0.000000000000000000, 0.000000000000000000 ) ) ;
#792 = CIRCLE ( 'NONE', #549, 2.000000000000000000 ) ;
#793 = CYLINDRICAL_SURFACE ( 'NONE', #240, 6.000000000000000888 ) ;
#794 = AXIS2_PLACEMENT_3D ( 'NONE', #572, #234, #646 ) ;
#795 = ORIENTED_EDGE ( 'NONE', *, *, #713, .T. ) ;
#796 = LINE ( 'NONE', #206, #863 ) ;
#797 = DIRECTION ( 'NONE',  ( 0.000000000000000000, 0.000000000000000000, -1.000000000000000000 ) ) ;
#798 = PRODUCT_DEFINITION ( 'UNKNOWN', '', #270, #447 ) ;
#799 = CARTESIAN_POINT ( 'NONE',  ( 5.999999999999962697, 7.000000000000000000, -3.464101615137825885 ) ) ;
#800 = CARTESIAN_POINT ( 'NONE',  ( 0.000000000000000000, 0.000000000000000000, 0.000000000000000000 ) ) ;
#801 = CARTESIAN_POINT ( 'NONE',  ( 7.347880794884120722E-16, 0.000000000000000000, -6.000000000000000888 ) ) ;
#802 = ORIENTED_EDGE ( 'NONE', *, *, #375, .T. ) ;
#803 = AXIS2_PLACEMENT_3D ( 'NONE', #284, #239, #833 ) ;
#804 = DIRECTION ( 'NONE',  ( 0.000000000000000000, 1.000000000000000000, 0.000000000000000000 ) ) ;
#805 = AXIS2_PLACEMENT_3D ( 'NONE', #675, #136, #733 ) ;
#806 = CC_DESIGN_APPROVAL ( #22, ( #270 ) ) ;
#807 = CARTESIAN_POINT ( 'NONE',  ( 4.837938458043933716E-14, 0.000000000000000000, 6.928203230275513214 ) ) ;
#808 = ORIENTED_EDGE ( 'NONE', *, *, #775, .T. ) ;
#809 = ADVANCED_FACE ( 'NONE', ( #823 ), #340, .T. ) ;
#810 = DIRECTION ( 'NONE',  ( 0.000000000000000000, 0.000000000000000000, 1.000000000000000000 ) ) ;
#811 = DIRECTION ( 'NONE',  ( 8.659560562354903276E-17, 0.7071067811865500152, -0.7071067811865451302 ) ) ;
#812 = EDGE_LOOP ( 'NONE', ( #59, #276, #474, #670 ) ) ;
#813 = PLANE ( 'NONE',  #579 ) ;
#814 = PERSON_AND_ORGANIZATION ( #422, #581 ) ;
#815 = VERTEX_POINT ( 'NONE', #156 ) ;
#816 = CIRCLE ( 'NONE', #662, 2.000000000000000000 ) ;
#817 = DIRECTION ( 'NONE',  ( 0.000000000000000000, 1.000000000000000000, 0.000000000000000000 ) ) ;
#818 = EDGE_CURVE ( 'NONE', #75, #402, #19, .T. ) ;
#819 = VECTOR ( 'NONE', #167, 1000.000000000000227 ) ;
#820 = DIRECTION ( 'NONE',  ( 0.000000000000000000, 1.000000000000000000, 0.000000000000000000 ) ) ;
#821 = VERTEX_POINT ( 'NONE', #413 ) ;
#822 = CIRCLE ( 'NONE', #761, 1.499999999999997780 ) ;
#823 = FACE_OUTER_BOUND ( 'NONE', #844, .T. ) ;
#824 = ORIENTED_EDGE ( 'NONE', *, *, #818, .F. ) ;
#825 = CARTESIAN_POINT ( 'NONE',  ( 6.000000000000034639, 0.000000000000000000, 3.464101615137700652 ) ) ;
#826 = ORIENTED_EDGE ( 'NONE', *, *, #427, .F. ) ;
#827 = PLANE ( 'NONE',  #21 ) ;
#828 = PERSON_AND_ORGANIZATION ( #422, #581 ) ;
#829 = ORIENTED_EDGE ( 'NONE', *, *, #96, .T. ) ;
#830 = AXIS2_PLACEMENT_3D ( 'NONE', #65, #49, #248 ) ;
#831 = DIRECTION ( 'NONE',  ( 0.000000000000000000, 1.000000000000000000, 0.000000000000000000 ) ) ;
#832 = ADVANCED_FACE ( 'NONE', ( #419 ), #553, .T. ) ;
#833 = DIRECTION ( 'NONE',  ( 0.000000000000000000, 0.000000000000000000, -1.000000000000000000 ) ) ;
#834 = PERSON_AND_ORGANIZATION ( #422, #581 ) ;
#835 = ORIENTED_EDGE ( 'NONE', *, *, #213, .T. ) ;
#836 = CARTESIAN_POINT ( 'NONE',  ( 0.000000000000000000, 0.000000000000000000, -6.928203230275514102 ) ) ;
#837 = CARTESIAN_POINT ( 'NONE',  ( -5.999999999999987566, 10.00000000000000000, 3.464101615137783252 ) ) ;
#838 = EDGE_CURVE ( 'NONE', #694, #379, #243, .T. ) ;
#839 = DATE_AND_TIME ( #560, #281 ) ;
#840 = ORIENTED_EDGE ( 'NONE', *, *, #531, .F. ) ;
#841 = DIRECTION ( 'NONE',  ( 0.000000000000000000, 1.000000000000000000, 0.000000000000000000 ) ) ;
#842 = CARTESIAN_POINT ( 'NONE',  ( 2.449293598294706414E-16, -9.000000000000001776, -2.000000000000000000 ) ) ;
#843 = ADVANCED_FACE ( 'NONE', ( #13, #425 ), #219, .T. ) ;
#844 = EDGE_LOOP ( 'NONE', ( #785, #16, #571, #802, #476, #92, #237 ) ) ;
#845 = FACE_OUTER_BOUND ( 'NONE', #224, .T. ) ;
#846 = CIRCLE ( 'NONE', #563, 2.500000000000009326 ) ;
#847 = DIRECTION ( 'NONE',  ( 0.000000000000000000, 1.000000000000000000, 0.000000000000000000 ) ) ;
#848 = PRODUCT_RELATED_PRODUCT_CATEGORY ( 'detail', '', ( #393 ) ) ;
#849 = CARTESIAN_POINT ( 'NONE',  ( 0.000000000000000000, 7.000000000000000000, 0.000000000000000000 ) ) ;
#850 = DIRECTION ( 'NONE',  ( 0.000000000000000000, -0.000000000000000000, 1.000000000000000000 ) ) ;
#851 = DIRECTION ( 'NONE',  ( 0.000000000000000000, 0.7071067811865500152, 0.7071067811865451302 ) ) ;
#852 = ORIENTED_EDGE ( 'NONE', *, *, #782, .F. ) ;
#853 = CARTESIAN_POINT ( 'NONE',  ( 0.000000000000000000, 7.000000000000000000, -6.928203230275514102 ) ) ;
#854 = ORIENTED_EDGE ( 'NONE', *, *, #150, .T. ) ;
#855 = EDGE_CURVE ( 'NONE', #373, #434, #543, .T. ) ;
#856 = DIRECTION ( 'NONE',  ( 0.000000000000000000, 1.000000000000000000, 0.000000000000000000 ) ) ;
#857 = DIRECTION ( 'NONE',  ( 0.000000000000000000, 1.000000000000000000, 0.000000000000000000 ) ) ;
#858 = CARTESIAN_POINT ( 'NONE',  ( 0.000000000000000000, 10.00000000000000000, -6.928203230275514102 ) ) ;
#859 = EDGE_LOOP ( 'NONE', ( #146, #723, #776, #72 ) ) ;
#860 = EDGE_CURVE ( 'NONE', #288, #787, #218, .T. ) ;
#861 = CIRCLE ( 'NONE', #481, 2.000000000000000000 ) ;
#862 = DIRECTION ( 'NONE',  ( 0.000000000000000000, 0.000000000000000000, 1.000000000000000000 ) ) ;
#863 = VECTOR ( 'NONE', #195, 1000.000000000000000 ) ;
ENDSEC;
END-ISO-10303-21;
