ISO-10303-21;
HEADER;
FILE_DESCRIPTION (( 'STEP AP203' ),
    '1' );
FILE_NAME ('753124.036-01  стойка.STEP',
    '2026-01-12T12:09:19',
    ( '' ),
    ( '' ),
    'SwSTEP 2.0',
    'SolidWorks 2022',
    '' );
FILE_SCHEMA (( 'CONFIG_CONTROL_DESIGN' ));
ENDSEC;

DATA;
#1 = CARTESIAN_POINT ( 'NONE',  ( -6.000000000000011546, 7.000000000000000000, -3.464101615137742840 ) ) ;
#2 = CARTESIAN_POINT ( 'NONE',  ( 2.449293598294706414E-16, 3.000000000000000000, -2.000000000000000000 ) ) ;
#3 = ORIENTED_EDGE ( 'NONE', *, *, #307, .F. ) ;
#4 = DIRECTION ( 'NONE',  ( -0.000000000000000000, -1.000000000000000000, -0.000000000000000000 ) ) ;
#5 = APPROVAL_DATE_TIME ( #806, #599 ) ;
#6 = ADVANCED_FACE ( 'NONE', ( #733, #406 ), #141, .T. ) ;
#7 = CARTESIAN_POINT ( 'NONE',  ( 0.000000000000000000, 7.000000000000000000, 0.000000000000000000 ) ) ;
#8 = EDGE_LOOP ( 'NONE', ( #859, #570, #334, #18, #168, #447, #737 ) ) ;
#9 = DIRECTION ( 'NONE',  ( 0.8660254037844415942, 0.000000000000000000, 0.4999999999999950595 ) ) ;
#10 = ORIENTED_EDGE ( 'NONE', *, *, #185, .F. ) ;
#11 = CLOSED_SHELL ( 'NONE', ( #536, #475, #729, #843, #542, #621, #642, #611, #164, #680, #855, #578, #400, #421, #689, #489, #274, #126, #138, #76, #316, #51, #6, #834, #94, #607, #74, #635, #243 ) ) ;
#12 = VECTOR ( 'NONE', #23, 1000.000000000000114 ) ;
#13 = DIRECTION ( 'NONE',  ( 0.8660254037844415942, 0.000000000000000000, 0.4999999999999950595 ) ) ;
#14 = ORIENTED_EDGE ( 'NONE', *, *, #501, .T. ) ;
#15 = EDGE_CURVE ( 'NONE', #837, #534, #310, .T. ) ;
#16 = CARTESIAN_POINT ( 'NONE',  ( 0.000000000000000000, -13.00000000000000178, 0.000000000000000000 ) ) ;
#17 = DIRECTION ( 'NONE',  ( 0.8660254037844344888, 0.000000000000000000, -0.5000000000000071054 ) ) ;
#18 = ORIENTED_EDGE ( 'NONE', *, *, #28, .T. ) ;
#19 = FACE_OUTER_BOUND ( 'NONE', #673, .T. ) ;
#20 = DIRECTION ( 'NONE',  ( -0.8660254037844414832, 0.000000000000000000, -0.4999999999999951705 ) ) ;
#21 = VECTOR ( 'NONE', #633, 1000.000000000000114 ) ;
#22 = CIRCLE ( 'NONE', #272, 6.000000000000000888 ) ;
#23 = DIRECTION ( 'NONE',  ( -0.8660254037844380415, 0.000000000000000000, 0.5000000000000011102 ) ) ;
#24 = CIRCLE ( 'NONE', #752, 6.000000000000000888 ) ;
#25 = CARTESIAN_POINT ( 'NONE',  ( 0.000000000000000000, -0.5000000000000000000, 0.000000000000000000 ) ) ;
#26 = DIRECTION ( 'NONE',  ( 0.000000000000000000, 0.000000000000000000, 1.000000000000000000 ) ) ;
#27 = CARTESIAN_POINT ( 'NONE',  ( -6.000000000000000000, 0.000000000000000000, 2.028124708295160127E-14 ) ) ;
#28 = EDGE_CURVE ( 'NONE', #344, #812, #212, .T. ) ;
#29 = DIRECTION ( 'NONE',  ( 0.000000000000000000, 0.000000000000000000, -1.000000000000000000 ) ) ;
#30 = DIRECTION ( 'NONE',  ( 0.000000000000000000, 0.000000000000000000, -1.000000000000000000 ) ) ;
#31 = EDGE_CURVE ( 'NONE', #189, #270, #655, .T. ) ;
#32 = PRODUCT ( '753124.036-01  стойка', '753124.036-01  стойка', '', ( #393 ) ) ;
#33 = AXIS2_PLACEMENT_3D ( 'NONE', #540, #418, #81 ) ;
#34 = VECTOR ( 'NONE', #559, 999.9999999999998863 ) ;
#35 = CARTESIAN_POINT ( 'NONE',  ( -3.000000000000006217, 0.000000000000000000, -5.196152422706626695 ) ) ;
#36 = CARTESIAN_POINT ( 'NONE',  ( 0.000000000000000000, -13.00000000000000178, 0.000000000000000000 ) ) ;
#37 = APPROVAL_ROLE ( '' ) ;
#38 = EDGE_CURVE ( 'NONE', #112, #844, #171, .T. ) ;
#39 = DIRECTION ( 'NONE',  ( 0.000000000000000000, 0.000000000000000000, -1.000000000000000000 ) ) ;
#40 = DIRECTION ( 'NONE',  ( -0.000000000000000000, 1.000000000000000000, -0.000000000000000000 ) ) ;
#41 = VERTEX_POINT ( 'NONE', #1 ) ;
#42 = DIRECTION ( 'NONE',  ( -1.039100930793199338E-14, 0.000000000000000000, -1.000000000000000000 ) ) ;
#43 = ORIENTED_EDGE ( 'NONE', *, *, #15, .T. ) ;
#44 = DIRECTION ( 'NONE',  ( 0.000000000000000000, 0.000000000000000000, 1.000000000000000000 ) ) ;
#45 = DATE_AND_TIME ( #770, #298 ) ;
#46 = DIRECTION ( 'NONE',  ( 0.000000000000000000, 1.000000000000000000, 0.000000000000000000 ) ) ;
#47 = AXIS2_PLACEMENT_3D ( 'NONE', #25, #222, #751 ) ;
#48 = AXIS2_PLACEMENT_3D ( 'NONE', #84, #485, #612 ) ;
#49 = ORIENTED_EDGE ( 'NONE', *, *, #407, .F. ) ;
#50 = LINE ( 'NONE', #175, #77 ) ;
#51 = ADVANCED_FACE ( 'NONE', ( #262 ), #597, .T. ) ;
#52 = DIRECTION ( 'NONE',  ( 0.000000000000000000, 0.000000000000000000, -1.000000000000000000 ) ) ;
#53 = ORIENTED_EDGE ( 'NONE', *, *, #753, .F. ) ;
#54 = CARTESIAN_POINT ( 'NONE',  ( 1.170938346284344789E-14, 7.000000000000000000, -4.336808689942017736E-16 ) ) ;
#55 = VERTEX_POINT ( 'NONE', #27 ) ;
#56 = CARTESIAN_POINT ( 'NONE',  ( 2.449293598294706414E-16, 3.000000000000000000, -2.000000000000000000 ) ) ;
#57 = ORIENTED_EDGE ( 'NONE', *, *, #31, .F. ) ;
#58 = AXIS2_PLACEMENT_3D ( 'NONE', #111, #107, #783 ) ;
#59 = DIRECTION ( 'NONE',  ( 0.000000000000000000, -1.000000000000000000, 0.000000000000000000 ) ) ;
#60 = CALENDAR_DATE ( 2026, 12, 1 ) ;
#61 = CIRCLE ( 'NONE', #214, 6.000000000000000888 ) ;
#62 = DIRECTION ( 'NONE',  ( -0.000000000000000000, -1.000000000000000000, -0.000000000000000000 ) ) ;
#63 = DIRECTION ( 'NONE',  ( 0.000000000000000000, 0.000000000000000000, 1.000000000000000000 ) ) ;
#64 = ORIENTED_EDGE ( 'NONE', *, *, #811, .T. ) ;
#65 = DIRECTION ( 'NONE',  ( 0.000000000000000000, 1.000000000000000000, 0.000000000000000000 ) ) ;
#66 = CALENDAR_DATE ( 2026, 12, 1 ) ;
#67 = CARTESIAN_POINT ( 'NONE',  ( 0.000000000000000000, 3.000000000000000000, 0.000000000000000000 ) ) ;
#68 = DIRECTION ( 'NONE',  ( 0.000000000000000000, 0.000000000000000000, 1.000000000000000000 ) ) ;
#69 = ORIENTED_EDGE ( 'NONE', *, *, #396, .F. ) ;
#70 = DIRECTION ( 'NONE',  ( 0.000000000000000000, 0.000000000000000000, -1.000000000000000000 ) ) ;
#71 = ORIENTED_EDGE ( 'NONE', *, *, #307, .T. ) ;
#72 = ADVANCED_BREP_SHAPE_REPRESENTATION ( '753124.036-01  ёЄющър', ( #283, #242 ), #420 ) ;
#73 = DIRECTION ( 'NONE',  ( 0.000000000000000000, 0.000000000000000000, -1.000000000000000000 ) ) ;
#74 = ADVANCED_FACE ( 'NONE', ( #814 ), #229, .T. ) ;
#75 = DIRECTION ( 'NONE',  ( 0.000000000000000000, 1.000000000000000000, 0.000000000000000000 ) ) ;
#76 = ADVANCED_FACE ( 'NONE', ( #545, #87 ), #95, .T. ) ;
#77 = VECTOR ( 'NONE', #253, 1000.000000000000000 ) ;
#78 = AXIS2_PLACEMENT_3D ( 'NONE', #16, #278, #474 ) ;
#79 = ORIENTED_EDGE ( 'NONE', *, *, #601, .F. ) ;
#80 = DIRECTION ( 'NONE',  ( -1.000000000000000000, 0.000000000000000000, 1.039100930793199338E-14 ) ) ;
#81 = DIRECTION ( 'NONE',  ( 0.000000000000000000, -0.000000000000000000, -1.000000000000000000 ) ) ;
#82 = EDGE_CURVE ( 'NONE', #273, #763, #493, .T. ) ;
#83 = ORIENTED_EDGE ( 'NONE', *, *, #412, .T. ) ;
#84 = CARTESIAN_POINT ( 'NONE',  ( 0.000000000000000000, 7.000000000000000000, 0.000000000000000000 ) ) ;
#85 = DIRECTION ( 'NONE',  ( 0.000000000000000000, 1.000000000000000000, 0.000000000000000000 ) ) ;
#86 = DIRECTION ( 'NONE',  ( -1.039100930793199338E-14, 0.000000000000000000, -1.000000000000000000 ) ) ;
#87 = FACE_OUTER_BOUND ( 'NONE', #198, .T. ) ;
#88 = VECTOR ( 'NONE', #206, 1000.000000000000000 ) ;
#89 = EDGE_LOOP ( 'NONE', ( #10, #330, #49, #719 ) ) ;
#90 = PLANE ( 'NONE',  #361 ) ;
#91 = CONICAL_SURFACE ( 'NONE', #161, 2.000000000000000000, 0.7853981633974533860 ) ;
#92 = DIRECTION ( 'NONE',  ( 0.000000000000000000, 0.000000000000000000, 1.000000000000000000 ) ) ;
#93 = FACE_OUTER_BOUND ( 'NONE', #257, .T. ) ;
#94 = ADVANCED_FACE ( 'NONE', ( #156 ), #343, .T. ) ;
#95 = PLANE ( 'NONE',  #33 ) ;
#96 = DIRECTION ( 'NONE',  ( 0.000000000000000000, 0.000000000000000000, 1.000000000000000000 ) ) ;
#97 = CARTESIAN_POINT ( 'NONE',  ( 7.347880794884120722E-16, -0.5000000000000000000, -6.000000000000000888 ) ) ;
#98 = EDGE_CURVE ( 'NONE', #745, #662, #682, .T. ) ;
#99 = APPLICATION_PROTOCOL_DEFINITION ( 'international standard', 'config_control_design', 1994, #747 ) ;
#100 = VECTOR ( 'NONE', #178, 1000.000000000000000 ) ;
#101 = AXIS2_PLACEMENT_3D ( 'NONE', #260, #723, #322 ) ;
#102 = CARTESIAN_POINT ( 'NONE',  ( 0.000000000000000000, 9.499999999999996447, 0.000000000000000000 ) ) ;
#103 = EDGE_LOOP ( 'NONE', ( #299, #328, #712, #181 ) ) ;
#104 = CARTESIAN_POINT ( 'NONE',  ( 5.510910596163088569E-16, 10.00000000000000000, -4.500000000000000000 ) ) ;
#105 = LINE ( 'NONE', #176, #145 ) ;
#106 = ORIENTED_EDGE ( 'NONE', *, *, #761, .F. ) ;
#107 = DIRECTION ( 'NONE',  ( 0.000000000000000000, 1.000000000000000000, 0.000000000000000000 ) ) ;
#108 = ORIENTED_EDGE ( 'NONE', *, *, #132, .T. ) ;
#109 = LINE ( 'NONE', #838, #129 ) ;
#110 = ORIENTED_EDGE ( 'NONE', *, *, #415, .T. ) ;
#111 = CARTESIAN_POINT ( 'NONE',  ( 0.000000000000000000, 0.000000000000000000, 0.000000000000000000 ) ) ;
#112 = VERTEX_POINT ( 'NONE', #610 ) ;
#113 = APPROVAL_DATE_TIME ( #589, #210 ) ;
#114 = CARTESIAN_POINT ( 'NONE',  ( -6.000000000000011546, 0.000000000000000000, -3.464101615137742840 ) ) ;
#115 = EDGE_CURVE ( 'NONE', #203, #247, #476, .T. ) ;
#116 = AXIS2_PLACEMENT_3D ( 'NONE', #669, #135, #397 ) ;
#117 = VERTEX_POINT ( 'NONE', #279 ) ;
#118 = DIRECTION ( 'NONE',  ( -0.000000000000000000, -1.000000000000000000, -0.000000000000000000 ) ) ;
#119 = AXIS2_PLACEMENT_3D ( 'NONE', #245, #646, #52 ) ;
#120 = ORIENTED_EDGE ( 'NONE', *, *, #629, .F. ) ;
#121 = PLANE ( 'NONE',  #615 ) ;
#122 = ORIENTED_EDGE ( 'NONE', *, *, #347, .F. ) ;
#123 = FACE_OUTER_BOUND ( 'NONE', #499, .T. ) ;
#124 = COORDINATED_UNIVERSAL_TIME_OFFSET ( 3, 0, .AHEAD. ) ;
#125 = DIRECTION ( 'NONE',  ( 0.000000000000000000, 0.000000000000000000, 1.000000000000000000 ) ) ;
#126 = ADVANCED_FACE ( 'NONE', ( #479 ), #764, .F. ) ;
#127 = VECTOR ( 'NONE', #510, 1000.000000000000000 ) ;
#128 = CARTESIAN_POINT ( 'NONE',  ( 0.000000000000000000, 0.000000000000000000, 0.000000000000000000 ) ) ;
#129 = VECTOR ( 'NONE', #692, 1000.000000000000000 ) ;
#130 = ORIENTED_EDGE ( 'NONE', *, *, #179, .F. ) ;
#131 = DESIGN_CONTEXT ( 'detailed design', #246, 'design' ) ;
#132 = EDGE_CURVE ( 'NONE', #344, #584, #618, .T. ) ;
#133 = CIRCLE ( 'NONE', #215, 2.000000000000000000 ) ;
#134 = DIRECTION ( 'NONE',  ( -0.8660254037844344888, 0.000000000000000000, 0.5000000000000071054 ) ) ;
#135 = DIRECTION ( 'NONE',  ( -0.000000000000000000, 1.000000000000000000, -0.000000000000000000 ) ) ;
#136 = DATE_TIME_ROLE ( 'creation_date' ) ;
#137 = CARTESIAN_POINT ( 'NONE',  ( 0.000000000000000000, -0.5000000000000000000, 0.000000000000000000 ) ) ;
#138 = ADVANCED_FACE ( 'NONE', ( #613 ), #823, .T. ) ;
#139 = ORIENTED_EDGE ( 'NONE', *, *, #193, .T. ) ;
#140 = LINE ( 'NONE', #335, #657 ) ;
#141 = PLANE ( 'NONE',  #486 ) ;
#142 = ORIENTED_EDGE ( 'NONE', *, *, #793, .T. ) ;
#143 = DIRECTION ( 'NONE',  ( 0.000000000000000000, 1.000000000000000000, 0.000000000000000000 ) ) ;
#144 = ORIENTED_EDGE ( 'NONE', *, *, #115, .T. ) ;
#145 = VECTOR ( 'NONE', #424, 1000.000000000000000 ) ;
#146 = AXIS2_PLACEMENT_3D ( 'NONE', #317, #725, #63 ) ;
#147 = VERTEX_POINT ( 'NONE', #624 ) ;
#148 = DIRECTION ( 'NONE',  ( -0.4999999999999951705, 0.000000000000000000, 0.8660254037844414832 ) ) ;
#149 = CARTESIAN_POINT ( 'NONE',  ( 0.000000000000000000, -0.5000000000000000000, 6.000000000000000888 ) ) ;
#150 = CC_DESIGN_DATE_AND_TIME_ASSIGNMENT ( #45, #250, ( #463 ) ) ;
#151 = CARTESIAN_POINT ( 'NONE',  ( 0.000000000000000000, 10.00000000000000000, 0.000000000000000000 ) ) ;
#152 = DIRECTION ( 'NONE',  ( -0.000000000000000000, 1.000000000000000000, -0.000000000000000000 ) ) ;
#153 = EDGE_CURVE ( 'NONE', #716, #579, #220, .T. ) ;
#154 = ORIENTED_EDGE ( 'NONE', *, *, #366, .F. ) ;
#155 = DIRECTION ( 'NONE',  ( 0.000000000000000000, -1.000000000000000000, 0.000000000000000000 ) ) ;
#156 = FACE_OUTER_BOUND ( 'NONE', #650, .T. ) ;
#157 = CIRCLE ( 'NONE', #516, 2.000000000000000000 ) ;
#158 = AXIS2_PLACEMENT_3D ( 'NONE', #756, #148, #686 ) ;
#159 = EDGE_CURVE ( 'NONE', #662, #203, #287, .T. ) ;
#160 = DIRECTION ( 'NONE',  ( 0.000000000000000000, 1.000000000000000000, 0.000000000000000000 ) ) ;
#161 = AXIS2_PLACEMENT_3D ( 'NONE', #173, #762, #711 ) ;
#162 = CARTESIAN_POINT ( 'NONE',  ( 5.999999999999962697, 7.000000000000000000, -3.464101615137825885 ) ) ;
#163 = CARTESIAN_POINT ( 'NONE',  ( 0.000000000000000000, -13.00000000000000178, 0.000000000000000000 ) ) ;
#164 = ADVANCED_FACE ( 'NONE', ( #547 ), #425, .F. ) ;
#165 = VERTEX_POINT ( 'NONE', #284 ) ;
#166 = CARTESIAN_POINT ( 'NONE',  ( 5.999999999999962697, 0.000000000000000000, -3.464101615137825885 ) ) ;
#167 = LINE ( 'NONE', #114, #590 ) ;
#168 = ORIENTED_EDGE ( 'NONE', *, *, #456, .T. ) ;
#169 = DIRECTION ( 'NONE',  ( 0.000000000000000000, 1.000000000000000000, 0.000000000000000000 ) ) ;
#170 = ORIENTED_EDGE ( 'NONE', *, *, #562, .T. ) ;
#171 = CIRCLE ( 'NONE', #684, 2.000000000000000000 ) ;
#172 = CONICAL_SURFACE ( 'NONE', #698, 1.499999999999994449, 0.7853981633974482790 ) ;
#173 = CARTESIAN_POINT ( 'NONE',  ( 0.000000000000000000, 9.499999999999996447, 0.000000000000000000 ) ) ;
#174 = ORIENTED_EDGE ( 'NONE', *, *, #753, .T. ) ;
#175 = CARTESIAN_POINT ( 'NONE',  ( 6.000000000000034639, 10.00000000000000000, 3.464101615137700652 ) ) ;
#176 = CARTESIAN_POINT ( 'NONE',  ( 2.449293598294706414E-16, -13.00000000000000178, -2.000000000000000000 ) ) ;
#177 = ORIENTED_EDGE ( 'NONE', *, *, #444, .F. ) ;
#178 = DIRECTION ( 'NONE',  ( -0.8660254037844414832, 0.000000000000000000, -0.4999999999999951705 ) ) ;
#179 = EDGE_CURVE ( 'NONE', #807, #728, #760, .T. ) ;
#180 = FACE_OUTER_BOUND ( 'NONE', #89, .T. ) ;
#181 = ORIENTED_EDGE ( 'NONE', *, *, #530, .F. ) ;
#182 = DIRECTION ( 'NONE',  ( -0.000000000000000000, 1.000000000000000000, 0.000000000000000000 ) ) ;
#183 = ORIENTED_EDGE ( 'NONE', *, *, #658, .F. ) ;
#184 = VECTOR ( 'NONE', #62, 1000.000000000000000 ) ;
#185 = EDGE_CURVE ( 'NONE', #203, #579, #825, .T. ) ;
#186 = AXIS2_PLACEMENT_3D ( 'NONE', #434, #297, #778 ) ;
#187 = ORIENTED_EDGE ( 'NONE', *, *, #658, .T. ) ;
#188 = CARTESIAN_POINT ( 'NONE',  ( 5.999999999999962697, 0.000000000000000000, -3.464101615137825885 ) ) ;
#189 = VERTEX_POINT ( 'NONE', #357 ) ;
#190 = VECTOR ( 'NONE', #302, 1000.000000000000000 ) ;
#191 = VERTEX_POINT ( 'NONE', #293 ) ;
#192 = DIRECTION ( 'NONE',  ( 0.000000000000000000, 1.000000000000000000, 0.000000000000000000 ) ) ;
#193 = EDGE_CURVE ( 'NONE', #534, #837, #157, .T. ) ;
#194 = DIRECTION ( 'NONE',  ( 0.000000000000000000, -1.000000000000000000, 0.000000000000000000 ) ) ;
#195 = DIRECTION ( 'NONE',  ( 0.000000000000000000, 0.000000000000000000, -1.000000000000000000 ) ) ;
#196 = ORIENTED_EDGE ( 'NONE', *, *, #484, .F. ) ;
#197 = FACE_OUTER_BOUND ( 'NONE', #233, .T. ) ;
#198 = EDGE_LOOP ( 'NONE', ( #714, #14 ) ) ;
#199 = FACE_OUTER_BOUND ( 'NONE', #288, .T. ) ;
#200 = ORIENTED_EDGE ( 'NONE', *, *, #495, .T. ) ;
#201 = CYLINDRICAL_SURFACE ( 'NONE', #116, 4.500000000000000000 ) ;
#202 = AXIS2_PLACEMENT_3D ( 'NONE', #742, #59, #338 ) ;
#203 = VERTEX_POINT ( 'NONE', #649 ) ;
#204 = EDGE_CURVE ( 'NONE', #384, #165, #373, .T. ) ;
#205 = ORIENTED_EDGE ( 'NONE', *, *, #226, .T. ) ;
#206 = DIRECTION ( 'NONE',  ( -0.000000000000000000, 1.000000000000000000, -0.000000000000000000 ) ) ;
#207 = ORIENTED_EDGE ( 'NONE', *, *, #456, .F. ) ;
#208 = DIRECTION ( 'NONE',  ( -0.000000000000000000, 1.000000000000000000, -0.000000000000000000 ) ) ;
#209 = ORIENTED_EDGE ( 'NONE', *, *, #824, .T. ) ;
#210 = APPROVAL ( #386, 'UNSPECIFIED' ) ;
#211 = ORIENTED_EDGE ( 'NONE', *, *, #593, .F. ) ;
#212 = CIRCLE ( 'NONE', #839, 6.000000000000000888 ) ;
#213 = CARTESIAN_POINT ( 'NONE',  ( 0.000000000000000000, 3.000000000000000000, 0.000000000000000000 ) ) ;
#214 = AXIS2_PLACEMENT_3D ( 'NONE', #857, #385, #653 ) ;
#215 = AXIS2_PLACEMENT_3D ( 'NONE', #438, #46, #574 ) ;
#216 = DIRECTION ( 'NONE',  ( 0.8660254037844345998, 0.000000000000000000, -0.5000000000000072164 ) ) ;
#217 = DIRECTION ( 'NONE',  ( -0.000000000000000000, 1.000000000000000000, -0.000000000000000000 ) ) ;
#218 = EDGE_CURVE ( 'NONE', #165, #344, #255, .T. ) ;
#219 = PLANE ( 'NONE',  #78 ) ;
#220 = LINE ( 'NONE', #149, #531 ) ;
#221 = CARTESIAN_POINT ( 'NONE',  ( 0.000000000000000000, 0.000000000000000000, 6.000000000000000888 ) ) ;
#222 = DIRECTION ( 'NONE',  ( -0.000000000000000000, 1.000000000000000000, -0.000000000000000000 ) ) ;
#223 = PRODUCT_DEFINITION_SHAPE ( 'NONE', 'NONE',  #291 ) ;
#224 = VECTOR ( 'NONE', #17, 1000.000000000000227 ) ;
#225 = AXIS2_PLACEMENT_3D ( 'NONE', #151, #143, #26 ) ;
#226 = EDGE_CURVE ( 'NONE', #844, #112, #645, .T. ) ;
#227 = CARTESIAN_POINT ( 'NONE',  ( 1.836970198721022785E-16, -13.00000000000000178, -1.499999999999994449 ) ) ;
#228 = ORIENTED_EDGE ( 'NONE', *, *, #562, .F. ) ;
#229 = CYLINDRICAL_SURFACE ( 'NONE', #803, 2.000000000000000000 ) ;
#230 = CARTESIAN_POINT ( 'NONE',  ( 0.000000000000000000, 7.000000000000000000, -6.928203230275514102 ) ) ;
#231 = ORIENTED_EDGE ( 'NONE', *, *, #664, .F. ) ;
#232 = DIRECTION ( 'NONE',  ( -0.000000000000000000, 1.000000000000000000, -0.000000000000000000 ) ) ;
#233 = EDGE_LOOP ( 'NONE', ( #207, #779, #323 ) ) ;
#234 = DIRECTION ( 'NONE',  ( -0.8660254037844415942, 0.000000000000000000, -0.4999999999999950595 ) ) ;
#235 = PRODUCT_RELATED_PRODUCT_CATEGORY ( 'detail', '', ( #32 ) ) ;
#236 = ORIENTED_EDGE ( 'NONE', *, *, #860, .F. ) ;
#237 = DIRECTION ( 'NONE',  ( 0.000000000000000000, 0.000000000000000000, -1.000000000000000000 ) ) ;
#238 = VECTOR ( 'NONE', #9, 1000.000000000000000 ) ;
#239 = CARTESIAN_POINT ( 'NONE',  ( 4.837938458043933716E-14, 0.000000000000000000, 6.928203230275513214 ) ) ;
#240 = EDGE_LOOP ( 'NONE', ( #670, #200, #497, #231 ) ) ;
#241 = CARTESIAN_POINT ( 'NONE',  ( 2.449293598294706414E-16, 9.499999999999996447, -2.000000000000000000 ) ) ;
#242 = AXIS2_PLACEMENT_3D ( 'NONE', #845, #244, #461 ) ;
#243 = ADVANCED_FACE ( 'NONE', ( #780 ), #360, .T. ) ;
#244 = DIRECTION ( 'NONE',  ( 0.000000000000000000, 0.000000000000000000, 1.000000000000000000 ) ) ;
#245 = CARTESIAN_POINT ( 'NONE',  ( 0.000000000000000000, 0.000000000000000000, 0.000000000000000000 ) ) ;
#246 = APPLICATION_CONTEXT ( 'configuration controlled 3d designs of mechanical parts and assemblies' ) ;
#247 = VERTEX_POINT ( 'NONE', #717 ) ;
#248 = CARTESIAN_POINT ( 'NONE',  ( 5.999999999999962697, 0.000000000000000000, -3.464101615137825885 ) ) ;
#249 = ORIENTED_EDGE ( 'NONE', *, *, #530, .T. ) ;
#250 = DATE_TIME_ROLE ( 'classification_date' ) ;
#251 = DIRECTION ( 'NONE',  ( 0.000000000000000000, -1.000000000000000000, 0.000000000000000000 ) ) ;
#252 = ORIENTED_EDGE ( 'NONE', *, *, #548, .T. ) ;
#253 = DIRECTION ( 'NONE',  ( -0.000000000000000000, -1.000000000000000000, -0.000000000000000000 ) ) ;
#254 = VERTEX_POINT ( 'NONE', #188 ) ;
#255 = CIRCLE ( 'NONE', #441, 6.000000000000000888 ) ;
#256 = AXIS2_PLACEMENT_3D ( 'NONE', #163, #827, #39 ) ;
#257 = EDGE_LOOP ( 'NONE', ( #477, #71, #667, #429, #120 ) ) ;
#258 = FACE_OUTER_BOUND ( 'NONE', #305, .T. ) ;
#259 = ORIENTED_EDGE ( 'NONE', *, *, #132, .F. ) ;
#260 = CARTESIAN_POINT ( 'NONE',  ( 0.000000000000000000, 0.000000000000000000, 0.000000000000000000 ) ) ;
#261 = PERSON_AND_ORGANIZATION_ROLE ( 'creator' ) ;
#262 = FACE_OUTER_BOUND ( 'NONE', #854, .T. ) ;
#263 = FACE_OUTER_BOUND ( 'NONE', #240, .T. ) ;
#264 = VERTEX_POINT ( 'NONE', #104 ) ;
#265 = DIRECTION ( 'NONE',  ( 0.000000000000000000, 1.000000000000000000, 0.000000000000000000 ) ) ;
#266 = PERSON_AND_ORGANIZATION ( #296, #688 ) ;
#267 = EDGE_CURVE ( 'NONE', #767, #247, #50, .T. ) ;
#268 = ORIENTED_EDGE ( 'NONE', *, *, #31, .T. ) ;
#269 = AXIS2_PLACEMENT_3D ( 'NONE', #346, #423, #30 ) ;
#270 = VERTEX_POINT ( 'NONE', #300 ) ;
#271 = DIRECTION ( 'NONE',  ( 0.000000000000000000, -0.000000000000000000, 1.000000000000000000 ) ) ;
#272 = AXIS2_PLACEMENT_3D ( 'NONE', #410, #353, #620 ) ;
#273 = VERTEX_POINT ( 'NONE', #836 ) ;
#274 = ADVANCED_FACE ( 'NONE', ( #561 ), #831, .F. ) ;
#275 = CARTESIAN_POINT ( 'NONE',  ( 0.000000000000000000, 0.000000000000000000, 0.000000000000000000 ) ) ;
#276 = EDGE_LOOP ( 'NONE', ( #632, #318, #79, #634 ) ) ;
#277 = ORIENTED_EDGE ( 'NONE', *, *, #354, .T. ) ;
#278 = DIRECTION ( 'NONE',  ( 0.000000000000000000, -1.000000000000000000, 0.000000000000000000 ) ) ;
#279 = CARTESIAN_POINT ( 'NONE',  ( 0.000000000000000000, -13.00000000000000178, 1.499999999999994449 ) ) ;
#280 = EDGE_CURVE ( 'NONE', #716, #384, #554, .T. ) ;
#281 = DIRECTION ( 'NONE',  ( 1.039100930793199338E-14, 0.000000000000000000, 1.000000000000000000 ) ) ;
#282 = VECTOR ( 'NONE', #500, 1000.000000000000000 ) ;
#283 = MANIFOLD_SOLID_BREP ( 'Фаска2', #11 ) ;
#284 = CARTESIAN_POINT ( 'NONE',  ( 7.347880794884120722E-16, 0.000000000000000000, -6.000000000000000888 ) ) ;
#285 = CIRCLE ( 'NONE', #488, 1.499999999999994449 ) ;
#286 = FACE_OUTER_BOUND ( 'NONE', #8, .T. ) ;
#287 = LINE ( 'NONE', #483, #337 ) ;
#288 = EDGE_LOOP ( 'NONE', ( #228, #841, #600, #144, #401 ) ) ;
#289 = LINE ( 'NONE', #478, #12 ) ;
#290 = DIRECTION ( 'NONE',  ( 0.000000000000000000, 1.000000000000000000, 0.000000000000000000 ) ) ;
#291 = PRODUCT_DEFINITION ( 'UNKNOWN', '', #736, #131 ) ;
#292 = CARTESIAN_POINT ( 'NONE',  ( 0.000000000000000000, 0.000000000000000000, -6.928203230275514102 ) ) ;
#293 = CARTESIAN_POINT ( 'NONE',  ( 2.143131898507864600E-16, -13.00000000000000178, -1.499999999999994449 ) ) ;
#294 = VECTOR ( 'NONE', #86, 1000.000000000000000 ) ;
#295 = EDGE_CURVE ( 'NONE', #254, #344, #580, .T. ) ;
#296 = PERSON ( 'UNSPECIFIED', 'UNSPECIFIED', 'UNSPECIFIED', ('UNSPECIFIED'), ('UNSPECIFIED'), ('UNSPECIFIED') ) ;
#297 = DIRECTION ( 'NONE',  ( 0.000000000000000000, 1.000000000000000000, 0.000000000000000000 ) ) ;
#298 = LOCAL_TIME ( 15, 9, 19.00000000000000000, #433 ) ;
#299 = ORIENTED_EDGE ( 'NONE', *, *, #558, .F. ) ;
#300 = CARTESIAN_POINT ( 'NONE',  ( -5.999999999999987566, 0.000000000000000000, 3.464101615137783252 ) ) ;
#301 = CC_DESIGN_DATE_AND_TIME_ASSIGNMENT ( #801, #136, ( #291 ) ) ;
#302 = DIRECTION ( 'NONE',  ( 3.380207847158600080E-15, 0.000000000000000000, 1.000000000000000000 ) ) ;
#303 = EDGE_LOOP ( 'NONE', ( #69, #122, #749, #830 ) ) ;
#304 = DIRECTION ( 'NONE',  ( 0.000000000000000000, 0.000000000000000000, -1.000000000000000000 ) ) ;
#305 = EDGE_LOOP ( 'NONE', ( #110, #525, #205, #236 ) ) ;
#306 = CARTESIAN_POINT ( 'NONE',  ( 0.000000000000000000, 3.000000000000000000, 2.000000000000000000 ) ) ;
#307 = EDGE_CURVE ( 'NONE', #728, #584, #853, .T. ) ;
#308 = CARTESIAN_POINT ( 'NONE',  ( 2.999999999999971134, 0.000000000000000000, -5.196152422706648899 ) ) ;
#309 = EDGE_LOOP ( 'NONE', ( #64, #277 ) ) ;
#310 = CIRCLE ( 'NONE', #349, 2.000000000000000000 ) ;
#311 = PERSON_AND_ORGANIZATION ( #296, #688 ) ;
#312 = AXIS2_PLACEMENT_3D ( 'NONE', #128, #65, #271 ) ;
#313 = LINE ( 'NONE', #227, #517 ) ;
#314 = ORIENTED_EDGE ( 'NONE', *, *, #664, .T. ) ;
#315 = DIRECTION ( 'NONE',  ( 0.000000000000000000, -1.000000000000000000, 0.000000000000000000 ) ) ;
#316 = ADVANCED_FACE ( 'NONE', ( #496, #319 ), #788, .T. ) ;
#317 = CARTESIAN_POINT ( 'NONE',  ( 0.000000000000000000, 10.00000000000000000, 0.000000000000000000 ) ) ;
#318 = ORIENTED_EDGE ( 'NONE', *, *, #371, .T. ) ;
#319 = FACE_OUTER_BOUND ( 'NONE', #605, .T. ) ;
#320 = APPROVAL_STATUS ( 'not_yet_approved' ) ;
#321 = DIRECTION ( 'NONE',  ( -0.5000000000000072164, 0.000000000000000000, -0.8660254037844345998 ) ) ;
#322 = DIRECTION ( 'NONE',  ( 0.000000000000000000, -0.000000000000000000, 1.000000000000000000 ) ) ;
#323 = ORIENTED_EDGE ( 'NONE', *, *, #115, .F. ) ;
#324 = CARTESIAN_POINT ( 'NONE',  ( 5.999999999999999112, 0.000000000000000000, -6.234605584759195711E-14 ) ) ;
#325 = AXIS2_PLACEMENT_3D ( 'NONE', #690, #681, #413 ) ;
#326 = ORIENTED_EDGE ( 'NONE', *, *, #38, .T. ) ;
#327 = DIRECTION ( 'NONE',  ( 0.000000000000000000, 0.7071067811865474617, 0.7071067811865474617 ) ) ;
#328 = ORIENTED_EDGE ( 'NONE', *, *, #701, .T. ) ;
#329 = LOCAL_TIME ( 15, 9, 19.00000000000000000, #739 ) ;
#330 = ORIENTED_EDGE ( 'NONE', *, *, #159, .F. ) ;
#331 = DIRECTION ( 'NONE',  ( 0.000000000000000000, 0.000000000000000000, 1.000000000000000000 ) ) ;
#332 = DIRECTION ( 'NONE',  ( 0.000000000000000000, 0.000000000000000000, -1.000000000000000000 ) ) ;
#333 = DIRECTION ( 'NONE',  ( -0.000000000000000000, 1.000000000000000000, -0.000000000000000000 ) ) ;
#334 = ORIENTED_EDGE ( 'NONE', *, *, #218, .T. ) ;
#335 = CARTESIAN_POINT ( 'NONE',  ( 5.999999999999962697, 10.00000000000000000, -3.464101615137825885 ) ) ;
#336 = ORIENTED_EDGE ( 'NONE', *, *, #484, .T. ) ;
#337 = VECTOR ( 'NONE', #487, 1000.000000000000227 ) ;
#338 = DIRECTION ( 'NONE',  ( 0.000000000000000000, 0.000000000000000000, -1.000000000000000000 ) ) ;
#339 = CIRCLE ( 'NONE', #573, 4.500000000000000000 ) ;
#340 = EDGE_LOOP ( 'NONE', ( #505, #469, #259, #403 ) ) ;
#341 = ORIENTED_EDGE ( 'NONE', *, *, #371, .F. ) ;
#342 = CYLINDRICAL_SURFACE ( 'NONE', #773, 6.000000000000000888 ) ;
#343 = PLANE ( 'NONE',  #602 ) ;
#344 = VERTEX_POINT ( 'NONE', #308 ) ;
#345 = CARTESIAN_POINT ( 'NONE',  ( -6.000000000000011546, 10.00000000000000000, -3.464101615137742840 ) ) ;
#346 = CARTESIAN_POINT ( 'NONE',  ( 0.000000000000000000, 0.000000000000000000, 0.000000000000000000 ) ) ;
#347 = EDGE_CURVE ( 'NONE', #453, #577, #815, .T. ) ;
#348 = CARTESIAN_POINT ( 'NONE',  ( 0.000000000000000000, 10.00000000000000000, 0.000000000000000000 ) ) ;
#349 = AXIS2_PLACEMENT_3D ( 'NONE', #67, #75, #125 ) ;
#350 = CARTESIAN_POINT ( 'NONE',  ( 0.000000000000000000, -13.00000000000000178, 0.000000000000000000 ) ) ;
#351 = AXIS2_PLACEMENT_3D ( 'NONE', #445, #523, #70 ) ;
#352 = ORIENTED_EDGE ( 'NONE', *, *, #179, .T. ) ;
#353 = DIRECTION ( 'NONE',  ( 0.000000000000000000, -1.000000000000000000, 0.000000000000000000 ) ) ;
#354 = EDGE_CURVE ( 'NONE', #147, #769, #541, .T. ) ;
#355 = CARTESIAN_POINT ( 'NONE',  ( 0.000000000000000000, 7.000000000000000000, 4.500000000000000000 ) ) ;
#356 = CARTESIAN_POINT ( 'NONE',  ( 6.000000000000034639, 10.00000000000000000, 3.464101615137700652 ) ) ;
#357 = CARTESIAN_POINT ( 'NONE',  ( -5.999999999999987566, 7.000000000000000000, 3.464101615137783252 ) ) ;
#358 = FACE_OUTER_BOUND ( 'NONE', #399, .T. ) ;
#359 = DIRECTION ( 'NONE',  ( 0.000000000000000000, 1.000000000000000000, 0.000000000000000000 ) ) ;
#360 = CONICAL_SURFACE ( 'NONE', #856, 1.499999999999994449, 0.7853981633974482790 ) ;
#361 = AXIS2_PLACEMENT_3D ( 'NONE', #813, #678, #470 ) ;
#362 = LINE ( 'NONE', #306, #556 ) ;
#363 = ORIENTED_EDGE ( 'NONE', *, *, #629, .T. ) ;
#364 = CARTESIAN_POINT ( 'NONE',  ( 0.000000000000000000, 0.000000000000000000, -6.928203230275514102 ) ) ;
#365 = ORIENTED_EDGE ( 'NONE', *, *, #407, .T. ) ;
#366 = EDGE_CURVE ( 'NONE', #453, #769, #436, .T. ) ;
#367 = CARTESIAN_POINT ( 'NONE',  ( 0.000000000000000000, -12.49999999999999467, 2.000000000000000000 ) ) ;
#368 = ORIENTED_EDGE ( 'NONE', *, *, #695, .T. ) ;
#369 = LINE ( 'NONE', #364, #21 ) ;
#370 = EDGE_LOOP ( 'NONE', ( #665, #462, #852, #209, #513, #187, #637 ) ) ;
#371 = EDGE_CURVE ( 'NONE', #582, #264, #713, .T. ) ;
#372 = DIRECTION ( 'NONE',  ( 3.380207847158600080E-15, 0.000000000000000000, 1.000000000000000000 ) ) ;
#373 = LINE ( 'NONE', #97, #746 ) ;
#374 = PERSON_AND_ORGANIZATION_ROLE ( 'creator' ) ;
#375 = AXIS2_PLACEMENT_3D ( 'NONE', #715, #376, #234 ) ;
#376 = DIRECTION ( 'NONE',  ( 0.4999999999999950595, 0.000000000000000000, -0.8660254037844415942 ) ) ;
#377 = APPROVAL ( #320, 'UNSPECIFIED' ) ;
#378 = EDGE_LOOP ( 'NONE', ( #643, #639, #782 ) ) ;
#379 = CARTESIAN_POINT ( 'NONE',  ( 0.000000000000000000, 9.499999999999996447, 2.000000000000000000 ) ) ;
#380 = CARTESIAN_POINT ( 'NONE',  ( 2.449293598294706414E-16, -0.5000000000000000000, -2.000000000000000000 ) ) ;
#381 = PLANE ( 'NONE',  #312 ) ;
#382 = ORIENTED_EDGE ( 'NONE', *, *, #38, .F. ) ;
#383 = EDGE_CURVE ( 'NONE', #584, #685, #369, .T. ) ;
#384 = VERTEX_POINT ( 'NONE', #565 ) ;
#385 = DIRECTION ( 'NONE',  ( 0.000000000000000000, -1.000000000000000000, 0.000000000000000000 ) ) ;
#386 = APPROVAL_STATUS ( 'not_yet_approved' ) ;
#387 = DIRECTION ( 'NONE',  ( 0.000000000000000000, 0.000000000000000000, -1.000000000000000000 ) ) ;
#388 = CC_DESIGN_PERSON_AND_ORGANIZATION_ASSIGNMENT ( #503, #374, ( #736 ) ) ;
#389 = VECTOR ( 'NONE', #40, 1000.000000000000000 ) ;
#390 = CARTESIAN_POINT ( 'NONE',  ( 0.000000000000000000, 0.000000000000000000, 0.000000000000000000 ) ) ;
#391 = VECTOR ( 'NONE', #609, 1000.000000000000000 ) ;
#392 = LINE ( 'NONE', #598, #586 ) ;
#393 = MECHANICAL_CONTEXT ( 'NONE', #747, 'mechanical' ) ;
#394 = DIRECTION ( 'NONE',  ( 0.000000000000000000, -1.000000000000000000, 0.000000000000000000 ) ) ;
#395 = CARTESIAN_POINT ( 'NONE',  ( 0.000000000000000000, -13.00000000000000178, 2.000000000000000000 ) ) ;
#396 = EDGE_CURVE ( 'NONE', #577, #147, #571, .T. ) ;
#397 = DIRECTION ( 'NONE',  ( 0.000000000000000000, 0.000000000000000000, 1.000000000000000000 ) ) ;
#398 = APPROVAL_ROLE ( '' ) ;
#399 = EDGE_LOOP ( 'NONE', ( #106, #848, #515, #154 ) ) ;
#400 = ADVANCED_FACE ( 'NONE', ( #440 ), #528, .F. ) ;
#401 = ORIENTED_EDGE ( 'NONE', *, *, #267, .F. ) ;
#402 = DIRECTION ( 'NONE',  ( 0.000000000000000000, 0.000000000000000000, 1.000000000000000000 ) ) ;
#403 = ORIENTED_EDGE ( 'NONE', *, *, #218, .F. ) ;
#404 = VECTOR ( 'NONE', #20, 1000.000000000000000 ) ;
#405 = FACE_OUTER_BOUND ( 'NONE', #303, .T. ) ;
#406 = FACE_OUTER_BOUND ( 'NONE', #471, .T. ) ;
#407 = EDGE_CURVE ( 'NONE', #790, #662, #392, .T. ) ;
#408 = CC_DESIGN_SECURITY_CLASSIFICATION ( #463, ( #736 ) ) ;
#409 = ORIENTED_EDGE ( 'NONE', *, *, #614, .T. ) ;
#410 = CARTESIAN_POINT ( 'NONE',  ( 0.000000000000000000, 0.000000000000000000, 0.000000000000000000 ) ) ;
#411 = CARTESIAN_POINT ( 'NONE',  ( -6.000000000000011546, 10.00000000000000000, -3.464101615137742840 ) ) ;
#412 = EDGE_CURVE ( 'NONE', #270, #790, #666, .T. ) ;
#413 = DIRECTION ( 'NONE',  ( 0.000000000000000000, 0.000000000000000000, 1.000000000000000000 ) ) ;
#414 = DIRECTION ( 'NONE',  ( -0.000000000000000000, -1.000000000000000000, -0.000000000000000000 ) ) ;
#415 = EDGE_CURVE ( 'NONE', #784, #775, #804, .T. ) ;
#416 = CARTESIAN_POINT ( 'NONE',  ( 0.000000000000000000, -13.00000000000000178, 0.000000000000000000 ) ) ;
#417 = VECTOR ( 'NONE', #755, 1000.000000000000000 ) ;
#418 = DIRECTION ( 'NONE',  ( 0.000000000000000000, -1.000000000000000000, 0.000000000000000000 ) ) ;
#419 = VECTOR ( 'NONE', #216, 999.9999999999998863 ) ;
#420 =( GEOMETRIC_REPRESENTATION_CONTEXT ( 3 ) GLOBAL_UNCERTAINTY_ASSIGNED_CONTEXT ( ( #730 ) ) GLOBAL_UNIT_ASSIGNED_CONTEXT ( ( #668, #472, #551 ) ) REPRESENTATION_CONTEXT ( 'NONE', 'WORKASPACE' ) );
#421 = ADVANCED_FACE ( 'NONE', ( #197 ), #121, .F. ) ;
#422 = DIRECTION ( 'NONE',  ( 0.000000000000000000, 0.000000000000000000, 1.000000000000000000 ) ) ;
#423 = DIRECTION ( 'NONE',  ( 0.000000000000000000, -1.000000000000000000, 0.000000000000000000 ) ) ;
#424 = DIRECTION ( 'NONE',  ( -0.000000000000000000, 1.000000000000000000, -0.000000000000000000 ) ) ;
#425 = PLANE ( 'NONE',  #786 ) ;
#426 = CARTESIAN_POINT ( 'NONE',  ( 0.000000000000000000, 7.000000000000000000, -6.928203230275514102 ) ) ;
#427 = DIRECTION ( 'NONE',  ( 0.000000000000000000, 0.000000000000000000, 1.000000000000000000 ) ) ;
#428 = AXIS2_PLACEMENT_3D ( 'NONE', #694, #169, #44 ) ;
#429 = ORIENTED_EDGE ( 'NONE', *, *, #550, .T. ) ;
#430 = LINE ( 'NONE', #426, #34 ) ;
#431 = LOCAL_TIME ( 15, 9, 19.00000000000000000, #654 ) ;
#432 = DIRECTION ( 'NONE',  ( 0.000000000000000000, 0.000000000000000000, -1.000000000000000000 ) ) ;
#433 = COORDINATED_UNIVERSAL_TIME_OFFSET ( 3, 0, .AHEAD. ) ;
#434 = CARTESIAN_POINT ( 'NONE',  ( 0.000000000000000000, 0.000000000000000000, 0.000000000000000000 ) ) ;
#435 = ORIENTED_EDGE ( 'NONE', *, *, #82, .T. ) ;
#436 = LINE ( 'NONE', #379, #282 ) ;
#437 = SHAPE_DEFINITION_REPRESENTATION ( #223, #72 ) ;
#438 = CARTESIAN_POINT ( 'NONE',  ( 0.000000000000000000, -12.49999999999999467, 0.000000000000000000 ) ) ;
#439 = ORIENTED_EDGE ( 'NONE', *, *, #587, .F. ) ;
#440 = FACE_OUTER_BOUND ( 'NONE', #378, .T. ) ;
#441 = AXIS2_PLACEMENT_3D ( 'NONE', #506, #628, #237 ) ;
#442 = CONICAL_SURFACE ( 'NONE', #325, 2.000000000000000000, 0.7853981633974533860 ) ;
#443 = CYLINDRICAL_SURFACE ( 'NONE', #630, 2.000000000000000000 ) ;
#444 = EDGE_CURVE ( 'NONE', #582, #273, #339, .T. ) ;
#445 = CARTESIAN_POINT ( 'NONE',  ( 0.000000000000000000, -12.49999999999999467, 0.000000000000000000 ) ) ;
#446 = LOCAL_TIME ( 15, 9, 19.00000000000000000, #124 ) ;
#447 = ORIENTED_EDGE ( 'NONE', *, *, #185, .T. ) ;
#448 = SECURITY_CLASSIFICATION_LEVEL ( 'unclassified' ) ;
#449 = CYLINDRICAL_SURFACE ( 'NONE', #826, 2.000000000000000000 ) ;
#450 = APPROVAL_STATUS ( 'not_yet_approved' ) ;
#451 = CC_DESIGN_PERSON_AND_ORGANIZATION_ASSIGNMENT ( #596, #533, ( #32 ) ) ;
#452 = ORIENTED_EDGE ( 'NONE', *, *, #701, .F. ) ;
#453 = VERTEX_POINT ( 'NONE', #454 ) ;
#454 = CARTESIAN_POINT ( 'NONE',  ( 0.000000000000000000, 9.499999999999996447, 2.000000000000000000 ) ) ;
#455 = EDGE_LOOP ( 'NONE', ( #53, #511, #409, #795, #693 ) ) ;
#456 = EDGE_CURVE ( 'NONE', #812, #203, #816, .T. ) ;
#457 = PLANE ( 'NONE',  #557 ) ;
#458 = AXIS2_PLACEMENT_3D ( 'NONE', #356, #80, #281 ) ;
#459 = EDGE_LOOP ( 'NONE', ( #183, #648, #743 ) ) ;
#460 = CARTESIAN_POINT ( 'NONE',  ( 0.000000000000000000, 0.000000000000000000, 0.000000000000000000 ) ) ;
#461 = DIRECTION ( 'NONE',  ( 1.000000000000000000, 0.000000000000000000, 0.000000000000000000 ) ) ;
#462 = ORIENTED_EDGE ( 'NONE', *, *, #280, .F. ) ;
#463 = SECURITY_CLASSIFICATION ( '', '', #448 ) ;
#464 = ORIENTED_EDGE ( 'NONE', *, *, #808, .F. ) ;
#465 = DIRECTION ( 'NONE',  ( 0.000000000000000000, -1.000000000000000000, 0.000000000000000000 ) ) ;
#466 = PERSON_AND_ORGANIZATION ( #296, #688 ) ;
#467 = ORIENTED_EDGE ( 'NONE', *, *, #468, .T. ) ;
#468 = EDGE_CURVE ( 'NONE', #807, #254, #140, .T. ) ;
#469 = ORIENTED_EDGE ( 'NONE', *, *, #383, .F. ) ;
#470 = DIRECTION ( 'NONE',  ( 0.8660254037844380415, 0.000000000000000000, -0.5000000000000011102 ) ) ;
#471 = EDGE_LOOP ( 'NONE', ( #502, #797 ) ) ;
#472 =( NAMED_UNIT ( * ) PLANE_ANGLE_UNIT ( ) SI_UNIT ( $, .RADIAN. ) );
#473 = AXIS2_PLACEMENT_3D ( 'NONE', #137, #315, #432 ) ;
#474 = DIRECTION ( 'NONE',  ( 0.000000000000000000, -0.000000000000000000, -1.000000000000000000 ) ) ;
#475 = ADVANCED_FACE ( 'NONE', ( #258 ), #449, .T. ) ;
#476 = LINE ( 'NONE', #687, #224 ) ;
#477 = ORIENTED_EDGE ( 'NONE', *, *, #695, .F. ) ;
#478 = CARTESIAN_POINT ( 'NONE',  ( 0.000000000000000000, 0.000000000000000000, -6.928203230275514102 ) ) ;
#479 = FACE_OUTER_BOUND ( 'NONE', #340, .T. ) ;
#480 = CC_DESIGN_PERSON_AND_ORGANIZATION_ASSIGNMENT ( #727, #261, ( #291 ) ) ;
#481 = ORIENTED_EDGE ( 'NONE', *, *, #683, .F. ) ;
#482 = PLANE ( 'NONE',  #158 ) ;
#483 = CARTESIAN_POINT ( 'NONE',  ( 4.837938458043933716E-14, 0.000000000000000000, 6.928203230275513214 ) ) ;
#484 = EDGE_CURVE ( 'NONE', #189, #745, #660, .T. ) ;
#485 = DIRECTION ( 'NONE',  ( 0.000000000000000000, 1.000000000000000000, 0.000000000000000000 ) ) ;
#486 = AXIS2_PLACEMENT_3D ( 'NONE', #521, #740, #810 ) ;
#487 = DIRECTION ( 'NONE',  ( 0.8660254037844344888, 0.000000000000000000, -0.5000000000000071054 ) ) ;
#488 = AXIS2_PLACEMENT_3D ( 'NONE', #416, #155, #29 ) ;
#489 = ADVANCED_FACE ( 'NONE', ( #123 ), #381, .F. ) ;
#490 = AXIS2_PLACEMENT_3D ( 'NONE', #102, #636, #96 ) ;
#491 = CARTESIAN_POINT ( 'NONE',  ( 0.000000000000000000, -0.5000000000000000000, 6.000000000000000888 ) ) ;
#492 = ORIENTED_EDGE ( 'NONE', *, *, #793, .F. ) ;
#493 = LINE ( 'NONE', #355, #626 ) ;
#494 = LINE ( 'NONE', #504, #190 ) ;
#495 = EDGE_CURVE ( 'NONE', #837, #577, #595, .T. ) ;
#496 = FACE_BOUND ( 'NONE', #659, .T. ) ;
#497 = ORIENTED_EDGE ( 'NONE', *, *, #761, .T. ) ;
#498 = DIRECTION ( 'NONE',  ( 8.659560562354932858E-17, 0.7071067811865474617, -0.7071067811865474617 ) ) ;
#499 = EDGE_LOOP ( 'NONE', ( #464, #706, #594 ) ) ;
#500 = DIRECTION ( 'NONE',  ( 0.000000000000000000, 0.7071067811865439090, 0.7071067811865512365 ) ) ;
#501 = EDGE_CURVE ( 'NONE', #384, #716, #61, .T. ) ;
#502 = ORIENTED_EDGE ( 'NONE', *, *, #601, .T. ) ;
#503 = PERSON_AND_ORGANIZATION ( #296, #688 ) ;
#504 = CARTESIAN_POINT ( 'NONE',  ( -6.000000000000011546, 0.000000000000000000, -3.464101615137742840 ) ) ;
#505 = ORIENTED_EDGE ( 'NONE', *, *, #524, .F. ) ;
#506 = CARTESIAN_POINT ( 'NONE',  ( 0.000000000000000000, 0.000000000000000000, 0.000000000000000000 ) ) ;
#507 = APPLICATION_PROTOCOL_DEFINITION ( 'international standard', 'config_control_design', 1994, #246 ) ;
#508 = CARTESIAN_POINT ( 'NONE',  ( 0.000000000000000000, 10.00000000000000000, 2.500000000000009326 ) ) ;
#509 = EDGE_LOOP ( 'NONE', ( #724, #142, #799, #326 ) ) ;
#510 = DIRECTION ( 'NONE',  ( 8.659560562354978464E-17, 0.7071067811865439090, -0.7071067811865512365 ) ) ;
#511 = ORIENTED_EDGE ( 'NONE', *, *, #267, .T. ) ;
#512 = DATE_AND_TIME ( #581, #535 ) ;
#513 = ORIENTED_EDGE ( 'NONE', *, *, #808, .T. ) ;
#514 = CARTESIAN_POINT ( 'NONE',  ( 0.000000000000000000, -0.5000000000000000000, 0.000000000000000000 ) ) ;
#515 = ORIENTED_EDGE ( 'NONE', *, *, #811, .F. ) ;
#516 = AXIS2_PLACEMENT_3D ( 'NONE', #555, #359, #842 ) ;
#517 = VECTOR ( 'NONE', #498, 1000.000000000000114 ) ;
#518 = ORIENTED_EDGE ( 'NONE', *, *, #444, .T. ) ;
#519 = CARTESIAN_POINT ( 'NONE',  ( 0.000000000000000000, -13.00000000000000178, 1.499999999999994449 ) ) ;
#520 = CIRCLE ( 'NONE', #490, 2.000000000000000000 ) ;
#521 = CARTESIAN_POINT ( 'NONE',  ( 0.000000000000000000, 10.00000000000000000, 0.000000000000000000 ) ) ;
#522 = EDGE_LOOP ( 'NONE', ( #130, #467, #861, #108, #3 ) ) ;
#523 = DIRECTION ( 'NONE',  ( 0.000000000000000000, 1.000000000000000000, 0.000000000000000000 ) ) ;
#524 = EDGE_CURVE ( 'NONE', #685, #165, #734, .T. ) ;
#525 = ORIENTED_EDGE ( 'NONE', *, *, #710, .T. ) ;
#526 = CARTESIAN_POINT ( 'NONE',  ( 0.000000000000000000, 3.000000000000000000, 0.000000000000000000 ) ) ;
#527 = ORIENTED_EDGE ( 'NONE', *, *, #766, .T. ) ;
#528 = PLANE ( 'NONE',  #101 ) ;
#529 = CARTESIAN_POINT ( 'NONE',  ( -5.999999999999987566, 10.00000000000000000, 3.464101615137783252 ) ) ;
#530 = EDGE_CURVE ( 'NONE', #117, #784, #738, .T. ) ;
#531 = VECTOR ( 'NONE', #691, 1000.000000000000000 ) ;
#532 = CARTESIAN_POINT ( 'NONE',  ( 0.000000000000000000, -13.00000000000000178, 0.000000000000000000 ) ) ;
#533 = PERSON_AND_ORGANIZATION_ROLE ( 'design_owner' ) ;
#534 = VERTEX_POINT ( 'NONE', #800 ) ;
#535 = LOCAL_TIME ( 15, 9, 19.00000000000000000, #785 ) ;
#536 = ADVANCED_FACE ( 'NONE', ( #862 ), #172, .T. ) ;
#537 = CARTESIAN_POINT ( 'NONE',  ( 0.000000000000000000, -13.00000000000000178, 0.000000000000000000 ) ) ;
#538 = EDGE_LOOP ( 'NONE', ( #731, #572, #314, #560 ) ) ;
#539 = CARTESIAN_POINT ( 'NONE',  ( 2.449293598294706414E-16, 9.499999999999996447, -2.000000000000000000 ) ) ;
#540 = CARTESIAN_POINT ( 'NONE',  ( 0.000000000000000000, -0.5000000000000000000, 0.000000000000000000 ) ) ;
#541 = CIRCLE ( 'NONE', #656, 2.500000000000009326 ) ;
#542 = ADVANCED_FACE ( 'NONE', ( #809 ), #201, .T. ) ;
#543 = VECTOR ( 'NONE', #327, 1000.000000000000114 ) ;
#544 = CARTESIAN_POINT ( 'NONE',  ( 5.510910596163088569E-16, 7.000000000000000000, -4.500000000000000000 ) ) ;
#545 = FACE_BOUND ( 'NONE', #608, .T. ) ;
#546 = DIRECTION ( 'NONE',  ( 0.000000000000000000, 0.000000000000000000, 1.000000000000000000 ) ) ;
#547 = FACE_OUTER_BOUND ( 'NONE', #835, .T. ) ;
#548 = EDGE_CURVE ( 'NONE', #41, #189, #805, .T. ) ;
#549 = DIRECTION ( 'NONE',  ( 0.000000000000000000, -0.000000000000000000, 1.000000000000000000 ) ) ;
#550 = EDGE_CURVE ( 'NONE', #685, #699, #289, .T. ) ;
#551 =( NAMED_UNIT ( * ) SI_UNIT ( $, .STERADIAN. ) SOLID_ANGLE_UNIT ( ) );
#552 = CARTESIAN_POINT ( 'NONE',  ( 0.000000000000000000, -0.5000000000000000000, 0.000000000000000000 ) ) ;
#553 = AXIS2_PLACEMENT_3D ( 'NONE', #7, #802, #92 ) ;
#554 = CIRCLE ( 'NONE', #473, 6.000000000000000888 ) ;
#555 = CARTESIAN_POINT ( 'NONE',  ( 0.000000000000000000, 3.000000000000000000, 0.000000000000000000 ) ) ;
#556 = VECTOR ( 'NONE', #781, 1000.000000000000000 ) ;
#557 = AXIS2_PLACEMENT_3D ( 'NONE', #735, #321, #134 ) ;
#558 = EDGE_CURVE ( 'NONE', #191, #117, #285, .T. ) ;
#559 = DIRECTION ( 'NONE',  ( -0.8660254037844380415, 0.000000000000000000, 0.5000000000000012212 ) ) ;
#560 = ORIENTED_EDGE ( 'NONE', *, *, #347, .T. ) ;
#561 = FACE_OUTER_BOUND ( 'NONE', #459, .T. ) ;
#562 = EDGE_CURVE ( 'NONE', #745, #767, #822, .T. ) ;
#563 = PLANE ( 'NONE',  #186 ) ;
#564 = ORIENTED_EDGE ( 'NONE', *, *, #226, .F. ) ;
#565 = CARTESIAN_POINT ( 'NONE',  ( 7.347880794884120722E-16, -0.5000000000000000000, -6.000000000000000888 ) ) ;
#566 = EDGE_LOOP ( 'NONE', ( #452, #481, #249, #492 ) ) ;
#567 = APPROVAL_DATE_TIME ( #512, #377 ) ;
#568 = CARTESIAN_POINT ( 'NONE',  ( -2.999999999999968914, 0.000000000000000000, 5.196152422706646234 ) ) ;
#569 = CC_DESIGN_PERSON_AND_ORGANIZATION_ASSIGNMENT ( #311, #703, ( #463 ) ) ;
#570 = ORIENTED_EDGE ( 'NONE', *, *, #204, .T. ) ;
#571 = LINE ( 'NONE', #241, #127 ) ;
#572 = ORIENTED_EDGE ( 'NONE', *, *, #193, .F. ) ;
#573 = AXIS2_PLACEMENT_3D ( 'NONE', #583, #796, #588 ) ;
#574 = DIRECTION ( 'NONE',  ( 0.000000000000000000, 0.000000000000000000, -1.000000000000000000 ) ) ;
#575 = CC_DESIGN_APPROVAL ( #599, ( #291 ) ) ;
#576 = CARTESIAN_POINT ( 'NONE',  ( 0.000000000000000000, 10.00000000000000000, -6.928203230275514102 ) ) ;
#577 = VERTEX_POINT ( 'NONE', #539 ) ;
#578 = ADVANCED_FACE ( 'NONE', ( #754 ), #617, .F. ) ;
#579 = VERTEX_POINT ( 'NONE', #221 ) ;
#580 = LINE ( 'NONE', #248, #100 ) ;
#581 = CALENDAR_DATE ( 2026, 12, 1 ) ;
#582 = VERTEX_POINT ( 'NONE', #544 ) ;
#583 = CARTESIAN_POINT ( 'NONE',  ( 0.000000000000000000, 7.000000000000000000, 0.000000000000000000 ) ) ;
#584 = VERTEX_POINT ( 'NONE', #292 ) ;
#585 = VECTOR ( 'NONE', #774, 1000.000000000000000 ) ;
#586 = VECTOR ( 'NONE', #13, 1000.000000000000000 ) ;
#587 = EDGE_CURVE ( 'NONE', #264, #763, #603, .T. ) ;
#588 = DIRECTION ( 'NONE',  ( 0.000000000000000000, 0.000000000000000000, 1.000000000000000000 ) ) ;
#589 = DATE_AND_TIME ( #60, #431 ) ;
#590 = VECTOR ( 'NONE', #372, 1000.000000000000000 ) ;
#591 = CARTESIAN_POINT ( 'NONE',  ( 0.000000000000000000, -0.5000000000000000000, 0.000000000000000000 ) ) ;
#592 = DIRECTION ( 'NONE',  ( -0.000000000000000000, 1.000000000000000000, -0.000000000000000000 ) ) ;
#593 = EDGE_CURVE ( 'NONE', #273, #582, #858, .T. ) ;
#594 = ORIENTED_EDGE ( 'NONE', *, *, #766, .F. ) ;
#595 = LINE ( 'NONE', #56, #88 ) ;
#596 = PERSON_AND_ORGANIZATION ( #296, #688 ) ;
#597 = CYLINDRICAL_SURFACE ( 'NONE', #553, 4.500000000000000000 ) ;
#598 = CARTESIAN_POINT ( 'NONE',  ( -5.999999999999987566, 0.000000000000000000, 3.464101615137783252 ) ) ;
#599 = APPROVAL ( #450, 'UNSPECIFIED' ) ;
#600 = ORIENTED_EDGE ( 'NONE', *, *, #159, .T. ) ;
#601 = EDGE_CURVE ( 'NONE', #763, #264, #672, .T. ) ;
#602 = AXIS2_PLACEMENT_3D ( 'NONE', #213, #85, #818 ) ;
#603 = CIRCLE ( 'NONE', #225, 4.500000000000000000 ) ;
#604 = DIRECTION ( 'NONE',  ( 0.000000000000000000, -0.000000000000000000, 1.000000000000000000 ) ) ;
#605 = EDGE_LOOP ( 'NONE', ( #352, #368, #252, #336, #170, #174 ) ) ;
#606 = VECTOR ( 'NONE', #333, 1000.000000000000000 ) ;
#607 = ADVANCED_FACE ( 'NONE', ( #405 ), #442, .F. ) ;
#608 = EDGE_LOOP ( 'NONE', ( #382, #564 ) ) ;
#609 = DIRECTION ( 'NONE',  ( -0.000000000000000000, -1.000000000000000000, -0.000000000000000000 ) ) ;
#610 = CARTESIAN_POINT ( 'NONE',  ( 0.000000000000000000, -0.5000000000000000000, 2.000000000000000000 ) ) ;
#611 = ADVANCED_FACE ( 'NONE', ( #93 ), #90, .F. ) ;
#612 = DIRECTION ( 'NONE',  ( 0.000000000000000000, 0.000000000000000000, 1.000000000000000000 ) ) ;
#613 = FACE_OUTER_BOUND ( 'NONE', #370, .T. ) ;
#614 = EDGE_CURVE ( 'NONE', #247, #812, #674, .T. ) ;
#615 = AXIS2_PLACEMENT_3D ( 'NONE', #460, #192, #604 ) ;
#616 = ORIENTED_EDGE ( 'NONE', *, *, #558, .T. ) ;
#617 = PLANE ( 'NONE',  #458 ) ;
#618 = LINE ( 'NONE', #166, #417 ) ;
#619 = CIRCLE ( 'NONE', #119, 6.000000000000000888 ) ;
#620 = DIRECTION ( 'NONE',  ( 0.000000000000000000, 0.000000000000000000, -1.000000000000000000 ) ) ;
#621 = ADVANCED_FACE ( 'NONE', ( #286 ), #342, .T. ) ;
#622 = CARTESIAN_POINT ( 'NONE',  ( 4.837938458043933716E-14, 10.00000000000000000, 6.928203230275513214 ) ) ;
#623 = CARTESIAN_POINT ( 'NONE',  ( 6.000000000000034639, 0.000000000000000000, 3.464101615137700652 ) ) ;
#624 = CARTESIAN_POINT ( 'NONE',  ( 3.061616997868393988E-16, 10.00000000000000000, -2.500000000000009326 ) ) ;
#625 = LINE ( 'NONE', #833, #758 ) ;
#626 = VECTOR ( 'NONE', #152, 1000.000000000000000 ) ;
#627 = AXIS2_PLACEMENT_3D ( 'NONE', #348, #160, #422 ) ;
#628 = DIRECTION ( 'NONE',  ( 0.000000000000000000, -1.000000000000000000, 0.000000000000000000 ) ) ;
#629 = EDGE_CURVE ( 'NONE', #41, #699, #820, .T. ) ;
#630 = AXIS2_PLACEMENT_3D ( 'NONE', #526, #798, #721 ) ;
#631 = CARTESIAN_POINT ( 'NONE',  ( 6.000000000000034639, 7.000000000000000000, 3.464101615137700652 ) ) ;
#632 = ORIENTED_EDGE ( 'NONE', *, *, #593, .T. ) ;
#633 = DIRECTION ( 'NONE',  ( -0.8660254037844380415, 0.000000000000000000, 0.5000000000000011102 ) ) ;
#634 = ORIENTED_EDGE ( 'NONE', *, *, #82, .F. ) ;
#635 = ADVANCED_FACE ( 'NONE', ( #19 ), #219, .T. ) ;
#636 = DIRECTION ( 'NONE',  ( 0.000000000000000000, 1.000000000000000000, 0.000000000000000000 ) ) ;
#637 = ORIENTED_EDGE ( 'NONE', *, *, #524, .T. ) ;
#638 = DIRECTION ( 'NONE',  ( 0.000000000000000000, 1.000000000000000000, 0.000000000000000000 ) ) ;
#639 = ORIENTED_EDGE ( 'NONE', *, *, #295, .F. ) ;
#640 = PERSON_AND_ORGANIZATION ( #296, #688 ) ;
#641 = CARTESIAN_POINT ( 'NONE',  ( 2.449293598294706414E-16, -12.49999999999999467, -2.000000000000000000 ) ) ;
#642 = ADVANCED_FACE ( 'NONE', ( #750 ), #482, .F. ) ;
#643 = ORIENTED_EDGE ( 'NONE', *, *, #28, .F. ) ;
#644 = DIRECTION ( 'NONE',  ( 0.000000000000000000, -1.000000000000000000, 0.000000000000000000 ) ) ;
#645 = CIRCLE ( 'NONE', #772, 2.000000000000000000 ) ;
#646 = DIRECTION ( 'NONE',  ( 0.000000000000000000, -1.000000000000000000, 0.000000000000000000 ) ) ;
#647 = APPROVAL_PERSON_ORGANIZATION ( #709, #377, #37 ) ;
#648 = ORIENTED_EDGE ( 'NONE', *, *, #776, .F. ) ;
#649 = CARTESIAN_POINT ( 'NONE',  ( 3.000000000000041744, 0.000000000000000000, 5.196152422706605378 ) ) ;
#650 = EDGE_LOOP ( 'NONE', ( #139, #43 ) ) ;
#651 = LINE ( 'NONE', #395, #606 ) ;
#652 = CARTESIAN_POINT ( 'NONE',  ( -5.999999999999987566, 0.000000000000000000, 3.464101615137783252 ) ) ;
#653 = DIRECTION ( 'NONE',  ( 0.000000000000000000, 0.000000000000000000, -1.000000000000000000 ) ) ;
#654 = COORDINATED_UNIVERSAL_TIME_OFFSET ( 3, 0, .AHEAD. ) ;
#655 = LINE ( 'NONE', #529, #184 ) ;
#656 = AXIS2_PLACEMENT_3D ( 'NONE', #707, #118, #427 ) ;
#657 = VECTOR ( 'NONE', #4, 1000.000000000000000 ) ;
#658 = EDGE_CURVE ( 'NONE', #55, #685, #22, .T. ) ;
#659 = EDGE_LOOP ( 'NONE', ( #211, #177 ) ) ;
#660 = LINE ( 'NONE', #726, #238 ) ;
#661 = APPROVAL_ROLE ( '' ) ;
#662 = VERTEX_POINT ( 'NONE', #239 ) ;
#663 = FACE_OUTER_BOUND ( 'NONE', #538, .T. ) ;
#664 = EDGE_CURVE ( 'NONE', #534, #453, #362, .T. ) ;
#665 = ORIENTED_EDGE ( 'NONE', *, *, #204, .F. ) ;
#666 = LINE ( 'NONE', #652, #748 ) ;
#667 = ORIENTED_EDGE ( 'NONE', *, *, #383, .T. ) ;
#668 =( LENGTH_UNIT ( ) NAMED_UNIT ( * ) SI_UNIT ( .MILLI., .METRE. ) );
#669 = CARTESIAN_POINT ( 'NONE',  ( 0.000000000000000000, 7.000000000000000000, 0.000000000000000000 ) ) ;
#670 = ORIENTED_EDGE ( 'NONE', *, *, #15, .F. ) ;
#671 = VECTOR ( 'NONE', #414, 1000.000000000000000 ) ;
#672 = CIRCLE ( 'NONE', #627, 4.500000000000000000 ) ;
#673 = EDGE_LOOP ( 'NONE', ( #702, #616 ) ) ;
#674 = LINE ( 'NONE', #623, #294 ) ;
#675 = CARTESIAN_POINT ( 'NONE',  ( 0.000000000000000000, 0.000000000000000000, 0.000000000000000000 ) ) ;
#676 = EDGE_CURVE ( 'NONE', #812, #254, #625, .T. ) ;
#677 = APPROVAL_PERSON_ORGANIZATION ( #266, #599, #661 ) ;
#678 = DIRECTION ( 'NONE',  ( 0.5000000000000011102, -0.000000000000000000, 0.8660254037844380415 ) ) ;
#679 = DIRECTION ( 'NONE',  ( -3.380207847158600080E-15, 0.000000000000000000, -1.000000000000000000 ) ) ;
#680 = ADVANCED_FACE ( 'NONE', ( #765 ), #696, .F. ) ;
#681 = DIRECTION ( 'NONE',  ( 0.000000000000000000, 1.000000000000000000, 0.000000000000000000 ) ) ;
#682 = LINE ( 'NONE', #622, #671 ) ;
#683 = EDGE_CURVE ( 'NONE', #117, #191, #789, .T. ) ;
#684 = AXIS2_PLACEMENT_3D ( 'NONE', #591, #394, #332 ) ;
#685 = VERTEX_POINT ( 'NONE', #35 ) ;
#686 = DIRECTION ( 'NONE',  ( 0.8660254037844414832, 0.000000000000000000, 0.4999999999999951705 ) ) ;
#687 = CARTESIAN_POINT ( 'NONE',  ( 4.837938458043933716E-14, 0.000000000000000000, 6.928203230275513214 ) ) ;
#688 = ORGANIZATION ( 'UNSPECIFIED', 'UNSPECIFIED', '' ) ;
#689 = ADVANCED_FACE ( 'NONE', ( #180 ), #563, .F. ) ;
#690 = CARTESIAN_POINT ( 'NONE',  ( 0.000000000000000000, 9.499999999999996447, 0.000000000000000000 ) ) ;
#691 = DIRECTION ( 'NONE',  ( -0.000000000000000000, 1.000000000000000000, -0.000000000000000000 ) ) ;
#692 = DIRECTION ( 'NONE',  ( -1.039100930793199338E-14, 0.000000000000000000, -1.000000000000000000 ) ) ;
#693 = ORIENTED_EDGE ( 'NONE', *, *, #468, .F. ) ;
#694 = CARTESIAN_POINT ( 'NONE',  ( 0.000000000000000000, 9.499999999999996447, 0.000000000000000000 ) ) ;
#695 = EDGE_CURVE ( 'NONE', #728, #41, #430, .T. ) ;
#696 = PLANE ( 'NONE',  #375 ) ;
#697 = AXIS2_PLACEMENT_3D ( 'NONE', #54, #182, #768 ) ;
#698 = AXIS2_PLACEMENT_3D ( 'NONE', #532, #265, #402 ) ;
#699 = VERTEX_POINT ( 'NONE', #771 ) ;
#700 = CARTESIAN_POINT ( 'NONE',  ( 5.510910596163088569E-16, 7.000000000000000000, -4.500000000000000000 ) ) ;
#701 = EDGE_CURVE ( 'NONE', #191, #775, #313, .T. ) ;
#702 = ORIENTED_EDGE ( 'NONE', *, *, #683, .T. ) ;
#703 = PERSON_AND_ORGANIZATION_ROLE ( 'classification_officer' ) ;
#704 = AXIS2_PLACEMENT_3D ( 'NONE', #741, #592, #68 ) ;
#705 = CARTESIAN_POINT ( 'NONE',  ( 0.000000000000000000, 10.00000000000000000, 4.500000000000000000 ) ) ;
#706 = ORIENTED_EDGE ( 'NONE', *, *, #412, .F. ) ;
#707 = CARTESIAN_POINT ( 'NONE',  ( 0.000000000000000000, 10.00000000000000000, 0.000000000000000000 ) ) ;
#708 = ORIENTED_EDGE ( 'NONE', *, *, #98, .F. ) ;
#709 = PERSON_AND_ORGANIZATION ( #296, #688 ) ;
#710 = EDGE_CURVE ( 'NONE', #775, #844, #105, .T. ) ;
#711 = DIRECTION ( 'NONE',  ( 0.000000000000000000, 0.000000000000000000, 1.000000000000000000 ) ) ;
#712 = ORIENTED_EDGE ( 'NONE', *, *, #415, .F. ) ;
#713 = LINE ( 'NONE', #700, #389 ) ;
#714 = ORIENTED_EDGE ( 'NONE', *, *, #280, .T. ) ;
#715 = CARTESIAN_POINT ( 'NONE',  ( -5.999999999999987566, 10.00000000000000000, 3.464101615137783252 ) ) ;
#716 = VERTEX_POINT ( 'NONE', #491 ) ;
#717 = CARTESIAN_POINT ( 'NONE',  ( 6.000000000000034639, 0.000000000000000000, 3.464101615137700652 ) ) ;
#718 = AXIS2_PLACEMENT_3D ( 'NONE', #828, #290, #549 ) ;
#719 = ORIENTED_EDGE ( 'NONE', *, *, #824, .F. ) ;
#720 = AXIS2_PLACEMENT_3D ( 'NONE', #275, #465, #73 ) ;
#721 = DIRECTION ( 'NONE',  ( 0.000000000000000000, 0.000000000000000000, 1.000000000000000000 ) ) ;
#722 = CC_DESIGN_APPROVAL ( #210, ( #736 ) ) ;
#723 = DIRECTION ( 'NONE',  ( 0.000000000000000000, 1.000000000000000000, 0.000000000000000000 ) ) ;
#724 = ORIENTED_EDGE ( 'NONE', *, *, #710, .F. ) ;
#725 = DIRECTION ( 'NONE',  ( -0.000000000000000000, -1.000000000000000000, -0.000000000000000000 ) ) ;
#726 = CARTESIAN_POINT ( 'NONE',  ( -5.999999999999987566, 7.000000000000000000, 3.464101615137783252 ) ) ;
#727 = PERSON_AND_ORGANIZATION ( #296, #688 ) ;
#728 = VERTEX_POINT ( 'NONE', #230 ) ;
#729 = ADVANCED_FACE ( 'NONE', ( #358 ), #91, .F. ) ;
#730 = UNCERTAINTY_MEASURE_WITH_UNIT (LENGTH_MEASURE( 1.000000000000000082E-05 ), #668, 'distance_accuracy_value', 'NONE');
#731 = ORIENTED_EDGE ( 'NONE', *, *, #495, .F. ) ;
#732 = DIRECTION ( 'NONE',  ( -0.000000000000000000, 1.000000000000000000, -0.000000000000000000 ) ) ;
#733 = FACE_BOUND ( 'NONE', #309, .T. ) ;
#734 = CIRCLE ( 'NONE', #202, 6.000000000000000888 ) ;
#735 = CARTESIAN_POINT ( 'NONE',  ( 4.837938458043933716E-14, 10.00000000000000000, 6.928203230275513214 ) ) ;
#736 = PRODUCT_DEFINITION_FORMATION_WITH_SPECIFIED_SOURCE ( 'ANY', '', #32, .NOT_KNOWN. ) ;
#737 = ORIENTED_EDGE ( 'NONE', *, *, #153, .F. ) ;
#738 = LINE ( 'NONE', #519, #543 ) ;
#739 = COORDINATED_UNIVERSAL_TIME_OFFSET ( 3, 0, .AHEAD. ) ;
#740 = DIRECTION ( 'NONE',  ( 0.000000000000000000, 1.000000000000000000, 0.000000000000000000 ) ) ;
#741 = CARTESIAN_POINT ( 'NONE',  ( 0.000000000000000000, 3.000000000000000000, 0.000000000000000000 ) ) ;
#742 = CARTESIAN_POINT ( 'NONE',  ( 0.000000000000000000, 0.000000000000000000, 0.000000000000000000 ) ) ;
#743 = ORIENTED_EDGE ( 'NONE', *, *, #550, .F. ) ;
#744 = CARTESIAN_POINT ( 'NONE',  ( 4.837938458043933716E-14, 7.000000000000000000, 6.928203230275513214 ) ) ;
#745 = VERTEX_POINT ( 'NONE', #829 ) ;
#746 = VECTOR ( 'NONE', #232, 1000.000000000000000 ) ;
#747 = APPLICATION_CONTEXT ( 'configuration controlled 3d designs of mechanical parts and assemblies' ) ;
#748 = VECTOR ( 'NONE', #794, 1000.000000000000000 ) ;
#749 = ORIENTED_EDGE ( 'NONE', *, *, #366, .T. ) ;
#750 = FACE_OUTER_BOUND ( 'NONE', #522, .T. ) ;
#751 = DIRECTION ( 'NONE',  ( 0.000000000000000000, 0.000000000000000000, 1.000000000000000000 ) ) ;
#752 = AXIS2_PLACEMENT_3D ( 'NONE', #390, #251, #195 ) ;
#753 = EDGE_CURVE ( 'NONE', #767, #807, #109, .T. ) ;
#754 = FACE_OUTER_BOUND ( 'NONE', #455, .T. ) ;
#755 = DIRECTION ( 'NONE',  ( -0.8660254037844414832, 0.000000000000000000, -0.4999999999999951705 ) ) ;
#756 = CARTESIAN_POINT ( 'NONE',  ( 5.999999999999962697, 10.00000000000000000, -3.464101615137825885 ) ) ;
#757 = DIRECTION ( 'NONE',  ( 0.000000000000000000, 0.000000000000000000, 1.000000000000000000 ) ) ;
#758 = VECTOR ( 'NONE', #42, 1000.000000000000000 ) ;
#759 = CARTESIAN_POINT ( 'NONE',  ( -6.000000000000011546, 7.000000000000000000, -3.464101615137742840 ) ) ;
#760 = LINE ( 'NONE', #162, #404 ) ;
#761 = EDGE_CURVE ( 'NONE', #577, #453, #520, .T. ) ;
#762 = DIRECTION ( 'NONE',  ( 0.000000000000000000, 1.000000000000000000, 0.000000000000000000 ) ) ;
#763 = VERTEX_POINT ( 'NONE', #705 ) ;
#764 = PLANE ( 'NONE',  #718 ) ;
#765 = FACE_OUTER_BOUND ( 'NONE', #851, .T. ) ;
#766 = EDGE_CURVE ( 'NONE', #55, #270, #167, .T. ) ;
#767 = VERTEX_POINT ( 'NONE', #631 ) ;
#768 = DIRECTION ( 'NONE',  ( 0.000000000000000000, -0.000000000000000000, 1.000000000000000000 ) ) ;
#769 = VERTEX_POINT ( 'NONE', #508 ) ;
#770 = CALENDAR_DATE ( 2026, 12, 1 ) ;
#771 = CARTESIAN_POINT ( 'NONE',  ( -6.000000000000011546, 0.000000000000000000, -3.464101615137742840 ) ) ;
#772 = AXIS2_PLACEMENT_3D ( 'NONE', #514, #644, #304 ) ;
#773 = AXIS2_PLACEMENT_3D ( 'NONE', #552, #208, #546 ) ;
#774 = DIRECTION ( 'NONE',  ( -0.000000000000000000, -1.000000000000000000, -0.000000000000000000 ) ) ;
#775 = VERTEX_POINT ( 'NONE', #641 ) ;
#776 = EDGE_CURVE ( 'NONE', #699, #55, #494, .T. ) ;
#777 = CIRCLE ( 'NONE', #146, 2.500000000000009326 ) ;
#778 = DIRECTION ( 'NONE',  ( 0.000000000000000000, -0.000000000000000000, 1.000000000000000000 ) ) ;
#779 = ORIENTED_EDGE ( 'NONE', *, *, #614, .F. ) ;
#780 = FACE_OUTER_BOUND ( 'NONE', #566, .T. ) ;
#781 = DIRECTION ( 'NONE',  ( -0.000000000000000000, 1.000000000000000000, -0.000000000000000000 ) ) ;
#782 = ORIENTED_EDGE ( 'NONE', *, *, #676, .F. ) ;
#783 = DIRECTION ( 'NONE',  ( 0.000000000000000000, -0.000000000000000000, 1.000000000000000000 ) ) ;
#784 = VERTEX_POINT ( 'NONE', #367 ) ;
#785 = COORDINATED_UNIVERSAL_TIME_OFFSET ( 3, 0, .AHEAD. ) ;
#786 = AXIS2_PLACEMENT_3D ( 'NONE', #411, #821, #679 ) ;
#787 = ORIENTED_EDGE ( 'NONE', *, *, #776, .T. ) ;
#788 = PLANE ( 'NONE',  #697 ) ;
#789 = CIRCLE ( 'NONE', #256, 1.499999999999994449 ) ;
#790 = VERTEX_POINT ( 'NONE', #568 ) ;
#791 = CYLINDRICAL_SURFACE ( 'NONE', #704, 2.000000000000000000 ) ;
#792 = CC_DESIGN_APPROVAL ( #377, ( #463 ) ) ;
#793 = EDGE_CURVE ( 'NONE', #775, #784, #133, .T. ) ;
#794 = DIRECTION ( 'NONE',  ( 0.8660254037844415942, 0.000000000000000000, 0.4999999999999950595 ) ) ;
#795 = ORIENTED_EDGE ( 'NONE', *, *, #676, .T. ) ;
#796 = DIRECTION ( 'NONE',  ( 0.000000000000000000, 1.000000000000000000, 0.000000000000000000 ) ) ;
#797 = ORIENTED_EDGE ( 'NONE', *, *, #587, .T. ) ;
#798 = DIRECTION ( 'NONE',  ( -0.000000000000000000, 1.000000000000000000, -0.000000000000000000 ) ) ;
#799 = ORIENTED_EDGE ( 'NONE', *, *, #860, .T. ) ;
#800 = CARTESIAN_POINT ( 'NONE',  ( 0.000000000000000000, 3.000000000000000000, 2.000000000000000000 ) ) ;
#801 = DATE_AND_TIME ( #863, #446 ) ;
#802 = DIRECTION ( 'NONE',  ( -0.000000000000000000, 1.000000000000000000, -0.000000000000000000 ) ) ;
#803 = AXIS2_PLACEMENT_3D ( 'NONE', #350, #217, #757 ) ;
#804 = CIRCLE ( 'NONE', #351, 2.000000000000000000 ) ;
#805 = LINE ( 'NONE', #759, #840 ) ;
#806 = DATE_AND_TIME ( #66, #329 ) ;
#807 = VERTEX_POINT ( 'NONE', #847 ) ;
#808 = EDGE_CURVE ( 'NONE', #790, #55, #619, .T. ) ;
#809 = FACE_OUTER_BOUND ( 'NONE', #276, .T. ) ;
#810 = DIRECTION ( 'NONE',  ( 0.000000000000000000, -0.000000000000000000, 1.000000000000000000 ) ) ;
#811 = EDGE_CURVE ( 'NONE', #769, #147, #777, .T. ) ;
#812 = VERTEX_POINT ( 'NONE', #324 ) ;
#813 = CARTESIAN_POINT ( 'NONE',  ( 0.000000000000000000, 10.00000000000000000, -6.928203230275514102 ) ) ;
#814 = FACE_OUTER_BOUND ( 'NONE', #509, .T. ) ;
#815 = CIRCLE ( 'NONE', #428, 2.000000000000000000 ) ;
#816 = CIRCLE ( 'NONE', #720, 6.000000000000000888 ) ;
#817 = DIRECTION ( 'NONE',  ( 3.380207847158600080E-15, 0.000000000000000000, 1.000000000000000000 ) ) ;
#818 = DIRECTION ( 'NONE',  ( 0.000000000000000000, -0.000000000000000000, 1.000000000000000000 ) ) ;
#819 = APPROVAL_PERSON_ORGANIZATION ( #466, #210, #398 ) ;
#820 = LINE ( 'NONE', #345, #391 ) ;
#821 = DIRECTION ( 'NONE',  ( 1.000000000000000000, 0.000000000000000000, -3.380207847158600080E-15 ) ) ;
#822 = LINE ( 'NONE', #744, #419 ) ;
#823 = CYLINDRICAL_SURFACE ( 'NONE', #47, 6.000000000000000888 ) ;
#824 = EDGE_CURVE ( 'NONE', #579, #790, #24, .T. ) ;
#825 = CIRCLE ( 'NONE', #269, 6.000000000000000888 ) ;
#826 = AXIS2_PLACEMENT_3D ( 'NONE', #537, #732, #331 ) ;
#827 = DIRECTION ( 'NONE',  ( 0.000000000000000000, -1.000000000000000000, 0.000000000000000000 ) ) ;
#828 = CARTESIAN_POINT ( 'NONE',  ( 0.000000000000000000, 0.000000000000000000, 0.000000000000000000 ) ) ;
#829 = CARTESIAN_POINT ( 'NONE',  ( 4.837938458043933716E-14, 7.000000000000000000, 6.928203230275513214 ) ) ;
#830 = ORIENTED_EDGE ( 'NONE', *, *, #354, .F. ) ;
#831 = PLANE ( 'NONE',  #58 ) ;
#832 = ORIENTED_EDGE ( 'NONE', *, *, #548, .F. ) ;
#833 = CARTESIAN_POINT ( 'NONE',  ( 6.000000000000034639, 0.000000000000000000, 3.464101615137700652 ) ) ;
#834 = ADVANCED_FACE ( 'NONE', ( #663 ), #791, .F. ) ;
#835 = EDGE_LOOP ( 'NONE', ( #832, #363, #787, #527, #57 ) ) ;
#836 = CARTESIAN_POINT ( 'NONE',  ( 0.000000000000000000, 7.000000000000000000, 4.500000000000000000 ) ) ;
#837 = VERTEX_POINT ( 'NONE', #2 ) ;
#838 = CARTESIAN_POINT ( 'NONE',  ( 6.000000000000034639, 7.000000000000000000, 3.464101615137700652 ) ) ;
#839 = AXIS2_PLACEMENT_3D ( 'NONE', #675, #194, #387 ) ;
#840 = VECTOR ( 'NONE', #817, 1000.000000000000000 ) ;
#841 = ORIENTED_EDGE ( 'NONE', *, *, #98, .T. ) ;
#842 = DIRECTION ( 'NONE',  ( 0.000000000000000000, 0.000000000000000000, 1.000000000000000000 ) ) ;
#843 = ADVANCED_FACE ( 'NONE', ( #263 ), #443, .F. ) ;
#844 = VERTEX_POINT ( 'NONE', #380 ) ;
#845 = CARTESIAN_POINT ( 'NONE',  ( 0.000000000000000000, 0.000000000000000000, 0.000000000000000000 ) ) ;
#846 = PERSON_AND_ORGANIZATION_ROLE ( 'design_supplier' ) ;
#847 = CARTESIAN_POINT ( 'NONE',  ( 5.999999999999962697, 7.000000000000000000, -3.464101615137826329 ) ) ;
#848 = ORIENTED_EDGE ( 'NONE', *, *, #396, .T. ) ;
#849 = DIRECTION ( 'NONE',  ( 0.000000000000000000, 0.000000000000000000, 1.000000000000000000 ) ) ;
#850 = CC_DESIGN_PERSON_AND_ORGANIZATION_ASSIGNMENT ( #640, #846, ( #736 ) ) ;
#851 = EDGE_LOOP ( 'NONE', ( #196, #268, #83, #365, #708 ) ) ;
#852 = ORIENTED_EDGE ( 'NONE', *, *, #153, .T. ) ;
#853 = LINE ( 'NONE', #576, #585 ) ;
#854 = EDGE_LOOP ( 'NONE', ( #341, #518, #435, #439 ) ) ;
#855 = ADVANCED_FACE ( 'NONE', ( #199 ), #457, .F. ) ;
#856 = AXIS2_PLACEMENT_3D ( 'NONE', #36, #638, #849 ) ;
#857 = CARTESIAN_POINT ( 'NONE',  ( 0.000000000000000000, -0.5000000000000000000, 0.000000000000000000 ) ) ;
#858 = CIRCLE ( 'NONE', #48, 4.500000000000000000 ) ;
#859 = ORIENTED_EDGE ( 'NONE', *, *, #501, .F. ) ;
#860 = EDGE_CURVE ( 'NONE', #784, #112, #651, .T. ) ;
#861 = ORIENTED_EDGE ( 'NONE', *, *, #295, .T. ) ;
#862 = FACE_OUTER_BOUND ( 'NONE', #103, .T. ) ;
#863 = CALENDAR_DATE ( 2026, 12, 1 ) ;
ENDSEC;
END-ISO-10303-21;
