ISO-10303-21;
HEADER;
FILE_DESCRIPTION (( 'STEP AP203' ),
    '1' );
FILE_NAME ('758442.015 гайка.STEP',
    '2026-01-12T12:09:45',
    ( '' ),
    ( '' ),
    'SwSTEP 2.0',
    'SolidWorks 2022',
    '' );
FILE_SCHEMA (( 'CONFIG_CONTROL_DESIGN' ));
ENDSEC;

DATA;
#1 = ORIENTED_EDGE ( 'NONE', *, *, #332, .T. ) ;
#2 = PLANE ( 'NONE',  #446 ) ;
#3 = EDGE_CURVE ( 'NONE', #455, #594, #138, .T. ) ;
#4 = ORIENTED_EDGE ( 'NONE', *, *, #385, .F. ) ;
#5 = CARTESIAN_POINT ( 'NONE',  ( 4.714285714285696649, 3.785714285714274485, -2.721794126179733819 ) ) ;
#6 = EDGE_CURVE ( 'NONE', #114, #151, #76, .T. ) ;
#7 = ADVANCED_FACE ( 'NONE', ( #84 ), #310, .F. ) ;
#8 = APPROVAL_ROLE ( '' ) ;
#9 = ORIENTED_EDGE ( 'NONE', *, *, #298, .T. ) ;
#10 = CARTESIAN_POINT ( 'NONE',  ( -6.000000000000012434, 0.5000000000000004441, -3.464101615137743728 ) ) ;
#11 = AXIS2_PLACEMENT_3D ( 'NONE', #471, #634, #95 ) ;
#12 = EDGE_LOOP ( 'NONE', ( #534, #1 ) ) ;
#13 = DIRECTION ( 'NONE',  ( -0.000000000000000000, -1.000000000000000000, -0.000000000000000000 ) ) ;
#14 = ORIENTED_EDGE ( 'NONE', *, *, #29, .T. ) ;
#15 = EDGE_CURVE ( 'NONE', #320, #583, #426, .T. ) ;
#16 = CARTESIAN_POINT ( 'NONE',  ( 0.000000000000000000, 3.000000000000000000, -6.928203230275514990 ) ) ;
#17 = ORIENTED_EDGE ( 'NONE', *, *, #295, .T. ) ;
#18 = AXIS2_PLACEMENT_3D ( 'NONE', #707, #287, #642 ) ;
#19 = DIRECTION ( 'NONE',  ( -0.6546536707079817496, -0.6546536707079766426, -0.3779644730092202587 ) ) ;
#20 = CARTESIAN_POINT ( 'NONE',  ( 0.000000000000000000, 0.000000000000000000, -2.499999999999998668 ) ) ;
#21 = CARTESIAN_POINT ( 'NONE',  ( 2.449293598294706414E-16, 0.000000000000000000, -2.000000000000000000 ) ) ;
#22 = CARTESIAN_POINT ( 'NONE',  ( 4.837938458043934978E-14, 3.000000000000000000, 6.928203230275514102 ) ) ;
#23 = CC_DESIGN_PERSON_AND_ORGANIZATION_ASSIGNMENT ( #279, #744, ( #232 ) ) ;
#24 = DIRECTION ( 'NONE',  ( -0.000000000000000000, 1.000000000000000000, -0.000000000000000000 ) ) ;
#25 = DIRECTION ( 'NONE',  ( 0.000000000000000000, 0.000000000000000000, 1.000000000000000000 ) ) ;
#26 = LINE ( 'NONE', #746, #724 ) ;
#27 = DIRECTION ( 'NONE',  ( -0.8660254037844379305, 0.000000000000000000, 0.5000000000000011102 ) ) ;
#28 = AXIS2_PLACEMENT_3D ( 'NONE', #562, #742, #205 ) ;
#29 = EDGE_CURVE ( 'NONE', #97, #470, #314, .T. ) ;
#30 = ORIENTED_EDGE ( 'NONE', *, *, #368, .F. ) ;
#31 = DIRECTION ( 'NONE',  ( 0.8660254037844379305, 0.000000000000000000, -0.5000000000000011102 ) ) ;
#32 = DIRECTION ( 'NONE',  ( 0.000000000000000000, 0.000000000000000000, 1.000000000000000000 ) ) ;
#33 = DIRECTION ( 'NONE',  ( 0.4999999999999948375, 0.000000000000000000, -0.8660254037844415942 ) ) ;
#34 = ORIENTED_EDGE ( 'NONE', *, *, #215, .T. ) ;
#35 = DIRECTION ( 'NONE',  ( 3.255014963930502918E-15, 0.000000000000000000, 1.000000000000000000 ) ) ;
#36 = CARTESIAN_POINT ( 'NONE',  ( 1.907183901546840320E-15, 3.000000000000000000, -6.350852961085887038 ) ) ;
#37 = APPLICATION_PROTOCOL_DEFINITION ( 'international standard', 'config_control_design', 1994, #370 ) ;
#38 = EDGE_LOOP ( 'NONE', ( #660, #71, #693, #67 ) ) ;
#39 = DIRECTION ( 'NONE',  ( -3.255014963930502918E-15, 0.000000000000000000, -1.000000000000000000 ) ) ;
#40 = CARTESIAN_POINT ( 'NONE',  ( -4.714285714285721518, 3.785714285714289140, -2.721794126179653439 ) ) ;
#41 = APPROVAL_ROLE ( '' ) ;
#42 = ORIENTED_EDGE ( 'NONE', *, *, #98, .T. ) ;
#43 = VECTOR ( 'NONE', #629, 1000.000000000000000 ) ;
#44 = CARTESIAN_POINT ( 'NONE',  ( 0.000000000000000000, 0.000000000000000000, -2.499999999999998668 ) ) ;
#45 = EDGE_CURVE ( 'NONE', #72, #243, #563, .T. ) ;
#46 = FACE_OUTER_BOUND ( 'NONE', #425, .T. ) ;
#47 = LINE ( 'NONE', #454, #765 ) ;
#48 = EDGE_LOOP ( 'NONE', ( #62, #350, #427, #302 ) ) ;
#49 = DIRECTION ( 'NONE',  ( -0.8660254037844344888, 0.000000000000000000, 0.5000000000000071054 ) ) ;
#50 = EDGE_CURVE ( 'NONE', #455, #86, #73, .T. ) ;
#51 = CARTESIAN_POINT ( 'NONE',  ( -5.500000000000008882, 3.000000000000000000, -3.175426480542929308 ) ) ;
#52 = EDGE_LOOP ( 'NONE', ( #121, #578, #643, #491 ) ) ;
#53 = DIRECTION ( 'NONE',  ( -3.255014963930502918E-15, 0.000000000000000000, -1.000000000000000000 ) ) ;
#54 = VECTOR ( 'NONE', #148, 999.9999999999998863 ) ;
#55 = ORIENTED_EDGE ( 'NONE', *, *, #283, .F. ) ;
#56 = ADVANCED_FACE ( 'NONE', ( #249 ), #493, .F. ) ;
#57 = VECTOR ( 'NONE', #751, 1000.000000000000000 ) ;
#58 = LOCAL_TIME ( 15, 9, 45.00000000000000000, #106 ) ;
#59 = LINE ( 'NONE', #584, #462 ) ;
#60 = AXIS2_PLACEMENT_3D ( 'NONE', #620, #615, #146 ) ;
#61 = SECURITY_CLASSIFICATION_LEVEL ( 'unclassified' ) ;
#62 = ORIENTED_EDGE ( 'NONE', *, *, #351, .F. ) ;
#63 = CC_DESIGN_PERSON_AND_ORGANIZATION_ASSIGNMENT ( #761, #356, ( #464 ) ) ;
#64 = CARTESIAN_POINT ( 'NONE',  ( 0.000000000000000000, 3.000000000000000000, 0.000000000000000000 ) ) ;
#65 = EDGE_LOOP ( 'NONE', ( #357, #511, #486, #125 ) ) ;
#66 = DIRECTION ( 'NONE',  ( 0.000000000000000000, 0.7071067811865451302, 0.7071067811865500152 ) ) ;
#67 = ORIENTED_EDGE ( 'NONE', *, *, #723, .F. ) ;
#68 = DIRECTION ( 'NONE',  ( 0.3535533905932696785, 0.7071067811865484609, -0.6123724356957959136 ) ) ;
#69 = ORIENTED_EDGE ( 'NONE', *, *, #45, .F. ) ;
#70 = DIRECTION ( 'NONE',  ( -0.6546536707079726458, 0.6546536707079788631, 0.3779644730092320826 ) ) ;
#71 = ORIENTED_EDGE ( 'NONE', *, *, #165, .F. ) ;
#72 = VERTEX_POINT ( 'NONE', #440 ) ;
#73 = CIRCLE ( 'NONE', #194, 2.000000000000000000 ) ;
#74 = EDGE_CURVE ( 'NONE', #177, #598, #490, .T. ) ;
#75 = VECTOR ( 'NONE', #419, 1000.000000000000114 ) ;
#76 = LINE ( 'NONE', #604, #245 ) ;
#77 = ORIENTED_EDGE ( 'NONE', *, *, #266, .F. ) ;
#78 = EDGE_CURVE ( 'NONE', #206, #526, #80, .T. ) ;
#79 = LINE ( 'NONE', #317, #361 ) ;
#80 = LINE ( 'NONE', #367, #379 ) ;
#81 = CARTESIAN_POINT ( 'NONE',  ( 4.846383711010204820E-14, 2.499999999999996003, 6.928203230275514102 ) ) ;
#82 = ORIENTED_EDGE ( 'NONE', *, *, #468, .T. ) ;
#83 = CARTESIAN_POINT ( 'NONE',  ( -5.999999999999989342, 2.499999999999996003, 3.464101615137784584 ) ) ;
#84 = FACE_OUTER_BOUND ( 'NONE', #727, .T. ) ;
#85 = DIRECTION ( 'NONE',  ( 8.659560562354902043E-17, -0.7071067811865500152, 0.7071067811865450192 ) ) ;
#86 = VERTEX_POINT ( 'NONE', #675 ) ;
#87 = DIRECTION ( 'NONE',  ( 0.000000000000000000, 0.000000000000000000, -1.000000000000000000 ) ) ;
#88 = ORIENTED_EDGE ( 'NONE', *, *, #178, .F. ) ;
#89 = AXIS2_PLACEMENT_3D ( 'NONE', #736, #479, #25 ) ;
#90 = CARTESIAN_POINT ( 'NONE',  ( 5.499999999999964473, 3.000000000000000000, -3.175426480543008800 ) ) ;
#91 = VECTOR ( 'NONE', #339, 1000.000000000000000 ) ;
#92 = CARTESIAN_POINT ( 'NONE',  ( -2.749999999999971134, 0.000000000000000000, 4.763139720814428379 ) ) ;
#93 = CARTESIAN_POINT ( 'NONE',  ( -5.999999999999989342, 3.000000000000000000, 3.464101615137784584 ) ) ;
#94 = CARTESIAN_POINT ( 'NONE',  ( -5.499999999999999112, 3.000000000000000000, 1.790258230161776152E-14 ) ) ;
#95 = DIRECTION ( 'NONE',  ( 0.000000000000000000, 0.000000000000000000, 1.000000000000000000 ) ) ;
#96 = DIRECTION ( 'NONE',  ( -0.7071067811865469066, 0.7071067811865481278, 7.436077881698119652E-15 ) ) ;
#97 = VERTEX_POINT ( 'NONE', #141 ) ;
#98 = EDGE_CURVE ( 'NONE', #408, #590, #378, .T. ) ;
#99 = FACE_OUTER_BOUND ( 'NONE', #421, .T. ) ;
#100 = LINE ( 'NONE', #93, #409 ) ;
#101 = COORDINATED_UNIVERSAL_TIME_OFFSET ( 3, 0, .AHEAD. ) ;
#102 = ORIENTED_EDGE ( 'NONE', *, *, #165, .T. ) ;
#103 = APPROVAL ( #228, 'UNSPECIFIED' ) ;
#104 = LINE ( 'NONE', #277, #512 ) ;
#105 = DIRECTION ( 'NONE',  ( 0.8660254037844379305, 0.000000000000000000, -0.5000000000000011102 ) ) ;
#106 = COORDINATED_UNIVERSAL_TIME_OFFSET ( 3, 0, .AHEAD. ) ;
#107 = ORIENTED_EDGE ( 'NONE', *, *, #741, .F. ) ;
#108 = CARTESIAN_POINT ( 'NONE',  ( 2.449293598294706414E-16, 0.5000000000000023315, -2.000000000000000000 ) ) ;
#109 = EDGE_CURVE ( 'NONE', #416, #252, #474, .T. ) ;
#110 = ORIENTED_EDGE ( 'NONE', *, *, #15, .T. ) ;
#111 = FACE_OUTER_BOUND ( 'NONE', #213, .T. ) ;
#112 = VECTOR ( 'NONE', #24, 1000.000000000000000 ) ;
#113 = EDGE_CURVE ( 'NONE', #637, #340, #261, .T. ) ;
#114 = VERTEX_POINT ( 'NONE', #502 ) ;
#115 = VECTOR ( 'NONE', #31, 1000.000000000000114 ) ;
#116 = APPROVAL_PERSON_ORGANIZATION ( #292, #519, #301 ) ;
#117 = CARTESIAN_POINT ( 'NONE',  ( 3.061616997868391523E-16, 3.000000000000000000, -2.500000000000007550 ) ) ;
#118 = ORIENTED_EDGE ( 'NONE', *, *, #662, .F. ) ;
#119 = FACE_OUTER_BOUND ( 'NONE', #188, .T. ) ;
#120 = DATE_AND_TIME ( #415, #635 ) ;
#121 = ORIENTED_EDGE ( 'NONE', *, *, #481, .T. ) ;
#122 = DIRECTION ( 'NONE',  ( -0.8660254037844345998, -0.000000000000000000, 0.5000000000000072164 ) ) ;
#123 = ADVANCED_FACE ( 'NONE', ( #730, #193 ), #681, .F. ) ;
#124 = AXIS2_PLACEMENT_3D ( 'NONE', #636, #566, #105 ) ;
#125 = ORIENTED_EDGE ( 'NONE', *, *, #550, .F. ) ;
#126 = DIRECTION ( 'NONE',  ( -0.5000000000000072164, 0.000000000000000000, -0.8660254037844345998 ) ) ;
#127 = CIRCLE ( 'NONE', #28, 2.000000000000000000 ) ;
#128 = ORIENTED_EDGE ( 'NONE', *, *, #130, .T. ) ;
#129 = FACE_OUTER_BOUND ( 'NONE', #483, .T. ) ;
#130 = EDGE_CURVE ( 'NONE', #177, #637, #555, .T. ) ;
#131 = ORIENTED_EDGE ( 'NONE', *, *, #130, .F. ) ;
#132 = DIRECTION ( 'NONE',  ( -0.000000000000000000, -1.000000000000000000, -0.000000000000000000 ) ) ;
#133 = ADVANCED_FACE ( 'NONE', ( #671 ), #211, .T. ) ;
#134 = VERTEX_POINT ( 'NONE', #386 ) ;
#135 = DIRECTION ( 'NONE',  ( 0.000000000000000000, 0.000000000000000000, 1.000000000000000000 ) ) ;
#136 = ORIENTED_EDGE ( 'NONE', *, *, #74, .F. ) ;
#137 = LINE ( 'NONE', #22, #750 ) ;
#138 = LINE ( 'NONE', #21, #112 ) ;
#139 = ORIENTED_EDGE ( 'NONE', *, *, #295, .F. ) ;
#140 = CARTESIAN_POINT ( 'NONE',  ( -6.000000000000012434, 3.000000000000000000, -3.464101615137743728 ) ) ;
#141 = CARTESIAN_POINT ( 'NONE',  ( -5.499999999999989342, 0.000000000000000000, 3.175426480542968388 ) ) ;
#142 = VERTEX_POINT ( 'NONE', #625 ) ;
#143 = CARTESIAN_POINT ( 'NONE',  ( 2.750000000000039080, 0.000000000000000000, 4.763139720814389300 ) ) ;
#144 = VECTOR ( 'NONE', #401, 1000.000000000000000 ) ;
#145 = EDGE_LOOP ( 'NONE', ( #155, #200, #557, #131 ) ) ;
#146 = DIRECTION ( 'NONE',  ( 1.000000000000000000, 0.000000000000000000, 0.000000000000000000 ) ) ;
#147 = ORIENTED_EDGE ( 'NONE', *, *, #438, .T. ) ;
#148 = DIRECTION ( 'NONE',  ( 0.8660254037844345998, 0.000000000000000000, -0.5000000000000072164 ) ) ;
#149 = ADVANCED_FACE ( 'NONE', ( #398 ), #448, .T. ) ;
#150 = APPROVAL_STATUS ( 'not_yet_approved' ) ;
#151 = VERTEX_POINT ( 'NONE', #36 ) ;
#152 = DIRECTION ( 'NONE',  ( -0.3535533905932788379, 0.7071067811865474617, -0.6123724356957915838 ) ) ;
#153 = DIRECTION ( 'NONE',  ( -0.3535533905932708998, 0.7071067811865459074, 0.6123724356957980230 ) ) ;
#154 = COORDINATED_UNIVERSAL_TIME_OFFSET ( 3, 0, .AHEAD. ) ;
#155 = ORIENTED_EDGE ( 'NONE', *, *, #74, .T. ) ;
#156 = EDGE_CURVE ( 'NONE', #151, #173, #334, .T. ) ;
#157 = EDGE_CURVE ( 'NONE', #134, #470, #747, .T. ) ;
#158 = CLOSED_SHELL ( 'NONE', ( #186, #432, #316, #504, #559, #538, #713, #575, #7, #531, #123, #430, #546, #189, #628, #697, #729, #56, #254, #708, #209, #149, #443, #235, #133, #592 ) ) ;
#159 = FACE_OUTER_BOUND ( 'NONE', #480, .T. ) ;
#160 = CARTESIAN_POINT ( 'NONE',  ( 2.749999999999984013, 3.000000000000000000, -4.763139720814447919 ) ) ;
#161 = ORIENTED_EDGE ( 'NONE', *, *, #6, .T. ) ;
#162 = CONICAL_SURFACE ( 'NONE', #89, 2.000000000000000000, 0.7853981633974517207 ) ;
#163 = VECTOR ( 'NONE', #692, 1000.000000000000000 ) ;
#164 = DIRECTION ( 'NONE',  ( -0.000000000000000000, 1.000000000000000000, -0.000000000000000000 ) ) ;
#165 = EDGE_CURVE ( 'NONE', #142, #340, #576, .T. ) ;
#166 = DIRECTION ( 'NONE',  ( 0.000000000000000000, 1.000000000000000000, 0.000000000000000000 ) ) ;
#167 = APPROVAL_DATE_TIME ( #703, #519 ) ;
#168 = EDGE_LOOP ( 'NONE', ( #673, #241, #762, #225 ) ) ;
#169 = PLANE ( 'NONE',  #597 ) ;
#170 = EDGE_CURVE ( 'NONE', #470, #526, #342, .T. ) ;
#171 = ORIENTED_EDGE ( 'NONE', *, *, #283, .T. ) ;
#172 = DIRECTION ( 'NONE',  ( 1.000000000000000000, 0.000000000000000000, -3.255014963930502918E-15 ) ) ;
#173 = VERTEX_POINT ( 'NONE', #51 ) ;
#174 = AXIS2_PLACEMENT_3D ( 'NONE', #160, #444, #609 ) ;
#175 = CARTESIAN_POINT ( 'NONE',  ( 5.500000000000031086, 3.000000000000000000, 3.175426480542889784 ) ) ;
#176 = APPROVAL_STATUS ( 'not_yet_approved' ) ;
#177 = VERTEX_POINT ( 'NONE', #223 ) ;
#178 = EDGE_CURVE ( 'NONE', #526, #72, #524, .T. ) ;
#179 = DIRECTION ( 'NONE',  ( 0.8660254037844414832, 0.000000000000000000, 0.4999999999999950595 ) ) ;
#180 = EDGE_LOOP ( 'NONE', ( #218, #602, #466, #360, #543, #171 ) ) ;
#181 = CARTESIAN_POINT ( 'NONE',  ( -5.999999999999989342, 0.5000000000000004441, 3.464101615137784584 ) ) ;
#182 = AXIS2_PLACEMENT_3D ( 'NONE', #664, #436, #27 ) ;
#183 = ORIENTED_EDGE ( 'NONE', *, *, #472, .T. ) ;
#184 = PERSON ( 'UNSPECIFIED', 'UNSPECIFIED', 'UNSPECIFIED', ('UNSPECIFIED'), ('UNSPECIFIED'), ('UNSPECIFIED') ) ;
#185 = FACE_OUTER_BOUND ( 'NONE', #740, .T. ) ;
#186 = ADVANCED_FACE ( 'NONE', ( #457 ), #207, .F. ) ;
#187 = LOCAL_TIME ( 15, 9, 45.00000000000000000, #154 ) ;
#188 = EDGE_LOOP ( 'NONE', ( #522, #365, #139, #270 ) ) ;
#189 = ADVANCED_FACE ( 'NONE', ( #687 ), #393, .F. ) ;
#190 = CARTESIAN_POINT ( 'NONE',  ( 0.000000000000000000, 0.000000000000000000, 0.000000000000000000 ) ) ;
#191 = EDGE_LOOP ( 'NONE', ( #14, #400, #246, #293 ) ) ;
#192 = DIRECTION ( 'NONE',  ( -0.8660254037844415942, 0.000000000000000000, -0.4999999999999948375 ) ) ;
#193 = FACE_BOUND ( 'NONE', #12, .T. ) ;
#194 = AXIS2_PLACEMENT_3D ( 'NONE', #560, #132, #32 ) ;
#195 = ORIENTED_EDGE ( 'NONE', *, *, #170, .F. ) ;
#196 = CARTESIAN_POINT ( 'NONE',  ( 0.000000000000000000, 0.000000000000000000, 0.000000000000000000 ) ) ;
#197 = VECTOR ( 'NONE', #297, 1000.000000000000114 ) ;
#198 = DIRECTION ( 'NONE',  ( 0.000000000000000000, 1.000000000000000000, 0.000000000000000000 ) ) ;
#199 = PLANE ( 'NONE',  #210 ) ;
#200 = ORIENTED_EDGE ( 'NONE', *, *, #601, .F. ) ;
#201 = EDGE_CURVE ( 'NONE', #478, #173, #282, .T. ) ;
#202 = DIRECTION ( 'NONE',  ( -0.000000000000000000, -1.000000000000000000, -0.000000000000000000 ) ) ;
#203 = CARTESIAN_POINT ( 'NONE',  ( 4.714285714285741946, 3.785714285714287364, 2.721794126179618356 ) ) ;
#204 = ORIENTED_EDGE ( 'NONE', *, *, #757, .F. ) ;
#205 = DIRECTION ( 'NONE',  ( 0.000000000000000000, 0.000000000000000000, 1.000000000000000000 ) ) ;
#206 = VERTEX_POINT ( 'NONE', #760 ) ;
#207 = CONICAL_SURFACE ( 'NONE', #571, 2.000000000000000000, 0.7853981633974517207 ) ;
#208 = DIRECTION ( 'NONE',  ( -0.8660254037844415942, 0.000000000000000000, -0.4999999999999948375 ) ) ;
#209 = ADVANCED_FACE ( 'NONE', ( #752 ), #691, .T. ) ;
#210 = AXIS2_PLACEMENT_3D ( 'NONE', #181, #68, #305 ) ;
#211 = PLANE ( 'NONE',  #547 ) ;
#212 = PERSON_AND_ORGANIZATION ( #184, #529 ) ;
#213 = EDGE_LOOP ( 'NONE', ( #17, #431, #758, #147 ) ) ;
#214 = PLANE ( 'NONE',  #539 ) ;
#215 = EDGE_CURVE ( 'NONE', #296, #470, #100, .T. ) ;
#216 = CARTESIAN_POINT ( 'NONE',  ( 4.837938458043934978E-14, 0.5000000000000013323, 6.928203230275514102 ) ) ;
#217 = PERSON_AND_ORGANIZATION_ROLE ( 'creator' ) ;
#218 = ORIENTED_EDGE ( 'NONE', *, *, #420, .T. ) ;
#219 = CARTESIAN_POINT ( 'NONE',  ( 5.999999999999963585, 3.000000000000000000, -3.464101615137826773 ) ) ;
#220 = DIRECTION ( 'NONE',  ( 1.051620219116008581E-14, -0.000000000000000000, 1.000000000000000000 ) ) ;
#221 = EDGE_LOOP ( 'NONE', ( #183, #4, #136, #229 ) ) ;
#222 = FACE_BOUND ( 'NONE', #450, .T. ) ;
#223 = CARTESIAN_POINT ( 'NONE',  ( 4.276852991760959054E-14, 3.000000000000000000, 6.350852961085885262 ) ) ;
#224 = SHAPE_DEFINITION_REPRESENTATION ( #702, #651 ) ;
#225 = ORIENTED_EDGE ( 'NONE', *, *, #355, .T. ) ;
#226 = VECTOR ( 'NONE', #705, 1000.000000000000000 ) ;
#227 = CARTESIAN_POINT ( 'NONE',  ( 0.000000000000000000, 0.000000000000000000, 0.000000000000000000 ) ) ;
#228 = APPROVAL_STATUS ( 'not_yet_approved' ) ;
#229 = ORIENTED_EDGE ( 'NONE', *, *, #669, .F. ) ;
#230 = CARTESIAN_POINT ( 'NONE',  ( 5.499999999999999112, 0.000000000000000000, -5.783911205138045931E-14 ) ) ;
#231 = VERTEX_POINT ( 'NONE', #338 ) ;
#232 = PRODUCT ( '758442.015 гайка', '758442.015 гайка', '', ( #327 ) ) ;
#233 = PLANE ( 'NONE',  #337 ) ;
#234 = AXIS2_PLACEMENT_3D ( 'NONE', #734, #619, #325 ) ;
#235 = ADVANCED_FACE ( 'NONE', ( #46 ), #278, .T. ) ;
#236 = DATE_TIME_ROLE ( 'classification_date' ) ;
#237 = ORIENTED_EDGE ( 'NONE', *, *, #45, .T. ) ;
#238 = VECTOR ( 'NONE', #164, 1000.000000000000000 ) ;
#239 = CARTESIAN_POINT ( 'NONE',  ( -3.082748177100947471E-17, 0.000000000000000000, -6.350852961085887927 ) ) ;
#240 = CC_DESIGN_PERSON_AND_ORGANIZATION_ASSIGNMENT ( #753, #217, ( #654 ) ) ;
#241 = ORIENTED_EDGE ( 'NONE', *, *, #50, .T. ) ;
#242 = CARTESIAN_POINT ( 'NONE',  ( 0.000000000000000000, 2.499999999999996003, 2.000000000000000000 ) ) ;
#243 = VERTEX_POINT ( 'NONE', #501 ) ;
#244 = CARTESIAN_POINT ( 'NONE',  ( 2.449293598294706414E-16, 2.499999999999996003, -2.000000000000000000 ) ) ;
#245 = VECTOR ( 'NONE', #374, 1000.000000000000114 ) ;
#246 = ORIENTED_EDGE ( 'NONE', *, *, #658, .F. ) ;
#247 = VECTOR ( 'NONE', #122, 999.9999999999998863 ) ;
#248 = AXIS2_PLACEMENT_3D ( 'NONE', #503, #33, #564 ) ;
#249 = FACE_OUTER_BOUND ( 'NONE', #545, .T. ) ;
#250 = LINE ( 'NONE', #392, #43 ) ;
#251 = DIRECTION ( 'NONE',  ( 0.000000000000000000, 0.000000000000000000, 1.000000000000000000 ) ) ;
#252 = VERTEX_POINT ( 'NONE', #321 ) ;
#253 = LINE ( 'NONE', #140, #633 ) ;
#254 = ADVANCED_FACE ( 'NONE', ( #622 ), #422, .F. ) ;
#255 = CARTESIAN_POINT ( 'NONE',  ( 5.750000000000031086, 3.000000000000000000, 3.031088913245480576 ) ) ;
#256 = CARTESIAN_POINT ( 'NONE',  ( 4.837938458043934978E-14, 2.499999999999995559, 6.928203230275514102 ) ) ;
#257 = ORIENTED_EDGE ( 'NONE', *, *, #612, .F. ) ;
#258 = DIRECTION ( 'NONE',  ( 8.659560562354963673E-17, 0.7071067811865451302, -0.7071067811865500152 ) ) ;
#259 = CIRCLE ( 'NONE', #311, 2.500000000000007550 ) ;
#260 = CC_DESIGN_APPROVAL ( #519, ( #608 ) ) ;
#261 = LINE ( 'NONE', #203, #510 ) ;
#262 = CARTESIAN_POINT ( 'NONE',  ( 6.000000000000036415, 3.000000000000000000, 3.464101615137701096 ) ) ;
#263 = ORIENTED_EDGE ( 'NONE', *, *, #757, .T. ) ;
#264 = CARTESIAN_POINT ( 'NONE',  ( 0.000000000000000000, 2.499999999999996003, 0.000000000000000000 ) ) ;
#265 = DIRECTION ( 'NONE',  ( 0.6546536707079796402, -0.6546536707079778639, 0.3779644730092218130 ) ) ;
#266 = EDGE_CURVE ( 'NONE', #725, #590, #617, .T. ) ;
#267 = DIRECTION ( 'NONE',  ( -0.000000000000000000, 1.000000000000000000, -0.000000000000000000 ) ) ;
#268 = CARTESIAN_POINT ( 'NONE',  ( 0.000000000000000000, 2.499999999999996003, 0.000000000000000000 ) ) ;
#269 = CARTESIAN_POINT ( 'NONE',  ( -6.000000000000012434, 0.5000000000000004441, -3.464101615137743728 ) ) ;
#270 = ORIENTED_EDGE ( 'NONE', *, *, #396, .T. ) ;
#271 = CC_DESIGN_PERSON_AND_ORGANIZATION_ASSIGNMENT ( #533, #404, ( #608 ) ) ;
#272 = CARTESIAN_POINT ( 'NONE',  ( -6.000000000000012434, 2.499999999999996003, -3.464101615137743728 ) ) ;
#273 = VECTOR ( 'NONE', #588, 1000.000000000000114 ) ;
#274 = DIRECTION ( 'NONE',  ( 1.051620219116008581E-14, 0.000000000000000000, 1.000000000000000000 ) ) ;
#275 = DATE_AND_TIME ( #631, #187 ) ;
#276 = ORIENTED_EDGE ( 'NONE', *, *, #109, .F. ) ;
#277 = CARTESIAN_POINT ( 'NONE',  ( -4.714285714285703754, 3.785714285714289140, 2.721794126179686746 ) ) ;
#278 = PLANE ( 'NONE',  #174 ) ;
#279 = PERSON_AND_ORGANIZATION ( #184, #529 ) ;
#280 = ORIENTED_EDGE ( 'NONE', *, *, #201, .T. ) ;
#281 = LINE ( 'NONE', #44, #144 ) ;
#282 = LINE ( 'NONE', #40, #485 ) ;
#283 = EDGE_CURVE ( 'NONE', #206, #97, #492, .T. ) ;
#284 = DATE_AND_TIME ( #593, #58 ) ;
#285 = ORIENTED_EDGE ( 'NONE', *, *, #298, .F. ) ;
#286 = VECTOR ( 'NONE', #329, 1000.000000000000000 ) ;
#287 = DIRECTION ( 'NONE',  ( 0.000000000000000000, 1.000000000000000000, 0.000000000000000000 ) ) ;
#288 = ORIENTED_EDGE ( 'NONE', *, *, #396, .F. ) ;
#289 = AXIS2_PLACEMENT_3D ( 'NONE', #291, #451, #345 ) ;
#290 = APPROVAL_PERSON_ORGANIZATION ( #212, #542, #41 ) ;
#291 = CARTESIAN_POINT ( 'NONE',  ( 0.000000000000000000, 0.5000000000000023315, 0.000000000000000000 ) ) ;
#292 = PERSON_AND_ORGANIZATION ( #184, #529 ) ;
#293 = ORIENTED_EDGE ( 'NONE', *, *, #420, .F. ) ;
#294 = CARTESIAN_POINT ( 'NONE',  ( 5.499999999999966249, 0.000000000000000000, -3.175426480543007468 ) ) ;
#295 = EDGE_CURVE ( 'NONE', #478, #134, #253, .T. ) ;
#296 = VERTEX_POINT ( 'NONE', #83 ) ;
#297 = DIRECTION ( 'NONE',  ( -0.6546536707079788631, 0.6546536707079764206, -0.3779644730092255323 ) ) ;
#298 = EDGE_CURVE ( 'NONE', #173, #231, #435, .T. ) ;
#299 = VECTOR ( 'NONE', #726, 1000.000000000000114 ) ;
#300 = CC_DESIGN_PERSON_AND_ORGANIZATION_ASSIGNMENT ( #465, #586, ( #464 ) ) ;
#301 = APPROVAL_ROLE ( '' ) ;
#302 = ORIENTED_EDGE ( 'NONE', *, *, #680, .F. ) ;
#303 = VECTOR ( 'NONE', #508, 1000.000000000000000 ) ;
#304 = CC_DESIGN_APPROVAL ( #542, ( #654 ) ) ;
#305 = DIRECTION ( 'NONE',  ( 0.8660254037844415942, -0.000000000000000000, 0.4999999999999948375 ) ) ;
#306 = ORIENTED_EDGE ( 'NONE', *, *, #78, .F. ) ;
#307 = CARTESIAN_POINT ( 'NONE',  ( 0.000000000000000000, 3.000000000000000000, 2.500000000000007550 ) ) ;
#308 = ORIENTED_EDGE ( 'NONE', *, *, #412, .T. ) ;
#309 = AXIS2_PLACEMENT_3D ( 'NONE', #701, #153, #630 ) ;
#310 = PLANE ( 'NONE',  #234 ) ;
#311 = AXIS2_PLACEMENT_3D ( 'NONE', #645, #13, #591 ) ;
#312 = APPROVAL_PERSON_ORGANIZATION ( #714, #103, #8 ) ;
#313 = LINE ( 'NONE', #371, #303 ) ;
#314 = LINE ( 'NONE', #548, #347 ) ;
#315 = ORIENTED_EDGE ( 'NONE', *, *, #669, .T. ) ;
#316 = ADVANCED_FACE ( 'NONE', ( #670 ), #733, .F. ) ;
#317 = CARTESIAN_POINT ( 'NONE',  ( 2.449293598294706414E-16, 2.499999999999996003, -2.000000000000000000 ) ) ;
#318 = DIRECTION ( 'NONE',  ( 0.000000000000000000, 1.000000000000000000, 0.000000000000000000 ) ) ;
#319 = DIRECTION ( 'NONE',  ( -0.000000000000000000, -1.000000000000000000, -0.000000000000000000 ) ) ;
#320 = VERTEX_POINT ( 'NONE', #666 ) ;
#321 = CARTESIAN_POINT ( 'NONE',  ( 3.061616997868381662E-16, 0.000000000000000000, 2.499999999999998668 ) ) ;
#322 = DIRECTION ( 'NONE',  ( -0.6546536707079759765, 0.6546536707079760875, 0.3779644730092311389 ) ) ;
#323 = DIRECTION ( 'NONE',  ( -0.000000000000000000, -1.000000000000000000, -0.000000000000000000 ) ) ;
#324 = AXIS2_PLACEMENT_3D ( 'NONE', #417, #126, #358 ) ;
#325 = DIRECTION ( 'NONE',  ( 1.051620219116008581E-14, 0.000000000000000000, 1.000000000000000000 ) ) ;
#326 = EDGE_CURVE ( 'NONE', #114, #408, #313, .T. ) ;
#327 = MECHANICAL_CONTEXT ( 'NONE', #370, 'mechanical' ) ;
#328 = CARTESIAN_POINT ( 'NONE',  ( -0.2499999999999986400, 3.000000000000000000, -6.495190528383291806 ) ) ;
#329 = DIRECTION ( 'NONE',  ( 3.255014963930502918E-15, 0.000000000000000000, 1.000000000000000000 ) ) ;
#330 = DESIGN_CONTEXT ( 'detailed design', #403, 'design' ) ;
#331 = DIRECTION ( 'NONE',  ( -0.000000000000000000, -1.000000000000000000, -0.000000000000000000 ) ) ;
#332 = EDGE_CURVE ( 'NONE', #252, #416, #735, .T. ) ;
#333 = PLANE ( 'NONE',  #698 ) ;
#334 = LINE ( 'NONE', #695, #618 ) ;
#335 = ORIENTED_EDGE ( 'NONE', *, *, #178, .T. ) ;
#336 = DIRECTION ( 'NONE',  ( -0.000000000000000000, -1.000000000000000000, -0.000000000000000000 ) ) ;
#337 = AXIS2_PLACEMENT_3D ( 'NONE', #424, #475, #556 ) ;
#338 = CARTESIAN_POINT ( 'NONE',  ( -5.499999999999988454, 3.000000000000000000, 3.175426480542969276 ) ) ;
#339 = DIRECTION ( 'NONE',  ( -1.051620219116008581E-14, 0.000000000000000000, -1.000000000000000000 ) ) ;
#340 = VERTEX_POINT ( 'NONE', #376 ) ;
#341 = FACE_OUTER_BOUND ( 'NONE', #145, .T. ) ;
#342 = LINE ( 'NONE', #515, #366 ) ;
#343 = DATE_AND_TIME ( #469, #488 ) ;
#344 = ORIENTED_EDGE ( 'NONE', *, *, #612, .T. ) ;
#345 = DIRECTION ( 'NONE',  ( 0.000000000000000000, 0.000000000000000000, 1.000000000000000000 ) ) ;
#346 = EDGE_LOOP ( 'NONE', ( #704, #335, #204, #363 ) ) ;
#347 = VECTOR ( 'NONE', #322, 1000.000000000000000 ) ;
#348 = CARTESIAN_POINT ( 'NONE',  ( 0.000000000000000000, 0.000000000000000000, 2.000000000000000000 ) ) ;
#349 = VECTOR ( 'NONE', #352, 1000.000000000000000 ) ;
#350 = ORIENTED_EDGE ( 'NONE', *, *, #355, .F. ) ;
#351 = EDGE_CURVE ( 'NONE', #594, #648, #79, .T. ) ;
#352 = DIRECTION ( 'NONE',  ( -0.8660254037844414832, 0.000000000000000000, -0.4999999999999950595 ) ) ;
#353 = ORIENTED_EDGE ( 'NONE', *, *, #412, .F. ) ;
#354 = PLANE ( 'NONE',  #324 ) ;
#355 = EDGE_CURVE ( 'NONE', #395, #594, #500, .T. ) ;
#356 = PERSON_AND_ORGANIZATION_ROLE ( 'design_supplier' ) ;
#357 = ORIENTED_EDGE ( 'NONE', *, *, #407, .F. ) ;
#358 = DIRECTION ( 'NONE',  ( -0.8660254037844344888, 0.000000000000000000, 0.5000000000000071054 ) ) ;
#359 = AXIS2_PLACEMENT_3D ( 'NONE', #190, #318, #429 ) ;
#360 = ORIENTED_EDGE ( 'NONE', *, *, #494, .T. ) ;
#361 = VECTOR ( 'NONE', #258, 1000.000000000000114 ) ;
#362 = LINE ( 'NONE', #600, #349 ) ;
#363 = ORIENTED_EDGE ( 'NONE', *, *, #601, .T. ) ;
#364 = LINE ( 'NONE', #10, #197 ) ;
#365 = ORIENTED_EDGE ( 'NONE', *, *, #649, .T. ) ;
#366 = VECTOR ( 'NONE', #580, 1000.000000000000114 ) ;
#367 = CARTESIAN_POINT ( 'NONE',  ( 4.837938458043934978E-14, 0.5000000000000004441, 6.928203230275514102 ) ) ;
#368 = EDGE_CURVE ( 'NONE', #598, #526, #137, .T. ) ;
#369 = AXIS2_PLACEMENT_3D ( 'NONE', #196, #679, #558 ) ;
#370 = APPLICATION_CONTEXT ( 'configuration controlled 3d designs of mechanical parts and assemblies' ) ;
#371 = CARTESIAN_POINT ( 'NONE',  ( 0.000000000000000000, 3.000000000000000000, -6.928203230275514990 ) ) ;
#372 = CARTESIAN_POINT ( 'NONE',  ( 6.000000000000036415, 0.5000000000000004441, 3.464101615137701096 ) ) ;
#373 = LINE ( 'NONE', #143, #549 ) ;
#374 = DIRECTION ( 'NONE',  ( 2.349899218380886190E-15, 0.6546536707079787520, 0.7559289460184529519 ) ) ;
#375 = ORIENTED_EDGE ( 'NONE', *, *, #453, .F. ) ;
#376 = CARTESIAN_POINT ( 'NONE',  ( 6.000000000000036415, 2.499999999999996003, 3.464101615137701096 ) ) ;
#377 = EDGE_CURVE ( 'NONE', #243, #206, #373, .T. ) ;
#378 = LINE ( 'NONE', #667, #605 ) ;
#379 = VECTOR ( 'NONE', #606, 999.9999999999998863 ) ;
#380 =( NAMED_UNIT ( * ) SI_UNIT ( $, .STERADIAN. ) SOLID_ANGLE_UNIT ( ) );
#381 = ORIENTED_EDGE ( 'NONE', *, *, #385, .T. ) ;
#382 = AXIS2_PLACEMENT_3D ( 'NONE', #227, #336, #467 ) ;
#383 = CARTESIAN_POINT ( 'NONE',  ( 0.000000000000000000, 0.5000000000000013323, -6.928203230275514990 ) ) ;
#384 = VECTOR ( 'NONE', #685, 1000.000000000000000 ) ;
#385 = EDGE_CURVE ( 'NONE', #598, #296, #26, .T. ) ;
#386 = CARTESIAN_POINT ( 'NONE',  ( -6.000000000000012434, 0.5000000000000004441, -3.464101615137743728 ) ) ;
#387 = PLANE ( 'NONE',  #248 ) ;
#388 = CARTESIAN_POINT ( 'NONE',  ( -2.750000000000005773, 0.000000000000000000, -4.763139720814408840 ) ) ;
#389 = DIRECTION ( 'NONE',  ( 0.000000000000000000, 0.000000000000000000, 1.000000000000000000 ) ) ;
#390 = DIRECTION ( 'NONE',  ( 0.7071067811865469066, 0.7071067811865481278, -2.301643153858942173E-15 ) ) ;
#391 = ORIENTED_EDGE ( 'NONE', *, *, #15, .F. ) ;
#392 = CARTESIAN_POINT ( 'NONE',  ( -5.500000000000000000, 0.000000000000000000, 1.790258230161776467E-14 ) ) ;
#393 = PLANE ( 'NONE',  #644 ) ;
#394 = PLANE ( 'NONE',  #423 ) ;
#395 = VERTEX_POINT ( 'NONE', #737 ) ;
#396 = EDGE_CURVE ( 'NONE', #478, #114, #439, .T. ) ;
#397 = CYLINDRICAL_SURFACE ( 'NONE', #11, 2.000000000000000000 ) ;
#398 = FACE_OUTER_BOUND ( 'NONE', #587, .T. ) ;
#399 = COORDINATED_UNIVERSAL_TIME_OFFSET ( 3, 0, .AHEAD. ) ;
#400 = ORIENTED_EDGE ( 'NONE', *, *, #157, .F. ) ;
#401 = DIRECTION ( 'NONE',  ( 0.000000000000000000, -0.7071067811865500152, -0.7071067811865450192 ) ) ;
#402 = CARTESIAN_POINT ( 'NONE',  ( -6.000000000000012434, 0.5000000000000004441, -3.464101615137743728 ) ) ;
#403 = APPLICATION_CONTEXT ( 'configuration controlled 3d designs of mechanical parts and assemblies' ) ;
#404 = PERSON_AND_ORGANIZATION_ROLE ( 'classification_officer' ) ;
#405 = ORIENTED_EDGE ( 'NONE', *, *, #481, .F. ) ;
#406 = LINE ( 'NONE', #582, #57 ) ;
#407 = EDGE_CURVE ( 'NONE', #594, #395, #127, .T. ) ;
#408 = VERTEX_POINT ( 'NONE', #383 ) ;
#409 = VECTOR ( 'NONE', #623, 1000.000000000000000 ) ;
#410 = FACE_OUTER_BOUND ( 'NONE', #168, .T. ) ;
#411 = VECTOR ( 'NONE', #179, 1000.000000000000000 ) ;
#412 = EDGE_CURVE ( 'NONE', #720, #151, #447, .T. ) ;
#413 = ORIENTED_EDGE ( 'NONE', *, *, #438, .F. ) ;
#414 = DIRECTION ( 'NONE',  ( 0.8660254037844344888, 0.000000000000000000, -0.5000000000000071054 ) ) ;
#415 = CALENDAR_DATE ( 2026, 12, 1 ) ;
#416 = VERTEX_POINT ( 'NONE', #20 ) ;
#417 = CARTESIAN_POINT ( 'NONE',  ( 4.837938458043934978E-14, 3.000000000000000000, 6.928203230275514102 ) ) ;
#418 = ORIENTED_EDGE ( 'NONE', *, *, #29, .F. ) ;
#419 = DIRECTION ( 'NONE',  ( -0.8660254037844379305, 0.000000000000000000, 0.5000000000000011102 ) ) ;
#420 = EDGE_CURVE ( 'NONE', #97, #725, #250, .T. ) ;
#421 = EDGE_LOOP ( 'NONE', ( #405, #678, #276, #458 ) ) ;
#422 = CONICAL_SURFACE ( 'NONE', #528, 2.499999999999998668, 0.7853981633974447263 ) ;
#423 = AXIS2_PLACEMENT_3D ( 'NONE', #269, #390, #672 ) ;
#424 = CARTESIAN_POINT ( 'NONE',  ( 5.999999999999963585, 0.5000000000000004441, -3.464101615137826773 ) ) ;
#425 = EDGE_LOOP ( 'NONE', ( #161, #353, #118, #517 ) ) ;
#426 = LINE ( 'NONE', #552, #721 ) ;
#427 = ORIENTED_EDGE ( 'NONE', *, *, #550, .T. ) ;
#428 = CARTESIAN_POINT ( 'NONE',  ( 0.000000000000000000, 0.000000000000000000, 0.000000000000000000 ) ) ;
#429 = DIRECTION ( 'NONE',  ( 0.000000000000000000, -0.000000000000000000, 1.000000000000000000 ) ) ;
#430 = ADVANCED_FACE ( 'NONE', ( #410 ), #397, .F. ) ;
#431 = ORIENTED_EDGE ( 'NONE', *, *, #157, .T. ) ;
#432 = ADVANCED_FACE ( 'NONE', ( #99 ), #646, .F. ) ;
#433 = AXIS2_PLACEMENT_3D ( 'NONE', #94, #437, #677 ) ;
#434 = CC_DESIGN_APPROVAL ( #103, ( #464 ) ) ;
#435 = LINE ( 'NONE', #728, #712 ) ;
#436 = DIRECTION ( 'NONE',  ( 0.3535533905932743970, 0.7071067811865479058, 0.6123724356957938042 ) ) ;
#437 = DIRECTION ( 'NONE',  ( -0.7071067811865487940, 0.7071067811865462405, 2.301643153858948089E-15 ) ) ;
#438 = EDGE_CURVE ( 'NONE', #296, #478, #59, .T. ) ;
#439 = LINE ( 'NONE', #505, #607 ) ;
#440 = CARTESIAN_POINT ( 'NONE',  ( 6.000000000000036415, 0.5000000000000004441, 3.464101615137701096 ) ) ;
#441 = CARTESIAN_POINT ( 'NONE',  ( -5.500000000000009770, 0.000000000000000000, -3.175426480542930641 ) ) ;
#442 = ORIENTED_EDGE ( 'NONE', *, *, #658, .T. ) ;
#443 = ADVANCED_FACE ( 'NONE', ( #341 ), #333, .T. ) ;
#444 = DIRECTION ( 'NONE',  ( 0.3535533905932708443, 0.7071067811865464625, -0.6123724356957975790 ) ) ;
#445 = ORIENTED_EDGE ( 'NONE', *, *, #326, .F. ) ;
#446 = AXIS2_PLACEMENT_3D ( 'NONE', #456, #172, #39 ) ;
#447 = LINE ( 'NONE', #328, #384 ) ;
#448 = PLANE ( 'NONE',  #124 ) ;
#449 = LINE ( 'NONE', #567, #647 ) ;
#450 = EDGE_LOOP ( 'NONE', ( #653, #731 ) ) ;
#451 = DIRECTION ( 'NONE',  ( -0.000000000000000000, -1.000000000000000000, -0.000000000000000000 ) ) ;
#452 = CARTESIAN_POINT ( 'NONE',  ( 5.499999999999998224, 3.000000000000000000, -5.783911205138045931E-14 ) ) ;
#453 = EDGE_CURVE ( 'NONE', #590, #583, #574, .T. ) ;
#454 = CARTESIAN_POINT ( 'NONE',  ( 3.061616997868381662E-16, 0.000000000000000000, 2.499999999999998668 ) ) ;
#455 = VERTEX_POINT ( 'NONE', #108 ) ;
#456 = CARTESIAN_POINT ( 'NONE',  ( -6.000000000000012434, 3.000000000000000000, -3.464101615137743728 ) ) ;
#457 = FACE_OUTER_BOUND ( 'NONE', #65, .T. ) ;
#458 = ORIENTED_EDGE ( 'NONE', *, *, #468, .F. ) ;
#459 = VECTOR ( 'NONE', #19, 1000.000000000000000 ) ;
#460 = CC_DESIGN_DATE_AND_TIME_ASSIGNMENT ( #284, #236, ( #608 ) ) ;
#461 = PLANE ( 'NONE',  #18 ) ;
#462 = VECTOR ( 'NONE', #53, 1000.000000000000000 ) ;
#463 = DIRECTION ( 'NONE',  ( -0.8660254037844379305, 0.000000000000000000, 0.5000000000000011102 ) ) ;
#464 = PRODUCT_DEFINITION_FORMATION_WITH_SPECIFIED_SOURCE ( 'ANY', '', #232, .NOT_KNOWN. ) ;
#465 = PERSON_AND_ORGANIZATION ( #184, #529 ) ;
#466 = ORIENTED_EDGE ( 'NONE', *, *, #453, .T. ) ;
#467 = DIRECTION ( 'NONE',  ( 0.000000000000000000, 0.000000000000000000, -1.000000000000000000 ) ) ;
#468 = EDGE_CURVE ( 'NONE', #455, #416, #281, .T. ) ;
#469 = CALENDAR_DATE ( 2026, 12, 1 ) ;
#470 = VERTEX_POINT ( 'NONE', #759 ) ;
#471 = CARTESIAN_POINT ( 'NONE',  ( 0.000000000000000000, 0.000000000000000000, 0.000000000000000000 ) ) ;
#472 = EDGE_CURVE ( 'NONE', #231, #296, #104, .T. ) ;
#473 = EDGE_LOOP ( 'NONE', ( #306, #581, #69, #88 ) ) ;
#474 = CIRCLE ( 'NONE', #595, 2.499999999999998668 ) ;
#475 = DIRECTION ( 'NONE',  ( -0.3535533905932696230, 0.7071067811865489050, 0.6123724356957954695 ) ) ;
#476 = CIRCLE ( 'NONE', #668, 2.500000000000007550 ) ;
#477 = DATE_TIME_ROLE ( 'creation_date' ) ;
#478 = VERTEX_POINT ( 'NONE', #272 ) ;
#479 = DIRECTION ( 'NONE',  ( 0.000000000000000000, 1.000000000000000000, 0.000000000000000000 ) ) ;
#480 = EDGE_LOOP ( 'NONE', ( #128, #632, #308, #530, #9, #315 ) ) ;
#481 = EDGE_CURVE ( 'NONE', #86, #455, #763, .T. ) ;
#482 = LINE ( 'NONE', #498, #411 ) ;
#483 = EDGE_LOOP ( 'NONE', ( #626, #195, #418, #55 ) ) ;
#484 = CARTESIAN_POINT ( 'NONE',  ( 0.2500000000000465183, 3.000000000000000000, 6.495190528383291806 ) ) ;
#485 = VECTOR ( 'NONE', #640, 1000.000000000000114 ) ;
#486 = ORIENTED_EDGE ( 'NONE', *, *, #639, .F. ) ;
#487 = VECTOR ( 'NONE', #66, 1000.000000000000114 ) ;
#488 = LOCAL_TIME ( 15, 9, 45.00000000000000000, #399 ) ;
#489 = EDGE_CURVE ( 'NONE', #86, #395, #532, .T. ) ;
#490 = LINE ( 'NONE', #610, #299 ) ;
#491 = ORIENTED_EDGE ( 'NONE', *, *, #489, .F. ) ;
#492 = LINE ( 'NONE', #92, #683 ) ;
#493 = PLANE ( 'NONE',  #182 ) ;
#494 = EDGE_CURVE ( 'NONE', #583, #243, #569, .T. ) ;
#495 = EDGE_LOOP ( 'NONE', ( #237, #696, #391, #689 ) ) ;
#496 = DIRECTION ( 'NONE',  ( -0.000000000000000000, -1.000000000000000000, -0.000000000000000000 ) ) ;
#497 = DIRECTION ( 'NONE',  ( 0.8660254037844345998, 0.000000000000000000, -0.5000000000000072164 ) ) ;
#498 = CARTESIAN_POINT ( 'NONE',  ( 5.999999999999963585, 2.499999999999996447, -3.464101615137826773 ) ) ;
#499 = EDGE_LOOP ( 'NONE', ( #34, #553, #30, #381 ) ) ;
#500 = CIRCLE ( 'NONE', #621, 2.000000000000000000 ) ;
#501 = CARTESIAN_POINT ( 'NONE',  ( 5.500000000000031974, 0.000000000000000000, 3.175426480542892449 ) ) ;
#502 = CARTESIAN_POINT ( 'NONE',  ( 0.000000000000000000, 2.499999999999996447, -6.928203230275514990 ) ) ;
#503 = CARTESIAN_POINT ( 'NONE',  ( -5.999999999999989342, 3.000000000000000000, 3.464101615137784584 ) ) ;
#504 = ADVANCED_FACE ( 'NONE', ( #523 ), #169, .F. ) ;
#505 = CARTESIAN_POINT ( 'NONE',  ( -1.219727444046190763E-16, 2.499999999999996003, -6.928203230275514990 ) ) ;
#506 = ORIENTED_EDGE ( 'NONE', *, *, #156, .F. ) ;
#507 = CARTESIAN_POINT ( 'NONE',  ( 5.499999999999961808, 3.000000000000000000, -3.464101615137821444 ) ) ;
#508 = DIRECTION ( 'NONE',  ( -0.000000000000000000, -1.000000000000000000, -0.000000000000000000 ) ) ;
#509 = CARTESIAN_POINT ( 'NONE',  ( 6.000000000000036415, 0.5000000000000004441, 3.464101615137701096 ) ) ;
#510 = VECTOR ( 'NONE', #265, 1000.000000000000000 ) ;
#511 = ORIENTED_EDGE ( 'NONE', *, *, #351, .T. ) ;
#512 = VECTOR ( 'NONE', #755, 1000.000000000000114 ) ;
#513 = CARTESIAN_POINT ( 'NONE',  ( 2.750000000000037748, 3.000000000000000000, 4.763139720814386635 ) ) ;
#514 = EDGE_CURVE ( 'NONE', #72, #320, #406, .T. ) ;
#515 = CARTESIAN_POINT ( 'NONE',  ( -5.999999999999989342, 0.5000000000000004441, 3.464101615137784584 ) ) ;
#516 = APPROVAL_DATE_TIME ( #275, #542 ) ;
#517 = ORIENTED_EDGE ( 'NONE', *, *, #568, .F. ) ;
#518 = CARTESIAN_POINT ( 'NONE',  ( 2.749999999999984013, 0.000000000000000000, -4.763139720814447919 ) ) ;
#519 = APPROVAL ( #176, 'UNSPECIFIED' ) ;
#520 = DIRECTION ( 'NONE',  ( -1.051620219116008581E-14, 0.000000000000000000, -1.000000000000000000 ) ) ;
#521 = LINE ( 'NONE', #262, #163 ) ;
#522 = ORIENTED_EDGE ( 'NONE', *, *, #326, .T. ) ;
#523 = FACE_OUTER_BOUND ( 'NONE', #641, .T. ) ;
#524 = LINE ( 'NONE', #216, #54 ) ;
#525 = COORDINATED_UNIVERSAL_TIME_OFFSET ( 3, 0, .AHEAD. ) ;
#526 = VERTEX_POINT ( 'NONE', #579 ) ;
#527 = DIRECTION ( 'NONE',  ( 0.3535533905932790599, 0.7071067811865470176, 0.6123724356957920278 ) ) ;
#528 = AXIS2_PLACEMENT_3D ( 'NONE', #565, #202, #87 ) ;
#529 = ORGANIZATION ( 'UNSPECIFIED', 'UNSPECIFIED', '' ) ;
#530 = ORIENTED_EDGE ( 'NONE', *, *, #156, .T. ) ;
#531 = ADVANCED_FACE ( 'NONE', ( #159, #222 ), #461, .T. ) ;
#532 = LINE ( 'NONE', #348, #238 ) ;
#533 = PERSON_AND_ORGANIZATION ( #184, #529 ) ;
#534 = ORIENTED_EDGE ( 'NONE', *, *, #109, .T. ) ;
#535 = FACE_OUTER_BOUND ( 'NONE', #48, .T. ) ;
#536 = EDGE_LOOP ( 'NONE', ( #754, #413, #616, #285 ) ) ;
#537 = LINE ( 'NONE', #650, #75 ) ;
#538 = ADVANCED_FACE ( 'NONE', ( #111 ), #2, .F. ) ;
#539 = AXIS2_PLACEMENT_3D ( 'NONE', #690, #152, #414 ) ;
#540 = ORIENTED_EDGE ( 'NONE', *, *, #741, .T. ) ;
#541 = LINE ( 'NONE', #5, #573 ) ;
#542 = APPROVAL ( #150, 'UNSPECIFIED' ) ;
#543 = ORIENTED_EDGE ( 'NONE', *, *, #377, .T. ) ;
#544 = LINE ( 'NONE', #484, #273 ) ;
#545 = EDGE_LOOP ( 'NONE', ( #42, #77, #442, #715 ) ) ;
#546 = ADVANCED_FACE ( 'NONE', ( #694 ), #214, .F. ) ;
#547 = AXIS2_PLACEMENT_3D ( 'NONE', #452, #756, #220 ) ;
#548 = CARTESIAN_POINT ( 'NONE',  ( -5.999999999999989342, 0.5000000000000004441, 3.464101615137784584 ) ) ;
#549 = VECTOR ( 'NONE', #613, 999.9999999999998863 ) ;
#550 = EDGE_CURVE ( 'NONE', #395, #665, #657, .T. ) ;
#551 = DIRECTION ( 'NONE',  ( 0.000000000000000000, 1.000000000000000000, 0.000000000000000000 ) ) ;
#552 = CARTESIAN_POINT ( 'NONE',  ( 5.999999999999963585, 0.5000000000000004441, -3.464101615137826773 ) ) ;
#553 = ORIENTED_EDGE ( 'NONE', *, *, #170, .T. ) ;
#554 = DIRECTION ( 'NONE',  ( 0.000000000000000000, 0.000000000000000000, 1.000000000000000000 ) ) ;
#555 = LINE ( 'NONE', #255, #732 ) ;
#556 = DIRECTION ( 'NONE',  ( -0.8660254037844414832, 0.000000000000000000, -0.4999999999999950595 ) ) ;
#557 = ORIENTED_EDGE ( 'NONE', *, *, #113, .F. ) ;
#558 = DIRECTION ( 'NONE',  ( 0.000000000000000000, 0.000000000000000000, 1.000000000000000000 ) ) ;
#559 = ADVANCED_FACE ( 'NONE', ( #119 ), #596, .F. ) ;
#560 = CARTESIAN_POINT ( 'NONE',  ( 0.000000000000000000, 0.5000000000000023315, 0.000000000000000000 ) ) ;
#561 = AXIS2_PLACEMENT_3D ( 'NONE', #428, #267, #135 ) ;
#562 = CARTESIAN_POINT ( 'NONE',  ( 0.000000000000000000, 2.499999999999996003, 0.000000000000000000 ) ) ;
#563 = LINE ( 'NONE', #372, #459 ) ;
#564 = DIRECTION ( 'NONE',  ( -0.8660254037844415942, 0.000000000000000000, -0.4999999999999948375 ) ) ;
#565 = CARTESIAN_POINT ( 'NONE',  ( 0.000000000000000000, 0.000000000000000000, 0.000000000000000000 ) ) ;
#566 = DIRECTION ( 'NONE',  ( -0.3535533905932752297, 0.7071067811865463515, -0.6123724356957952475 ) ) ;
#567 = CARTESIAN_POINT ( 'NONE',  ( 5.999999999999963585, 3.000000000000000000, -3.464101615137826773 ) ) ;
#568 = EDGE_CURVE ( 'NONE', #114, #142, #482, .T. ) ;
#569 = LINE ( 'NONE', #230, #659 ) ;
#570 = CARTESIAN_POINT ( 'NONE',  ( 6.000000000000036415, 2.499999999999996003, 3.464101615137701096 ) ) ;
#571 = AXIS2_PLACEMENT_3D ( 'NONE', #268, #166, #389 ) ;
#572 = ORIENTED_EDGE ( 'NONE', *, *, #6, .F. ) ;
#573 = VECTOR ( 'NONE', #70, 1000.000000000000227 ) ;
#574 = LINE ( 'NONE', #518, #226 ) ;
#575 = ADVANCED_FACE ( 'NONE', ( #655 ), #354, .F. ) ;
#576 = LINE ( 'NONE', #570, #710 ) ;
#577 = FACE_OUTER_BOUND ( 'NONE', #499, .T. ) ;
#578 = ORIENTED_EDGE ( 'NONE', *, *, #3, .T. ) ;
#579 = CARTESIAN_POINT ( 'NONE',  ( 4.837938458043934978E-14, 0.5000000000000013323, 6.928203230275514102 ) ) ;
#580 = DIRECTION ( 'NONE',  ( 0.8660254037844415942, 0.000000000000000000, 0.4999999999999948375 ) ) ;
#581 = ORIENTED_EDGE ( 'NONE', *, *, #377, .F. ) ;
#582 = CARTESIAN_POINT ( 'NONE',  ( 6.000000000000036415, 0.5000000000000004441, 3.464101615137701096 ) ) ;
#583 = VERTEX_POINT ( 'NONE', #294 ) ;
#584 = CARTESIAN_POINT ( 'NONE',  ( -6.000000000000012434, 2.499999999999996003, -3.464101615137743728 ) ) ;
#585 = AXIS2_PLACEMENT_3D ( 'NONE', #16, #716, #603 ) ;
#586 = PERSON_AND_ORGANIZATION_ROLE ( 'creator' ) ;
#587 = EDGE_LOOP ( 'NONE', ( #280, #506, #572, #288 ) ) ;
#588 = DIRECTION ( 'NONE',  ( 0.8660254037844415942, 0.000000000000000000, 0.4999999999999948375 ) ) ;
#589 = APPROVAL_DATE_TIME ( #343, #103 ) ;
#590 = VERTEX_POINT ( 'NONE', #239 ) ;
#591 = DIRECTION ( 'NONE',  ( 0.000000000000000000, 0.000000000000000000, 1.000000000000000000 ) ) ;
#592 = ADVANCED_FACE ( 'NONE', ( #535 ), #162, .F. ) ;
#593 = CALENDAR_DATE ( 2026, 12, 1 ) ;
#594 = VERTEX_POINT ( 'NONE', #244 ) ;
#595 = AXIS2_PLACEMENT_3D ( 'NONE', #743, #198, #251 ) ;
#596 = PLANE ( 'NONE',  #585 ) ;
#597 = AXIS2_PLACEMENT_3D ( 'NONE', #219, #699, #638 ) ;
#598 = VERTEX_POINT ( 'NONE', #256 ) ;
#599 = LOCAL_TIME ( 15, 9, 45.00000000000000000, #525 ) ;
#600 = CARTESIAN_POINT ( 'NONE',  ( 5.999999999999963585, 0.5000000000000013323, -3.464101615137826773 ) ) ;
#601 = EDGE_CURVE ( 'NONE', #340, #598, #719, .T. ) ;
#602 = ORIENTED_EDGE ( 'NONE', *, *, #266, .T. ) ;
#603 = DIRECTION ( 'NONE',  ( 0.8660254037844379305, 0.000000000000000000, -0.5000000000000011102 ) ) ;
#604 = CARTESIAN_POINT ( 'NONE',  ( 4.336808689942017736E-15, 3.785714285714274929, -5.443588252359348623 ) ) ;
#605 = VECTOR ( 'NONE', #738, 1000.000000000000114 ) ;
#606 = DIRECTION ( 'NONE',  ( 3.638445758092459943E-15, 0.6546536707079765316, 0.7559289460184550613 ) ) ;
#607 = VECTOR ( 'NONE', #674, 1000.000000000000114 ) ;
#608 = SECURITY_CLASSIFICATION ( '', '', #61 ) ;
#609 = DIRECTION ( 'NONE',  ( 0.8660254037844414832, -0.000000000000000000, 0.4999999999999950595 ) ) ;
#610 = CARTESIAN_POINT ( 'NONE',  ( 3.469446951953614189E-14, 3.785714285714292249, 5.443588252359324642 ) ) ;
#611 = ORIENTED_EDGE ( 'NONE', *, *, #514, .T. ) ;
#612 = EDGE_CURVE ( 'NONE', #320, #408, #362, .T. ) ;
#613 = DIRECTION ( 'NONE',  ( -0.8660254037844345998, 0.000000000000000000, 0.5000000000000072164 ) ) ;
#614 = DIRECTION ( 'NONE',  ( -0.6546536707079737560, -0.6546536707079765316, 0.3779644730092340810 ) ) ;
#615 = DIRECTION ( 'NONE',  ( 0.000000000000000000, 0.000000000000000000, 1.000000000000000000 ) ) ;
#616 = ORIENTED_EDGE ( 'NONE', *, *, #472, .F. ) ;
#617 = LINE ( 'NONE', #388, #115 ) ;
#618 = VECTOR ( 'NONE', #463, 1000.000000000000114 ) ;
#619 = DIRECTION ( 'NONE',  ( -1.000000000000000000, 0.000000000000000000, 1.051620219116008581E-14 ) ) ;
#620 = CARTESIAN_POINT ( 'NONE',  ( 0.000000000000000000, 0.000000000000000000, 0.000000000000000000 ) ) ;
#621 = AXIS2_PLACEMENT_3D ( 'NONE', #264, #551, #554 ) ;
#622 = FACE_OUTER_BOUND ( 'NONE', #706, .T. ) ;
#623 = DIRECTION ( 'NONE',  ( -0.000000000000000000, -1.000000000000000000, -0.000000000000000000 ) ) ;
#624 = FACE_OUTER_BOUND ( 'NONE', #191, .T. ) ;
#625 = CARTESIAN_POINT ( 'NONE',  ( 5.999999999999963585, 2.499999999999996447, -3.464101615137826773 ) ) ;
#626 = ORIENTED_EDGE ( 'NONE', *, *, #78, .T. ) ;
#627 = CC_DESIGN_DATE_AND_TIME_ASSIGNMENT ( #120, #477, ( #654 ) ) ;
#628 = ADVANCED_FACE ( 'NONE', ( #129 ), #199, .F. ) ;
#629 = DIRECTION ( 'NONE',  ( -3.255014963930502918E-15, 0.000000000000000000, -1.000000000000000000 ) ) ;
#630 = DIRECTION ( 'NONE',  ( -0.8660254037844415942, 0.000000000000000000, -0.4999999999999948375 ) ) ;
#631 = CALENDAR_DATE ( 2026, 12, 1 ) ;
#632 = ORIENTED_EDGE ( 'NONE', *, *, #723, .T. ) ;
#633 = VECTOR ( 'NONE', #496, 1000.000000000000000 ) ;
#634 = DIRECTION ( 'NONE',  ( -0.000000000000000000, 1.000000000000000000, -0.000000000000000000 ) ) ;
#635 = LOCAL_TIME ( 15, 9, 45.00000000000000000, #101 ) ;
#636 = CARTESIAN_POINT ( 'NONE',  ( -2.750000000000004885, 3.000000000000000000, -4.763139720814407951 ) ) ;
#637 = VERTEX_POINT ( 'NONE', #175 ) ;
#638 = DIRECTION ( 'NONE',  ( 0.8660254037844414832, 0.000000000000000000, 0.4999999999999950595 ) ) ;
#639 = EDGE_CURVE ( 'NONE', #665, #648, #259, .T. ) ;
#640 = DIRECTION ( 'NONE',  ( 0.6546536707079770867, 0.6546536707079783080, 0.3779644730092253657 ) ) ;
#641 = EDGE_LOOP ( 'NONE', ( #540, #344, #445, #663 ) ) ;
#642 = DIRECTION ( 'NONE',  ( 0.000000000000000000, -0.000000000000000000, 1.000000000000000000 ) ) ;
#643 = ORIENTED_EDGE ( 'NONE', *, *, #407, .T. ) ;
#644 = AXIS2_PLACEMENT_3D ( 'NONE', #509, #96, #520 ) ;
#645 = CARTESIAN_POINT ( 'NONE',  ( 0.000000000000000000, 3.000000000000000000, 0.000000000000000000 ) ) ;
#646 = CONICAL_SURFACE ( 'NONE', #382, 2.499999999999998668, 0.7853981633974447263 ) ;
#647 = VECTOR ( 'NONE', #331, 1000.000000000000000 ) ;
#648 = VERTEX_POINT ( 'NONE', #117 ) ;
#649 = EDGE_CURVE ( 'NONE', #408, #134, #537, .T. ) ;
#650 = CARTESIAN_POINT ( 'NONE',  ( 0.000000000000000000, 0.4999999999999995559, -6.928203230275514990 ) ) ;
#651 = ADVANCED_BREP_SHAPE_REPRESENTATION ( '758442.015 урщър', ( #718, #60 ), #684 ) ;
#652 = CALENDAR_DATE ( 2026, 12, 1 ) ;
#653 = ORIENTED_EDGE ( 'NONE', *, *, #639, .T. ) ;
#654 = PRODUCT_DEFINITION ( 'UNKNOWN', '', #464, #330 ) ;
#655 = FACE_OUTER_BOUND ( 'NONE', #346, .T. ) ;
#656 = ORIENTED_EDGE ( 'NONE', *, *, #50, .F. ) ;
#657 = LINE ( 'NONE', #242, #487 ) ;
#658 = EDGE_CURVE ( 'NONE', #725, #134, #364, .T. ) ;
#659 = VECTOR ( 'NONE', #764, 1000.000000000000000 ) ;
#660 = ORIENTED_EDGE ( 'NONE', *, *, #113, .T. ) ;
#661 = PLANE ( 'NONE',  #433 ) ;
#662 = EDGE_CURVE ( 'NONE', #142, #720, #541, .T. ) ;
#663 = ORIENTED_EDGE ( 'NONE', *, *, #568, .T. ) ;
#664 = CARTESIAN_POINT ( 'NONE',  ( 0.000000000000000000, 0.5000000000000004441, -6.928203230275514990 ) ) ;
#665 = VERTEX_POINT ( 'NONE', #307 ) ;
#666 = CARTESIAN_POINT ( 'NONE',  ( 5.999999999999963585, 0.5000000000000013323, -3.464101615137826773 ) ) ;
#667 = CARTESIAN_POINT ( 'NONE',  ( 0.000000000000000000, -1.214285714285682882, -4.948716593053974933 ) ) ;
#668 = AXIS2_PLACEMENT_3D ( 'NONE', #64, #319, #722 ) ;
#669 = EDGE_CURVE ( 'NONE', #231, #177, #544, .T. ) ;
#670 = FACE_OUTER_BOUND ( 'NONE', #52, .T. ) ;
#671 = FACE_OUTER_BOUND ( 'NONE', #38, .T. ) ;
#672 = DIRECTION ( 'NONE',  ( 3.255014963930502918E-15, -0.000000000000000000, 1.000000000000000000 ) ) ;
#673 = ORIENTED_EDGE ( 'NONE', *, *, #3, .F. ) ;
#674 = DIRECTION ( 'NONE',  ( 0.8660254037844379305, 0.000000000000000000, -0.5000000000000011102 ) ) ;
#675 = CARTESIAN_POINT ( 'NONE',  ( 0.000000000000000000, 0.5000000000000023315, 2.000000000000000000 ) ) ;
#676 = UNCERTAINTY_MEASURE_WITH_UNIT (LENGTH_MEASURE( 1.000000000000000082E-05 ), #688, 'distance_accuracy_value', 'NONE');
#677 = DIRECTION ( 'NONE',  ( -3.255014963930502918E-15, 0.000000000000000000, -1.000000000000000000 ) ) ;
#678 = ORIENTED_EDGE ( 'NONE', *, *, #745, .T. ) ;
#679 = DIRECTION ( 'NONE',  ( 0.000000000000000000, 1.000000000000000000, 0.000000000000000000 ) ) ;
#680 = EDGE_CURVE ( 'NONE', #648, #665, #476, .T. ) ;
#681 = PLANE ( 'NONE',  #359 ) ;
#682 = LINE ( 'NONE', #507, #91 ) ;
#683 = VECTOR ( 'NONE', #192, 1000.000000000000114 ) ;
#684 =( GEOMETRIC_REPRESENTATION_CONTEXT ( 3 ) GLOBAL_UNCERTAINTY_ASSIGNED_CONTEXT ( ( #676 ) ) GLOBAL_UNIT_ASSIGNED_CONTEXT ( ( #688, #739, #380 ) ) REPRESENTATION_CONTEXT ( 'NONE', 'WORKASPACE' ) );
#685 = DIRECTION ( 'NONE',  ( -0.8660254037844414832, 0.000000000000000000, -0.4999999999999950595 ) ) ;
#686 = PRODUCT_RELATED_PRODUCT_CATEGORY ( 'detail', '', ( #232 ) ) ;
#687 = FACE_OUTER_BOUND ( 'NONE', #495, .T. ) ;
#688 =( LENGTH_UNIT ( ) NAMED_UNIT ( * ) SI_UNIT ( .MILLI., .METRE. ) );
#689 = ORIENTED_EDGE ( 'NONE', *, *, #514, .F. ) ;
#690 = CARTESIAN_POINT ( 'NONE',  ( 4.837938458043934978E-14, 0.5000000000000004441, 6.928203230275514102 ) ) ;
#691 = PLANE ( 'NONE',  #309 ) ;
#692 = DIRECTION ( 'NONE',  ( -0.000000000000000000, -1.000000000000000000, -0.000000000000000000 ) ) ;
#693 = ORIENTED_EDGE ( 'NONE', *, *, #662, .T. ) ;
#694 = FACE_OUTER_BOUND ( 'NONE', #473, .T. ) ;
#695 = CARTESIAN_POINT ( 'NONE',  ( -5.750000000000009770, 3.000000000000000000, -3.031088913245522320 ) ) ;
#696 = ORIENTED_EDGE ( 'NONE', *, *, #494, .F. ) ;
#697 = ADVANCED_FACE ( 'NONE', ( #185 ), #233, .F. ) ;
#698 = AXIS2_PLACEMENT_3D ( 'NONE', #513, #527, #49 ) ;
#699 = DIRECTION ( 'NONE',  ( -0.4999999999999950595, 0.000000000000000000, 0.8660254037844414832 ) ) ;
#700 = CC_DESIGN_SECURITY_CLASSIFICATION ( #608, ( #464 ) ) ;
#701 = CARTESIAN_POINT ( 'NONE',  ( -2.749999999999970690, 3.000000000000000000, 4.763139720814427491 ) ) ;
#702 = PRODUCT_DEFINITION_SHAPE ( 'NONE', 'NONE',  #654 ) ;
#703 = DATE_AND_TIME ( #652, #599 ) ;
#704 = ORIENTED_EDGE ( 'NONE', *, *, #368, .T. ) ;
#705 = DIRECTION ( 'NONE',  ( 0.8660254037844414832, 0.000000000000000000, 0.4999999999999950595 ) ) ;
#706 = EDGE_LOOP ( 'NONE', ( #749, #656, #82, #717 ) ) ;
#707 = CARTESIAN_POINT ( 'NONE',  ( 0.000000000000000000, 3.000000000000000000, 0.000000000000000000 ) ) ;
#708 = ADVANCED_FACE ( 'NONE', ( #711 ), #661, .T. ) ;
#709 = ORIENTED_EDGE ( 'NONE', *, *, #98, .F. ) ;
#710 = VECTOR ( 'NONE', #274, 1000.000000000000000 ) ;
#711 = FACE_OUTER_BOUND ( 'NONE', #536, .T. ) ;
#712 = VECTOR ( 'NONE', #35, 1000.000000000000000 ) ;
#713 = ADVANCED_FACE ( 'NONE', ( #577 ), #387, .F. ) ;
#714 = PERSON_AND_ORGANIZATION ( #184, #529 ) ;
#715 = ORIENTED_EDGE ( 'NONE', *, *, #649, .F. ) ;
#716 = DIRECTION ( 'NONE',  ( 0.5000000000000012212, -0.000000000000000000, 0.8660254037844380415 ) ) ;
#717 = ORIENTED_EDGE ( 'NONE', *, *, #332, .F. ) ;
#718 = MANIFOLD_SOLID_BREP ( 'Фаска1', #158 ) ;
#719 = LINE ( 'NONE', #81, #247 ) ;
#720 = VERTEX_POINT ( 'NONE', #90 ) ;
#721 = VECTOR ( 'NONE', #614, 1000.000000000000114 ) ;
#722 = DIRECTION ( 'NONE',  ( 0.000000000000000000, 0.000000000000000000, 1.000000000000000000 ) ) ;
#723 = EDGE_CURVE ( 'NONE', #637, #720, #682, .T. ) ;
#724 = VECTOR ( 'NONE', #208, 1000.000000000000114 ) ;
#725 = VERTEX_POINT ( 'NONE', #441 ) ;
#726 = DIRECTION ( 'NONE',  ( 7.247219557748795621E-15, -0.6546536707079780859, 0.7559289460184536180 ) ) ;
#727 = EDGE_LOOP ( 'NONE', ( #263, #611, #107, #102 ) ) ;
#728 = CARTESIAN_POINT ( 'NONE',  ( -5.499999999999987566, 3.000000000000000000, 3.464101615137782808 ) ) ;
#729 = ADVANCED_FACE ( 'NONE', ( #624 ), #394, .F. ) ;
#730 = FACE_OUTER_BOUND ( 'NONE', #180, .T. ) ;
#731 = ORIENTED_EDGE ( 'NONE', *, *, #680, .T. ) ;
#732 = VECTOR ( 'NONE', #497, 999.9999999999998863 ) ;
#733 = CYLINDRICAL_SURFACE ( 'NONE', #561, 2.000000000000000000 ) ;
#734 = CARTESIAN_POINT ( 'NONE',  ( 6.000000000000036415, 3.000000000000000000, 3.464101615137701096 ) ) ;
#735 = CIRCLE ( 'NONE', #369, 2.499999999999998668 ) ;
#736 = CARTESIAN_POINT ( 'NONE',  ( 0.000000000000000000, 2.499999999999996003, 0.000000000000000000 ) ) ;
#737 = CARTESIAN_POINT ( 'NONE',  ( 0.000000000000000000, 2.499999999999996003, 2.000000000000000000 ) ) ;
#738 = DIRECTION ( 'NONE',  ( 6.468187214674405947E-16, -0.6546536707079766426, 0.7559289460184548393 ) ) ;
#739 =( NAMED_UNIT ( * ) PLANE_ANGLE_UNIT ( ) SI_UNIT ( $, .RADIAN. ) );
#740 = EDGE_LOOP ( 'NONE', ( #110, #375, #709, #257 ) ) ;
#741 = EDGE_CURVE ( 'NONE', #142, #320, #449, .T. ) ;
#742 = DIRECTION ( 'NONE',  ( 0.000000000000000000, 1.000000000000000000, 0.000000000000000000 ) ) ;
#743 = CARTESIAN_POINT ( 'NONE',  ( 0.000000000000000000, 0.000000000000000000, 0.000000000000000000 ) ) ;
#744 = PERSON_AND_ORGANIZATION_ROLE ( 'design_owner' ) ;
#745 = EDGE_CURVE ( 'NONE', #86, #252, #47, .T. ) ;
#746 = CARTESIAN_POINT ( 'NONE',  ( -5.999999999999989342, 2.499999999999995559, 3.464101615137784584 ) ) ;
#747 = LINE ( 'NONE', #402, #286 ) ;
#748 = APPLICATION_PROTOCOL_DEFINITION ( 'international standard', 'config_control_design', 1994, #403 ) ;
#749 = ORIENTED_EDGE ( 'NONE', *, *, #745, .F. ) ;
#750 = VECTOR ( 'NONE', #323, 1000.000000000000000 ) ;
#751 = DIRECTION ( 'NONE',  ( -1.051620219116008581E-14, 0.000000000000000000, -1.000000000000000000 ) ) ;
#752 = FACE_OUTER_BOUND ( 'NONE', #221, .T. ) ;
#753 = PERSON_AND_ORGANIZATION ( #184, #529 ) ;
#754 = ORIENTED_EDGE ( 'NONE', *, *, #201, .F. ) ;
#755 = DIRECTION ( 'NONE',  ( -0.6546536707079748663, -0.6546536707079784190, 0.3779644730092291405 ) ) ;
#756 = DIRECTION ( 'NONE',  ( 0.7071067811865487940, 0.7071067811865462405, -7.436077881698140162E-15 ) ) ;
#757 = EDGE_CURVE ( 'NONE', #340, #72, #521, .T. ) ;
#758 = ORIENTED_EDGE ( 'NONE', *, *, #215, .F. ) ;
#759 = CARTESIAN_POINT ( 'NONE',  ( -5.999999999999989342, 0.5000000000000004441, 3.464101615137784584 ) ) ;
#760 = CARTESIAN_POINT ( 'NONE',  ( 4.547903534882335794E-14, 0.000000000000000000, 6.350852961085886150 ) ) ;
#761 = PERSON_AND_ORGANIZATION ( #184, #529 ) ;
#762 = ORIENTED_EDGE ( 'NONE', *, *, #489, .T. ) ;
#763 = CIRCLE ( 'NONE', #289, 2.000000000000000000 ) ;
#764 = DIRECTION ( 'NONE',  ( 1.051620219116008581E-14, 0.000000000000000000, 1.000000000000000000 ) ) ;
#765 = VECTOR ( 'NONE', #85, 1000.000000000000000 ) ;
ENDSEC;
END-ISO-10303-21;
