G04*
G04 #@! TF.GenerationSoftware,Altium Limited,Altium Designer,24.3.1 (35)*
G04*
G04 Layer_Physical_Order=1*
G04 Layer_Color=255*
%FSLAX44Y44*%
%MOMM*%
G71*
G04*
G04 #@! TF.SameCoordinates,2216ACD5-0DC0-4155-B762-E6B2B7677D5D*
G04*
G04*
G04 #@! TF.FilePolarity,Positive*
G04*
G01*
G75*
%ADD11C,0.3000*%
%ADD14R,1.5000X1.5000*%
%ADD15R,1.5000X1.5000*%
%ADD16R,1.6000X1.0000*%
%ADD17R,0.7000X1.0500*%
%ADD18R,0.4200X0.8900*%
%ADD19R,1.2500X1.0000*%
%ADD20R,1.0000X1.6000*%
%ADD21R,0.5500X1.0850*%
%ADD22C,1.0000*%
%ADD40C,0.2540*%
%ADD41C,0.5000*%
%ADD42R,1.0000X1.0000*%
%ADD43C,1.4000*%
%ADD44R,1.4000X1.4000*%
%ADD45C,2.2000*%
%ADD46C,3.0000*%
%ADD47C,1.5000*%
%ADD48C,0.8000*%
D11*
X1916000Y113000D02*
Y150600D01*
D14*
X1485000Y467000D02*
D03*
X1679000D02*
D03*
X679045Y466995D02*
D03*
X291000Y467000D02*
D03*
X485046Y465995D02*
D03*
X873046Y471995D02*
D03*
X1291046Y473995D02*
D03*
D15*
X1522965Y467006D02*
D03*
X1716965D02*
D03*
X717011Y467002D02*
D03*
X328965Y467006D02*
D03*
X523011Y466002D02*
D03*
X1329011Y474002D02*
D03*
X911011Y472002D02*
D03*
D16*
X899000Y238000D02*
D03*
Y268000D02*
D03*
X1317000Y239000D02*
D03*
X1317000Y269000D02*
D03*
X478000Y253000D02*
D03*
Y223000D02*
D03*
X672000Y254000D02*
D03*
Y224000D02*
D03*
X619000Y255000D02*
D03*
Y225000D02*
D03*
X1672000Y255260D02*
D03*
X1646000D02*
D03*
X1477260Y254000D02*
D03*
X1451260D02*
D03*
X646000D02*
D03*
X452000Y253000D02*
D03*
X283228Y253372D02*
D03*
X257228D02*
D03*
X1886000Y151000D02*
D03*
X1553260Y259000D02*
D03*
X554000Y258000D02*
D03*
X359228Y258372D02*
D03*
X748000Y259000D02*
D03*
X1553260Y229000D02*
D03*
X1424260Y255000D02*
D03*
X1748000Y230260D02*
D03*
X1619000Y256260D02*
D03*
X748000Y229000D02*
D03*
X554000Y228000D02*
D03*
X425000Y254000D02*
D03*
X359228Y228372D02*
D03*
X230228Y254372D02*
D03*
X1477260Y224000D02*
D03*
X1424260Y225000D02*
D03*
X1672000Y225260D02*
D03*
X1619000Y226260D02*
D03*
X425000Y224000D02*
D03*
X283228Y223372D02*
D03*
X230228Y224372D02*
D03*
X1451260Y224000D02*
D03*
X1646000Y225260D02*
D03*
X646000Y224000D02*
D03*
X452000Y223000D02*
D03*
X257228Y223372D02*
D03*
X1748000Y260260D02*
D03*
X1886000Y181000D02*
D03*
D17*
X848000Y238000D02*
D03*
X857500Y261000D02*
D03*
X867000Y238000D02*
D03*
X1285000Y239000D02*
D03*
X1275500Y262000D02*
D03*
X1266000Y239000D02*
D03*
D18*
X704000Y259750D02*
D03*
X717000Y217850D02*
D03*
X710500D02*
D03*
X704000D02*
D03*
X697500D02*
D03*
Y259750D02*
D03*
X710500D02*
D03*
X717000D02*
D03*
X1704000Y261010D02*
D03*
X510000Y258750D02*
D03*
X315228Y259122D02*
D03*
X1509260Y259750D02*
D03*
X1515760D02*
D03*
X516500Y258750D02*
D03*
X321728Y259122D02*
D03*
X1522260Y259750D02*
D03*
X1717000Y261010D02*
D03*
X523000Y258750D02*
D03*
X328228Y259122D02*
D03*
X1502760Y217850D02*
D03*
X1697500Y219110D02*
D03*
X503500Y216850D02*
D03*
X308728Y217222D02*
D03*
X1509260Y217850D02*
D03*
X1704000Y219110D02*
D03*
X510000Y216850D02*
D03*
X315228Y217222D02*
D03*
X1710500Y261010D02*
D03*
X1515760Y217850D02*
D03*
X1522260D02*
D03*
X1502760Y259750D02*
D03*
X328228Y217222D02*
D03*
X321728D02*
D03*
X308728Y259122D02*
D03*
X503500Y258750D02*
D03*
X516500Y216850D02*
D03*
X523000D02*
D03*
X1697500Y261010D02*
D03*
X1710500Y219110D02*
D03*
X1717000D02*
D03*
D19*
X1576260Y249000D02*
D03*
X577000Y248000D02*
D03*
X382228Y248372D02*
D03*
X771000Y249000D02*
D03*
X1576260Y229000D02*
D03*
X1771000Y230260D02*
D03*
X771000Y229000D02*
D03*
X577000Y228000D02*
D03*
X382228Y228372D02*
D03*
X1771000Y250260D02*
D03*
D20*
X1499260Y195000D02*
D03*
X1694000Y196260D02*
D03*
X694000Y195000D02*
D03*
X500000Y194000D02*
D03*
X305228Y194372D02*
D03*
X335228D02*
D03*
X530000Y194000D02*
D03*
X724000Y195000D02*
D03*
X1529260D02*
D03*
X1724000Y196260D02*
D03*
D21*
X1916000Y173400D02*
D03*
Y150600D02*
D03*
D22*
X2182500Y24979D02*
D03*
Y100000D02*
D03*
X2102500Y24979D02*
D03*
X17500Y475021D02*
D03*
Y400000D02*
D03*
X97500Y475021D02*
D03*
X2182500Y475021D02*
D03*
Y400000D02*
D03*
X2102500Y475021D02*
D03*
X17716Y25243D02*
D03*
Y100264D02*
D03*
X97716Y25243D02*
D03*
X710700Y420000D02*
D03*
X1516700D02*
D03*
X1710700D02*
D03*
X516700D02*
D03*
X322700D02*
D03*
D40*
X322368Y420332D02*
X322700Y420000D01*
Y419928D02*
X343958Y398670D01*
Y267382D02*
Y398670D01*
X322368Y420332D02*
Y460410D01*
X1685740Y423440D02*
Y460260D01*
X1679000Y467000D02*
X1685740Y460260D01*
X1676798Y414498D02*
X1685740Y423440D01*
X1672000Y255260D02*
X1675000D01*
X1646000D02*
X1672000D01*
X1482988Y414688D02*
X1491300Y423000D01*
X1285000Y240750D02*
Y281000D01*
X677068Y414768D02*
X685740Y423440D01*
X482798Y414498D02*
X491740Y423440D01*
X286600Y250000D02*
X287462Y250862D01*
X1508670Y255081D02*
Y259160D01*
Y253722D02*
Y255081D01*
X297300Y420000D02*
Y459282D01*
X297230Y459352D02*
X297300Y459282D01*
X297230Y459352D02*
Y460770D01*
X293570Y416270D02*
X297300Y420000D01*
X288412Y414704D02*
X292082D01*
X293570Y416192D01*
X291000Y467000D02*
X297230Y460770D01*
X293570Y416192D02*
Y416270D01*
X257228Y383520D02*
X288412Y414704D01*
X1533000Y103000D02*
X1555000Y125000D01*
X1533000Y100000D02*
Y103000D01*
X1512625Y100375D02*
X1569000Y156750D01*
X1433000Y80000D02*
X1433000Y80000D01*
X1513000D02*
X1513000Y80000D01*
X1493000Y80000D02*
X1493000Y80000D01*
X1473000D02*
X1490000Y63000D01*
X1866180Y63180D02*
X1916000Y113000D01*
X1533000Y80000D02*
X1549746Y63254D01*
X1490000Y63000D02*
X1866000D01*
X1430144Y142856D02*
X1473000Y100000D01*
X1360394Y142856D02*
X1430144D01*
X946934Y137316D02*
X1415684D01*
X1453000Y100000D01*
X810224Y131776D02*
X1401224D01*
X1433000Y100000D01*
X620764Y126236D02*
X1386764D01*
X1413000Y100000D01*
X1493000Y158740D02*
X1529260Y195000D01*
X1493000Y100000D02*
Y158740D01*
X1569000Y156750D02*
X1703100D01*
X1724000Y177650D01*
Y196260D01*
Y199260D01*
X1529260Y195000D02*
Y198000D01*
X553000Y194000D02*
X620764Y126236D01*
X747000Y195000D02*
X810224Y131776D01*
X376545Y194372D02*
X470916Y100000D01*
X1393000D01*
X1329011Y416893D02*
X1335000Y410904D01*
X1329011Y416893D02*
Y474002D01*
X1335000Y284000D02*
Y410904D01*
X1320000Y269000D02*
X1335000Y284000D01*
X1317000Y269000D02*
X1320000D01*
X1275500Y414838D02*
X1291046Y430384D01*
Y473995D01*
X1275500Y367875D02*
Y414838D01*
X857500Y415200D02*
X873046Y430745D01*
Y471995D01*
X873046Y471995D02*
X873046Y471995D01*
X857500Y261000D02*
Y415200D01*
X911011Y417253D02*
X917000Y411264D01*
X911011Y417253D02*
Y472002D01*
X911011Y472002D02*
X911011Y472002D01*
X917000Y304000D02*
Y411264D01*
X905730Y292730D02*
X917000Y304000D01*
X905730Y271730D02*
Y292730D01*
X902000Y268000D02*
X905730Y271730D01*
X899000Y268000D02*
X902000D01*
X1711400Y423000D02*
X1732730Y401670D01*
X1710700Y423000D02*
X1711400D01*
X1732730Y269270D02*
Y401670D01*
X1676798Y414318D02*
Y414498D01*
X1646000Y383520D02*
X1676798Y414318D01*
X1646000Y255260D02*
Y383520D01*
X1711140Y423440D02*
Y462642D01*
X1710700Y423000D02*
X1711140Y423440D01*
X1482428Y414688D02*
X1482988D01*
X1457990Y390250D02*
X1482428Y414688D01*
X1457990Y257730D02*
Y390250D01*
X1454260Y254000D02*
X1457990Y257730D01*
X1516400Y423300D02*
Y472056D01*
Y423300D02*
X1516700Y423000D01*
X1517916Y472056D02*
X1522965Y467006D01*
X1516400Y472056D02*
X1517916D01*
X1516700Y422960D02*
X1537990Y401670D01*
X1516700Y422960D02*
Y423000D01*
X1537990Y268010D02*
Y401670D01*
X1491000Y423300D02*
Y461000D01*
Y423300D02*
X1491300Y423000D01*
X1485000Y467000D02*
X1491000Y461000D01*
X685740Y423440D02*
Y451479D01*
X685275Y451943D02*
X685740Y451479D01*
X685275Y451943D02*
Y460765D01*
X679045Y466995D02*
X685275Y460765D01*
X677068Y414468D02*
Y414768D01*
X676948Y414468D02*
X677068D01*
X646000Y383520D02*
X676948Y414468D01*
X646000Y254000D02*
Y383520D01*
X711400Y423000D02*
X732730Y401670D01*
X710700Y423000D02*
X711400D01*
X732730Y268010D02*
Y401670D01*
X711140Y423440D02*
Y461131D01*
X710700Y423000D02*
X711140Y423440D01*
Y461131D02*
X717011Y467002D01*
X491740Y423440D02*
Y459301D01*
X485046Y465995D02*
X491740Y459301D01*
X517140Y423440D02*
Y464372D01*
X516700Y423000D02*
X517140Y423440D01*
X517400Y423000D02*
X544990Y395410D01*
X516700Y423000D02*
X517400D01*
X544990Y267010D02*
Y395410D01*
X482798Y414318D02*
Y414498D01*
X458730Y390250D02*
X482798Y414318D01*
X458730Y256730D02*
Y390250D01*
X455000Y253000D02*
X458730Y256730D01*
X322368Y460410D02*
X328965Y467006D01*
X257228Y253372D02*
Y383520D01*
X1454260Y254000D02*
X1477260D01*
X732730Y268010D02*
X738990D01*
X478000Y253000D02*
X481730Y249270D01*
X495986D01*
X497256Y248000D01*
X508512D01*
X510000Y249488D01*
Y258750D01*
X455000Y253000D02*
X478000D01*
X1537990Y268010D02*
X1544250D01*
X1732730Y269270D02*
X1738990D01*
X1451260Y254000D02*
X1454260D01*
X519322Y267010D02*
X544990D01*
X452000Y253000D02*
X455000D01*
X343958Y267382D02*
X350218D01*
X324550D02*
X343958D01*
X867000Y238000D02*
Y283000D01*
X867000Y283000D02*
X867000Y283000D01*
X1285000Y281000D02*
X1287000Y283000D01*
X848000Y236250D02*
X946934Y137316D01*
X848000Y236250D02*
Y238000D01*
X1285000Y239000D02*
Y240750D01*
X530000Y194000D02*
X553000D01*
X335228Y194372D02*
X376545D01*
X724000Y195000D02*
X747000D01*
X1266000Y237250D02*
X1360394Y142856D01*
X1515760Y217850D02*
X1516350Y217260D01*
Y210650D02*
Y217260D01*
X1710500Y219110D02*
X1711090Y218520D01*
Y211910D02*
Y218520D01*
X1275500Y262000D02*
Y367875D01*
X516884Y208590D02*
X530000Y195473D01*
X693700Y224000D02*
X697500Y220200D01*
Y217850D02*
Y220200D01*
X672000Y224000D02*
X693700D01*
X669000D02*
X672000D01*
X665270Y227730D02*
X669000Y224000D01*
X665270Y227730D02*
Y229557D01*
X662017Y232810D02*
X665270Y229557D01*
X629810Y232810D02*
X662017D01*
X622000Y225000D02*
X629810Y232810D01*
X619000Y225000D02*
X622000D01*
X646000Y254000D02*
X672000D01*
X257228Y253372D02*
X283228D01*
X1886000Y140478D02*
Y151000D01*
X1884000Y138477D02*
X1886000Y140478D01*
X1884000Y137000D02*
Y138477D01*
X1680000Y250260D02*
X1701900D01*
X1675000Y255260D02*
X1680000Y250260D01*
X1704000Y252360D02*
Y261010D01*
X1701900Y250260D02*
X1704000Y252360D01*
X1477260Y254000D02*
X1480990Y250270D01*
X1505218D01*
X1508670Y253722D01*
Y259160D02*
X1509260Y259750D01*
X283228Y253372D02*
X286600Y250000D01*
X287462Y250862D02*
X312406D01*
X314638Y253094D01*
Y258532D01*
X315228Y259122D01*
X672000Y254000D02*
X674510Y251490D01*
X701178D01*
X703410Y253722D01*
Y259160D01*
X704000Y259750D01*
X1516350Y265778D02*
X1518582Y268010D01*
X1565070Y259000D02*
X1571280Y252790D01*
Y252730D02*
Y252790D01*
Y252730D02*
X1575010Y249000D01*
X1576260D01*
X1515760Y259750D02*
X1516350Y260340D01*
Y265778D01*
X1518582Y268010D02*
X1537990D01*
X1553260Y259000D02*
X1565070D01*
X1544250Y268010D02*
X1553260Y259000D01*
X516500Y258750D02*
X517090Y259340D01*
Y264778D01*
X519322Y267010D01*
X544990D02*
X554000Y258000D01*
X572020Y251730D02*
X575750Y248000D01*
X577000D01*
X565810Y258000D02*
X572020Y251790D01*
X554000Y258000D02*
X565810D01*
X572020Y251730D02*
Y251790D01*
X321728Y259122D02*
X322318Y259712D01*
Y265150D01*
X324550Y267382D01*
X350218D02*
X359228Y258372D01*
X377248Y252102D02*
X380978Y248372D01*
X382228D01*
X371038Y258372D02*
X377248Y252162D01*
X359228Y258372D02*
X371038D01*
X377248Y252102D02*
Y252162D01*
X710500Y259750D02*
X711090Y260340D01*
Y265778D01*
X713322Y268010D01*
X732730D01*
X738990D02*
X748000Y259000D01*
X766020Y252730D02*
X769750Y249000D01*
X771000D01*
X759810Y259000D02*
X766020Y252790D01*
X748000Y259000D02*
X759810D01*
X766020Y252730D02*
Y252790D01*
X1424260Y255000D02*
X1427260D01*
X1430990Y251270D01*
Y242758D02*
Y251270D01*
Y242758D02*
X1432478Y241270D01*
X1522260D01*
X1553260Y229000D02*
X1576260D01*
X1553260Y229000D02*
X1553260Y229000D01*
X1522260Y241270D02*
X1537990D01*
X1522260D02*
Y259750D01*
X1537990Y241270D02*
X1550260Y229000D01*
X1553260D01*
X1625730Y244018D02*
Y252530D01*
X1627218Y242530D02*
X1717000D01*
X1625730Y244018D02*
X1627218Y242530D01*
X1622000Y256260D02*
X1625730Y252530D01*
X1619000Y256260D02*
X1622000D01*
X1717000Y242530D02*
X1732730D01*
X1717000D02*
Y261010D01*
X1745000Y230260D02*
X1748000D01*
X1732730Y242530D02*
X1745000Y230260D01*
X1748000D02*
X1748000Y230260D01*
X1771000D01*
X625730Y242758D02*
Y251270D01*
X627218Y241270D02*
X717000D01*
X625730Y242758D02*
X627218Y241270D01*
X622000Y255000D02*
X625730Y251270D01*
X619000Y255000D02*
X622000D01*
X717000Y241270D02*
X732730D01*
X717000D02*
Y259750D01*
X745000Y229000D02*
X748000D01*
X732730Y241270D02*
X745000Y229000D01*
X748000D02*
X748000Y229000D01*
X771000D01*
X431730Y241758D02*
Y250270D01*
X433218Y240270D02*
X523000D01*
X431730Y241758D02*
X433218Y240270D01*
X428000Y254000D02*
X431730Y250270D01*
X425000Y254000D02*
X428000D01*
X523000Y240270D02*
X538730D01*
X523000D02*
Y258750D01*
X551000Y228000D02*
X554000D01*
X538730Y240270D02*
X551000Y228000D01*
X554000D02*
X554000Y228000D01*
X577000D01*
X236958Y242130D02*
Y250642D01*
X238446Y240642D02*
X328228D01*
X236958Y242130D02*
X238446Y240642D01*
X233228Y254372D02*
X236958Y250642D01*
X230228Y254372D02*
X233228D01*
X328228Y240642D02*
X343958D01*
X328228D02*
Y259122D01*
X356228Y228372D02*
X359228D01*
X343958Y240642D02*
X356228Y228372D01*
X359228D02*
X359228Y228372D01*
X382228D01*
X1427260Y225000D02*
X1435070Y232810D01*
X1424260Y225000D02*
X1427260D01*
X1467276Y232810D02*
X1470530Y229557D01*
Y227730D02*
X1474260Y224000D01*
X1470530Y227730D02*
Y229557D01*
X1435070Y232810D02*
X1467276D01*
X1474260Y224000D02*
X1477260D01*
X1498960D01*
X1502760Y220200D01*
Y217850D02*
Y220200D01*
X1622000Y226260D02*
X1629810Y234070D01*
X1619000Y226260D02*
X1622000D01*
X1662017Y234070D02*
X1665270Y230816D01*
X1629810Y234070D02*
X1662017D01*
X1665270Y228990D02*
Y230816D01*
X1669000Y225260D02*
X1672000D01*
X1665270Y228990D02*
X1669000Y225260D01*
X1672000D02*
X1693700D01*
X1697500Y221460D01*
Y219110D02*
Y221460D01*
X428000Y224000D02*
X435810Y231810D01*
X425000Y224000D02*
X428000D01*
X468017Y231810D02*
X471270Y228556D01*
X435810Y231810D02*
X468017D01*
X471270Y226730D02*
Y228556D01*
X475000Y223000D02*
X478000D01*
X471270Y226730D02*
X475000Y223000D01*
X478000D02*
X499700D01*
X503500Y219200D01*
Y216850D02*
Y219200D01*
X233228Y224372D02*
X241038Y232182D01*
X230228Y224372D02*
X233228D01*
X273245Y232182D02*
X276498Y228928D01*
X241038Y232182D02*
X273245D01*
X276498Y227102D02*
Y228928D01*
X280228Y223372D02*
X283228D01*
X276498Y227102D02*
X280228Y223372D01*
X283228D02*
X304928D01*
X308728Y219572D01*
Y217222D02*
Y219572D01*
X1509260Y208000D02*
Y217850D01*
X1499260Y198000D02*
X1509260Y208000D01*
X1451260Y224000D02*
X1454260D01*
X1499260Y195000D02*
Y198000D01*
X1477260Y201000D02*
X1496260D01*
X1499260Y198000D01*
X1454260Y224000D02*
X1477260Y201000D01*
X1672000Y202260D02*
X1691000D01*
X1646000Y225260D02*
X1649000D01*
X1672000Y202260D01*
X1694000Y196260D02*
Y199260D01*
X1704000Y209260D01*
X1691000Y202260D02*
X1694000Y199260D01*
X1704000Y209260D02*
Y219110D01*
X672000Y201000D02*
X691000D01*
X646000Y224000D02*
X649000D01*
X672000Y201000D01*
X694000Y195000D02*
Y198000D01*
X704000Y208000D01*
X691000Y201000D02*
X694000Y198000D01*
X704000Y208000D02*
Y217850D01*
X478000Y200000D02*
X497000D01*
X452000Y223000D02*
X455000D01*
X478000Y200000D01*
X500000Y194000D02*
Y197000D01*
X510000Y207000D01*
X497000Y200000D02*
X500000Y197000D01*
X510000Y207000D02*
Y216850D01*
X283228Y200372D02*
X302228D01*
X257228Y223372D02*
X260228D01*
X283228Y200372D01*
X305228Y194372D02*
Y197372D01*
X315228Y207372D01*
X302228Y200372D02*
X305228Y197372D01*
X315228Y207372D02*
Y217222D01*
X1710500Y261010D02*
X1711090Y261600D01*
Y267038D01*
X1713322Y269270D01*
X1732730D01*
X1738990D02*
X1748000Y260260D01*
X1766020Y253990D02*
X1769750Y250260D01*
X1771000D01*
X1759810Y260260D02*
X1766020Y254050D01*
X1748000Y260260D02*
X1759810D01*
X1766020Y253990D02*
Y254050D01*
X335228Y194372D02*
Y197372D01*
X331498Y201102D02*
X335228Y197372D01*
X329588Y201102D02*
X331498D01*
X321728Y208962D02*
X329588Y201102D01*
X321728Y208962D02*
Y217222D01*
X516500Y216850D02*
X516884Y216466D01*
Y208590D02*
Y216466D01*
X724000Y195000D02*
Y198000D01*
X715810Y206190D02*
X724000Y198000D01*
X711090Y210650D02*
Y217260D01*
X710500Y217850D02*
X711090Y217260D01*
X715550Y206190D02*
X715810D01*
X711090Y210650D02*
X715550Y206190D01*
X1715810Y207450D02*
X1724000Y199260D01*
X1715550Y207450D02*
X1715810D01*
X1711090Y211910D02*
X1715550Y207450D01*
X1521070Y206190D02*
X1529260Y198000D01*
X1520810Y206190D02*
X1521070D01*
X1516350Y210650D02*
X1520810Y206190D01*
X1266000Y237250D02*
Y239000D01*
D41*
X501292Y262508D02*
X503500Y260300D01*
Y258750D02*
Y260300D01*
X501292Y262508D02*
Y269480D01*
X503500Y271688D02*
Y272500D01*
X501292Y269480D02*
X503500Y271688D01*
X1502360Y260150D02*
Y263730D01*
X1502177Y263913D02*
X1502360Y263730D01*
X1502177Y263913D02*
Y269365D01*
X1504000Y271188D01*
Y272000D01*
X1413000Y80000D02*
X1433000D01*
X1393000D02*
X1407000Y66000D01*
X1439000D02*
X1453000Y80000D01*
X1407000Y66000D02*
X1439000D01*
X1493000Y80000D02*
X1513000D01*
X1317000Y216000D02*
Y239000D01*
X1317000Y239000D01*
X1730141Y215930D02*
X1731000Y215071D01*
X328228Y217222D02*
X340228D01*
X523000Y216850D02*
X536465D01*
X717000Y217850D02*
X728410D01*
X899000Y238000D02*
X899000Y238000D01*
X899000Y224000D02*
Y238000D01*
X1522260Y216830D02*
Y217850D01*
Y216830D02*
X1523090Y216000D01*
X1534667D01*
X1717000Y216760D02*
Y219110D01*
Y216760D02*
X1717830Y215930D01*
X1730141D01*
X1697139Y261371D02*
Y271639D01*
X1696777Y272000D02*
X1697139Y271639D01*
X697310Y259940D02*
Y271810D01*
X697119Y272000D02*
X697310Y271810D01*
X308728Y259122D02*
X308864Y259258D01*
Y271864D01*
X309000Y272000D01*
X1884000Y183000D02*
Y205000D01*
Y183000D02*
X1886000Y181000D01*
X1911075D01*
X1916000Y176075D01*
Y173400D02*
Y176075D01*
D42*
X685300Y420000D02*
D03*
X1491300D02*
D03*
X1685300D02*
D03*
X491300D02*
D03*
X297300D02*
D03*
D43*
X1533000Y100000D02*
D03*
X1513000D02*
D03*
X1493000D02*
D03*
X1473000D02*
D03*
X1453000D02*
D03*
X1433000D02*
D03*
X1413000D02*
D03*
X1393000D02*
D03*
X1533000Y80000D02*
D03*
X1513000D02*
D03*
X1493000D02*
D03*
X1473000D02*
D03*
X1453000D02*
D03*
X1433000D02*
D03*
X1413000D02*
D03*
D44*
X1393000D02*
D03*
D45*
X2101016Y425000D02*
D03*
X101016D02*
D03*
X1101016D02*
D03*
D46*
X1892000Y345000D02*
D03*
X892000Y395000D02*
D03*
X698000Y345000D02*
D03*
X504000D02*
D03*
X310000D02*
D03*
X1310000Y395000D02*
D03*
X1504000Y345000D02*
D03*
X1698000D02*
D03*
X2000000Y50000D02*
D03*
X200000D02*
D03*
D47*
X1555000Y125000D02*
D03*
X1884000Y205000D02*
D03*
D48*
X867000Y283000D02*
D03*
X1287000D02*
D03*
X1317000Y216000D02*
D03*
X1731000Y215071D02*
D03*
X1884000Y137000D02*
D03*
X536465Y216850D02*
D03*
X728410Y217850D02*
D03*
X899000Y224000D02*
D03*
X1534667Y216000D02*
D03*
X1696777Y272000D02*
D03*
X1504000Y272000D02*
D03*
X697119Y272000D02*
D03*
X503500Y272500D02*
D03*
X309000Y272000D02*
D03*
X340228Y217222D02*
D03*
M02*
