G04*
G04 #@! TF.GenerationSoftware,Altium Limited,Altium Designer,24.3.1 (35)*
G04*
G04 Layer_Color=8388736*
%FSLAX44Y44*%
%MOMM*%
G71*
G04*
G04 #@! TF.SameCoordinates,2216ACD5-0DC0-4155-B762-E6B2B7677D5D*
G04*
G04*
G04 #@! TF.FilePolarity,Negative*
G04*
G01*
G75*
%ADD23R,1.7032X1.7032*%
%ADD24R,1.7032X1.7032*%
%ADD25R,1.8032X1.2032*%
%ADD26R,0.9032X1.2532*%
%ADD27R,0.6232X1.0932*%
%ADD28R,1.4532X1.2032*%
%ADD29R,1.2032X1.8032*%
%ADD30R,0.7532X1.2882*%
%ADD31C,2.0000*%
%ADD32C,1.2032*%
%ADD33R,1.2032X1.2032*%
%ADD34C,1.6032*%
%ADD35R,1.6032X1.6032*%
%ADD36C,2.4032*%
%ADD37C,3.2032*%
%ADD38C,1.7032*%
%ADD39C,1.0032*%
D23*
X1485000Y467000D02*
D03*
X1679000D02*
D03*
X679045Y466995D02*
D03*
X291000Y467000D02*
D03*
X485046Y465995D02*
D03*
X873046Y471995D02*
D03*
X1291046Y473995D02*
D03*
D24*
X1522965Y467006D02*
D03*
X1716965D02*
D03*
X717011Y467002D02*
D03*
X328965Y467006D02*
D03*
X523011Y466002D02*
D03*
X1329011Y474002D02*
D03*
X911011Y472002D02*
D03*
D25*
X899000Y238000D02*
D03*
Y268000D02*
D03*
X1317000Y239000D02*
D03*
X1317000Y269000D02*
D03*
X478000Y253000D02*
D03*
Y223000D02*
D03*
X672000Y254000D02*
D03*
Y224000D02*
D03*
X619000Y255000D02*
D03*
Y225000D02*
D03*
X1672000Y255260D02*
D03*
X1646000D02*
D03*
X1477260Y254000D02*
D03*
X1451260D02*
D03*
X646000D02*
D03*
X452000Y253000D02*
D03*
X283228Y253372D02*
D03*
X257228D02*
D03*
X1886000Y151000D02*
D03*
X1553260Y259000D02*
D03*
X554000Y258000D02*
D03*
X359228Y258372D02*
D03*
X748000Y259000D02*
D03*
X1553260Y229000D02*
D03*
X1424260Y255000D02*
D03*
X1748000Y230260D02*
D03*
X1619000Y256260D02*
D03*
X748000Y229000D02*
D03*
X554000Y228000D02*
D03*
X425000Y254000D02*
D03*
X359228Y228372D02*
D03*
X230228Y254372D02*
D03*
X1477260Y224000D02*
D03*
X1424260Y225000D02*
D03*
X1672000Y225260D02*
D03*
X1619000Y226260D02*
D03*
X425000Y224000D02*
D03*
X283228Y223372D02*
D03*
X230228Y224372D02*
D03*
X1451260Y224000D02*
D03*
X1646000Y225260D02*
D03*
X646000Y224000D02*
D03*
X452000Y223000D02*
D03*
X257228Y223372D02*
D03*
X1748000Y260260D02*
D03*
X1886000Y181000D02*
D03*
D26*
X848000Y238000D02*
D03*
X857500Y261000D02*
D03*
X867000Y238000D02*
D03*
X1285000Y239000D02*
D03*
X1275500Y262000D02*
D03*
X1266000Y239000D02*
D03*
D27*
X704000Y259750D02*
D03*
X717000Y217850D02*
D03*
X710500D02*
D03*
X704000D02*
D03*
X697500D02*
D03*
Y259750D02*
D03*
X710500D02*
D03*
X717000D02*
D03*
X1704000Y261010D02*
D03*
X510000Y258750D02*
D03*
X315228Y259122D02*
D03*
X1509260Y259750D02*
D03*
X1515760D02*
D03*
X516500Y258750D02*
D03*
X321728Y259122D02*
D03*
X1522260Y259750D02*
D03*
X1717000Y261010D02*
D03*
X523000Y258750D02*
D03*
X328228Y259122D02*
D03*
X1502760Y217850D02*
D03*
X1697500Y219110D02*
D03*
X503500Y216850D02*
D03*
X308728Y217222D02*
D03*
X1509260Y217850D02*
D03*
X1704000Y219110D02*
D03*
X510000Y216850D02*
D03*
X315228Y217222D02*
D03*
X1710500Y261010D02*
D03*
X1515760Y217850D02*
D03*
X1522260D02*
D03*
X1502760Y259750D02*
D03*
X328228Y217222D02*
D03*
X321728D02*
D03*
X308728Y259122D02*
D03*
X503500Y258750D02*
D03*
X516500Y216850D02*
D03*
X523000D02*
D03*
X1697500Y261010D02*
D03*
X1710500Y219110D02*
D03*
X1717000D02*
D03*
D28*
X1576260Y249000D02*
D03*
X577000Y248000D02*
D03*
X382228Y248372D02*
D03*
X771000Y249000D02*
D03*
X1576260Y229000D02*
D03*
X1771000Y230260D02*
D03*
X771000Y229000D02*
D03*
X577000Y228000D02*
D03*
X382228Y228372D02*
D03*
X1771000Y250260D02*
D03*
D29*
X1499260Y195000D02*
D03*
X1694000Y196260D02*
D03*
X694000Y195000D02*
D03*
X500000Y194000D02*
D03*
X305228Y194372D02*
D03*
X335228D02*
D03*
X530000Y194000D02*
D03*
X724000Y195000D02*
D03*
X1529260D02*
D03*
X1724000Y196260D02*
D03*
D30*
X1916000Y173400D02*
D03*
Y150600D02*
D03*
D31*
X2182500Y24979D02*
D03*
Y100000D02*
D03*
X2102500Y24979D02*
D03*
X17500Y475021D02*
D03*
Y400000D02*
D03*
X97500Y475021D02*
D03*
X2182500Y475021D02*
D03*
Y400000D02*
D03*
X2102500Y475021D02*
D03*
X17716Y25243D02*
D03*
Y100264D02*
D03*
X97716Y25243D02*
D03*
D32*
X710700Y420000D02*
D03*
X1516700D02*
D03*
X1710700D02*
D03*
X516700D02*
D03*
X322700D02*
D03*
D33*
X685300D02*
D03*
X1491300D02*
D03*
X1685300D02*
D03*
X491300D02*
D03*
X297300D02*
D03*
D34*
X1533000Y100000D02*
D03*
X1513000D02*
D03*
X1493000D02*
D03*
X1473000D02*
D03*
X1453000D02*
D03*
X1433000D02*
D03*
X1413000D02*
D03*
X1393000D02*
D03*
X1533000Y80000D02*
D03*
X1513000D02*
D03*
X1493000D02*
D03*
X1473000D02*
D03*
X1453000D02*
D03*
X1433000D02*
D03*
X1413000D02*
D03*
D35*
X1393000D02*
D03*
D36*
X2101016Y425000D02*
D03*
X101016D02*
D03*
X1101016D02*
D03*
D37*
X1892000Y345000D02*
D03*
X892000Y395000D02*
D03*
X698000Y345000D02*
D03*
X504000D02*
D03*
X310000D02*
D03*
X1310000Y395000D02*
D03*
X1504000Y345000D02*
D03*
X1698000D02*
D03*
X2000000Y50000D02*
D03*
X200000D02*
D03*
D38*
X1555000Y125000D02*
D03*
X1884000Y205000D02*
D03*
D39*
X867000Y283000D02*
D03*
X1287000D02*
D03*
X1317000Y216000D02*
D03*
X1731000Y215071D02*
D03*
X1884000Y137000D02*
D03*
X536465Y216850D02*
D03*
X728410Y217850D02*
D03*
X899000Y224000D02*
D03*
X1534667Y216000D02*
D03*
X1696777Y272000D02*
D03*
X1504000Y272000D02*
D03*
X697119Y272000D02*
D03*
X503500Y272500D02*
D03*
X309000Y272000D02*
D03*
X340228Y217222D02*
D03*
M02*
