G04*
G04 #@! TF.GenerationSoftware,Altium Limited,Altium Designer,24.3.1 (35)*
G04*
G04 Layer_Color=128*
%FSLAX44Y44*%
%MOMM*%
G71*
G04*
G04 #@! TF.SameCoordinates,2216ACD5-0DC0-4155-B762-E6B2B7677D5D*
G04*
G04*
G04 #@! TF.FilePolarity,Positive*
G04*
G01*
G75*
%ADD49C,0.1270*%
D49*
X706950Y420000D02*
X714450D01*
X710700Y416250D02*
Y423750D01*
X681550Y420000D02*
X689050D01*
X685300Y416250D02*
Y423750D01*
X1528000Y100000D02*
X1538000D01*
X1533000Y95000D02*
Y105000D01*
X1508000Y100000D02*
X1518000D01*
X1513000Y95000D02*
Y105000D01*
X1488000Y100000D02*
X1498000D01*
X1493000Y95000D02*
Y105000D01*
X1468000Y100000D02*
X1478000D01*
X1473000Y95000D02*
Y105000D01*
X1448000Y100000D02*
X1458000D01*
X1453000Y95000D02*
Y105000D01*
X1428000Y100000D02*
X1438000D01*
X1433000Y95000D02*
Y105000D01*
X1408000Y100000D02*
X1418000D01*
X1413000Y95000D02*
Y105000D01*
X1388000Y100000D02*
X1398000D01*
X1393000Y95000D02*
Y105000D01*
X1528000Y80000D02*
X1538000D01*
X1533000Y75000D02*
Y85000D01*
X1508000Y80000D02*
X1518000D01*
X1513000Y75000D02*
Y85000D01*
X1488000Y80000D02*
X1498000D01*
X1493000Y75000D02*
Y85000D01*
X1468000Y80000D02*
X1478000D01*
X1473000Y75000D02*
Y85000D01*
X1448000Y80000D02*
X1458000D01*
X1453000Y75000D02*
Y85000D01*
X1428000Y80000D02*
X1438000D01*
X1433000Y75000D02*
Y85000D01*
X1408000Y80000D02*
X1418000D01*
X1413000Y75000D02*
Y85000D01*
X1388000Y80000D02*
X1398000D01*
X1393000Y75000D02*
Y85000D01*
X1487550Y420000D02*
X1495050D01*
X1491300Y416250D02*
Y423750D01*
X1512950Y420000D02*
X1520450D01*
X1516700Y416250D02*
Y423750D01*
X1681550Y420000D02*
X1689050D01*
X1685300Y416250D02*
Y423750D01*
X1706950Y420000D02*
X1714450D01*
X1710700Y416250D02*
Y423750D01*
X487550Y420000D02*
X495050D01*
X491300Y416250D02*
Y423750D01*
X512950Y420000D02*
X520450D01*
X516700Y416250D02*
Y423750D01*
X293550Y420000D02*
X301050D01*
X297300Y416250D02*
Y423750D01*
X318950Y420000D02*
X326450D01*
X322700Y416250D02*
Y423750D01*
X2090016Y425000D02*
X2112016D01*
X2101016Y414000D02*
Y436000D01*
X90016Y425000D02*
X112016D01*
X101016Y414000D02*
Y436000D01*
X1090016Y425000D02*
X1112016D01*
X1101016Y414000D02*
Y436000D01*
X1877000Y345000D02*
X1907000D01*
X1892000Y330000D02*
Y360000D01*
X877000Y395000D02*
X907000D01*
X892000Y380000D02*
Y410000D01*
X683000Y345000D02*
X713000D01*
X698000Y330000D02*
Y360000D01*
X489000Y345000D02*
X519000D01*
X504000Y330000D02*
Y360000D01*
X295000Y345000D02*
X325000D01*
X310000Y330000D02*
Y360000D01*
X1295000Y395000D02*
X1325000D01*
X1310000Y380000D02*
Y410000D01*
X1489000Y345000D02*
X1519000D01*
X1504000Y330000D02*
Y360000D01*
X1683000Y345000D02*
X1713000D01*
X1698000Y330000D02*
Y360000D01*
X1985000Y50000D02*
X2015000D01*
X2000000Y35000D02*
Y65000D01*
X185000Y50000D02*
X215000D01*
X200000Y35000D02*
Y65000D01*
X1550000Y125000D02*
X1560000D01*
X1555000Y120000D02*
Y130000D01*
X864500Y283000D02*
X869500D01*
X867000Y280500D02*
Y285500D01*
X1284500Y283000D02*
X1289500D01*
X1287000Y280500D02*
Y285500D01*
X1314500Y216000D02*
X1319500D01*
X1317000Y213500D02*
Y218500D01*
X1728500Y215071D02*
X1733500D01*
X1731000Y212571D02*
Y217571D01*
X1881500Y137000D02*
X1886500D01*
X1884000Y134500D02*
Y139500D01*
X533965Y216850D02*
X538965D01*
X536465Y214350D02*
Y219350D01*
X725910Y217850D02*
X730910D01*
X728410Y215350D02*
Y220350D01*
X896500Y224000D02*
X901500D01*
X899000Y221500D02*
Y226500D01*
X1532167Y216000D02*
X1537167D01*
X1534667Y213500D02*
Y218500D01*
X1694277Y272000D02*
X1699277D01*
X1696777Y269500D02*
Y274500D01*
X1501500Y272000D02*
X1506500D01*
X1504000Y269500D02*
Y274500D01*
X694619Y272000D02*
X699619D01*
X697119Y269500D02*
Y274500D01*
X501000Y272500D02*
X506000D01*
X503500Y270000D02*
Y275000D01*
X306500Y272000D02*
X311500D01*
X309000Y269500D02*
Y274500D01*
X1879000Y205000D02*
X1889000D01*
X1884000Y200000D02*
Y210000D01*
X337728Y217222D02*
X342728D01*
X340228Y214722D02*
Y219722D01*
M02*
