G04*
G04 #@! TF.GenerationSoftware,Altium Limited,Altium Designer,24.3.1 (35)*
G04*
G04 Layer_Color=16711935*
%FSLAX44Y44*%
%MOMM*%
G71*
G04*
G04 #@! TF.SameCoordinates,2216ACD5-0DC0-4155-B762-E6B2B7677D5D*
G04*
G04*
G04 #@! TF.FilePolarity,Negative*
G04*
G01*
G75*
%ADD32C,1.2032*%
%ADD33R,1.2032X1.2032*%
%ADD34C,1.6032*%
%ADD35R,1.6032X1.6032*%
%ADD36C,2.4032*%
%ADD37C,3.2032*%
%ADD38C,1.7032*%
%ADD39C,1.0032*%
D32*
X710700Y420000D02*
D03*
X1516700D02*
D03*
X1710700D02*
D03*
X516700D02*
D03*
X322700D02*
D03*
D33*
X685300D02*
D03*
X1491300D02*
D03*
X1685300D02*
D03*
X491300D02*
D03*
X297300D02*
D03*
D34*
X1533000Y100000D02*
D03*
X1513000D02*
D03*
X1493000D02*
D03*
X1473000D02*
D03*
X1453000D02*
D03*
X1433000D02*
D03*
X1413000D02*
D03*
X1393000D02*
D03*
X1533000Y80000D02*
D03*
X1513000D02*
D03*
X1493000D02*
D03*
X1473000D02*
D03*
X1453000D02*
D03*
X1433000D02*
D03*
X1413000D02*
D03*
D35*
X1393000D02*
D03*
D36*
X2101016Y425000D02*
D03*
X101016D02*
D03*
X1101016D02*
D03*
D37*
X1892000Y345000D02*
D03*
X892000Y395000D02*
D03*
X698000Y345000D02*
D03*
X504000D02*
D03*
X310000D02*
D03*
X1310000Y395000D02*
D03*
X1504000Y345000D02*
D03*
X1698000D02*
D03*
X2000000Y50000D02*
D03*
X200000D02*
D03*
D38*
X1555000Y125000D02*
D03*
X1884000Y205000D02*
D03*
D39*
X867000Y283000D02*
D03*
X1287000D02*
D03*
X1317000Y216000D02*
D03*
X1731000Y215071D02*
D03*
X1884000Y137000D02*
D03*
X536465Y216850D02*
D03*
X728410Y217850D02*
D03*
X899000Y224000D02*
D03*
X1534667Y216000D02*
D03*
X1696777Y272000D02*
D03*
X1504000Y272000D02*
D03*
X697119Y272000D02*
D03*
X503500Y272500D02*
D03*
X309000Y272000D02*
D03*
X340228Y217222D02*
D03*
M02*
