%TF.GenerationSoftware,Altium Limited,Altium Designer,25.8.1 (18)*%
G04 Layer_Physical_Order=2*
G04 Layer_Color=16711680*
%FSLAX45Y45*%
%MOMM*%
%TF.SameCoordinates,34F92758-32F5-4650-A9FB-6CEF582378B9*%
%TF.FilePolarity,Positive*%
%TF.FileFunction,Copper,L2,Bot,Signal*%
%TF.Part,Single*%
G01*
G75*
%TA.AperFunction,SMDPad,CuDef*%
%ADD13R,1.60000X1.00000*%
%ADD15R,1.00000X1.60000*%
%TA.AperFunction,Conductor*%
%ADD46C,0.25400*%
%TA.AperFunction,ComponentPad*%
%ADD53C,8.00000*%
%ADD54C,1.65000*%
%ADD55R,1.65000X1.65000*%
%ADD56O,1.95000X1.30000*%
%ADD57O,2.10000X1.40000*%
%ADD58C,1.90500*%
%ADD59C,1.38100*%
%ADD60O,1.40000X2.10000*%
%ADD61C,2.40000*%
%ADD62C,3.00000*%
%ADD63R,1.38100X1.38100*%
%TA.AperFunction,WasherPad*%
%ADD64C,3.00000*%
%TA.AperFunction,ComponentPad*%
%ADD65R,1.65000X1.65000*%
%TA.AperFunction,WasherPad*%
%ADD66C,4.00000*%
%TA.AperFunction,ViaPad*%
%ADD67C,0.60000*%
%ADD68C,0.80000*%
%TA.AperFunction,Conductor*%
%ADD69R,2.75001X6.34499*%
D13*
X17237708Y6780001D02*
D03*
X17237708Y7079999D02*
D03*
D15*
X16555609Y7770000D02*
D03*
X16555611Y7048885D02*
D03*
X16555609Y7532700D02*
D03*
X16557707Y6820000D02*
D03*
X16555609Y7310513D02*
D03*
X16855609Y7770000D02*
D03*
Y7532700D02*
D03*
Y7310514D02*
D03*
X16855608Y7048883D02*
D03*
X16857706Y6820001D02*
D03*
D46*
X16837708Y7752099D02*
X16855609Y7770000D01*
Y7310514D02*
Y7312351D01*
Y7430451D01*
X16895383Y7470226D01*
X16837708Y7550602D02*
X16855609Y7532700D01*
X16968109Y7362751D02*
Y7440193D01*
X16895383Y7470226D02*
X16938075D01*
X16968109Y7440193D01*
X16837708Y7550602D02*
X16855609Y7532700D01*
X16837708Y7550602D02*
Y7752099D01*
X16857706Y6820001D02*
Y6821584D01*
X16895006Y6858884D01*
X17206592Y7048884D02*
X17237708Y7079999D01*
X17019650Y6858884D02*
X17034425D01*
X17076009Y6817301D01*
X16895006Y6858884D02*
X17019650D01*
X17076009Y6817301D02*
X17200407D01*
X17237708Y6780001D01*
X17039651Y7048884D02*
X17206592D01*
X16855608Y7048883D02*
X16855609Y7048884D01*
X17039651D01*
D53*
X1250000Y2750000D02*
D03*
X3250000D02*
D03*
X1250000Y9250000D02*
D03*
D54*
X6574999Y742000D02*
D03*
X10260000Y5210000D02*
D03*
X6574999Y1250000D02*
D03*
X6574999Y996000D02*
D03*
D55*
X10514000Y5210000D02*
D03*
D56*
X16887708Y6330000D02*
D03*
Y6130000D02*
D03*
D57*
X18810001Y4690000D02*
D03*
X16589999Y3040000D02*
D03*
Y2540000D02*
D03*
X18810001Y4190000D02*
D03*
D58*
X7775000Y8850000D02*
D03*
X5743000Y8850000D02*
D03*
D59*
X3238001Y7850000D02*
D03*
X4508001Y7850000D02*
D03*
X4539805Y7002140D02*
D03*
X4539805Y4502141D02*
D03*
Y6202141D02*
D03*
X4539804Y5352141D02*
D03*
X4549750Y3658251D02*
D03*
X4549749Y2825000D02*
D03*
X3269804Y6202141D02*
D03*
X4031804Y6202141D02*
D03*
X3269804Y7002141D02*
D03*
X4031804D02*
D03*
X3269804Y5352141D02*
D03*
X4031804Y5352141D02*
D03*
X3279749Y3658251D02*
D03*
X4041749Y3658251D02*
D03*
X3269804Y4502141D02*
D03*
X4031804Y4502141D02*
D03*
X3279749Y2825000D02*
D03*
X4041749D02*
D03*
X4000000Y7850000D02*
D03*
D60*
X19220000Y1770000D02*
D03*
X18870003Y1770001D02*
D03*
D61*
X20700000Y2822000D02*
D03*
Y3838000D02*
D03*
Y3330000D02*
D03*
Y2314000D02*
D03*
Y1806000D02*
D03*
D62*
X2562459Y4167648D02*
D03*
X662457D02*
D03*
X2562459Y8367654D02*
D03*
X662457D02*
D03*
D63*
X5301805Y6202141D02*
D03*
X5301804Y7002141D02*
D03*
X5301804Y5352141D02*
D03*
X5311750Y3658251D02*
D03*
X5301804Y4502141D02*
D03*
X5311749Y2824999D02*
D03*
X5270000Y7850000D02*
D03*
D64*
X9500000Y11000000D02*
D03*
X4500000Y500000D02*
D03*
X500000D02*
D03*
X11800000Y11000000D02*
D03*
X500000D02*
D03*
X21500000Y500000D02*
D03*
X11000000D02*
D03*
X21500000Y11000000D02*
D03*
X12500000D02*
D03*
X11000000D02*
D03*
D65*
X6574999Y1503999D02*
D03*
D66*
X2000000Y500000D02*
D03*
X20000000D02*
D03*
D67*
X16100000Y1600000D02*
D03*
X16000000D02*
D03*
X15900000D02*
D03*
X16100000Y1500000D02*
D03*
X16000000D02*
D03*
X15900000D02*
D03*
X16100000Y1400000D02*
D03*
X16000000D02*
D03*
X15900000D02*
D03*
X17900000Y1600000D02*
D03*
X17800000D02*
D03*
Y1500000D02*
D03*
X17900000Y1400000D02*
D03*
Y1500000D02*
D03*
X17800000Y1400000D02*
D03*
X17700000Y1500000D02*
D03*
Y1600000D02*
D03*
Y1400000D02*
D03*
X16100000Y3700000D02*
D03*
X16000000D02*
D03*
X15900000D02*
D03*
X16100000Y3600000D02*
D03*
X16000000D02*
D03*
X15900000D02*
D03*
X16100000Y3500000D02*
D03*
X16000000D02*
D03*
X15900000D02*
D03*
X17700000D02*
D03*
X17800000D02*
D03*
X17900000D02*
D03*
X17700000Y3600000D02*
D03*
X17800000D02*
D03*
X17900000D02*
D03*
X17700000Y3700000D02*
D03*
X17800000D02*
D03*
X17900000D02*
D03*
D68*
X16337708Y7230000D02*
D03*
Y7340000D02*
D03*
Y7450000D02*
D03*
X16339651Y7087900D02*
D03*
Y6821584D02*
D03*
X17039651Y7048884D02*
D03*
X17019650Y6858884D02*
D03*
X17034805Y7450000D02*
D03*
Y7340000D02*
D03*
Y7230000D02*
D03*
D69*
X16943109Y7532751D02*
D03*
%TF.MD5,47535409d1723579a5a0398cc1e8a54a*%
M02*
