%TF.GenerationSoftware,Altium Limited,Altium Designer,25.8.1 (18)*%
G04 Layer_Color=32896*
%FSLAX45Y45*%
%MOMM*%
%TF.SameCoordinates,34F92758-32F5-4650-A9FB-6CEF582378B9*%
%TF.FilePolarity,Positive*%
%TF.FileFunction,Legend,Bot*%
%TF.Part,Single*%
G01*
G75*
%TA.AperFunction,NonConductor*%
%ADD71C,0.20000*%
G36*
X17227950Y7306834D02*
X17228374Y7306693D01*
X17228514Y7306552D01*
X17229359Y7305988D01*
X17230206Y7305142D01*
X17230629Y7304296D01*
X17230911Y7303732D01*
X17231052Y7303450D01*
X17250082Y7236772D01*
X17250365Y7235644D01*
Y7234516D01*
X17250082Y7233247D01*
X17249519Y7232261D01*
X17248814Y7231697D01*
X17247827Y7231133D01*
X17246980Y7230851D01*
X17246135Y7230710D01*
X17216814D01*
Y7216472D01*
X17216531Y7214921D01*
X17216109Y7213794D01*
X17215686Y7213230D01*
X17215404Y7212948D01*
X17214276Y7212243D01*
X17213289Y7211961D01*
X17212444Y7211820D01*
X17212161D01*
X17210751Y7211961D01*
X17209624Y7212384D01*
X17209061Y7212807D01*
X17208778Y7212948D01*
X17207933Y7214075D01*
X17207510Y7215203D01*
X17207368Y7216049D01*
Y7216331D01*
Y7216472D01*
Y7230710D01*
X17197923D01*
X17197078Y7230851D01*
X17196373Y7230992D01*
X17195245Y7231556D01*
X17194540Y7231979D01*
X17194398Y7232261D01*
X17193695Y7233388D01*
X17193272Y7234375D01*
X17193130Y7235080D01*
Y7235362D01*
X17193413Y7236631D01*
X17193835Y7237617D01*
X17194258Y7238322D01*
X17194540Y7238604D01*
X17195103Y7239168D01*
X17195668Y7239450D01*
X17196796Y7240014D01*
X17197643Y7240155D01*
X17207368D01*
Y7254393D01*
Y7255239D01*
X17207651Y7255944D01*
X17208073Y7257071D01*
X17208636Y7257776D01*
X17208778Y7257917D01*
X17208919D01*
X17210046Y7258622D01*
X17211034Y7259045D01*
X17211880Y7259186D01*
X17212161D01*
X17213429Y7259045D01*
X17214417Y7258622D01*
X17215121Y7258058D01*
X17215404Y7257917D01*
X17216251Y7256648D01*
X17216673Y7255521D01*
X17216814Y7254675D01*
Y7254534D01*
Y7254393D01*
Y7240155D01*
X17239227D01*
X17221889Y7300772D01*
X17221748Y7302182D01*
X17222031Y7303591D01*
X17222452Y7304719D01*
X17222874Y7305283D01*
X17223157Y7305565D01*
X17224284Y7306411D01*
X17225414Y7306834D01*
X17226259Y7306975D01*
X17227386D01*
X17227950Y7306834D01*
D02*
G37*
G36*
X17323245D02*
X17324374Y7306270D01*
X17325220Y7305424D01*
X17325783Y7304578D01*
X17326065Y7303732D01*
X17326205Y7302887D01*
X17326347Y7302323D01*
Y7302182D01*
Y7216472D01*
X17326065Y7214921D01*
X17325642Y7213794D01*
X17325220Y7213230D01*
X17324937Y7212948D01*
X17323810Y7212243D01*
X17322823Y7211961D01*
X17321977Y7211820D01*
X17321695D01*
X17320287Y7211961D01*
X17319157Y7212384D01*
X17318594Y7212807D01*
X17318312Y7212948D01*
X17317467Y7214075D01*
X17317043Y7215203D01*
X17316902Y7216049D01*
Y7216331D01*
Y7216472D01*
Y7249882D01*
X17300549D01*
X17278136Y7213935D01*
X17277431Y7213089D01*
X17276868Y7212525D01*
X17276443Y7212243D01*
X17276303Y7212102D01*
X17275598Y7211961D01*
X17274893Y7211820D01*
X17274329D01*
X17272920Y7211961D01*
X17271793Y7212525D01*
X17271088Y7212948D01*
X17270805Y7213089D01*
X17270241Y7213653D01*
X17269958Y7214216D01*
X17269395Y7215344D01*
X17269255Y7216190D01*
Y7216331D01*
Y7216472D01*
X17269678Y7218023D01*
X17270100Y7219150D01*
X17289272Y7249882D01*
X17288426D01*
X17285606Y7250164D01*
X17282928Y7250728D01*
X17280673Y7251574D01*
X17278700Y7252701D01*
X17277148Y7253688D01*
X17275880Y7254534D01*
X17275175Y7255098D01*
X17274893Y7255380D01*
X17273061Y7257635D01*
X17271651Y7259891D01*
X17270663Y7262146D01*
X17269958Y7264261D01*
X17269536Y7266093D01*
X17269395Y7267644D01*
X17269255Y7268208D01*
Y7268631D01*
Y7268772D01*
Y7268913D01*
Y7287944D01*
X17269536Y7290763D01*
X17270100Y7293301D01*
X17271088Y7295556D01*
X17272073Y7297530D01*
X17273061Y7299080D01*
X17274046Y7300349D01*
X17274611Y7301054D01*
X17274893Y7301336D01*
X17277008Y7303169D01*
X17279263Y7304578D01*
X17281519Y7305565D01*
X17283633Y7306270D01*
X17285466Y7306693D01*
X17287016Y7306834D01*
X17287581Y7306975D01*
X17321695D01*
X17323245Y7306834D01*
D02*
G37*
G36*
X17156339Y7306693D02*
X17159299Y7305988D01*
X17161694Y7305001D01*
X17163950Y7303873D01*
X17165642Y7302605D01*
X17166910Y7301618D01*
X17167757Y7300913D01*
X17167897Y7300772D01*
X17168037Y7300631D01*
X17169167Y7299362D01*
X17170012Y7298235D01*
X17171562Y7295697D01*
X17172549Y7293160D01*
X17173395Y7290904D01*
X17173817Y7288931D01*
X17173959Y7287380D01*
X17174100Y7286816D01*
Y7286393D01*
Y7286111D01*
Y7285970D01*
Y7232684D01*
X17173959Y7230992D01*
X17173817Y7229441D01*
X17173112Y7226622D01*
X17172125Y7224084D01*
X17170998Y7221829D01*
X17169872Y7220137D01*
X17168884Y7218868D01*
X17168179Y7218023D01*
X17167897Y7217882D01*
Y7217741D01*
X17165501Y7215767D01*
X17162962Y7214357D01*
X17160567Y7213230D01*
X17158170Y7212525D01*
X17156197Y7212102D01*
X17154646Y7211961D01*
X17154082Y7211820D01*
X17147597D01*
X17146046Y7211961D01*
X17144496Y7212102D01*
X17141536Y7212807D01*
X17138998Y7213794D01*
X17136884Y7214921D01*
X17135191Y7216049D01*
X17133923Y7217036D01*
X17133076Y7217741D01*
X17132796Y7218023D01*
X17131668Y7219150D01*
X17130681Y7220419D01*
X17129271Y7222957D01*
X17128143Y7225353D01*
X17127298Y7227750D01*
X17126875Y7229723D01*
X17126733Y7231274D01*
X17126593Y7231838D01*
Y7232261D01*
Y7232543D01*
Y7232684D01*
Y7285970D01*
Y7287521D01*
X17126875Y7289072D01*
X17127580Y7292032D01*
X17128566Y7294569D01*
X17129694Y7296684D01*
X17130963Y7298376D01*
X17131950Y7299644D01*
X17132655Y7300490D01*
X17132796Y7300772D01*
X17132938D01*
X17134064Y7301900D01*
X17135333Y7302887D01*
X17137869Y7304296D01*
X17140266Y7305424D01*
X17142522Y7306270D01*
X17144637Y7306693D01*
X17146188Y7306834D01*
X17146751Y7306975D01*
X17154787D01*
X17156339Y7306693D01*
D02*
G37*
G36*
X16318121Y6727789D02*
X16318826Y6727648D01*
X16319389Y6727507D01*
X16319531Y6727366D01*
X16320236Y6726943D01*
X16320941Y6726379D01*
X16321364Y6725956D01*
X16321506Y6725815D01*
X16340536Y6706643D01*
X16341382Y6705516D01*
X16341805Y6704388D01*
X16341945Y6703683D01*
Y6703542D01*
Y6703401D01*
X16341805Y6702696D01*
X16341664Y6702132D01*
X16341100Y6701005D01*
X16340677Y6700300D01*
X16340395Y6700159D01*
Y6700018D01*
X16339267Y6699172D01*
X16338139Y6698749D01*
X16337434Y6698608D01*
X16337152D01*
X16335884Y6698890D01*
X16334756Y6699313D01*
X16334052Y6699736D01*
X16333769Y6700018D01*
X16322774Y6711014D01*
Y6636722D01*
X16322491Y6635172D01*
X16322069Y6634044D01*
X16321646Y6633480D01*
X16321364Y6633198D01*
X16320236Y6632493D01*
X16319249Y6632211D01*
X16318404Y6632070D01*
X16318121D01*
X16316711Y6632211D01*
X16315584Y6632634D01*
X16315021Y6633057D01*
X16314738Y6633198D01*
X16313892Y6634326D01*
X16313470Y6635454D01*
X16313329Y6636299D01*
Y6636581D01*
Y6636722D01*
Y6722432D01*
X16313470Y6724124D01*
X16313892Y6725392D01*
X16314456Y6726238D01*
X16314597Y6726520D01*
X16315726Y6727366D01*
X16316571Y6727789D01*
X16317136Y6727930D01*
X16317276D01*
X16318121Y6727789D01*
D02*
G37*
G36*
X16392271Y6726943D02*
X16394949Y6726379D01*
X16397206Y6725392D01*
X16399179Y6724406D01*
X16400871Y6723419D01*
X16401999Y6722432D01*
X16402704Y6721868D01*
X16402985Y6721586D01*
X16404819Y6719472D01*
X16406229Y6717216D01*
X16407074Y6714961D01*
X16407777Y6712846D01*
X16408202Y6711014D01*
X16408342Y6709463D01*
X16408482Y6708899D01*
Y6708617D01*
Y6708335D01*
Y6708194D01*
Y6651101D01*
X16408202Y6648282D01*
X16407637Y6645603D01*
X16406651Y6643348D01*
X16405664Y6641374D01*
X16404677Y6639683D01*
X16403690Y6638555D01*
X16403127Y6637850D01*
X16402844Y6637568D01*
X16400589Y6635736D01*
X16398334Y6634326D01*
X16396078Y6633480D01*
X16393964Y6632775D01*
X16392131Y6632352D01*
X16390721Y6632211D01*
X16390157Y6632070D01*
X16365628D01*
X16364783Y6632211D01*
X16364078Y6632352D01*
X16363091Y6632916D01*
X16362386Y6633339D01*
X16362245Y6633621D01*
X16361540Y6634749D01*
X16361118Y6635736D01*
X16360976Y6636440D01*
Y6636722D01*
X16361258Y6637991D01*
X16361681Y6638978D01*
X16362103Y6639683D01*
X16362386Y6639965D01*
X16362950Y6640529D01*
X16363515Y6640810D01*
X16364500Y6641374D01*
X16365346Y6641515D01*
X16389594D01*
X16390862Y6641656D01*
X16391991Y6641797D01*
X16392976Y6641938D01*
X16393118Y6642079D01*
X16393259D01*
X16394386Y6642784D01*
X16395374Y6643489D01*
X16396078Y6644053D01*
X16396359Y6644194D01*
X16397206Y6645321D01*
X16397911Y6646449D01*
X16398334Y6647577D01*
X16398756Y6648705D01*
X16398897Y6649551D01*
X16399039Y6650255D01*
Y6650819D01*
Y6650960D01*
Y6708194D01*
X16398897Y6709604D01*
X16398756Y6710732D01*
X16398615Y6711577D01*
X16398474Y6711718D01*
Y6711859D01*
X16397911Y6713128D01*
X16397206Y6714115D01*
X16396642Y6714679D01*
X16396359Y6714961D01*
X16395232Y6715947D01*
X16394104Y6716652D01*
X16392976Y6717075D01*
X16391849Y6717498D01*
X16391003Y6717639D01*
X16390298Y6717780D01*
X16365768D01*
X16364925Y6717921D01*
X16364220Y6718062D01*
X16363091Y6718626D01*
X16362386Y6719049D01*
X16362245Y6719331D01*
X16361540Y6720458D01*
X16361118Y6721445D01*
X16360976Y6722150D01*
Y6722432D01*
X16361258Y6723701D01*
X16361681Y6724688D01*
X16362103Y6725392D01*
X16362386Y6725674D01*
X16362950Y6726238D01*
X16363373Y6726520D01*
X16364500Y6727084D01*
X16365346Y6727225D01*
X16389452D01*
X16392271Y6726943D01*
D02*
G37*
G36*
X16263002Y6726661D02*
X16266245Y6725111D01*
X16269347Y6723278D01*
X16272025Y6721445D01*
X16274280Y6719754D01*
X16276253Y6718203D01*
X16277663Y6716934D01*
X16278227Y6716511D01*
X16278650Y6716088D01*
X16278790Y6715947D01*
X16278932Y6715806D01*
X16281328Y6713128D01*
X16283443Y6710450D01*
X16285275Y6707912D01*
X16286685Y6705516D01*
X16287813Y6703542D01*
X16288660Y6701850D01*
X16288940Y6701287D01*
X16289223Y6700864D01*
X16289365Y6700582D01*
Y6700441D01*
X16291055Y6695930D01*
X16292323Y6691278D01*
X16293170Y6687049D01*
X16293593Y6684934D01*
X16293735Y6683101D01*
X16294016Y6681269D01*
X16294157Y6679718D01*
X16294298Y6678308D01*
Y6677040D01*
X16294440Y6676053D01*
Y6675348D01*
Y6674925D01*
Y6674784D01*
Y6650960D01*
X16294157Y6648141D01*
X16293593Y6645603D01*
X16292606Y6643207D01*
X16291618Y6641374D01*
X16290633Y6639683D01*
X16289645Y6638555D01*
X16289082Y6637850D01*
X16288800Y6637568D01*
X16286543Y6635736D01*
X16284290Y6634326D01*
X16282175Y6633480D01*
X16280060Y6632775D01*
X16278227Y6632352D01*
X16276817Y6632211D01*
X16276253Y6632070D01*
X16265964D01*
X16263142Y6632352D01*
X16260464Y6632916D01*
X16258209Y6633762D01*
X16256236Y6634890D01*
X16254684Y6635876D01*
X16253557Y6636722D01*
X16252852Y6637286D01*
X16252570Y6637568D01*
X16250739Y6639824D01*
X16249329Y6642079D01*
X16248341Y6644335D01*
X16247636Y6646449D01*
X16247214Y6648282D01*
X16247073Y6649692D01*
X16246931Y6650255D01*
Y6650678D01*
Y6650819D01*
Y6650960D01*
Y6669991D01*
X16247214Y6672811D01*
X16247778Y6675489D01*
X16248764Y6677745D01*
X16249751Y6679718D01*
X16250739Y6681269D01*
X16251724Y6682397D01*
X16252289Y6683101D01*
X16252570Y6683383D01*
X16254826Y6685216D01*
X16257082Y6686626D01*
X16259337Y6687612D01*
X16261311Y6688317D01*
X16263142Y6688740D01*
X16264694Y6688881D01*
X16265257Y6689022D01*
X16283160D01*
X16282033Y6692828D01*
X16280624Y6696635D01*
X16279355Y6699313D01*
X16278085Y6701709D01*
X16276535Y6703824D01*
X16275267Y6705798D01*
X16273997Y6707348D01*
X16273010Y6708476D01*
X16272305Y6709181D01*
X16272025Y6709463D01*
X16269910Y6711436D01*
X16267937Y6712987D01*
X16267232Y6713551D01*
X16266667Y6714115D01*
X16266245Y6714256D01*
X16266104Y6714397D01*
X16264835Y6715102D01*
X16263847Y6715806D01*
X16263142Y6716088D01*
X16262862Y6716229D01*
X16261594Y6716793D01*
X16260464Y6717357D01*
X16259619Y6717780D01*
X16259479Y6717921D01*
X16259337D01*
X16258209Y6718626D01*
X16257504Y6719331D01*
X16257224Y6719754D01*
X16257082Y6719895D01*
X16256799Y6720599D01*
X16256519Y6721445D01*
Y6722009D01*
Y6722150D01*
X16256659Y6723560D01*
X16257082Y6724688D01*
X16257504Y6725392D01*
X16257645Y6725674D01*
X16258209Y6726238D01*
X16258772Y6726520D01*
X16259901Y6727084D01*
X16260747Y6727225D01*
X16261029D01*
X16263002Y6726661D01*
D02*
G37*
G36*
X16547646Y7790139D02*
X16548351Y7789998D01*
X16548914Y7789857D01*
X16549055Y7789716D01*
X16549760Y7789293D01*
X16550465Y7788729D01*
X16550888Y7788306D01*
X16551028Y7788165D01*
X16570061Y7768993D01*
X16570906Y7767865D01*
X16571329Y7766738D01*
X16571471Y7766033D01*
Y7765892D01*
Y7765751D01*
X16571329Y7765046D01*
X16571188Y7764482D01*
X16570624Y7763354D01*
X16570201Y7762649D01*
X16569919Y7762508D01*
Y7762368D01*
X16568791Y7761522D01*
X16567664Y7761099D01*
X16566959Y7760958D01*
X16566676D01*
X16565408Y7761240D01*
X16564281Y7761663D01*
X16563576Y7762086D01*
X16563293Y7762368D01*
X16552298Y7773363D01*
Y7699072D01*
X16552016Y7697521D01*
X16551593Y7696394D01*
X16551170Y7695830D01*
X16550888Y7695548D01*
X16549760Y7694843D01*
X16548773Y7694561D01*
X16547928Y7694420D01*
X16547646D01*
X16546236Y7694561D01*
X16545108Y7694984D01*
X16544543Y7695407D01*
X16544263Y7695548D01*
X16543416Y7696675D01*
X16542995Y7697803D01*
X16542853Y7698649D01*
Y7698931D01*
Y7699072D01*
Y7784782D01*
X16542995Y7786473D01*
X16543416Y7787742D01*
X16543980Y7788588D01*
X16544121Y7788870D01*
X16545248Y7789716D01*
X16546095Y7790139D01*
X16546658Y7790280D01*
X16546800D01*
X16547646Y7790139D01*
D02*
G37*
G36*
X16621796Y7789293D02*
X16624474Y7788729D01*
X16626730Y7787742D01*
X16628703Y7786755D01*
X16630396Y7785769D01*
X16631523Y7784782D01*
X16632228Y7784218D01*
X16632510Y7783936D01*
X16634341Y7781821D01*
X16635751Y7779566D01*
X16636598Y7777310D01*
X16637303Y7775196D01*
X16637724Y7773363D01*
X16637866Y7771812D01*
X16638007Y7771249D01*
Y7770967D01*
Y7770685D01*
Y7770544D01*
Y7713451D01*
X16637724Y7710632D01*
X16637161Y7707953D01*
X16636176Y7705698D01*
X16635188Y7703724D01*
X16634201Y7702032D01*
X16633214Y7700905D01*
X16632651Y7700200D01*
X16632368Y7699918D01*
X16630113Y7698085D01*
X16627858Y7696675D01*
X16625603Y7695830D01*
X16623486Y7695125D01*
X16621655Y7694702D01*
X16620245Y7694561D01*
X16619681Y7694420D01*
X16595152D01*
X16594307Y7694561D01*
X16593602Y7694702D01*
X16592615Y7695266D01*
X16591910Y7695689D01*
X16591769Y7695971D01*
X16591064Y7697098D01*
X16590640Y7698085D01*
X16590500Y7698790D01*
Y7699072D01*
X16590782Y7700341D01*
X16591205Y7701327D01*
X16591628Y7702032D01*
X16591910Y7702314D01*
X16592474Y7702878D01*
X16593037Y7703160D01*
X16594025Y7703724D01*
X16594872Y7703865D01*
X16619118D01*
X16620386Y7704006D01*
X16621513Y7704147D01*
X16622501Y7704288D01*
X16622643Y7704429D01*
X16622783D01*
X16623911Y7705134D01*
X16624896Y7705839D01*
X16625603Y7706402D01*
X16625883Y7706543D01*
X16626730Y7707671D01*
X16627435Y7708799D01*
X16627858Y7709927D01*
X16628281Y7711054D01*
X16628421Y7711900D01*
X16628561Y7712605D01*
Y7713169D01*
Y7713310D01*
Y7770544D01*
X16628421Y7771953D01*
X16628281Y7773081D01*
X16628139Y7773927D01*
X16627998Y7774068D01*
Y7774209D01*
X16627435Y7775478D01*
X16626730Y7776465D01*
X16626166Y7777028D01*
X16625883Y7777310D01*
X16624756Y7778297D01*
X16623628Y7779002D01*
X16622501Y7779425D01*
X16621373Y7779848D01*
X16620528Y7779989D01*
X16619823Y7780130D01*
X16595293D01*
X16594447Y7780271D01*
X16593742Y7780412D01*
X16592615Y7780976D01*
X16591910Y7781398D01*
X16591769Y7781680D01*
X16591064Y7782808D01*
X16590640Y7783795D01*
X16590500Y7784500D01*
Y7784782D01*
X16590782Y7786050D01*
X16591205Y7787037D01*
X16591628Y7787742D01*
X16591910Y7788024D01*
X16592474Y7788588D01*
X16592897Y7788870D01*
X16594025Y7789434D01*
X16594872Y7789575D01*
X16618976D01*
X16621796Y7789293D01*
D02*
G37*
G36*
X16520860Y7789434D02*
X16521989Y7788870D01*
X16522835Y7788024D01*
X16523399Y7787178D01*
X16523682Y7786332D01*
X16523822Y7785487D01*
X16523962Y7784923D01*
Y7784782D01*
Y7746579D01*
X16523822Y7745028D01*
X16523257Y7743900D01*
X16522552Y7743055D01*
X16521565Y7742491D01*
X16520720Y7742209D01*
X16520015Y7742068D01*
X16519452Y7741927D01*
X16500281D01*
X16498164Y7741786D01*
X16496191Y7741222D01*
X16494359Y7740658D01*
X16492949Y7739812D01*
X16491681Y7739107D01*
X16490836Y7738403D01*
X16490271Y7737839D01*
X16490131Y7737698D01*
X16488721Y7736006D01*
X16487733Y7734314D01*
X16486888Y7732623D01*
X16486465Y7731072D01*
X16486183Y7729662D01*
X16485901Y7728535D01*
Y7727830D01*
Y7727548D01*
Y7718103D01*
X16486041Y7715847D01*
X16486606Y7713874D01*
X16487169Y7712182D01*
X16488016Y7710632D01*
X16488721Y7709504D01*
X16489426Y7708517D01*
X16489989Y7707953D01*
X16490131Y7707812D01*
X16491821Y7706543D01*
X16493513Y7705557D01*
X16495206Y7704852D01*
X16496754Y7704429D01*
X16498164Y7704147D01*
X16499294Y7703865D01*
X16520155D01*
X16520860Y7703583D01*
X16521848Y7703160D01*
X16522552Y7702596D01*
X16522835Y7702455D01*
Y7702314D01*
X16523540Y7701187D01*
X16523822Y7700059D01*
X16523962Y7699354D01*
Y7699213D01*
Y7699072D01*
X16523822Y7697662D01*
X16523399Y7696675D01*
X16522977Y7695971D01*
X16522835Y7695689D01*
X16521707Y7694984D01*
X16520580Y7694561D01*
X16519592Y7694420D01*
X16500281D01*
X16498447Y7694561D01*
X16496754Y7694702D01*
X16493513Y7695548D01*
X16490694Y7696675D01*
X16488297Y7697944D01*
X16486183Y7699213D01*
X16484773Y7700200D01*
X16484209Y7700764D01*
X16483786Y7701046D01*
X16483646Y7701187D01*
X16483504Y7701327D01*
X16482236Y7702737D01*
X16481108Y7704147D01*
X16480263Y7705557D01*
X16479416Y7706966D01*
X16478146Y7709786D01*
X16477303Y7712323D01*
X16476878Y7714720D01*
X16476598Y7715706D01*
Y7716411D01*
X16476456Y7717116D01*
Y7717680D01*
Y7717962D01*
Y7718103D01*
Y7727548D01*
X16476598Y7729381D01*
X16476738Y7731072D01*
X16477583Y7734314D01*
X16478711Y7737134D01*
X16479980Y7739671D01*
X16481248Y7741645D01*
X16482376Y7743055D01*
X16482799Y7743618D01*
X16483221Y7744041D01*
X16483363Y7744182D01*
X16483504Y7744323D01*
X16484914Y7745592D01*
X16486183Y7746720D01*
X16487733Y7747566D01*
X16489143Y7748411D01*
X16491962Y7749680D01*
X16494501Y7750526D01*
X16496754Y7750949D01*
X16497742Y7751231D01*
X16498589D01*
X16499294Y7751372D01*
X16514519D01*
Y7780130D01*
X16481248D01*
X16480403Y7780271D01*
X16479698Y7780412D01*
X16478571Y7780976D01*
X16477866Y7781398D01*
X16477724Y7781680D01*
X16477020Y7782808D01*
X16476598Y7783795D01*
X16476456Y7784500D01*
Y7784782D01*
X16476738Y7786050D01*
X16477161Y7787037D01*
X16477583Y7787742D01*
X16477866Y7788024D01*
X16478429Y7788588D01*
X16478993Y7788870D01*
X16480121Y7789434D01*
X16480968Y7789575D01*
X16519312D01*
X16520860Y7789434D01*
D02*
G37*
G36*
X16352914Y7037789D02*
X16353619Y7037648D01*
X16354182Y7037507D01*
X16354324Y7037366D01*
X16355029Y7036943D01*
X16355734Y7036379D01*
X16356157Y7035956D01*
X16356297Y7035815D01*
X16375330Y7016643D01*
X16376175Y7015516D01*
X16376598Y7014388D01*
X16376738Y7013683D01*
Y7013542D01*
Y7013401D01*
X16376598Y7012696D01*
X16376456Y7012132D01*
X16375893Y7011005D01*
X16375470Y7010300D01*
X16375188Y7010159D01*
Y7010018D01*
X16374060Y7009172D01*
X16372932Y7008749D01*
X16372227Y7008608D01*
X16371945D01*
X16370677Y7008890D01*
X16369550Y7009313D01*
X16368845Y7009736D01*
X16368562Y7010018D01*
X16357565Y7021013D01*
Y6946722D01*
X16357285Y6945172D01*
X16356862Y6944044D01*
X16356439Y6943480D01*
X16356157Y6943198D01*
X16355029Y6942493D01*
X16354042Y6942211D01*
X16353197Y6942070D01*
X16352914D01*
X16351505Y6942211D01*
X16350377Y6942634D01*
X16349812Y6943057D01*
X16349532Y6943198D01*
X16348685Y6944326D01*
X16348262Y6945453D01*
X16348122Y6946299D01*
Y6946581D01*
Y6946722D01*
Y7032432D01*
X16348262Y7034124D01*
X16348685Y7035392D01*
X16349249Y7036238D01*
X16349390Y7036520D01*
X16350517Y7037366D01*
X16351364Y7037789D01*
X16351929Y7037930D01*
X16352069D01*
X16352914Y7037789D01*
D02*
G37*
G36*
X16306958Y7037084D02*
X16307381Y7036943D01*
X16307523Y7036802D01*
X16308368Y7036238D01*
X16309213Y7035392D01*
X16309637Y7034547D01*
X16309920Y7033983D01*
X16310060Y7033701D01*
X16329091Y6967022D01*
X16329372Y6965894D01*
Y6964766D01*
X16329091Y6963498D01*
X16328526Y6962511D01*
X16327821Y6961947D01*
X16326836Y6961383D01*
X16325989Y6961101D01*
X16325143Y6960960D01*
X16295822D01*
Y6946722D01*
X16295540Y6945172D01*
X16295117Y6944044D01*
X16294695Y6943480D01*
X16294412Y6943198D01*
X16293285Y6942493D01*
X16292297Y6942211D01*
X16291452Y6942070D01*
X16291170D01*
X16289760Y6942211D01*
X16288632Y6942634D01*
X16288068Y6943057D01*
X16287785Y6943198D01*
X16286942Y6944326D01*
X16286517Y6945453D01*
X16286377Y6946299D01*
Y6946581D01*
Y6946722D01*
Y6960960D01*
X16276932D01*
X16276086Y6961101D01*
X16275381Y6961242D01*
X16274252Y6961806D01*
X16273547Y6962229D01*
X16273407Y6962511D01*
X16272704Y6963639D01*
X16272279Y6964625D01*
X16272139Y6965330D01*
Y6965612D01*
X16272421Y6966881D01*
X16272844Y6967868D01*
X16273267Y6968573D01*
X16273547Y6968854D01*
X16274112Y6969418D01*
X16274677Y6969700D01*
X16275804Y6970264D01*
X16276649Y6970405D01*
X16286377D01*
Y6984643D01*
Y6985489D01*
X16286659Y6986194D01*
X16287080Y6987322D01*
X16287645Y6988026D01*
X16287785Y6988167D01*
X16287927D01*
X16289055Y6988872D01*
X16290042Y6989295D01*
X16290887Y6989436D01*
X16291170D01*
X16292438Y6989295D01*
X16293425Y6988872D01*
X16294130Y6988308D01*
X16294412Y6988167D01*
X16295258Y6986899D01*
X16295682Y6985771D01*
X16295822Y6984925D01*
Y6984784D01*
Y6984643D01*
Y6970405D01*
X16318236D01*
X16300897Y7031022D01*
X16300755Y7032432D01*
X16301038Y7033842D01*
X16301460Y7034969D01*
X16301883Y7035533D01*
X16302165Y7035815D01*
X16303293Y7036661D01*
X16304420Y7037084D01*
X16305267Y7037225D01*
X16306393D01*
X16306958Y7037084D01*
D02*
G37*
G36*
X16427065Y7036943D02*
X16429742Y7036379D01*
X16431999Y7035392D01*
X16433972Y7034406D01*
X16435664Y7033419D01*
X16436792Y7032432D01*
X16437495Y7031868D01*
X16437778Y7031586D01*
X16439610Y7029472D01*
X16441022Y7027216D01*
X16441867Y7024961D01*
X16442570Y7022846D01*
X16442995Y7021013D01*
X16443135Y7019463D01*
X16443275Y7018899D01*
Y7018617D01*
Y7018335D01*
Y7018194D01*
Y6961101D01*
X16442995Y6958282D01*
X16442430Y6955603D01*
X16441444Y6953348D01*
X16440457Y6951374D01*
X16439470Y6949683D01*
X16438483Y6948555D01*
X16437920Y6947850D01*
X16437637Y6947568D01*
X16435382Y6945735D01*
X16433125Y6944326D01*
X16430872Y6943480D01*
X16428757Y6942775D01*
X16426924Y6942352D01*
X16425514Y6942211D01*
X16424950Y6942070D01*
X16400421D01*
X16399576Y6942211D01*
X16398871Y6942352D01*
X16397884Y6942916D01*
X16397179Y6943339D01*
X16397038Y6943621D01*
X16396333Y6944749D01*
X16395911Y6945735D01*
X16395769Y6946440D01*
Y6946722D01*
X16396051Y6947991D01*
X16396474Y6948978D01*
X16396896Y6949683D01*
X16397179Y6949965D01*
X16397743Y6950528D01*
X16398306Y6950810D01*
X16399294Y6951374D01*
X16400139Y6951515D01*
X16424387D01*
X16425655Y6951656D01*
X16426784Y6951797D01*
X16427769Y6951938D01*
X16427911Y6952079D01*
X16428052D01*
X16429179Y6952784D01*
X16430167Y6953489D01*
X16430872Y6954053D01*
X16431152Y6954194D01*
X16431999Y6955321D01*
X16432703Y6956449D01*
X16433125Y6957577D01*
X16433549Y6958705D01*
X16433690Y6959550D01*
X16433830Y6960255D01*
Y6960819D01*
Y6960960D01*
Y7018194D01*
X16433690Y7019604D01*
X16433549Y7020731D01*
X16433408Y7021577D01*
X16433267Y7021718D01*
Y7021859D01*
X16432703Y7023128D01*
X16431999Y7024115D01*
X16431435Y7024679D01*
X16431152Y7024961D01*
X16430025Y7025947D01*
X16428897Y7026652D01*
X16427769Y7027075D01*
X16426642Y7027498D01*
X16425797Y7027639D01*
X16425092Y7027780D01*
X16400562D01*
X16399718Y7027921D01*
X16399013Y7028062D01*
X16397884Y7028626D01*
X16397179Y7029049D01*
X16397038Y7029331D01*
X16396333Y7030458D01*
X16395911Y7031445D01*
X16395769Y7032150D01*
Y7032432D01*
X16396051Y7033701D01*
X16396474Y7034687D01*
X16396896Y7035392D01*
X16397179Y7035674D01*
X16397743Y7036238D01*
X16398166Y7036520D01*
X16399294Y7037084D01*
X16400139Y7037225D01*
X16424245D01*
X16427065Y7036943D01*
D02*
G37*
G36*
X16527325Y8026359D02*
X16528030Y8026218D01*
X16528593Y8026077D01*
X16528735Y8025936D01*
X16529440Y8025513D01*
X16530145Y8024949D01*
X16530568Y8024526D01*
X16530708Y8024385D01*
X16549741Y8005213D01*
X16550586Y8004085D01*
X16551009Y8002958D01*
X16551151Y8002253D01*
Y8002112D01*
Y8001971D01*
X16551009Y8001266D01*
X16550868Y8000702D01*
X16550304Y7999574D01*
X16549881Y7998869D01*
X16549599Y7998728D01*
Y7998588D01*
X16548471Y7997742D01*
X16547343Y7997319D01*
X16546638Y7997178D01*
X16546358D01*
X16545088Y7997460D01*
X16543961Y7997883D01*
X16543256Y7998306D01*
X16542973Y7998588D01*
X16531978Y8009583D01*
Y7935292D01*
X16531696Y7933741D01*
X16531273Y7932614D01*
X16530850Y7932050D01*
X16530568Y7931768D01*
X16529440Y7931063D01*
X16528453Y7930781D01*
X16527608Y7930640D01*
X16527325D01*
X16525916Y7930781D01*
X16524788Y7931204D01*
X16524223Y7931627D01*
X16523943Y7931768D01*
X16523096Y7932895D01*
X16522675Y7934023D01*
X16522533Y7934869D01*
Y7935151D01*
Y7935292D01*
Y8021002D01*
X16522675Y8022693D01*
X16523096Y8023962D01*
X16523660Y8024808D01*
X16523801Y8025090D01*
X16524928Y8025936D01*
X16525775Y8026359D01*
X16526340Y8026500D01*
X16526480D01*
X16527325Y8026359D01*
D02*
G37*
G36*
X16479819D02*
X16480524Y8026218D01*
X16481087Y8026077D01*
X16481229Y8025936D01*
X16481934Y8025513D01*
X16482639Y8024949D01*
X16483061Y8024526D01*
X16483202Y8024385D01*
X16502232Y8005213D01*
X16503079Y8004085D01*
X16503502Y8002958D01*
X16503642Y8002253D01*
Y8002112D01*
Y8001971D01*
X16503502Y8001266D01*
X16503362Y8000702D01*
X16502797Y7999574D01*
X16502374Y7998869D01*
X16502092Y7998728D01*
Y7998588D01*
X16500964Y7997742D01*
X16499837Y7997319D01*
X16499132Y7997178D01*
X16498849D01*
X16497581Y7997460D01*
X16496452Y7997883D01*
X16495747Y7998306D01*
X16495467Y7998588D01*
X16484471Y8009583D01*
Y7935292D01*
X16484189Y7933741D01*
X16483766Y7932614D01*
X16483344Y7932050D01*
X16483061Y7931768D01*
X16481934Y7931063D01*
X16480946Y7930781D01*
X16480101Y7930640D01*
X16479819D01*
X16478409Y7930781D01*
X16477281Y7931204D01*
X16476717Y7931627D01*
X16476434Y7931768D01*
X16475591Y7932895D01*
X16475166Y7934023D01*
X16475026Y7934869D01*
Y7935151D01*
Y7935292D01*
Y8021002D01*
X16475166Y8022693D01*
X16475591Y8023962D01*
X16476154Y8024808D01*
X16476294Y8025090D01*
X16477422Y8025936D01*
X16478268Y8026359D01*
X16478831Y8026500D01*
X16478973D01*
X16479819Y8026359D01*
D02*
G37*
G36*
X16601476Y8025513D02*
X16604153Y8024949D01*
X16606410Y8023962D01*
X16608383Y8022975D01*
X16610075Y8021989D01*
X16611203Y8021002D01*
X16611908Y8020438D01*
X16612190Y8020156D01*
X16614021Y8018041D01*
X16615433Y8015786D01*
X16616278Y8013530D01*
X16616983Y8011416D01*
X16617406Y8009583D01*
X16617546Y8008032D01*
X16617686Y8007469D01*
Y8007187D01*
Y8006905D01*
Y8006764D01*
Y7949671D01*
X16617406Y7946852D01*
X16616843Y7944173D01*
X16615855Y7941918D01*
X16614868Y7939944D01*
X16613881Y7938252D01*
X16612894Y7937125D01*
X16612331Y7936420D01*
X16612048Y7936138D01*
X16609793Y7934305D01*
X16607538Y7932895D01*
X16605283Y7932050D01*
X16603168Y7931345D01*
X16601335Y7930922D01*
X16599925Y7930781D01*
X16599361Y7930640D01*
X16574832D01*
X16573987Y7930781D01*
X16573282Y7930922D01*
X16572295Y7931486D01*
X16571590Y7931909D01*
X16571449Y7932191D01*
X16570744Y7933318D01*
X16570322Y7934305D01*
X16570180Y7935010D01*
Y7935292D01*
X16570462Y7936561D01*
X16570885Y7937547D01*
X16571307Y7938252D01*
X16571590Y7938534D01*
X16572154Y7939098D01*
X16572717Y7939380D01*
X16573705Y7939944D01*
X16574551Y7940085D01*
X16598798D01*
X16600066Y7940226D01*
X16601193Y7940367D01*
X16602180Y7940508D01*
X16602322Y7940649D01*
X16602463D01*
X16603590Y7941354D01*
X16604578Y7942059D01*
X16605283Y7942622D01*
X16605563Y7942763D01*
X16606410Y7943891D01*
X16607115Y7945019D01*
X16607538Y7946147D01*
X16607961Y7947274D01*
X16608101Y7948120D01*
X16608241Y7948825D01*
Y7949389D01*
Y7949530D01*
Y8006764D01*
X16608101Y8008173D01*
X16607961Y8009301D01*
X16607819Y8010147D01*
X16607678Y8010288D01*
Y8010429D01*
X16607115Y8011698D01*
X16606410Y8012685D01*
X16605846Y8013248D01*
X16605563Y8013530D01*
X16604436Y8014517D01*
X16603308Y8015222D01*
X16602180Y8015645D01*
X16601053Y8016068D01*
X16600208Y8016209D01*
X16599503Y8016350D01*
X16574973D01*
X16574129Y8016491D01*
X16573422Y8016632D01*
X16572295Y8017196D01*
X16571590Y8017618D01*
X16571449Y8017900D01*
X16570744Y8019028D01*
X16570322Y8020015D01*
X16570180Y8020720D01*
Y8021002D01*
X16570462Y8022270D01*
X16570885Y8023257D01*
X16571307Y8023962D01*
X16571590Y8024244D01*
X16572154Y8024808D01*
X16572577Y8025090D01*
X16573705Y8025654D01*
X16574551Y8025795D01*
X16598656D01*
X16601476Y8025513D01*
D02*
G37*
G36*
X16676022Y7531792D02*
X16676727Y7531651D01*
X16677292Y7531510D01*
X16677432Y7531369D01*
X16678137Y7530946D01*
X16678842Y7530382D01*
X16679265Y7529959D01*
X16679407Y7529818D01*
X16698438Y7510646D01*
X16699283Y7509519D01*
X16699706Y7508391D01*
X16699847Y7507686D01*
Y7507545D01*
Y7507404D01*
X16699706Y7506699D01*
X16699565Y7506135D01*
X16699001Y7505008D01*
X16698578Y7504303D01*
X16698296Y7504162D01*
Y7504021D01*
X16697168Y7503175D01*
X16696040Y7502752D01*
X16695335Y7502611D01*
X16695055D01*
X16693785Y7502893D01*
X16692657Y7503316D01*
X16691953Y7503739D01*
X16691670Y7504021D01*
X16680675Y7515016D01*
Y7440725D01*
X16680392Y7439175D01*
X16679970Y7438047D01*
X16679547Y7437483D01*
X16679265Y7437201D01*
X16678137Y7436496D01*
X16677151Y7436214D01*
X16676305Y7436073D01*
X16676022D01*
X16674612Y7436214D01*
X16673485Y7436637D01*
X16672922Y7437060D01*
X16672639Y7437201D01*
X16671794Y7438329D01*
X16671371Y7439457D01*
X16671230Y7440302D01*
Y7440584D01*
Y7440725D01*
Y7526435D01*
X16671371Y7528127D01*
X16671794Y7529395D01*
X16672359Y7530241D01*
X16672499Y7530523D01*
X16673627Y7531369D01*
X16674472Y7531792D01*
X16675037Y7531933D01*
X16675177D01*
X16676022Y7531792D01*
D02*
G37*
G36*
X16750172Y7530946D02*
X16752850Y7530382D01*
X16755107Y7529395D01*
X16757082Y7528409D01*
X16758772Y7527422D01*
X16759900Y7526435D01*
X16760605Y7525871D01*
X16760887Y7525589D01*
X16762720Y7523475D01*
X16764130Y7521219D01*
X16764975Y7518964D01*
X16765680Y7516849D01*
X16766103Y7515016D01*
X16766245Y7513466D01*
X16766385Y7512902D01*
Y7512620D01*
Y7512338D01*
Y7512197D01*
Y7455104D01*
X16766103Y7452285D01*
X16765540Y7449606D01*
X16764552Y7447351D01*
X16763565Y7445377D01*
X16762578Y7443686D01*
X16761592Y7442558D01*
X16761028Y7441853D01*
X16760745Y7441571D01*
X16758490Y7439738D01*
X16756235Y7438329D01*
X16753979Y7437483D01*
X16751865Y7436778D01*
X16750032Y7436355D01*
X16748622Y7436214D01*
X16748058Y7436073D01*
X16723531D01*
X16722684Y7436214D01*
X16721979Y7436355D01*
X16720992Y7436919D01*
X16720287Y7437342D01*
X16720146Y7437624D01*
X16719443Y7438752D01*
X16719019Y7439738D01*
X16718878Y7440443D01*
Y7440725D01*
X16719160Y7441994D01*
X16719583Y7442981D01*
X16720004Y7443686D01*
X16720287Y7443968D01*
X16720851Y7444531D01*
X16721416Y7444813D01*
X16722401Y7445377D01*
X16723248Y7445518D01*
X16747495D01*
X16748763Y7445659D01*
X16749892Y7445800D01*
X16750877Y7445941D01*
X16751019Y7446082D01*
X16751160D01*
X16752287Y7446787D01*
X16753275Y7447492D01*
X16753979Y7448056D01*
X16754260Y7448197D01*
X16755107Y7449324D01*
X16755812Y7450452D01*
X16756235Y7451580D01*
X16756657Y7452708D01*
X16756799Y7453554D01*
X16756940Y7454258D01*
Y7454822D01*
Y7454963D01*
Y7512197D01*
X16756799Y7513607D01*
X16756657Y7514735D01*
X16756517Y7515580D01*
X16756377Y7515721D01*
Y7515862D01*
X16755812Y7517131D01*
X16755107Y7518118D01*
X16754543Y7518682D01*
X16754260Y7518964D01*
X16753133Y7519950D01*
X16752007Y7520655D01*
X16750877Y7521078D01*
X16749750Y7521501D01*
X16748904Y7521642D01*
X16748199Y7521783D01*
X16723671D01*
X16722826Y7521924D01*
X16722121Y7522065D01*
X16720992Y7522629D01*
X16720287Y7523052D01*
X16720146Y7523334D01*
X16719443Y7524461D01*
X16719019Y7525448D01*
X16718878Y7526153D01*
Y7526435D01*
X16719160Y7527704D01*
X16719583Y7528691D01*
X16720004Y7529395D01*
X16720287Y7529677D01*
X16720851Y7530241D01*
X16721274Y7530523D01*
X16722401Y7531087D01*
X16723248Y7531228D01*
X16747354D01*
X16750172Y7530946D01*
D02*
G37*
G36*
X16634578D02*
X16637538Y7530241D01*
X16639934Y7529254D01*
X16642191Y7528127D01*
X16643883Y7526858D01*
X16645151Y7525871D01*
X16645996Y7525166D01*
X16646136Y7525025D01*
X16646278Y7524884D01*
X16647406Y7523616D01*
X16648251Y7522488D01*
X16649802Y7519950D01*
X16650789Y7517413D01*
X16651636Y7515157D01*
X16652058Y7513184D01*
X16652199Y7511633D01*
X16652341Y7511069D01*
Y7510646D01*
Y7510364D01*
Y7510223D01*
Y7456937D01*
X16652199Y7455245D01*
X16652058Y7453695D01*
X16651353Y7450875D01*
X16650366Y7448338D01*
X16649239Y7446082D01*
X16648111Y7444390D01*
X16647124Y7443122D01*
X16646419Y7442276D01*
X16646136Y7442135D01*
Y7441994D01*
X16643741Y7440020D01*
X16641203Y7438611D01*
X16638808Y7437483D01*
X16636411Y7436778D01*
X16634438Y7436355D01*
X16632886Y7436214D01*
X16632323Y7436073D01*
X16625838D01*
X16624287Y7436214D01*
X16622736Y7436355D01*
X16619775Y7437060D01*
X16617238Y7438047D01*
X16615125Y7439175D01*
X16613432Y7440302D01*
X16612163Y7441289D01*
X16611317Y7441994D01*
X16611037Y7442276D01*
X16609908Y7443404D01*
X16608920Y7444672D01*
X16607510Y7447210D01*
X16606384Y7449606D01*
X16605537Y7452003D01*
X16605115Y7453976D01*
X16604974Y7455527D01*
X16604832Y7456091D01*
Y7456514D01*
Y7456796D01*
Y7456937D01*
Y7510223D01*
Y7511774D01*
X16605115Y7513325D01*
X16605820Y7516285D01*
X16606807Y7518823D01*
X16607935Y7520937D01*
X16609203Y7522629D01*
X16610190Y7523898D01*
X16610895Y7524743D01*
X16611037Y7525025D01*
X16611177D01*
X16612305Y7526153D01*
X16613573Y7527140D01*
X16616112Y7528550D01*
X16618507Y7529677D01*
X16620763Y7530523D01*
X16622878Y7530946D01*
X16624428Y7531087D01*
X16624992Y7531228D01*
X16633028D01*
X16634578Y7530946D01*
D02*
G37*
%LPC*%
G36*
X17316902Y7297530D02*
X17288284D01*
X17286876Y7297389D01*
X17285466Y7297107D01*
X17284338Y7296684D01*
X17283353Y7296120D01*
X17282648Y7295556D01*
X17281943Y7295133D01*
X17281660Y7294851D01*
X17281519Y7294710D01*
X17280531Y7293583D01*
X17279826Y7292455D01*
X17279404Y7291327D01*
X17278981Y7290340D01*
X17278841Y7289353D01*
X17278700Y7288649D01*
Y7288085D01*
Y7287944D01*
Y7268772D01*
X17278841Y7267221D01*
X17279121Y7265952D01*
X17279546Y7264684D01*
X17280109Y7263697D01*
X17280673Y7262992D01*
X17281096Y7262287D01*
X17281378Y7262005D01*
X17281519Y7261864D01*
X17282648Y7261018D01*
X17283774Y7260455D01*
X17284901Y7259891D01*
X17285889Y7259609D01*
X17286876Y7259468D01*
X17287581Y7259327D01*
X17316902D01*
Y7297530D01*
D02*
G37*
G36*
X17154082D02*
X17147597D01*
X17145766Y7297389D01*
X17144214Y7296966D01*
X17142804Y7296402D01*
X17141676Y7295838D01*
X17140691Y7295274D01*
X17139986Y7294710D01*
X17139561Y7294287D01*
X17139421Y7294146D01*
X17138293Y7292878D01*
X17137448Y7291468D01*
X17136884Y7290058D01*
X17136461Y7288790D01*
X17136179Y7287662D01*
X17136038Y7286816D01*
Y7286252D01*
Y7285970D01*
Y7232684D01*
X17136179Y7230851D01*
X17136601Y7229300D01*
X17137166Y7227891D01*
X17137730Y7226763D01*
X17138434Y7225776D01*
X17138998Y7225071D01*
X17139421Y7224648D01*
X17139561Y7224507D01*
X17140831Y7223380D01*
X17142241Y7222675D01*
X17143649Y7222111D01*
X17144778Y7221688D01*
X17145906Y7221406D01*
X17146751Y7221265D01*
X17153236D01*
X17154929Y7221406D01*
X17156479Y7221829D01*
X17157887Y7222252D01*
X17159157Y7222957D01*
X17160144Y7223520D01*
X17160849Y7223943D01*
X17161272Y7224366D01*
X17161412Y7224507D01*
X17162540Y7225776D01*
X17163245Y7227186D01*
X17163809Y7228595D01*
X17164232Y7229864D01*
X17164514Y7230992D01*
X17164655Y7231838D01*
Y7232543D01*
Y7232684D01*
Y7285970D01*
X17164514Y7287662D01*
X17164091Y7289212D01*
X17163667Y7290622D01*
X17162962Y7291891D01*
X17162399Y7292878D01*
X17161977Y7293583D01*
X17161552Y7294005D01*
X17161412Y7294146D01*
X17160144Y7295274D01*
X17158734Y7296120D01*
X17157324Y7296684D01*
X17156056Y7297107D01*
X17154929Y7297389D01*
X17154082Y7297530D01*
D02*
G37*
G36*
X16284853Y6679577D02*
X16265964D01*
X16264552Y6679436D01*
X16263142Y6679154D01*
X16262015Y6678731D01*
X16261029Y6678167D01*
X16260324Y6677604D01*
X16259619Y6677181D01*
X16259337Y6676899D01*
X16259196Y6676758D01*
X16258209Y6675630D01*
X16257504Y6674502D01*
X16257082Y6673375D01*
X16256659Y6672388D01*
X16256519Y6671401D01*
X16256377Y6670696D01*
Y6670132D01*
Y6669991D01*
Y6650960D01*
X16256519Y6649410D01*
X16256799Y6648141D01*
X16257224Y6646872D01*
X16257787Y6645885D01*
X16258350Y6645181D01*
X16258772Y6644476D01*
X16259055Y6644194D01*
X16259196Y6644053D01*
X16260324Y6643207D01*
X16261452Y6642643D01*
X16262579Y6642079D01*
X16263567Y6641797D01*
X16264552Y6641656D01*
X16265257Y6641515D01*
X16275549D01*
X16276817Y6641656D01*
X16277945Y6641797D01*
X16278932Y6641938D01*
X16279073Y6642079D01*
X16279214D01*
X16280342Y6642784D01*
X16281328Y6643489D01*
X16282033Y6644053D01*
X16282315Y6644194D01*
X16283160Y6645321D01*
X16283865Y6646449D01*
X16284290Y6647577D01*
X16284712Y6648705D01*
X16284853Y6649551D01*
X16284995Y6650255D01*
Y6650819D01*
Y6650960D01*
Y6674784D01*
X16284853Y6679577D01*
D02*
G37*
G36*
X16632323Y7521783D02*
X16625838D01*
X16624005Y7521642D01*
X16622453Y7521219D01*
X16621043Y7520655D01*
X16619917Y7520091D01*
X16618930Y7519528D01*
X16618225Y7518964D01*
X16617802Y7518541D01*
X16617661Y7518400D01*
X16616533Y7517131D01*
X16615688Y7515721D01*
X16615125Y7514312D01*
X16614700Y7513043D01*
X16614420Y7511915D01*
X16614278Y7511069D01*
Y7510505D01*
Y7510223D01*
Y7456937D01*
X16614420Y7455104D01*
X16614842Y7453554D01*
X16615405Y7452144D01*
X16615970Y7451016D01*
X16616673Y7450029D01*
X16617238Y7449324D01*
X16617661Y7448902D01*
X16617802Y7448761D01*
X16619070Y7447633D01*
X16620480Y7446928D01*
X16621890Y7446364D01*
X16623018Y7445941D01*
X16624146Y7445659D01*
X16624992Y7445518D01*
X16631476D01*
X16633168Y7445659D01*
X16634718Y7446082D01*
X16636128Y7446505D01*
X16637396Y7447210D01*
X16638383Y7447774D01*
X16639088Y7448197D01*
X16639513Y7448620D01*
X16639653Y7448761D01*
X16640781Y7450029D01*
X16641486Y7451439D01*
X16642049Y7452849D01*
X16642471Y7454117D01*
X16642754Y7455245D01*
X16642896Y7456091D01*
Y7456796D01*
Y7456937D01*
Y7510223D01*
X16642754Y7511915D01*
X16642331Y7513466D01*
X16641908Y7514875D01*
X16641203Y7516144D01*
X16640639Y7517131D01*
X16640216Y7517836D01*
X16639793Y7518259D01*
X16639653Y7518400D01*
X16638383Y7519528D01*
X16636974Y7520373D01*
X16635564Y7520937D01*
X16634296Y7521360D01*
X16633168Y7521642D01*
X16632323Y7521783D01*
D02*
G37*
%LPD*%
D71*
X16485609Y7670000D02*
X16925609D01*
X16485609Y7870000D02*
X16925609D01*
X16485609Y7670000D02*
X16485609Y7870000D01*
X16925609Y7670000D02*
X16925609Y7870000D01*
X16485609Y7432700D02*
X16925609D01*
X16485609Y7632700D02*
X16925609D01*
X16485609Y7432700D02*
X16485609Y7632700D01*
X16925609Y7432700D02*
X16925609Y7632700D01*
X16485609Y7210514D02*
X16925609Y7210514D01*
X16485609Y7410514D02*
X16925609Y7410514D01*
X16485609Y7210514D02*
X16485609Y7410514D01*
X16925609Y7210514D02*
X16925609Y7410514D01*
X16485609Y7148884D02*
X16925609Y7148884D01*
X16485609Y6948885D02*
X16925609Y6948884D01*
X16925609Y7148884D01*
X16485609Y6948885D02*
X16485609Y7148884D01*
X16487706Y6720001D02*
X16927705Y6720001D01*
X16487708Y6920000D02*
X16927707Y6920001D01*
X16487706Y6720001D02*
X16487708Y6920000D01*
X16927705Y6720001D02*
X16927707Y6920001D01*
X17337708Y6710000D02*
X17337708Y7150000D01*
X17137708Y6710000D02*
X17137708Y7150000D01*
X17137708Y6710000D02*
X17337708Y6710000D01*
X17137708Y7150000D02*
X17337708Y7150000D01*
%TF.MD5,f908cfae322b147255d6caadc6e6c146*%
M02*
