G04*
G04 #@! TF.GenerationSoftware,Altium Limited,Altium Designer,24.3.1 (35)*
G04*
G04 Layer_Color=8421504*
%FSLAX44Y44*%
%MOMM*%
G71*
G04*
G04 #@! TF.SameCoordinates,DC73BA1F-C390-44C3-A56D-8D3931A129D1*
G04*
G04*
G04 #@! TF.FilePolarity,Positive*
G04*
G01*
G75*
%ADD16R,1.3000X1.3000*%
%ADD17R,1.6000X1.0000*%
%ADD18R,1.0850X0.5500*%
%ADD19P,1.1314X4X75.0*%
G04:AMPARAMS|DCode=20|XSize=2mm|YSize=1.1mm|CornerRadius=0mm|HoleSize=0mm|Usage=FLASHONLY|Rotation=30.000|XOffset=0mm|YOffset=0mm|HoleType=Round|Shape=Rectangle|*
%AMROTATEDRECTD20*
4,1,4,-0.5910,-0.9763,-1.1410,-0.0237,0.5910,0.9763,1.1410,0.0237,-0.5910,-0.9763,0.0*
%
%ADD20ROTATEDRECTD20*%

%ADD21P,1.1314X4X345.0*%
G04:AMPARAMS|DCode=22|XSize=2mm|YSize=1.1mm|CornerRadius=0mm|HoleSize=0mm|Usage=FLASHONLY|Rotation=300.000|XOffset=0mm|YOffset=0mm|HoleType=Round|Shape=Rectangle|*
%AMROTATEDRECTD22*
4,1,4,-0.9763,0.5910,-0.0237,1.1410,0.9763,-0.5910,0.0237,-1.1410,-0.9763,0.5910,0.0*
%
%ADD22ROTATEDRECTD22*%

%ADD23R,0.3925X1.0056*%
G04:AMPARAMS|DCode=24|XSize=1.0056mm|YSize=0.3925mm|CornerRadius=0.1962mm|HoleSize=0mm|Usage=FLASHONLY|Rotation=90.000|XOffset=0mm|YOffset=0mm|HoleType=Round|Shape=RoundedRectangle|*
%AMROUNDEDRECTD24*
21,1,1.0056,0.0000,0,0,90.0*
21,1,0.6132,0.3925,0,0,90.0*
1,1,0.3925,0.0000,0.3066*
1,1,0.3925,0.0000,-0.3066*
1,1,0.3925,0.0000,-0.3066*
1,1,0.3925,0.0000,0.3066*
%
%ADD24ROUNDEDRECTD24*%
%ADD25O,0.6500X1.5250*%
%ADD26R,0.6500X1.5250*%
%ADD27R,1.0000X1.6000*%
%ADD28R,1.1000X0.6000*%
%ADD29O,1.5250X0.6500*%
%ADD30R,1.2500X1.0000*%
%ADD31R,1.0000X1.2500*%
G04:AMPARAMS|DCode=32|XSize=1.0056mm|YSize=0.3925mm|CornerRadius=0.1962mm|HoleSize=0mm|Usage=FLASHONLY|Rotation=0.000|XOffset=0mm|YOffset=0mm|HoleType=Round|Shape=RoundedRectangle|*
%AMROUNDEDRECTD32*
21,1,1.0056,0.0000,0,0,0.0*
21,1,0.6132,0.3925,0,0,0.0*
1,1,0.3925,0.3066,0.0000*
1,1,0.3925,-0.3066,0.0000*
1,1,0.3925,-0.3066,0.0000*
1,1,0.3925,0.3066,0.0000*
%
%ADD32ROUNDEDRECTD32*%
%ADD33R,1.0056X0.3925*%
%ADD34R,3.8000X2.5000*%
%ADD35R,7.9000X2.3000*%
%ADD36R,3.4000X2.3000*%
%ADD37R,0.3000X1.4500*%
G04:AMPARAMS|DCode=38|XSize=1.6mm|YSize=0.6mm|CornerRadius=0.3mm|HoleSize=0mm|Usage=FLASHONLY|Rotation=180.000|XOffset=0mm|YOffset=0mm|HoleType=Round|Shape=RoundedRectangle|*
%AMROUNDEDRECTD38*
21,1,1.6000,0.0000,0,0,180.0*
21,1,1.0000,0.6000,0,0,180.0*
1,1,0.6000,-0.5000,0.0000*
1,1,0.6000,0.5000,0.0000*
1,1,0.6000,0.5000,0.0000*
1,1,0.6000,-0.5000,0.0000*
%
%ADD38ROUNDEDRECTD38*%
%ADD39R,1.5250X0.6500*%
%ADD40R,1.8000X0.9000*%
%ADD41R,1.4000X0.4500*%
%ADD42R,1.0500X0.7000*%
%ADD43R,2.6000X1.1000*%
%ADD44C,1.0000*%
%ADD45R,1.1000X2.6000*%
%ADD46R,8.7500X5.2000*%
%ADD47R,1.6000X0.6000*%
%ADD48R,1.8000X3.2000*%
%ADD49R,1.6500X3.0826*%
G36*
X1413500Y108750D02*
Y108452D01*
X1413272Y107900D01*
X1412850Y107478D01*
X1412298Y107250D01*
X1411702D01*
X1411150Y107478D01*
X1410728Y107900D01*
X1410500Y108452D01*
Y108750D01*
Y116750D01*
X1413500D01*
Y108750D01*
D02*
G37*
G36*
X1407000D02*
Y108452D01*
X1406772Y107900D01*
X1406350Y107478D01*
X1405798Y107250D01*
X1405202D01*
X1404650Y107478D01*
X1404228Y107900D01*
X1404000Y108452D01*
Y108750D01*
X1404000D01*
Y116750D01*
X1407000D01*
Y108750D01*
D02*
G37*
G36*
X1400500D02*
Y108452D01*
X1400272Y107900D01*
X1399850Y107478D01*
X1399298Y107250D01*
X1398702D01*
X1398150Y107478D01*
X1397728Y107900D01*
X1397500Y108452D01*
Y108750D01*
Y116750D01*
X1400500D01*
Y108750D01*
D02*
G37*
G36*
X1394000D02*
Y108452D01*
X1393772Y107900D01*
X1393350Y107478D01*
X1392798Y107250D01*
X1392202D01*
X1391650Y107478D01*
X1391228Y107900D01*
X1391000Y108452D01*
Y108750D01*
Y116750D01*
X1394000D01*
X1394000Y108750D01*
D02*
G37*
G36*
X1387500D02*
Y108452D01*
X1387272Y107900D01*
X1386850Y107478D01*
X1386298Y107250D01*
X1385702D01*
X1385150Y107478D01*
X1384728Y107900D01*
X1384500Y108452D01*
Y108750D01*
Y116750D01*
X1387500D01*
Y108750D01*
D02*
G37*
G36*
X1427750Y99500D02*
X1419452D01*
X1418900Y99728D01*
X1418478Y100150D01*
X1418250Y100702D01*
Y101000D01*
Y101298D01*
X1418478Y101850D01*
X1418900Y102272D01*
X1419452Y102500D01*
X1427750D01*
Y99500D01*
D02*
G37*
G36*
X1379100Y102272D02*
X1379522Y101850D01*
X1379750Y101298D01*
Y101000D01*
Y100702D01*
X1379522Y100150D01*
X1379100Y99728D01*
X1378548Y99500D01*
X1370250D01*
Y102500D01*
X1378548D01*
X1379100Y102272D01*
D02*
G37*
G36*
X1427750Y93000D02*
X1419750Y93000D01*
X1419452D01*
X1418900Y93228D01*
X1418478Y93650D01*
X1418250Y94202D01*
Y94500D01*
Y94798D01*
X1418478Y95350D01*
X1418900Y95772D01*
X1419452Y96000D01*
X1427750D01*
Y93000D01*
D02*
G37*
G36*
X1379100Y95772D02*
X1379522Y95350D01*
X1379750Y94798D01*
Y94500D01*
Y94202D01*
X1379522Y93650D01*
X1379100Y93228D01*
X1378548Y93000D01*
X1378250D01*
Y93000D01*
X1370250D01*
Y96000D01*
X1378548D01*
X1379100Y95772D01*
D02*
G37*
G36*
X1427750Y86500D02*
X1419452D01*
X1418900Y86728D01*
X1418478Y87150D01*
X1418250Y87702D01*
Y88000D01*
Y88298D01*
X1418478Y88850D01*
X1418900Y89272D01*
X1419452Y89500D01*
X1427750D01*
Y86500D01*
D02*
G37*
G36*
X1379100Y89272D02*
X1379522Y88850D01*
X1379750Y88298D01*
Y88000D01*
Y87702D01*
X1379522Y87150D01*
X1379100Y86728D01*
X1378548Y86500D01*
X1370250D01*
Y89500D01*
X1378548D01*
X1379100Y89272D01*
D02*
G37*
G36*
X1427750Y80000D02*
X1419452D01*
X1418900Y80228D01*
X1418478Y80650D01*
X1418250Y81202D01*
Y81500D01*
Y81798D01*
X1418478Y82350D01*
X1418900Y82772D01*
X1419452Y83000D01*
X1419750D01*
Y83000D01*
X1427750D01*
Y80000D01*
D02*
G37*
G36*
X1378250Y83000D02*
X1378548D01*
X1379100Y82772D01*
X1379522Y82350D01*
X1379750Y81798D01*
Y81500D01*
Y81202D01*
X1379522Y80650D01*
X1379100Y80228D01*
X1378548Y80000D01*
X1370250D01*
Y83000D01*
X1378250Y83000D01*
D02*
G37*
G36*
X1427750Y73500D02*
X1419452D01*
X1418900Y73728D01*
X1418478Y74150D01*
X1418250Y74702D01*
Y75000D01*
Y75298D01*
X1418478Y75850D01*
X1418900Y76272D01*
X1419452Y76500D01*
X1427750D01*
Y73500D01*
D02*
G37*
G36*
X1379100Y76272D02*
X1379522Y75850D01*
X1379750Y75298D01*
Y75000D01*
Y74702D01*
X1379522Y74150D01*
X1379100Y73728D01*
X1378548Y73500D01*
X1370250D01*
Y76500D01*
X1378548D01*
X1379100Y76272D01*
D02*
G37*
G36*
X1412850Y68522D02*
X1413272Y68100D01*
X1413500Y67548D01*
Y67250D01*
Y59250D01*
X1410500D01*
Y67250D01*
Y67548D01*
X1410728Y68100D01*
X1411150Y68522D01*
X1411702Y68750D01*
X1412298D01*
X1412850Y68522D01*
D02*
G37*
G36*
X1406350D02*
X1406772Y68100D01*
X1407000Y67548D01*
Y67250D01*
Y59250D01*
X1404000D01*
X1404000Y67250D01*
Y67548D01*
X1404228Y68100D01*
X1404650Y68522D01*
X1405202Y68750D01*
X1405798D01*
X1406350Y68522D01*
D02*
G37*
G36*
X1399850D02*
X1400272Y68100D01*
X1400500Y67548D01*
Y67250D01*
Y59250D01*
X1397500D01*
Y67250D01*
Y67548D01*
X1397728Y68100D01*
X1398150Y68522D01*
X1398702Y68750D01*
X1399298D01*
X1399850Y68522D01*
D02*
G37*
G36*
X1393350D02*
X1393772Y68100D01*
X1394000Y67548D01*
Y67250D01*
X1394000D01*
Y59250D01*
X1391000D01*
Y67250D01*
Y67548D01*
X1391228Y68100D01*
X1391650Y68522D01*
X1392202Y68750D01*
X1392798D01*
X1393350Y68522D01*
D02*
G37*
G36*
X1386850D02*
X1387272Y68100D01*
X1387500Y67548D01*
Y67250D01*
Y59250D01*
X1384500D01*
Y67250D01*
Y67548D01*
X1384728Y68100D01*
X1385150Y68522D01*
X1385702Y68750D01*
X1386298D01*
X1386850Y68522D01*
D02*
G37*
G36*
X1426927Y346750D02*
Y346452D01*
X1426699Y345900D01*
X1426277Y345478D01*
X1425726Y345250D01*
X1425129D01*
X1424578Y345478D01*
X1424156Y345900D01*
X1423927Y346452D01*
Y346750D01*
Y354750D01*
X1426927D01*
Y346750D01*
D02*
G37*
G36*
X1420427D02*
Y346452D01*
X1420199Y345900D01*
X1419777Y345478D01*
X1419226Y345250D01*
X1418629D01*
X1418078Y345478D01*
X1417656Y345900D01*
X1417427Y346452D01*
Y346750D01*
X1417427D01*
Y354750D01*
X1420427D01*
Y346750D01*
D02*
G37*
G36*
X1413927D02*
Y346452D01*
X1413699Y345900D01*
X1413277Y345478D01*
X1412726Y345250D01*
X1412129D01*
X1411578Y345478D01*
X1411156Y345900D01*
X1410927Y346452D01*
Y346750D01*
Y354750D01*
X1413927D01*
Y346750D01*
D02*
G37*
G36*
X1407427D02*
Y346452D01*
X1407199Y345900D01*
X1406777Y345478D01*
X1406226Y345250D01*
X1405629D01*
X1405078Y345478D01*
X1404656Y345900D01*
X1404427Y346452D01*
Y346750D01*
Y354750D01*
X1407427D01*
X1407427Y346750D01*
D02*
G37*
G36*
X1400927D02*
Y346452D01*
X1400699Y345900D01*
X1400277Y345478D01*
X1399726Y345250D01*
X1399129D01*
X1398578Y345478D01*
X1398156Y345900D01*
X1397927Y346452D01*
Y346750D01*
Y354750D01*
X1400927D01*
Y346750D01*
D02*
G37*
G36*
X1441177Y337500D02*
X1432879D01*
X1432328Y337728D01*
X1431906Y338150D01*
X1431677Y338702D01*
Y339000D01*
Y339298D01*
X1431906Y339850D01*
X1432328Y340272D01*
X1432879Y340500D01*
X1441177D01*
Y337500D01*
D02*
G37*
G36*
X1392527Y340272D02*
X1392949Y339850D01*
X1393177Y339298D01*
Y339000D01*
Y338702D01*
X1392949Y338150D01*
X1392527Y337728D01*
X1391976Y337500D01*
X1383677D01*
Y340500D01*
X1391976D01*
X1392527Y340272D01*
D02*
G37*
G36*
X1441177Y331000D02*
X1433177Y331000D01*
X1432879D01*
X1432328Y331228D01*
X1431906Y331650D01*
X1431677Y332202D01*
Y332500D01*
Y332798D01*
X1431906Y333350D01*
X1432328Y333772D01*
X1432879Y334000D01*
X1441177D01*
Y331000D01*
D02*
G37*
G36*
X1392527Y333772D02*
X1392949Y333350D01*
X1393177Y332798D01*
Y332500D01*
Y332202D01*
X1392949Y331650D01*
X1392527Y331228D01*
X1391976Y331000D01*
X1391677D01*
Y331000D01*
X1383677D01*
Y334000D01*
X1391976D01*
X1392527Y333772D01*
D02*
G37*
G36*
X1441177Y324500D02*
X1432879D01*
X1432328Y324728D01*
X1431906Y325150D01*
X1431677Y325702D01*
Y326000D01*
Y326298D01*
X1431906Y326850D01*
X1432328Y327272D01*
X1432879Y327500D01*
X1441177D01*
Y324500D01*
D02*
G37*
G36*
X1392527Y327272D02*
X1392949Y326850D01*
X1393177Y326298D01*
Y326000D01*
Y325702D01*
X1392949Y325150D01*
X1392527Y324728D01*
X1391976Y324500D01*
X1383677D01*
Y327500D01*
X1391976D01*
X1392527Y327272D01*
D02*
G37*
G36*
X1441177Y318000D02*
X1432879D01*
X1432328Y318228D01*
X1431906Y318650D01*
X1431677Y319202D01*
Y319500D01*
Y319798D01*
X1431906Y320350D01*
X1432328Y320772D01*
X1432879Y321000D01*
X1433177D01*
Y321000D01*
X1441177D01*
Y318000D01*
D02*
G37*
G36*
X1391677Y321000D02*
X1391976D01*
X1392527Y320772D01*
X1392949Y320350D01*
X1393177Y319798D01*
Y319500D01*
Y319202D01*
X1392949Y318650D01*
X1392527Y318228D01*
X1391976Y318000D01*
X1383677D01*
Y321000D01*
X1391677Y321000D01*
D02*
G37*
G36*
X1441177Y311500D02*
X1432879D01*
X1432328Y311728D01*
X1431906Y312150D01*
X1431677Y312702D01*
Y313000D01*
Y313298D01*
X1431906Y313850D01*
X1432328Y314272D01*
X1432879Y314500D01*
X1441177D01*
Y311500D01*
D02*
G37*
G36*
X1392527Y314272D02*
X1392949Y313850D01*
X1393177Y313298D01*
Y313000D01*
Y312702D01*
X1392949Y312150D01*
X1392527Y311728D01*
X1391976Y311500D01*
X1383677D01*
Y314500D01*
X1391976D01*
X1392527Y314272D01*
D02*
G37*
G36*
X1426277Y306522D02*
X1426699Y306100D01*
X1426927Y305548D01*
Y305250D01*
Y297250D01*
X1423927D01*
Y305250D01*
Y305548D01*
X1424156Y306100D01*
X1424578Y306522D01*
X1425129Y306750D01*
X1425726D01*
X1426277Y306522D01*
D02*
G37*
G36*
X1419777D02*
X1420199Y306100D01*
X1420427Y305548D01*
Y305250D01*
Y297250D01*
X1417427D01*
X1417427Y305250D01*
Y305548D01*
X1417656Y306100D01*
X1418078Y306522D01*
X1418629Y306750D01*
X1419226D01*
X1419777Y306522D01*
D02*
G37*
G36*
X1413277D02*
X1413699Y306100D01*
X1413927Y305548D01*
Y305250D01*
Y297250D01*
X1410927D01*
Y305250D01*
Y305548D01*
X1411156Y306100D01*
X1411578Y306522D01*
X1412129Y306750D01*
X1412726D01*
X1413277Y306522D01*
D02*
G37*
G36*
X1406777D02*
X1407199Y306100D01*
X1407427Y305548D01*
Y305250D01*
X1407427D01*
Y297250D01*
X1404427D01*
Y305250D01*
Y305548D01*
X1404656Y306100D01*
X1405078Y306522D01*
X1405629Y306750D01*
X1406226D01*
X1406777Y306522D01*
D02*
G37*
G36*
X1400277D02*
X1400699Y306100D01*
X1400927Y305548D01*
Y305250D01*
Y297250D01*
X1397927D01*
Y305250D01*
Y305548D01*
X1398156Y306100D01*
X1398578Y306522D01*
X1399129Y306750D01*
X1399726D01*
X1400277Y306522D01*
D02*
G37*
G36*
X1651927Y108750D02*
Y108452D01*
X1651699Y107900D01*
X1651277Y107478D01*
X1650726Y107250D01*
X1650129D01*
X1649578Y107478D01*
X1649156Y107900D01*
X1648927Y108452D01*
Y108750D01*
Y116750D01*
X1651927D01*
Y108750D01*
D02*
G37*
G36*
X1645427D02*
Y108452D01*
X1645199Y107900D01*
X1644777Y107478D01*
X1644226Y107250D01*
X1643629D01*
X1643078Y107478D01*
X1642656Y107900D01*
X1642427Y108452D01*
Y108750D01*
X1642427D01*
Y116750D01*
X1645427D01*
Y108750D01*
D02*
G37*
G36*
X1638927D02*
Y108452D01*
X1638699Y107900D01*
X1638277Y107478D01*
X1637726Y107250D01*
X1637129D01*
X1636578Y107478D01*
X1636156Y107900D01*
X1635927Y108452D01*
Y108750D01*
Y116750D01*
X1638927D01*
Y108750D01*
D02*
G37*
G36*
X1632427D02*
Y108452D01*
X1632199Y107900D01*
X1631777Y107478D01*
X1631226Y107250D01*
X1630629D01*
X1630078Y107478D01*
X1629656Y107900D01*
X1629427Y108452D01*
Y108750D01*
Y116750D01*
X1632427D01*
X1632427Y108750D01*
D02*
G37*
G36*
X1625927D02*
Y108452D01*
X1625699Y107900D01*
X1625277Y107478D01*
X1624726Y107250D01*
X1624129D01*
X1623578Y107478D01*
X1623156Y107900D01*
X1622927Y108452D01*
Y108750D01*
Y116750D01*
X1625927D01*
Y108750D01*
D02*
G37*
G36*
X1666177Y99500D02*
X1657879D01*
X1657328Y99728D01*
X1656906Y100150D01*
X1656677Y100702D01*
Y101000D01*
Y101298D01*
X1656906Y101850D01*
X1657328Y102272D01*
X1657879Y102500D01*
X1666177D01*
Y99500D01*
D02*
G37*
G36*
X1617527Y102272D02*
X1617949Y101850D01*
X1618177Y101298D01*
Y101000D01*
Y100702D01*
X1617949Y100150D01*
X1617527Y99728D01*
X1616976Y99500D01*
X1608677D01*
Y102500D01*
X1616976D01*
X1617527Y102272D01*
D02*
G37*
G36*
X1666177Y93000D02*
X1658177Y93000D01*
X1657879D01*
X1657328Y93228D01*
X1656906Y93650D01*
X1656677Y94202D01*
Y94500D01*
Y94798D01*
X1656906Y95350D01*
X1657328Y95772D01*
X1657879Y96000D01*
X1666177D01*
Y93000D01*
D02*
G37*
G36*
X1617527Y95772D02*
X1617949Y95350D01*
X1618177Y94798D01*
Y94500D01*
Y94202D01*
X1617949Y93650D01*
X1617527Y93228D01*
X1616976Y93000D01*
X1616677D01*
Y93000D01*
X1608677D01*
Y96000D01*
X1616976D01*
X1617527Y95772D01*
D02*
G37*
G36*
X1666177Y86500D02*
X1657879D01*
X1657328Y86728D01*
X1656906Y87150D01*
X1656677Y87702D01*
Y88000D01*
Y88298D01*
X1656906Y88850D01*
X1657328Y89272D01*
X1657879Y89500D01*
X1666177D01*
Y86500D01*
D02*
G37*
G36*
X1617527Y89272D02*
X1617949Y88850D01*
X1618177Y88298D01*
Y88000D01*
Y87702D01*
X1617949Y87150D01*
X1617527Y86728D01*
X1616976Y86500D01*
X1608677D01*
Y89500D01*
X1616976D01*
X1617527Y89272D01*
D02*
G37*
G36*
X1666177Y80000D02*
X1657879D01*
X1657328Y80228D01*
X1656906Y80650D01*
X1656677Y81202D01*
Y81500D01*
Y81798D01*
X1656906Y82350D01*
X1657328Y82772D01*
X1657879Y83000D01*
X1658177D01*
Y83000D01*
X1666177D01*
Y80000D01*
D02*
G37*
G36*
X1616677Y83000D02*
X1616976D01*
X1617527Y82772D01*
X1617949Y82350D01*
X1618177Y81798D01*
Y81500D01*
Y81202D01*
X1617949Y80650D01*
X1617527Y80228D01*
X1616976Y80000D01*
X1608677D01*
Y83000D01*
X1616677Y83000D01*
D02*
G37*
G36*
X1666177Y73500D02*
X1657879D01*
X1657328Y73728D01*
X1656906Y74150D01*
X1656677Y74702D01*
Y75000D01*
Y75298D01*
X1656906Y75850D01*
X1657328Y76272D01*
X1657879Y76500D01*
X1666177D01*
Y73500D01*
D02*
G37*
G36*
X1617527Y76272D02*
X1617949Y75850D01*
X1618177Y75298D01*
Y75000D01*
Y74702D01*
X1617949Y74150D01*
X1617527Y73728D01*
X1616976Y73500D01*
X1608677D01*
Y76500D01*
X1616976D01*
X1617527Y76272D01*
D02*
G37*
G36*
X1651277Y68522D02*
X1651699Y68100D01*
X1651927Y67548D01*
Y67250D01*
Y59250D01*
X1648927D01*
Y67250D01*
Y67548D01*
X1649156Y68100D01*
X1649578Y68522D01*
X1650129Y68750D01*
X1650726D01*
X1651277Y68522D01*
D02*
G37*
G36*
X1644777D02*
X1645199Y68100D01*
X1645427Y67548D01*
Y67250D01*
Y59250D01*
X1642427D01*
X1642427Y67250D01*
Y67548D01*
X1642656Y68100D01*
X1643078Y68522D01*
X1643629Y68750D01*
X1644226D01*
X1644777Y68522D01*
D02*
G37*
G36*
X1638277D02*
X1638699Y68100D01*
X1638927Y67548D01*
Y67250D01*
Y59250D01*
X1635927D01*
Y67250D01*
Y67548D01*
X1636156Y68100D01*
X1636578Y68522D01*
X1637129Y68750D01*
X1637726D01*
X1638277Y68522D01*
D02*
G37*
G36*
X1631777D02*
X1632199Y68100D01*
X1632427Y67548D01*
Y67250D01*
X1632427D01*
Y59250D01*
X1629427D01*
Y67250D01*
Y67548D01*
X1629656Y68100D01*
X1630078Y68522D01*
X1630629Y68750D01*
X1631226D01*
X1631777Y68522D01*
D02*
G37*
G36*
X1625277D02*
X1625699Y68100D01*
X1625927Y67548D01*
Y67250D01*
Y59250D01*
X1622927D01*
Y67250D01*
Y67548D01*
X1623156Y68100D01*
X1623578Y68522D01*
X1624129Y68750D01*
X1624726D01*
X1625277Y68522D01*
D02*
G37*
G36*
X1654500Y346750D02*
Y346452D01*
X1654272Y345900D01*
X1653850Y345478D01*
X1653298Y345250D01*
X1652702D01*
X1652150Y345478D01*
X1651728Y345900D01*
X1651500Y346452D01*
Y346750D01*
Y354750D01*
X1654500D01*
Y346750D01*
D02*
G37*
G36*
X1648000D02*
Y346452D01*
X1647772Y345900D01*
X1647350Y345478D01*
X1646798Y345250D01*
X1646202D01*
X1645650Y345478D01*
X1645228Y345900D01*
X1645000Y346452D01*
Y346750D01*
X1645000D01*
Y354750D01*
X1648000D01*
Y346750D01*
D02*
G37*
G36*
X1641500D02*
Y346452D01*
X1641272Y345900D01*
X1640850Y345478D01*
X1640298Y345250D01*
X1639702D01*
X1639150Y345478D01*
X1638728Y345900D01*
X1638500Y346452D01*
Y346750D01*
Y354750D01*
X1641500D01*
Y346750D01*
D02*
G37*
G36*
X1635000D02*
Y346452D01*
X1634772Y345900D01*
X1634350Y345478D01*
X1633798Y345250D01*
X1633202D01*
X1632650Y345478D01*
X1632228Y345900D01*
X1632000Y346452D01*
Y346750D01*
Y354750D01*
X1635000D01*
X1635000Y346750D01*
D02*
G37*
G36*
X1628500D02*
Y346452D01*
X1628272Y345900D01*
X1627850Y345478D01*
X1627298Y345250D01*
X1626702D01*
X1626150Y345478D01*
X1625728Y345900D01*
X1625500Y346452D01*
Y346750D01*
Y354750D01*
X1628500D01*
Y346750D01*
D02*
G37*
G36*
X1668750Y337500D02*
X1660452D01*
X1659900Y337728D01*
X1659478Y338150D01*
X1659250Y338702D01*
Y339000D01*
Y339298D01*
X1659478Y339850D01*
X1659900Y340272D01*
X1660452Y340500D01*
X1668750D01*
Y337500D01*
D02*
G37*
G36*
X1620100Y340272D02*
X1620522Y339850D01*
X1620750Y339298D01*
Y339000D01*
Y338702D01*
X1620522Y338150D01*
X1620100Y337728D01*
X1619548Y337500D01*
X1611250D01*
Y340500D01*
X1619548D01*
X1620100Y340272D01*
D02*
G37*
G36*
X1668750Y331000D02*
X1660750Y331000D01*
X1660452D01*
X1659900Y331228D01*
X1659478Y331650D01*
X1659250Y332202D01*
Y332500D01*
Y332798D01*
X1659478Y333350D01*
X1659900Y333772D01*
X1660452Y334000D01*
X1668750D01*
Y331000D01*
D02*
G37*
G36*
X1620100Y333772D02*
X1620522Y333350D01*
X1620750Y332798D01*
Y332500D01*
Y332202D01*
X1620522Y331650D01*
X1620100Y331228D01*
X1619548Y331000D01*
X1619250D01*
Y331000D01*
X1611250D01*
Y334000D01*
X1619548D01*
X1620100Y333772D01*
D02*
G37*
G36*
X1668750Y324500D02*
X1660452D01*
X1659900Y324728D01*
X1659478Y325150D01*
X1659250Y325702D01*
Y326000D01*
Y326298D01*
X1659478Y326850D01*
X1659900Y327272D01*
X1660452Y327500D01*
X1668750D01*
Y324500D01*
D02*
G37*
G36*
X1620100Y327272D02*
X1620522Y326850D01*
X1620750Y326298D01*
Y326000D01*
Y325702D01*
X1620522Y325150D01*
X1620100Y324728D01*
X1619548Y324500D01*
X1611250D01*
Y327500D01*
X1619548D01*
X1620100Y327272D01*
D02*
G37*
G36*
X1668750Y318000D02*
X1660452D01*
X1659900Y318228D01*
X1659478Y318650D01*
X1659250Y319202D01*
Y319500D01*
Y319798D01*
X1659478Y320350D01*
X1659900Y320772D01*
X1660452Y321000D01*
X1660750D01*
Y321000D01*
X1668750D01*
Y318000D01*
D02*
G37*
G36*
X1619250Y321000D02*
X1619548D01*
X1620100Y320772D01*
X1620522Y320350D01*
X1620750Y319798D01*
Y319500D01*
Y319202D01*
X1620522Y318650D01*
X1620100Y318228D01*
X1619548Y318000D01*
X1611250D01*
Y321000D01*
X1619250Y321000D01*
D02*
G37*
G36*
X1668750Y311500D02*
X1660452D01*
X1659900Y311728D01*
X1659478Y312150D01*
X1659250Y312702D01*
Y313000D01*
Y313298D01*
X1659478Y313850D01*
X1659900Y314272D01*
X1660452Y314500D01*
X1668750D01*
Y311500D01*
D02*
G37*
G36*
X1620100Y314272D02*
X1620522Y313850D01*
X1620750Y313298D01*
Y313000D01*
Y312702D01*
X1620522Y312150D01*
X1620100Y311728D01*
X1619548Y311500D01*
X1611250D01*
Y314500D01*
X1619548D01*
X1620100Y314272D01*
D02*
G37*
G36*
X1653850Y306522D02*
X1654272Y306100D01*
X1654500Y305548D01*
Y305250D01*
Y297250D01*
X1651500D01*
Y305250D01*
Y305548D01*
X1651728Y306100D01*
X1652150Y306522D01*
X1652702Y306750D01*
X1653298D01*
X1653850Y306522D01*
D02*
G37*
G36*
X1647350D02*
X1647772Y306100D01*
X1648000Y305548D01*
Y305250D01*
Y297250D01*
X1645000D01*
X1645000Y305250D01*
Y305548D01*
X1645228Y306100D01*
X1645650Y306522D01*
X1646202Y306750D01*
X1646798D01*
X1647350Y306522D01*
D02*
G37*
G36*
X1640850D02*
X1641272Y306100D01*
X1641500Y305548D01*
Y305250D01*
Y297250D01*
X1638500D01*
Y305250D01*
Y305548D01*
X1638728Y306100D01*
X1639150Y306522D01*
X1639702Y306750D01*
X1640298D01*
X1640850Y306522D01*
D02*
G37*
G36*
X1634350D02*
X1634772Y306100D01*
X1635000Y305548D01*
Y305250D01*
X1635000D01*
Y297250D01*
X1632000D01*
Y305250D01*
Y305548D01*
X1632228Y306100D01*
X1632650Y306522D01*
X1633202Y306750D01*
X1633798D01*
X1634350Y306522D01*
D02*
G37*
G36*
X1627850D02*
X1628272Y306100D01*
X1628500Y305548D01*
Y305250D01*
Y297250D01*
X1625500D01*
Y305250D01*
Y305548D01*
X1625728Y306100D01*
X1626150Y306522D01*
X1626702Y306750D01*
X1627298D01*
X1627850Y306522D01*
D02*
G37*
D16*
X1648000Y318000D02*
D03*
X1632000D02*
D03*
X1648000Y334000D02*
D03*
X1632000D02*
D03*
X1407000Y80000D02*
D03*
X1391000D02*
D03*
X1407000Y96000D02*
D03*
X1391000D02*
D03*
X1645427Y80000D02*
D03*
X1629427D02*
D03*
X1645427Y96000D02*
D03*
X1629427D02*
D03*
X1420427Y318000D02*
D03*
X1404427D02*
D03*
X1420427Y334000D02*
D03*
X1404427D02*
D03*
D17*
X1588598Y103000D02*
D03*
Y73000D02*
D03*
X773585Y152500D02*
D03*
X773585Y122500D02*
D03*
X1475000Y777500D02*
D03*
X851196Y237500D02*
D03*
X1475000Y747500D02*
D03*
X1677907Y724520D02*
D03*
X1681353Y636220D02*
D03*
X1440836Y883725D02*
D03*
X1715000Y312114D02*
D03*
X1598000Y1037500D02*
D03*
X1711427Y73000D02*
D03*
X1557500Y390000D02*
D03*
X1456427Y391000D02*
D03*
X1589000Y260250D02*
D03*
X1472000Y73670D02*
D03*
X1372316Y734920D02*
D03*
X1346066Y735000D02*
D03*
X1422038Y484963D02*
D03*
X1219038Y474088D02*
D03*
X1362428Y311348D02*
D03*
X1348000Y73991D02*
D03*
X851195Y267500D02*
D03*
X888680Y217068D02*
D03*
X888680Y187068D02*
D03*
X1598000Y1007500D02*
D03*
X1615000Y980000D02*
D03*
Y950000D02*
D03*
X1021647Y159740D02*
D03*
X1021647Y189739D02*
D03*
X740000Y165000D02*
D03*
Y195000D02*
D03*
X592500Y392500D02*
D03*
Y362500D02*
D03*
X1681353Y666220D02*
D03*
X1472000Y103670D02*
D03*
X1348000Y103991D02*
D03*
X1711427Y103000D02*
D03*
X1557500Y360000D02*
D03*
X1456427Y361000D02*
D03*
X1589000Y290250D02*
D03*
X1362427Y341348D02*
D03*
X1589000Y341598D02*
D03*
Y311598D02*
D03*
X1715000Y342114D02*
D03*
X1562000Y341250D02*
D03*
Y311250D02*
D03*
X862500Y217800D02*
D03*
X862500Y187800D02*
D03*
X1397646Y764920D02*
D03*
X1397646Y734920D02*
D03*
X1502500Y747500D02*
D03*
X1502500Y777500D02*
D03*
X1667197Y793620D02*
D03*
X1667197Y823620D02*
D03*
X1439031Y816418D02*
D03*
X1439032Y786418D02*
D03*
X1677907Y694520D02*
D03*
X1440836Y853725D02*
D03*
X1346066Y765000D02*
D03*
X1372316Y764920D02*
D03*
X1229910Y976858D02*
D03*
X1229910Y946858D02*
D03*
X1254278Y946858D02*
D03*
Y976858D02*
D03*
X1281595Y946798D02*
D03*
X1281594Y976798D02*
D03*
X1422038Y514962D02*
D03*
X1219038Y504088D02*
D03*
X1255000Y582588D02*
D03*
X1255000Y552588D02*
D03*
D18*
X912891Y210639D02*
D03*
X935691D02*
D03*
X912891Y187639D02*
D03*
X935691D02*
D03*
X997647Y210543D02*
D03*
X974847D02*
D03*
X997647Y186659D02*
D03*
X974847D02*
D03*
D19*
X1977026Y170500D02*
D03*
X1939526Y248000D02*
D03*
X1968221Y345380D02*
D03*
X1949526Y419959D02*
D03*
D20*
X1960572Y161000D02*
D03*
X1923072Y238500D02*
D03*
X1951767Y335880D02*
D03*
X1933072Y410459D02*
D03*
D21*
X1918000Y175474D02*
D03*
X1980500Y207974D02*
D03*
X1925500Y355474D02*
D03*
X1985500Y377974D02*
D03*
D22*
X1908500Y191928D02*
D03*
X1971000Y224428D02*
D03*
X1916000Y371928D02*
D03*
X1976000Y394428D02*
D03*
D23*
X1242500Y487997D02*
D03*
X1286000Y492025D02*
D03*
X1310000Y503028D02*
D03*
X1265000D02*
D03*
X1331000Y491760D02*
D03*
X1375884Y491697D02*
D03*
X1397884Y502702D02*
D03*
X1355000Y503028D02*
D03*
X305003Y780006D02*
D03*
D24*
X1242500Y508003D02*
D03*
X1286000Y512031D02*
D03*
X305003Y760000D02*
D03*
X1265000Y483022D02*
D03*
X1397884Y482697D02*
D03*
X1355000Y483022D02*
D03*
X1310000Y483023D02*
D03*
X1375884Y511703D02*
D03*
X1331000Y511766D02*
D03*
D25*
X1390045Y937678D02*
D03*
X1377344Y937678D02*
D03*
X1364644Y937678D02*
D03*
X1351944Y937678D02*
D03*
X1326544Y937678D02*
D03*
X1313844Y937678D02*
D03*
X1301145Y937678D02*
D03*
Y991918D02*
D03*
X1313844Y991918D02*
D03*
X1326545Y991918D02*
D03*
X1351944Y991918D02*
D03*
X1364644Y991918D02*
D03*
X1377345Y991918D02*
D03*
X1339245Y937678D02*
D03*
Y991918D02*
D03*
X1369186Y850290D02*
D03*
X1393067Y639208D02*
D03*
X1369186Y796050D02*
D03*
X1356486Y850290D02*
D03*
X1393066Y584968D02*
D03*
X1356486Y796050D02*
D03*
X1394586Y850290D02*
D03*
X1381886Y850290D02*
D03*
X1343786Y850290D02*
D03*
X1331086Y850290D02*
D03*
X1318386Y850290D02*
D03*
Y796050D02*
D03*
X1331086Y796050D02*
D03*
X1343786Y796050D02*
D03*
X1381886Y796050D02*
D03*
X1394586Y796050D02*
D03*
X1407286Y796050D02*
D03*
X1431166Y584968D02*
D03*
X1418466D02*
D03*
X1405766Y584968D02*
D03*
Y639208D02*
D03*
X1418466Y639208D02*
D03*
D26*
X1390045Y991918D02*
D03*
X1407286Y850290D02*
D03*
X1431167Y639208D02*
D03*
D27*
X1564467Y1007500D02*
D03*
X1322500Y537500D02*
D03*
X827500Y230000D02*
D03*
X1077500Y187500D02*
D03*
X1299116Y667088D02*
D03*
X1269117Y667088D02*
D03*
X1352500Y537500D02*
D03*
X1270000Y530000D02*
D03*
X1240000Y530000D02*
D03*
X1534467Y1007500D02*
D03*
X1525480Y777500D02*
D03*
X1555480Y777500D02*
D03*
X1643197Y821620D02*
D03*
X1722500Y800000D02*
D03*
X1281136Y1016220D02*
D03*
X1412836Y879965D02*
D03*
X930000Y755000D02*
D03*
X900000Y810000D02*
D03*
X930000Y730000D02*
D03*
X1358000Y564589D02*
D03*
X930000Y586000D02*
D03*
X1752500Y800000D02*
D03*
X861272Y162172D02*
D03*
X891272Y162172D02*
D03*
X1583197Y940498D02*
D03*
X1553197D02*
D03*
X900000Y586000D02*
D03*
X652172Y450000D02*
D03*
X1613197Y821620D02*
D03*
X1348116Y693089D02*
D03*
X900000Y755000D02*
D03*
X930000Y810000D02*
D03*
X900000Y730000D02*
D03*
Y835000D02*
D03*
X930000D02*
D03*
X622173Y450000D02*
D03*
X1347866Y667088D02*
D03*
X1317866Y667088D02*
D03*
X1511866Y919220D02*
D03*
X1481866Y919220D02*
D03*
X797500Y230000D02*
D03*
X1311136Y1016220D02*
D03*
X1613197Y786620D02*
D03*
X1643197Y786620D02*
D03*
X1595197Y809620D02*
D03*
X1565197Y809620D02*
D03*
X1382836Y879965D02*
D03*
X1334905Y876965D02*
D03*
X1364905Y876965D02*
D03*
X1412917Y663066D02*
D03*
X1442916Y663066D02*
D03*
X1358000Y589343D02*
D03*
X1328000Y589343D02*
D03*
X1318116Y693089D02*
D03*
X1328000Y564589D02*
D03*
X1297500Y693089D02*
D03*
X1267500Y693089D02*
D03*
X1047500Y187500D02*
D03*
D28*
X1556000Y975000D02*
D03*
X1302116Y558088D02*
D03*
X942647Y138274D02*
D03*
X1556000Y965500D02*
D03*
X968647Y128774D02*
D03*
X942647D02*
D03*
Y147774D02*
D03*
X968647D02*
D03*
X1582000Y984500D02*
D03*
X1276116Y548588D02*
D03*
X1582000Y965500D02*
D03*
X1556000Y984500D02*
D03*
X1276116Y567588D02*
D03*
X1302116Y567588D02*
D03*
X1302116Y548588D02*
D03*
D29*
X1469746Y943748D02*
D03*
X1469746Y799120D02*
D03*
X822740Y208200D02*
D03*
X1706957Y728020D02*
D03*
X1705537Y650170D02*
D03*
X1655317Y854270D02*
D03*
X1169120Y941185D02*
D03*
X1114880Y737550D02*
D03*
X1082865Y877685D02*
D03*
Y839585D02*
D03*
Y826885D02*
D03*
X1469746Y969148D02*
D03*
Y956448D02*
D03*
X1523986Y943748D02*
D03*
X1523986Y956448D02*
D03*
X1523986Y981848D02*
D03*
X1523986Y969148D02*
D03*
X768500Y182800D02*
D03*
X768500Y195500D02*
D03*
X768500Y208200D02*
D03*
X822740Y195500D02*
D03*
Y182800D02*
D03*
X768500Y170100D02*
D03*
X1601077Y854270D02*
D03*
X1114880Y864985D02*
D03*
X1114880Y852285D02*
D03*
X1082865Y852285D02*
D03*
X1169120Y826450D02*
D03*
X1028625Y788785D02*
D03*
X1028625Y852285D02*
D03*
X1028625Y814185D02*
D03*
X1761197Y753420D02*
D03*
X1705537Y675570D02*
D03*
X1523986Y824520D02*
D03*
X1705537Y662870D02*
D03*
X1759776Y650170D02*
D03*
X1759777Y662870D02*
D03*
Y675570D02*
D03*
X1759777Y688270D02*
D03*
X1761197Y766120D02*
D03*
X1761197Y740720D02*
D03*
X1761197Y728020D02*
D03*
X1706957Y740720D02*
D03*
Y753420D02*
D03*
X1469746Y824520D02*
D03*
Y811820D02*
D03*
X1523986Y799120D02*
D03*
X1523986Y811820D02*
D03*
X1523986Y837220D02*
D03*
X1655317Y879670D02*
D03*
X1655317Y866970D02*
D03*
X1655317Y841570D02*
D03*
X1601077Y841570D02*
D03*
X1601077Y866970D02*
D03*
X1169120Y864985D02*
D03*
X1169120Y877685D02*
D03*
X1169120Y890385D02*
D03*
X1169120Y903085D02*
D03*
X1169120Y915785D02*
D03*
X1169120Y928485D02*
D03*
X1114880Y941185D02*
D03*
X1114880Y928485D02*
D03*
X1114880Y915785D02*
D03*
X1114880Y903085D02*
D03*
X1114880Y890385D02*
D03*
X1114880Y877685D02*
D03*
X1114880Y813750D02*
D03*
Y801050D02*
D03*
X1114880Y788350D02*
D03*
Y775650D02*
D03*
X1114880Y750250D02*
D03*
X1169120Y737550D02*
D03*
X1169120Y750250D02*
D03*
X1169120Y762950D02*
D03*
X1169120Y775650D02*
D03*
X1169120Y788350D02*
D03*
X1169120Y801050D02*
D03*
X1169120Y813750D02*
D03*
X1114880Y762950D02*
D03*
X1082865Y801485D02*
D03*
X1082865Y814185D02*
D03*
X1082865Y864985D02*
D03*
X1028625Y877685D02*
D03*
Y839585D02*
D03*
X1028625Y801485D02*
D03*
X1028625Y864985D02*
D03*
X1028625Y826885D02*
D03*
D30*
X1593000Y387000D02*
D03*
X1671825Y920420D02*
D03*
X1606537D02*
D03*
X1686000Y309326D02*
D03*
X1682427Y69750D02*
D03*
X1456427Y309152D02*
D03*
X1443000Y69750D02*
D03*
X1255000Y620000D02*
D03*
X1255000Y600000D02*
D03*
X1443000Y89750D02*
D03*
X1682427Y89750D02*
D03*
X1686000Y329326D02*
D03*
X1593000Y367000D02*
D03*
X1456427Y329152D02*
D03*
X1569197Y861020D02*
D03*
X1569197Y841020D02*
D03*
X1568197Y900420D02*
D03*
X1568197Y880420D02*
D03*
X1671825Y900420D02*
D03*
X1606537D02*
D03*
X1629032Y920420D02*
D03*
X1629032Y900420D02*
D03*
X1650031Y920420D02*
D03*
X1650031Y900420D02*
D03*
X1547197Y861020D02*
D03*
X1547197Y841020D02*
D03*
D31*
X1330000Y362000D02*
D03*
X1719907Y630220D02*
D03*
X1325573Y146000D02*
D03*
X1570000Y125000D02*
D03*
X1550000D02*
D03*
X1345573Y146000D02*
D03*
X1350000Y362000D02*
D03*
X1739907Y630220D02*
D03*
X1421716Y542038D02*
D03*
X1304116Y594348D02*
D03*
X1284116Y594348D02*
D03*
X1421116Y562088D02*
D03*
X1401116Y562088D02*
D03*
X1401716Y542038D02*
D03*
D32*
X1659832Y388360D02*
D03*
X1387997Y171000D02*
D03*
X1626997Y166000D02*
D03*
X1400675Y398000D02*
D03*
D33*
X1639826Y388360D02*
D03*
X1647003Y166000D02*
D03*
X1408003Y171000D02*
D03*
X1420680Y398000D02*
D03*
D34*
X2096000Y661500D02*
D03*
X1959000Y618500D02*
D03*
X1959000Y661500D02*
D03*
X2096000Y618500D02*
D03*
X2096000Y804000D02*
D03*
X1959000Y761000D02*
D03*
Y804000D02*
D03*
X2096000Y761000D02*
D03*
X2096000Y524000D02*
D03*
X1959000Y481000D02*
D03*
X1959000Y524000D02*
D03*
X2096000Y481000D02*
D03*
D35*
X2037500Y589500D02*
D03*
X2037500Y732000D02*
D03*
X2037500Y452000D02*
D03*
D36*
X2060000Y691000D02*
D03*
X2060000Y833500D02*
D03*
X2060000Y553500D02*
D03*
D37*
X1618197Y749020D02*
D03*
X1638197D02*
D03*
X1633197D02*
D03*
X1628197D02*
D03*
X1623197D02*
D03*
X1618197Y704520D02*
D03*
X1623197D02*
D03*
X1628197D02*
D03*
X1633197D02*
D03*
X1638197D02*
D03*
D38*
X1577353Y675320D02*
D03*
X1027000Y686585D02*
D03*
Y568770D02*
D03*
Y737385D02*
D03*
X1518353Y599120D02*
D03*
X1086000Y762785D02*
D03*
Y711985D02*
D03*
Y644970D02*
D03*
X1027000Y724685D02*
D03*
Y711985D02*
D03*
X1086000Y632270D02*
D03*
X1577353Y611820D02*
D03*
X1577353Y624520D02*
D03*
X1577353Y637220D02*
D03*
X1577353Y649920D02*
D03*
Y662620D02*
D03*
X1518353Y675320D02*
D03*
X1518353Y662620D02*
D03*
X1518353Y649920D02*
D03*
Y637220D02*
D03*
Y624520D02*
D03*
X1518353Y611820D02*
D03*
X1027000Y632270D02*
D03*
Y619570D02*
D03*
Y606870D02*
D03*
Y594170D02*
D03*
Y581470D02*
D03*
X1086000Y568770D02*
D03*
Y581470D02*
D03*
Y594170D02*
D03*
Y606870D02*
D03*
Y619570D02*
D03*
X1027000Y750085D02*
D03*
Y699285D02*
D03*
X1086000Y686585D02*
D03*
Y724685D02*
D03*
Y737385D02*
D03*
Y750085D02*
D03*
Y699285D02*
D03*
D39*
X1169120Y852285D02*
D03*
X1469746Y981848D02*
D03*
X822740Y170100D02*
D03*
X1705537Y688270D02*
D03*
X1706957Y766120D02*
D03*
X1469746Y837220D02*
D03*
X1601077Y879670D02*
D03*
X1114880Y826450D02*
D03*
X1082865Y788785D02*
D03*
D40*
X242500Y687000D02*
D03*
X242500Y733000D02*
D03*
X242500Y710000D02*
D03*
D41*
X1284116Y613338D02*
D03*
X1328116Y632838D02*
D03*
X1328116Y613338D02*
D03*
X1284117Y619838D02*
D03*
X1284116Y632838D02*
D03*
X1284116Y626338D02*
D03*
X1328116Y619838D02*
D03*
X1328116Y626338D02*
D03*
D42*
X1119000Y615000D02*
D03*
X1142000Y605500D02*
D03*
X1119000Y596000D02*
D03*
D43*
X901211Y278000D02*
D03*
Y247000D02*
D03*
D44*
X2182500Y24979D02*
D03*
Y100000D02*
D03*
X2102500Y24979D02*
D03*
X2182500Y1125021D02*
D03*
Y1050000D02*
D03*
X2102500Y1125021D02*
D03*
X17500Y1125021D02*
D03*
Y1050000D02*
D03*
X97500Y1125021D02*
D03*
X24979Y17500D02*
D03*
X100000D02*
D03*
X24979Y97500D02*
D03*
D45*
X665500Y375170D02*
D03*
X634500D02*
D03*
D46*
X230000Y458500D02*
D03*
X110000Y458500D02*
D03*
X110000Y566500D02*
D03*
X230000Y566500D02*
D03*
D47*
X1577353Y599120D02*
D03*
X1027000Y644970D02*
D03*
Y762785D02*
D03*
D48*
X302500Y710000D02*
D03*
D49*
X1412427Y355587D02*
D03*
M02*
