%TF.GenerationSoftware,Altium Limited,Altium Designer,25.8.1 (18)*%
G04 Layer_Color=0*
%FSLAX45Y45*%
%MOMM*%
%TF.SameCoordinates,8572D1E1-8A29-45F6-85B8-02B6E87FD275*%
%TF.FilePolarity,Positive*%
%TF.FileFunction,NonPlated,1,2,NPTH,Drill*%
%TF.Part,Single*%
G01*
G75*
%TA.AperFunction,OtherDrill,Pad Free-0 (5mm,16mm)*%
%ADD175C,3.00000*%
%TA.AperFunction,OtherDrill,Pad Free-0 (200mm,110mm)*%
%ADD176C,4.00000*%
%TA.AperFunction,ComponentDrill*%
%ADD177C,0.80000*%
%TA.AperFunction,OtherDrill,Pad Free-0 (17mm,44mm)*%
%ADD178C,2.00000*%
%TA.AperFunction,OtherDrill,Pad Free-0 (95mm,110mm)*%
%ADD179C,3.00000*%
%TA.AperFunction,OtherDrill,Pad Free-0 (95mm,5mm)*%
%ADD180C,3.00000*%
%TA.AperFunction,OtherDrill,Pad Free-0 (5mm,70.5mm)*%
%ADD181C,3.00000*%
%TA.AperFunction,OtherDrill,Pad Free-0 (45mm,5mm)*%
%ADD182C,3.00000*%
%TA.AperFunction,OtherDrill,Pad Free-2 (4.775mm,95.375mm)*%
%ADD183C,1.20000*%
%TA.AperFunction,OtherDrill,Pad Free-2 (4.725mm,89.725mm)*%
%ADD184C,1.20000*%
%TA.AperFunction,ComponentDrill*%
%ADD185C,1.00000*%
%ADD186C,1.80000*%
%ADD187C,8.00000*%
%TA.AperFunction,OtherDrill,Pad Free-0 (110mm,5mm)*%
%ADD188C,3.00000*%
%TA.AperFunction,OtherDrill,Pad Free-2 (48.101mm,39.25mm)*%
%ADD189C,1.20000*%
%TA.AperFunction,OtherDrill,Pad Free-2 (41.75mm,39.25mm)*%
%ADD190C,1.20000*%
%TA.AperFunction,OtherDrill,Pad Free-2 (42.6mm,108.05mm)*%
%ADD191C,1.20000*%
%TA.AperFunction,OtherDrill,Pad Free-2 (48.25mm,108mm)*%
%ADD192C,1.20000*%
%TA.AperFunction,OtherDrill,Pad Free-0 (17mm,58.5mm)*%
%ADD193C,2.00000*%
%TA.AperFunction,OtherDrill,Pad Free-0 (20mm,5mm)*%
%ADD194C,4.00000*%
%TA.AperFunction,OtherDrill,Pad Free-0 (5mm,5mm)*%
%ADD195C,3.00000*%
%TA.AperFunction,OtherDrill,Pad Free-0 (118mm,110mm)*%
%ADD196C,3.00000*%
%TA.AperFunction,OtherDrill,Pad Free-0 (5mm,110mm)*%
%ADD197C,3.00000*%
%TA.AperFunction,OtherDrill,Pad Free-0 (215mm,5mm)*%
%ADD198C,3.00000*%
%TA.AperFunction,OtherDrill,Pad Free-0 (200mm,5mm)*%
%ADD199C,4.00000*%
%TA.AperFunction,OtherDrill,Pad Free-0 (215mm,110mm)*%
%ADD200C,3.00000*%
%TA.AperFunction,OtherDrill,Pad Free-0 (125mm,110mm)*%
%ADD201C,3.00000*%
%TA.AperFunction,OtherDrill,Pad Free-0 (110mm,110mm)*%
%ADD202C,3.00000*%
D175*
X500000Y1600000D02*
D03*
D176*
X20000000Y11000000D02*
D03*
D177*
X15330000Y10470000D02*
D03*
X15130000Y10470000D02*
D03*
X14929999Y10470000D02*
D03*
X14930000Y10670000D02*
D03*
X15130000Y10670000D02*
D03*
X15330000Y10670000D02*
D03*
D178*
X1700000Y4400000D02*
D03*
D179*
X9500000Y11000000D02*
D03*
D180*
Y500000D02*
D03*
D181*
X500000Y7050000D02*
D03*
D182*
X4500000Y500000D02*
D03*
D183*
X477500Y9537500D02*
D03*
D184*
X472500Y8972500D02*
D03*
D185*
X8585000Y3250000D02*
D03*
X8035000Y4100000D02*
D03*
X7315000Y3250000D02*
D03*
X6765000Y4100000D02*
D03*
D186*
X20700000Y2314000D02*
D03*
Y3330000D02*
D03*
Y3838000D02*
D03*
Y1806000D02*
D03*
Y2822000D02*
D03*
D187*
X1250000Y2750000D02*
D03*
X3190000D02*
D03*
X1250000Y9250000D02*
D03*
D188*
X11000000Y500000D02*
D03*
D189*
X4810066Y3925000D02*
D03*
D190*
X4175000D02*
D03*
D191*
X4260000Y10805000D02*
D03*
D192*
X4825000Y10800000D02*
D03*
D193*
X1700000Y5850000D02*
D03*
D194*
X2000000Y500000D02*
D03*
D195*
X500000D02*
D03*
D196*
X11800000Y11000000D02*
D03*
D197*
X500000D02*
D03*
D198*
X21500000Y500000D02*
D03*
D199*
X20000000D02*
D03*
D200*
X21500000Y11000000D02*
D03*
D201*
X12500000D02*
D03*
D202*
X11000000D02*
D03*
%TF.MD5,05d4c17faa6f88d434cdff53c90342e1*%
M02*
