%TF.GenerationSoftware,Altium Limited,Altium Designer,25.8.1 (18)*%
G04 Layer_Color=2752767*
%FSLAX45Y45*%
%MOMM*%
%TF.SameCoordinates,8572D1E1-8A29-45F6-85B8-02B6E87FD275*%
%TF.FilePolarity,Positive*%
%TF.FileFunction,Drawing*%
%TF.Part,Single*%
G01*
G75*
%TA.AperFunction,NonConductor*%
%ADD223C,0.12700*%
%ADD224C,0.16933*%
%ADD225C,0.10160*%
D223*
X474600Y1574600D02*
Y1549200D01*
X525400D01*
Y1574600D01*
X550800D01*
Y1625400D01*
X525400D01*
Y1650800D01*
X474600D01*
Y1625400D01*
X449200D01*
Y1574600D01*
X474600D01*
X19949200Y11000000D02*
X20000000Y11050800D01*
X20050800Y11000000D01*
X20000000Y10949200D01*
X19949200Y11000000D01*
X19234639Y4601959D02*
X19150000D01*
Y4475000D01*
X19234639D01*
X19150000Y4538479D02*
X19192320D01*
X19206621Y6311958D02*
X19121982D01*
Y6184999D01*
X19206621D01*
X19121982Y6248479D02*
X19164301D01*
X16634639Y2326959D02*
X16550000D01*
Y2200000D01*
X16634639D01*
X16550000Y2263479D02*
X16592320D01*
X10434639Y3126959D02*
X10350000D01*
Y3000000D01*
X10434639D01*
X10350000Y3063480D02*
X10392320D01*
X19218242Y7576959D02*
X19133603D01*
Y7450000D01*
X19218242D01*
X19133603Y7513480D02*
X19175923D01*
X15104639Y8887786D02*
X15020000D01*
Y8760827D01*
X15104639D01*
X15020000Y8824306D02*
X15062320D01*
X8184639Y1276959D02*
X8100000D01*
Y1150000D01*
X8184639D01*
X8100000Y1213479D02*
X8142320D01*
X8355789Y1626959D02*
X8271150D01*
Y1500000D01*
X8355789D01*
X8271150Y1563479D02*
X8313469D01*
X15459639Y8981160D02*
X15375000D01*
Y8854201D01*
X15459639D01*
X15375000Y8917680D02*
X15417320D01*
X12275020Y5952840D02*
X12190380D01*
Y5825881D01*
X12275020D01*
X12190380Y5889361D02*
X12232700D01*
X12275020Y5652843D02*
X12190380D01*
Y5525884D01*
X12275020D01*
X12190380Y5589363D02*
X12232700D01*
X3499199Y5279194D02*
X3524599D01*
X3549999Y5304594D01*
X3575399Y5279194D01*
X3600799D01*
Y5304594D01*
X3575399Y5329994D01*
X3600799Y5355394D01*
Y5380794D01*
X3575399D01*
X3549999Y5355394D01*
X3524599Y5380794D01*
X3499199D01*
Y5355394D01*
X3524599Y5329994D01*
X3499199Y5304594D01*
Y5279194D01*
Y9479200D02*
X3524599D01*
X3549999Y9504600D01*
X3575399Y9479200D01*
X3600799D01*
Y9504600D01*
X3575399Y9530000D01*
X3600799Y9555400D01*
Y9580800D01*
X3575399D01*
X3549999Y9555400D01*
X3524599Y9580800D01*
X3499199D01*
Y9555400D01*
X3524599Y9530000D01*
X3499199Y9504600D01*
Y9479200D01*
X5399200D02*
X5424600D01*
X5450000Y9504600D01*
X5475400Y9479200D01*
X5500800D01*
Y9504600D01*
X5475400Y9530000D01*
X5500800Y9555400D01*
Y9580800D01*
X5475400D01*
X5450000Y9555400D01*
X5424600Y9580800D01*
X5399200D01*
Y9555400D01*
X5424600Y9530000D01*
X5399200Y9504600D01*
Y9479200D01*
Y5279194D02*
X5424600D01*
X5450000Y5304594D01*
X5475400Y5279194D01*
X5500800D01*
Y5304594D01*
X5475400Y5329994D01*
X5500800Y5355394D01*
Y5380794D01*
X5475400D01*
X5450000Y5355394D01*
X5424600Y5380794D01*
X5399200D01*
Y5355394D01*
X5424600Y5329994D01*
X5399200Y5304594D01*
Y5279194D01*
X10006859Y1514695D02*
X9922219D01*
Y1387737D01*
X10006859D01*
X9922219Y1451216D02*
X9964539D01*
X11361540Y10101959D02*
X11276901D01*
Y9975000D01*
X11361540D01*
X11276901Y10038480D02*
X11319220D01*
X11534639Y6801959D02*
X11450000D01*
Y6675000D01*
X11534639D01*
X11450000Y6738480D02*
X11492320D01*
X13784639Y6325341D02*
X13700000D01*
Y6198383D01*
X13784639D01*
X13700000Y6261862D02*
X13742320D01*
X16509639Y9876959D02*
X16425000D01*
Y9750000D01*
X16509639D01*
X16425000Y9813479D02*
X16467320D01*
X17684641Y6101959D02*
X17600000D01*
Y5975000D01*
X17684641D01*
X17600000Y6038479D02*
X17642320D01*
X16863705Y7726959D02*
X16779066D01*
Y7600000D01*
X16863705D01*
X16779066Y7663479D02*
X16821385D01*
X17209639Y8669660D02*
X17125000D01*
Y8542701D01*
X17209639D01*
X17125000Y8606181D02*
X17167320D01*
X15279201Y10419200D02*
X15304601D01*
X15330000Y10444600D01*
X15355400Y10419200D01*
X15380800D01*
Y10444600D01*
X15355400Y10470000D01*
X15380800Y10495400D01*
Y10520800D01*
X15355400D01*
X15330000Y10495400D01*
X15304601Y10520800D01*
X15279201D01*
Y10495400D01*
X15304601Y10470000D01*
X15279201Y10444600D01*
Y10419200D01*
X15299519Y10439520D02*
X15314760D01*
X15330000Y10454760D01*
X15345239Y10439520D01*
X15360480D01*
Y10454760D01*
X15345239Y10470000D01*
X15360480Y10485240D01*
Y10500480D01*
X15345239D01*
X15330000Y10485240D01*
X15314760Y10500480D01*
X15299519D01*
Y10485240D01*
X15314760Y10470000D01*
X15299519Y10454760D01*
Y10439520D01*
X14679201Y10419199D02*
Y10520799D01*
X14780800D01*
Y10419199D01*
X14679201D01*
X14699519Y10439519D02*
Y10500479D01*
X14760480D01*
Y10439519D01*
X14699519D01*
X3499200Y10199200D02*
Y10300800D01*
X3600800D01*
Y10199200D01*
X3499200D01*
X3519520Y10219520D02*
Y10280480D01*
X3580480D01*
Y10219520D01*
X3519520D01*
X18098476Y1449201D02*
Y1550801D01*
X18200076D01*
Y1449201D01*
X18098476D01*
X18118796Y1469521D02*
Y1530481D01*
X18179756D01*
Y1469521D01*
X18118796D01*
X18098476Y1949201D02*
Y2050801D01*
X18200076D01*
Y1949201D01*
X18098476D01*
X18118796Y1969521D02*
Y2030481D01*
X18179756D01*
Y1969521D01*
X18118796D01*
X18099200Y2599200D02*
Y2700800D01*
X18200800D01*
Y2599200D01*
X18099200D01*
X18119521Y2619520D02*
Y2680480D01*
X18180479D01*
Y2619520D01*
X18119521D01*
X18099200Y2949197D02*
Y3050797D01*
X18200801D01*
Y2949197D01*
X18099200D01*
X18119521Y2969517D02*
Y3030477D01*
X18180481D01*
Y2969517D01*
X18119521D01*
X6910000Y9559959D02*
Y9433000D01*
X6973479D01*
X6994639Y9454160D01*
Y9538799D01*
X6973479Y9559959D01*
X6910000D01*
Y9051959D02*
Y8925000D01*
X6973479D01*
X6994639Y8946160D01*
Y9030799D01*
X6973479Y9051959D01*
X6910000D01*
Y10067959D02*
Y9941000D01*
X6973479D01*
X6994639Y9962160D01*
Y10046799D01*
X6973479Y10067959D01*
X6910000D01*
X6910786Y10573641D02*
Y10446682D01*
X6974265D01*
X6995425Y10467842D01*
Y10552481D01*
X6974265Y10573641D01*
X6910786D01*
X6884000Y5901959D02*
Y5775000D01*
X6947479D01*
X6968639Y5796160D01*
Y5880799D01*
X6947479Y5901959D01*
X6884000D01*
X8408000D02*
Y5775000D01*
X8471479D01*
X8492639Y5796160D01*
Y5880799D01*
X8471479Y5901959D01*
X8408000D01*
X7900000D02*
Y5775000D01*
X7963479D01*
X7984639Y5796160D01*
Y5880799D01*
X7963479Y5901959D01*
X7900000D01*
X7392000D02*
Y5775000D01*
X7455479D01*
X7476639Y5796160D01*
Y5880799D01*
X7455479Y5901959D01*
X7392000D01*
X6884000Y5076959D02*
Y4950000D01*
X6947479D01*
X6968639Y4971160D01*
Y5055799D01*
X6947479Y5076959D01*
X6884000D01*
X7392000D02*
Y4950000D01*
X7455479D01*
X7476639Y4971160D01*
Y5055799D01*
X7455479Y5076959D01*
X7392000D01*
X8010000D02*
Y4950000D01*
X8073479D01*
X8094639Y4971160D01*
Y5055799D01*
X8073479Y5076959D01*
X8010000D01*
X8408000D02*
Y4950000D01*
X8471479D01*
X8492639Y4971160D01*
Y5055799D01*
X8471479Y5076959D01*
X8408000D01*
X6934200Y1879200D02*
Y1980800D01*
X7035800D01*
Y1879200D01*
X6934200D01*
X6954520Y1899520D02*
Y1960480D01*
X7015480D01*
Y1899520D01*
X6954520D01*
X6934200Y3129200D02*
Y3230800D01*
X7035800D01*
Y3129200D01*
X6934200D01*
X6954520Y3149520D02*
Y3210480D01*
X7015480D01*
Y3149520D01*
X6954520D01*
X1700000Y4400000D02*
Y4484639D01*
X1742320Y4526959D01*
X1784639Y4484639D01*
Y4400000D01*
Y4463480D01*
X1700000D01*
X9474600Y10974600D02*
Y10949200D01*
X9525400D01*
Y10974600D01*
X9550800D01*
Y11025400D01*
X9525400D01*
Y11050800D01*
X9474600D01*
Y11025400D01*
X9449200D01*
Y10974600D01*
X9474600D01*
Y474600D02*
Y449200D01*
X9525400D01*
Y474600D01*
X9550800D01*
Y525400D01*
X9525400D01*
Y550800D01*
X9474600D01*
Y525400D01*
X9449200D01*
Y474600D01*
X9474600D01*
X474600Y7024600D02*
Y6999200D01*
X525400D01*
Y7024600D01*
X550800D01*
Y7075400D01*
X525400D01*
Y7100800D01*
X474600D01*
Y7075400D01*
X449200D01*
Y7024600D01*
X474600D01*
X4474600Y474600D02*
Y449200D01*
X4525400D01*
Y474600D01*
X4550800D01*
Y525400D01*
X4525400D01*
Y550800D01*
X4474600D01*
Y525400D01*
X4449200D01*
Y474600D01*
X4474600D01*
X15079201Y10419200D02*
X15104601D01*
X15130000Y10444600D01*
X15155400Y10419200D01*
X15180800D01*
Y10444600D01*
X15155400Y10470000D01*
X15180800Y10495400D01*
Y10520800D01*
X15155400D01*
X15130000Y10495400D01*
X15104601Y10520800D01*
X15079201D01*
Y10495400D01*
X15104601Y10470000D01*
X15079201Y10444600D01*
Y10419200D01*
X15099519Y10439520D02*
X15114760D01*
X15130000Y10454760D01*
X15145239Y10439520D01*
X15160480D01*
Y10454760D01*
X15145239Y10470000D01*
X15160480Y10485240D01*
Y10500480D01*
X15145239D01*
X15130000Y10485240D01*
X15114760Y10500480D01*
X15099519D01*
Y10485240D01*
X15114760Y10470000D01*
X15099519Y10454760D01*
Y10439520D01*
X14279201Y10419200D02*
Y10520800D01*
X14380800D01*
Y10419200D01*
X14279201D01*
X14299519Y10439520D02*
Y10500480D01*
X14360480D01*
Y10439520D01*
X14299519D01*
X14879199Y10419200D02*
X14904599D01*
X14929999Y10444600D01*
X14955399Y10419200D01*
X14980798D01*
Y10444600D01*
X14955399Y10470000D01*
X14980798Y10495400D01*
Y10520800D01*
X14955399D01*
X14929999Y10495400D01*
X14904599Y10520800D01*
X14879199D01*
Y10495400D01*
X14904599Y10470000D01*
X14879199Y10444600D01*
Y10419200D01*
X14899519Y10439520D02*
X14914758D01*
X14929999Y10454760D01*
X14945239Y10439520D01*
X14960480D01*
Y10454760D01*
X14945239Y10470000D01*
X14960480Y10485240D01*
Y10500480D01*
X14945239D01*
X14929999Y10485240D01*
X14914758Y10500480D01*
X14899519D01*
Y10485240D01*
X14914758Y10470000D01*
X14899519Y10454760D01*
Y10439520D01*
X16399066Y6281400D02*
X16348267Y6383000D01*
X16449866D01*
X16399066Y6281400D01*
X18098476Y4079200D02*
Y4180800D01*
X18200076D01*
Y4079200D01*
X18098476D01*
X18118796Y4099520D02*
Y4160480D01*
X18179756D01*
Y4099520D01*
X18118796D01*
X14079199Y10419200D02*
Y10520800D01*
X14180798D01*
Y10419200D01*
X14079199D01*
X14099519Y10439520D02*
Y10500480D01*
X14160480D01*
Y10439520D01*
X14099519D01*
X8475000Y9060959D02*
Y8934000D01*
X8538479D01*
X8559639Y8955160D01*
Y9039799D01*
X8538479Y9060959D01*
X8475000D01*
X7524200Y9099200D02*
Y9200800D01*
X7625800D01*
Y9099200D01*
X7524200D01*
X7544520Y9119520D02*
Y9180480D01*
X7605480D01*
Y9119520D01*
X7544520D01*
X562140Y9643299D02*
X540980Y9664459D01*
X498660D01*
X477500Y9643299D01*
Y9558660D01*
X498660Y9537500D01*
X540980D01*
X562140Y9558660D01*
X557139Y9078299D02*
X535979Y9099459D01*
X493660D01*
X472500Y9078299D01*
Y8993660D01*
X493660Y8972500D01*
X535979D01*
X557139Y8993660D01*
X2874200Y8417200D02*
X2899600Y8468000D01*
X2874200Y8518800D01*
X2925000Y8493400D01*
X2975800Y8518800D01*
X2950400Y8468000D01*
X2975800Y8417200D01*
X2925000Y8442600D01*
X2874200Y8417200D01*
X8585000Y3376959D02*
Y3250000D01*
X8648480D01*
X8669640Y3271160D01*
Y3292320D01*
X8648480Y3313480D01*
X8585000D01*
X8648480D01*
X8669640Y3334640D01*
Y3355799D01*
X8648480Y3376959D01*
X8585000D01*
X8035000Y4226959D02*
Y4100000D01*
X8098479D01*
X8119639Y4121160D01*
Y4142320D01*
X8098479Y4163479D01*
X8035000D01*
X8098479D01*
X8119639Y4184639D01*
Y4205799D01*
X8098479Y4226959D01*
X8035000D01*
X5949200Y1899200D02*
Y2000800D01*
X6050800D01*
Y1899200D01*
X5949200D01*
X5969520Y1919520D02*
Y1980480D01*
X6030480D01*
Y1919520D01*
X5969520D01*
X6474600Y1396567D02*
Y1371167D01*
X6525400D01*
Y1396567D01*
X6550800D01*
Y1447367D01*
X6525400D01*
Y1472767D01*
X6474600D01*
Y1447367D01*
X6449200D01*
Y1396567D01*
X6474600D01*
X6484760Y1406727D02*
Y1391487D01*
X6515240D01*
Y1406727D01*
X6530480D01*
Y1437207D01*
X6515240D01*
Y1452447D01*
X6484760D01*
Y1437207D01*
X6469520D01*
Y1406727D01*
X6484760D01*
X1199200Y2699200D02*
Y2800800D01*
X1300800D01*
Y2699200D01*
X1199200D01*
X3139200D02*
Y2800800D01*
X3240800D01*
Y2699200D01*
X3139200D01*
X10974600Y474600D02*
Y449200D01*
X11025400D01*
Y474600D01*
X11050800D01*
Y525400D01*
X11025400D01*
Y550800D01*
X10974600D01*
Y525400D01*
X10949200D01*
Y474600D01*
X10974600D01*
X1199200Y9199200D02*
Y9300800D01*
X1300800D01*
Y9199200D01*
X1199200D01*
X7392000Y6726959D02*
Y6600000D01*
X7455479D01*
X7476639Y6621160D01*
Y6705799D01*
X7455479Y6726959D01*
X7392000D01*
X7900000D02*
Y6600000D01*
X7963479D01*
X7984639Y6621160D01*
Y6705799D01*
X7963479Y6726959D01*
X7900000D01*
X8408000D02*
Y6600000D01*
X8471479D01*
X8492639Y6621160D01*
Y6705799D01*
X8471479Y6726959D01*
X8408000D01*
X6884000D02*
Y6600000D01*
X6947479D01*
X6968639Y6621160D01*
Y6705799D01*
X6947479Y6726959D01*
X6884000D01*
Y8370777D02*
Y8243818D01*
X6947479D01*
X6968639Y8264977D01*
Y8349617D01*
X6947479Y8370777D01*
X6884000D01*
X7392000D02*
Y8243818D01*
X7455479D01*
X7476639Y8264977D01*
Y8349617D01*
X7455479Y8370777D01*
X7392000D01*
X7900000D02*
Y8243818D01*
X7963479D01*
X7984639Y8264977D01*
Y8349617D01*
X7963479Y8370777D01*
X7900000D01*
X8408000D02*
Y8243818D01*
X8471479D01*
X8492639Y8264977D01*
Y8349617D01*
X8471479Y8370777D01*
X8408000D01*
X7392000Y7551959D02*
Y7425000D01*
X7455479D01*
X7476639Y7446160D01*
Y7530799D01*
X7455479Y7551959D01*
X7392000D01*
X7900000D02*
Y7425000D01*
X7963479D01*
X7984639Y7446160D01*
Y7530799D01*
X7963479Y7551959D01*
X7900000D01*
X8408000D02*
Y7425000D01*
X8471479D01*
X8492639Y7446160D01*
Y7530799D01*
X8471479Y7551959D01*
X8408000D01*
X6884000D02*
Y7425000D01*
X6947479D01*
X6968639Y7446160D01*
Y7530799D01*
X6947479Y7551959D01*
X6884000D01*
X14479201Y10419200D02*
Y10520800D01*
X14580800D01*
Y10419200D01*
X14479201D01*
X14499519Y10439520D02*
Y10500480D01*
X14560480D01*
Y10439520D01*
X14499519D01*
X13879201Y10419199D02*
Y10520799D01*
X13980800D01*
Y10419199D01*
X13879201D01*
X13899519Y10439519D02*
Y10500479D01*
X13960480D01*
Y10439519D01*
X13899519D01*
X8475000Y9568959D02*
Y9442000D01*
X8538479D01*
X8559639Y9463160D01*
Y9547799D01*
X8538479Y9568959D01*
X8475000D01*
X2949200Y5728437D02*
Y5830037D01*
X3050800D01*
Y5728437D01*
X2949200D01*
X2969520Y5748757D02*
Y5809717D01*
X3030480D01*
Y5748757D01*
X2969520D01*
X4894705Y4030799D02*
X4873545Y4051959D01*
X4831225D01*
X4810066Y4030799D01*
Y3946160D01*
X4831225Y3925000D01*
X4873545D01*
X4894705Y3946160D01*
X4259639Y4030799D02*
X4238479Y4051959D01*
X4196160D01*
X4175000Y4030799D01*
Y3946160D01*
X4196160Y3925000D01*
X4238479D01*
X4259639Y3946160D01*
X7524200Y10349200D02*
Y10450800D01*
X7625800D01*
Y10349200D01*
X7524200D01*
X7544520Y10369520D02*
Y10430480D01*
X7605480D01*
Y10369520D01*
X7544520D01*
X7315000Y3376959D02*
Y3250000D01*
X7378480D01*
X7399640Y3271160D01*
Y3292320D01*
X7378480Y3313480D01*
X7315000D01*
X7378480D01*
X7399640Y3334640D01*
Y3355799D01*
X7378480Y3376959D01*
X7315000D01*
X5949200Y3149200D02*
Y3250800D01*
X6050800D01*
Y3149200D01*
X5949200D01*
X5969520Y3169520D02*
Y3230480D01*
X6030480D01*
Y3169520D01*
X5969520D01*
X6474600Y3146567D02*
Y3121167D01*
X6525400D01*
Y3146567D01*
X6550800D01*
Y3197367D01*
X6525400D01*
Y3222767D01*
X6474600D01*
Y3197367D01*
X6449200D01*
Y3146567D01*
X6474600D01*
X6484760Y3156727D02*
Y3141487D01*
X6515240D01*
Y3156727D01*
X6530480D01*
Y3187207D01*
X6515240D01*
Y3202447D01*
X6484760D01*
Y3187207D01*
X6469520D01*
Y3156727D01*
X6484760D01*
X8475000Y10076959D02*
Y9950000D01*
X8538479D01*
X8559639Y9971160D01*
Y10055799D01*
X8538479Y10076959D01*
X8475000D01*
Y10584959D02*
Y10458000D01*
X8538479D01*
X8559639Y10479160D01*
Y10563799D01*
X8538479Y10584959D01*
X8475000D01*
X6765000Y4226959D02*
Y4100000D01*
X6828479D01*
X6849639Y4121160D01*
Y4142320D01*
X6828479Y4163479D01*
X6765000D01*
X6828479D01*
X6849639Y4184639D01*
Y4205799D01*
X6828479Y4226959D01*
X6765000D01*
X2874200Y10449200D02*
X2899600Y10500000D01*
X2874200Y10550800D01*
X2925000Y10525400D01*
X2975800Y10550800D01*
X2950400Y10500000D01*
X2975800Y10449200D01*
X2925000Y10474600D01*
X2874200Y10449200D01*
X16399066Y6481400D02*
X16348267Y6583000D01*
X16449866D01*
X16399066Y6481400D01*
X18098476Y3579201D02*
Y3680801D01*
X18200076D01*
Y3579201D01*
X18098476D01*
X18118796Y3599521D02*
Y3660481D01*
X18179756D01*
Y3599521D01*
X18118796D01*
X4344640Y10910799D02*
X4323480Y10931959D01*
X4281160D01*
X4260000Y10910799D01*
Y10826160D01*
X4281160Y10805000D01*
X4323480D01*
X4344640Y10826160D01*
X4909639Y10905799D02*
X4888479Y10926959D01*
X4846160D01*
X4825000Y10905799D01*
Y10821160D01*
X4846160Y10800000D01*
X4888479D01*
X4909639Y10821160D01*
X14679201Y10619200D02*
Y10720800D01*
X14780800D01*
Y10619200D01*
X14679201D01*
X14699519Y10639520D02*
Y10700480D01*
X14760480D01*
Y10639520D01*
X14699519D01*
X14479201Y10619201D02*
Y10720801D01*
X14580800D01*
Y10619201D01*
X14479201D01*
X14499519Y10639521D02*
Y10700481D01*
X14560480D01*
Y10639521D01*
X14499519D01*
X14279201Y10619200D02*
Y10720800D01*
X14380800D01*
Y10619200D01*
X14279201D01*
X14299519Y10639520D02*
Y10700480D01*
X14360480D01*
Y10639520D01*
X14299519D01*
X14079201Y10619199D02*
Y10720799D01*
X14180800D01*
Y10619199D01*
X14079201D01*
X14099519Y10639519D02*
Y10700479D01*
X14160480D01*
Y10639519D01*
X14099519D01*
X13879201Y10619200D02*
Y10720800D01*
X13980801D01*
Y10619200D01*
X13879201D01*
X13899521Y10639520D02*
Y10700480D01*
X13960481D01*
Y10639520D01*
X13899521D01*
X14879201Y10619200D02*
X14904601D01*
X14930000Y10644600D01*
X14955400Y10619200D01*
X14980800D01*
Y10644600D01*
X14955400Y10670000D01*
X14980800Y10695400D01*
Y10720800D01*
X14955400D01*
X14930000Y10695400D01*
X14904601Y10720800D01*
X14879201D01*
Y10695400D01*
X14904601Y10670000D01*
X14879201Y10644600D01*
Y10619200D01*
X14899519Y10639520D02*
X14914760D01*
X14930000Y10654760D01*
X14945239Y10639520D01*
X14960480D01*
Y10654760D01*
X14945239Y10670000D01*
X14960480Y10685240D01*
Y10700480D01*
X14945239D01*
X14930000Y10685240D01*
X14914760Y10700480D01*
X14899519D01*
Y10685240D01*
X14914760Y10670000D01*
X14899519Y10654760D01*
Y10639520D01*
X15079201Y10619200D02*
X15104601D01*
X15130000Y10644600D01*
X15155402Y10619200D01*
X15180801D01*
Y10644600D01*
X15155402Y10670000D01*
X15180801Y10695400D01*
Y10720800D01*
X15155402D01*
X15130000Y10695400D01*
X15104601Y10720800D01*
X15079201D01*
Y10695400D01*
X15104601Y10670000D01*
X15079201Y10644600D01*
Y10619200D01*
X15099521Y10639520D02*
X15114761D01*
X15130000Y10654760D01*
X15145241Y10639520D01*
X15160481D01*
Y10654760D01*
X15145241Y10670000D01*
X15160481Y10685240D01*
Y10700480D01*
X15145241D01*
X15130000Y10685240D01*
X15114761Y10700480D01*
X15099521D01*
Y10685240D01*
X15114761Y10670000D01*
X15099521Y10654760D01*
Y10639520D01*
X15279201Y10619200D02*
X15304601D01*
X15330000Y10644600D01*
X15355402Y10619200D01*
X15380801D01*
Y10644600D01*
X15355402Y10670000D01*
X15380801Y10695400D01*
Y10720800D01*
X15355402D01*
X15330000Y10695400D01*
X15304601Y10720800D01*
X15279201D01*
Y10695400D01*
X15304601Y10670000D01*
X15279201Y10644600D01*
Y10619200D01*
X15299521Y10639520D02*
X15314761D01*
X15330000Y10654760D01*
X15345241Y10639520D01*
X15360481D01*
Y10654760D01*
X15345241Y10670000D01*
X15360481Y10685240D01*
Y10700480D01*
X15345241D01*
X15330000Y10685240D01*
X15314761Y10700480D01*
X15299521D01*
Y10685240D01*
X15314761Y10670000D01*
X15299521Y10654760D01*
Y10639520D01*
X1700000Y5850000D02*
Y5934639D01*
X1742320Y5976959D01*
X1784639Y5934639D01*
Y5850000D01*
Y5913479D01*
X1700000D01*
X1949200Y500000D02*
X2000000Y550800D01*
X2050800Y500000D01*
X2000000Y449200D01*
X1949200Y500000D01*
X474600Y474600D02*
Y449200D01*
X525400D01*
Y474600D01*
X550800D01*
Y525400D01*
X525400D01*
Y550800D01*
X474600D01*
Y525400D01*
X449200D01*
Y474600D01*
X474600D01*
X11774600Y10974600D02*
Y10949200D01*
X11825400D01*
Y10974600D01*
X11850800D01*
Y11025400D01*
X11825400D01*
Y11050800D01*
X11774600D01*
Y11025400D01*
X11749200D01*
Y10974600D01*
X11774600D01*
X474600D02*
Y10949200D01*
X525400D01*
Y10974600D01*
X550800D01*
Y11025400D01*
X525400D01*
Y11050800D01*
X474600D01*
Y11025400D01*
X449200D01*
Y10974600D01*
X474600D01*
X21474600Y474600D02*
Y449200D01*
X21525400D01*
Y474600D01*
X21550800D01*
Y525400D01*
X21525400D01*
Y550800D01*
X21474600D01*
Y525400D01*
X21449200D01*
Y474600D01*
X21474600D01*
X19949200Y500000D02*
X20000000Y550800D01*
X20050800Y500000D01*
X20000000Y449200D01*
X19949200Y500000D01*
X21474600Y10974600D02*
Y10949200D01*
X21525400D01*
Y10974600D01*
X21550800D01*
Y11025400D01*
X21525400D01*
Y11050800D01*
X21474600D01*
Y11025400D01*
X21449200D01*
Y10974600D01*
X21474600D01*
X12474600D02*
Y10949200D01*
X12525400D01*
Y10974600D01*
X12550800D01*
Y11025400D01*
X12525400D01*
Y11050800D01*
X12474600D01*
Y11025400D01*
X12449200D01*
Y10974600D01*
X12474600D01*
X10974600D02*
Y10949200D01*
X11025400D01*
Y10974600D01*
X11050800D01*
Y11025400D01*
X11025400D01*
Y11050800D01*
X10974600D01*
Y11025400D01*
X10949200D01*
Y10974600D01*
X10974600D01*
X774200Y7329229D02*
Y7430829D01*
X875800D01*
Y7329229D01*
X774200D01*
X794520Y7349549D02*
Y7410509D01*
X855480D01*
Y7349549D01*
X794520D01*
X124200Y7329229D02*
Y7430829D01*
X225800D01*
Y7329229D01*
X124200D01*
X144520Y7349549D02*
Y7410509D01*
X205480D01*
Y7349549D01*
X144520D01*
X766529Y6674200D02*
Y6775800D01*
X868129D01*
Y6674200D01*
X766529D01*
X786849Y6694520D02*
Y6755480D01*
X847809D01*
Y6694520D01*
X786849D01*
X124200Y6674200D02*
Y6775800D01*
X225800D01*
Y6674200D01*
X124200D01*
X144520Y6694520D02*
Y6755480D01*
X205480D01*
Y6694520D01*
X144520D01*
X99200Y1899200D02*
Y2000800D01*
X200800D01*
Y1899200D01*
X99200D01*
X119520Y1919520D02*
Y1980480D01*
X180480D01*
Y1919520D01*
X119520D01*
X799200Y1899200D02*
Y2000800D01*
X900800D01*
Y1899200D01*
X799200D01*
X819520Y1919520D02*
Y1980480D01*
X880480D01*
Y1919520D01*
X819520D01*
X11647450Y6942054D02*
X11672850Y6967454D01*
X11698250D01*
X11672850Y6992854D01*
X11698250Y7018254D01*
X11672850D01*
X11647450Y7043654D01*
X11622050Y7018254D01*
X11596650D01*
X11622050Y6992854D01*
X11596650Y6967454D01*
X11622050D01*
X11647450Y6942054D01*
Y6962374D02*
X11662690Y6977614D01*
X11677930D01*
X11662690Y6992854D01*
X11677930Y7008094D01*
X11662690D01*
X11647450Y7023334D01*
X11632210Y7008094D01*
X11616970D01*
X11632210Y6992854D01*
X11616970Y6977614D01*
X11632210D01*
X11647450Y6962374D01*
X11250000Y8349200D02*
X11275400Y8374600D01*
X11300800D01*
X11275400Y8400000D01*
X11300800Y8425400D01*
X11275400D01*
X11250000Y8450800D01*
X11224600Y8425400D01*
X11199200D01*
X11224600Y8400000D01*
X11199200Y8374600D01*
X11224600D01*
X11250000Y8349200D01*
Y8369520D02*
X11265240Y8384760D01*
X11280480D01*
X11265240Y8400000D01*
X11280480Y8415240D01*
X11265240D01*
X11250000Y8430480D01*
X11234760Y8415240D01*
X11219520D01*
X11234760Y8400000D01*
X11219520Y8384760D01*
X11234760D01*
X11250000Y8369520D01*
X11025000Y8345050D02*
X11050400Y8370450D01*
X11075800D01*
X11050400Y8395850D01*
X11075800Y8421250D01*
X11050400D01*
X11025000Y8446650D01*
X10999600Y8421250D01*
X10974200D01*
X10999600Y8395850D01*
X10974200Y8370450D01*
X10999600D01*
X11025000Y8345050D01*
Y8365370D02*
X11040240Y8380610D01*
X11055480D01*
X11040240Y8395850D01*
X11055480Y8411090D01*
X11040240D01*
X11025000Y8426330D01*
X11009760Y8411090D01*
X10994520D01*
X11009760Y8395850D01*
X10994520Y8380610D01*
X11009760D01*
X11025000Y8365370D01*
X9875000Y8574200D02*
X9900400Y8599600D01*
X9925800D01*
X9900400Y8625000D01*
X9925800Y8650400D01*
X9900400D01*
X9875000Y8675800D01*
X9849600Y8650400D01*
X9824200D01*
X9849600Y8625000D01*
X9824200Y8599600D01*
X9849600D01*
X9875000Y8574200D01*
Y8594520D02*
X9890240Y8609760D01*
X9905480D01*
X9890240Y8625000D01*
X9905480Y8640240D01*
X9890240D01*
X9875000Y8655480D01*
X9859760Y8640240D01*
X9844520D01*
X9859760Y8625000D01*
X9844520Y8609760D01*
X9859760D01*
X9875000Y8594520D01*
X16380000Y10010373D02*
X16405400Y10035773D01*
X16430800D01*
X16405400Y10061173D01*
X16430800Y10086573D01*
X16405400D01*
X16380000Y10111973D01*
X16354601Y10086573D01*
X16329201D01*
X16354601Y10061173D01*
X16329201Y10035773D01*
X16354601D01*
X16380000Y10010373D01*
Y10030693D02*
X16395239Y10045933D01*
X16410480D01*
X16395239Y10061173D01*
X16410480Y10076413D01*
X16395239D01*
X16380000Y10091653D01*
X16364760Y10076413D01*
X16349519D01*
X16364760Y10061173D01*
X16349519Y10045933D01*
X16364760D01*
X16380000Y10030693D01*
X14375961Y10004200D02*
X14401363Y10029600D01*
X14426762D01*
X14401363Y10055000D01*
X14426762Y10080400D01*
X14401363D01*
X14375961Y10105800D01*
X14350562Y10080400D01*
X14325162D01*
X14350562Y10055000D01*
X14325162Y10029600D01*
X14350562D01*
X14375961Y10004200D01*
Y10024520D02*
X14391202Y10039760D01*
X14406442D01*
X14391202Y10055000D01*
X14406442Y10070240D01*
X14391202D01*
X14375961Y10085480D01*
X14360722Y10070240D01*
X14345482D01*
X14360722Y10055000D01*
X14345482Y10039760D01*
X14360722D01*
X14375961Y10024520D01*
X13525000Y9124200D02*
X13550400Y9149600D01*
X13575800D01*
X13550400Y9175000D01*
X13575800Y9200400D01*
X13550400D01*
X13525000Y9225800D01*
X13499600Y9200400D01*
X13474200D01*
X13499600Y9175000D01*
X13474200Y9149600D01*
X13499600D01*
X13525000Y9124200D01*
Y9144520D02*
X13540240Y9159760D01*
X13555479D01*
X13540240Y9175000D01*
X13555479Y9190240D01*
X13540240D01*
X13525000Y9205480D01*
X13509760Y9190240D01*
X13494521D01*
X13509760Y9175000D01*
X13494521Y9159760D01*
X13509760D01*
X13525000Y9144520D01*
X13050000Y9074200D02*
X13075400Y9099600D01*
X13100800D01*
X13075400Y9125000D01*
X13100800Y9150400D01*
X13075400D01*
X13050000Y9175800D01*
X13024600Y9150400D01*
X12999200D01*
X13024600Y9125000D01*
X12999200Y9099600D01*
X13024600D01*
X13050000Y9074200D01*
Y9094520D02*
X13065240Y9109760D01*
X13080479D01*
X13065240Y9125000D01*
X13080479Y9140240D01*
X13065240D01*
X13050000Y9155480D01*
X13034760Y9140240D01*
X13019521D01*
X13034760Y9125000D01*
X13019521Y9109760D01*
X13034760D01*
X13050000Y9094520D01*
X13911395Y8924200D02*
X13936795Y8949600D01*
X13962195D01*
X13936795Y8975000D01*
X13962195Y9000400D01*
X13936795D01*
X13911395Y9025800D01*
X13885995Y9000400D01*
X13860596D01*
X13885995Y8975000D01*
X13860596Y8949600D01*
X13885995D01*
X13911395Y8924200D01*
Y8944520D02*
X13926636Y8959760D01*
X13941875D01*
X13926636Y8975000D01*
X13941875Y8990240D01*
X13926636D01*
X13911395Y9005480D01*
X13896155Y8990240D01*
X13880914D01*
X13896155Y8975000D01*
X13880914Y8959760D01*
X13896155D01*
X13911395Y8944520D01*
Y9124200D02*
X13936795Y9149600D01*
X13962195D01*
X13936795Y9175000D01*
X13962195Y9200400D01*
X13936795D01*
X13911395Y9225800D01*
X13885995Y9200400D01*
X13860596D01*
X13885995Y9175000D01*
X13860596Y9149600D01*
X13885995D01*
X13911395Y9124200D01*
Y9144520D02*
X13926636Y9159760D01*
X13941875D01*
X13926636Y9175000D01*
X13941875Y9190240D01*
X13926636D01*
X13911395Y9205480D01*
X13896155Y9190240D01*
X13880914D01*
X13896155Y9175000D01*
X13880914Y9159760D01*
X13896155D01*
X13911395Y9144520D01*
X13600000Y8999200D02*
X13625400Y9024600D01*
X13650800D01*
X13625400Y9050000D01*
X13650800Y9075400D01*
X13625400D01*
X13600000Y9100800D01*
X13574600Y9075400D01*
X13549200D01*
X13574600Y9050000D01*
X13549200Y9024600D01*
X13574600D01*
X13600000Y8999200D01*
Y9019520D02*
X13615240Y9034760D01*
X13630479D01*
X13615240Y9050000D01*
X13630479Y9065240D01*
X13615240D01*
X13600000Y9080480D01*
X13584760Y9065240D01*
X13569521D01*
X13584760Y9050000D01*
X13569521Y9034760D01*
X13584760D01*
X13600000Y9019520D01*
X13359946Y10083460D02*
X13385345Y10108860D01*
X13410745D01*
X13385345Y10134260D01*
X13410745Y10159660D01*
X13385345D01*
X13359946Y10185060D01*
X13334544Y10159660D01*
X13309145D01*
X13334544Y10134260D01*
X13309145Y10108860D01*
X13334544D01*
X13359946Y10083460D01*
Y10103780D02*
X13375185Y10119020D01*
X13390425D01*
X13375185Y10134260D01*
X13390425Y10149500D01*
X13375185D01*
X13359946Y10164740D01*
X13344705Y10149500D01*
X13329465D01*
X13344705Y10134260D01*
X13329465Y10119020D01*
X13344705D01*
X13359946Y10103780D01*
X14039999Y9854210D02*
X14065399Y9879610D01*
X14090799D01*
X14065399Y9905010D01*
X14090799Y9930410D01*
X14065399D01*
X14039999Y9955810D01*
X14014600Y9930410D01*
X13989198D01*
X14014600Y9905010D01*
X13989198Y9879610D01*
X14014600D01*
X14039999Y9854210D01*
Y9874530D02*
X14055238Y9889770D01*
X14070479D01*
X14055238Y9905010D01*
X14070479Y9920250D01*
X14055238D01*
X14039999Y9935490D01*
X14024759Y9920250D01*
X14009518D01*
X14024759Y9905010D01*
X14009518Y9889770D01*
X14024759D01*
X14039999Y9874530D01*
X14893124Y9386682D02*
X14918526Y9412082D01*
X14943925D01*
X14918526Y9437482D01*
X14943925Y9462882D01*
X14918526D01*
X14893124Y9488282D01*
X14867725Y9462882D01*
X14842325D01*
X14867725Y9437482D01*
X14842325Y9412082D01*
X14867725D01*
X14893124Y9386682D01*
Y9407002D02*
X14908365Y9422242D01*
X14923605D01*
X14908365Y9437482D01*
X14923605Y9452722D01*
X14908365D01*
X14893124Y9467962D01*
X14877885Y9452722D01*
X14862645D01*
X14877885Y9437482D01*
X14862645Y9422242D01*
X14877885D01*
X14893124Y9407002D01*
X14653708Y8486435D02*
X14679108Y8511835D01*
X14704507D01*
X14679108Y8537235D01*
X14704507Y8562635D01*
X14679108D01*
X14653708Y8588035D01*
X14628308Y8562635D01*
X14602908D01*
X14628308Y8537235D01*
X14602908Y8511835D01*
X14628308D01*
X14653708Y8486435D01*
Y8506755D02*
X14668948Y8521995D01*
X14684187D01*
X14668948Y8537235D01*
X14684187Y8552475D01*
X14668948D01*
X14653708Y8567715D01*
X14638467Y8552475D01*
X14623228D01*
X14638467Y8537235D01*
X14623228Y8521995D01*
X14638467D01*
X14653708Y8506755D01*
X15727100Y4126602D02*
Y4101202D01*
X15777901D01*
Y4126602D01*
X15803300D01*
Y4177402D01*
X15777901D01*
Y4202802D01*
X15727100D01*
Y4177402D01*
X15701700D01*
Y4126602D01*
X15727100D01*
X15737260Y4136762D02*
Y4121522D01*
X15767740D01*
Y4136762D01*
X15782980D01*
Y4167242D01*
X15767740D01*
Y4182482D01*
X15737260D01*
Y4167242D01*
X15722020D01*
Y4136762D01*
X15737260D01*
X16247099Y4121602D02*
Y4096202D01*
X16297900D01*
Y4121602D01*
X16323300D01*
Y4172402D01*
X16297900D01*
Y4197802D01*
X16247099D01*
Y4172402D01*
X16221700D01*
Y4121602D01*
X16247099D01*
X16257260Y4131762D02*
Y4116522D01*
X16287740D01*
Y4131762D01*
X16302980D01*
Y4162242D01*
X16287740D01*
Y4177482D01*
X16257260D01*
Y4162242D01*
X16242020D01*
Y4131762D01*
X16257260D01*
X15110001Y3974200D02*
X15135400Y3999600D01*
X15160800D01*
X15135400Y4025000D01*
X15160800Y4050400D01*
X15135400D01*
X15110001Y4075800D01*
X15084599Y4050400D01*
X15059200D01*
X15084599Y4025000D01*
X15059200Y3999600D01*
X15084599D01*
X15110001Y3974200D01*
Y3994520D02*
X15125240Y4009760D01*
X15140480D01*
X15125240Y4025000D01*
X15140480Y4040240D01*
X15125240D01*
X15110001Y4055480D01*
X15094760Y4040240D01*
X15079520D01*
X15094760Y4025000D01*
X15079520Y4009760D01*
X15094760D01*
X15110001Y3994520D01*
X15088860Y2385339D02*
X15114259Y2410739D01*
X15139661D01*
X15114259Y2436139D01*
X15139661Y2461539D01*
X15114259D01*
X15088860Y2486939D01*
X15063460Y2461539D01*
X15038060D01*
X15063460Y2436139D01*
X15038060Y2410739D01*
X15063460D01*
X15088860Y2385339D01*
Y2405659D02*
X15104100Y2420899D01*
X15119341D01*
X15104100Y2436139D01*
X15119341Y2451379D01*
X15104100D01*
X15088860Y2466619D01*
X15073621Y2451379D01*
X15058380D01*
X15073621Y2436139D01*
X15058380Y2420899D01*
X15073621D01*
X15088860Y2405659D01*
X14475417Y7393783D02*
X14500816Y7419183D01*
X14526218D01*
X14500816Y7444583D01*
X14526218Y7469983D01*
X14500816D01*
X14475417Y7495383D01*
X14450017Y7469983D01*
X14424617D01*
X14450017Y7444583D01*
X14424617Y7419183D01*
X14450017D01*
X14475417Y7393783D01*
Y7414103D02*
X14490657Y7429343D01*
X14505898D01*
X14490657Y7444583D01*
X14505898Y7459823D01*
X14490657D01*
X14475417Y7475063D01*
X14460178Y7459823D01*
X14444937D01*
X14460178Y7444583D01*
X14444937Y7429343D01*
X14460178D01*
X14475417Y7414103D01*
X14250000Y7619200D02*
X14275400Y7644600D01*
X14300800D01*
X14275400Y7670000D01*
X14300800Y7695400D01*
X14275400D01*
X14250000Y7720800D01*
X14224600Y7695400D01*
X14199200D01*
X14224600Y7670000D01*
X14199200Y7644600D01*
X14224600D01*
X14250000Y7619200D01*
Y7639520D02*
X14265240Y7654760D01*
X14280479D01*
X14265240Y7670000D01*
X14280479Y7685240D01*
X14265240D01*
X14250000Y7700480D01*
X14234760Y7685240D01*
X14219521D01*
X14234760Y7670000D01*
X14219521Y7654760D01*
X14234760D01*
X14250000Y7639520D01*
X14375000Y6824200D02*
X14400400Y6849600D01*
X14425800D01*
X14400400Y6875000D01*
X14425800Y6900400D01*
X14400400D01*
X14375000Y6925800D01*
X14349600Y6900400D01*
X14324200D01*
X14349600Y6875000D01*
X14324200Y6849600D01*
X14349600D01*
X14375000Y6824200D01*
Y6844520D02*
X14390240Y6859760D01*
X14405479D01*
X14390240Y6875000D01*
X14405479Y6890240D01*
X14390240D01*
X14375000Y6905480D01*
X14359760Y6890240D01*
X14344521D01*
X14359760Y6875000D01*
X14344521Y6859760D01*
X14359760D01*
X14375000Y6844520D01*
X14039999Y5189200D02*
X14065401Y5214600D01*
X14090800D01*
X14065401Y5240000D01*
X14090800Y5265400D01*
X14065401D01*
X14039999Y5290800D01*
X14014600Y5265400D01*
X13989200D01*
X14014600Y5240000D01*
X13989200Y5214600D01*
X14014600D01*
X14039999Y5189200D01*
Y5209520D02*
X14055240Y5224760D01*
X14070480D01*
X14055240Y5240000D01*
X14070480Y5255240D01*
X14055240D01*
X14039999Y5270480D01*
X14024760Y5255240D01*
X14009520D01*
X14024760Y5240000D01*
X14009520Y5224760D01*
X14024760D01*
X14039999Y5209520D01*
X13714839Y8268979D02*
X13740239Y8294379D01*
X13765639D01*
X13740239Y8319779D01*
X13765639Y8345179D01*
X13740239D01*
X13714839Y8370579D01*
X13689439Y8345179D01*
X13664040D01*
X13689439Y8319779D01*
X13664040Y8294379D01*
X13689439D01*
X13714839Y8268979D01*
Y8289299D02*
X13730080Y8304539D01*
X13745319D01*
X13730080Y8319779D01*
X13745319Y8335019D01*
X13730080D01*
X13714839Y8350259D01*
X13699599Y8335019D01*
X13684360D01*
X13699599Y8319779D01*
X13684360Y8304539D01*
X13699599D01*
X13714839Y8289299D01*
X9556467Y2049200D02*
X9581867Y2074600D01*
X9607267D01*
X9581867Y2100000D01*
X9607267Y2125400D01*
X9581867D01*
X9556467Y2150800D01*
X9531067Y2125400D01*
X9505667D01*
X9531067Y2100000D01*
X9505667Y2074600D01*
X9531067D01*
X9556467Y2049200D01*
Y2069520D02*
X9571707Y2084760D01*
X9586947D01*
X9571707Y2100000D01*
X9586947Y2115240D01*
X9571707D01*
X9556467Y2130480D01*
X9541227Y2115240D01*
X9525987D01*
X9541227Y2100000D01*
X9525987Y2084760D01*
X9541227D01*
X9556467Y2069520D01*
X8420000Y2149200D02*
X8445400Y2174600D01*
X8470800D01*
X8445400Y2200000D01*
X8470800Y2225400D01*
X8445400D01*
X8420000Y2250800D01*
X8394600Y2225400D01*
X8369200D01*
X8394600Y2200000D01*
X8369200Y2174600D01*
X8394600D01*
X8420000Y2149200D01*
Y2169520D02*
X8435240Y2184760D01*
X8450480D01*
X8435240Y2200000D01*
X8450480Y2215240D01*
X8435240D01*
X8420000Y2230480D01*
X8404760Y2215240D01*
X8389520D01*
X8404760Y2200000D01*
X8389520Y2184760D01*
X8404760D01*
X8420000Y2169520D01*
X13396378Y8089226D02*
X13421777Y8114626D01*
X13447177D01*
X13421777Y8140026D01*
X13447177Y8165426D01*
X13421777D01*
X13396378Y8190826D01*
X13370976Y8165426D01*
X13345576D01*
X13370976Y8140026D01*
X13345576Y8114626D01*
X13370976D01*
X13396378Y8089226D01*
Y8109546D02*
X13411617Y8124786D01*
X13426857D01*
X13411617Y8140026D01*
X13426857Y8155266D01*
X13411617D01*
X13396378Y8170506D01*
X13381137Y8155266D01*
X13365897D01*
X13381137Y8140026D01*
X13365897Y8124786D01*
X13381137D01*
X13396378Y8109546D01*
X13129601Y3864600D02*
Y3839200D01*
X13180400D01*
Y3864600D01*
X13205800D01*
Y3915400D01*
X13180400D01*
Y3940800D01*
X13129601D01*
Y3915400D01*
X13104201D01*
Y3864600D01*
X13129601D01*
X13139760Y3874760D02*
Y3859520D01*
X13170239D01*
Y3874760D01*
X13185480D01*
Y3905240D01*
X13170239D01*
Y3920480D01*
X13139760D01*
Y3905240D01*
X13124519D01*
Y3874760D01*
X13139760D01*
X13124600Y3344600D02*
Y3319200D01*
X13175400D01*
Y3344600D01*
X13200800D01*
Y3395400D01*
X13175400D01*
Y3420800D01*
X13124600D01*
Y3395400D01*
X13099200D01*
Y3344600D01*
X13124600D01*
X13134760Y3354760D02*
Y3339520D01*
X13165240D01*
Y3354760D01*
X13180479D01*
Y3385240D01*
X13165240D01*
Y3400480D01*
X13134760D01*
Y3385240D01*
X13119521D01*
Y3354760D01*
X13134760D01*
X13124600Y3624600D02*
Y3599200D01*
X13175400D01*
Y3624600D01*
X13200800D01*
Y3675400D01*
X13175400D01*
Y3700800D01*
X13124600D01*
Y3675400D01*
X13099200D01*
Y3624600D01*
X13124600D01*
X13134760Y3634760D02*
Y3619520D01*
X13165240D01*
Y3634760D01*
X13180479D01*
Y3665240D01*
X13165240D01*
Y3680480D01*
X13134760D01*
Y3665240D01*
X13119521D01*
Y3634760D01*
X13134760D01*
X12626255Y10299222D02*
X12651655Y10324622D01*
X12677055D01*
X12651655Y10350022D01*
X12677055Y10375422D01*
X12651655D01*
X12626255Y10400822D01*
X12600855Y10375422D01*
X12575455D01*
X12600855Y10350022D01*
X12575455Y10324622D01*
X12600855D01*
X12626255Y10299222D01*
Y10319542D02*
X12641495Y10334782D01*
X12656735D01*
X12641495Y10350022D01*
X12656735Y10365262D01*
X12641495D01*
X12626255Y10380502D01*
X12611015Y10365262D01*
X12595775D01*
X12611015Y10350022D01*
X12595775Y10334782D01*
X12611015D01*
X12626255Y10319542D01*
X12073067Y10299222D02*
X12098467Y10324622D01*
X12123867D01*
X12098467Y10350022D01*
X12123867Y10375422D01*
X12098467D01*
X12073067Y10400822D01*
X12047667Y10375422D01*
X12022267D01*
X12047667Y10350022D01*
X12022267Y10324622D01*
X12047667D01*
X12073067Y10299222D01*
Y10319542D02*
X12088307Y10334782D01*
X12103547D01*
X12088307Y10350022D01*
X12103547Y10365262D01*
X12088307D01*
X12073067Y10380502D01*
X12057827Y10365262D01*
X12042587D01*
X12057827Y10350022D01*
X12042587Y10334782D01*
X12057827D01*
X12073067Y10319542D01*
X12800000Y8829631D02*
X12825400Y8855031D01*
X12850800D01*
X12825400Y8880431D01*
X12850800Y8905831D01*
X12825400D01*
X12800000Y8931231D01*
X12774600Y8905831D01*
X12749200D01*
X12774600Y8880431D01*
X12749200Y8855031D01*
X12774600D01*
X12800000Y8829631D01*
Y8849951D02*
X12815240Y8865191D01*
X12830479D01*
X12815240Y8880431D01*
X12830479Y8895671D01*
X12815240D01*
X12800000Y8910911D01*
X12784760Y8895671D01*
X12769520D01*
X12784760Y8880431D01*
X12769520Y8865191D01*
X12784760D01*
X12800000Y8849951D01*
X12825000Y8149200D02*
X12850400Y8174600D01*
X12875800D01*
X12850400Y8200000D01*
X12875800Y8225400D01*
X12850400D01*
X12825000Y8250800D01*
X12799600Y8225400D01*
X12774200D01*
X12799600Y8200000D01*
X12774200Y8174600D01*
X12799600D01*
X12825000Y8149200D01*
Y8169520D02*
X12840240Y8184760D01*
X12855479D01*
X12840240Y8200000D01*
X12855479Y8215240D01*
X12840240D01*
X12825000Y8230480D01*
X12809760Y8215240D01*
X12794520D01*
X12809760Y8200000D01*
X12794520Y8184760D01*
X12809760D01*
X12825000Y8169520D01*
X2700000Y7793791D02*
X2725400Y7819191D01*
X2750800D01*
X2725400Y7844591D01*
X2750800Y7869991D01*
X2725400D01*
X2700000Y7895391D01*
X2674600Y7869991D01*
X2649200D01*
X2674600Y7844591D01*
X2649200Y7819191D01*
X2674600D01*
X2700000Y7793791D01*
Y7814111D02*
X2715240Y7829351D01*
X2730480D01*
X2715240Y7844591D01*
X2730480Y7859831D01*
X2715240D01*
X2700000Y7875071D01*
X2684760Y7859831D01*
X2669520D01*
X2684760Y7844591D01*
X2669520Y7829351D01*
X2684760D01*
X2700000Y7814111D01*
X2025000Y7774200D02*
X2050400Y7799600D01*
X2075800D01*
X2050400Y7825000D01*
X2075800Y7850400D01*
X2050400D01*
X2025000Y7875800D01*
X1999600Y7850400D01*
X1974200D01*
X1999600Y7825000D01*
X1974200Y7799600D01*
X1999600D01*
X2025000Y7774200D01*
Y7794520D02*
X2040240Y7809760D01*
X2055480D01*
X2040240Y7825000D01*
X2055480Y7840240D01*
X2040240D01*
X2025000Y7855480D01*
X2009760Y7840240D01*
X1994520D01*
X2009760Y7825000D01*
X1994520Y7809760D01*
X2009760D01*
X2025000Y7794520D01*
X18825000Y3999200D02*
X18850400Y4024600D01*
X18875800D01*
X18850400Y4050000D01*
X18875800Y4075400D01*
X18850400D01*
X18825000Y4100800D01*
X18799600Y4075400D01*
X18774200D01*
X18799600Y4050000D01*
X18774200Y4024600D01*
X18799600D01*
X18825000Y3999200D01*
X19300000Y4599200D02*
X19325400Y4624600D01*
X19350800D01*
X19325400Y4650000D01*
X19350800Y4675400D01*
X19325400D01*
X19300000Y4700800D01*
X19274600Y4675400D01*
X19249200D01*
X19274600Y4650000D01*
X19249200Y4624600D01*
X19274600D01*
X19300000Y4599200D01*
X15493033Y8197983D02*
X15518433Y8223383D01*
X15543832D01*
X15518433Y8248783D01*
X15543832Y8274183D01*
X15518433D01*
X15493033Y8299583D01*
X15467633Y8274183D01*
X15442233D01*
X15467633Y8248783D01*
X15442233Y8223383D01*
X15467633D01*
X15493033Y8197983D01*
Y8218303D02*
X15508273Y8233543D01*
X15523512D01*
X15508273Y8248783D01*
X15523512Y8264023D01*
X15508273D01*
X15493033Y8279263D01*
X15477792Y8264023D01*
X15462553D01*
X15477792Y8248783D01*
X15462553Y8233543D01*
X15477792D01*
X15493033Y8218303D01*
X15229802Y7424201D02*
X15255202Y7449601D01*
X15280602D01*
X15255202Y7475001D01*
X15280602Y7500401D01*
X15255202D01*
X15229802Y7525801D01*
X15204402Y7500401D01*
X15179002D01*
X15204402Y7475001D01*
X15179002Y7449601D01*
X15204402D01*
X15229802Y7424201D01*
Y7444521D02*
X15245042Y7459761D01*
X15260281D01*
X15245042Y7475001D01*
X15260281Y7490241D01*
X15245042D01*
X15229802Y7505481D01*
X15214561Y7490241D01*
X15199323D01*
X15214561Y7475001D01*
X15199323Y7459761D01*
X15214561D01*
X15229802Y7444521D01*
X19767632Y4226425D02*
X19793031Y4251825D01*
X19818431D01*
X19793031Y4277225D01*
X19818431Y4302625D01*
X19793031D01*
X19767632Y4328025D01*
X19742232Y4302625D01*
X19716830D01*
X19742232Y4277225D01*
X19716830Y4251825D01*
X19742232D01*
X19767632Y4226425D01*
X20031444Y1299200D02*
X20056844Y1324600D01*
X20082243D01*
X20056844Y1350000D01*
X20082243Y1375400D01*
X20056844D01*
X20031444Y1400800D01*
X20006044Y1375400D01*
X19980644D01*
X20006044Y1350000D01*
X19980644Y1324600D01*
X20006044D01*
X20031444Y1299200D01*
X20050000Y1774200D02*
X20075400Y1799600D01*
X20100800D01*
X20075400Y1825000D01*
X20100800Y1850400D01*
X20075400D01*
X20050000Y1875800D01*
X20024600Y1850400D01*
X19999200D01*
X20024600Y1825000D01*
X19999200Y1799600D01*
X20024600D01*
X20050000Y1774200D01*
X15339999Y3974200D02*
X15365401Y3999600D01*
X15390800D01*
X15365401Y4025000D01*
X15390800Y4050400D01*
X15365401D01*
X15339999Y4075800D01*
X15314600Y4050400D01*
X15289200D01*
X15314600Y4025000D01*
X15289200Y3999600D01*
X15314600D01*
X15339999Y3974200D01*
Y3994520D02*
X15355240Y4009760D01*
X15370480D01*
X15355240Y4025000D01*
X15370480Y4040240D01*
X15355240D01*
X15339999Y4055480D01*
X15324760Y4040240D01*
X15309520D01*
X15324760Y4025000D01*
X15309520Y4009760D01*
X15324760D01*
X15339999Y3994520D01*
X13564859Y8268979D02*
X13590259Y8294379D01*
X13615659D01*
X13590259Y8319779D01*
X13615659Y8345179D01*
X13590259D01*
X13564859Y8370579D01*
X13539459Y8345179D01*
X13514059D01*
X13539459Y8319779D01*
X13514059Y8294379D01*
X13539459D01*
X13564859Y8268979D01*
Y8289299D02*
X13580099Y8304539D01*
X13595338D01*
X13580099Y8319779D01*
X13595338Y8335019D01*
X13580099D01*
X13564859Y8350259D01*
X13549619Y8335019D01*
X13534380D01*
X13549619Y8319779D01*
X13534380Y8304539D01*
X13549619D01*
X13564859Y8289299D01*
X12622785Y10031399D02*
X12648185Y10056799D01*
X12673585D01*
X12648185Y10082199D01*
X12673585Y10107599D01*
X12648185D01*
X12622785Y10132999D01*
X12597385Y10107599D01*
X12571985D01*
X12597385Y10082199D01*
X12571985Y10056799D01*
X12597385D01*
X12622785Y10031399D01*
Y10051719D02*
X12638025Y10066959D01*
X12653265D01*
X12638025Y10082199D01*
X12653265Y10097439D01*
X12638025D01*
X12622785Y10112679D01*
X12607545Y10097439D01*
X12592305D01*
X12607545Y10082199D01*
X12592305Y10066959D01*
X12607545D01*
X12622785Y10051719D01*
X15025000Y10049200D02*
X15050400Y10074600D01*
X15075800D01*
X15050400Y10100000D01*
X15075800Y10125400D01*
X15050400D01*
X15025000Y10150800D01*
X14999600Y10125400D01*
X14974200D01*
X14999600Y10100000D01*
X14974200Y10074600D01*
X14999600D01*
X15025000Y10049200D01*
Y10069520D02*
X15040240Y10084760D01*
X15055479D01*
X15040240Y10100000D01*
X15055479Y10115240D01*
X15040240D01*
X15025000Y10130480D01*
X15009760Y10115240D01*
X14994521D01*
X15009760Y10100000D01*
X14994521Y10084760D01*
X15009760D01*
X15025000Y10069520D01*
X16125000Y5974200D02*
X16150400Y5999600D01*
X16175800D01*
X16150400Y6025000D01*
X16175800Y6050400D01*
X16150400D01*
X16125000Y6075800D01*
X16099600Y6050400D01*
X16074200D01*
X16099600Y6025000D01*
X16074200Y5999600D01*
X16099600D01*
X16125000Y5974200D01*
Y5994520D02*
X16140240Y6009760D01*
X16155479D01*
X16140240Y6025000D01*
X16155479Y6040240D01*
X16140240D01*
X16125000Y6055480D01*
X16109760Y6040240D01*
X16094521D01*
X16109760Y6025000D01*
X16094521Y6009760D01*
X16109760D01*
X16125000Y5994520D01*
X16075000Y5449200D02*
X16100400Y5474600D01*
X16125800D01*
X16100400Y5500000D01*
X16125800Y5525400D01*
X16100400D01*
X16075000Y5550800D01*
X16049600Y5525400D01*
X16024200D01*
X16049600Y5500000D01*
X16024200Y5474600D01*
X16049600D01*
X16075000Y5449200D01*
Y5469520D02*
X16090240Y5484760D01*
X16105479D01*
X16090240Y5500000D01*
X16105479Y5515240D01*
X16090240D01*
X16075000Y5530480D01*
X16059760Y5515240D01*
X16044521D01*
X16059760Y5500000D01*
X16044521Y5484760D01*
X16059760D01*
X16075000Y5469520D01*
X15075000Y5024200D02*
X15100400Y5049600D01*
X15125800D01*
X15100400Y5075000D01*
X15125800Y5100400D01*
X15100400D01*
X15075000Y5125800D01*
X15049600Y5100400D01*
X15024200D01*
X15049600Y5075000D01*
X15024200Y5049600D01*
X15049600D01*
X15075000Y5024200D01*
Y5044520D02*
X15090240Y5059760D01*
X15105479D01*
X15090240Y5075000D01*
X15105479Y5090240D01*
X15090240D01*
X15075000Y5105480D01*
X15059760Y5090240D01*
X15044521D01*
X15059760Y5075000D01*
X15044521Y5059760D01*
X15059760D01*
X15075000Y5044520D01*
X2275000Y8424200D02*
X2300400Y8449600D01*
X2325800D01*
X2300400Y8475000D01*
X2325800Y8500400D01*
X2300400D01*
X2275000Y8525800D01*
X2249600Y8500400D01*
X2224200D01*
X2249600Y8475000D01*
X2224200Y8449600D01*
X2249600D01*
X2275000Y8424200D01*
Y8444520D02*
X2290240Y8459760D01*
X2305480D01*
X2290240Y8475000D01*
X2305480Y8490240D01*
X2290240D01*
X2275000Y8505480D01*
X2259760Y8490240D01*
X2244520D01*
X2259760Y8475000D01*
X2244520Y8459760D01*
X2259760D01*
X2275000Y8444520D01*
X13102444Y8829631D02*
X13127844Y8855031D01*
X13153246D01*
X13127844Y8880431D01*
X13153246Y8905831D01*
X13127844D01*
X13102444Y8931231D01*
X13077045Y8905831D01*
X13051645D01*
X13077045Y8880431D01*
X13051645Y8855031D01*
X13077045D01*
X13102444Y8829631D01*
Y8849951D02*
X13117685Y8865191D01*
X13132925D01*
X13117685Y8880431D01*
X13132925Y8895671D01*
X13117685D01*
X13102444Y8910911D01*
X13087206Y8895671D01*
X13071965D01*
X13087206Y8880431D01*
X13071965Y8865191D01*
X13087206D01*
X13102444Y8849951D01*
X12950000Y8299200D02*
X12975400Y8324600D01*
X13000800D01*
X12975400Y8350000D01*
X13000800Y8375400D01*
X12975400D01*
X12950000Y8400800D01*
X12924600Y8375400D01*
X12899200D01*
X12924600Y8350000D01*
X12899200Y8324600D01*
X12924600D01*
X12950000Y8299200D01*
Y8319520D02*
X12965240Y8334760D01*
X12980479D01*
X12965240Y8350000D01*
X12980479Y8365240D01*
X12965240D01*
X12950000Y8380480D01*
X12934760Y8365240D01*
X12919521D01*
X12934760Y8350000D01*
X12919521Y8334760D01*
X12934760D01*
X12950000Y8319520D01*
X14461703Y4659321D02*
X14487103Y4684721D01*
X14512503D01*
X14487103Y4710121D01*
X14512503Y4735521D01*
X14487103D01*
X14461703Y4760921D01*
X14436304Y4735521D01*
X14410902D01*
X14436304Y4710121D01*
X14410902Y4684721D01*
X14436304D01*
X14461703Y4659321D01*
Y4679641D02*
X14476942Y4694881D01*
X14492183D01*
X14476942Y4710121D01*
X14492183Y4725361D01*
X14476942D01*
X14461703Y4740601D01*
X14446463Y4725361D01*
X14431223D01*
X14446463Y4710121D01*
X14431223Y4694881D01*
X14446463D01*
X14461703Y4679641D01*
X14925000Y5949200D02*
X14950400Y5974600D01*
X14975800D01*
X14950400Y6000000D01*
X14975800Y6025400D01*
X14950400D01*
X14925000Y6050800D01*
X14899600Y6025400D01*
X14874200D01*
X14899600Y6000000D01*
X14874200Y5974600D01*
X14899600D01*
X14925000Y5949200D01*
Y5969520D02*
X14940240Y5984760D01*
X14955479D01*
X14940240Y6000000D01*
X14955479Y6015240D01*
X14940240D01*
X14925000Y6030480D01*
X14909760Y6015240D01*
X14894521D01*
X14909760Y6000000D01*
X14894521Y5984760D01*
X14909760D01*
X14925000Y5969520D01*
Y5774200D02*
X14950400Y5799600D01*
X14975800D01*
X14950400Y5825000D01*
X14975800Y5850400D01*
X14950400D01*
X14925000Y5875800D01*
X14899600Y5850400D01*
X14874200D01*
X14899600Y5825000D01*
X14874200Y5799600D01*
X14899600D01*
X14925000Y5774200D01*
Y5794520D02*
X14940240Y5809760D01*
X14955479D01*
X14940240Y5825000D01*
X14955479Y5840240D01*
X14940240D01*
X14925000Y5855480D01*
X14909760Y5840240D01*
X14894521D01*
X14909760Y5825000D01*
X14894521Y5809760D01*
X14909760D01*
X14925000Y5794520D01*
X16775000Y8468869D02*
X16800400Y8494269D01*
X16825800D01*
X16800400Y8519669D01*
X16825800Y8545069D01*
X16800400D01*
X16775000Y8570469D01*
X16749600Y8545069D01*
X16724200D01*
X16749600Y8519669D01*
X16724200Y8494269D01*
X16749600D01*
X16775000Y8468869D01*
Y8489189D02*
X16790240Y8504429D01*
X16805479D01*
X16790240Y8519669D01*
X16805479Y8534909D01*
X16790240D01*
X16775000Y8550149D01*
X16759760Y8534909D01*
X16744521D01*
X16759760Y8519669D01*
X16744521Y8504429D01*
X16759760D01*
X16775000Y8489189D01*
X9799200Y11249200D02*
Y11350800D01*
X9900800D01*
Y11249200D01*
X9799200D01*
X9819520Y11269520D02*
Y11330480D01*
X9880480D01*
Y11269520D01*
X9819520D01*
X9799200Y10649200D02*
Y10750800D01*
X9900800D01*
Y10649200D01*
X9799200D01*
X9819520Y10669520D02*
Y10730480D01*
X9880480D01*
Y10669520D01*
X9819520D01*
X9099200Y10649200D02*
Y10750800D01*
X9200800D01*
Y10649200D01*
X9099200D01*
X9119520Y10669520D02*
Y10730480D01*
X9180480D01*
Y10669520D01*
X9119520D01*
X9099200Y11249200D02*
Y11350800D01*
X9200800D01*
Y11249200D01*
X9099200D01*
X9119520Y11269520D02*
Y11330480D01*
X9180480D01*
Y11269520D01*
X9119520D01*
X12100000Y3149200D02*
X12125400Y3174600D01*
X12150800D01*
X12125400Y3200000D01*
X12150800Y3225400D01*
X12125400D01*
X12100000Y3250800D01*
X12074600Y3225400D01*
X12049200D01*
X12074600Y3200000D01*
X12049200Y3174600D01*
X12074600D01*
X12100000Y3149200D01*
Y3169520D02*
X12115240Y3184760D01*
X12130480D01*
X12115240Y3200000D01*
X12130480Y3215240D01*
X12115240D01*
X12100000Y3230480D01*
X12084760Y3215240D01*
X12069520D01*
X12084760Y3200000D01*
X12069520Y3184760D01*
X12084760D01*
X12100000Y3169520D01*
Y3799200D02*
X12125400Y3824600D01*
X12150800D01*
X12125400Y3850000D01*
X12150800Y3875400D01*
X12125400D01*
X12100000Y3900800D01*
X12074600Y3875400D01*
X12049200D01*
X12074600Y3850000D01*
X12049200Y3824600D01*
X12074600D01*
X12100000Y3799200D01*
Y3819520D02*
X12115240Y3834760D01*
X12130480D01*
X12115240Y3850000D01*
X12130480Y3865240D01*
X12115240D01*
X12100000Y3880480D01*
X12084760Y3865240D01*
X12069520D01*
X12084760Y3850000D01*
X12069520Y3834760D01*
X12084760D01*
X12100000Y3819520D01*
X9799200Y724200D02*
Y825800D01*
X9900800D01*
Y724200D01*
X9799200D01*
X9819520Y744520D02*
Y805480D01*
X9880480D01*
Y744520D01*
X9819520D01*
X9099200Y724200D02*
Y825800D01*
X9200800D01*
Y724200D01*
X9099200D01*
X9119520Y744520D02*
Y805480D01*
X9180480D01*
Y744520D01*
X9119520D01*
X9799200Y124200D02*
Y225800D01*
X9900800D01*
Y124200D01*
X9799200D01*
X9819520Y144520D02*
Y205480D01*
X9880480D01*
Y144520D01*
X9819520D01*
X9099200Y124200D02*
Y225800D01*
X9200800D01*
Y124200D01*
X9099200D01*
X9119520Y144520D02*
Y205480D01*
X9180480D01*
Y144520D01*
X9119520D01*
X4756568Y4549200D02*
Y4650800D01*
X4858168D01*
Y4549200D01*
X4756568D01*
X4776888Y4569520D02*
Y4630480D01*
X4837848D01*
Y4569520D01*
X4776888D01*
X4010307Y4549200D02*
Y4650800D01*
X4111907D01*
Y4549200D01*
X4010307D01*
X4030627Y4569520D02*
Y4630480D01*
X4091587D01*
Y4569520D01*
X4030627D01*
X4799200Y749200D02*
Y850800D01*
X4900800D01*
Y749200D01*
X4799200D01*
X4819520Y769520D02*
Y830480D01*
X4880480D01*
Y769520D01*
X4819520D01*
X4099200Y749200D02*
Y850800D01*
X4200800D01*
Y749200D01*
X4099200D01*
X4119520Y769520D02*
Y830480D01*
X4180480D01*
Y769520D01*
X4119520D01*
X4799200Y149200D02*
Y250800D01*
X4900800D01*
Y149200D01*
X4799200D01*
X4819520Y169520D02*
Y230480D01*
X4880480D01*
Y169520D01*
X4819520D01*
X4099200Y149200D02*
Y250800D01*
X4200800D01*
Y149200D01*
X4099200D01*
X4119520Y169520D02*
Y230480D01*
X4180480D01*
Y169520D01*
X4119520D01*
X9475000Y5849200D02*
X9500400Y5874600D01*
X9525800D01*
X9500400Y5900000D01*
X9525800Y5925400D01*
X9500400D01*
X9475000Y5950800D01*
X9449600Y5925400D01*
X9424200D01*
X9449600Y5900000D01*
X9424200Y5874600D01*
X9449600D01*
X9475000Y5849200D01*
Y5869520D02*
X9490240Y5884760D01*
X9505480D01*
X9490240Y5900000D01*
X9505480Y5915240D01*
X9490240D01*
X9475000Y5930480D01*
X9459760Y5915240D01*
X9444520D01*
X9459760Y5900000D01*
X9444520Y5884760D01*
X9459760D01*
X9475000Y5869520D01*
X12275000Y5249200D02*
X12300400Y5274600D01*
X12325800D01*
X12300400Y5300000D01*
X12325800Y5325400D01*
X12300400D01*
X12275000Y5350800D01*
X12249600Y5325400D01*
X12224200D01*
X12249600Y5300000D01*
X12224200Y5274600D01*
X12249600D01*
X12275000Y5249200D01*
Y5269520D02*
X12290240Y5284760D01*
X12305480D01*
X12290240Y5300000D01*
X12305480Y5315240D01*
X12290240D01*
X12275000Y5330480D01*
X12259760Y5315240D01*
X12244520D01*
X12259760Y5300000D01*
X12244520Y5284760D01*
X12259760D01*
X12275000Y5269520D01*
Y6032281D02*
X12300400Y6057681D01*
X12325800D01*
X12300400Y6083081D01*
X12325800Y6108481D01*
X12300400D01*
X12275000Y6133881D01*
X12249600Y6108481D01*
X12224200D01*
X12249600Y6083081D01*
X12224200Y6057681D01*
X12249600D01*
X12275000Y6032281D01*
Y6052601D02*
X12290240Y6067841D01*
X12305480D01*
X12290240Y6083081D01*
X12305480Y6098321D01*
X12290240D01*
X12275000Y6113561D01*
X12259760Y6098321D01*
X12244520D01*
X12259760Y6083081D01*
X12244520Y6067841D01*
X12259760D01*
X12275000Y6052601D01*
X13300000Y6424200D02*
X13325400Y6449600D01*
X13350800D01*
X13325400Y6475000D01*
X13350800Y6500400D01*
X13325400D01*
X13300000Y6525800D01*
X13274600Y6500400D01*
X13249200D01*
X13274600Y6475000D01*
X13249200Y6449600D01*
X13274600D01*
X13300000Y6424200D01*
Y6444520D02*
X13315240Y6459760D01*
X13330479D01*
X13315240Y6475000D01*
X13330479Y6490240D01*
X13315240D01*
X13300000Y6505480D01*
X13284760Y6490240D01*
X13269521D01*
X13284760Y6475000D01*
X13269521Y6459760D01*
X13284760D01*
X13300000Y6444520D01*
X13617300Y6800085D02*
X13642700Y6825485D01*
X13668100D01*
X13642700Y6850885D01*
X13668100Y6876285D01*
X13642700D01*
X13617300Y6901685D01*
X13591901Y6876285D01*
X13566499D01*
X13591901Y6850885D01*
X13566499Y6825485D01*
X13591901D01*
X13617300Y6800085D01*
Y6820405D02*
X13632539Y6835645D01*
X13647780D01*
X13632539Y6850885D01*
X13647780Y6866125D01*
X13632539D01*
X13617300Y6881365D01*
X13602060Y6866125D01*
X13586819D01*
X13602060Y6850885D01*
X13586819Y6835645D01*
X13602060D01*
X13617300Y6820405D01*
X12450581Y6302337D02*
X12475981Y6327737D01*
X12501381D01*
X12475981Y6353137D01*
X12501381Y6378537D01*
X12475981D01*
X12450581Y6403937D01*
X12425181Y6378537D01*
X12399781D01*
X12425181Y6353137D01*
X12399781Y6327737D01*
X12425181D01*
X12450581Y6302337D01*
Y6322657D02*
X12465821Y6337897D01*
X12481061D01*
X12465821Y6353137D01*
X12481061Y6368377D01*
X12465821D01*
X12450581Y6383617D01*
X12435341Y6368377D01*
X12420101D01*
X12435341Y6353137D01*
X12420101Y6337897D01*
X12435341D01*
X12450581Y6322657D01*
X12661163Y6649200D02*
X12686563Y6674600D01*
X12711963D01*
X12686563Y6700000D01*
X12711963Y6725400D01*
X12686563D01*
X12661163Y6750800D01*
X12635763Y6725400D01*
X12610363D01*
X12635763Y6700000D01*
X12610363Y6674600D01*
X12635763D01*
X12661163Y6649200D01*
Y6669520D02*
X12676403Y6684760D01*
X12691643D01*
X12676403Y6700000D01*
X12691643Y6715240D01*
X12676403D01*
X12661163Y6730480D01*
X12645923Y6715240D01*
X12630683D01*
X12645923Y6700000D01*
X12630683Y6684760D01*
X12645923D01*
X12661163Y6669520D01*
Y6302337D02*
X12686563Y6327737D01*
X12711963D01*
X12686563Y6353137D01*
X12711963Y6378537D01*
X12686563D01*
X12661163Y6403937D01*
X12635763Y6378537D01*
X12610363D01*
X12635763Y6353137D01*
X12610363Y6327737D01*
X12635763D01*
X12661163Y6302337D01*
Y6322657D02*
X12676403Y6337897D01*
X12691643D01*
X12676403Y6353137D01*
X12691643Y6368377D01*
X12676403D01*
X12661163Y6383617D01*
X12645923Y6368377D01*
X12630683D01*
X12645923Y6353137D01*
X12630683Y6337897D01*
X12645923D01*
X12661163Y6322657D01*
X13550000Y6308745D02*
X13575400Y6334145D01*
X13600800D01*
X13575400Y6359545D01*
X13600800Y6384945D01*
X13575400D01*
X13550000Y6410345D01*
X13524600Y6384945D01*
X13499200D01*
X13524600Y6359545D01*
X13499200Y6334145D01*
X13524600D01*
X13550000Y6308745D01*
Y6329065D02*
X13565240Y6344305D01*
X13580479D01*
X13565240Y6359545D01*
X13580479Y6374785D01*
X13565240D01*
X13550000Y6390025D01*
X13534760Y6374785D01*
X13519521D01*
X13534760Y6359545D01*
X13519521Y6344305D01*
X13534760D01*
X13550000Y6329065D01*
X13552345Y6093471D02*
X13577745Y6118871D01*
X13603145D01*
X13577745Y6144271D01*
X13603145Y6169671D01*
X13577745D01*
X13552345Y6195071D01*
X13526945Y6169671D01*
X13501546D01*
X13526945Y6144271D01*
X13501546Y6118871D01*
X13526945D01*
X13552345Y6093471D01*
Y6113791D02*
X13567586Y6129031D01*
X13582825D01*
X13567586Y6144271D01*
X13582825Y6159511D01*
X13567586D01*
X13552345Y6174751D01*
X13537105Y6159511D01*
X13521864D01*
X13537105Y6144271D01*
X13521864Y6129031D01*
X13537105D01*
X13552345Y6113791D01*
X12879626Y5199200D02*
X12905026Y5224600D01*
X12930426D01*
X12905026Y5250000D01*
X12930426Y5275400D01*
X12905026D01*
X12879626Y5300800D01*
X12854227Y5275400D01*
X12828825D01*
X12854227Y5250000D01*
X12828825Y5224600D01*
X12854227D01*
X12879626Y5199200D01*
Y5219520D02*
X12894865Y5234760D01*
X12910106D01*
X12894865Y5250000D01*
X12910106Y5265240D01*
X12894865D01*
X12879626Y5280480D01*
X12864386Y5265240D01*
X12849146D01*
X12864386Y5250000D01*
X12849146Y5234760D01*
X12864386D01*
X12879626Y5219520D01*
X11900000Y8472051D02*
X11925400Y8497451D01*
X11950800D01*
X11925400Y8522851D01*
X11950800Y8548251D01*
X11925400D01*
X11900000Y8573651D01*
X11874600Y8548251D01*
X11849200D01*
X11874600Y8522851D01*
X11849200Y8497451D01*
X11874600D01*
X11900000Y8472051D01*
Y8492371D02*
X11915240Y8507611D01*
X11930480D01*
X11915240Y8522851D01*
X11930480Y8538091D01*
X11915240D01*
X11900000Y8553331D01*
X11884760Y8538091D01*
X11869520D01*
X11884760Y8522851D01*
X11869520Y8507611D01*
X11884760D01*
X11900000Y8492371D01*
X17688219Y7074200D02*
X17713618Y7099600D01*
X17739018D01*
X17713618Y7125000D01*
X17739018Y7150400D01*
X17713618D01*
X17688219Y7175800D01*
X17662817Y7150400D01*
X17637418D01*
X17662817Y7125000D01*
X17637418Y7099600D01*
X17662817D01*
X17688219Y7074200D01*
Y7094520D02*
X17703458Y7109760D01*
X17718698D01*
X17703458Y7125000D01*
X17718698Y7140240D01*
X17703458D01*
X17688219Y7155480D01*
X17672978Y7140240D01*
X17657738D01*
X17672978Y7125000D01*
X17657738Y7109760D01*
X17672978D01*
X17688219Y7094520D01*
X17778375Y5974200D02*
X17803775Y5999600D01*
X17829175D01*
X17803775Y6025000D01*
X17829175Y6050400D01*
X17803775D01*
X17778375Y6075800D01*
X17752975Y6050400D01*
X17727576D01*
X17752975Y6025000D01*
X17727576Y5999600D01*
X17752975D01*
X17778375Y5974200D01*
Y5994520D02*
X17793616Y6009760D01*
X17808855D01*
X17793616Y6025000D01*
X17808855Y6040240D01*
X17793616D01*
X17778375Y6055480D01*
X17763135Y6040240D01*
X17747894D01*
X17763135Y6025000D01*
X17747894Y6009760D01*
X17763135D01*
X17778375Y5994520D01*
X17075000Y8124200D02*
X17100400Y8149600D01*
X17125800D01*
X17100400Y8175000D01*
X17125800Y8200400D01*
X17100400D01*
X17075000Y8225800D01*
X17049600Y8200400D01*
X17024200D01*
X17049600Y8175000D01*
X17024200Y8149600D01*
X17049600D01*
X17075000Y8124200D01*
Y8144520D02*
X17090240Y8159760D01*
X17105479D01*
X17090240Y8175000D01*
X17105479Y8190240D01*
X17090240D01*
X17075000Y8205480D01*
X17059760Y8190240D01*
X17044521D01*
X17059760Y8175000D01*
X17044521Y8159760D01*
X17059760D01*
X17075000Y8144520D01*
X17250000Y7062525D02*
X17275400Y7087925D01*
X17300800D01*
X17275400Y7113325D01*
X17300800Y7138725D01*
X17275400D01*
X17250000Y7164125D01*
X17224600Y7138725D01*
X17199200D01*
X17224600Y7113325D01*
X17199200Y7087925D01*
X17224600D01*
X17250000Y7062525D01*
Y7082845D02*
X17265240Y7098085D01*
X17280479D01*
X17265240Y7113325D01*
X17280479Y7128565D01*
X17265240D01*
X17250000Y7143805D01*
X17234760Y7128565D01*
X17219521D01*
X17234760Y7113325D01*
X17219521Y7098085D01*
X17234760D01*
X17250000Y7082845D01*
X13778465Y5755388D02*
X13803867Y5780788D01*
X13829266D01*
X13803867Y5806188D01*
X13829266Y5831588D01*
X13803867D01*
X13778465Y5856988D01*
X13753065Y5831588D01*
X13727666D01*
X13753065Y5806188D01*
X13727666Y5780788D01*
X13753065D01*
X13778465Y5755388D01*
Y5775708D02*
X13793706Y5790948D01*
X13808946D01*
X13793706Y5806188D01*
X13808946Y5821428D01*
X13793706D01*
X13778465Y5836668D01*
X13763226Y5821428D01*
X13747986D01*
X13763226Y5806188D01*
X13747986Y5790948D01*
X13763226D01*
X13778465Y5775708D01*
X13825000Y5582583D02*
X13850400Y5607983D01*
X13875800D01*
X13850400Y5633383D01*
X13875800Y5658783D01*
X13850400D01*
X13825000Y5684183D01*
X13799600Y5658783D01*
X13774200D01*
X13799600Y5633383D01*
X13774200Y5607983D01*
X13799600D01*
X13825000Y5582583D01*
Y5602903D02*
X13840240Y5618143D01*
X13855479D01*
X13840240Y5633383D01*
X13855479Y5648623D01*
X13840240D01*
X13825000Y5663863D01*
X13809760Y5648623D01*
X13794521D01*
X13809760Y5633383D01*
X13794521Y5618143D01*
X13809760D01*
X13825000Y5602903D01*
X15700000Y9530988D02*
X15725400Y9556388D01*
X15750800D01*
X15725400Y9581788D01*
X15750800Y9607188D01*
X15725400D01*
X15700000Y9632588D01*
X15674600Y9607188D01*
X15649200D01*
X15674600Y9581788D01*
X15649200Y9556388D01*
X15674600D01*
X15700000Y9530988D01*
Y9551308D02*
X15715240Y9566548D01*
X15730479D01*
X15715240Y9581788D01*
X15730479Y9597028D01*
X15715240D01*
X15700000Y9612268D01*
X15684760Y9597028D01*
X15669521D01*
X15684760Y9581788D01*
X15669521Y9566548D01*
X15684760D01*
X15700000Y9551308D01*
X15400000Y9349200D02*
X15425400Y9374600D01*
X15450800D01*
X15425400Y9400000D01*
X15450800Y9425400D01*
X15425400D01*
X15400000Y9450800D01*
X15374600Y9425400D01*
X15349200D01*
X15374600Y9400000D01*
X15349200Y9374600D01*
X15374600D01*
X15400000Y9349200D01*
Y9369520D02*
X15415240Y9384760D01*
X15430479D01*
X15415240Y9400000D01*
X15430479Y9415240D01*
X15415240D01*
X15400000Y9430480D01*
X15384760Y9415240D01*
X15369521D01*
X15384760Y9400000D01*
X15369521Y9384760D01*
X15384760D01*
X15400000Y9369520D01*
X15955000Y9499200D02*
X15980400Y9524600D01*
X16005800D01*
X15980400Y9550000D01*
X16005800Y9575400D01*
X15980400D01*
X15955000Y9600800D01*
X15929601Y9575400D01*
X15904201D01*
X15929601Y9550000D01*
X15904201Y9524600D01*
X15929601D01*
X15955000Y9499200D01*
Y9519520D02*
X15970239Y9534760D01*
X15985480D01*
X15970239Y9550000D01*
X15985480Y9565240D01*
X15970239D01*
X15955000Y9580480D01*
X15939760Y9565240D01*
X15924519D01*
X15939760Y9550000D01*
X15924519Y9534760D01*
X15939760D01*
X15955000Y9519520D01*
X15925000Y9886896D02*
X15950400Y9912296D01*
X15975800D01*
X15950400Y9937696D01*
X15975800Y9963096D01*
X15950400D01*
X15925000Y9988496D01*
X15899600Y9963096D01*
X15874200D01*
X15899600Y9937696D01*
X15874200Y9912296D01*
X15899600D01*
X15925000Y9886896D01*
Y9907216D02*
X15940240Y9922456D01*
X15955479D01*
X15940240Y9937696D01*
X15955479Y9952936D01*
X15940240D01*
X15925000Y9968176D01*
X15909760Y9952936D01*
X15894521D01*
X15909760Y9937696D01*
X15894521Y9922456D01*
X15909760D01*
X15925000Y9907216D01*
X15325000Y7099200D02*
X15350400Y7124600D01*
X15375800D01*
X15350400Y7150000D01*
X15375800Y7175400D01*
X15350400D01*
X15325000Y7200800D01*
X15299600Y7175400D01*
X15274200D01*
X15299600Y7150000D01*
X15274200Y7124600D01*
X15299600D01*
X15325000Y7099200D01*
Y7119520D02*
X15340240Y7134760D01*
X15355479D01*
X15340240Y7150000D01*
X15355479Y7165240D01*
X15340240D01*
X15325000Y7180480D01*
X15309760Y7165240D01*
X15294521D01*
X15309760Y7150000D01*
X15294521Y7134760D01*
X15309760D01*
X15325000Y7119520D01*
X20949200Y7199200D02*
X20974600Y7250000D01*
X20949200Y7300800D01*
X21000000Y7275400D01*
X21050800Y7300800D01*
X21025400Y7250000D01*
X21050800Y7199200D01*
X21000000Y7224600D01*
X20949200Y7199200D01*
X20969521Y7219520D02*
X20984760Y7250000D01*
X20969521Y7280480D01*
X21000000Y7265240D01*
X21030479Y7280480D01*
X21015240Y7250000D01*
X21030479Y7219520D01*
X21000000Y7234760D01*
X20969521Y7219520D01*
X20949200Y6899200D02*
X20974600Y6950000D01*
X20949200Y7000800D01*
X21000000Y6975400D01*
X21050800Y7000800D01*
X21025400Y6950000D01*
X21050800Y6899200D01*
X21000000Y6924600D01*
X20949200Y6899200D01*
X20969521Y6919520D02*
X20984760Y6950000D01*
X20969521Y6980480D01*
X21000000Y6965240D01*
X21030479Y6980480D01*
X21015240Y6950000D01*
X21030479Y6919520D01*
X21000000Y6934760D01*
X20969521Y6919520D01*
X20949200Y7049200D02*
X20974600Y7100000D01*
X20949200Y7150800D01*
X21000000Y7125400D01*
X21050800Y7150800D01*
X21025400Y7100000D01*
X21050800Y7049200D01*
X21000000Y7074600D01*
X20949200Y7049200D01*
X20969521Y7069520D02*
X20984760Y7100000D01*
X20969521Y7130480D01*
X21000000Y7115240D01*
X21030479Y7130480D01*
X21015240Y7100000D01*
X21030479Y7069520D01*
X21000000Y7084760D01*
X20969521Y7069520D01*
X16870000Y9039200D02*
X16895399Y9064600D01*
X16920799D01*
X16895399Y9090000D01*
X16920799Y9115400D01*
X16895399D01*
X16870000Y9140800D01*
X16844600Y9115400D01*
X16819200D01*
X16844600Y9090000D01*
X16819200Y9064600D01*
X16844600D01*
X16870000Y9039200D01*
Y9059520D02*
X16885240Y9074760D01*
X16900481D01*
X16885240Y9090000D01*
X16900481Y9105240D01*
X16885240D01*
X16870000Y9120480D01*
X16854761Y9105240D01*
X16839520D01*
X16854761Y9090000D01*
X16839520Y9074760D01*
X16854761D01*
X16870000Y9059520D01*
X17100000Y7049200D02*
X17125400Y7074600D01*
X17150800D01*
X17125400Y7100000D01*
X17150800Y7125400D01*
X17125400D01*
X17100000Y7150800D01*
X17074600Y7125400D01*
X17049200D01*
X17074600Y7100000D01*
X17049200Y7074600D01*
X17074600D01*
X17100000Y7049200D01*
Y7069520D02*
X17115240Y7084760D01*
X17130479D01*
X17115240Y7100000D01*
X17130479Y7115240D01*
X17115240D01*
X17100000Y7130480D01*
X17084760Y7115240D01*
X17069521D01*
X17084760Y7100000D01*
X17069521Y7084760D01*
X17084760D01*
X17100000Y7069520D01*
X20949200Y5624200D02*
X20974600Y5675000D01*
X20949200Y5725800D01*
X21000000Y5700400D01*
X21050800Y5725800D01*
X21025400Y5675000D01*
X21050800Y5624200D01*
X21000000Y5649600D01*
X20949200Y5624200D01*
X20969521Y5644520D02*
X20984760Y5675000D01*
X20969521Y5705480D01*
X21000000Y5690240D01*
X21030479Y5705480D01*
X21015240Y5675000D01*
X21030479Y5644520D01*
X21000000Y5659760D01*
X20969521Y5644520D01*
X20949200Y5474200D02*
X20974600Y5525000D01*
X20949200Y5575800D01*
X21000000Y5550400D01*
X21050800Y5575800D01*
X21025400Y5525000D01*
X21050800Y5474200D01*
X21000000Y5499600D01*
X20949200Y5474200D01*
X20969521Y5494520D02*
X20984760Y5525000D01*
X20969521Y5555480D01*
X21000000Y5540240D01*
X21030479Y5555480D01*
X21015240Y5525000D01*
X21030479Y5494520D01*
X21000000Y5509760D01*
X20969521Y5494520D01*
X20949200Y5774200D02*
X20974600Y5825000D01*
X20949200Y5875800D01*
X21000000Y5850400D01*
X21050800Y5875800D01*
X21025400Y5825000D01*
X21050800Y5774200D01*
X21000000Y5799600D01*
X20949200Y5774200D01*
X20969521Y5794520D02*
X20984760Y5825000D01*
X20969521Y5855480D01*
X21000000Y5840240D01*
X21030479Y5855480D01*
X21015240Y5825000D01*
X21030479Y5794520D01*
X21000000Y5809760D01*
X20969521Y5794520D01*
X20649503Y4354200D02*
X20674902Y4405000D01*
X20649503Y4455800D01*
X20700304Y4430400D01*
X20751103Y4455800D01*
X20725703Y4405000D01*
X20751103Y4354200D01*
X20700304Y4379600D01*
X20649503Y4354200D01*
X20669823Y4374520D02*
X20685063Y4405000D01*
X20669823Y4435480D01*
X20700304Y4420240D01*
X20730783Y4435480D01*
X20715543Y4405000D01*
X20730783Y4374520D01*
X20700304Y4389760D01*
X20669823Y4374520D01*
X20849200Y4354200D02*
X20874600Y4405000D01*
X20849200Y4455800D01*
X20900000Y4430400D01*
X20950800Y4455800D01*
X20925400Y4405000D01*
X20950800Y4354200D01*
X20900000Y4379600D01*
X20849200Y4354200D01*
X20869521Y4374520D02*
X20884760Y4405000D01*
X20869521Y4435480D01*
X20900000Y4420240D01*
X20930479Y4435480D01*
X20915240Y4405000D01*
X20930479Y4374520D01*
X20900000Y4389760D01*
X20869521Y4374520D01*
X21049200Y4354200D02*
X21074600Y4405000D01*
X21049200Y4455800D01*
X21100000Y4430400D01*
X21150800Y4455800D01*
X21125400Y4405000D01*
X21150800Y4354200D01*
X21100000Y4379600D01*
X21049200Y4354200D01*
X21069521Y4374520D02*
X21084760Y4405000D01*
X21069521Y4435480D01*
X21100000Y4420240D01*
X21130479Y4435480D01*
X21115240Y4405000D01*
X21130479Y4374520D01*
X21100000Y4389760D01*
X21069521Y4374520D01*
X17011617Y6311400D02*
X17037016Y6336800D01*
X17062416D01*
X17037016Y6362200D01*
X17062416Y6387600D01*
X17037016D01*
X17011617Y6413000D01*
X16986217Y6387600D01*
X16960815D01*
X16986217Y6362200D01*
X16960815Y6336800D01*
X16986217D01*
X17011617Y6311400D01*
Y6331720D02*
X17026855Y6346960D01*
X17042096D01*
X17026855Y6362200D01*
X17042096Y6377440D01*
X17026855D01*
X17011617Y6392680D01*
X16996376Y6377440D01*
X16981136D01*
X16996376Y6362200D01*
X16981136Y6346960D01*
X16996376D01*
X17011617Y6331720D01*
X16380000Y9399200D02*
X16405400Y9424600D01*
X16430800D01*
X16405400Y9450000D01*
X16430800Y9475400D01*
X16405400D01*
X16380000Y9500800D01*
X16354601Y9475400D01*
X16329201D01*
X16354601Y9450000D01*
X16329201Y9424600D01*
X16354601D01*
X16380000Y9399200D01*
Y9419520D02*
X16395239Y9434760D01*
X16410480D01*
X16395239Y9450000D01*
X16410480Y9465240D01*
X16395239D01*
X16380000Y9480480D01*
X16364760Y9465240D01*
X16349519D01*
X16364760Y9450000D01*
X16349519Y9434760D01*
X16364760D01*
X16380000Y9419520D01*
X16325000Y8135401D02*
X16350400Y8160801D01*
X16375800D01*
X16350400Y8186201D01*
X16375800Y8211601D01*
X16350400D01*
X16325000Y8237001D01*
X16299600Y8211601D01*
X16274200D01*
X16299600Y8186201D01*
X16274200Y8160801D01*
X16299600D01*
X16325000Y8135401D01*
Y8155721D02*
X16340240Y8170961D01*
X16355479D01*
X16340240Y8186201D01*
X16355479Y8201441D01*
X16340240D01*
X16325000Y8216681D01*
X16309760Y8201441D01*
X16294521D01*
X16309760Y8186201D01*
X16294521Y8170961D01*
X16309760D01*
X16325000Y8155721D01*
X15849066Y7491400D02*
X15874466Y7516800D01*
X15899866D01*
X15874466Y7542200D01*
X15899866Y7567600D01*
X15874466D01*
X15849066Y7593000D01*
X15823666Y7567600D01*
X15798267D01*
X15823666Y7542200D01*
X15798267Y7516800D01*
X15823666D01*
X15849066Y7491400D01*
Y7511720D02*
X15864307Y7526960D01*
X15879546D01*
X15864307Y7542200D01*
X15879546Y7557440D01*
X15864307D01*
X15849066Y7572680D01*
X15833826Y7557440D01*
X15818587D01*
X15833826Y7542200D01*
X15818587Y7526960D01*
X15833826D01*
X15849066Y7511720D01*
X15851010Y7239300D02*
X15876410Y7264700D01*
X15901810D01*
X15876410Y7290100D01*
X15901810Y7315500D01*
X15876410D01*
X15851010Y7340900D01*
X15825610Y7315500D01*
X15800211D01*
X15825610Y7290100D01*
X15800211Y7264700D01*
X15825610D01*
X15851010Y7239300D01*
Y7259620D02*
X15866251Y7274860D01*
X15881490D01*
X15866251Y7290100D01*
X15881490Y7305340D01*
X15866251D01*
X15851010Y7320580D01*
X15835770Y7305340D01*
X15820531D01*
X15835770Y7290100D01*
X15820531Y7274860D01*
X15835770D01*
X15851010Y7259620D01*
X15849066Y7381400D02*
X15874466Y7406800D01*
X15899866D01*
X15874466Y7432200D01*
X15899866Y7457600D01*
X15874466D01*
X15849066Y7483000D01*
X15823666Y7457600D01*
X15798267D01*
X15823666Y7432200D01*
X15798267Y7406800D01*
X15823666D01*
X15849066Y7381400D01*
Y7401720D02*
X15864307Y7416960D01*
X15879546D01*
X15864307Y7432200D01*
X15879546Y7447440D01*
X15864307D01*
X15849066Y7462680D01*
X15833826Y7447440D01*
X15818587D01*
X15833826Y7432200D01*
X15818587Y7416960D01*
X15833826D01*
X15849066Y7401720D01*
Y7601400D02*
X15874466Y7626800D01*
X15899866D01*
X15874466Y7652200D01*
X15899866Y7677600D01*
X15874466D01*
X15849066Y7703000D01*
X15823666Y7677600D01*
X15798267D01*
X15823666Y7652200D01*
X15798267Y7626800D01*
X15823666D01*
X15849066Y7601400D01*
Y7621720D02*
X15864307Y7636960D01*
X15879546D01*
X15864307Y7652200D01*
X15879546Y7667440D01*
X15864307D01*
X15849066Y7682680D01*
X15833826Y7667440D01*
X15818587D01*
X15833826Y7652200D01*
X15818587Y7636960D01*
X15833826D01*
X15849066Y7621720D01*
X15851010Y6972984D02*
X15876410Y6998384D01*
X15901810D01*
X15876410Y7023784D01*
X15901810Y7049184D01*
X15876410D01*
X15851010Y7074584D01*
X15825610Y7049184D01*
X15800211D01*
X15825610Y7023784D01*
X15800211Y6998384D01*
X15825610D01*
X15851010Y6972984D01*
Y6993304D02*
X15866251Y7008544D01*
X15881490D01*
X15866251Y7023784D01*
X15881490Y7039024D01*
X15866251D01*
X15851010Y7054264D01*
X15835770Y7039024D01*
X15820531D01*
X15835770Y7023784D01*
X15820531Y7008544D01*
X15835770D01*
X15851010Y6993304D01*
X15958066Y6652839D02*
X15983466Y6678239D01*
X16008865D01*
X15983466Y6703639D01*
X16008865Y6729039D01*
X15983466D01*
X15958066Y6754439D01*
X15932666Y6729039D01*
X15907266D01*
X15932666Y6703639D01*
X15907266Y6678239D01*
X15932666D01*
X15958066Y6652839D01*
Y6673159D02*
X15973306Y6688399D01*
X15988547D01*
X15973306Y6703639D01*
X15988547Y6718879D01*
X15973306D01*
X15958066Y6734119D01*
X15942825Y6718879D01*
X15927586D01*
X15942825Y6703639D01*
X15927586Y6688399D01*
X15942825D01*
X15958066Y6673159D01*
X14500000Y7124200D02*
X14525400Y7149600D01*
X14550800D01*
X14525400Y7175000D01*
X14550800Y7200400D01*
X14525400D01*
X14500000Y7225800D01*
X14474600Y7200400D01*
X14449200D01*
X14474600Y7175000D01*
X14449200Y7149600D01*
X14474600D01*
X14500000Y7124200D01*
Y7144520D02*
X14515240Y7159760D01*
X14530479D01*
X14515240Y7175000D01*
X14530479Y7190240D01*
X14515240D01*
X14500000Y7205480D01*
X14484760Y7190240D01*
X14469521D01*
X14484760Y7175000D01*
X14469521Y7159760D01*
X14484760D01*
X14500000Y7144520D01*
X16589999Y2894312D02*
X16615401Y2919712D01*
X16640800D01*
X16615401Y2945112D01*
X16640800Y2970512D01*
X16615401D01*
X16589999Y2995912D01*
X16564600Y2970512D01*
X16539200D01*
X16564600Y2945112D01*
X16539200Y2919712D01*
X16564600D01*
X16589999Y2894312D01*
Y2914632D02*
X16605240Y2929872D01*
X16620480D01*
X16605240Y2945112D01*
X16620480Y2960352D01*
X16605240D01*
X16589999Y2975592D01*
X16574760Y2960352D01*
X16559520D01*
X16574760Y2945112D01*
X16559520Y2929872D01*
X16574760D01*
X16589999Y2914632D01*
X16500000Y3209200D02*
X16449200Y3310800D01*
X16550800D01*
X16500000Y3209200D01*
Y3229520D02*
X16469521Y3290480D01*
X16530479D01*
X16500000Y3229520D01*
Y3309200D02*
X16449200Y3410800D01*
X16550800D01*
X16500000Y3309200D01*
Y3329520D02*
X16469521Y3390480D01*
X16530479D01*
X16500000Y3329520D01*
X16400000Y3309200D02*
X16349200Y3410800D01*
X16450800D01*
X16400000Y3309200D01*
Y3329520D02*
X16369521Y3390480D01*
X16430479D01*
X16400000Y3329520D01*
Y3109200D02*
X16349200Y3210800D01*
X16450800D01*
X16400000Y3109200D01*
Y3129520D02*
X16369521Y3190480D01*
X16430479D01*
X16400000Y3129520D01*
Y3209200D02*
X16349200Y3310800D01*
X16450800D01*
X16400000Y3209200D01*
Y3229520D02*
X16369521Y3290480D01*
X16430479D01*
X16400000Y3229520D01*
X16500000Y3109200D02*
X16449200Y3210800D01*
X16550800D01*
X16500000Y3109200D01*
Y3129520D02*
X16469521Y3190480D01*
X16530479D01*
X16500000Y3129520D01*
X16416168Y2886925D02*
X16441568Y2912325D01*
X16466968D01*
X16441568Y2937725D01*
X16466968Y2963125D01*
X16441568D01*
X16416168Y2988525D01*
X16390768Y2963125D01*
X16365369D01*
X16390768Y2937725D01*
X16365369Y2912325D01*
X16390768D01*
X16416168Y2886925D01*
Y2907245D02*
X16431409Y2922485D01*
X16446648D01*
X16431409Y2937725D01*
X16446648Y2952965D01*
X16431409D01*
X16416168Y2968205D01*
X16400928Y2952965D01*
X16385687D01*
X16400928Y2937725D01*
X16385687Y2922485D01*
X16400928D01*
X16416168Y2907245D01*
X16474274Y729200D02*
X16423474Y830800D01*
X16525073D01*
X16474274Y729200D01*
Y749520D02*
X16443794Y810480D01*
X16504755D01*
X16474274Y749520D01*
Y829201D02*
X16423474Y930801D01*
X16525073D01*
X16474274Y829201D01*
Y849521D02*
X16443794Y910481D01*
X16504755D01*
X16474274Y849521D01*
Y929201D02*
X16423474Y1030801D01*
X16525073D01*
X16474274Y929201D01*
Y949521D02*
X16443794Y1010481D01*
X16504755D01*
X16474274Y949521D01*
X16300000Y3109200D02*
X16249200Y3210800D01*
X16350800D01*
X16300000Y3109200D01*
Y3129520D02*
X16269521Y3190480D01*
X16330479D01*
X16300000Y3129520D01*
Y3209200D02*
X16249200Y3310800D01*
X16350800D01*
X16300000Y3209200D01*
Y3229520D02*
X16269521Y3290480D01*
X16330479D01*
X16300000Y3229520D01*
Y3309200D02*
X16249200Y3410800D01*
X16350800D01*
X16300000Y3309200D01*
Y3329520D02*
X16269521Y3390480D01*
X16330479D01*
X16300000Y3329520D01*
X16242500Y2894312D02*
X16267900Y2919712D01*
X16293300D01*
X16267900Y2945112D01*
X16293300Y2970512D01*
X16267900D01*
X16242500Y2995912D01*
X16217101Y2970512D01*
X16191701D01*
X16217101Y2945112D01*
X16191701Y2919712D01*
X16217101D01*
X16242500Y2894312D01*
Y2914632D02*
X16257739Y2929872D01*
X16272980D01*
X16257739Y2945112D01*
X16272980Y2960352D01*
X16257739D01*
X16242500Y2975592D01*
X16227260Y2960352D01*
X16212019D01*
X16227260Y2945112D01*
X16212019Y2929872D01*
X16227260D01*
X16242500Y2914632D01*
X14770001Y3859200D02*
X14795401Y3884600D01*
X14820801D01*
X14795401Y3910000D01*
X14820801Y3935400D01*
X14795401D01*
X14770001Y3960800D01*
X14744601Y3935400D01*
X14719202D01*
X14744601Y3910000D01*
X14719202Y3884600D01*
X14744601D01*
X14770001Y3859200D01*
Y3879520D02*
X14785242Y3894760D01*
X14800481D01*
X14785242Y3910000D01*
X14800481Y3925240D01*
X14785242D01*
X14770001Y3940480D01*
X14754761Y3925240D01*
X14739520D01*
X14754761Y3910000D01*
X14739520Y3894760D01*
X14754761D01*
X14770001Y3879520D01*
X16374274Y929201D02*
X16323474Y1030801D01*
X16425073D01*
X16374274Y929201D01*
Y949521D02*
X16343794Y1010481D01*
X16404755D01*
X16374274Y949521D01*
X16274274Y829201D02*
X16223474Y930801D01*
X16325073D01*
X16274274Y829201D01*
Y849521D02*
X16243794Y910481D01*
X16304755D01*
X16274274Y849521D01*
Y929201D02*
X16223474Y1030801D01*
X16325073D01*
X16274274Y929201D01*
Y949521D02*
X16243794Y1010481D01*
X16304755D01*
X16274274Y949521D01*
X16374274Y829201D02*
X16323474Y930801D01*
X16425073D01*
X16374274Y829201D01*
Y849521D02*
X16343794Y910481D01*
X16404755D01*
X16374274Y849521D01*
Y729200D02*
X16323474Y830800D01*
X16425073D01*
X16374274Y729200D01*
Y749520D02*
X16343794Y810480D01*
X16404755D01*
X16374274Y749520D01*
X16274274Y729200D02*
X16223474Y830800D01*
X16325073D01*
X16274274Y729200D01*
Y749520D02*
X16243794Y810480D01*
X16304755D01*
X16274274Y749520D01*
X14199200Y8889200D02*
Y8990800D01*
X14300800D01*
Y8889200D01*
X14199200D01*
X14219521Y8909520D02*
Y8970480D01*
X14280479D01*
Y8909520D01*
X14219521D01*
X11767449Y9467784D02*
X11792849Y9493184D01*
X11818249D01*
X11792849Y9518584D01*
X11818249Y9543984D01*
X11792849D01*
X11767449Y9569384D01*
X11742049Y9543984D01*
X11716649D01*
X11742049Y9518584D01*
X11716649Y9493184D01*
X11742049D01*
X11767449Y9467784D01*
Y9488104D02*
X11782689Y9503344D01*
X11797929D01*
X11782689Y9518584D01*
X11797929Y9533824D01*
X11782689D01*
X11767449Y9549064D01*
X11752209Y9533824D01*
X11736969D01*
X11752209Y9518584D01*
X11736969Y9503344D01*
X11752209D01*
X11767449Y9488104D01*
X11190000Y6213004D02*
X11215400Y6238404D01*
X11240800D01*
X11215400Y6263804D01*
X11240800Y6289204D01*
X11215400D01*
X11190000Y6314604D01*
X11164600Y6289204D01*
X11139200D01*
X11164600Y6263804D01*
X11139200Y6238404D01*
X11164600D01*
X11190000Y6213004D01*
Y6233324D02*
X11205240Y6248564D01*
X11220480D01*
X11205240Y6263804D01*
X11220480Y6279044D01*
X11205240D01*
X11190000Y6294284D01*
X11174760Y6279044D01*
X11159520D01*
X11174760Y6263804D01*
X11159520Y6248564D01*
X11174760D01*
X11190000Y6233324D01*
X11148801Y7217267D02*
X11174201Y7242667D01*
X11199601D01*
X11174201Y7268067D01*
X11199601Y7293467D01*
X11174201D01*
X11148801Y7318867D01*
X11123401Y7293467D01*
X11098001D01*
X11123401Y7268067D01*
X11098001Y7242667D01*
X11123401D01*
X11148801Y7217267D01*
Y7237587D02*
X11164041Y7252827D01*
X11179281D01*
X11164041Y7268067D01*
X11179281Y7283307D01*
X11164041D01*
X11148801Y7298547D01*
X11133561Y7283307D01*
X11118321D01*
X11133561Y7268067D01*
X11118321Y7252827D01*
X11133561D01*
X11148801Y7237587D01*
X10828651Y8830070D02*
X10854051Y8855470D01*
X10879451D01*
X10854051Y8880870D01*
X10879451Y8906270D01*
X10854051D01*
X10828651Y8931670D01*
X10803251Y8906270D01*
X10777851D01*
X10803251Y8880870D01*
X10777851Y8855470D01*
X10803251D01*
X10828651Y8830070D01*
Y8850390D02*
X10843891Y8865630D01*
X10859131D01*
X10843891Y8880870D01*
X10859131Y8896110D01*
X10843891D01*
X10828651Y8911350D01*
X10813411Y8896110D01*
X10798171D01*
X10813411Y8880870D01*
X10798171Y8865630D01*
X10813411D01*
X10828651Y8850390D01*
X10441001Y6820658D02*
X10466401Y6846058D01*
X10491801D01*
X10466401Y6871458D01*
X10491801Y6896858D01*
X10466401D01*
X10441001Y6922258D01*
X10415601Y6896858D01*
X10390201D01*
X10415601Y6871458D01*
X10390201Y6846058D01*
X10415601D01*
X10441001Y6820658D01*
Y6840978D02*
X10456241Y6856218D01*
X10471481D01*
X10456241Y6871458D01*
X10471481Y6886698D01*
X10456241D01*
X10441001Y6901938D01*
X10425761Y6886698D01*
X10410521D01*
X10425761Y6871458D01*
X10410521Y6856218D01*
X10425761D01*
X10441001Y6840978D01*
X9270000Y7779200D02*
X9295400Y7804600D01*
X9320800D01*
X9295400Y7830000D01*
X9320800Y7855400D01*
X9295400D01*
X9270000Y7880800D01*
X9244600Y7855400D01*
X9219200D01*
X9244600Y7830000D01*
X9219200Y7804600D01*
X9244600D01*
X9270000Y7779200D01*
Y7799520D02*
X9285240Y7814760D01*
X9300480D01*
X9285240Y7830000D01*
X9300480Y7845240D01*
X9285240D01*
X9270000Y7860480D01*
X9254760Y7845240D01*
X9239520D01*
X9254760Y7830000D01*
X9239520Y7814760D01*
X9254760D01*
X9270000Y7799520D01*
X9150000Y7779200D02*
X9175400Y7804600D01*
X9200800D01*
X9175400Y7830000D01*
X9200800Y7855400D01*
X9175400D01*
X9150000Y7880800D01*
X9124600Y7855400D01*
X9099200D01*
X9124600Y7830000D01*
X9099200Y7804600D01*
X9124600D01*
X9150000Y7779200D01*
Y7799520D02*
X9165240Y7814760D01*
X9180480D01*
X9165240Y7830000D01*
X9180480Y7845240D01*
X9165240D01*
X9150000Y7860480D01*
X9134760Y7845240D01*
X9119520D01*
X9134760Y7830000D01*
X9119520Y7814760D01*
X9134760D01*
X9150000Y7799520D01*
X9030000Y7779200D02*
X9055400Y7804600D01*
X9080800D01*
X9055400Y7830000D01*
X9080800Y7855400D01*
X9055400D01*
X9030000Y7880800D01*
X9004600Y7855400D01*
X8979200D01*
X9004600Y7830000D01*
X8979200Y7804600D01*
X9004600D01*
X9030000Y7779200D01*
Y7799520D02*
X9045240Y7814760D01*
X9060480D01*
X9045240Y7830000D01*
X9060480Y7845240D01*
X9045240D01*
X9030000Y7860480D01*
X9014760Y7845240D01*
X8999520D01*
X9014760Y7830000D01*
X8999520Y7814760D01*
X9014760D01*
X9030000Y7799520D01*
X14217163Y4910705D02*
X14242563Y4936105D01*
X14267963D01*
X14242563Y4961505D01*
X14267963Y4986905D01*
X14242563D01*
X14217163Y5012305D01*
X14191763Y4986905D01*
X14166364D01*
X14191763Y4961505D01*
X14166364Y4936105D01*
X14191763D01*
X14217163Y4910705D01*
Y4931025D02*
X14232404Y4946265D01*
X14247643D01*
X14232404Y4961505D01*
X14247643Y4976745D01*
X14232404D01*
X14217163Y4991985D01*
X14201923Y4976745D01*
X14186684D01*
X14201923Y4961505D01*
X14186684Y4946265D01*
X14201923D01*
X14217163Y4931025D01*
X14224274Y3309200D02*
X14173474Y3410800D01*
X14275073D01*
X14224274Y3309200D01*
Y3329520D02*
X14193794Y3390480D01*
X14254755D01*
X14224274Y3329520D01*
Y3209200D02*
X14173474Y3310800D01*
X14275073D01*
X14224274Y3209200D01*
Y3229520D02*
X14193794Y3290480D01*
X14254755D01*
X14224274Y3229520D01*
X14124274Y3109200D02*
X14073474Y3210800D01*
X14175073D01*
X14124274Y3109200D01*
Y3129520D02*
X14093794Y3190480D01*
X14154755D01*
X14124274Y3129520D01*
X14224274Y3109200D02*
X14173474Y3210800D01*
X14275073D01*
X14224274Y3109200D01*
Y3129520D02*
X14193794Y3190480D01*
X14254755D01*
X14224274Y3129520D01*
X14124274Y3209200D02*
X14073474Y3310800D01*
X14175073D01*
X14124274Y3209200D01*
Y3229520D02*
X14093794Y3290480D01*
X14154755D01*
X14124274Y3229520D01*
Y3309200D02*
X14073474Y3410800D01*
X14175073D01*
X14124274Y3309200D01*
Y3329520D02*
X14093794Y3390480D01*
X14154755D01*
X14124274Y3329520D01*
X14024274Y3109200D02*
X13973474Y3210800D01*
X14075073D01*
X14024274Y3109200D01*
Y3129520D02*
X13993794Y3190480D01*
X14054755D01*
X14024274Y3129520D01*
Y3209200D02*
X13973474Y3310800D01*
X14075073D01*
X14024274Y3209200D01*
Y3229520D02*
X13993794Y3290480D01*
X14054755D01*
X14024274Y3229520D01*
Y3309200D02*
X13973474Y3410800D01*
X14075073D01*
X14024274Y3309200D01*
Y3329520D02*
X13993794Y3390480D01*
X14054755D01*
X14024274Y3329520D01*
X14089999Y829200D02*
X14039200Y930800D01*
X14140800D01*
X14089999Y829200D01*
Y849520D02*
X14059520Y910480D01*
X14120480D01*
X14089999Y849520D01*
Y929200D02*
X14039200Y1030800D01*
X14140800D01*
X14089999Y929200D01*
Y949520D02*
X14059520Y1010480D01*
X14120480D01*
X14089999Y949520D01*
Y729200D02*
X14039200Y830800D01*
X14140800D01*
X14089999Y729200D01*
Y749520D02*
X14059520Y810480D01*
X14120480D01*
X14089999Y749520D01*
X13989999Y929200D02*
X13939200Y1030800D01*
X14040800D01*
X13989999Y929200D01*
Y949520D02*
X13959520Y1010480D01*
X14020480D01*
X13989999Y949520D01*
Y829200D02*
X13939200Y930800D01*
X14040800D01*
X13989999Y829200D01*
Y849520D02*
X13959520Y910480D01*
X14020480D01*
X13989999Y849520D01*
X13889999Y929200D02*
X13839200Y1030800D01*
X13940800D01*
X13889999Y929200D01*
Y949520D02*
X13859520Y1010480D01*
X13920480D01*
X13889999Y949520D01*
Y729200D02*
X13839200Y830800D01*
X13940800D01*
X13889999Y729200D01*
Y749520D02*
X13859520Y810480D01*
X13920480D01*
X13889999Y749520D01*
Y829200D02*
X13839200Y930800D01*
X13940800D01*
X13889999Y829200D01*
Y849520D02*
X13859520Y910480D01*
X13920480D01*
X13889999Y849520D01*
X13989999Y729200D02*
X13939200Y830800D01*
X14040800D01*
X13989999Y729200D01*
Y749520D02*
X13959520Y810480D01*
X14020480D01*
X13989999Y749520D01*
X12000000Y4689200D02*
X12025400Y4714600D01*
X12050800D01*
X12025400Y4740000D01*
X12050800Y4765400D01*
X12025400D01*
X12000000Y4790800D01*
X11974600Y4765400D01*
X11949200D01*
X11974600Y4740000D01*
X11949200Y4714600D01*
X11974600D01*
X12000000Y4689200D01*
Y4709520D02*
X12015240Y4724760D01*
X12030480D01*
X12015240Y4740000D01*
X12030480Y4755240D01*
X12015240D01*
X12000000Y4770480D01*
X11984760Y4755240D01*
X11969520D01*
X11984760Y4740000D01*
X11969520Y4724760D01*
X11984760D01*
X12000000Y4709520D01*
X10090000Y5629200D02*
X10115400Y5654600D01*
X10140800D01*
X10115400Y5680000D01*
X10140800Y5705400D01*
X10115400D01*
X10090000Y5730800D01*
X10064600Y5705400D01*
X10039200D01*
X10064600Y5680000D01*
X10039200Y5654600D01*
X10064600D01*
X10090000Y5629200D01*
Y5649520D02*
X10105240Y5664760D01*
X10120480D01*
X10105240Y5680000D01*
X10120480Y5695240D01*
X10105240D01*
X10090000Y5710480D01*
X10074760Y5695240D01*
X10059520D01*
X10074760Y5680000D01*
X10059520Y5664760D01*
X10074760D01*
X10090000Y5649520D01*
X8624199Y2699200D02*
Y2800800D01*
X8725799D01*
Y2699200D01*
X8624199D01*
X8644519Y2719520D02*
Y2780480D01*
X8705479D01*
Y2719520D01*
X8644519D01*
X7075000Y1399200D02*
X7100400Y1424600D01*
X7125800D01*
X7100400Y1450000D01*
X7125800Y1475400D01*
X7100400D01*
X7075000Y1500800D01*
X7049600Y1475400D01*
X7024200D01*
X7049600Y1450000D01*
X7024200Y1424600D01*
X7049600D01*
X7075000Y1399200D01*
Y1419520D02*
X7090240Y1434760D01*
X7105480D01*
X7090240Y1450000D01*
X7105480Y1465240D01*
X7090240D01*
X7075000Y1480480D01*
X7059760Y1465240D01*
X7044520D01*
X7059760Y1450000D01*
X7044520Y1434760D01*
X7059760D01*
X7075000Y1419520D01*
X7775000Y1499200D02*
X7800400Y1524600D01*
X7825800D01*
X7800400Y1550000D01*
X7825800Y1575400D01*
X7800400D01*
X7775000Y1600800D01*
X7749600Y1575400D01*
X7724200D01*
X7749600Y1550000D01*
X7724200Y1524600D01*
X7749600D01*
X7775000Y1499200D01*
Y1519520D02*
X7790240Y1534760D01*
X7805480D01*
X7790240Y1550000D01*
X7805480Y1565240D01*
X7790240D01*
X7775000Y1580480D01*
X7759760Y1565240D01*
X7744520D01*
X7759760Y1550000D01*
X7744520Y1534760D01*
X7759760D01*
X7775000Y1519520D01*
X15050000Y4179200D02*
X15075400Y4204600D01*
X15100800D01*
X15075400Y4230000D01*
X15100800Y4255400D01*
X15075400D01*
X15050000Y4280800D01*
X15024600Y4255400D01*
X14999200D01*
X15024600Y4230000D01*
X14999200Y4204600D01*
X15024600D01*
X15050000Y4179200D01*
Y4199520D02*
X15065240Y4214760D01*
X15080479D01*
X15065240Y4230000D01*
X15080479Y4245240D01*
X15065240D01*
X15050000Y4260480D01*
X15034760Y4245240D01*
X15019521D01*
X15034760Y4230000D01*
X15019521Y4214760D01*
X15034760D01*
X15050000Y4199520D01*
X11914776Y7724200D02*
X11940176Y7749600D01*
X11965576D01*
X11940176Y7775000D01*
X11965576Y7800400D01*
X11940176D01*
X11914776Y7825800D01*
X11889376Y7800400D01*
X11863976D01*
X11889376Y7775000D01*
X11863976Y7749600D01*
X11889376D01*
X11914776Y7724200D01*
Y7744520D02*
X11930016Y7759760D01*
X11945256D01*
X11930016Y7775000D01*
X11945256Y7790240D01*
X11930016D01*
X11914776Y7805480D01*
X11899536Y7790240D01*
X11884296D01*
X11899536Y7775000D01*
X11884296Y7759760D01*
X11899536D01*
X11914776Y7744520D01*
X17439452Y4034748D02*
X17464851Y4060148D01*
X17490253D01*
X17464851Y4085548D01*
X17490253Y4110948D01*
X17464851D01*
X17439452Y4136348D01*
X17414052Y4110948D01*
X17388652D01*
X17414052Y4085548D01*
X17388652Y4060148D01*
X17414052D01*
X17439452Y4034748D01*
X11525000Y7349200D02*
X11550400Y7374600D01*
X11575800D01*
X11550400Y7400000D01*
X11575800Y7425400D01*
X11550400D01*
X11525000Y7450800D01*
X11499600Y7425400D01*
X11474200D01*
X11499600Y7400000D01*
X11474200Y7374600D01*
X11499600D01*
X11525000Y7349200D01*
Y7369520D02*
X11540240Y7384760D01*
X11555480D01*
X11540240Y7400000D01*
X11555480Y7415240D01*
X11540240D01*
X11525000Y7430480D01*
X11509760Y7415240D01*
X11494520D01*
X11509760Y7400000D01*
X11494520Y7384760D01*
X11509760D01*
X11525000Y7369520D01*
X10999369Y6674200D02*
X11024769Y6699600D01*
X11050169D01*
X11024769Y6725000D01*
X11050169Y6750400D01*
X11024769D01*
X10999369Y6775800D01*
X10973969Y6750400D01*
X10948569D01*
X10973969Y6725000D01*
X10948569Y6699600D01*
X10973969D01*
X10999369Y6674200D01*
Y6694520D02*
X11014609Y6709760D01*
X11029849D01*
X11014609Y6725000D01*
X11029849Y6740240D01*
X11014609D01*
X10999369Y6755480D01*
X10984129Y6740240D01*
X10968889D01*
X10984129Y6725000D01*
X10968889Y6709760D01*
X10984129D01*
X10999369Y6694520D01*
X11450000Y6424200D02*
X11475400Y6449600D01*
X11500800D01*
X11475400Y6475000D01*
X11500800Y6500400D01*
X11475400D01*
X11450000Y6525800D01*
X11424600Y6500400D01*
X11399200D01*
X11424600Y6475000D01*
X11399200Y6449600D01*
X11424600D01*
X11450000Y6424200D01*
Y6444520D02*
X11465240Y6459760D01*
X11480480D01*
X11465240Y6475000D01*
X11480480Y6490240D01*
X11465240D01*
X11450000Y6505480D01*
X11434760Y6490240D01*
X11419520D01*
X11434760Y6475000D01*
X11419520Y6459760D01*
X11434760D01*
X11450000Y6444520D01*
X10589655Y6671900D02*
X10615055Y6697300D01*
X10640455D01*
X10615055Y6722700D01*
X10640455Y6748100D01*
X10615055D01*
X10589655Y6773500D01*
X10564255Y6748100D01*
X10538855D01*
X10564255Y6722700D01*
X10538855Y6697300D01*
X10564255D01*
X10589655Y6671900D01*
Y6692220D02*
X10604895Y6707460D01*
X10620135D01*
X10604895Y6722700D01*
X10620135Y6737940D01*
X10604895D01*
X10589655Y6753180D01*
X10574415Y6737940D01*
X10559175D01*
X10574415Y6722700D01*
X10559175Y6707460D01*
X10574415D01*
X10589655Y6692220D01*
X10689999Y6589199D02*
X10715399Y6614599D01*
X10740799D01*
X10715399Y6639999D01*
X10740799Y6665399D01*
X10715399D01*
X10689999Y6690799D01*
X10664599Y6665399D01*
X10639199D01*
X10664599Y6639999D01*
X10639199Y6614599D01*
X10664599D01*
X10689999Y6589199D01*
Y6609519D02*
X10705239Y6624759D01*
X10720479D01*
X10705239Y6639999D01*
X10720479Y6655239D01*
X10705239D01*
X10689999Y6670479D01*
X10674759Y6655239D01*
X10659519D01*
X10674759Y6639999D01*
X10659519Y6624759D01*
X10674759D01*
X10689999Y6609519D01*
X8050000Y9249200D02*
X8075400Y9274600D01*
X8100800D01*
X8075400Y9300000D01*
X8100800Y9325400D01*
X8075400D01*
X8050000Y9350800D01*
X8024600Y9325400D01*
X7999200D01*
X8024600Y9300000D01*
X7999200Y9274600D01*
X8024600D01*
X8050000Y9249200D01*
Y9269520D02*
X8065240Y9284760D01*
X8080480D01*
X8065240Y9300000D01*
X8080480Y9315240D01*
X8065240D01*
X8050000Y9330480D01*
X8034760Y9315240D01*
X8019520D01*
X8034760Y9300000D01*
X8019520Y9284760D01*
X8034760D01*
X8050000Y9269520D01*
Y9774200D02*
X8075400Y9799600D01*
X8100800D01*
X8075400Y9825000D01*
X8100800Y9850400D01*
X8075400D01*
X8050000Y9875800D01*
X8024600Y9850400D01*
X7999200D01*
X8024600Y9825000D01*
X7999200Y9799600D01*
X8024600D01*
X8050000Y9774200D01*
Y9794520D02*
X8065240Y9809760D01*
X8080480D01*
X8065240Y9825000D01*
X8080480Y9840240D01*
X8065240D01*
X8050000Y9855480D01*
X8034760Y9840240D01*
X8019520D01*
X8034760Y9825000D01*
X8019520Y9809760D01*
X8034760D01*
X8050000Y9794520D01*
X16525000Y10824200D02*
X16550400Y10849600D01*
X16575800D01*
X16550400Y10875000D01*
X16575800Y10900400D01*
X16550400D01*
X16525000Y10925800D01*
X16499600Y10900400D01*
X16474200D01*
X16499600Y10875000D01*
X16474200Y10849600D01*
X16499600D01*
X16525000Y10824200D01*
Y10844520D02*
X16540240Y10859760D01*
X16555479D01*
X16540240Y10875000D01*
X16555479Y10890240D01*
X16540240D01*
X16525000Y10905480D01*
X16509760Y10890240D01*
X16494521D01*
X16509760Y10875000D01*
X16494521Y10859760D01*
X16509760D01*
X16525000Y10844520D01*
X12825000Y2174200D02*
X12850400Y2199600D01*
X12875800D01*
X12850400Y2225000D01*
X12875800Y2250400D01*
X12850400D01*
X12825000Y2275800D01*
X12799600Y2250400D01*
X12774200D01*
X12799600Y2225000D01*
X12774200Y2199600D01*
X12799600D01*
X12825000Y2174200D01*
Y2194520D02*
X12840240Y2209760D01*
X12855479D01*
X12840240Y2225000D01*
X12855479Y2240240D01*
X12840240D01*
X12825000Y2255480D01*
X12809760Y2240240D01*
X12794520D01*
X12809760Y2225000D01*
X12794520Y2209760D01*
X12809760D01*
X12825000Y2194520D01*
X12994600Y1114600D02*
Y1089200D01*
X13045399D01*
Y1114600D01*
X13070799D01*
Y1165400D01*
X13045399D01*
Y1190800D01*
X12994600D01*
Y1165400D01*
X12969200D01*
Y1114600D01*
X12994600D01*
X13004761Y1124760D02*
Y1109520D01*
X13035240D01*
Y1124760D01*
X13050481D01*
Y1155240D01*
X13035240D01*
Y1170480D01*
X13004761D01*
Y1155240D01*
X12989520D01*
Y1124760D01*
X13004761D01*
X12999600Y1634600D02*
Y1609200D01*
X13050400D01*
Y1634600D01*
X13075800D01*
Y1685400D01*
X13050400D01*
Y1710800D01*
X12999600D01*
Y1685400D01*
X12974200D01*
Y1634600D01*
X12999600D01*
X13009760Y1644760D02*
Y1629520D01*
X13040240D01*
Y1644760D01*
X13055479D01*
Y1675240D01*
X13040240D01*
Y1690480D01*
X13009760D01*
Y1675240D01*
X12994521D01*
Y1644760D01*
X13009760D01*
X14974600Y1449600D02*
Y1424200D01*
X15025400D01*
Y1449600D01*
X15050800D01*
Y1500400D01*
X15025400D01*
Y1525800D01*
X14974600D01*
Y1500400D01*
X14949200D01*
Y1449600D01*
X14974600D01*
X14984760Y1459760D02*
Y1444520D01*
X15015240D01*
Y1459760D01*
X15030479D01*
Y1490240D01*
X15015240D01*
Y1505480D01*
X14984760D01*
Y1490240D01*
X14969521D01*
Y1459760D01*
X14984760D01*
X19050000Y6564199D02*
X19075400Y6589599D01*
X19100800D01*
X19075400Y6614999D01*
X19100800Y6640399D01*
X19075400D01*
X19050000Y6665799D01*
X19024600Y6640399D01*
X18999200D01*
X19024600Y6614999D01*
X18999200Y6589599D01*
X19024600D01*
X19050000Y6564199D01*
X9556467Y1792732D02*
X9581867Y1818132D01*
X9607267D01*
X9581867Y1843532D01*
X9607267Y1868932D01*
X9581867D01*
X9556467Y1894332D01*
X9531067Y1868932D01*
X9505667D01*
X9531067Y1843532D01*
X9505667Y1818132D01*
X9531067D01*
X9556467Y1792732D01*
Y1813052D02*
X9571707Y1828292D01*
X9586947D01*
X9571707Y1843532D01*
X9586947Y1858772D01*
X9571707D01*
X9556467Y1874012D01*
X9541227Y1858772D01*
X9525987D01*
X9541227Y1843532D01*
X9525987Y1828292D01*
X9541227D01*
X9556467Y1813052D01*
X15856201Y8245401D02*
X15881601Y8270801D01*
X15907001D01*
X15881601Y8296201D01*
X15907001Y8321601D01*
X15881601D01*
X15856201Y8347001D01*
X15830801Y8321601D01*
X15805402D01*
X15830801Y8296201D01*
X15805402Y8270801D01*
X15830801D01*
X15856201Y8245401D01*
Y8265721D02*
X15871442Y8280961D01*
X15886681D01*
X15871442Y8296201D01*
X15886681Y8311441D01*
X15871442D01*
X15856201Y8326681D01*
X15840961Y8311441D01*
X15825722D01*
X15840961Y8296201D01*
X15825722Y8280961D01*
X15840961D01*
X15856201Y8265721D01*
X13609169Y7768369D02*
X13634569Y7793769D01*
X13659969D01*
X13634569Y7819169D01*
X13659969Y7844569D01*
X13634569D01*
X13609169Y7869969D01*
X13583769Y7844569D01*
X13558369D01*
X13583769Y7819169D01*
X13558369Y7793769D01*
X13583769D01*
X13609169Y7768369D01*
Y7788689D02*
X13624409Y7803929D01*
X13639648D01*
X13624409Y7819169D01*
X13639648Y7834409D01*
X13624409D01*
X13609169Y7849649D01*
X13593929Y7834409D01*
X13578690D01*
X13593929Y7819169D01*
X13578690Y7803929D01*
X13593929D01*
X13609169Y7788689D01*
X13120000Y4199200D02*
X13145399Y4224600D01*
X13170799D01*
X13145399Y4250000D01*
X13170799Y4275400D01*
X13145399D01*
X13120000Y4300800D01*
X13094600Y4275400D01*
X13069200D01*
X13094600Y4250000D01*
X13069200Y4224600D01*
X13094600D01*
X13120000Y4199200D01*
Y4219520D02*
X13135240Y4234760D01*
X13150481D01*
X13135240Y4250000D01*
X13150481Y4265240D01*
X13135240D01*
X13120000Y4280480D01*
X13104761Y4265240D01*
X13089520D01*
X13104761Y4250000D01*
X13089520Y4234760D01*
X13104761D01*
X13120000Y4219520D01*
X10980000Y8576069D02*
X11005400Y8601469D01*
X11030800D01*
X11005400Y8626869D01*
X11030800Y8652269D01*
X11005400D01*
X10980000Y8677669D01*
X10954600Y8652269D01*
X10929200D01*
X10954600Y8626869D01*
X10929200Y8601469D01*
X10954600D01*
X10980000Y8576069D01*
Y8596389D02*
X10995240Y8611629D01*
X11010480D01*
X10995240Y8626869D01*
X11010480Y8642109D01*
X10995240D01*
X10980000Y8657349D01*
X10964760Y8642109D01*
X10949520D01*
X10964760Y8626869D01*
X10949520Y8611629D01*
X10964760D01*
X10980000Y8596389D01*
X11935618Y8213700D02*
X11961018Y8239100D01*
X11986418D01*
X11961018Y8264500D01*
X11986418Y8289900D01*
X11961018D01*
X11935618Y8315300D01*
X11910218Y8289900D01*
X11884818D01*
X11910218Y8264500D01*
X11884818Y8239100D01*
X11910218D01*
X11935618Y8213700D01*
Y8234020D02*
X11950858Y8249260D01*
X11966098D01*
X11950858Y8264500D01*
X11966098Y8279740D01*
X11950858D01*
X11935618Y8294980D01*
X11920378Y8279740D01*
X11905138D01*
X11920378Y8264500D01*
X11905138Y8249260D01*
X11920378D01*
X11935618Y8234020D01*
X12989999Y7709200D02*
X13015401Y7734600D01*
X13040800D01*
X13015401Y7760000D01*
X13040800Y7785400D01*
X13015401D01*
X12989999Y7810800D01*
X12964600Y7785400D01*
X12939200D01*
X12964600Y7760000D01*
X12939200Y7734600D01*
X12964600D01*
X12989999Y7709200D01*
Y7729520D02*
X13005240Y7744760D01*
X13020480D01*
X13005240Y7760000D01*
X13020480Y7775240D01*
X13005240D01*
X12989999Y7790480D01*
X12974760Y7775240D01*
X12959520D01*
X12974760Y7760000D01*
X12959520Y7744760D01*
X12974760D01*
X12989999Y7729520D01*
X10860000Y7693034D02*
X10885400Y7718434D01*
X10910800D01*
X10885400Y7743834D01*
X10910800Y7769234D01*
X10885400D01*
X10860000Y7794634D01*
X10834600Y7769234D01*
X10809200D01*
X10834600Y7743834D01*
X10809200Y7718434D01*
X10834600D01*
X10860000Y7693034D01*
Y7713354D02*
X10875240Y7728594D01*
X10890480D01*
X10875240Y7743834D01*
X10890480Y7759074D01*
X10875240D01*
X10860000Y7774314D01*
X10844760Y7759074D01*
X10829520D01*
X10844760Y7743834D01*
X10829520Y7728594D01*
X10844760D01*
X10860000Y7713354D01*
X10317901Y7701644D02*
X10343301Y7727044D01*
X10368701D01*
X10343301Y7752444D01*
X10368701Y7777844D01*
X10343301D01*
X10317901Y7803244D01*
X10292501Y7777844D01*
X10267101D01*
X10292501Y7752444D01*
X10267101Y7727044D01*
X10292501D01*
X10317901Y7701644D01*
Y7721964D02*
X10333141Y7737204D01*
X10348381D01*
X10333141Y7752444D01*
X10348381Y7767684D01*
X10333141D01*
X10317901Y7782924D01*
X10302661Y7767684D01*
X10287421D01*
X10302661Y7752444D01*
X10287421Y7737204D01*
X10302661D01*
X10317901Y7721964D01*
X10987136Y7090267D02*
X11012536Y7115667D01*
X11037936D01*
X11012536Y7141067D01*
X11037936Y7166467D01*
X11012536D01*
X10987136Y7191867D01*
X10961736Y7166467D01*
X10936336D01*
X10961736Y7141067D01*
X10936336Y7115667D01*
X10961736D01*
X10987136Y7090267D01*
Y7110587D02*
X11002376Y7125827D01*
X11017616D01*
X11002376Y7141067D01*
X11017616Y7156307D01*
X11002376D01*
X10987136Y7171547D01*
X10971896Y7156307D01*
X10956656D01*
X10971896Y7141067D01*
X10956656Y7125827D01*
X10971896D01*
X10987136Y7110587D01*
X13122086Y2174200D02*
X13147485Y2199600D01*
X13172885D01*
X13147485Y2225000D01*
X13172885Y2250400D01*
X13147485D01*
X13122086Y2275800D01*
X13096684Y2250400D01*
X13071284D01*
X13096684Y2225000D01*
X13071284Y2199600D01*
X13096684D01*
X13122086Y2174200D01*
Y2194520D02*
X13137325Y2209760D01*
X13152565D01*
X13137325Y2225000D01*
X13152565Y2240240D01*
X13137325D01*
X13122086Y2255480D01*
X13106845Y2240240D01*
X13091605D01*
X13106845Y2225000D01*
X13091605Y2209760D01*
X13106845D01*
X13122086Y2194520D01*
X9650000Y8574200D02*
X9675400Y8599600D01*
X9700800D01*
X9675400Y8625000D01*
X9700800Y8650400D01*
X9675400D01*
X9650000Y8675800D01*
X9624600Y8650400D01*
X9599200D01*
X9624600Y8625000D01*
X9599200Y8599600D01*
X9624600D01*
X9650000Y8574200D01*
Y8594520D02*
X9665240Y8609760D01*
X9680480D01*
X9665240Y8625000D01*
X9680480Y8640240D01*
X9665240D01*
X9650000Y8655480D01*
X9634760Y8640240D01*
X9619520D01*
X9634760Y8625000D01*
X9619520Y8609760D01*
X9634760D01*
X9650000Y8594520D01*
Y8874200D02*
X9675400Y8899600D01*
X9700800D01*
X9675400Y8925000D01*
X9700800Y8950400D01*
X9675400D01*
X9650000Y8975800D01*
X9624600Y8950400D01*
X9599200D01*
X9624600Y8925000D01*
X9599200Y8899600D01*
X9624600D01*
X9650000Y8874200D01*
Y8894520D02*
X9665240Y8909760D01*
X9680480D01*
X9665240Y8925000D01*
X9680480Y8940240D01*
X9665240D01*
X9650000Y8955480D01*
X9634760Y8940240D01*
X9619520D01*
X9634760Y8925000D01*
X9619520Y8909760D01*
X9634760D01*
X9650000Y8894520D01*
X11347699Y8820551D02*
X11373099Y8845951D01*
X11398499D01*
X11373099Y8871351D01*
X11398499Y8896751D01*
X11373099D01*
X11347699Y8922151D01*
X11322299Y8896751D01*
X11296899D01*
X11322299Y8871351D01*
X11296899Y8845951D01*
X11322299D01*
X11347699Y8820551D01*
Y8840871D02*
X11362939Y8856111D01*
X11378179D01*
X11362939Y8871351D01*
X11378179Y8886591D01*
X11362939D01*
X11347699Y8901831D01*
X11332459Y8886591D01*
X11317219D01*
X11332459Y8871351D01*
X11317219Y8856111D01*
X11332459D01*
X11347699Y8840871D01*
X9850000Y6749200D02*
X9875400Y6774600D01*
X9900800D01*
X9875400Y6800000D01*
X9900800Y6825400D01*
X9875400D01*
X9850000Y6850800D01*
X9824600Y6825400D01*
X9799200D01*
X9824600Y6800000D01*
X9799200Y6774600D01*
X9824600D01*
X9850000Y6749200D01*
Y6769520D02*
X9865240Y6784760D01*
X9880480D01*
X9865240Y6800000D01*
X9880480Y6815240D01*
X9865240D01*
X9850000Y6830480D01*
X9834760Y6815240D01*
X9819520D01*
X9834760Y6800000D01*
X9819520Y6784760D01*
X9834760D01*
X9850000Y6769520D01*
X9760000Y6619200D02*
X9785400Y6644600D01*
X9810800D01*
X9785400Y6670000D01*
X9810800Y6695400D01*
X9785400D01*
X9760000Y6720800D01*
X9734600Y6695400D01*
X9709200D01*
X9734600Y6670000D01*
X9709200Y6644600D01*
X9734600D01*
X9760000Y6619200D01*
Y6639520D02*
X9775240Y6654760D01*
X9790480D01*
X9775240Y6670000D01*
X9790480Y6685240D01*
X9775240D01*
X9760000Y6700480D01*
X9744760Y6685240D01*
X9729520D01*
X9744760Y6670000D01*
X9729520Y6654760D01*
X9744760D01*
X9760000Y6639520D01*
X12970000Y7469200D02*
X12995399Y7494600D01*
X13020799D01*
X12995399Y7520000D01*
X13020799Y7545400D01*
X12995399D01*
X12970000Y7570800D01*
X12944600Y7545400D01*
X12919200D01*
X12944600Y7520000D01*
X12919200Y7494600D01*
X12944600D01*
X12970000Y7469200D01*
Y7489520D02*
X12985240Y7504760D01*
X13000481D01*
X12985240Y7520000D01*
X13000481Y7535240D01*
X12985240D01*
X12970000Y7550480D01*
X12954761Y7535240D01*
X12939520D01*
X12954761Y7520000D01*
X12939520Y7504760D01*
X12954761D01*
X12970000Y7489520D01*
X15068657Y9640682D02*
X15094057Y9666082D01*
X15119456D01*
X15094057Y9691482D01*
X15119456Y9716882D01*
X15094057D01*
X15068657Y9742282D01*
X15043257Y9716882D01*
X15017857D01*
X15043257Y9691482D01*
X15017857Y9666082D01*
X15043257D01*
X15068657Y9640682D01*
Y9661002D02*
X15083897Y9676242D01*
X15099136D01*
X15083897Y9691482D01*
X15099136Y9706722D01*
X15083897D01*
X15068657Y9721962D01*
X15053416Y9706722D01*
X15038177D01*
X15053416Y9691482D01*
X15038177Y9676242D01*
X15053416D01*
X15068657Y9661002D01*
X15260001Y9212607D02*
X15285400Y9238007D01*
X15310800D01*
X15285400Y9263407D01*
X15310800Y9288807D01*
X15285400D01*
X15260001Y9314207D01*
X15234599Y9288807D01*
X15209200D01*
X15234599Y9263407D01*
X15209200Y9238007D01*
X15234599D01*
X15260001Y9212607D01*
Y9232927D02*
X15275240Y9248167D01*
X15290480D01*
X15275240Y9263407D01*
X15290480Y9278647D01*
X15275240D01*
X15260001Y9293887D01*
X15244760Y9278647D01*
X15229520D01*
X15244760Y9263407D01*
X15229520Y9248167D01*
X15244760D01*
X15260001Y9232927D01*
X14380000Y5059200D02*
X14405400Y5084600D01*
X14430800D01*
X14405400Y5110000D01*
X14430800Y5135400D01*
X14405400D01*
X14380000Y5160800D01*
X14354601Y5135400D01*
X14329201D01*
X14354601Y5110000D01*
X14329201Y5084600D01*
X14354601D01*
X14380000Y5059200D01*
Y5079520D02*
X14395239Y5094760D01*
X14410480D01*
X14395239Y5110000D01*
X14410480Y5125240D01*
X14395239D01*
X14380000Y5140480D01*
X14364760Y5125240D01*
X14349519D01*
X14364760Y5110000D01*
X14349519Y5094760D01*
X14364760D01*
X14380000Y5079520D01*
X12989999Y4219200D02*
X13015401Y4244600D01*
X13040800D01*
X13015401Y4270000D01*
X13040800Y4295400D01*
X13015401D01*
X12989999Y4320800D01*
X12964600Y4295400D01*
X12939200D01*
X12964600Y4270000D01*
X12939200Y4244600D01*
X12964600D01*
X12989999Y4219200D01*
Y4239520D02*
X13005240Y4254760D01*
X13020480D01*
X13005240Y4270000D01*
X13020480Y4285240D01*
X13005240D01*
X12989999Y4300480D01*
X12974760Y4285240D01*
X12959520D01*
X12974760Y4270000D01*
X12959520Y4254760D01*
X12974760D01*
X12989999Y4239520D01*
X14734599Y1454600D02*
Y1429200D01*
X14785400D01*
Y1454600D01*
X14810800D01*
Y1505400D01*
X14785400D01*
Y1530800D01*
X14734599D01*
Y1505400D01*
X14709200D01*
Y1454600D01*
X14734599D01*
X14744760Y1464760D02*
Y1449520D01*
X14775240D01*
Y1464760D01*
X14790480D01*
Y1495240D01*
X14775240D01*
Y1510480D01*
X14744760D01*
Y1495240D01*
X14729520D01*
Y1464760D01*
X14744760D01*
X14454601Y1454600D02*
Y1429200D01*
X14505400D01*
Y1454600D01*
X14530800D01*
Y1505400D01*
X14505400D01*
Y1530800D01*
X14454601D01*
Y1505400D01*
X14429201D01*
Y1454600D01*
X14454601D01*
X14464760Y1464760D02*
Y1449520D01*
X14495239D01*
Y1464760D01*
X14510480D01*
Y1495240D01*
X14495239D01*
Y1510480D01*
X14464760D01*
Y1495240D01*
X14449519D01*
Y1464760D01*
X14464760D01*
X11900000Y8726050D02*
X11925400Y8751450D01*
X11950800D01*
X11925400Y8776850D01*
X11950800Y8802250D01*
X11925400D01*
X11900000Y8827650D01*
X11874600Y8802250D01*
X11849200D01*
X11874600Y8776850D01*
X11849200Y8751450D01*
X11874600D01*
X11900000Y8726050D01*
Y8746370D02*
X11915240Y8761610D01*
X11930480D01*
X11915240Y8776850D01*
X11930480Y8792090D01*
X11915240D01*
X11900000Y8807330D01*
X11884760Y8792090D01*
X11869520D01*
X11884760Y8776850D01*
X11869520Y8761610D01*
X11884760D01*
X11900000Y8746370D01*
X12000000Y7449200D02*
X12025400Y7474600D01*
X12050800D01*
X12025400Y7500000D01*
X12050800Y7525400D01*
X12025400D01*
X12000000Y7550800D01*
X11974600Y7525400D01*
X11949200D01*
X11974600Y7500000D01*
X11949200Y7474600D01*
X11974600D01*
X12000000Y7449200D01*
Y7469520D02*
X12015240Y7484760D01*
X12030480D01*
X12015240Y7500000D01*
X12030480Y7515240D01*
X12015240D01*
X12000000Y7530480D01*
X11984760Y7515240D01*
X11969520D01*
X11984760Y7500000D01*
X11969520Y7484760D01*
X11984760D01*
X12000000Y7469520D01*
X12020000Y6931607D02*
X12045400Y6957007D01*
X12070800D01*
X12045400Y6982407D01*
X12070800Y7007807D01*
X12045400D01*
X12020000Y7033207D01*
X11994600Y7007807D01*
X11969200D01*
X11994600Y6982407D01*
X11969200Y6957007D01*
X11994600D01*
X12020000Y6931607D01*
Y6951927D02*
X12035240Y6967167D01*
X12050480D01*
X12035240Y6982407D01*
X12050480Y6997647D01*
X12035240D01*
X12020000Y7012887D01*
X12004760Y6997647D01*
X11989520D01*
X12004760Y6982407D01*
X11989520Y6967167D01*
X12004760D01*
X12020000Y6951927D01*
X11900000Y6921900D02*
X11925400Y6947300D01*
X11950800D01*
X11925400Y6972700D01*
X11950800Y6998100D01*
X11925400D01*
X11900000Y7023500D01*
X11874600Y6998100D01*
X11849200D01*
X11874600Y6972700D01*
X11849200Y6947300D01*
X11874600D01*
X11900000Y6921900D01*
Y6942220D02*
X11915240Y6957460D01*
X11930480D01*
X11915240Y6972700D01*
X11930480Y6987940D01*
X11915240D01*
X11900000Y7003180D01*
X11884760Y6987940D01*
X11869520D01*
X11884760Y6972700D01*
X11869520Y6957460D01*
X11884760D01*
X11900000Y6942220D01*
X13295979Y7448400D02*
X13321381Y7473800D01*
X13346780D01*
X13321381Y7499200D01*
X13346780Y7524600D01*
X13321381D01*
X13295979Y7550000D01*
X13270580Y7524600D01*
X13245180D01*
X13270580Y7499200D01*
X13245180Y7473800D01*
X13270580D01*
X13295979Y7448400D01*
Y7468720D02*
X13311220Y7483960D01*
X13326460D01*
X13311220Y7499200D01*
X13326460Y7514440D01*
X13311220D01*
X13295979Y7529680D01*
X13280740Y7514440D01*
X13265500D01*
X13280740Y7499200D01*
X13265500Y7483960D01*
X13280740D01*
X13295979Y7468720D01*
X17723080Y5542386D02*
X17748482Y5567786D01*
X17773882D01*
X17748482Y5593186D01*
X17773882Y5618586D01*
X17748482D01*
X17723080Y5643986D01*
X17697681Y5618586D01*
X17672281D01*
X17697681Y5593186D01*
X17672281Y5567786D01*
X17697681D01*
X17723080Y5542386D01*
Y5562706D02*
X17738321Y5577946D01*
X17753561D01*
X17738321Y5593186D01*
X17753561Y5608426D01*
X17738321D01*
X17723080Y5623666D01*
X17707841Y5608426D01*
X17692601D01*
X17707841Y5593186D01*
X17692601Y5577946D01*
X17707841D01*
X17723080Y5562706D01*
X16531009Y7010284D02*
X16556409Y7035684D01*
X16581808D01*
X16556409Y7061084D01*
X16581808Y7086484D01*
X16556409D01*
X16531009Y7111884D01*
X16505609Y7086484D01*
X16480209D01*
X16505609Y7061084D01*
X16480209Y7035684D01*
X16505609D01*
X16531009Y7010284D01*
Y7030604D02*
X16546249Y7045844D01*
X16561488D01*
X16546249Y7061084D01*
X16561488Y7076324D01*
X16546249D01*
X16531009Y7091564D01*
X16515768Y7076324D01*
X16500529D01*
X16515768Y7061084D01*
X16500529Y7045844D01*
X16515768D01*
X16531009Y7030604D01*
X16546165Y7601400D02*
X16571565Y7626800D01*
X16596965D01*
X16571565Y7652200D01*
X16596965Y7677600D01*
X16571565D01*
X16546165Y7703000D01*
X16520766Y7677600D01*
X16495364D01*
X16520766Y7652200D01*
X16495364Y7626800D01*
X16520766D01*
X16546165Y7601400D01*
Y7621720D02*
X16561404Y7636960D01*
X16576645D01*
X16561404Y7652200D01*
X16576645Y7667440D01*
X16561404D01*
X16546165Y7682680D01*
X16530925Y7667440D01*
X16515685D01*
X16530925Y7652200D01*
X16515685Y7636960D01*
X16530925D01*
X16546165Y7621720D01*
Y7491400D02*
X16571565Y7516800D01*
X16596965D01*
X16571565Y7542200D01*
X16596965Y7567600D01*
X16571565D01*
X16546165Y7593000D01*
X16520766Y7567600D01*
X16495364D01*
X16520766Y7542200D01*
X16495364Y7516800D01*
X16520766D01*
X16546165Y7491400D01*
Y7511720D02*
X16561404Y7526960D01*
X16576645D01*
X16561404Y7542200D01*
X16576645Y7557440D01*
X16561404D01*
X16546165Y7572680D01*
X16530925Y7557440D01*
X16515685D01*
X16530925Y7542200D01*
X16515685Y7526960D01*
X16530925D01*
X16546165Y7511720D01*
Y7381400D02*
X16571565Y7406800D01*
X16596965D01*
X16571565Y7432200D01*
X16596965Y7457600D01*
X16571565D01*
X16546165Y7483000D01*
X16520766Y7457600D01*
X16495364D01*
X16520766Y7432200D01*
X16495364Y7406800D01*
X16520766D01*
X16546165Y7381400D01*
Y7401720D02*
X16561404Y7416960D01*
X16576645D01*
X16561404Y7432200D01*
X16576645Y7447440D01*
X16561404D01*
X16546165Y7462680D01*
X16530925Y7447440D01*
X16515685D01*
X16530925Y7432200D01*
X16515685Y7416960D01*
X16530925D01*
X16546165Y7401720D01*
X16399066Y6771400D02*
X16424466Y6796800D01*
X16449866D01*
X16424466Y6822200D01*
X16449866Y6847600D01*
X16424466D01*
X16399066Y6873000D01*
X16373666Y6847600D01*
X16348267D01*
X16373666Y6822200D01*
X16348267Y6796800D01*
X16373666D01*
X16399066Y6771400D01*
Y6791720D02*
X16414307Y6806960D01*
X16429546D01*
X16414307Y6822200D01*
X16429546Y6837440D01*
X16414307D01*
X16399066Y6852680D01*
X16383826Y6837440D01*
X16368587D01*
X16383826Y6822200D01*
X16368587Y6806960D01*
X16383826D01*
X16399066Y6791720D01*
X16166966Y6771400D02*
X16192368Y6796800D01*
X16217767D01*
X16192368Y6822200D01*
X16217767Y6847600D01*
X16192368D01*
X16166966Y6873000D01*
X16141566Y6847600D01*
X16116167D01*
X16141566Y6822200D01*
X16116167Y6796800D01*
X16141566D01*
X16166966Y6771400D01*
Y6791720D02*
X16182207Y6806960D01*
X16197447D01*
X16182207Y6822200D01*
X16197447Y6837440D01*
X16182207D01*
X16166966Y6852680D01*
X16151727Y6837440D01*
X16136487D01*
X16151727Y6822200D01*
X16136487Y6806960D01*
X16151727D01*
X16166966Y6791720D01*
X16551010Y7200284D02*
X16576410Y7225684D01*
X16601810D01*
X16576410Y7251084D01*
X16601810Y7276484D01*
X16576410D01*
X16551010Y7301884D01*
X16525610Y7276484D01*
X16500211D01*
X16525610Y7251084D01*
X16500211Y7225684D01*
X16525610D01*
X16551010Y7200284D01*
Y7220604D02*
X16566251Y7235844D01*
X16581490D01*
X16566251Y7251084D01*
X16581490Y7266324D01*
X16566251D01*
X16551010Y7281564D01*
X16535770Y7266324D01*
X16520531D01*
X16535770Y7251084D01*
X16520531Y7235844D01*
X16535770D01*
X16551010Y7220604D01*
X11310000Y6942054D02*
X11335400Y6967454D01*
X11360800D01*
X11335400Y6992854D01*
X11360800Y7018254D01*
X11335400D01*
X11310000Y7043654D01*
X11284600Y7018254D01*
X11259200D01*
X11284600Y6992854D01*
X11259200Y6967454D01*
X11284600D01*
X11310000Y6942054D01*
Y6962374D02*
X11325240Y6977614D01*
X11340480D01*
X11325240Y6992854D01*
X11340480Y7008094D01*
X11325240D01*
X11310000Y7023334D01*
X11294760Y7008094D01*
X11279520D01*
X11294760Y6992854D01*
X11279520Y6977614D01*
X11294760D01*
X11310000Y6962374D01*
X10987136Y6946649D02*
X11012536Y6972049D01*
X11037936D01*
X11012536Y6997449D01*
X11037936Y7022849D01*
X11012536D01*
X10987136Y7048249D01*
X10961736Y7022849D01*
X10936336D01*
X10961736Y6997449D01*
X10936336Y6972049D01*
X10961736D01*
X10987136Y6946649D01*
Y6966969D02*
X11002376Y6982209D01*
X11017616D01*
X11002376Y6997449D01*
X11017616Y7012689D01*
X11002376D01*
X10987136Y7027929D01*
X10971896Y7012689D01*
X10956656D01*
X10971896Y6997449D01*
X10956656Y6982209D01*
X10971896D01*
X10987136Y6966969D01*
X11275156Y9514044D02*
X11300556Y9539444D01*
X11325956D01*
X11300556Y9564844D01*
X11325956Y9590244D01*
X11300556D01*
X11275156Y9615644D01*
X11249756Y9590244D01*
X11224356D01*
X11249756Y9564844D01*
X11224356Y9539444D01*
X11249756D01*
X11275156Y9514044D01*
Y9534364D02*
X11290396Y9549604D01*
X11305636D01*
X11290396Y9564844D01*
X11305636Y9580084D01*
X11290396D01*
X11275156Y9595324D01*
X11259916Y9580084D01*
X11244676D01*
X11259916Y9564844D01*
X11244676Y9549604D01*
X11259916D01*
X11275156Y9534364D01*
X11276901Y9713260D02*
X11302301Y9738660D01*
X11327701D01*
X11302301Y9764060D01*
X11327701Y9789460D01*
X11302301D01*
X11276901Y9814860D01*
X11251501Y9789460D01*
X11226101D01*
X11251501Y9764060D01*
X11226101Y9738660D01*
X11251501D01*
X11276901Y9713260D01*
Y9733580D02*
X11292141Y9748820D01*
X11307381D01*
X11292141Y9764060D01*
X11307381Y9779300D01*
X11292141D01*
X11276901Y9794540D01*
X11261661Y9779300D01*
X11246421D01*
X11261661Y9764060D01*
X11246421Y9748820D01*
X11261661D01*
X11276901Y9733580D01*
X16330000Y10639200D02*
X16355400Y10664600D01*
X16380800D01*
X16355400Y10690000D01*
X16380800Y10715400D01*
X16355400D01*
X16330000Y10740800D01*
X16304601Y10715400D01*
X16279201D01*
X16304601Y10690000D01*
X16279201Y10664600D01*
X16304601D01*
X16330000Y10639200D01*
Y10659520D02*
X16345239Y10674760D01*
X16360480D01*
X16345239Y10690000D01*
X16360480Y10705240D01*
X16345239D01*
X16330000Y10720480D01*
X16314760Y10705240D01*
X16299519D01*
X16314760Y10690000D01*
X16299519Y10674760D01*
X16314760D01*
X16330000Y10659520D01*
D224*
X5450800Y3054000D02*
G03*
X5450800Y3054000I-50800J0D01*
G01*
Y2292000D02*
G03*
X5450800Y2292000I-50800J0D01*
G01*
Y2800000D02*
G03*
X5450800Y2800000I-50800J0D01*
G01*
Y2546000D02*
G03*
X5450800Y2546000I-50800J0D01*
G01*
X20750800Y2314000D02*
G03*
X20750800Y2314000I-50800J0D01*
G01*
Y3330000D02*
G03*
X20750800Y3330000I-50800J0D01*
G01*
Y3838000D02*
G03*
X20750800Y3838000I-50800J0D01*
G01*
Y1806000D02*
G03*
X20750800Y1806000I-50800J0D01*
G01*
Y2822000D02*
G03*
X20750800Y2822000I-50800J0D01*
G01*
X11100800Y2725000D02*
G03*
X11100800Y2725000I-50800J0D01*
G01*
X11354800D02*
G03*
X11354800Y2725000I-50800J0D01*
G01*
D225*
X20730479Y2314000D02*
G03*
X20730479Y2314000I-30480J0D01*
G01*
Y3330000D02*
G03*
X20730479Y3330000I-30480J0D01*
G01*
Y3838000D02*
G03*
X20730479Y3838000I-30480J0D01*
G01*
Y1806000D02*
G03*
X20730479Y1806000I-30480J0D01*
G01*
Y2822000D02*
G03*
X20730479Y2822000I-30480J0D01*
G01*
%TF.MD5,6385f48fc6aa27fb349ea79eed2f518d*%
M02*
