%TF.GenerationSoftware,Altium Limited,Altium Designer,25.8.1 (18)*%
G04 Layer_Color=8421504*
%FSLAX45Y45*%
%MOMM*%
%TF.SameCoordinates,8572D1E1-8A29-45F6-85B8-02B6E87FD275*%
%TF.FilePolarity,Positive*%
%TF.FileFunction,Paste,Top*%
%TF.Part,Single*%
G01*
G75*
%TA.AperFunction,SMDPad,CuDef*%
%ADD11R,0.39247X1.00564*%
G04:AMPARAMS|DCode=12|XSize=1.00564mm|YSize=0.39247mm|CornerRadius=0.19624mm|HoleSize=0mm|Usage=FLASHONLY|Rotation=90.000|XOffset=0mm|YOffset=0mm|HoleType=Round|Shape=RoundedRectangle|*
%AMROUNDEDRECTD12*
21,1,1.00564,0.00000,0,0,90.0*
21,1,0.61317,0.39247,0,0,90.0*
1,1,0.39247,0.00000,0.30659*
1,1,0.39247,0.00000,-0.30659*
1,1,0.39247,0.00000,-0.30659*
1,1,0.39247,0.00000,0.30659*
%
%ADD12ROUNDEDRECTD12*%
%ADD13O,0.65000X1.52500*%
%ADD14R,0.65000X1.52500*%
%ADD15R,1.00000X1.60000*%
%ADD16R,1.10000X0.60000*%
%ADD17R,1.60000X1.00000*%
%ADD18O,1.52500X0.65000*%
%ADD19R,1.25000X1.00000*%
%ADD20R,1.08500X0.55000*%
%ADD21R,1.00000X1.25000*%
G04:AMPARAMS|DCode=22|XSize=1.00564mm|YSize=0.39247mm|CornerRadius=0.19624mm|HoleSize=0mm|Usage=FLASHONLY|Rotation=0.000|XOffset=0mm|YOffset=0mm|HoleType=Round|Shape=RoundedRectangle|*
%AMROUNDEDRECTD22*
21,1,1.00564,0.00000,0,0,0.0*
21,1,0.61317,0.39247,0,0,0.0*
1,1,0.39247,0.30659,0.00000*
1,1,0.39247,-0.30659,0.00000*
1,1,0.39247,-0.30659,0.00000*
1,1,0.39247,0.30659,0.00000*
%
%ADD22ROUNDEDRECTD22*%
%ADD23R,1.00564X0.39247*%
%ADD24R,3.80000X2.50000*%
%ADD25R,7.90000X2.30000*%
%ADD26R,3.40000X2.30000*%
%ADD27P,1.13137X4X345.0*%
G04:AMPARAMS|DCode=28|XSize=2mm|YSize=1.1mm|CornerRadius=0mm|HoleSize=0mm|Usage=FLASHONLY|Rotation=300.000|XOffset=0mm|YOffset=0mm|HoleType=Round|Shape=Rectangle|*
%AMROTATEDRECTD28*
4,1,4,-0.97632,0.59102,-0.02369,1.14103,0.97632,-0.59102,0.02369,-1.14103,-0.97632,0.59102,0.0*
%
%ADD28ROTATEDRECTD28*%

%ADD29P,1.13137X4X75.0*%
G04:AMPARAMS|DCode=30|XSize=2mm|YSize=1.1mm|CornerRadius=0mm|HoleSize=0mm|Usage=FLASHONLY|Rotation=30.000|XOffset=0mm|YOffset=0mm|HoleType=Round|Shape=Rectangle|*
%AMROTATEDRECTD30*
4,1,4,-0.59102,-0.97632,-1.14103,-0.02369,0.59102,0.97632,1.14103,0.02369,-0.59102,-0.97632,0.0*
%
%ADD30ROTATEDRECTD30*%

%ADD31R,0.30000X1.45000*%
G04:AMPARAMS|DCode=32|XSize=1.6mm|YSize=0.6mm|CornerRadius=0.3mm|HoleSize=0mm|Usage=FLASHONLY|Rotation=180.000|XOffset=0mm|YOffset=0mm|HoleType=Round|Shape=RoundedRectangle|*
%AMROUNDEDRECTD32*
21,1,1.60000,0.00000,0,0,180.0*
21,1,1.00000,0.60000,0,0,180.0*
1,1,0.60000,-0.50000,0.00000*
1,1,0.60000,0.50000,0.00000*
1,1,0.60000,0.50000,0.00000*
1,1,0.60000,-0.50000,0.00000*
%
%ADD32ROUNDEDRECTD32*%
%ADD35R,1.52500X0.65000*%
%ADD36R,1.80000X0.90000*%
%ADD37R,1.40000X0.45000*%
%ADD38R,1.05000X0.70000*%
%ADD39R,2.60000X1.10000*%
%ADD40C,1.00000*%
%ADD41R,1.10000X2.60000*%
%ADD42R,8.75000X5.20000*%
%ADD43R,1.60000X0.60000*%
%ADD44R,1.80000X3.20000*%
%TA.AperFunction,Conductor*%
%ADD65R,1.65000X3.08259*%
%TA.AperFunction,NonConductor*%
%ADD173R,1.30000X1.30000*%
G36*
X14135001Y1087500D02*
Y1084516D01*
X14132716Y1079003D01*
X14128497Y1074783D01*
X14122983Y1072500D01*
X14117017D01*
X14111504Y1074783D01*
X14107283Y1079003D01*
X14105000Y1084516D01*
Y1087500D01*
Y1167500D01*
X14135001D01*
Y1087500D01*
D02*
G37*
G36*
X14070000D02*
Y1084516D01*
X14067715Y1079003D01*
X14063496Y1074783D01*
X14057983Y1072500D01*
X14052016D01*
X14046503Y1074783D01*
X14042284Y1079003D01*
X14039999Y1084516D01*
Y1087500D01*
X14039999D01*
Y1167500D01*
X14070000D01*
Y1087500D01*
D02*
G37*
G36*
X14005000D02*
Y1084516D01*
X14002716Y1079003D01*
X13998497Y1074783D01*
X13992982Y1072500D01*
X13987016D01*
X13981503Y1074783D01*
X13977283Y1079003D01*
X13975000Y1084516D01*
Y1087500D01*
Y1167500D01*
X14005000D01*
Y1087500D01*
D02*
G37*
G36*
X13939999D02*
Y1084516D01*
X13937717Y1079003D01*
X13933496Y1074783D01*
X13927983Y1072500D01*
X13922015D01*
X13916502Y1074783D01*
X13912283Y1079003D01*
X13910001Y1084516D01*
Y1087500D01*
Y1167500D01*
X13939999D01*
X13939999Y1087500D01*
D02*
G37*
G36*
X13875000D02*
Y1084516D01*
X13872716Y1079003D01*
X13868497Y1074783D01*
X13862984Y1072500D01*
X13857016D01*
X13851503Y1074783D01*
X13847282Y1079003D01*
X13845000Y1084516D01*
Y1087500D01*
Y1167500D01*
X13875000D01*
Y1087500D01*
D02*
G37*
G36*
X14277499Y995000D02*
X14194516D01*
X14189003Y997284D01*
X14184782Y1001503D01*
X14182500Y1007016D01*
Y1010000D01*
Y1012983D01*
X14184782Y1018497D01*
X14189003Y1022716D01*
X14194516Y1025000D01*
X14277499D01*
Y995000D01*
D02*
G37*
G36*
X13790997Y1022716D02*
X13795216Y1018497D01*
X13797501Y1012983D01*
Y1010000D01*
Y1007016D01*
X13795216Y1001503D01*
X13790997Y997284D01*
X13785483Y995000D01*
X13702499D01*
Y1025000D01*
X13785483D01*
X13790997Y1022716D01*
D02*
G37*
G36*
X14277499Y930000D02*
X14197501Y930000D01*
X14194516D01*
X14189003Y932284D01*
X14184782Y936503D01*
X14182500Y942016D01*
Y945000D01*
Y947984D01*
X14184782Y953497D01*
X14189003Y957716D01*
X14194516Y960000D01*
X14277499D01*
Y930000D01*
D02*
G37*
G36*
X13790997Y957716D02*
X13795216Y953497D01*
X13797501Y947984D01*
Y945000D01*
Y942016D01*
X13795216Y936503D01*
X13790997Y932284D01*
X13785483Y930000D01*
X13782500D01*
Y930000D01*
X13702499D01*
Y960000D01*
X13785483D01*
X13790997Y957716D01*
D02*
G37*
G36*
X14277499Y865000D02*
X14194516D01*
X14189003Y867284D01*
X14184782Y871503D01*
X14182500Y877016D01*
Y880000D01*
Y882984D01*
X14184782Y888497D01*
X14189003Y892716D01*
X14194516Y895000D01*
X14277499D01*
Y865000D01*
D02*
G37*
G36*
X13790997Y892716D02*
X13795216Y888497D01*
X13797501Y882984D01*
Y880000D01*
Y877016D01*
X13795216Y871503D01*
X13790997Y867284D01*
X13785483Y865000D01*
X13702499D01*
Y895000D01*
X13785483D01*
X13790997Y892716D01*
D02*
G37*
G36*
X14277499Y800000D02*
X14194516D01*
X14189003Y802283D01*
X14184782Y806503D01*
X14182500Y812016D01*
Y815000D01*
Y817983D01*
X14184782Y823496D01*
X14189003Y827716D01*
X14194516Y830000D01*
X14197501D01*
Y830000D01*
X14277499D01*
Y800000D01*
D02*
G37*
G36*
X13782500Y830000D02*
X13785483D01*
X13790997Y827716D01*
X13795216Y823496D01*
X13797501Y817983D01*
Y815000D01*
Y812016D01*
X13795216Y806503D01*
X13790997Y802283D01*
X13785483Y800000D01*
X13702499D01*
Y830000D01*
X13782500Y830000D01*
D02*
G37*
G36*
X14277499Y735000D02*
X14194516D01*
X14189003Y737284D01*
X14184782Y741503D01*
X14182500Y747016D01*
Y750000D01*
Y752984D01*
X14184782Y758497D01*
X14189003Y762716D01*
X14194516Y765000D01*
X14277499D01*
Y735000D01*
D02*
G37*
G36*
X13790997Y762716D02*
X13795216Y758497D01*
X13797501Y752984D01*
Y750000D01*
Y747016D01*
X13795216Y741503D01*
X13790997Y737284D01*
X13785483Y735000D01*
X13702499D01*
Y765000D01*
X13785483D01*
X13790997Y762716D01*
D02*
G37*
G36*
X14128497Y685216D02*
X14132716Y680997D01*
X14135001Y675484D01*
Y672500D01*
Y592500D01*
X14105000D01*
Y672500D01*
Y675484D01*
X14107283Y680997D01*
X14111504Y685216D01*
X14117017Y687500D01*
X14122983D01*
X14128497Y685216D01*
D02*
G37*
G36*
X14063496D02*
X14067715Y680997D01*
X14070000Y675484D01*
Y672500D01*
Y592500D01*
X14039999D01*
X14039999Y672500D01*
Y675484D01*
X14042284Y680997D01*
X14046503Y685216D01*
X14052016Y687500D01*
X14057983D01*
X14063496Y685216D01*
D02*
G37*
G36*
X13998497D02*
X14002716Y680997D01*
X14005000Y675484D01*
Y672500D01*
Y592500D01*
X13975000D01*
Y672500D01*
Y675484D01*
X13977283Y680997D01*
X13981503Y685216D01*
X13987016Y687500D01*
X13992982D01*
X13998497Y685216D01*
D02*
G37*
G36*
X13933496D02*
X13937717Y680997D01*
X13939999Y675484D01*
Y672500D01*
X13939999D01*
Y592500D01*
X13910001D01*
Y672500D01*
Y675484D01*
X13912283Y680997D01*
X13916502Y685216D01*
X13922015Y687500D01*
X13927983D01*
X13933496Y685216D01*
D02*
G37*
G36*
X13868497D02*
X13872716Y680997D01*
X13875000Y675484D01*
Y672500D01*
Y592500D01*
X13845000D01*
Y672500D01*
Y675484D01*
X13847282Y680997D01*
X13851503Y685216D01*
X13857016Y687500D01*
X13862984D01*
X13868497Y685216D01*
D02*
G37*
G36*
X14269273Y3467500D02*
Y3464517D01*
X14266991Y3459003D01*
X14262772Y3454784D01*
X14257257Y3452500D01*
X14251289D01*
X14245776Y3454784D01*
X14241557Y3459003D01*
X14239275Y3464517D01*
Y3467500D01*
Y3547500D01*
X14269273D01*
Y3467500D01*
D02*
G37*
G36*
X14204274D02*
Y3464517D01*
X14201990Y3459003D01*
X14197771Y3454784D01*
X14192258Y3452500D01*
X14186290D01*
X14180777Y3454784D01*
X14176558Y3459003D01*
X14174274Y3464517D01*
Y3467500D01*
X14174274D01*
Y3547500D01*
X14204274D01*
Y3467500D01*
D02*
G37*
G36*
X14139275D02*
Y3464517D01*
X14136990Y3459003D01*
X14132771Y3454784D01*
X14127257Y3452500D01*
X14121291D01*
X14115778Y3454784D01*
X14111559Y3459003D01*
X14109274Y3464517D01*
Y3467500D01*
Y3547500D01*
X14139275D01*
Y3467500D01*
D02*
G37*
G36*
X14074274D02*
Y3464517D01*
X14071989Y3459003D01*
X14067770Y3454784D01*
X14062257Y3452500D01*
X14056290D01*
X14050777Y3454784D01*
X14046558Y3459003D01*
X14044273Y3464517D01*
Y3467500D01*
Y3547500D01*
X14074274D01*
X14074274Y3467500D01*
D02*
G37*
G36*
X14009274D02*
Y3464517D01*
X14006990Y3459003D01*
X14002771Y3454784D01*
X13997258Y3452500D01*
X13991290D01*
X13985777Y3454784D01*
X13981558Y3459003D01*
X13979274Y3464517D01*
Y3467500D01*
Y3547500D01*
X14009274D01*
Y3467500D01*
D02*
G37*
G36*
X14411774Y3375000D02*
X14328790D01*
X14323277Y3377284D01*
X14319057Y3381504D01*
X14316774Y3387017D01*
Y3390000D01*
Y3392984D01*
X14319057Y3398497D01*
X14323277Y3402717D01*
X14328790Y3405000D01*
X14411774D01*
Y3375000D01*
D02*
G37*
G36*
X13925272Y3402717D02*
X13929491Y3398497D01*
X13931773Y3392984D01*
Y3390000D01*
Y3387017D01*
X13929491Y3381504D01*
X13925272Y3377284D01*
X13919759Y3375000D01*
X13836774D01*
Y3405000D01*
X13919759D01*
X13925272Y3402717D01*
D02*
G37*
G36*
X14411774Y3310000D02*
X14331773Y3310000D01*
X14328790D01*
X14323277Y3312284D01*
X14319057Y3316504D01*
X14316774Y3322017D01*
Y3325000D01*
Y3327984D01*
X14319057Y3333497D01*
X14323277Y3337717D01*
X14328790Y3340000D01*
X14411774D01*
Y3310000D01*
D02*
G37*
G36*
X13925272Y3337717D02*
X13929491Y3333497D01*
X13931773Y3327984D01*
Y3325000D01*
Y3322017D01*
X13929491Y3316504D01*
X13925272Y3312284D01*
X13919759Y3310000D01*
X13916774D01*
Y3310000D01*
X13836774D01*
Y3340000D01*
X13919759D01*
X13925272Y3337717D01*
D02*
G37*
G36*
X14411774Y3245000D02*
X14328790D01*
X14323277Y3247284D01*
X14319057Y3251504D01*
X14316774Y3257017D01*
Y3260000D01*
Y3262984D01*
X14319057Y3268497D01*
X14323277Y3272717D01*
X14328790Y3275000D01*
X14411774D01*
Y3245000D01*
D02*
G37*
G36*
X13925272Y3272717D02*
X13929491Y3268497D01*
X13931773Y3262984D01*
Y3260000D01*
Y3257017D01*
X13929491Y3251504D01*
X13925272Y3247284D01*
X13919759Y3245000D01*
X13836774D01*
Y3275000D01*
X13919759D01*
X13925272Y3272717D01*
D02*
G37*
G36*
X14411774Y3180000D02*
X14328790D01*
X14323277Y3182284D01*
X14319057Y3186503D01*
X14316774Y3192016D01*
Y3195000D01*
Y3197984D01*
X14319057Y3203497D01*
X14323277Y3207716D01*
X14328790Y3210000D01*
X14331773D01*
Y3210000D01*
X14411774D01*
Y3180000D01*
D02*
G37*
G36*
X13916774Y3210000D02*
X13919759D01*
X13925272Y3207716D01*
X13929491Y3203497D01*
X13931773Y3197984D01*
Y3195000D01*
Y3192016D01*
X13929491Y3186503D01*
X13925272Y3182284D01*
X13919759Y3180000D01*
X13836774D01*
Y3210000D01*
X13916774Y3210000D01*
D02*
G37*
G36*
X14411774Y3115000D02*
X14328790D01*
X14323277Y3117284D01*
X14319057Y3121504D01*
X14316774Y3127017D01*
Y3130000D01*
Y3132984D01*
X14319057Y3138497D01*
X14323277Y3142717D01*
X14328790Y3145000D01*
X14411774D01*
Y3115000D01*
D02*
G37*
G36*
X13925272Y3142717D02*
X13929491Y3138497D01*
X13931773Y3132984D01*
Y3130000D01*
Y3127017D01*
X13929491Y3121504D01*
X13925272Y3117284D01*
X13919759Y3115000D01*
X13836774D01*
Y3145000D01*
X13919759D01*
X13925272Y3142717D01*
D02*
G37*
G36*
X14262772Y3065217D02*
X14266991Y3060997D01*
X14269273Y3055484D01*
Y3052500D01*
Y2972500D01*
X14239275D01*
Y3052500D01*
Y3055484D01*
X14241557Y3060997D01*
X14245776Y3065217D01*
X14251289Y3067500D01*
X14257257D01*
X14262772Y3065217D01*
D02*
G37*
G36*
X14197771D02*
X14201990Y3060997D01*
X14204274Y3055484D01*
Y3052500D01*
Y2972500D01*
X14174274D01*
X14174274Y3052500D01*
Y3055484D01*
X14176558Y3060997D01*
X14180777Y3065217D01*
X14186290Y3067500D01*
X14192258D01*
X14197771Y3065217D01*
D02*
G37*
G36*
X14132771D02*
X14136990Y3060997D01*
X14139275Y3055484D01*
Y3052500D01*
Y2972500D01*
X14109274D01*
Y3052500D01*
Y3055484D01*
X14111559Y3060997D01*
X14115778Y3065217D01*
X14121291Y3067500D01*
X14127257D01*
X14132771Y3065217D01*
D02*
G37*
G36*
X14067770D02*
X14071989Y3060997D01*
X14074274Y3055484D01*
Y3052500D01*
X14074274D01*
Y2972500D01*
X14044273D01*
Y3052500D01*
Y3055484D01*
X14046558Y3060997D01*
X14050777Y3065217D01*
X14056290Y3067500D01*
X14062257D01*
X14067770Y3065217D01*
D02*
G37*
G36*
X14002771D02*
X14006990Y3060997D01*
X14009274Y3055484D01*
Y3052500D01*
Y2972500D01*
X13979274D01*
Y3052500D01*
Y3055484D01*
X13981558Y3060997D01*
X13985777Y3065217D01*
X13991290Y3067500D01*
X13997258D01*
X14002771Y3065217D01*
D02*
G37*
G36*
X16519273Y1087500D02*
Y1084517D01*
X16516991Y1079004D01*
X16512770Y1074784D01*
X16507257Y1072501D01*
X16501289D01*
X16495776Y1074784D01*
X16491557Y1079004D01*
X16489275Y1084517D01*
Y1087500D01*
Y1167501D01*
X16519273D01*
Y1087500D01*
D02*
G37*
G36*
X16454274D02*
Y1084517D01*
X16451990Y1079004D01*
X16447771Y1074784D01*
X16442258Y1072501D01*
X16436290D01*
X16430777Y1074784D01*
X16426556Y1079004D01*
X16424274Y1084517D01*
Y1087500D01*
X16424274D01*
Y1167501D01*
X16454274D01*
Y1087500D01*
D02*
G37*
G36*
X16389275D02*
Y1084517D01*
X16386990Y1079004D01*
X16382770Y1074784D01*
X16377257Y1072501D01*
X16371291D01*
X16365778Y1074784D01*
X16361557Y1079004D01*
X16359274Y1084517D01*
Y1087500D01*
Y1167501D01*
X16389275D01*
Y1087500D01*
D02*
G37*
G36*
X16324274D02*
Y1084517D01*
X16321989Y1079004D01*
X16317770Y1074784D01*
X16312257Y1072501D01*
X16306290D01*
X16300777Y1074784D01*
X16296558Y1079004D01*
X16294273Y1084517D01*
Y1087500D01*
Y1167501D01*
X16324274D01*
X16324274Y1087500D01*
D02*
G37*
G36*
X16259274D02*
Y1084517D01*
X16256990Y1079004D01*
X16252769Y1074784D01*
X16247256Y1072501D01*
X16241290D01*
X16235777Y1074784D01*
X16231557Y1079004D01*
X16229274Y1084517D01*
Y1087500D01*
Y1167501D01*
X16259274D01*
Y1087500D01*
D02*
G37*
G36*
X16661774Y995001D02*
X16578790D01*
X16573277Y997284D01*
X16569057Y1001504D01*
X16566774Y1007017D01*
Y1010001D01*
Y1012984D01*
X16569057Y1018497D01*
X16573277Y1022717D01*
X16578790Y1025000D01*
X16661774D01*
Y995001D01*
D02*
G37*
G36*
X16175270Y1022717D02*
X16179491Y1018497D01*
X16181773Y1012984D01*
Y1010001D01*
Y1007017D01*
X16179491Y1001504D01*
X16175270Y997284D01*
X16169757Y995001D01*
X16086774D01*
Y1025000D01*
X16169757D01*
X16175270Y1022717D01*
D02*
G37*
G36*
X16661774Y930000D02*
X16581773Y930001D01*
X16578790D01*
X16573277Y932284D01*
X16569057Y936504D01*
X16566774Y942017D01*
Y945001D01*
Y947984D01*
X16569057Y953497D01*
X16573277Y957717D01*
X16578790Y960001D01*
X16661774D01*
Y930000D01*
D02*
G37*
G36*
X16175270Y957717D02*
X16179491Y953497D01*
X16181773Y947984D01*
Y945001D01*
Y942017D01*
X16179491Y936504D01*
X16175270Y932284D01*
X16169757Y930001D01*
X16166774D01*
Y930000D01*
X16086774D01*
Y960001D01*
X16169757D01*
X16175270Y957717D01*
D02*
G37*
G36*
X16661774Y865001D02*
X16578790D01*
X16573277Y867284D01*
X16569057Y871504D01*
X16566774Y877017D01*
Y880001D01*
Y882984D01*
X16569057Y888497D01*
X16573277Y892717D01*
X16578790Y895000D01*
X16661774D01*
Y865001D01*
D02*
G37*
G36*
X16175270Y892717D02*
X16179491Y888497D01*
X16181773Y882984D01*
Y880001D01*
Y877017D01*
X16179491Y871504D01*
X16175270Y867284D01*
X16169757Y865001D01*
X16086774D01*
Y895000D01*
X16169757D01*
X16175270Y892717D01*
D02*
G37*
G36*
X16661774Y800000D02*
X16578790D01*
X16573277Y802284D01*
X16569057Y806504D01*
X16566774Y812017D01*
Y815000D01*
Y817984D01*
X16569057Y823497D01*
X16573277Y827717D01*
X16578790Y830000D01*
X16581773D01*
Y830001D01*
X16661774D01*
Y800000D01*
D02*
G37*
G36*
X16166774Y830000D02*
X16169757D01*
X16175270Y827717D01*
X16179491Y823497D01*
X16181773Y817984D01*
Y815000D01*
Y812017D01*
X16179491Y806504D01*
X16175270Y802284D01*
X16169757Y800000D01*
X16086774D01*
Y830001D01*
X16166774Y830000D01*
D02*
G37*
G36*
X16661774Y735001D02*
X16578790D01*
X16573277Y737284D01*
X16569057Y741504D01*
X16566774Y747017D01*
Y750001D01*
Y752984D01*
X16569057Y758497D01*
X16573277Y762717D01*
X16578790Y765001D01*
X16661774D01*
Y735001D01*
D02*
G37*
G36*
X16175270Y762717D02*
X16179491Y758497D01*
X16181773Y752984D01*
Y750001D01*
Y747017D01*
X16179491Y741504D01*
X16175270Y737284D01*
X16169757Y735001D01*
X16086774D01*
Y765001D01*
X16169757D01*
X16175270Y762717D01*
D02*
G37*
G36*
X16512770Y685217D02*
X16516991Y680997D01*
X16519273Y675484D01*
Y672501D01*
Y592500D01*
X16489275D01*
Y672501D01*
Y675484D01*
X16491557Y680997D01*
X16495776Y685217D01*
X16501289Y687501D01*
X16507257D01*
X16512770Y685217D01*
D02*
G37*
G36*
X16447771D02*
X16451990Y680997D01*
X16454274Y675484D01*
Y672501D01*
Y592500D01*
X16424274D01*
X16424274Y672501D01*
Y675484D01*
X16426556Y680997D01*
X16430777Y685217D01*
X16436290Y687501D01*
X16442258D01*
X16447771Y685217D01*
D02*
G37*
G36*
X16382770D02*
X16386990Y680997D01*
X16389275Y675484D01*
Y672501D01*
Y592500D01*
X16359274D01*
Y672501D01*
Y675484D01*
X16361557Y680997D01*
X16365778Y685217D01*
X16371291Y687501D01*
X16377257D01*
X16382770Y685217D01*
D02*
G37*
G36*
X16317770D02*
X16321989Y680997D01*
X16324274Y675484D01*
Y672501D01*
X16324274D01*
Y592500D01*
X16294273D01*
Y672501D01*
Y675484D01*
X16296558Y680997D01*
X16300777Y685217D01*
X16306290Y687501D01*
X16312257D01*
X16317770Y685217D01*
D02*
G37*
G36*
X16252769D02*
X16256990Y680997D01*
X16259274Y675484D01*
Y672501D01*
Y592500D01*
X16229274D01*
Y672501D01*
Y675484D01*
X16231557Y680997D01*
X16235777Y685217D01*
X16241290Y687501D01*
X16247256D01*
X16252769Y685217D01*
D02*
G37*
G36*
X16545000Y3467500D02*
Y3464516D01*
X16542715Y3459003D01*
X16538496Y3454784D01*
X16532983Y3452500D01*
X16527016D01*
X16521503Y3454784D01*
X16517284Y3459003D01*
X16514999Y3464516D01*
Y3467500D01*
Y3547500D01*
X16545000D01*
Y3467500D01*
D02*
G37*
G36*
X16480000D02*
Y3464516D01*
X16477716Y3459003D01*
X16473497Y3454784D01*
X16467984Y3452500D01*
X16462016D01*
X16456503Y3454784D01*
X16452284Y3459003D01*
X16450000Y3464516D01*
Y3467500D01*
X16450000D01*
Y3547500D01*
X16480000D01*
Y3467500D01*
D02*
G37*
G36*
X16414999D02*
Y3464516D01*
X16412717Y3459003D01*
X16408498Y3454784D01*
X16402983Y3452500D01*
X16397015D01*
X16391502Y3454784D01*
X16387283Y3459003D01*
X16385001Y3464516D01*
Y3467500D01*
Y3547500D01*
X16414999D01*
Y3467500D01*
D02*
G37*
G36*
X16350000D02*
Y3464516D01*
X16347716Y3459003D01*
X16343497Y3454784D01*
X16337984Y3452500D01*
X16332016D01*
X16326503Y3454784D01*
X16322282Y3459003D01*
X16320000Y3464516D01*
Y3467500D01*
Y3547500D01*
X16350000D01*
X16350000Y3467500D01*
D02*
G37*
G36*
X16285001D02*
Y3464516D01*
X16282716Y3459003D01*
X16278497Y3454784D01*
X16272983Y3452500D01*
X16267017D01*
X16261504Y3454784D01*
X16257283Y3459003D01*
X16255000Y3464516D01*
Y3467500D01*
Y3547500D01*
X16285001D01*
Y3467500D01*
D02*
G37*
G36*
X16687500Y3375000D02*
X16604517D01*
X16599004Y3377284D01*
X16594783Y3381503D01*
X16592500Y3387016D01*
Y3390000D01*
Y3392984D01*
X16594783Y3398497D01*
X16599004Y3402716D01*
X16604517Y3405000D01*
X16687500D01*
Y3375000D01*
D02*
G37*
G36*
X16200996Y3402716D02*
X16205215Y3398497D01*
X16207500Y3392984D01*
Y3390000D01*
Y3387016D01*
X16205215Y3381503D01*
X16200996Y3377284D01*
X16195483Y3375000D01*
X16112500D01*
Y3405000D01*
X16195483D01*
X16200996Y3402716D01*
D02*
G37*
G36*
X16687500Y3310000D02*
X16607500Y3310000D01*
X16604517D01*
X16599004Y3312284D01*
X16594783Y3316503D01*
X16592500Y3322016D01*
Y3325000D01*
Y3327984D01*
X16594783Y3333497D01*
X16599004Y3337716D01*
X16604517Y3340000D01*
X16687500D01*
Y3310000D01*
D02*
G37*
G36*
X16200996Y3337716D02*
X16205215Y3333497D01*
X16207500Y3327984D01*
Y3325000D01*
Y3322016D01*
X16205215Y3316503D01*
X16200996Y3312284D01*
X16195483Y3310000D01*
X16192500D01*
Y3310000D01*
X16112500D01*
Y3340000D01*
X16195483D01*
X16200996Y3337716D01*
D02*
G37*
G36*
X16687500Y3245000D02*
X16604517D01*
X16599004Y3247284D01*
X16594783Y3251503D01*
X16592500Y3257016D01*
Y3260000D01*
Y3262984D01*
X16594783Y3268497D01*
X16599004Y3272716D01*
X16604517Y3275000D01*
X16687500D01*
Y3245000D01*
D02*
G37*
G36*
X16200996Y3272716D02*
X16205215Y3268497D01*
X16207500Y3262984D01*
Y3260000D01*
Y3257016D01*
X16205215Y3251503D01*
X16200996Y3247284D01*
X16195483Y3245000D01*
X16112500D01*
Y3275000D01*
X16195483D01*
X16200996Y3272716D01*
D02*
G37*
G36*
X16687500Y3180000D02*
X16604517D01*
X16599004Y3182283D01*
X16594783Y3186503D01*
X16592500Y3192016D01*
Y3195000D01*
Y3197983D01*
X16594783Y3203497D01*
X16599004Y3207716D01*
X16604517Y3210000D01*
X16607500D01*
Y3210000D01*
X16687500D01*
Y3180000D01*
D02*
G37*
G36*
X16192500Y3210000D02*
X16195483D01*
X16200996Y3207716D01*
X16205215Y3203497D01*
X16207500Y3197983D01*
Y3195000D01*
Y3192016D01*
X16205215Y3186503D01*
X16200996Y3182283D01*
X16195483Y3180000D01*
X16112500D01*
Y3210000D01*
X16192500Y3210000D01*
D02*
G37*
G36*
X16687500Y3115000D02*
X16604517D01*
X16599004Y3117284D01*
X16594783Y3121503D01*
X16592500Y3127016D01*
Y3130000D01*
Y3132984D01*
X16594783Y3138497D01*
X16599004Y3142716D01*
X16604517Y3145000D01*
X16687500D01*
Y3115000D01*
D02*
G37*
G36*
X16200996Y3142716D02*
X16205215Y3138497D01*
X16207500Y3132984D01*
Y3130000D01*
Y3127016D01*
X16205215Y3121503D01*
X16200996Y3117284D01*
X16195483Y3115000D01*
X16112500D01*
Y3145000D01*
X16195483D01*
X16200996Y3142716D01*
D02*
G37*
G36*
X16538496Y3065216D02*
X16542715Y3060997D01*
X16545000Y3055484D01*
Y3052500D01*
Y2972500D01*
X16514999D01*
Y3052500D01*
Y3055484D01*
X16517284Y3060997D01*
X16521503Y3065216D01*
X16527016Y3067500D01*
X16532983D01*
X16538496Y3065216D01*
D02*
G37*
G36*
X16473497D02*
X16477716Y3060997D01*
X16480000Y3055484D01*
Y3052500D01*
Y2972500D01*
X16450000D01*
X16450000Y3052500D01*
Y3055484D01*
X16452284Y3060997D01*
X16456503Y3065216D01*
X16462016Y3067500D01*
X16467984D01*
X16473497Y3065216D01*
D02*
G37*
G36*
X16408498D02*
X16412717Y3060997D01*
X16414999Y3055484D01*
Y3052500D01*
Y2972500D01*
X16385001D01*
Y3052500D01*
Y3055484D01*
X16387283Y3060997D01*
X16391502Y3065216D01*
X16397015Y3067500D01*
X16402983D01*
X16408498Y3065216D01*
D02*
G37*
G36*
X16343497D02*
X16347716Y3060997D01*
X16350000Y3055484D01*
Y3052500D01*
X16350000D01*
Y2972500D01*
X16320000D01*
Y3052500D01*
Y3055484D01*
X16322282Y3060997D01*
X16326503Y3065216D01*
X16332016Y3067500D01*
X16337984D01*
X16343497Y3065216D01*
D02*
G37*
G36*
X16278497D02*
X16282716Y3060997D01*
X16285001Y3055484D01*
Y3052500D01*
Y2972500D01*
X16255000D01*
Y3052500D01*
Y3055484D01*
X16257283Y3060997D01*
X16261504Y3065216D01*
X16267017Y3067500D01*
X16272983D01*
X16278497Y3065216D01*
D02*
G37*
D11*
X12425001Y4879969D02*
D03*
X12860001Y4920251D02*
D03*
X13100002Y5030281D02*
D03*
X12650004D02*
D03*
X13310004Y4917601D02*
D03*
X13758842Y4916973D02*
D03*
X13978844Y5027025D02*
D03*
X13550005Y5030280D02*
D03*
X3050028Y7800057D02*
D03*
D12*
X12425000Y5080026D02*
D03*
X12860001Y5120309D02*
D03*
X3050028Y7599999D02*
D03*
X12650002Y4830223D02*
D03*
X13978841Y4826969D02*
D03*
X13550003Y4830225D02*
D03*
X13100003Y4830227D02*
D03*
X13758844Y5117032D02*
D03*
X13310001Y5117656D02*
D03*
D13*
X13900446Y9376781D02*
D03*
X13773444Y9376782D02*
D03*
X13646443Y9376782D02*
D03*
X13519444Y9376781D02*
D03*
X13265443Y9376782D02*
D03*
X13138445Y9376781D02*
D03*
X13011446Y9376781D02*
D03*
Y9919182D02*
D03*
X13138445Y9919181D02*
D03*
X13265446Y9919181D02*
D03*
X13519444Y9919182D02*
D03*
X13646445Y9919181D02*
D03*
X13773445Y9919182D02*
D03*
X13392445Y9376781D02*
D03*
Y9919182D02*
D03*
X13691859Y8502898D02*
D03*
X13930666Y6392084D02*
D03*
X13691859Y7960498D02*
D03*
X13564859Y8502898D02*
D03*
X13930664Y5849684D02*
D03*
X13564859Y7960498D02*
D03*
X13945859Y8502899D02*
D03*
X13818858Y8502898D02*
D03*
X13437859Y8502899D02*
D03*
X13310860Y8502898D02*
D03*
X13183859Y8502898D02*
D03*
Y7960498D02*
D03*
X13310860Y7960498D02*
D03*
X13437859Y7960499D02*
D03*
X13818858Y7960498D02*
D03*
X13945859Y7960499D02*
D03*
X14072859Y7960498D02*
D03*
X14311662Y5849684D02*
D03*
X14184663D02*
D03*
X14057664Y5849683D02*
D03*
Y6392084D02*
D03*
X14184663Y6392084D02*
D03*
D14*
X13900446Y9919182D02*
D03*
X14072859Y8502898D02*
D03*
X14311665Y6392082D02*
D03*
D15*
X15644667Y10075000D02*
D03*
X13225000Y5375000D02*
D03*
X8274998Y2300001D02*
D03*
X10774999Y1875001D02*
D03*
X12991164Y6670883D02*
D03*
X12691165Y6670882D02*
D03*
X13525000Y5375000D02*
D03*
X12700000Y5300000D02*
D03*
X12400000Y5300000D02*
D03*
X15344669Y10074999D02*
D03*
X15254802Y7774999D02*
D03*
X15554800Y7774999D02*
D03*
X16431967Y8216202D02*
D03*
X17225000Y8000000D02*
D03*
X12811359Y10162199D02*
D03*
X14128358Y8799647D02*
D03*
X9300000Y7550000D02*
D03*
X9000001Y8099999D02*
D03*
X9300000Y7300000D02*
D03*
X13580000Y5645886D02*
D03*
X9300000Y5860000D02*
D03*
X17525000Y8000000D02*
D03*
X8612721Y1621723D02*
D03*
X8912720Y1621724D02*
D03*
X15831969Y9404981D02*
D03*
X15531969D02*
D03*
X9000000Y5860000D02*
D03*
X6521723Y4500000D02*
D03*
X16131969Y8216201D02*
D03*
X13481163Y6930885D02*
D03*
X9000000Y7550000D02*
D03*
X9299999Y8100000D02*
D03*
X9000000Y7300000D02*
D03*
Y8350000D02*
D03*
X9300000D02*
D03*
X6221725Y4499999D02*
D03*
X13478662Y6670883D02*
D03*
X13178664Y6670882D02*
D03*
X15118657Y9192200D02*
D03*
X14818658Y9192199D02*
D03*
X7975000Y2299999D02*
D03*
X13111359Y10162200D02*
D03*
X16131969Y7866201D02*
D03*
X16431967Y7866202D02*
D03*
X15951967Y8096202D02*
D03*
X15651968Y8096201D02*
D03*
X13828358Y8799646D02*
D03*
X13349046Y8769646D02*
D03*
X13649046Y8769647D02*
D03*
X14129166Y6630664D02*
D03*
X14429164Y6630665D02*
D03*
X13580000Y5893435D02*
D03*
X13279999Y5893435D02*
D03*
X13181165Y6930885D02*
D03*
X13280000Y5645886D02*
D03*
X12975000Y6930885D02*
D03*
X12674999Y6930885D02*
D03*
X10475001Y1875000D02*
D03*
D16*
X15560001Y9750000D02*
D03*
X13021164Y5580884D02*
D03*
X9426467Y1382737D02*
D03*
X15559999Y9655001D02*
D03*
X9686467Y1287737D02*
D03*
X9426467D02*
D03*
Y1477737D02*
D03*
X9686467D02*
D03*
X15820000Y9845000D02*
D03*
X12761165Y5485884D02*
D03*
X15820000Y9655001D02*
D03*
X15559999Y9845000D02*
D03*
X12761164Y5675883D02*
D03*
X13021164Y5675884D02*
D03*
X13021162Y5485884D02*
D03*
D17*
X14749998Y7774999D02*
D03*
X8511955Y2375001D02*
D03*
X14750000Y7475001D02*
D03*
X16779066Y7245199D02*
D03*
X16813528Y6362200D02*
D03*
X14408360Y8837246D02*
D03*
X17149998Y3121138D02*
D03*
X15980000Y10375000D02*
D03*
X17114275Y730001D02*
D03*
X15575000Y3899999D02*
D03*
X14564273Y3910000D02*
D03*
X15889999Y2602500D02*
D03*
X15885979Y730001D02*
D03*
X14720000Y736697D02*
D03*
X13723163Y7349200D02*
D03*
X13460661Y7350000D02*
D03*
X14220381Y4849627D02*
D03*
X12190379Y4740882D02*
D03*
X13624275Y3113482D02*
D03*
X13480000Y739913D02*
D03*
X8511954Y2674999D02*
D03*
X7735847Y1225001D02*
D03*
X8886797Y2170680D02*
D03*
X8886798Y1870681D02*
D03*
X7735846Y1524999D02*
D03*
X15980000Y10075000D02*
D03*
X16150000Y9800000D02*
D03*
Y9500000D02*
D03*
X10216468Y1597395D02*
D03*
X10216466Y1897393D02*
D03*
X7400000Y1650000D02*
D03*
Y1949999D02*
D03*
X5925000Y3925000D02*
D03*
Y3625000D02*
D03*
X16813528Y6662200D02*
D03*
X14720000Y1036697D02*
D03*
X13480000Y1039913D02*
D03*
X15885979Y1030000D02*
D03*
X17114275D02*
D03*
X15575002Y3600001D02*
D03*
X14564275Y3610001D02*
D03*
X15889999Y2902500D02*
D03*
X13624274Y3413480D02*
D03*
X15889999Y3415981D02*
D03*
Y3115981D02*
D03*
X17150000Y3421137D02*
D03*
X15620000Y3412500D02*
D03*
Y3112500D02*
D03*
X8624998Y2178000D02*
D03*
X8625000Y1878002D02*
D03*
X13976459Y7649200D02*
D03*
X13976459Y7349200D02*
D03*
X15025000Y7475001D02*
D03*
X15024998Y7774999D02*
D03*
X16671968Y7936202D02*
D03*
X16671967Y8236201D02*
D03*
X14390314Y8164180D02*
D03*
X14390315Y7864182D02*
D03*
X16779066Y6945201D02*
D03*
X14408359Y8537248D02*
D03*
X13460661Y7649999D02*
D03*
X13723161Y7649199D02*
D03*
X12299102Y9768582D02*
D03*
X12299103Y9468584D02*
D03*
X12542785Y9468583D02*
D03*
Y9768583D02*
D03*
X12815945Y9467982D02*
D03*
X12815944Y9767981D02*
D03*
X14220381Y5149623D02*
D03*
X12190380Y5040882D02*
D03*
X12550000Y5825881D02*
D03*
X12550000Y5525884D02*
D03*
D18*
X14697456Y9437482D02*
D03*
X14697458Y7991200D02*
D03*
X8227399Y2082002D02*
D03*
X17069568Y7280202D02*
D03*
X17055367Y6501701D02*
D03*
X16553168Y8542701D02*
D03*
X11691199Y9411850D02*
D03*
X11148800Y7375500D02*
D03*
X10828651Y8776850D02*
D03*
Y8395850D02*
D03*
Y8268850D02*
D03*
X14697458Y9691482D02*
D03*
Y9564482D02*
D03*
X15239857Y9437481D02*
D03*
X15239857Y9564482D02*
D03*
X15239857Y9818481D02*
D03*
X15239857Y9691482D02*
D03*
X7684999Y1828002D02*
D03*
X7684999Y1955001D02*
D03*
X7684999Y2082003D02*
D03*
X8227400Y1955001D02*
D03*
Y1828001D02*
D03*
X7684999Y1701001D02*
D03*
X16010768Y8542701D02*
D03*
X11148800Y8649850D02*
D03*
X11148798Y8522851D02*
D03*
X10828651Y8522849D02*
D03*
X11691200Y8264500D02*
D03*
X10286250Y7887850D02*
D03*
X10286251Y8522850D02*
D03*
X10286250Y8141850D02*
D03*
X17611967Y7534202D02*
D03*
X17055367Y6755699D02*
D03*
X15239857Y8245198D02*
D03*
X17055367Y6628699D02*
D03*
X17597765Y6501699D02*
D03*
X17597766Y6628699D02*
D03*
Y6755699D02*
D03*
X17597766Y6882698D02*
D03*
X17611967Y7661201D02*
D03*
X17611967Y7407202D02*
D03*
X17611967Y7280201D02*
D03*
X17069568Y7407202D02*
D03*
Y7534202D02*
D03*
X14697458Y8245198D02*
D03*
Y8118198D02*
D03*
X15239857Y7991198D02*
D03*
X15239857Y8118198D02*
D03*
X15239857Y8372197D02*
D03*
X16553168Y8796701D02*
D03*
X16553168Y8669701D02*
D03*
X16553168Y8415701D02*
D03*
X16010768Y8415702D02*
D03*
X16010768Y8669701D02*
D03*
X11691200Y8649850D02*
D03*
X11691199Y8776850D02*
D03*
X11691198Y8903851D02*
D03*
X11691199Y9030851D02*
D03*
X11691200Y9157849D02*
D03*
X11691199Y9284851D02*
D03*
X11148799Y9411850D02*
D03*
X11148798Y9284851D02*
D03*
X11148799Y9157851D02*
D03*
X11148799Y9030851D02*
D03*
X11148798Y8903851D02*
D03*
X11148798Y8776851D02*
D03*
X11148800Y8137500D02*
D03*
Y8010500D02*
D03*
X11148800Y7883500D02*
D03*
Y7756500D02*
D03*
X11148801Y7502500D02*
D03*
X11691200Y7375500D02*
D03*
X11691200Y7502500D02*
D03*
X11691200Y7629500D02*
D03*
X11691200Y7756500D02*
D03*
X11691200Y7883500D02*
D03*
X11691200Y8010499D02*
D03*
X11691200Y8137500D02*
D03*
X11148800Y7629501D02*
D03*
X10828651Y8014850D02*
D03*
X10828650Y8141850D02*
D03*
X10828650Y8649850D02*
D03*
X10286250Y8776850D02*
D03*
Y8395850D02*
D03*
X10286251Y8014850D02*
D03*
X10286250Y8649850D02*
D03*
X10286250Y8268850D02*
D03*
D19*
X15930000Y3870000D02*
D03*
X16718246Y9204201D02*
D03*
X16065366D02*
D03*
X16860001Y3093260D02*
D03*
X16824274Y697501D02*
D03*
X14564275Y3091519D02*
D03*
X14430000Y697500D02*
D03*
X12550000Y6200001D02*
D03*
X12550001Y6000001D02*
D03*
X14430000Y897500D02*
D03*
X16824274Y897501D02*
D03*
X16860001Y3293259D02*
D03*
X15930000Y3670000D02*
D03*
X14564275Y3291519D02*
D03*
X15691968Y8610202D02*
D03*
X15691968Y8410201D02*
D03*
X15681969Y9004200D02*
D03*
X15681969Y8804201D02*
D03*
X16718246Y9004200D02*
D03*
X16065366D02*
D03*
X16290315Y9204201D02*
D03*
X16290315Y9004200D02*
D03*
X16500314Y9204201D02*
D03*
X16500314Y9004200D02*
D03*
X15471968Y8610201D02*
D03*
X15471968Y8410201D02*
D03*
D20*
X9976468Y2105435D02*
D03*
X9128911Y2106388D02*
D03*
X9976470Y1866587D02*
D03*
X9128910Y1876388D02*
D03*
X9356910Y1876389D02*
D03*
X9356910Y2106388D02*
D03*
X9748467Y2105435D02*
D03*
X9748469Y1866588D02*
D03*
D21*
X13300000Y3620000D02*
D03*
X17199066Y6302200D02*
D03*
X13255727Y1459999D02*
D03*
X15700000Y1250000D02*
D03*
X15500000D02*
D03*
X13455727Y1459999D02*
D03*
X13500000Y3620000D02*
D03*
X17399066Y6302199D02*
D03*
X14217163Y5420383D02*
D03*
X13041164Y5943479D02*
D03*
X12841164Y5943479D02*
D03*
X14211162Y5620883D02*
D03*
X14011163Y5620884D02*
D03*
X14017162Y5420383D02*
D03*
D22*
X16598315Y3883604D02*
D03*
X13879971Y1710000D02*
D03*
X16269972Y1660000D02*
D03*
X14006746Y3980000D02*
D03*
D23*
X16398259Y3883604D02*
D03*
X16470029Y1660000D02*
D03*
X14080028Y1710000D02*
D03*
X14206802Y3980000D02*
D03*
D24*
X20960001Y6615000D02*
D03*
X19590001Y6184999D02*
D03*
X19590001Y6614999D02*
D03*
X20960002Y6185000D02*
D03*
X20960001Y8040000D02*
D03*
X19589999Y7610000D02*
D03*
Y8040000D02*
D03*
X20960001Y7610000D02*
D03*
X20960001Y5239999D02*
D03*
X19589999Y4809999D02*
D03*
X19589999Y5239999D02*
D03*
X20960001Y4810000D02*
D03*
D25*
X20375000Y5895001D02*
D03*
X20375002Y7320000D02*
D03*
X20375000Y4520000D02*
D03*
D26*
X20600002Y6910001D02*
D03*
X20600000Y8335001D02*
D03*
X20600000Y5534999D02*
D03*
D27*
X19179999Y1754738D02*
D03*
X19855000Y3779738D02*
D03*
X19805002Y2079737D02*
D03*
X19255000Y3554737D02*
D03*
D28*
X19085001Y1919282D02*
D03*
X19710001Y2244281D02*
D03*
X19160002Y3719283D02*
D03*
X19760001Y3944281D02*
D03*
D29*
X19395261Y2480002D02*
D03*
X19682214Y3453803D02*
D03*
X19770262Y1704999D02*
D03*
X19495264Y4199592D02*
D03*
D30*
X19230719Y2385002D02*
D03*
X19605717Y1610000D02*
D03*
X19330717Y4104593D02*
D03*
X19517671Y3358802D02*
D03*
D31*
X16181967Y7490201D02*
D03*
X16381967D02*
D03*
X16331967D02*
D03*
X16281969D02*
D03*
X16231969D02*
D03*
X16181967Y7045202D02*
D03*
X16231969D02*
D03*
X16281967D02*
D03*
X16331967D02*
D03*
X16381967D02*
D03*
D32*
X15773528Y6753200D02*
D03*
X10270000Y6865854D02*
D03*
Y5687704D02*
D03*
Y7373854D02*
D03*
X15183528Y5991200D02*
D03*
X10860000Y7627854D02*
D03*
Y7119854D02*
D03*
Y6449704D02*
D03*
X10270000Y7246854D02*
D03*
Y7119854D02*
D03*
X10860000Y6322704D02*
D03*
X15773528Y6118200D02*
D03*
X15773528Y6245200D02*
D03*
X15773528Y6372200D02*
D03*
X15773529Y6499200D02*
D03*
Y6626200D02*
D03*
X15183528Y6753200D02*
D03*
X15183528Y6626200D02*
D03*
X15183528Y6499199D02*
D03*
Y6372200D02*
D03*
Y6245200D02*
D03*
X15183528Y6118200D02*
D03*
X10270000Y6322704D02*
D03*
Y6195704D02*
D03*
Y6068704D02*
D03*
Y5941704D02*
D03*
Y5814704D02*
D03*
X10860000Y5687704D02*
D03*
Y5814704D02*
D03*
Y5941704D02*
D03*
Y6068704D02*
D03*
Y6195704D02*
D03*
X10270000Y7500854D02*
D03*
Y6992854D02*
D03*
X10860000Y6865854D02*
D03*
Y7246854D02*
D03*
Y7373854D02*
D03*
Y7500854D02*
D03*
Y6992854D02*
D03*
D35*
X11691198Y8522851D02*
D03*
X14697458Y9818482D02*
D03*
X8227399Y1701001D02*
D03*
X17055367Y6882700D02*
D03*
X17069568Y7661202D02*
D03*
X14697458Y8372199D02*
D03*
X16010768Y8796702D02*
D03*
X11148800Y8264500D02*
D03*
X10828651Y7887850D02*
D03*
D36*
X2425000Y6870000D02*
D03*
X2425000Y7330000D02*
D03*
X2425000Y7100000D02*
D03*
D37*
X12841164Y6133384D02*
D03*
X13281163Y6328382D02*
D03*
X13281163Y6133384D02*
D03*
X12841167Y6198383D02*
D03*
X12841164Y6328383D02*
D03*
X12841164Y6263384D02*
D03*
X13281163Y6198383D02*
D03*
X13281163Y6263383D02*
D03*
D38*
X11190000Y6150000D02*
D03*
X11420000Y6055000D02*
D03*
X11190000Y5959999D02*
D03*
D39*
X9012109Y2780000D02*
D03*
Y2470000D02*
D03*
D40*
X21825000Y249791D02*
D03*
Y1000000D02*
D03*
X21025000Y249790D02*
D03*
X21825000Y11250209D02*
D03*
Y10500000D02*
D03*
X21025000Y11250210D02*
D03*
X175000Y11250209D02*
D03*
Y10500000D02*
D03*
X975000Y11250210D02*
D03*
X249791Y175000D02*
D03*
X1000000D02*
D03*
X249790Y975000D02*
D03*
D41*
X6655000Y3751697D02*
D03*
X6345000D02*
D03*
D42*
X2300001Y4584999D02*
D03*
X1100000Y4585000D02*
D03*
X1100001Y5665001D02*
D03*
X2300000Y5665000D02*
D03*
D43*
X15773528Y5991200D02*
D03*
X10270000Y6449704D02*
D03*
Y7627854D02*
D03*
D44*
X3025000Y7099999D02*
D03*
D65*
X14124274Y3555871D02*
D03*
D173*
X16294273Y960000D02*
D03*
X16454274D02*
D03*
X16294273Y800000D02*
D03*
X16454274D02*
D03*
X14070000Y800000D02*
D03*
X13910001D02*
D03*
X14070000Y960000D02*
D03*
X13910001D02*
D03*
X16480000Y3340000D02*
D03*
Y3180000D02*
D03*
X16320000Y3340000D02*
D03*
Y3180000D02*
D03*
X14204274Y3180000D02*
D03*
X14044273D02*
D03*
X14204274Y3340000D02*
D03*
X14044273D02*
D03*
%TF.MD5,5889a5284469147ad4f1a6eab3a9b993*%
M02*
