%TF.GenerationSoftware,Altium Limited,Altium Designer,25.8.1 (18)*%
G04 Layer_Physical_Order=1*
G04 Layer_Color=255*
%FSLAX45Y45*%
%MOMM*%
%TF.SameCoordinates,8572D1E1-8A29-45F6-85B8-02B6E87FD275*%
%TF.FilePolarity,Positive*%
%TF.FileFunction,Copper,L1,Top,Signal*%
%TF.Part,Single*%
G01*
G75*
%TA.AperFunction,Conductor*%
%ADD10C,0.20000*%
%TA.AperFunction,SMDPad,CuDef*%
%ADD11R,0.39247X1.00564*%
G04:AMPARAMS|DCode=12|XSize=1.00564mm|YSize=0.39247mm|CornerRadius=0.19624mm|HoleSize=0mm|Usage=FLASHONLY|Rotation=90.000|XOffset=0mm|YOffset=0mm|HoleType=Round|Shape=RoundedRectangle|*
%AMROUNDEDRECTD12*
21,1,1.00564,0.00000,0,0,90.0*
21,1,0.61317,0.39247,0,0,90.0*
1,1,0.39247,0.00000,0.30659*
1,1,0.39247,0.00000,-0.30659*
1,1,0.39247,0.00000,-0.30659*
1,1,0.39247,0.00000,0.30659*
%
%ADD12ROUNDEDRECTD12*%
%ADD13O,0.65000X1.52500*%
%ADD14R,0.65000X1.52500*%
%ADD15R,1.00000X1.60000*%
%ADD16R,1.10000X0.60000*%
%ADD17R,1.60000X1.00000*%
%ADD18O,1.52500X0.65000*%
%ADD19R,1.25000X1.00000*%
%ADD20R,1.08500X0.55000*%
%ADD21R,1.00000X1.25000*%
G04:AMPARAMS|DCode=22|XSize=1.00564mm|YSize=0.39247mm|CornerRadius=0.19624mm|HoleSize=0mm|Usage=FLASHONLY|Rotation=0.000|XOffset=0mm|YOffset=0mm|HoleType=Round|Shape=RoundedRectangle|*
%AMROUNDEDRECTD22*
21,1,1.00564,0.00000,0,0,0.0*
21,1,0.61317,0.39247,0,0,0.0*
1,1,0.39247,0.30659,0.00000*
1,1,0.39247,-0.30659,0.00000*
1,1,0.39247,-0.30659,0.00000*
1,1,0.39247,0.30659,0.00000*
%
%ADD22ROUNDEDRECTD22*%
%ADD23R,1.00564X0.39247*%
%ADD24R,3.80000X2.50000*%
%ADD25R,7.90000X2.30000*%
%ADD26R,3.40000X2.30000*%
%ADD27P,1.13137X4X345.0*%
G04:AMPARAMS|DCode=28|XSize=2mm|YSize=1.1mm|CornerRadius=0mm|HoleSize=0mm|Usage=FLASHONLY|Rotation=300.000|XOffset=0mm|YOffset=0mm|HoleType=Round|Shape=Rectangle|*
%AMROTATEDRECTD28*
4,1,4,-0.97632,0.59102,-0.02369,1.14103,0.97632,-0.59102,0.02369,-1.14103,-0.97632,0.59102,0.0*
%
%ADD28ROTATEDRECTD28*%

%ADD29P,1.13137X4X75.0*%
G04:AMPARAMS|DCode=30|XSize=2mm|YSize=1.1mm|CornerRadius=0mm|HoleSize=0mm|Usage=FLASHONLY|Rotation=30.000|XOffset=0mm|YOffset=0mm|HoleType=Round|Shape=Rectangle|*
%AMROTATEDRECTD30*
4,1,4,-0.59102,-0.97632,-1.14103,-0.02369,0.59102,0.97632,1.14103,0.02369,-0.59102,-0.97632,0.0*
%
%ADD30ROTATEDRECTD30*%

%ADD31R,0.30000X1.45000*%
G04:AMPARAMS|DCode=32|XSize=1.6mm|YSize=0.6mm|CornerRadius=0.3mm|HoleSize=0mm|Usage=FLASHONLY|Rotation=180.000|XOffset=0mm|YOffset=0mm|HoleType=Round|Shape=RoundedRectangle|*
%AMROUNDEDRECTD32*
21,1,1.60000,0.00000,0,0,180.0*
21,1,1.00000,0.60000,0,0,180.0*
1,1,0.60000,-0.50000,0.00000*
1,1,0.60000,0.50000,0.00000*
1,1,0.60000,0.50000,0.00000*
1,1,0.60000,-0.50000,0.00000*
%
%ADD32ROUNDEDRECTD32*%
%TA.AperFunction,BGAPad,CuDef*%
%ADD33C,0.31500*%
%TA.AperFunction,SMDPad,CuDef*%
%ADD34R,3.15000X3.15000*%
%ADD35R,1.52500X0.65000*%
%ADD36R,1.80000X0.90000*%
%ADD37R,1.40000X0.45000*%
%ADD38R,1.05000X0.70000*%
%ADD39R,2.60000X1.10000*%
%ADD40C,1.00000*%
%ADD41R,1.10000X2.60000*%
%ADD42R,8.75000X5.20000*%
%ADD43R,1.60000X0.60000*%
%ADD44R,1.80000X3.20000*%
%TA.AperFunction,Conductor*%
%ADD45C,1.50000*%
%ADD46C,0.25400*%
%ADD47C,0.49999*%
%ADD48C,0.50000*%
%ADD49C,0.40000*%
%ADD50C,0.49999*%
%ADD51C,1.00000*%
%ADD52C,0.25000*%
%ADD53C,3.00000*%
%ADD54C,0.25399*%
%ADD55C,0.49200*%
%ADD56C,0.34197*%
%ADD57C,0.34196*%
%TA.AperFunction,NonConductor*%
%ADD58C,1.50000*%
%TA.AperFunction,Conductor*%
%ADD59C,0.25399*%
%ADD60C,0.30000*%
%ADD61R,3.92074X5.20001*%
%ADD62R,6.00000X8.90000*%
%ADD63R,6.00000X9.39999*%
%ADD64R,6.00000X5.85000*%
%ADD65R,1.65000X3.08259*%
%ADD66R,5.80000X3.42500*%
%ADD67R,0.75760X0.35000*%
%ADD68R,4.00000X1.50000*%
%ADD69R,0.35000X0.75760*%
%ADD70R,2.46561X3.30000*%
%TA.AperFunction,WasherPad*%
%ADD71C,3.00000*%
%ADD72C,4.00000*%
%TA.AperFunction,ComponentPad*%
%ADD73C,1.50000*%
%ADD74C,3.00000*%
%ADD75C,1.30000*%
%TA.AperFunction,ViaPad*%
%ADD76C,1.20000*%
%TA.AperFunction,ComponentPad*%
%ADD77O,2.10000X1.40000*%
%ADD78C,1.30300*%
%ADD79R,1.30300X1.30300*%
%ADD80R,1.30300X1.30300*%
%ADD81R,1.65000X1.65000*%
%ADD82C,1.65000*%
%ADD83O,1.95000X1.30000*%
%TA.AperFunction,WasherPad*%
%ADD84C,1.80000*%
%TA.AperFunction,ComponentPad*%
%ADD85C,1.90500*%
%ADD86C,1.40000*%
%ADD87C,1.85000*%
%ADD88C,2.40000*%
%ADD89C,8.00000*%
%ADD90R,1.30000X1.30000*%
%ADD91R,1.65000X1.65000*%
%TA.AperFunction,ViaPad*%
%ADD92C,1.50000*%
%ADD93C,0.80000*%
%ADD94C,1.80000*%
%ADD95C,1.27000*%
%ADD96C,0.60000*%
%TA.AperFunction,NonConductor*%
%ADD97R,9.00000X9.00000*%
%ADD98R,7.12602X2.00000*%
%ADD99R,4.75000X4.30000*%
%ADD100R,2.90000X8.20000*%
%ADD101R,34.25000X16.12868*%
%ADD102R,9.00000X10.00000*%
%ADD103R,9.00000X9.25000*%
%ADD104R,8.20000X2.90000*%
%ADD105R,4.55726X8.00000*%
G36*
X2287502Y6369221D02*
X2746436Y5910287D01*
X653565Y5910286D01*
X1112499Y6369221D01*
X2287502Y6369221D01*
D02*
G37*
G36*
X2746436Y4333934D02*
X2287502Y3875000D01*
X1112499D01*
X653565Y4333935D01*
X2746436Y4333934D01*
D02*
G37*
G36*
X14206773Y3467500D02*
Y3464019D01*
X14204111Y3457587D01*
X14199187Y3452664D01*
X14192755Y3450000D01*
X14185793D01*
X14179361Y3452664D01*
X14174438Y3457587D01*
X14171774Y3464019D01*
Y3467500D01*
Y3550000D01*
X14206773D01*
X14206773Y3467500D01*
D02*
G37*
G36*
X14141774D02*
Y3464019D01*
X14139110Y3457587D01*
X14134187Y3452664D01*
X14127756Y3450000D01*
X14120793D01*
X14114362Y3452664D01*
X14109438Y3457587D01*
X14106773Y3464019D01*
Y3467500D01*
Y3550000D01*
X14141774D01*
Y3467500D01*
D02*
G37*
G36*
X14076775D02*
Y3464019D01*
X14074110Y3457587D01*
X14069186Y3452664D01*
X14062755Y3450000D01*
X14055794D01*
X14049361Y3452664D01*
X14044438Y3457587D01*
X14041774Y3464019D01*
Y3467500D01*
X14041774D01*
Y3550000D01*
X14076775D01*
Y3467500D01*
D02*
G37*
G36*
X16482500Y3467500D02*
Y3464019D01*
X16479836Y3457587D01*
X16474913Y3452664D01*
X16468481Y3450000D01*
X16461519D01*
X16455087Y3452664D01*
X16450163Y3457587D01*
X16447501Y3464019D01*
Y3467500D01*
Y3550000D01*
X16482500D01*
X16482500Y3467500D01*
D02*
G37*
G36*
X16417500D02*
Y3464019D01*
X16414836Y3457587D01*
X16409914Y3452664D01*
X16403481Y3450000D01*
X16396519D01*
X16390086Y3452664D01*
X16385164Y3457587D01*
X16382500Y3464019D01*
Y3467500D01*
Y3550000D01*
X16417500D01*
Y3467500D01*
D02*
G37*
G36*
X16352499D02*
Y3464019D01*
X16349835Y3457587D01*
X16344913Y3452664D01*
X16338481Y3450000D01*
X16331519D01*
X16325087Y3452664D01*
X16320164Y3457587D01*
X16317500Y3464019D01*
Y3467500D01*
X16317500D01*
Y3550000D01*
X16352499D01*
Y3467500D01*
D02*
G37*
G36*
X14784274Y3372500D02*
X14328293D01*
X14321861Y3375164D01*
X14316937Y3380087D01*
X14314275Y3386519D01*
Y3386520D01*
Y3393481D01*
D01*
Y3450000D01*
X14236879D01*
X14235960Y3450919D01*
X14236774Y3451734D01*
Y3464019D01*
Y3467500D01*
Y3550000D01*
Y3710001D01*
X14784274D01*
Y3372500D01*
D02*
G37*
G36*
X14011774Y3451734D02*
X14012589Y3450919D01*
X14011668Y3450000D01*
X13934274D01*
Y3393481D01*
Y3390000D01*
Y3386519D01*
X13931610Y3380087D01*
X13926688Y3375164D01*
X13920255Y3372500D01*
X13464275D01*
Y3710001D01*
X14011774D01*
Y3451734D01*
D02*
G37*
G36*
X17310001Y3372500D02*
X16604019D01*
X16597588Y3375164D01*
X16592664Y3380087D01*
X16589999Y3386519D01*
Y3386519D01*
Y3393481D01*
Y3450000D01*
X16512605D01*
X16511687Y3450919D01*
X16512500Y3451734D01*
Y3464019D01*
Y3467500D01*
Y3550000D01*
Y3710000D01*
X17310001D01*
Y3372500D01*
D02*
G37*
G36*
X14331773Y3342500D02*
X14414275D01*
Y3307500D01*
X14328293D01*
X14321861Y3310165D01*
X14316937Y3315087D01*
X14314275Y3321519D01*
Y3325000D01*
Y3328481D01*
X14316937Y3334913D01*
X14321861Y3339836D01*
X14328293Y3342501D01*
X14331773D01*
Y3342500D01*
D02*
G37*
G36*
X13926688Y3339836D02*
X13931610Y3334913D01*
X13934274Y3328481D01*
Y3325000D01*
Y3321519D01*
X13931610Y3315087D01*
X13926688Y3310165D01*
X13920255Y3307500D01*
X13834274D01*
Y3342500D01*
X13916774Y3342501D01*
X13920255D01*
X13926688Y3339836D01*
D02*
G37*
G36*
X16607500Y3342500D02*
X16689999D01*
Y3307500D01*
X16604019D01*
X16597588Y3310164D01*
X16592664Y3315087D01*
X16589999Y3321519D01*
Y3325000D01*
Y3328481D01*
X16592664Y3334913D01*
X16597588Y3339836D01*
X16604019Y3342500D01*
X16607500D01*
Y3342500D01*
D02*
G37*
G36*
X16287500Y3451734D02*
X16288313Y3450919D01*
X16287395Y3450000D01*
X16210001D01*
Y3319635D01*
X16208669Y3318303D01*
X16207336Y3315087D01*
X16202412Y3310164D01*
X16199197Y3308833D01*
X16197865Y3307500D01*
X15489999Y3307500D01*
Y3710000D01*
X16287500D01*
Y3451734D01*
D02*
G37*
G36*
X14414275Y3242500D02*
X14328293D01*
X14321861Y3245164D01*
X14316937Y3250087D01*
X14314275Y3256519D01*
Y3260000D01*
Y3263481D01*
X14316937Y3269913D01*
X14321861Y3274836D01*
X14328293Y3277500D01*
X14414275D01*
Y3242500D01*
D02*
G37*
G36*
X13926688Y3274836D02*
X13931610Y3269913D01*
X13934274Y3263481D01*
Y3260000D01*
Y3256519D01*
X13931610Y3250087D01*
X13926688Y3245164D01*
X13920255Y3242500D01*
X13834274D01*
Y3277500D01*
X13920255D01*
X13926688Y3274836D01*
D02*
G37*
G36*
X16689999Y3242500D02*
X16604019D01*
X16597588Y3245164D01*
X16592664Y3250087D01*
X16589999Y3256519D01*
Y3260000D01*
Y3263481D01*
X16592664Y3269913D01*
X16597588Y3274836D01*
X16604019Y3277500D01*
X16689999D01*
Y3242500D01*
D02*
G37*
G36*
X16202412Y3274836D02*
X16207336Y3269913D01*
X16210001Y3263481D01*
Y3260000D01*
Y3256519D01*
X16207336Y3250087D01*
X16202412Y3245164D01*
X16195981Y3242500D01*
X16110001D01*
Y3277500D01*
X16195981D01*
X16202412Y3274836D01*
D02*
G37*
G36*
X14414275Y3177500D02*
X14331773Y3177500D01*
X14328293D01*
X14321861Y3180164D01*
X14316937Y3185087D01*
X14314275Y3191519D01*
Y3195000D01*
Y3198481D01*
X14316937Y3204913D01*
X14321861Y3209836D01*
X14328293Y3212500D01*
X14414275D01*
Y3177500D01*
D02*
G37*
G36*
X13926688Y3209836D02*
X13931610Y3204913D01*
X13934274Y3198481D01*
Y3195000D01*
Y3191519D01*
X13931610Y3185087D01*
X13926688Y3180164D01*
X13920255Y3177500D01*
X13916774D01*
Y3177500D01*
X13834274D01*
Y3212500D01*
X13920255D01*
X13926688Y3209836D01*
D02*
G37*
G36*
X16689999Y3177500D02*
X16607500Y3177500D01*
X16604019D01*
X16597588Y3180164D01*
X16592664Y3185087D01*
X16589999Y3191519D01*
Y3195000D01*
Y3198481D01*
X16592664Y3204913D01*
X16597588Y3209836D01*
X16604019Y3212500D01*
X16689999D01*
Y3177500D01*
D02*
G37*
G36*
X16202412Y3209836D02*
X16207336Y3204913D01*
X16210001Y3198481D01*
Y3195000D01*
Y3191519D01*
X16207336Y3185087D01*
X16202412Y3180164D01*
X16195981Y3177500D01*
X16192500D01*
Y3177500D01*
X16110001D01*
Y3212500D01*
X16195981D01*
X16202412Y3209836D01*
D02*
G37*
G36*
X14414275Y3112500D02*
X14328293D01*
X14321861Y3115164D01*
X14316937Y3120087D01*
X14314275Y3126519D01*
Y3130000D01*
Y3133481D01*
X14316937Y3139913D01*
X14321861Y3144836D01*
X14328293Y3147500D01*
X14414275D01*
Y3112500D01*
D02*
G37*
G36*
X13926688Y3144836D02*
X13931610Y3139913D01*
X13934274Y3133481D01*
Y3130000D01*
Y3126519D01*
X13931610Y3120087D01*
X13926688Y3115164D01*
X13920255Y3112500D01*
X13834274D01*
Y3147500D01*
X13920255D01*
X13926688Y3144836D01*
D02*
G37*
G36*
X16689999Y3112500D02*
X16604019D01*
X16597588Y3115164D01*
X16592664Y3120087D01*
X16589999Y3126519D01*
Y3130000D01*
Y3133481D01*
X16592664Y3139913D01*
X16597588Y3144836D01*
X16604019Y3147500D01*
X16689999D01*
Y3112500D01*
D02*
G37*
G36*
X16202412Y3144836D02*
X16207336Y3139913D01*
X16210001Y3133481D01*
Y3130000D01*
Y3126519D01*
X16207336Y3120087D01*
X16202412Y3115164D01*
X16195981Y3112500D01*
X16110001D01*
Y3147500D01*
X16195981D01*
X16202412Y3144836D01*
D02*
G37*
G36*
X14264188Y3067336D02*
X14269110Y3062413D01*
X14271774Y3055981D01*
Y3052500D01*
Y2970000D01*
X14236774D01*
Y3052500D01*
Y3055981D01*
X14239438Y3062413D01*
X14244360Y3067336D01*
X14250793Y3070000D01*
X14257755D01*
X14264188Y3067336D01*
D02*
G37*
G36*
X14199187D02*
X14204111Y3062413D01*
X14206773Y3055981D01*
Y3052500D01*
X14206773D01*
Y2970000D01*
X14171774D01*
Y3052500D01*
Y3055981D01*
X14174438Y3062413D01*
X14179361Y3067336D01*
X14185793Y3070000D01*
X14192755D01*
X14199187Y3067336D01*
D02*
G37*
G36*
X14134187D02*
X14139110Y3062413D01*
X14141774Y3055981D01*
Y3052500D01*
Y2970000D01*
X14106773D01*
Y3052500D01*
Y3055981D01*
X14109438Y3062413D01*
X14114362Y3067336D01*
X14120793Y3070000D01*
X14127756D01*
X14134187Y3067336D01*
D02*
G37*
G36*
X14069186D02*
X14074110Y3062413D01*
X14076775Y3055981D01*
Y3052500D01*
Y2970000D01*
X14041774D01*
X14041774Y3052500D01*
Y3055981D01*
X14044438Y3062413D01*
X14049361Y3067336D01*
X14055794Y3070000D01*
X14062755D01*
X14069186Y3067336D01*
D02*
G37*
G36*
X14004187D02*
X14009109Y3062413D01*
X14011774Y3055981D01*
Y3052500D01*
Y2970000D01*
X13976775D01*
Y3052500D01*
Y3055981D01*
X13979437Y3062413D01*
X13984361Y3067336D01*
X13990793Y3070000D01*
X13997755D01*
X14004187Y3067336D01*
D02*
G37*
G36*
X16539912Y3067336D02*
X16544836Y3062413D01*
X16547501Y3055981D01*
Y3052500D01*
Y2970000D01*
X16512500D01*
Y3052500D01*
Y3055981D01*
X16515164Y3062413D01*
X16520087Y3067336D01*
X16526518Y3070000D01*
X16533481D01*
X16539912Y3067336D01*
D02*
G37*
G36*
X16474913D02*
X16479836Y3062413D01*
X16482500Y3055981D01*
Y3052500D01*
X16482500D01*
Y2970000D01*
X16447501D01*
Y3052500D01*
Y3055981D01*
X16450163Y3062413D01*
X16455087Y3067336D01*
X16461519Y3070000D01*
X16468481D01*
X16474913Y3067336D01*
D02*
G37*
G36*
X16409914D02*
X16414836Y3062413D01*
X16417500Y3055981D01*
Y3052500D01*
Y2970000D01*
X16382500D01*
Y3052500D01*
Y3055981D01*
X16385164Y3062413D01*
X16390086Y3067336D01*
X16396519Y3070000D01*
X16403481D01*
X16409914Y3067336D01*
D02*
G37*
G36*
X16344913D02*
X16349835Y3062413D01*
X16352499Y3055981D01*
Y3052500D01*
Y2970000D01*
X16317500D01*
X16317500Y3052500D01*
Y3055981D01*
X16320164Y3062413D01*
X16325087Y3067336D01*
X16331519Y3070000D01*
X16338481D01*
X16344913Y3067336D01*
D02*
G37*
G36*
X16279913D02*
X16284836Y3062413D01*
X16287500Y3055981D01*
Y3052500D01*
Y2970000D01*
X16252499D01*
Y3052500D01*
Y3055981D01*
X16255164Y3062413D01*
X16260088Y3067336D01*
X16266519Y3070000D01*
X16273482D01*
X16279913Y3067336D01*
D02*
G37*
G36*
X16456773Y1087500D02*
Y1084019D01*
X16454111Y1077587D01*
X16449187Y1072665D01*
X16442755Y1070000D01*
X16435793D01*
X16429361Y1072665D01*
X16424438Y1077587D01*
X16421774Y1084019D01*
Y1087500D01*
Y1170000D01*
X16456773D01*
X16456773Y1087500D01*
D02*
G37*
G36*
X16391774D02*
Y1084019D01*
X16389108Y1077587D01*
X16384187Y1072665D01*
X16377756Y1070000D01*
X16370793D01*
X16364362Y1072665D01*
X16359438Y1077587D01*
X16356773Y1084019D01*
Y1087500D01*
Y1170000D01*
X16391774D01*
Y1087500D01*
D02*
G37*
G36*
X16326775D02*
Y1084019D01*
X16324109Y1077587D01*
X16319186Y1072665D01*
X16312755Y1070000D01*
X16305794D01*
X16299361Y1072665D01*
X16294438Y1077587D01*
X16291774Y1084019D01*
Y1087500D01*
X16291774D01*
Y1170000D01*
X16326775D01*
Y1087500D01*
D02*
G37*
G36*
X14072501Y1087500D02*
Y1084019D01*
X14069836Y1077587D01*
X14064912Y1072664D01*
X14058481Y1070000D01*
X14051518D01*
X14045087Y1072664D01*
X14040164Y1077587D01*
X14037500Y1084019D01*
Y1087500D01*
Y1170000D01*
X14072501D01*
X14072501Y1087500D01*
D02*
G37*
G36*
X14007500D02*
Y1084019D01*
X14004836Y1077587D01*
X13999913Y1072664D01*
X13993481Y1070000D01*
X13986519D01*
X13980087Y1072664D01*
X13975163Y1077587D01*
X13972501Y1084019D01*
Y1087500D01*
Y1170000D01*
X14007500D01*
Y1087500D01*
D02*
G37*
G36*
X13942500D02*
Y1084019D01*
X13939835Y1077587D01*
X13934914Y1072664D01*
X13928481Y1070000D01*
X13921519D01*
X13915086Y1072664D01*
X13910164Y1077587D01*
X13907500Y1084019D01*
Y1087500D01*
X13907500D01*
Y1170000D01*
X13942500D01*
Y1087500D01*
D02*
G37*
G36*
X18284274Y992500D02*
X16578293D01*
X16571861Y995165D01*
X16566937Y1000087D01*
X16564275Y1006519D01*
Y1006520D01*
Y1013481D01*
Y1070000D01*
X16486879D01*
X16485959Y1070920D01*
X16486774Y1071734D01*
Y1084019D01*
Y1087500D01*
Y1170000D01*
Y1519498D01*
X18284274D01*
Y992500D01*
D02*
G37*
G36*
X16261774Y1071734D02*
X16262589Y1070920D01*
X16261668Y1070000D01*
X16184274D01*
Y1013481D01*
Y1010001D01*
Y1006519D01*
X16181609Y1000087D01*
X16176688Y995165D01*
X16170255Y992500D01*
X15650000D01*
Y1540001D01*
X16261774D01*
Y1071734D01*
D02*
G37*
G36*
X15545726Y992500D02*
X14194019D01*
X14187587Y995164D01*
X14182664Y1000087D01*
X14180000Y1006519D01*
Y1006519D01*
Y1070000D01*
X14102605D01*
X14101686Y1070919D01*
X14102499Y1071733D01*
Y1540000D01*
X15545726D01*
Y992500D01*
D02*
G37*
G36*
X13877499Y1071733D02*
X13878314Y1070919D01*
X13877396Y1070000D01*
X13800000D01*
Y1013481D01*
Y1010000D01*
Y1006519D01*
X13797336Y1000087D01*
X13792413Y995164D01*
X13785982Y992500D01*
X13400000D01*
Y1540000D01*
X13877499D01*
Y1071733D01*
D02*
G37*
G36*
X16581773Y962500D02*
X16664275D01*
Y927501D01*
X16578293D01*
X16571861Y930165D01*
X16566937Y935088D01*
X16564275Y941520D01*
Y945001D01*
Y948481D01*
X16566937Y954914D01*
X16571861Y959836D01*
X16578293Y962501D01*
X16581773D01*
Y962500D01*
D02*
G37*
G36*
X16176688Y959836D02*
X16181609Y954914D01*
X16184274Y948481D01*
Y945001D01*
Y941520D01*
X16181609Y935088D01*
X16176688Y930165D01*
X16170255Y927501D01*
X16084274D01*
Y962500D01*
X16166774Y962501D01*
X16170255D01*
X16176688Y959836D01*
D02*
G37*
G36*
X14197501Y962500D02*
X14280000D01*
Y927500D01*
X14194019D01*
X14187587Y930164D01*
X14182664Y935087D01*
X14180000Y941519D01*
Y945000D01*
Y948481D01*
X14182664Y954913D01*
X14187587Y959836D01*
X14194019Y962500D01*
X14197501D01*
Y962500D01*
D02*
G37*
G36*
X13792413Y959836D02*
X13797336Y954913D01*
X13800000Y948481D01*
Y945000D01*
Y941519D01*
X13797336Y935087D01*
X13792413Y930164D01*
X13785982Y927500D01*
X13700000D01*
Y962500D01*
X13782500Y962500D01*
X13785982D01*
X13792413Y959836D01*
D02*
G37*
G36*
X16664275Y862500D02*
X16578293D01*
X16571861Y865165D01*
X16566937Y870087D01*
X16564275Y876519D01*
Y880001D01*
Y883481D01*
X16566937Y889913D01*
X16571861Y894836D01*
X16578293Y897501D01*
X16664275D01*
Y862500D01*
D02*
G37*
G36*
X16176688Y894836D02*
X16181609Y889913D01*
X16184274Y883481D01*
Y880001D01*
Y876519D01*
X16181609Y870087D01*
X16176688Y865165D01*
X16170255Y862500D01*
X16084274D01*
Y897501D01*
X16170255D01*
X16176688Y894836D01*
D02*
G37*
G36*
X14280000Y862500D02*
X14194019D01*
X14187587Y865164D01*
X14182664Y870087D01*
X14180000Y876519D01*
Y880000D01*
Y883481D01*
X14182664Y889913D01*
X14187587Y894836D01*
X14194019Y897500D01*
X14280000D01*
Y862500D01*
D02*
G37*
G36*
X13792413Y894836D02*
X13797336Y889913D01*
X13800000Y883481D01*
Y880000D01*
Y876519D01*
X13797336Y870087D01*
X13792413Y865164D01*
X13785982Y862500D01*
X13700000D01*
Y897500D01*
X13785982D01*
X13792413Y894836D01*
D02*
G37*
G36*
X16664275Y797501D02*
X16581773Y797500D01*
X16578293D01*
X16571861Y800165D01*
X16566937Y805087D01*
X16564275Y811519D01*
Y815000D01*
Y818481D01*
X16566937Y824913D01*
X16571861Y829836D01*
X16578293Y832500D01*
X16664275D01*
Y797501D01*
D02*
G37*
G36*
X16176688Y829836D02*
X16181609Y824913D01*
X16184274Y818481D01*
Y815000D01*
Y811519D01*
X16181609Y805087D01*
X16176688Y800165D01*
X16170255Y797500D01*
X16166774D01*
Y797501D01*
X16084274D01*
Y832500D01*
X16170255D01*
X16176688Y829836D01*
D02*
G37*
G36*
X14280000Y797500D02*
X14197501Y797500D01*
X14194019D01*
X14187587Y800164D01*
X14182664Y805087D01*
X14180000Y811519D01*
Y815000D01*
Y818481D01*
X14182664Y824913D01*
X14187587Y829836D01*
X14194019Y832500D01*
X14280000D01*
Y797500D01*
D02*
G37*
G36*
X13792413Y829836D02*
X13797336Y824913D01*
X13800000Y818481D01*
Y815000D01*
Y811519D01*
X13797336Y805087D01*
X13792413Y800164D01*
X13785982Y797500D01*
X13782500D01*
Y797500D01*
X13700000D01*
Y832500D01*
X13785982D01*
X13792413Y829836D01*
D02*
G37*
G36*
X16664275Y732500D02*
X16578293D01*
X16571861Y735165D01*
X16566937Y740087D01*
X16564275Y746519D01*
Y750001D01*
Y753481D01*
X16566937Y759913D01*
X16571861Y764836D01*
X16578293Y767501D01*
X16664275D01*
Y732500D01*
D02*
G37*
G36*
X16176688Y764836D02*
X16181609Y759913D01*
X16184274Y753481D01*
Y750001D01*
Y746519D01*
X16181609Y740087D01*
X16176688Y735165D01*
X16170255Y732500D01*
X16084274D01*
Y767501D01*
X16170255D01*
X16176688Y764836D01*
D02*
G37*
G36*
X14280000Y732500D02*
X14194019D01*
X14187587Y735164D01*
X14182664Y740087D01*
X14180000Y746519D01*
Y750000D01*
Y753481D01*
X14182664Y759913D01*
X14187587Y764836D01*
X14194019Y767500D01*
X14280000D01*
Y732500D01*
D02*
G37*
G36*
X13792413Y764836D02*
X13797336Y759913D01*
X13800000Y753481D01*
Y750000D01*
Y746519D01*
X13797336Y740087D01*
X13792413Y735164D01*
X13785982Y732500D01*
X13700000D01*
Y767500D01*
X13785982D01*
X13792413Y764836D01*
D02*
G37*
G36*
X16514188Y687336D02*
X16519109Y682413D01*
X16521774Y675981D01*
Y672501D01*
Y590001D01*
X16486774D01*
Y672501D01*
Y675981D01*
X16489438Y682413D01*
X16494360Y687336D01*
X16500793Y690001D01*
X16507755D01*
X16514188Y687336D01*
D02*
G37*
G36*
X16449187D02*
X16454111Y682413D01*
X16456773Y675981D01*
Y672501D01*
X16456773D01*
Y590001D01*
X16421774D01*
Y672501D01*
Y675981D01*
X16424438Y682413D01*
X16429361Y687336D01*
X16435793Y690001D01*
X16442755D01*
X16449187Y687336D01*
D02*
G37*
G36*
X16384187D02*
X16389108Y682413D01*
X16391774Y675981D01*
Y672501D01*
Y590001D01*
X16356773D01*
Y672501D01*
Y675981D01*
X16359438Y682413D01*
X16364362Y687336D01*
X16370793Y690001D01*
X16377756D01*
X16384187Y687336D01*
D02*
G37*
G36*
X16319186D02*
X16324109Y682413D01*
X16326775Y675981D01*
Y672501D01*
Y590001D01*
X16291774D01*
X16291774Y672501D01*
Y675981D01*
X16294438Y682413D01*
X16299361Y687336D01*
X16305794Y690001D01*
X16312755D01*
X16319186Y687336D01*
D02*
G37*
G36*
X16254187D02*
X16259109Y682413D01*
X16261774Y675981D01*
Y672501D01*
Y590001D01*
X16226775D01*
Y672501D01*
Y675981D01*
X16229437Y682413D01*
X16234361Y687336D01*
X16240793Y690001D01*
X16247755D01*
X16254187Y687336D01*
D02*
G37*
G36*
X14129913Y687336D02*
X14134836Y682413D01*
X14137500Y675981D01*
Y672500D01*
Y590000D01*
X14102499D01*
Y672500D01*
Y675981D01*
X14105164Y682413D01*
X14110088Y687336D01*
X14116519Y690000D01*
X14123482D01*
X14129913Y687336D01*
D02*
G37*
G36*
X14064912D02*
X14069836Y682413D01*
X14072501Y675981D01*
Y672500D01*
X14072501D01*
Y590000D01*
X14037500D01*
Y672500D01*
Y675981D01*
X14040164Y682413D01*
X14045087Y687336D01*
X14051518Y690000D01*
X14058481D01*
X14064912Y687336D01*
D02*
G37*
G36*
X13999913D02*
X14004836Y682413D01*
X14007500Y675981D01*
Y672500D01*
Y590000D01*
X13972501D01*
Y672500D01*
Y675981D01*
X13975163Y682413D01*
X13980087Y687336D01*
X13986519Y690000D01*
X13993481D01*
X13999913Y687336D01*
D02*
G37*
G36*
X13934914D02*
X13939835Y682413D01*
X13942500Y675981D01*
Y672500D01*
Y590000D01*
X13907500D01*
X13907500Y672500D01*
Y675981D01*
X13910164Y682413D01*
X13915086Y687336D01*
X13921519Y690000D01*
X13928481D01*
X13934914Y687336D01*
D02*
G37*
G36*
X13869913D02*
X13874837Y682413D01*
X13877499Y675981D01*
Y672500D01*
Y590000D01*
X13842500D01*
Y672500D01*
Y675981D01*
X13845164Y682413D01*
X13850087Y687336D01*
X13856519Y690000D01*
X13863481D01*
X13869913Y687336D01*
D02*
G37*
D10*
X1805090Y2750000D02*
G03*
X1805090Y2750000I-555090J0D01*
G01*
D11*
X12425001Y4879969D02*
D03*
X12860001Y4920251D02*
D03*
X13100002Y5030281D02*
D03*
X12650004D02*
D03*
X13310004Y4917601D02*
D03*
X13758842Y4916973D02*
D03*
X13978844Y5027025D02*
D03*
X13550005Y5030280D02*
D03*
X3050028Y7800057D02*
D03*
D12*
X12425000Y5080026D02*
D03*
X12860001Y5120309D02*
D03*
X3050028Y7599999D02*
D03*
X12650002Y4830223D02*
D03*
X13978841Y4826969D02*
D03*
X13550003Y4830225D02*
D03*
X13100003Y4830227D02*
D03*
X13758844Y5117032D02*
D03*
X13310001Y5117656D02*
D03*
D13*
X13900446Y9376781D02*
D03*
X13773444Y9376782D02*
D03*
X13646443Y9376782D02*
D03*
X13519444Y9376781D02*
D03*
X13265443Y9376782D02*
D03*
X13138445Y9376781D02*
D03*
X13011446Y9376781D02*
D03*
Y9919182D02*
D03*
X13138445Y9919181D02*
D03*
X13265446Y9919181D02*
D03*
X13519444Y9919182D02*
D03*
X13646445Y9919181D02*
D03*
X13773445Y9919182D02*
D03*
X13392445Y9376781D02*
D03*
Y9919182D02*
D03*
X13691859Y8502898D02*
D03*
X13930666Y6392084D02*
D03*
X13691859Y7960498D02*
D03*
X13564859Y8502898D02*
D03*
X13930664Y5849684D02*
D03*
X13564859Y7960498D02*
D03*
X13945859Y8502899D02*
D03*
X13818858Y8502898D02*
D03*
X13437859Y8502899D02*
D03*
X13310860Y8502898D02*
D03*
X13183859Y8502898D02*
D03*
Y7960498D02*
D03*
X13310860Y7960498D02*
D03*
X13437859Y7960499D02*
D03*
X13818858Y7960498D02*
D03*
X13945859Y7960499D02*
D03*
X14072859Y7960498D02*
D03*
X14311662Y5849684D02*
D03*
X14184663D02*
D03*
X14057664Y5849683D02*
D03*
Y6392084D02*
D03*
X14184663Y6392084D02*
D03*
D14*
X13900446Y9919182D02*
D03*
X14072859Y8502898D02*
D03*
X14311665Y6392082D02*
D03*
D15*
X15644667Y10075000D02*
D03*
X13225000Y5375000D02*
D03*
X8274998Y2300001D02*
D03*
X10774999Y1875001D02*
D03*
X12991164Y6670883D02*
D03*
X12691165Y6670882D02*
D03*
X13525000Y5375000D02*
D03*
X12700000Y5300000D02*
D03*
X12400000Y5300000D02*
D03*
X15344669Y10074999D02*
D03*
X15254802Y7774999D02*
D03*
X15554800Y7774999D02*
D03*
X16431967Y8216202D02*
D03*
X17225000Y8000000D02*
D03*
X12811359Y10162199D02*
D03*
X14128358Y8799647D02*
D03*
X9300000Y7550000D02*
D03*
X9000001Y8099999D02*
D03*
X9300000Y7300000D02*
D03*
X13580000Y5645886D02*
D03*
X9300000Y5860000D02*
D03*
X17525000Y8000000D02*
D03*
X8612721Y1621723D02*
D03*
X8912720Y1621724D02*
D03*
X15831969Y9404981D02*
D03*
X15531969D02*
D03*
X9000000Y5860000D02*
D03*
X6521723Y4500000D02*
D03*
X16131969Y8216201D02*
D03*
X13481163Y6930885D02*
D03*
X9000000Y7550000D02*
D03*
X9299999Y8100000D02*
D03*
X9000000Y7300000D02*
D03*
Y8350000D02*
D03*
X9300000D02*
D03*
X6221725Y4499999D02*
D03*
X13478662Y6670883D02*
D03*
X13178664Y6670882D02*
D03*
X15118657Y9192200D02*
D03*
X14818658Y9192199D02*
D03*
X7975000Y2299999D02*
D03*
X13111359Y10162200D02*
D03*
X16131969Y7866201D02*
D03*
X16431967Y7866202D02*
D03*
X15951967Y8096202D02*
D03*
X15651968Y8096201D02*
D03*
X13828358Y8799646D02*
D03*
X13349046Y8769646D02*
D03*
X13649046Y8769647D02*
D03*
X14129166Y6630664D02*
D03*
X14429164Y6630665D02*
D03*
X13580000Y5893435D02*
D03*
X13279999Y5893435D02*
D03*
X13181165Y6930885D02*
D03*
X13280000Y5645886D02*
D03*
X12975000Y6930885D02*
D03*
X12674999Y6930885D02*
D03*
X10475001Y1875000D02*
D03*
D16*
X15560001Y9750000D02*
D03*
X13021164Y5580884D02*
D03*
X9426467Y1382737D02*
D03*
X15559999Y9655001D02*
D03*
X9686467Y1287737D02*
D03*
X9426467D02*
D03*
Y1477737D02*
D03*
X9686467D02*
D03*
X15820000Y9845000D02*
D03*
X12761165Y5485884D02*
D03*
X15820000Y9655001D02*
D03*
X15559999Y9845000D02*
D03*
X12761164Y5675883D02*
D03*
X13021164Y5675884D02*
D03*
X13021162Y5485884D02*
D03*
D17*
X14749998Y7774999D02*
D03*
X8511955Y2375001D02*
D03*
X14750000Y7475001D02*
D03*
X16779066Y7245199D02*
D03*
X16813528Y6362200D02*
D03*
X14408360Y8837246D02*
D03*
X17149998Y3121138D02*
D03*
X15980000Y10375000D02*
D03*
X17114275Y730001D02*
D03*
X15575000Y3899999D02*
D03*
X14564273Y3910000D02*
D03*
X15889999Y2602500D02*
D03*
X15885979Y730001D02*
D03*
X14720000Y736697D02*
D03*
X13723163Y7349200D02*
D03*
X13460661Y7350000D02*
D03*
X14220381Y4849627D02*
D03*
X12190379Y4740882D02*
D03*
X13624275Y3113482D02*
D03*
X13480000Y739913D02*
D03*
X8511954Y2674999D02*
D03*
X7735847Y1225001D02*
D03*
X8886797Y2170680D02*
D03*
X8886798Y1870681D02*
D03*
X7735846Y1524999D02*
D03*
X15980000Y10075000D02*
D03*
X16150000Y9800000D02*
D03*
Y9500000D02*
D03*
X10216468Y1597395D02*
D03*
X10216466Y1897393D02*
D03*
X7400000Y1650000D02*
D03*
Y1949999D02*
D03*
X5925000Y3925000D02*
D03*
Y3625000D02*
D03*
X16813528Y6662200D02*
D03*
X14720000Y1036697D02*
D03*
X13480000Y1039913D02*
D03*
X15885979Y1030000D02*
D03*
X17114275D02*
D03*
X15575002Y3600001D02*
D03*
X14564275Y3610001D02*
D03*
X15889999Y2902500D02*
D03*
X13624274Y3413480D02*
D03*
X15889999Y3415981D02*
D03*
Y3115981D02*
D03*
X17150000Y3421137D02*
D03*
X15620000Y3412500D02*
D03*
Y3112500D02*
D03*
X8624998Y2178000D02*
D03*
X8625000Y1878002D02*
D03*
X13976459Y7649200D02*
D03*
X13976459Y7349200D02*
D03*
X15025000Y7475001D02*
D03*
X15024998Y7774999D02*
D03*
X16671968Y7936202D02*
D03*
X16671967Y8236201D02*
D03*
X14390314Y8164180D02*
D03*
X14390315Y7864182D02*
D03*
X16779066Y6945201D02*
D03*
X14408359Y8537248D02*
D03*
X13460661Y7649999D02*
D03*
X13723161Y7649199D02*
D03*
X12299102Y9768582D02*
D03*
X12299103Y9468584D02*
D03*
X12542785Y9468583D02*
D03*
Y9768583D02*
D03*
X12815945Y9467982D02*
D03*
X12815944Y9767981D02*
D03*
X14220381Y5149623D02*
D03*
X12190380Y5040882D02*
D03*
X12550000Y5825881D02*
D03*
X12550000Y5525884D02*
D03*
D18*
X14697456Y9437482D02*
D03*
X14697458Y7991200D02*
D03*
X8227399Y2082002D02*
D03*
X17069568Y7280202D02*
D03*
X17055367Y6501701D02*
D03*
X16553168Y8542701D02*
D03*
X11691199Y9411850D02*
D03*
X11148800Y7375500D02*
D03*
X10828651Y8776850D02*
D03*
Y8395850D02*
D03*
Y8268850D02*
D03*
X14697458Y9691482D02*
D03*
Y9564482D02*
D03*
X15239857Y9437481D02*
D03*
X15239857Y9564482D02*
D03*
X15239857Y9818481D02*
D03*
X15239857Y9691482D02*
D03*
X7684999Y1828002D02*
D03*
X7684999Y1955001D02*
D03*
X7684999Y2082003D02*
D03*
X8227400Y1955001D02*
D03*
Y1828001D02*
D03*
X7684999Y1701001D02*
D03*
X16010768Y8542701D02*
D03*
X11148800Y8649850D02*
D03*
X11148798Y8522851D02*
D03*
X10828651Y8522849D02*
D03*
X11691200Y8264500D02*
D03*
X10286250Y7887850D02*
D03*
X10286251Y8522850D02*
D03*
X10286250Y8141850D02*
D03*
X17611967Y7534202D02*
D03*
X17055367Y6755699D02*
D03*
X15239857Y8245198D02*
D03*
X17055367Y6628699D02*
D03*
X17597765Y6501699D02*
D03*
X17597766Y6628699D02*
D03*
Y6755699D02*
D03*
X17597766Y6882698D02*
D03*
X17611967Y7661201D02*
D03*
X17611967Y7407202D02*
D03*
X17611967Y7280201D02*
D03*
X17069568Y7407202D02*
D03*
Y7534202D02*
D03*
X14697458Y8245198D02*
D03*
Y8118198D02*
D03*
X15239857Y7991198D02*
D03*
X15239857Y8118198D02*
D03*
X15239857Y8372197D02*
D03*
X16553168Y8796701D02*
D03*
X16553168Y8669701D02*
D03*
X16553168Y8415701D02*
D03*
X16010768Y8415702D02*
D03*
X16010768Y8669701D02*
D03*
X11691200Y8649850D02*
D03*
X11691199Y8776850D02*
D03*
X11691198Y8903851D02*
D03*
X11691199Y9030851D02*
D03*
X11691200Y9157849D02*
D03*
X11691199Y9284851D02*
D03*
X11148799Y9411850D02*
D03*
X11148798Y9284851D02*
D03*
X11148799Y9157851D02*
D03*
X11148799Y9030851D02*
D03*
X11148798Y8903851D02*
D03*
X11148798Y8776851D02*
D03*
X11148800Y8137500D02*
D03*
Y8010500D02*
D03*
X11148800Y7883500D02*
D03*
Y7756500D02*
D03*
X11148801Y7502500D02*
D03*
X11691200Y7375500D02*
D03*
X11691200Y7502500D02*
D03*
X11691200Y7629500D02*
D03*
X11691200Y7756500D02*
D03*
X11691200Y7883500D02*
D03*
X11691200Y8010499D02*
D03*
X11691200Y8137500D02*
D03*
X11148800Y7629501D02*
D03*
X10828651Y8014850D02*
D03*
X10828650Y8141850D02*
D03*
X10828650Y8649850D02*
D03*
X10286250Y8776850D02*
D03*
Y8395850D02*
D03*
X10286251Y8014850D02*
D03*
X10286250Y8649850D02*
D03*
X10286250Y8268850D02*
D03*
D19*
X15930000Y3870000D02*
D03*
X16718246Y9204201D02*
D03*
X16065366D02*
D03*
X16860001Y3093260D02*
D03*
X16824274Y697501D02*
D03*
X14564275Y3091519D02*
D03*
X14430000Y697500D02*
D03*
X12550000Y6200001D02*
D03*
X12550001Y6000001D02*
D03*
X14430000Y897500D02*
D03*
X16824274Y897501D02*
D03*
X16860001Y3293259D02*
D03*
X15930000Y3670000D02*
D03*
X14564275Y3291519D02*
D03*
X15691968Y8610202D02*
D03*
X15691968Y8410201D02*
D03*
X15681969Y9004200D02*
D03*
X15681969Y8804201D02*
D03*
X16718246Y9004200D02*
D03*
X16065366D02*
D03*
X16290315Y9204201D02*
D03*
X16290315Y9004200D02*
D03*
X16500314Y9204201D02*
D03*
X16500314Y9004200D02*
D03*
X15471968Y8610201D02*
D03*
X15471968Y8410201D02*
D03*
D20*
X9976468Y2105435D02*
D03*
X9128911Y2106388D02*
D03*
X9976470Y1866587D02*
D03*
X9128910Y1876388D02*
D03*
X9356910Y1876389D02*
D03*
X9356910Y2106388D02*
D03*
X9748467Y2105435D02*
D03*
X9748469Y1866588D02*
D03*
D21*
X13300000Y3620000D02*
D03*
X17199066Y6302200D02*
D03*
X13255727Y1459999D02*
D03*
X15700000Y1250000D02*
D03*
X15500000D02*
D03*
X13455727Y1459999D02*
D03*
X13500000Y3620000D02*
D03*
X17399066Y6302199D02*
D03*
X14217163Y5420383D02*
D03*
X13041164Y5943479D02*
D03*
X12841164Y5943479D02*
D03*
X14211162Y5620883D02*
D03*
X14011163Y5620884D02*
D03*
X14017162Y5420383D02*
D03*
D22*
X16598315Y3883604D02*
D03*
X13879971Y1710000D02*
D03*
X16269972Y1660000D02*
D03*
X14006746Y3980000D02*
D03*
D23*
X16398259Y3883604D02*
D03*
X16470029Y1660000D02*
D03*
X14080028Y1710000D02*
D03*
X14206802Y3980000D02*
D03*
D24*
X20960001Y6615000D02*
D03*
X19590001Y6184999D02*
D03*
X19590001Y6614999D02*
D03*
X20960002Y6185000D02*
D03*
X20960001Y8040000D02*
D03*
X19589999Y7610000D02*
D03*
Y8040000D02*
D03*
X20960001Y7610000D02*
D03*
X20960001Y5239999D02*
D03*
X19589999Y4809999D02*
D03*
X19589999Y5239999D02*
D03*
X20960001Y4810000D02*
D03*
D25*
X20375000Y5895001D02*
D03*
X20375002Y7320000D02*
D03*
X20375000Y4520000D02*
D03*
D26*
X20600002Y6910001D02*
D03*
X20600000Y8335001D02*
D03*
X20600000Y5534999D02*
D03*
D27*
X19179999Y1754738D02*
D03*
X19855000Y3779738D02*
D03*
X19805002Y2079737D02*
D03*
X19255000Y3554737D02*
D03*
D28*
X19085001Y1919282D02*
D03*
X19710001Y2244281D02*
D03*
X19160002Y3719283D02*
D03*
X19760001Y3944281D02*
D03*
D29*
X19395261Y2480002D02*
D03*
X19682214Y3453803D02*
D03*
X19770262Y1704999D02*
D03*
X19495264Y4199592D02*
D03*
D30*
X19230719Y2385002D02*
D03*
X19605717Y1610000D02*
D03*
X19330717Y4104593D02*
D03*
X19517671Y3358802D02*
D03*
D31*
X16181967Y7490201D02*
D03*
X16381967D02*
D03*
X16331967D02*
D03*
X16281969D02*
D03*
X16231969D02*
D03*
X16181967Y7045202D02*
D03*
X16231969D02*
D03*
X16281967D02*
D03*
X16331967D02*
D03*
X16381967D02*
D03*
D32*
X15773528Y6753200D02*
D03*
X10270000Y6865854D02*
D03*
Y5687704D02*
D03*
Y7373854D02*
D03*
X15183528Y5991200D02*
D03*
X10860000Y7627854D02*
D03*
Y7119854D02*
D03*
Y6449704D02*
D03*
X10270000Y7246854D02*
D03*
Y7119854D02*
D03*
X10860000Y6322704D02*
D03*
X15773528Y6118200D02*
D03*
X15773528Y6245200D02*
D03*
X15773528Y6372200D02*
D03*
X15773529Y6499200D02*
D03*
Y6626200D02*
D03*
X15183528Y6753200D02*
D03*
X15183528Y6626200D02*
D03*
X15183528Y6499199D02*
D03*
Y6372200D02*
D03*
Y6245200D02*
D03*
X15183528Y6118200D02*
D03*
X10270000Y6322704D02*
D03*
Y6195704D02*
D03*
Y6068704D02*
D03*
Y5941704D02*
D03*
Y5814704D02*
D03*
X10860000Y5687704D02*
D03*
Y5814704D02*
D03*
Y5941704D02*
D03*
Y6068704D02*
D03*
Y6195704D02*
D03*
X10270000Y7500854D02*
D03*
Y6992854D02*
D03*
X10860000Y6865854D02*
D03*
Y7246854D02*
D03*
Y7373854D02*
D03*
Y7500854D02*
D03*
Y6992854D02*
D03*
D33*
X16639999Y3195000D02*
D03*
X16641805Y3130000D02*
D03*
X16464999Y3500000D02*
D03*
X16530000Y3020000D02*
D03*
X16464999D02*
D03*
X16616080Y750001D02*
D03*
X16439275Y1120001D02*
D03*
X16400000Y3501805D02*
D03*
X16335001Y3500000D02*
D03*
X16160001Y3195000D02*
D03*
X16335001Y3020000D02*
D03*
X16400000Y3018195D02*
D03*
X16160001Y3130000D02*
D03*
X16270000Y3018195D02*
D03*
X14366080Y3130000D02*
D03*
X16374274Y1121806D02*
D03*
X16309274Y1120000D02*
D03*
Y640000D02*
D03*
X16134274Y750001D02*
D03*
X14231805Y750000D02*
D03*
X14124274Y3501806D02*
D03*
X14189275Y3500000D02*
D03*
X14059274Y3500000D02*
D03*
X13884274Y3130000D02*
D03*
X14059274Y3020000D02*
D03*
X14189275D02*
D03*
X13994273Y3018195D02*
D03*
X14055000Y1120000D02*
D03*
X13989999Y1121805D02*
D03*
X14120000Y640000D02*
D03*
X13925000Y1120000D02*
D03*
Y640000D02*
D03*
X13860001Y638195D02*
D03*
X14230000Y1010000D02*
D03*
X14231805Y880000D02*
D03*
X14120000Y1121805D02*
D03*
X16134274Y945001D02*
D03*
Y815000D02*
D03*
X16614275D02*
D03*
X16616080Y880001D02*
D03*
X16614275Y945001D02*
D03*
Y1010001D02*
D03*
X16244273Y638195D02*
D03*
X16374274D02*
D03*
X16439275Y640000D02*
D03*
X16504274D02*
D03*
Y1121806D02*
D03*
X16132469Y880001D02*
D03*
Y1010001D02*
D03*
X16244273Y1120000D02*
D03*
X14055000Y640000D02*
D03*
X13989999Y638195D02*
D03*
X14230000Y945000D02*
D03*
X14230000Y815000D02*
D03*
X13750000Y750000D02*
D03*
Y815000D02*
D03*
Y945000D02*
D03*
X13748195Y880000D02*
D03*
Y1010000D02*
D03*
X13860001Y1120000D02*
D03*
X16639999Y3390000D02*
D03*
Y3325000D02*
D03*
X16641805Y3260000D02*
D03*
X16530000Y3501805D02*
D03*
X16270000Y3500000D02*
D03*
X16158195Y3390000D02*
D03*
X16160001Y3325000D02*
D03*
X16158195Y3260000D02*
D03*
X13994273Y3500000D02*
D03*
X14254274Y3501806D02*
D03*
Y3020000D02*
D03*
X14124274Y3018195D02*
D03*
X14364275Y3390000D02*
D03*
Y3325000D02*
D03*
X14366080Y3260000D02*
D03*
X14364275Y3195000D02*
D03*
X13884274D02*
D03*
X13882469Y3260000D02*
D03*
X13884274Y3325000D02*
D03*
X13882469Y3390000D02*
D03*
D34*
X16400000Y3260000D02*
D03*
X16374274Y880001D02*
D03*
X14124274Y3260000D02*
D03*
X13989999Y880000D02*
D03*
D35*
X11691198Y8522851D02*
D03*
X14697458Y9818482D02*
D03*
X8227399Y1701001D02*
D03*
X17055367Y6882700D02*
D03*
X17069568Y7661202D02*
D03*
X14697458Y8372199D02*
D03*
X16010768Y8796702D02*
D03*
X11148800Y8264500D02*
D03*
X10828651Y7887850D02*
D03*
D36*
X2425000Y6870000D02*
D03*
X2425000Y7330000D02*
D03*
X2425000Y7100000D02*
D03*
D37*
X12841164Y6133384D02*
D03*
X13281163Y6328382D02*
D03*
X13281163Y6133384D02*
D03*
X12841167Y6198383D02*
D03*
X12841164Y6328383D02*
D03*
X12841164Y6263384D02*
D03*
X13281163Y6198383D02*
D03*
X13281163Y6263383D02*
D03*
D38*
X11190000Y6150000D02*
D03*
X11420000Y6055000D02*
D03*
X11190000Y5959999D02*
D03*
D39*
X9012109Y2780000D02*
D03*
Y2470000D02*
D03*
D40*
X21825000Y249791D02*
D03*
Y1000000D02*
D03*
X21025000Y249790D02*
D03*
X21825000Y11250209D02*
D03*
Y10500000D02*
D03*
X21025000Y11250210D02*
D03*
X175000Y11250209D02*
D03*
Y10500000D02*
D03*
X975000Y11250210D02*
D03*
X249791Y175000D02*
D03*
X1000000D02*
D03*
X249790Y975000D02*
D03*
D41*
X6655000Y3751697D02*
D03*
X6345000D02*
D03*
D42*
X2300001Y4584999D02*
D03*
X1100000Y4585000D02*
D03*
X1100001Y5665001D02*
D03*
X2300000Y5665000D02*
D03*
D43*
X15773528Y5991200D02*
D03*
X10270000Y6449704D02*
D03*
Y7627854D02*
D03*
D44*
X3025000Y7099999D02*
D03*
D45*
X4150000Y800000D02*
Y1175000D01*
X2943934Y2125000D02*
X3412132D01*
Y1912868D02*
X4150000Y1175000D01*
X2212500Y2856434D02*
X2943934Y2125000D01*
X3412132Y1912868D02*
Y2125000D01*
X10774999Y1359583D02*
Y1775001D01*
X10295416Y880000D02*
X10774999Y1359583D01*
X9875000Y880000D02*
X10295416D01*
X9850000Y855000D02*
X9875000Y880000D01*
X9850000Y762131D02*
Y855000D01*
X6880522Y4500000D02*
X6955521Y4574999D01*
X6985000Y3180000D02*
Y4545519D01*
X6850000Y4574999D02*
X6884000Y4608999D01*
X6521723Y4500000D02*
X6880522D01*
X6955521Y4574999D02*
X6985000Y4545519D01*
X7150000Y4845932D02*
X7600000Y4395932D01*
X6884000Y4608999D02*
Y4950000D01*
X6275000Y4196724D02*
Y5991000D01*
X7650000Y10775000D02*
X7686247D01*
X5400000Y2800000D02*
Y2820000D01*
X6345000Y3751697D02*
Y4073276D01*
X6625000Y9307868D02*
Y10024264D01*
X6712868Y9220000D02*
X6942132D01*
X5923956Y5329994D02*
X5975000Y5278950D01*
X6625000Y9307868D02*
X6712868Y9220000D01*
X10774999Y1775001D02*
X12071243D01*
X4061107Y4600000D02*
X4807368D01*
X3350000D02*
X4061107D01*
X5400000Y2650000D02*
X7350000D01*
X4175000Y825000D02*
X4500000Y500000D01*
X12764148Y4675000D02*
X12840376D01*
X21345711Y5275000D02*
X21453000D01*
X20995001D02*
X21345711D01*
X2825000Y5125000D02*
X3350000Y4600000D01*
X1675000Y3975000D02*
X1700000Y4000000D01*
X537868Y5125000D02*
X2825000D01*
X450000Y5037132D02*
X537868Y5125000D01*
X450000Y3662868D02*
Y5037132D01*
X4950000Y2762868D02*
Y3474264D01*
X4862132Y3562132D02*
X4950000Y3474264D01*
X625000Y3575000D02*
X637868Y3562132D01*
X4862132D01*
X537868Y3575000D02*
X625000D01*
X450000Y3662868D02*
X537868Y3575000D01*
X9500000Y11000000D02*
X9500000Y11000000D01*
X7650000Y10775000D02*
X7875000Y10550000D01*
X7787132Y10112132D02*
X7875000Y10200000D01*
Y10550000D01*
X6712868Y10112132D02*
X7787132D01*
X6600000Y10775000D02*
X7650000D01*
X6625000Y10024264D02*
X6712868Y10112132D01*
X7150000Y4845932D02*
Y9012132D01*
X6942132Y9220000D02*
X7150000Y9012132D01*
X12100000Y1803758D02*
Y3200000D01*
Y4010852D02*
X12764148Y4675000D01*
X12100000Y3850000D02*
Y4010852D01*
X12071243Y1775001D02*
X12100000Y1803758D01*
X10774999Y1775001D02*
Y1875001D01*
X9850000Y762131D02*
Y775000D01*
X7350000Y2650000D02*
X7600000Y2900000D01*
Y4395932D01*
X9150000Y175000D02*
Y250000D01*
X9125000Y275000D02*
X9150000Y250000D01*
X5975000Y10150000D02*
X6600000Y10775000D01*
X5975000Y4687868D02*
Y5278950D01*
Y10150000D01*
X5887132Y4600000D02*
X5975000Y4687868D01*
X4807368Y4600000D02*
X5887132D01*
X5400000Y2650000D02*
Y2800000D01*
X5037868Y2675000D02*
X5375000D01*
X4950000Y2762868D02*
X5037868Y2675000D01*
X5400000Y2546000D02*
Y2650000D01*
X4875000Y275000D02*
X9125000D01*
X5375000Y2675000D02*
X5400000Y2650000D01*
X4850000Y250000D02*
X4875000Y275000D01*
X4850000Y200000D02*
Y250000D01*
X8624998Y2699999D02*
X8674999Y2750000D01*
X8511954Y2694999D02*
X8516954Y2699999D01*
X8624998D01*
X8511954Y2674999D02*
Y2694999D01*
X7075000Y1450000D02*
X7299999Y1225001D01*
X7735847D01*
X20700000Y2822000D02*
X21365132D01*
X21453000Y2909868D02*
Y4135398D01*
X21365132Y2822000D02*
X21453000Y2909868D01*
Y4135398D02*
Y5275000D01*
X21365132Y8040000D02*
X21382028Y8023105D01*
Y6615000D02*
Y8023105D01*
X20960001Y5239999D02*
X20995001Y5275000D01*
X21453000D02*
Y6544028D01*
X20960001Y6615000D02*
X21382028D01*
X21453000Y6544028D01*
X20960001Y8040000D02*
X21365132D01*
X6275000Y4196724D02*
X6371724Y4100000D01*
X6345000D02*
X6765000D01*
X6345000Y4073276D02*
X6371724Y4100000D01*
X5925000Y3925000D02*
X6308899D01*
X6345000Y3961101D01*
X6275000Y5991000D02*
X6884000Y6600000D01*
Y4950000D02*
Y5775000D01*
X4810066Y3925000D02*
X5925000D01*
X6500000Y3171967D02*
Y3181438D01*
X6356697Y3324741D02*
X6500000Y3181438D01*
X6356697Y3324741D02*
Y3740000D01*
X6345000Y3751697D02*
X6356697Y3740000D01*
D46*
X2025000Y9871494D02*
X2350000Y10196494D01*
Y10524529D01*
X2461994Y10636522D01*
Y10661993D01*
X3100000Y11300000D01*
X8138612D01*
X2025000Y7825000D02*
Y9871494D01*
X3072300Y11047300D02*
X7877700D01*
X2597300Y8194252D02*
Y10572300D01*
X3072300Y11047300D01*
X16391283Y9750000D02*
X16425000D01*
X16341283Y9800000D02*
X16391283Y9750000D01*
X16150000Y9800000D02*
X16341283D01*
X8271150Y1500000D02*
Y1533717D01*
X8227399Y1577468D02*
X8271150Y1533717D01*
X8227399Y1577468D02*
Y1701001D01*
X15519469Y8854201D02*
X15669469Y9004200D01*
X15375000Y8854201D02*
X15519469D01*
X12190380Y5825881D02*
X12550000D01*
X12082680Y6032099D02*
X12291826Y6241244D01*
X12082680Y5633584D02*
Y6032099D01*
Y5633584D02*
X12190380Y5525884D01*
Y5040882D02*
Y5525884D01*
X17600000Y5975000D02*
X17633717D01*
X17683717Y6025000D01*
X17778375D01*
X17763423Y7030229D02*
X17853375D01*
X16671968Y7936202D02*
X16701968D01*
X16779066Y7859105D01*
Y7600000D02*
Y7859105D01*
X11310000Y6815000D02*
X11450000Y6675000D01*
X11310000Y6815000D02*
Y6992854D01*
X11625000Y6955629D02*
X11647450Y6978079D01*
X11526381Y5951853D02*
X11625000Y6050473D01*
X11647450Y6978079D02*
Y6992854D01*
X11625000Y6050473D02*
Y6955629D01*
X11194775Y8344775D02*
X11250000Y8400000D01*
X11347699Y7784650D02*
Y8871351D01*
X9760000Y8076971D02*
Y9015000D01*
X9875000Y8503350D02*
Y8625000D01*
X11276901Y9764060D02*
Y9975000D01*
X12425000Y5080026D02*
Y5106938D01*
X12431396Y5113334D01*
X12465815D01*
X12472790Y5120309D01*
X13722264Y5117659D02*
X13955083D01*
X12861621Y5118663D02*
X13721259D01*
X12472790Y5120309D02*
X12860001D01*
X12649998Y4830224D02*
Y4864632D01*
X12635119Y4879511D02*
X12649998Y4864632D01*
X12635119Y4879511D02*
Y4879969D01*
X12425001D02*
X12635119D01*
X12607058Y4830223D02*
X12650002D01*
X12190380Y5040882D02*
X12227680Y5003582D01*
X12338181D01*
X12355673Y4986090D01*
X12520621D01*
X12564812Y5030282D01*
X12291826Y6241244D02*
X12338689D01*
X12450581Y6353137D01*
X12860001Y5120309D02*
X12860001D01*
X12860001Y5120310D01*
X12650004Y5030281D02*
Y5030282D01*
X12919371D01*
X12564812D02*
X12650004D01*
X14000011Y10075000D02*
X14170000Y9905010D01*
X13661324Y10075000D02*
X14000011D01*
X13646445Y9919181D02*
Y10060121D01*
X13661324Y10075000D01*
X16309274Y640000D02*
Y815000D01*
X14059274Y3020000D02*
Y3195000D01*
X13919684Y624682D02*
Y809684D01*
X13519444Y9376781D02*
X13522221Y9374004D01*
Y9177778D02*
Y9374004D01*
Y9177778D02*
X13525000Y9175000D01*
X12955852Y9030851D02*
X13050000Y9125000D01*
X11691199Y9030851D02*
X12955852D01*
X13902487Y8983908D02*
X13911395Y8975000D01*
X13833295Y8983908D02*
X13902487D01*
X13806755Y9010447D02*
X13833295Y8983908D01*
X13752338Y9010447D02*
X13806755D01*
X13905920Y9180475D02*
Y9371306D01*
Y9180475D02*
X13911395Y9175000D01*
X13646443Y9214879D02*
X13778287Y9083035D01*
X14060118D01*
X14170000Y9192917D01*
X13914616Y9905010D02*
X14039999D01*
X13900446Y9919182D02*
X13914616Y9905010D01*
X12329103Y9468584D02*
X12460519Y9600000D01*
X13664577D02*
X13773444Y9491132D01*
X12460519Y9600000D02*
X13664577D01*
X13646443Y9214879D02*
Y9376782D01*
X12946745Y9455675D02*
X12982201Y9491131D01*
X12815945Y9467982D02*
X12828252Y9455675D01*
X12946745D01*
X13900446Y9376781D02*
X13905920Y9371306D01*
X13773444Y9376782D02*
Y9491132D01*
X13130869Y9926758D02*
Y9997068D01*
X13111359Y10153228D02*
Y10162200D01*
X13130325Y9997610D02*
X13130869Y9997068D01*
X13111359Y10153228D02*
X13119104Y10145482D01*
X13130325Y9997610D02*
Y10134260D01*
X13119104Y10145482D02*
X13130325Y10134260D01*
X13138445Y9801083D02*
Y9919181D01*
X13011446Y9906424D02*
Y9919182D01*
X12993152Y9888132D02*
X13011446Y9906424D01*
Y9239357D02*
Y9376781D01*
X13773445Y9723982D02*
Y9919182D01*
X13265446Y9764879D02*
Y9919181D01*
X13646445Y9764879D02*
Y9919181D01*
X13130869Y9926758D02*
X13138445Y9919181D01*
X12982201Y9491131D02*
X13067844D01*
X13138445Y9420531D01*
Y9376781D02*
Y9420531D01*
X13265443Y9376782D02*
Y9413602D01*
X13342973Y9491131D01*
X13575842D01*
X13646443Y9420532D01*
Y9376782D02*
Y9420532D01*
X13668878Y8140026D02*
X13691859Y8117045D01*
X13396378Y8140026D02*
X13668878D01*
X12800000Y8225000D02*
X12825000Y8200000D01*
X13691859Y8013198D02*
Y8117045D01*
X13300000Y3603852D02*
Y3620000D01*
X12800000Y8225000D02*
Y8880431D01*
X8138612Y11300000D02*
X9088589Y10350022D01*
X12073067D01*
X3439051Y10250000D02*
X3550000D01*
X3225000Y10035949D02*
X3439051Y10250000D01*
X3225000Y8005686D02*
Y10035949D01*
X3063905Y7844591D02*
X3225000Y8005686D01*
X2700000Y7844591D02*
X3063905D01*
X3050029Y7830715D02*
X3063905Y7844591D01*
X3050029Y7800057D02*
Y7830715D01*
X13265446Y9764879D02*
X13280325Y9750000D01*
X13631566D01*
X13646445Y9764879D01*
X13724463Y9675000D02*
X13773445Y9723982D01*
X12666368Y9675000D02*
X13724463D01*
X12575889Y9765479D02*
X12666368Y9675000D01*
X12542786Y9768582D02*
X12575889D01*
X12542785Y9768583D02*
X12542786Y9768582D01*
X11691200Y9157849D02*
Y9157849D01*
Y9157849D02*
X12929938D01*
X13011446Y9239357D01*
X12234771Y9888132D02*
X12993152D01*
X12086484Y9739845D02*
X12234771Y9888132D01*
X12086484Y9493944D02*
Y9739845D01*
X11877391Y9284851D02*
X12086484Y9493944D01*
X11691199Y9284851D02*
X11877391D01*
X13123566Y9786204D02*
X13138445Y9801083D01*
X12863770Y9786204D02*
X13123566D01*
X12830745Y9753180D02*
X12863770Y9786204D01*
X12299103Y9468584D02*
X12329103D01*
X14170000Y9691482D02*
Y9905010D01*
Y9192917D02*
Y9691482D01*
X13705022Y8963131D02*
X13752338Y9010447D01*
X11794229Y8963131D02*
X13705022D01*
X9500000Y8775000D02*
X9650000Y8925000D01*
X8265156Y8585776D02*
X8454381Y8775000D01*
X9500000D01*
X8935613Y6800000D02*
X9166095Y6569518D01*
X8339533Y6800000D02*
X8935613D01*
X8139533Y6600000D02*
X8339533Y6800000D01*
X15444199Y3965800D02*
X15479199D01*
X15545000Y3899999D01*
X15575000D01*
X15395445Y4014553D02*
X15444199Y3965800D01*
X15350447Y4014553D02*
X15395445D01*
X15339999Y4025000D02*
X15350447Y4014553D01*
X13564859Y8319779D02*
Y8502898D01*
X7298604Y10400000D02*
X7575000D01*
X7251922Y10446682D02*
X7298604Y10400000D01*
X6910786Y10446682D02*
X7251922D01*
X14781358Y9259499D02*
X14800008Y9240849D01*
X14562151Y9259499D02*
X14781358D01*
X14525000Y9296651D02*
X14562151Y9259499D01*
X14525000Y9296651D02*
Y9549602D01*
X14539879Y9564482D01*
X14697458D01*
Y9691482D01*
X14129166Y6600664D02*
Y6630664D01*
Y6600664D02*
X14184663Y6545166D01*
Y6392084D02*
Y6545166D01*
X14494164Y6406961D02*
Y6535665D01*
X14429164Y6600665D02*
X14494164Y6535665D01*
X14429164Y6600665D02*
Y6630665D01*
X14479285Y6392082D02*
X14494164Y6406961D01*
X17633881Y5682386D02*
X17723080Y5593186D01*
X14925000Y5825000D02*
X15067615Y5682386D01*
X17633881D01*
X3000000Y5779237D02*
Y7075000D01*
X3025000Y7099999D01*
X17763423Y7030229D02*
X17774117Y7019535D01*
Y6628699D02*
Y7019535D01*
X17560161Y7030229D02*
X17763423D01*
X17853375D02*
Y8235454D01*
X10186467Y1897393D02*
X10452607D01*
X10475001Y1875000D01*
X12547117Y6202884D02*
X12550000Y6200001D01*
X12547117Y6202884D02*
Y6848706D01*
X12561996Y6863585D01*
X12637699D01*
X12674999Y6900885D01*
Y6930885D01*
X13700000Y6435884D02*
X13858150Y6277734D01*
X13213280Y7387605D02*
Y7464944D01*
X13700000Y6435884D02*
Y6900885D01*
X13213280Y7387605D02*
X13700000Y6900885D01*
X13181165Y6930885D02*
X13181165Y6930885D01*
X12975000Y6930885D02*
X13181165D01*
X12975000Y6900885D02*
Y6917049D01*
X12841164Y6767049D02*
X12975000Y6900885D01*
X12841164Y6328383D02*
Y6767049D01*
X12975000Y6917049D02*
X12983083Y6908967D01*
X13178664Y6700882D02*
Y6928385D01*
X13141364Y6263384D02*
X13281163Y6263383D01*
X13128664Y6263384D02*
X13141364Y6263384D01*
X13723163Y7349200D02*
X13753162D01*
X14479285Y4882130D02*
Y6392082D01*
X13993721Y4550000D02*
X14147156D01*
X14479285Y4882130D01*
X12661163Y6353137D02*
X12746518Y6267782D01*
X12836766D01*
X12841164Y6263384D01*
X12551618Y6198383D02*
X12862897D01*
X12550000Y6200001D02*
X12551618Y6198383D01*
X12550000Y6000000D02*
X12550001Y6000001D01*
X12550000Y5825881D02*
Y6000000D01*
X13763692Y5806188D02*
X13778465D01*
X13743744Y5826135D02*
X13763692Y5806188D01*
X13617300Y5826135D02*
X13743744D01*
X13580000Y5863435D02*
X13617300Y5826135D01*
X13580000Y5863435D02*
Y5893435D01*
X13272583Y5900851D02*
X13279999Y5893435D01*
X13257750Y5900851D02*
X13272583D01*
X13235985Y5879086D02*
X13257750Y5900851D01*
X13235985Y5675885D02*
Y5879086D01*
X13178664Y6928385D02*
X13181165Y6930885D01*
X13839996Y6238101D02*
X14184663Y5893434D01*
X13529219Y6238101D02*
X13839996D01*
X13489500Y6198383D02*
X13529219Y6238101D01*
X13281163Y6198383D02*
X13489500D01*
X14184663Y5849684D02*
Y5893434D01*
X12841164Y5943479D02*
X12853664Y5930980D01*
X12859982D01*
X12870399Y5920563D01*
Y5825881D02*
Y5920563D01*
Y5592768D02*
Y5825881D01*
X13116171Y5675885D02*
X13235985D01*
X13250002D01*
X13280000Y5645886D01*
X13116170Y5675884D02*
X13116171Y5675885D01*
X13021164Y5675884D02*
X13116170D01*
X12550000Y5525884D02*
X12587300Y5563184D01*
X12623465D01*
X12736164Y5675883D01*
X12761164D01*
X17521516Y7068874D02*
X17560161Y7030229D01*
X17399066Y7068874D02*
X17521516D01*
X17399066D02*
Y7316404D01*
X17308269Y7407202D02*
X17399066Y7316404D01*
X17069568Y7407202D02*
X17308269D01*
X16796529Y9292301D02*
X17853375Y8235454D01*
X15941542Y5823186D02*
X17890508D01*
X18000000Y5932680D01*
Y9160000D01*
X17774117Y6029258D02*
Y6332287D01*
Y6029258D02*
X17778375Y6025000D01*
X16339999Y10820000D02*
X18000000Y9160000D01*
X17944386Y5763186D02*
X18075000Y5893800D01*
X15837662Y5763186D02*
X17944386D01*
X16389600Y10860400D02*
X18075000Y9175000D01*
Y5893800D02*
Y9175000D01*
X17959265Y9347869D02*
X18175000Y9132134D01*
Y5936666D02*
Y9132134D01*
X17961121Y5722786D02*
X18175000Y5936666D01*
X17597766Y6628699D02*
X17774117D01*
Y6332287D02*
Y6628699D01*
X17429153Y6332287D02*
X17774117D01*
X17399066Y6302199D02*
X17429153Y6332287D01*
X14184663Y5620883D02*
Y5849684D01*
X15389552Y9410447D02*
X15400000Y9400000D01*
X15389552Y9410447D02*
Y9458536D01*
X15283607Y9564482D02*
X15389552Y9458536D01*
X15239857Y9564482D02*
X15283607D01*
X15531969Y9154200D02*
Y9404981D01*
Y9154200D02*
X15632169Y9054000D01*
Y9041501D02*
Y9054000D01*
Y9041501D02*
X15669469Y9004200D01*
X15681969D01*
X15955000Y9550000D02*
Y9564775D01*
X15975000Y9584775D02*
Y9742300D01*
X16032700Y9800000D01*
X15955000Y9564775D02*
X15975000Y9584775D01*
X14089999Y780000D02*
X14120000Y750000D01*
X13989999Y880000D02*
X14089999Y780000D01*
X16032700Y9800000D02*
X16150000D01*
X15517699Y9827700D02*
X15534999Y9845000D01*
X15498817Y9827700D02*
X15517699D01*
X15466899Y9795781D02*
X15498817Y9827700D01*
X15466899Y9609219D02*
Y9795781D01*
Y9609219D02*
X15494669Y9581450D01*
Y9442281D02*
Y9581450D01*
Y9442281D02*
X15531969Y9404981D01*
X14932700Y7812299D02*
X14987698D01*
X15024998Y7774999D01*
X14932700Y7812299D02*
Y7926707D01*
X14741208Y8118198D02*
X14932700Y7926707D01*
X14697458Y8118198D02*
X14741208D01*
X14589999Y7844707D02*
Y7910429D01*
X14581898Y7836606D02*
X14589999Y7844707D01*
X14581898Y7757570D02*
Y7836606D01*
X14323529Y7499200D02*
X14581898Y7757570D01*
X17081706Y7280202D02*
X17100000Y7261910D01*
X17069568Y7280202D02*
X17081706D01*
X16859554Y9100447D02*
X16870000Y9090000D01*
X16834500Y9100447D02*
X16859554D01*
X17086674Y7113325D02*
X17100000Y7100000D01*
X17055367Y6420725D02*
Y6501701D01*
X17011617Y6362200D02*
X17071616Y6302200D01*
X17199066D01*
X17011617Y6376975D02*
X17055367Y6420725D01*
X17011617Y6362200D02*
Y6376975D01*
X16813528Y6362200D02*
X17011617D01*
X16718246Y9204201D02*
X16730746D01*
X16369553Y9439553D02*
X16380000Y9450000D01*
X16065366Y9204201D02*
X16077866D01*
X14378360Y8837246D02*
X14408360D01*
X14250000Y8940000D02*
X14260448Y8929553D01*
X14238712Y8940000D02*
X14250000D01*
X14286053Y8929553D02*
X14378360Y8837246D01*
X14260448Y8929553D02*
X14286053D01*
X16779066Y7245199D02*
X16816367Y7207899D01*
X15946738Y6703639D02*
X15958066D01*
X15855519Y7542200D02*
X15907518Y7490201D01*
X16181967D01*
X15849066Y7542200D02*
X15855519D01*
X15897176Y6753200D02*
X15946738Y6703639D01*
X15773528Y6753200D02*
X15897176D01*
X14217163Y4852845D02*
X14220381Y4849627D01*
X16887878Y3121138D02*
X17149998D01*
X16860001Y3093260D02*
X16887878Y3121138D01*
X16666795Y3093260D02*
X16860001D01*
X16616080Y750001D02*
X16759274D01*
X16824274Y697501D02*
X16856773Y730001D01*
X17114275D01*
X16811774Y697501D02*
X16824274D01*
X16759274Y750001D02*
X16811774Y697501D01*
X14564273Y3910000D02*
X14770001D01*
X14404559Y3091519D02*
X14564275D01*
X14366080Y3130000D02*
X14404559Y3091519D01*
X16185114Y2945112D02*
X16242500D01*
X16122701Y2825313D02*
Y2882700D01*
X16185114Y2945112D01*
X16309274Y815000D02*
X16374274Y880001D01*
X15957300Y2659913D02*
X16122701Y2825313D01*
X15920000Y2602500D02*
X15957300Y2639800D01*
X15905978Y750001D02*
X16132623D01*
X15957300Y2639800D02*
Y2659913D01*
X15889999Y2602500D02*
X15920000D01*
X14231805Y750000D02*
X14364999D01*
X15885979Y730001D02*
X15905978Y750001D01*
X14689999Y736697D02*
X14720000D01*
X14650803Y697500D02*
X14689999Y736697D01*
X14364999Y750000D02*
X14417500Y697500D01*
X14430000D02*
X14650803D01*
X14417500D02*
X14430000D01*
X14128358Y8829647D02*
X14238712Y8940000D01*
X14128358Y8799647D02*
Y8829647D01*
X11767449Y9518584D02*
Y9518584D01*
X11696636Y9411850D02*
X11714929Y9430143D01*
X11691199Y9411850D02*
X11696636D01*
X13700000Y7349200D02*
X13723163D01*
X11691198Y8522851D02*
X11694773Y8526425D01*
X11190000Y6150000D02*
Y6263804D01*
X11148800Y7375500D02*
X11148801Y7375499D01*
X10438199Y6868656D02*
X10441001Y6871458D01*
X10272802Y6868656D02*
X10438199D01*
X10270000Y6865854D02*
X10272802Y6868656D01*
X14217163Y4852845D02*
Y4961505D01*
X14059274Y3195000D02*
X14124274Y3260000D01*
X13866106Y3113482D02*
X13882623Y3130000D01*
X13884274D01*
X13624275Y3113482D02*
X13866106D01*
X14120000Y640000D02*
Y750000D01*
X13919684Y809684D02*
X13989999Y880000D01*
X12189497Y4740000D02*
X12190379Y4740882D01*
X10266148Y5683852D02*
X10270000Y5687704D01*
X10093852Y5683852D02*
X10266148D01*
X10090000Y5680000D02*
X10093852Y5683852D01*
X8982109Y2750000D02*
X9012109Y2780000D01*
X8674999Y2750000D02*
X8982109D01*
X13480000Y739913D02*
X13638705D01*
X13740424Y638195D02*
X13860001D01*
X13638705Y739913D02*
X13740424Y638195D01*
X8594999Y2178000D02*
X8624998D01*
X8464849Y2047851D02*
X8594999Y2178000D01*
X8433866Y2047851D02*
X8464849D01*
X8341016Y1955001D02*
X8433866Y2047851D01*
X8227400Y1955001D02*
X8341016D01*
X8856797Y2170680D02*
X8886797D01*
X8670596Y1984479D02*
X8856797Y2170680D01*
X8427628Y1984479D02*
X8670596D01*
X8271150Y1828001D02*
X8427628Y1984479D01*
X8227400Y1828001D02*
X8271150D01*
X13978842Y4564879D02*
Y4826971D01*
Y4564879D02*
X13993721Y4550000D01*
X12550000Y5825881D02*
X12870399D01*
Y5592768D02*
X12959982Y5503184D01*
X13003864D01*
X13021162Y5485884D01*
X9012109Y2470000D02*
X10246834D01*
X12607058Y4830224D01*
X8999010Y2483099D02*
X9012109Y2470000D01*
X7451999Y2292000D02*
X7643099Y2483099D01*
X8999010D01*
X5400000Y2292000D02*
X7451999D01*
X8227400Y1714424D02*
Y1828001D01*
X9183230Y2275000D02*
X11046000D01*
X11221000Y2450000D01*
Y2725000D01*
X11239500Y2789500D02*
X13308057Y4858057D01*
X11221000Y2771000D02*
X11239500Y2789500D01*
X11050000Y2725000D02*
X11221000D01*
X13308057Y4915656D02*
X13310004Y4917603D01*
X13308057Y4858057D02*
Y4915656D01*
X11221000Y2725000D02*
Y2771000D01*
Y2725000D02*
X11304000D01*
X9128910Y2220680D02*
X9183230Y2275000D01*
X9128910Y2106388D02*
Y2220680D01*
X10034025Y1897393D02*
X10186467D01*
X11904328Y7785447D02*
X11914776Y7775000D01*
X11873250Y7876750D02*
X11904328Y7845672D01*
Y7785447D02*
Y7845672D01*
X11697950Y7876750D02*
X11873250D01*
X11691200Y7883500D02*
X11697950Y7876750D01*
X11691200Y7756500D02*
X11698706Y7748994D01*
X11776487D02*
X11989553Y7535928D01*
Y7510447D02*
X12000000Y7500000D01*
X11698706Y7748994D02*
X11776487D01*
X11989553Y7510447D02*
Y7535928D01*
X11174975Y8264500D02*
X11194775Y8284300D01*
Y8344775D01*
X11148800Y8264500D02*
X11174975D01*
X10388100Y7246854D02*
X10475000Y7333754D01*
X10330001Y8522850D02*
X10475000Y8377851D01*
Y7333754D02*
Y8377851D01*
X10675000Y7381854D02*
Y9081645D01*
Y7381854D02*
X10810000Y7246854D01*
X10675000Y9081645D02*
X11158199Y9564844D01*
X11539879Y7501250D02*
X11689950D01*
X11525000Y7400000D02*
Y7486371D01*
X11539879Y7501250D01*
X10689999Y6442705D02*
Y6639999D01*
Y6442705D02*
X10810000Y6322704D01*
X6910000Y9941000D02*
X7126000Y9725000D01*
X9050000D02*
X9760000Y9015000D01*
X7126000Y9725000D02*
X9050000D01*
X2440926Y7314073D02*
X2578128D01*
X2425000Y7330000D02*
X2440926Y7314073D01*
X10270000Y6992854D02*
X10320000D01*
X10540400Y7213254D01*
Y8776850D01*
X9093603Y10223647D02*
X10540400Y8776850D01*
X8164879Y10223647D02*
X9093603D01*
X8150000Y10238526D02*
X8164879Y10223647D01*
X8150000Y10238526D02*
Y10775000D01*
X7877700Y11047300D02*
X8150000Y10775000D01*
X2597300Y7333245D02*
Y8194252D01*
X2578128Y7314073D02*
X2597300Y7333245D01*
X3050028Y7125028D02*
Y7600000D01*
X3025000Y7099999D02*
X3050028Y7125028D01*
X8484000Y9941000D02*
X8934000D01*
X8475000Y9950000D02*
X8484000Y9941000D01*
X10231784Y8649850D02*
X10286250D01*
X10215938Y8665696D02*
X10231784Y8649850D01*
X10209304Y8665696D02*
X10215938D01*
X8934000Y9941000D02*
X10209304Y8665696D01*
X8241958Y8585776D02*
X8265156D01*
X7900000Y8243818D02*
X8241958Y8585776D01*
X8010000Y4950000D02*
X8627888Y5567888D01*
X8013100Y5661900D02*
X9395781D01*
X7900000Y5775000D02*
X8013100Y5661900D01*
X7900000Y6600000D02*
X8139533D01*
X17959265Y9347869D02*
Y9440735D01*
X16525000Y10875000D02*
X17959265Y9440735D01*
X9976467Y1866586D02*
X10003217D01*
X10034025Y1897393D01*
X13858150Y6277734D02*
X13987064D01*
X14057664Y6348334D02*
Y6392084D01*
X13987064Y6277734D02*
X14057664Y6348334D01*
X13213280Y7533456D02*
Y7632910D01*
X13310860Y7730489D01*
Y7960498D01*
X11170675Y7629501D02*
X11192550D01*
X11347699Y7784650D01*
X9395781Y5661900D02*
X10025000Y6291119D01*
Y7175000D02*
X10223854Y7373854D01*
X10025000Y6291119D02*
Y7175000D01*
X10100000Y7007031D02*
X10212823Y7119854D01*
X10100000Y6235704D02*
Y7007031D01*
X9432184Y5567888D02*
X10100000Y6235704D01*
X10149166Y1934693D02*
X10186467Y1897393D01*
X10149166Y1934693D02*
Y1959487D01*
X10003218Y2105435D02*
X10149166Y1959487D01*
X9976468Y2105435D02*
X10003218D01*
X12607058Y4830224D02*
X12649998D01*
X8912720Y1591725D02*
Y1621724D01*
Y1591725D02*
X9216707Y1287737D01*
X9426467D01*
X13310004Y4917603D02*
X13404842D01*
X13454636Y4867807D01*
X13543079D01*
X13550002Y4860883D01*
Y4830225D02*
Y4860883D01*
X9102160Y1876387D02*
X9128910D01*
X9083994Y1858221D02*
X9102160Y1876387D01*
X9076721Y1865494D02*
X9083994Y1858221D01*
X9026370Y1865494D02*
X9076721D01*
X9011130Y1880734D02*
X9026370Y1865494D01*
X8896851Y1880734D02*
X9011130D01*
X8886798Y1870681D02*
X8896851Y1880734D01*
X9946316Y2102033D02*
X9949718Y2105435D01*
X9928835Y2119515D02*
X9946316Y2102033D01*
X9928835Y2140557D02*
X9943714Y2155436D01*
X9928835Y2119515D02*
Y2140557D01*
X9128910Y1876388D02*
Y2106388D01*
Y1876388D02*
X9128910Y1876387D01*
X7900000Y7425000D02*
Y7939886D01*
X8580114Y8620000D02*
X9645000D01*
X7900000Y7939886D02*
X8580114Y8620000D01*
X9166095Y6569518D02*
X9897962D01*
X9645000Y8620000D02*
X9650000Y8625000D01*
X10223854Y7373854D02*
X10270000D01*
X16027678Y880001D02*
X16046175D01*
X10109500Y8268850D02*
X10286250D01*
X9875000Y8503350D02*
X10109500Y8268850D01*
X10270000Y6449704D02*
Y6520000D01*
X10620000Y6870000D02*
Y6943044D01*
X10270000Y6520000D02*
X10620000Y6870000D01*
X10647300Y6350138D02*
Y6565744D01*
Y6350138D02*
X10801734Y6195704D01*
X10860000D01*
X10270000Y7627854D02*
X10410121D01*
X10425000Y7642733D02*
Y8294108D01*
X10410121Y7627854D02*
X10425000Y7642733D01*
X10323258Y8395850D02*
X10425000Y8294108D01*
X10212823Y7119854D02*
X10270000D01*
X10194234Y7494234D02*
X10263380D01*
X9930000Y7230000D02*
X10194234Y7494234D01*
X10263380D02*
X10270000Y7500854D01*
X9930000Y6836956D02*
Y7230000D01*
Y6569518D02*
Y6763044D01*
X9932700Y6765745D02*
Y6834256D01*
X9930000Y6763044D02*
X9932700Y6765745D01*
X9930000Y6836956D02*
X9932700Y6834256D01*
X9850000Y7989971D02*
X9874879Y8014850D01*
X9850000Y6800000D02*
Y7989971D01*
X9874879Y8014850D02*
X10286251D01*
X9824879Y8141850D02*
X10286250D01*
X9760000Y8076971D02*
X9824879Y8141850D01*
X9760000Y6670000D02*
Y8076971D01*
X8627888Y5567888D02*
X9432184D01*
X10286251Y8522850D02*
X10330001D01*
X10270000Y7246854D02*
X10388100D01*
X10270000Y7119854D02*
Y7246854D01*
X10810000Y6322704D02*
X10860000D01*
X12753247Y7520000D02*
X12970000D01*
X12430000Y7196753D02*
X12753247Y7520000D01*
X13094879Y7960498D02*
X13183859D01*
X13080000Y7497600D02*
Y7945619D01*
X12732800Y7150400D02*
X13080000Y7497600D01*
Y7945619D02*
X13094879Y7960498D01*
X13310860Y7960498D02*
Y8502898D01*
X11251209Y7502500D02*
X11556956Y7196753D01*
X12430000D01*
X12299102Y9768582D02*
X12542785D01*
X13461461Y7649200D02*
X13976459D01*
X13945859Y8502899D02*
X13951331Y8508370D01*
Y8590220D01*
X13437859Y7672803D02*
Y7960499D01*
X14072859Y7960498D02*
X14539931D01*
X14016460Y7846148D02*
X14372281D01*
X14390315Y7864182D01*
X13818858Y8546648D02*
X13929858Y8657648D01*
X13818858Y8502898D02*
Y8546648D01*
X13437859Y8502899D02*
Y8754767D01*
X14072859Y7960498D02*
Y8502898D01*
X13818858Y7982373D02*
Y8502897D01*
X13818858Y7982373D02*
X13818858Y7982373D01*
X13183859Y7960498D02*
Y8502898D01*
X13945859Y7916749D02*
X14016460Y7846148D01*
X13945859Y7916749D02*
Y7960499D01*
X13818858Y8502897D02*
X13818858Y8502898D01*
X13422980Y8769646D02*
X13437859Y8754767D01*
X13349046Y8769646D02*
X13422980D01*
X11440400Y7150400D02*
X12732800D01*
X11440399Y7150399D02*
X11440400Y7150400D01*
X11344066Y7150399D02*
X11440399D01*
X11082069Y6888402D02*
X11344066Y7150399D01*
X11082069Y6083583D02*
Y6888402D01*
X11067190Y6068704D02*
X11082069Y6083583D01*
X10860000Y6068704D02*
X11067190D01*
X14697458Y8245198D02*
X14855463D01*
X14870341Y8260077D01*
Y8579658D01*
X14792352Y8657648D02*
X14870341Y8579658D01*
X13929858Y8657648D02*
X14792352D01*
X14539931Y7960498D02*
X14589999Y7910429D01*
X13295979Y7499200D02*
X14323529D01*
X13437859Y7672803D02*
X13460661Y7649999D01*
X14378358Y8537248D02*
X14408359D01*
X14298360Y8617248D02*
X14378358Y8537248D01*
X13978358Y8617248D02*
X14298360D01*
X13951331Y8590220D02*
X13978358Y8617248D01*
X17069568Y7534202D02*
X17124034D01*
X17147014Y7511221D01*
X17464198D02*
X17568217Y7407202D01*
X17147014Y7511221D02*
X17464198D01*
X17568217Y7407202D02*
X17611967D01*
X16381967Y7490201D02*
X16971101D01*
X17025818Y7534202D02*
X17047693D01*
X14972646Y9341019D02*
X15196107Y9564482D01*
X14170000Y9691482D02*
X14697458D01*
X15196107Y9564482D02*
X15239857D01*
X14972646Y9053798D02*
Y9341019D01*
X14953780Y9034931D02*
X14972646Y9053798D01*
X14120851Y9034931D02*
X14953780D01*
X13923166Y8837246D02*
X14120851Y9034931D01*
X13865660Y8837246D02*
X13923166D01*
X13828358Y8799946D02*
X13865660Y8837246D01*
X13828358Y8799646D02*
Y8799946D01*
X15020000Y8237015D02*
Y9063543D01*
Y8237015D02*
X15119058Y8137956D01*
Y8133077D02*
Y8137956D01*
X15133937Y8118198D02*
X15239857D01*
X15119058Y8133077D02*
X15133937Y8118198D01*
X15020000Y9063543D02*
X15118657Y9162200D01*
Y9192200D01*
X14390314Y8164180D02*
X14396326Y8170191D01*
X14408347Y8164180D02*
Y8170191D01*
X14396326Y8176202D02*
Y8231699D01*
Y8170191D02*
Y8176202D01*
Y8231699D02*
Y8243732D01*
X14408347Y8176202D02*
Y8231699D01*
X14570000Y871118D02*
Y1027500D01*
X14508281Y809400D02*
X14570000Y871118D01*
X14319633Y841485D02*
X14351718Y809400D01*
X14508281D01*
X14319633Y841485D02*
Y846748D01*
X14231805Y880000D02*
X14286382D01*
X14319633Y846748D01*
X15885979Y1030000D02*
X15915977D01*
X15953278Y992700D01*
Y954400D02*
Y992700D01*
X14230000Y945000D02*
X14370000D01*
X14417500Y897500D01*
X13630000Y894879D02*
Y1040000D01*
Y894879D02*
X13644879Y880000D01*
X13748195D01*
X13873048Y1703076D02*
X13879971Y1710000D01*
X15953278Y954400D02*
X16027678Y880001D01*
X13630000Y1040000D02*
X13661333Y1071332D01*
X14417500Y897500D02*
X14430000D01*
X16766937Y945001D02*
X16811774Y900165D01*
X16824274D01*
X16614275Y945001D02*
X16766937D01*
X16064018Y3260000D02*
X16158195D01*
X15620981Y3113481D02*
X15887500D01*
X15889999Y3115981D01*
X15920000D01*
X16064018Y3260000D01*
X13768024Y3319869D02*
Y3464019D01*
Y3319869D02*
X13827893Y3260000D01*
X13882469D01*
X14364275Y3325000D02*
X14530794D01*
X14564275Y3291519D01*
X15620000Y3112500D02*
X15620981Y3113481D01*
X16639999Y3325000D02*
X16828259D01*
X16860001Y3293259D01*
X15889999Y2902500D02*
Y3115981D01*
X11734948Y8903851D02*
X11794229Y8963131D01*
X11691198Y8903851D02*
X11734948D01*
X11691199Y8776850D02*
X11900000D01*
X16290315Y9204201D02*
X16512814D01*
X15183528Y6753200D02*
X15569737D01*
X15637839Y6821300D01*
X15958066D01*
X16181967Y7045202D01*
X15080000Y10820000D02*
X16339999D01*
X11604060Y9764060D02*
X12688500Y10848500D01*
X11276901Y9764060D02*
X11604060D01*
X12688500Y10848500D02*
X14351500D01*
X15687215Y5722786D02*
X17961121D01*
X15510001Y5900000D02*
Y6290828D01*
Y5900000D02*
X15687215Y5722786D01*
X15301628Y6499199D02*
X15510001Y6290828D01*
X14920399Y10860400D02*
X16389600D01*
X14930000Y10670000D02*
X15080000Y10820000D01*
X15183528Y6499199D02*
X15301628D01*
X15183528D02*
Y6626200D01*
X15183528Y6626200D01*
X15650638Y5950210D02*
Y6553309D01*
X15723529Y6626200D01*
X15773529D01*
X12020000Y6331205D02*
Y6982407D01*
X11308399Y5619604D02*
X12020000Y6331205D01*
X11510414Y5878753D02*
X11900000Y6268339D01*
Y6972700D01*
X11198145Y5951853D02*
X11526381D01*
X11689950Y7501250D02*
X11691200Y7502500D01*
X11324775Y6992854D02*
X11441921Y7110000D01*
X11310000Y6992854D02*
X11324775D01*
X11441921Y7110000D02*
X13160150D01*
X11148801Y7502500D02*
X11251209D01*
X14730000Y10670000D02*
X14920399Y10860400D01*
X15227701Y10767700D02*
X16252299D01*
X10860000Y7373854D02*
X10910000D01*
X11069836Y7214019D01*
Y6963193D02*
Y7214019D01*
X10978100Y6871458D02*
X11069836Y6963193D01*
X10865604Y6871458D02*
X10978100D01*
X10860000Y6865854D02*
X10865604Y6871458D01*
X13699045Y8849646D02*
X13791058D01*
X13828358Y8812346D01*
Y8799646D02*
Y8812346D01*
X13649046Y8799647D02*
X13699045Y8849646D01*
X13649046Y8769647D02*
Y8799647D01*
X11430399Y7846550D02*
X11647450Y7629500D01*
X12789188Y10767700D02*
X14032298D01*
X11470799Y8187150D02*
X11647450Y8010499D01*
X12788621Y10710000D02*
X13862820D01*
X11470799Y9392178D02*
X12788621Y10710000D01*
X11470799Y8187150D02*
Y9392178D01*
X11430399Y9408912D02*
X12789188Y10767700D01*
X11430399Y7846550D02*
Y9408912D01*
X12815344Y9468583D02*
X12815945Y9467982D01*
X12542785Y9468583D02*
X12815344D01*
X15773528Y5991200D02*
X15941542Y5823186D01*
X15773528Y5991200D02*
X15773528Y5991200D01*
X10620000Y9210000D02*
X11091360Y9681360D01*
X12742420Y10808100D02*
X14191901D01*
X11615680Y9681360D02*
X12742420Y10808100D01*
X11091360Y9681360D02*
X11615680D01*
X10620000Y7744268D02*
Y9210000D01*
X11550400Y8234549D02*
Y8552801D01*
X13160150Y7110000D02*
X13221164Y7048985D01*
X13218465Y7046286D02*
X13221164Y7048985D01*
X13218465Y6968185D02*
Y7046286D01*
X16512814Y9204201D02*
X16600916Y9292301D01*
X16796529D01*
X15773529Y6499200D02*
X15780148Y6505820D01*
X15773529Y6372200D02*
Y6499200D01*
X15780148Y6505820D02*
X15850587D01*
X15773528Y6245200D02*
X15823528D01*
X15773528Y6372200D02*
X15773529Y6372200D01*
X14396326Y8243732D02*
X14408357Y8231699D01*
X14408347D02*
Y8243732D01*
Y8537235D01*
X15773528Y5991200D02*
Y6118200D01*
X15694615Y8647502D02*
X15731969D01*
X15694615Y8612848D02*
Y8647502D01*
Y8612848D02*
Y8647502D01*
Y8612848D02*
Y8647502D01*
Y8793551D01*
X15705264Y8796702D02*
X16010768D01*
X15694615Y8793551D02*
X15705264Y8804201D01*
X15681969D02*
X15705264D01*
X14408347Y8537235D02*
X14408359Y8537248D01*
X15697469Y8415702D02*
X16010768D01*
X15471968Y8610201D02*
X15471968Y8610202D01*
X15651968Y8096201D02*
Y8410201D01*
X15471968D02*
X15651968D01*
X15471968Y8610202D02*
X15694667D01*
X15691968D02*
X15694615Y8612848D01*
X15694667Y8610202D02*
X15731969Y8647502D01*
X15694667Y8610202D02*
X15731969Y8647502D01*
X16231969Y6885611D02*
Y7045202D01*
X16168556Y6822200D02*
X16231969Y6885611D01*
X16281967Y6703639D02*
Y7045202D01*
X16626067Y6822200D02*
X16749068Y6945201D01*
X16399066Y6822200D02*
X16626067D01*
X15823528Y6245200D02*
X16281967Y6703639D01*
X15850587Y6505820D02*
X16166966Y6822200D01*
X15650638Y5950210D02*
X15837662Y5763186D01*
X16010768Y8669701D02*
X16054518D01*
X16065366Y8904737D02*
Y9004200D01*
X16089368Y8980198D01*
X16471967Y7936202D02*
X16671968D01*
X16431967Y7836202D02*
Y7866202D01*
Y7896202D01*
X16641966Y8266201D02*
X16671967Y8236201D01*
X16641966Y8266201D02*
Y8360908D01*
X16281969Y7490201D02*
Y7686203D01*
X16231969Y7490201D02*
Y7736202D01*
X16281969Y7686203D02*
X16431967Y7836202D01*
X16131969Y7836201D02*
X16231969Y7736202D01*
X16431967Y7896202D02*
X16471967Y7936202D01*
X16500314Y8816520D02*
Y9004200D01*
X16521666D02*
X16718246D01*
X16089368Y8980198D02*
X16239017D01*
X16520134Y8796701D02*
X16553168D01*
X16500314Y8816520D02*
X16520134Y8796701D01*
X16331967Y7045202D02*
X16381967D01*
X15951967Y8066202D02*
Y8096202D01*
X15994669Y8023501D02*
X16134669D01*
X15951967Y8066202D02*
X15994669Y8023501D01*
X16131969Y7836201D02*
Y7866201D01*
Y7956200D01*
X16134669Y7958900D01*
Y8023501D01*
X16749068Y6945201D02*
X16779066D01*
X16971101Y7490201D02*
X17015102Y7534202D01*
X16125117Y8740302D02*
Y8844983D01*
X16054518Y8669701D02*
X16125117Y8740302D01*
X16065366Y8904737D02*
X16125117Y8844983D01*
X16587173Y8415701D02*
X16641966Y8360908D01*
X16553168Y8415701D02*
X16587173D01*
X16381967Y7045202D02*
X16440208D01*
X16452908Y7057902D01*
X16527827D01*
X16531009Y7061084D01*
X13460661Y7649999D02*
X13461461Y7649200D01*
X14011163Y5426382D02*
Y5633383D01*
X13181165Y6930885D02*
X13218465Y6968185D01*
X10810000Y7246854D02*
X10860000D01*
X11004368Y7655818D02*
X11105050Y7756500D01*
X11004368Y7595222D02*
Y7655818D01*
X10911646Y7502500D02*
X11004368Y7595222D01*
X10861646Y7502500D02*
X10911646D01*
X10860000Y7500854D02*
X10861646Y7502500D01*
X10810000Y5941704D02*
X10860000D01*
X10429000Y6322704D02*
X10810000Y5941704D01*
X10270000Y6322704D02*
X10429000D01*
X10923500Y5938204D02*
X11168205D01*
X11190000Y5959999D01*
X10920000Y5941704D02*
X10923500Y5938204D01*
X10860000Y5941704D02*
X10920000D01*
X11190000Y5959999D02*
X11198145Y5951853D01*
X10984838Y6995151D02*
X10987136Y6997449D01*
X10862297Y6995151D02*
X10984838D01*
X10860000Y6992854D02*
X10862297Y6995151D01*
X10617300Y6945745D02*
X10620000Y6943044D01*
X10617300Y7014255D02*
X10620000Y7016956D01*
Y7480611D01*
X10617300Y6945745D02*
Y7014255D01*
X10515100Y5619604D02*
X11308399D01*
X10320000Y5814704D02*
X10515100Y5619604D01*
X10270000Y5814704D02*
X10320000D01*
X10618346Y7482265D02*
Y7742614D01*
Y7482265D02*
X10620000Y7480611D01*
X10618346Y7742614D02*
X10620000Y7744268D01*
X11550400Y8234549D02*
X11647450Y8137500D01*
X11550400Y8552801D02*
X11647450Y8649850D01*
X11158199Y9564844D02*
X11275156D01*
X11101049Y5878753D02*
X11510414D01*
X10910000Y5687704D02*
X11101049Y5878753D01*
X10860000Y5687704D02*
X10910000D01*
X14351500Y10848500D02*
X14530000Y10670001D01*
X11647450Y7629500D02*
X11691200D01*
X11647450Y8010499D02*
X11691200D01*
X10270000Y7500854D02*
Y7627854D01*
Y5941704D02*
Y6195704D01*
X10286250Y8395850D02*
X10323258D01*
X13862820Y10710000D02*
X13902821Y10670000D01*
X13930000D01*
X11647450Y8137500D02*
X11691200D01*
X11647450Y8649850D02*
X11691200D01*
X11146626Y8139675D02*
X11148800Y8137500D01*
X10830825Y8139675D02*
X11146626D01*
X10828650Y8141850D02*
X10830825Y8139675D01*
X11146626Y8012675D02*
X11148800Y8010500D01*
X10830826Y8012675D02*
X11146626D01*
X10828651Y8014850D02*
X10830826Y8012675D01*
X11146625Y7885675D02*
X11148800Y7883500D01*
X10830826Y7885675D02*
X11146625D01*
X10828651Y7887850D02*
X10830826Y7885675D01*
X10860000Y5814704D02*
Y5941704D01*
X14191901Y10808100D02*
X14330000Y10670000D01*
X14032298Y10767700D02*
X14130000Y10669999D01*
X16252299Y10767700D02*
X16330000Y10690000D01*
X15130000Y10670000D02*
X15227701Y10767700D01*
X14311665Y6392082D02*
X14479285D01*
X14217163Y5152841D02*
Y5420383D01*
Y5152841D02*
X14220381Y5149623D01*
X13549023Y5029276D02*
X13549652Y5028647D01*
X13977223D01*
X13978844Y5027027D01*
X12919371Y5030282D02*
X12919373Y5030280D01*
X13099998D01*
X13721259Y5118663D02*
X13722264Y5117659D01*
X13802348Y4830225D02*
X13975587D01*
X13784389Y4848185D02*
X13802348Y4830225D01*
X13784389Y4848185D02*
Y4857019D01*
X13758842Y4882566D02*
X13784389Y4857019D01*
X13758842Y4882566D02*
Y4916971D01*
X13975587Y4830225D02*
X13978842Y4826971D01*
X13956090Y5118666D02*
X14150800D01*
X13955083Y5117659D02*
X13956090Y5118666D01*
X12860001Y5120283D02*
X12861621Y5118663D01*
X13106400Y5030279D02*
X13273592D01*
X13274596Y5029276D02*
X13549023D01*
X13273592Y5030279D02*
X13274596Y5029276D01*
X14011163Y5426382D02*
X14017162Y5420383D01*
X14011163Y5633383D02*
X14057664Y5679883D01*
Y5849683D01*
X12985918Y6328383D02*
X13026466D01*
X13058965Y6295884D01*
X13091464Y6263384D02*
X13128664D01*
X13058965Y6295884D02*
X13091464Y6263384D01*
X12841164Y6328383D02*
X12985918Y6328383D01*
D47*
X2512500Y10195671D02*
Y10612500D01*
X2145000Y9828171D02*
X2512500Y10195671D01*
Y10612500D02*
X3100000Y11200000D01*
X7875000D01*
X1720000Y7330671D02*
X2145000Y7755672D01*
X1700000Y5850000D02*
X1720000Y7330671D01*
D48*
X2145000Y7755672D02*
Y9828171D01*
X19133603Y7450000D02*
X19293604Y7610000D01*
X19589999D01*
X8091910Y1158090D02*
X8100000Y1150000D01*
X8091910Y1158090D02*
Y1375000D01*
X8365997D01*
X9922219Y1287737D02*
Y1387737D01*
X10828651Y8395850D02*
X11025000D01*
X7775000Y4729289D02*
Y8825000D01*
X12860001Y4830224D02*
X12860002Y4830227D01*
X13100003D01*
X12860001Y4830224D02*
Y4920251D01*
X12840376Y4675000D02*
X12860001Y4694624D01*
Y4830224D01*
X15980000Y10375000D02*
X16175000D01*
X16380000Y10061173D02*
Y10170000D01*
X16175000Y10375000D02*
X16380000Y10170000D01*
X14375961Y10315962D02*
X14420000Y10360000D01*
X14375961Y10055000D02*
Y10315962D01*
X16141969Y8226201D02*
Y8364702D01*
X14565002Y10305001D02*
X14730000Y10469999D01*
X14565002Y10109690D02*
Y10305001D01*
X14470963Y10015650D02*
X14565002Y10109690D01*
X14295000Y9960000D02*
X14336612D01*
X14127299Y10127700D02*
X14295000Y9960000D01*
X13551434Y10127700D02*
X14127299D01*
X13519444Y10095711D02*
X13551434Y10127700D01*
X13519444Y9919182D02*
Y10095711D01*
X16422128Y8206363D02*
Y8510542D01*
X11694773Y8526425D02*
X11698347Y8522851D01*
X13580000Y5633383D02*
X13778465D01*
X13504884Y9050000D02*
X13600000D01*
X13392445Y9162440D02*
Y9376781D01*
Y9162440D02*
X13504884Y9050000D01*
X13359946Y10126142D02*
X13392445Y10093642D01*
Y9919182D02*
Y10093642D01*
X13359946Y10126142D02*
Y10134260D01*
X15330000Y10340000D02*
X15592300D01*
X15330000D02*
Y10470000D01*
X15685959Y9814684D02*
Y10246342D01*
X15592300Y10340000D02*
X15685959Y10246342D01*
X14859999Y10340000D02*
X15330000D01*
X14730000Y10469999D02*
X14859999Y10340000D01*
X14893124Y9437482D02*
Y10306874D01*
X14859999Y10340000D02*
X14893124Y10306874D01*
X15626276Y9755000D02*
X15685959Y9814684D01*
X15564999Y9755000D02*
X15626276D01*
X15560001Y9750000D02*
X15564999Y9755000D01*
X14697456Y9437482D02*
X14893124D01*
X14564526Y8448053D02*
X14653708Y8537235D01*
X14697458Y7799999D02*
X14722458Y7774999D01*
X14749998D01*
X14697458Y7799999D02*
Y7991200D01*
Y7749999D02*
X14722458Y7774999D01*
X14697458Y7666624D02*
Y7749999D01*
X14564526Y8080382D02*
X14653708Y7991200D01*
X14564526Y8080382D02*
Y8448053D01*
X14653708Y7991200D02*
X14697458D01*
X15088860Y4003860D02*
X15110001Y4025000D01*
X15088860Y2436139D02*
Y4003860D01*
X14630363Y7599529D02*
X14697458Y7666624D01*
X14548251Y7599529D02*
X14630363D01*
X14481157Y7532434D02*
X14548251Y7599529D01*
X14481157Y7450323D02*
Y7532434D01*
X14475417Y7444583D02*
X14481157Y7450323D01*
X14031801Y6875000D02*
X14375000D01*
X13691859Y8326967D02*
Y8502898D01*
X13930666Y6773864D02*
X14031801Y6875000D01*
X13930666Y6392084D02*
Y6773864D01*
X13430000Y5240000D02*
X14039999D01*
X13200000Y5430000D02*
X13205000Y5425000D01*
X13200000Y5430000D02*
Y5471871D01*
X13205000Y5425000D02*
X13225000D01*
X13026164Y5575884D02*
X13095987D01*
X13021164Y5580884D02*
X13026164Y5575884D01*
X13095987D02*
X13200000Y5471871D01*
X13225000Y5375000D02*
Y5425000D01*
X13245000D02*
X13430000Y5240000D01*
X8481955Y2375001D02*
X8511955D01*
X8456955Y2350001D02*
X8481955Y2375001D01*
X8456955Y2245073D02*
Y2350001D01*
X8274998Y2270002D02*
Y2300001D01*
X8299998Y2245001D02*
X8366881D01*
X8251199Y2246202D02*
X8274998Y2270002D01*
X9745967Y2102936D02*
X9748467Y2105436D01*
X9359410Y2103888D02*
X9437580D01*
X9356909Y2106388D02*
X9359410Y2103888D01*
X9330159Y2106388D02*
X9356909D01*
X9252261Y2028489D02*
X9330159Y2106388D01*
X9559403Y2102936D02*
X9745967D01*
X9441467Y2100000D02*
X9556467D01*
X9437580Y2103888D02*
X9441467Y2100000D01*
X9556467D02*
X9559403Y2102936D01*
X9421467Y1387737D02*
X9426467Y1382737D01*
X9360191Y1387737D02*
X9421467D01*
X8420000Y2208119D02*
X8456955Y2245073D01*
X8420000Y2200000D02*
Y2208119D01*
X8411882Y2200000D02*
X8420000D01*
X8274998Y2270002D02*
X8299998Y2245001D01*
X8366881D02*
X8411882Y2200000D01*
X8251199Y2088932D02*
Y2246202D01*
X8227399Y2082002D02*
X8244270D01*
X8251199Y2088932D01*
X18700000Y1832727D02*
Y7575000D01*
X19164999Y8040000D01*
X19414999D01*
X18825000Y4050000D02*
Y6105710D01*
X18904289Y6184999D01*
X19300000Y4322533D02*
X19345308Y4277225D01*
X19300000Y4322533D02*
Y4650000D01*
X19150000Y4475000D02*
Y4780710D01*
X19686501Y3458089D02*
X19737440D01*
X19774648Y3495297D02*
Y3684741D01*
X19737440Y3458089D02*
X19774648Y3495297D01*
X19682214Y3453803D02*
X19686501Y3458089D01*
X19519998Y2480002D02*
X19710001Y2289999D01*
Y2244281D02*
Y2289999D01*
X19395261Y2480002D02*
X19519998D01*
X19790359Y2425361D02*
X20577011D01*
X20688371Y2314000D02*
X20700000D01*
X20577011Y2425361D02*
X20688371Y2314000D01*
X19697832Y2332831D02*
X19790359Y2425361D01*
X14808723Y7533724D02*
X14900000Y7625000D01*
X15229802Y7591808D02*
Y7625000D01*
X14900000D02*
X15229802D01*
Y7749999D01*
X15224062Y7480741D02*
Y7586067D01*
X15229802Y7591808D01*
X15224062Y7480741D02*
X15229802Y7475001D01*
X6992997Y2200000D02*
X7820711D01*
X7850000Y1975000D02*
Y2170710D01*
X7820711Y2200000D02*
X7850000Y2170710D01*
X19949995Y3860090D02*
X19985352D01*
X19869644Y3779738D02*
X19949995Y3860090D01*
X19855000Y3779738D02*
X19869644D01*
X19985352Y3860090D02*
X20260661Y4135398D01*
X20353253D01*
X19774648Y3684741D02*
X19855000Y3765094D01*
Y3779738D01*
X19495264Y4194017D02*
X19745000Y3944281D01*
X19760001D01*
X19495264Y4194017D02*
Y4199592D01*
X19255000Y3550092D02*
X19446291Y3358802D01*
X19255000Y3550092D02*
Y3554737D01*
X19446291Y3358802D02*
X19517671D01*
X19160002Y3785754D02*
X19287910Y3913662D01*
X19160002Y3719283D02*
Y3785754D01*
X19287910Y4061786D02*
X19345308Y4119183D01*
X19287910Y3913662D02*
Y4061786D01*
X19572897Y4277225D02*
X19767632D01*
X19495264Y4199592D02*
X19572897Y4277225D01*
X19345308Y4142041D02*
Y4277225D01*
X20785001Y8040000D02*
X20960001D01*
X20171463Y3348762D02*
X20237579Y3414878D01*
X19629538Y3348762D02*
X20171463D01*
X19606773Y3371525D02*
X19629538Y3348762D01*
X19530396Y3371525D02*
X19606773D01*
X19517671Y3358802D02*
X19530396Y3371525D01*
X20237579Y3414878D02*
X20310210D01*
X20700000Y3804669D02*
Y3838000D01*
X20310210Y3414878D02*
X20700000Y3804669D01*
X20050000Y1825000D02*
Y1829869D01*
X19805002Y2074867D02*
X20050000Y1829869D01*
X19805002Y2074867D02*
Y2079737D01*
X19770262Y2020805D02*
X19805002Y2055545D01*
Y2079737D01*
X19770262Y1704999D02*
Y2020805D01*
X19182726Y1350000D02*
X20031444D01*
X18700000Y1832727D02*
X19182726Y1350000D01*
X19179999Y1754738D02*
X19359738Y1575000D01*
X19494339D01*
X19497063Y1577724D02*
X19573441D01*
X19618440Y1622723D01*
X19494339Y1575000D02*
X19497063Y1577724D01*
X19618440Y1622723D02*
X19694821D01*
X20185535Y1599958D02*
X20224319Y1638745D01*
X19717586Y1599958D02*
X20185535D01*
X19694821Y1622723D02*
X19717586Y1599958D01*
X20224319Y1638745D02*
X20532745D01*
X20700000Y1806000D01*
X19214249Y2385002D02*
X19230719D01*
X19062500Y2233254D02*
X19214249Y2385002D01*
X19062500Y1941782D02*
Y2233254D01*
Y1941782D02*
X19085001Y1919282D01*
X19047948Y2455386D02*
X19083302D01*
X19154013Y2384675D01*
X19230392D01*
X19230719Y2385002D01*
X18971971Y2531362D02*
X19047948Y2455386D01*
X19039999Y5239999D02*
X19589999D01*
X18971971Y5171971D02*
X19039999Y5239999D01*
X18971971Y2531362D02*
Y5171971D01*
X17180000Y3421137D02*
X17601140Y2999997D01*
X18150002D01*
X14777997Y4325000D02*
X17300000D01*
X17424719Y4200281D01*
X14348524Y3895526D02*
X14777997Y4325000D01*
X12622785Y10082199D02*
X12702785Y10162199D01*
X12811359D01*
X15344669Y10074999D02*
Y10075000D01*
X15025000Y10100000D02*
X15319669D01*
X15344669Y10075000D01*
X12907300Y4037300D02*
X12925000Y4019600D01*
X2260000Y8441058D02*
X2275000Y8456058D01*
Y8475000D01*
X2260000Y6899289D02*
Y8441058D01*
Y6899289D02*
X2289290Y6870000D01*
X2425000D01*
X14825000Y7294999D02*
X14830000Y7300000D01*
X14825000Y4875000D02*
Y7294999D01*
X15025000Y7329289D02*
Y7475001D01*
X14830000Y7300000D02*
X14995711D01*
X15025000Y7329289D01*
X14006458Y7349200D02*
X14055658Y7300000D01*
X14830000D01*
X13976459Y7349200D02*
X14006458D01*
X12960651Y4375000D02*
X14325000D01*
X14825000Y4875000D01*
X11875000Y2650000D02*
Y3289350D01*
X12895000Y4309350D01*
X12950650Y4365000D02*
X12960651Y4375000D01*
X13096706Y8886171D02*
X13102444Y8880431D01*
X13038586Y8886171D02*
X13096706D01*
X13024757Y8900000D02*
X13038586Y8886171D01*
X12979289Y8900000D02*
X13024757D01*
X12950000Y8870710D02*
X12979289Y8900000D01*
X12950000Y8350000D02*
Y8870710D01*
X14925000Y6000000D02*
X14933118D01*
X14941917Y5991200D01*
X15183528D01*
X16553168Y8542701D02*
X16751968D01*
X16775000Y8519669D01*
X9300000Y5875000D02*
X9325000Y5900000D01*
X9475000D01*
X9300000Y5860000D02*
Y5875000D01*
X12991164Y6640883D02*
Y6670883D01*
Y6640883D02*
X13157047Y6475000D01*
X13300000D01*
X10049999Y1125000D02*
X10616874Y1691875D01*
Y2016874D02*
X10658748Y2058748D01*
X10616874Y1691875D02*
Y2016874D01*
X12400000Y5300000D02*
X12400000Y5300000D01*
X12275000Y5300000D02*
X12400000D01*
X12275000Y6083081D02*
X12449304D01*
X12466224Y6100001D01*
X13561162Y6850885D02*
X13617300D01*
X13536163Y6875885D02*
X13561162Y6850885D01*
X13506163Y6875885D02*
X13536163D01*
X13481163Y6900885D02*
X13506163Y6875885D01*
X16401965Y8186201D02*
X16422128Y8206363D01*
Y8510542D02*
X16451418Y8539832D01*
X16550298D01*
X16553168Y8542701D01*
X13927364Y7175000D02*
X14500000D01*
X13753162Y7349200D02*
X13927364Y7175000D01*
X13580000Y5633383D02*
Y5645886D01*
X11698347Y8522851D02*
X11900000D01*
X13326164Y6373382D02*
X13331165Y6378382D01*
X13326164Y6336283D02*
Y6373382D01*
X13331165Y6378382D02*
Y6451163D01*
X12418858Y7754865D02*
X12984865D01*
X12170241Y8003482D02*
X12418858Y7754865D01*
X12170241Y8003482D02*
Y8029878D01*
X11935618Y8264500D02*
X12170241Y8029878D01*
X17075000Y8175000D02*
X17080000D01*
X17225000Y8030000D01*
Y8000000D02*
Y8030000D01*
X13778465Y5633383D02*
X13825000D01*
X13930664Y5739047D01*
Y5849684D01*
X13765073Y5572956D02*
Y5619990D01*
X13778465Y5633383D01*
X13622118Y5430000D02*
X13765073Y5572956D01*
X13550000Y5430000D02*
X13622118D01*
X13525000Y5405000D02*
X13550000Y5430000D01*
X13525000Y5375000D02*
Y5405000D01*
X15559999Y9655001D02*
X15584999D01*
X15652470Y9587528D02*
X15694260D01*
X15700000Y9581788D01*
X15584999Y9655001D02*
X15652470Y9587528D01*
X16120000Y9500000D02*
X16150000D01*
X16024982Y9404981D02*
X16120000Y9500000D01*
X15831969Y9404981D02*
X16024982D01*
X15826968Y9655001D02*
X15831969Y9650001D01*
Y9404981D02*
Y9650001D01*
X15229802Y7749999D02*
X15254802Y7774999D01*
X16730746Y9204201D02*
X16834500Y9100447D01*
X17100000Y7100000D02*
Y7261910D01*
X16816367Y7207899D02*
X16907326D01*
X17001900Y7113325D02*
X17086674D01*
X16907326Y7207899D02*
X17001900Y7113325D01*
X16313217Y9439553D02*
X16369553D01*
X16077866Y9204201D02*
X16313217Y9439553D01*
X16325000Y8186201D02*
X16401965D01*
X11714929Y9466064D02*
X11767449Y9518584D01*
X11714929Y9430143D02*
Y9466064D01*
X13460661Y7350000D02*
X13700000D01*
X10828651Y8776850D02*
Y8880870D01*
Y8268850D02*
Y8395850D01*
X11148801Y7268067D02*
Y7375499D01*
X12000000Y4740000D02*
X12189497D01*
X7455000Y1545000D02*
Y1625000D01*
Y1545000D02*
X7625000Y1375000D01*
X8091910D01*
X8365997D02*
X8557721Y1566723D01*
X10658748Y2058748D02*
X11283748D01*
X8667721Y1566723D02*
X9109444Y1125000D01*
X10049999D01*
X8587721Y1566723D02*
X8612721Y1591724D01*
X8557721Y1566723D02*
X8587721D01*
X7430000Y1650000D02*
X7455000Y1625000D01*
X7400000Y1650000D02*
X7430000D01*
X8612721Y1865722D02*
X8625000Y1878002D01*
X11283748Y2058748D02*
X11875000Y2650000D01*
X7400000Y1949999D02*
X7850000D01*
X7225983D02*
X7400000D01*
X6800000Y2007003D02*
X6992997Y2200000D01*
X6800000Y1875000D02*
Y2007003D01*
Y1875000D02*
X6900000Y1775000D01*
X7050984D01*
X7225983Y1949999D01*
X6985000Y1930000D02*
X7137003Y2082003D01*
X7684999D01*
X7680100Y1959901D02*
X7684999Y1955001D01*
X7636350Y1959901D02*
X7680100D01*
X7455000Y1749253D02*
X7533749Y1828002D01*
X7455000Y1675000D02*
Y1749253D01*
X7430000Y1650000D02*
X7455000Y1675000D01*
X7533749Y1828002D02*
X7684999D01*
X14348524Y3838278D02*
Y3895526D01*
X17424719Y4100281D02*
Y4200281D01*
Y4100281D02*
X17439452Y4085548D01*
X10861149Y6586780D02*
X10999369Y6725000D01*
X10861149Y6450853D02*
Y6586780D01*
X11420000Y6055000D02*
X11434260D01*
X11444260Y6065000D02*
Y6469260D01*
X11450000Y6475000D01*
X11434260Y6055000D02*
X11444260Y6065000D01*
X10860000Y6449704D02*
X10861149Y6450853D01*
X19179289Y4809999D02*
X19589999D01*
X19150000Y4780710D02*
X19179289Y4809999D01*
X6884000Y8243818D02*
Y8899000D01*
X6910000Y8925000D01*
Y9433000D02*
X7392000D01*
X3024540Y10425000D02*
X5125000D01*
X2925000Y10500000D02*
X2949539D01*
X5125000Y10425000D02*
X5650000Y10950000D01*
X2949539Y10500000D02*
X3024540Y10425000D01*
X8475000Y10458000D02*
Y10600000D01*
X7875000Y11200000D02*
X8475000Y10600000D01*
X7800000Y10950000D02*
X8050000Y10700000D01*
X7800000Y10950000D02*
X7800000D01*
X8050000Y9825000D02*
Y10700000D01*
X7775000Y8825000D02*
X8050000Y9099999D01*
Y9300000D01*
X8117887Y9442000D02*
X8475000D01*
X8108888Y9433000D02*
X8117887Y9442000D01*
X7392000Y9433000D02*
X8108888D01*
X5650000Y10950000D02*
X6612365D01*
X7775000Y4729289D02*
X7804290Y4700000D01*
X8158000D01*
X8408000Y4950000D01*
X4822500Y10802500D02*
X4825000Y10800000D01*
X18875000Y8325000D02*
X19900000D01*
X20075000Y8150000D01*
Y7925000D02*
Y8150000D01*
X19860001Y7710000D02*
X20075000Y7925000D01*
X19689999Y7710000D02*
X19860001D01*
X19589999Y7610000D02*
X19689999Y7710000D01*
X12925000Y2247700D02*
X13255727Y1916974D01*
X12925000Y2247700D02*
Y4019600D01*
X12907300Y4037300D02*
X13120000Y4250000D01*
X14348524Y3580867D02*
Y3838278D01*
X14232085Y3954718D02*
X14348524Y3838278D01*
X14232085Y3954718D02*
Y3974624D01*
X14226707Y3980000D02*
X14232085Y3974624D01*
X14206802Y3980000D02*
X14226707D01*
X16750000Y3624777D02*
Y3854314D01*
X16720711Y3883604D02*
X16750000Y3854314D01*
X16598315Y3883604D02*
X16720711D01*
X16489934Y1660000D02*
X16630025Y1519911D01*
X16470029Y1660000D02*
X16489934D01*
X18904289Y6184999D02*
X19414999D01*
X18375000Y7825000D02*
X18875000Y8325000D01*
X18375000Y4853511D02*
Y7825000D01*
X17146266Y3624777D02*
X18375000Y4853511D01*
X19050000Y6614999D02*
X19414999D01*
X20785001Y8040000D02*
X20960001D01*
X8612721Y1591724D02*
Y1621723D01*
Y1591724D02*
X8637721Y1566723D01*
X8667721D01*
X9686467Y1287737D02*
X10031810D01*
X9544050Y1329443D02*
Y1421430D01*
X9426467Y1477737D02*
X9451467D01*
X9466067Y1463137D01*
X9502343D01*
X9544050Y1421430D01*
Y1329443D02*
X9585757Y1287737D01*
X9686467D01*
X10216468Y1472395D02*
Y1597395D01*
X10031810Y1287737D02*
X10216468Y1472395D01*
X8612721Y1621723D02*
Y1865722D01*
X9000000Y7300000D02*
Y7550000D01*
X7392000Y8243818D02*
Y9433000D01*
Y4950000D02*
Y5775000D01*
X9000000Y7300000D02*
Y7330000D01*
X8875000Y7425000D02*
X8945000Y7355000D01*
X8975000D01*
X8408000Y7425000D02*
X8875000D01*
X8408000Y5775000D02*
X8493000Y5860000D01*
X9020000D01*
X8514182Y8350000D02*
X9000000D01*
X6884000Y7425000D02*
Y8243818D01*
X7392000Y7425000D02*
Y8243818D01*
X6884000Y6600000D02*
Y7425000D01*
X7392000Y6600000D02*
Y7425000D01*
X8408000Y5775000D02*
Y6600000D01*
X7392000Y5775000D02*
Y6600000D01*
X8408000Y8243818D02*
X8514182Y8350000D01*
X16047018Y8535201D02*
X16073470D01*
X14420000Y10360000D02*
X14530000Y10470000D01*
X16073470Y8535201D02*
X16152419Y8456253D01*
Y8375151D02*
Y8456253D01*
X14039999Y10360000D02*
X14420000D01*
X16141969Y8364702D02*
X16152419Y8375151D01*
X16121970Y8256201D02*
X16131969Y8246201D01*
Y8216201D02*
X16141969Y8226201D01*
X16131969Y8216201D02*
Y8246201D01*
X15856201Y8296201D02*
X16051968D01*
X16091969Y8256201D01*
X16121970D01*
X13930000Y10469999D02*
X14039999Y10360000D01*
X13572359Y7855979D02*
X13609169Y7819169D01*
X13564859Y7960498D02*
X13572359Y7952998D01*
Y7855979D02*
Y7952998D01*
X12984865Y7754865D02*
X12989999Y7760000D01*
X13255727Y1459999D02*
Y1916974D01*
X11148799Y8649849D02*
X11148800Y8649850D01*
X11148799Y8522852D02*
Y8649849D01*
X11148798Y8522851D02*
X11148799Y8522852D01*
X11148797Y8522850D02*
X11148798Y8522851D01*
X10980000Y8522850D02*
Y8626869D01*
X10828652Y8522850D02*
X10980000D01*
X11148797D01*
X11691200Y8264500D02*
X11935618D01*
X10828651Y8522849D02*
X10828652Y8522850D01*
X10305232Y7887850D02*
X10312161Y7880921D01*
X10286250Y7887850D02*
X10305232D01*
X10312161Y7758184D02*
X10317901Y7752444D01*
X10312161Y7758184D02*
Y7880921D01*
X10860000Y7627854D02*
Y7743834D01*
X10979018Y7141067D02*
X10987136D01*
X10959718Y7121767D02*
X10979018Y7141067D01*
X10861913Y7121767D02*
X10959718D01*
X10860000Y7119854D02*
X10861913Y7121767D01*
X9000000Y8350000D02*
X9000000Y8350000D01*
X8975000Y7355000D02*
X9000000Y7330000D01*
X5925000Y3451030D02*
Y3625000D01*
Y3451030D02*
X6000000Y3376030D01*
Y3200000D02*
Y3376030D01*
X9300000Y8350000D02*
X9300000Y8350000D01*
X9300000Y8100000D02*
Y8350000D01*
X9299999Y8100000D02*
X9300000Y8100000D01*
X6655000Y3676697D02*
X6750000Y3581697D01*
X5434646Y3019354D02*
X6750000D01*
X7250000D01*
X6750000D02*
Y3581697D01*
X5400000Y3054000D02*
X5434646Y3019354D01*
X7250000D02*
X7315000Y3084354D01*
Y3250000D01*
X6655000Y3676697D02*
Y3751697D01*
D49*
X15260001Y8662508D02*
Y9263407D01*
X15118208Y8520716D02*
X15260001Y8662508D01*
X15118208Y8323099D02*
Y8520716D01*
X9282663Y1465264D02*
X9360191Y1387737D01*
X9252261Y1748703D02*
Y2028489D01*
X9282663Y1465264D02*
Y1718301D01*
X9252261Y1748703D02*
X9282663Y1718301D01*
X15493033Y7866767D02*
Y8247180D01*
Y7866767D02*
X15554800Y7804999D01*
X15491431Y8247180D02*
X15493033Y8248783D01*
X15198090Y8247180D02*
X15491431D01*
X15196107Y8245198D02*
X15198090Y8247180D01*
X15554800Y7379801D02*
Y7804999D01*
X15325000Y7150000D02*
X15554800Y7379801D01*
X15250000Y2248431D02*
Y4125000D01*
X15226569Y2225000D02*
X15250000Y2248431D01*
X15145000Y4230000D02*
X15250000Y4125000D01*
X16281058Y3883604D02*
X16398260D01*
X16257626Y3642218D02*
Y3860172D01*
X16281058Y3883604D01*
X16100000Y6163229D02*
X16125000Y6138229D01*
X16100000Y6163229D02*
Y6265634D01*
X16125000Y6025000D02*
Y6138229D01*
X15822089Y5500000D02*
X16075000D01*
X15539999Y5540000D02*
X15782088D01*
X15822089Y5500000D01*
X15075000Y5075000D02*
X15539999Y5540000D01*
X15050000Y4230000D02*
X15145000D01*
X14473343Y2225000D02*
X15226569D01*
X14480000Y1480000D02*
Y2218343D01*
X12700000Y5300000D02*
X12818802D01*
X12868802Y5250000D02*
X12879626D01*
X12818802Y5300000D02*
X12868802Y5250000D01*
X12872049Y5257577D02*
X12879626Y5250000D01*
X12872049Y5257577D02*
Y5400000D01*
X12700000Y5300000D02*
X12700000Y5300000D01*
X12786165Y5485884D02*
X12872049Y5400000D01*
X17688219Y7125000D02*
Y7135824D01*
X17708218Y7166293D02*
X17733618Y7191694D01*
X17708218Y7155824D02*
Y7166293D01*
X17733618Y7191694D02*
Y7534202D01*
X17688219Y7135824D02*
X17708218Y7155824D01*
X17733618Y7534202D02*
Y7761382D01*
X17611967Y7534202D02*
X17733618D01*
X17525000Y7970000D02*
X17733618Y7761382D01*
X17525000Y7970000D02*
Y8000000D01*
X17250000Y6779131D02*
Y7113325D01*
X17226569Y6755699D02*
X17250000Y6779131D01*
X17055367Y6755699D02*
X17226569D01*
X12761165Y5485884D02*
X12786165D01*
X15917346Y9930042D02*
X15925000Y9937696D01*
X15917346Y9917348D02*
Y9930042D01*
X15845000Y9845000D02*
X15917346Y9917348D01*
X15820000Y9845000D02*
X15845000D01*
X15969328Y10085671D02*
X15980000Y10075000D01*
X15944328Y10085671D02*
X15969328D01*
X15925000Y10066342D02*
X15944328Y10085671D01*
X15925000Y9937696D02*
Y10066342D01*
X7775000Y1550000D02*
X7931199D01*
X7963853Y1582654D01*
X7735847Y1557653D02*
X7767346D01*
X7775000Y1550000D01*
X7684999Y1608501D02*
X7735847Y1557653D01*
X7963853Y1582654D02*
Y2288852D01*
X7975000Y2299999D01*
X7684999Y1608501D02*
Y1701001D01*
X12825000Y2225000D02*
Y4105000D01*
X9661467Y1477737D02*
X9686467D01*
X9651467Y1487737D02*
X9661467Y1477737D01*
X9651467Y1487737D02*
Y1512737D01*
X9556467Y1607737D02*
X9651467Y1512737D01*
X9556467Y1607737D02*
Y1843532D01*
X9383661Y1876388D02*
X9512787D01*
X9545643Y1843532D01*
X9556467D01*
X9590346Y1866586D02*
X9748467D01*
X9567291Y1843532D02*
X9590346Y1866586D01*
X9556467Y1843532D02*
X9567291D01*
X14473343Y2225000D02*
X14480000Y2218343D01*
X13122086Y2225000D02*
X14473343D01*
X12825000Y4105000D02*
X12989999Y4270000D01*
X16100000Y6265634D02*
X16366566Y6532200D01*
X16399066D01*
X17018381Y6755699D02*
X17055367D01*
X17006831Y6744151D02*
X17018381Y6755699D01*
X17006831Y6734083D02*
Y6744151D01*
X16934949Y6662200D02*
X17006831Y6734083D01*
X16813528Y6662200D02*
X16934949D01*
X16399066Y6532200D02*
X16431566D01*
X16561566Y6662200D01*
X16813528D01*
X15068657Y9691482D02*
X15239857D01*
X15118208Y8323099D02*
X15196107Y8245198D01*
X14311662Y5812699D02*
X14323212Y5801151D01*
X14355443D02*
X14380000Y5776594D01*
X14323212Y5801151D02*
X14355443D01*
X14380000Y5110000D02*
Y5776594D01*
X14311662Y5812699D02*
Y5849684D01*
X14080028Y1710000D02*
X14219624D01*
X14300000Y1629624D01*
Y1510000D02*
Y1629624D01*
X13719153Y3881676D02*
X13983315D01*
X14006744Y3905108D01*
Y3980000D01*
X13704274Y3866797D02*
X13719153Y3881676D01*
X13704274Y3682530D02*
Y3866797D01*
X13660001Y1616124D02*
X13746951Y1703076D01*
X13873048D01*
X13660001Y1264624D02*
Y1616124D01*
X16030000Y1474879D02*
Y1630000D01*
X16060001Y1660000D01*
X16269972D01*
D50*
X14415312Y9960000D02*
X14470963Y10015650D01*
X14336612Y9960000D02*
X14415312D01*
X12895000Y4309350D02*
X12950650Y4365000D01*
X6612365Y10950000D02*
X7800000D01*
D51*
X14464455Y4707370D02*
X14600000Y4842916D01*
X20353253Y4135398D02*
X21453000D01*
X14500000Y7175000D02*
X14600000D01*
Y4842916D02*
Y7175000D01*
X20600000Y7638227D02*
Y8335001D01*
X9300000Y7550000D02*
Y7800000D01*
Y7300000D02*
Y7550000D01*
X9000001Y7859999D02*
Y8099999D01*
D52*
X13691859Y7960498D02*
Y8013198D01*
X13550000Y6359545D02*
X13552345Y6361889D01*
Y6567200D01*
X13478662Y6640883D02*
X13552345Y6567200D01*
X13478662Y6640883D02*
Y6670883D01*
X13540887Y6144271D02*
X13552345D01*
X13530000Y6133384D02*
X13540887Y6144271D01*
X13281163Y6133384D02*
X13530000D01*
X13271162Y6123384D02*
X13281163Y6133384D01*
X13208568Y6123384D02*
X13271162D01*
X13041164Y5955979D02*
X13208568Y6123384D01*
X13041164Y5943479D02*
Y5955979D01*
X14750000Y7475001D02*
X14808723Y7533724D01*
X16046175Y880001D02*
X16132469D01*
D53*
X1700000Y4000000D02*
Y4400000D01*
X4140000Y3960000D02*
X4175000Y3925000D01*
X1675000Y3975000D02*
X4140000Y3960000D01*
X2925000Y10500000D02*
X3230000Y10805000D01*
X4260000D01*
X4175000Y3925000D02*
X4250000Y4000000D01*
X4735066D02*
X4810066Y3925000D01*
X4175000D02*
X4175000D01*
X4250000Y4000000D02*
X4735066D01*
X4262500Y10802500D02*
X4822500D01*
D54*
X13213280Y7464944D02*
Y7533456D01*
X9897962Y6569518D02*
X9930000D01*
D55*
X12466224Y6100001D02*
X12633210D01*
D56*
X12666594Y6133384D01*
X12841164D01*
D57*
X13318262Y6328382D02*
X13326164Y6336283D01*
X13281163Y6328382D02*
X13318262D01*
D58*
X9500000Y475000D02*
X9500000Y475000D01*
D59*
X10589655Y6623389D02*
Y6722700D01*
Y6623389D02*
X10647300Y6565744D01*
D60*
X14643507Y3201119D02*
X14780019Y3337630D01*
Y3362482D01*
X14609926Y3532575D02*
X14780019Y3362482D01*
X14485040Y3201119D02*
X14643507D01*
X14426445Y3259714D02*
X14485040Y3201119D01*
X14366367Y3259714D02*
X14426445D01*
X14366080Y3260000D02*
X14366367Y3259714D01*
X16950000Y853592D02*
Y1052427D01*
X17079274Y1065001D02*
X17114275Y1030000D01*
X17031700Y1070000D02*
X17036700Y1065001D01*
X16950000Y1052427D02*
X16967574Y1070000D01*
X17036700Y1065001D02*
X17079274D01*
X16967574Y1070000D02*
X17031700D01*
X16903508Y807100D02*
X16950000Y853592D01*
X16745039Y807100D02*
X16903508D01*
X16709618Y842523D02*
X16745039Y807100D01*
X16709618Y842523D02*
Y844291D01*
X16674194Y879714D02*
X16709618Y844291D01*
X16616367Y879714D02*
X16674194D01*
X16616080Y880001D02*
X16616367Y879714D01*
X16799965Y3183660D02*
X16978748D01*
X17000000Y3204913D02*
Y3417500D01*
X16978748Y3183660D02*
X17000000Y3204913D01*
X17003638Y3421137D02*
X17180000D01*
X17000000Y3417500D02*
X17003638Y3421137D01*
X16723625Y3260000D02*
X16799965Y3183660D01*
X16641805Y3260000D02*
X16723625D01*
X16331967Y7282701D02*
X16363585Y7251084D01*
X16331967Y7282701D02*
Y7490201D01*
X16363585Y7251084D02*
X16551010D01*
D61*
X1678963Y4593935D02*
D03*
X1703963Y5660000D02*
D03*
D62*
X20850000Y7289999D02*
D03*
Y5864999D02*
D03*
D63*
Y7265000D02*
D03*
D64*
X20849998Y4642500D02*
D03*
D65*
X16400000Y3545870D02*
D03*
X16374274Y1165871D02*
D03*
X14124274Y3555871D02*
D03*
X13989999Y1165870D02*
D03*
D66*
X16400000Y3041250D02*
D03*
D67*
X16543893Y750000D02*
D03*
X14293893Y3130000D02*
D03*
X16204654Y750001D02*
D03*
X13956393Y3130001D02*
D03*
X14159621Y750000D02*
D03*
D68*
X9150000Y7850000D02*
D03*
D69*
X14189275Y3093860D02*
D03*
X13994273Y3092121D02*
D03*
X13860001Y710380D02*
D03*
D70*
X16490248Y7547200D02*
D03*
D71*
X500000Y1600000D02*
D03*
X1700000Y4400000D02*
D03*
X9500000Y11000000D02*
D03*
Y500000D02*
D03*
X500000Y7050000D02*
D03*
X4500000Y500000D02*
D03*
X11000000D02*
D03*
X1700000Y5850000D02*
D03*
X500000Y500000D02*
D03*
X11800000Y11000000D02*
D03*
X500000D02*
D03*
X21500000Y500000D02*
D03*
Y11000000D02*
D03*
X12500000D02*
D03*
X11000000D02*
D03*
D72*
X20000000Y11000000D02*
D03*
X2000000Y500000D02*
D03*
X20000000D02*
D03*
D73*
X19150000Y4475000D02*
D03*
X19121982Y6184999D02*
D03*
X16550000Y2200000D02*
D03*
X10350000Y3000000D02*
D03*
X19133603Y7450000D02*
D03*
X15020000Y8760827D02*
D03*
X8100000Y1150000D02*
D03*
X8271150Y1500000D02*
D03*
X15375000Y8854201D02*
D03*
X12190380Y5825881D02*
D03*
Y5525884D02*
D03*
X9922219Y1387737D02*
D03*
X11276901Y9975000D02*
D03*
X11450000Y6675000D02*
D03*
X13700000Y6198383D02*
D03*
X16425000Y9750000D02*
D03*
X17600000Y5975000D02*
D03*
X16779066Y7600000D02*
D03*
X17125000Y8542701D02*
D03*
X6985000Y1930000D02*
D03*
Y3180000D02*
D03*
X7575000Y9150000D02*
D03*
X6000000Y1950000D02*
D03*
X7575000Y10400000D02*
D03*
X6000000Y3200000D02*
D03*
D74*
X3549999Y5329994D02*
D03*
Y9530000D02*
D03*
X5450000D02*
D03*
Y5329994D02*
D03*
D75*
X15330000Y10470000D02*
D03*
X14730000Y10469999D02*
D03*
X15130000Y10470000D02*
D03*
X14330000Y10470000D02*
D03*
X14929999D02*
D03*
X14129999Y10470000D02*
D03*
X14530000Y10470000D02*
D03*
X14730000Y10670000D02*
D03*
X14530000Y10670001D02*
D03*
X14330000Y10670000D02*
D03*
X14130000Y10669999D02*
D03*
X13930000Y10670000D02*
D03*
X14930000D02*
D03*
X15130000Y10670000D02*
D03*
X15330000Y10670000D02*
D03*
D76*
X3550000Y10250000D02*
D03*
X3000000Y5779237D02*
D03*
X4807368Y4600000D02*
D03*
X4061107D02*
D03*
X21000000Y7250000D02*
D03*
Y6950000D02*
D03*
Y7100000D02*
D03*
Y5675000D02*
D03*
Y5525000D02*
D03*
Y5825000D02*
D03*
X20700304Y4405000D02*
D03*
X20900000D02*
D03*
X21100000D02*
D03*
X14250000Y8940000D02*
D03*
X8674999Y2750000D02*
D03*
D77*
X18149277Y1500001D02*
D03*
Y2000001D02*
D03*
X18150000Y2650000D02*
D03*
X18150002Y2999997D02*
D03*
X18149277Y4130000D02*
D03*
Y3630001D02*
D03*
D78*
X6910000Y9433000D02*
D03*
Y8925000D02*
D03*
Y9941000D02*
D03*
X6884000Y5775000D02*
D03*
X7900000D02*
D03*
X7392000D02*
D03*
X6884000Y4950000D02*
D03*
X7392000D02*
D03*
X8010000D02*
D03*
X8475000Y8934000D02*
D03*
X7392000Y6600000D02*
D03*
X7900000D02*
D03*
X6884000D02*
D03*
Y8243818D02*
D03*
X7392000D02*
D03*
X7900000D02*
D03*
X7392000Y7425000D02*
D03*
X7900000D02*
D03*
X6884000D02*
D03*
X8475000Y9442000D02*
D03*
Y9950000D02*
D03*
D79*
X6910786Y10446682D02*
D03*
X8475000Y10458000D02*
D03*
D80*
X8408000Y5775000D02*
D03*
Y4950000D02*
D03*
Y6600000D02*
D03*
Y8243818D02*
D03*
Y7425000D02*
D03*
D81*
X5400000Y3054000D02*
D03*
D82*
Y2292000D02*
D03*
Y2800000D02*
D03*
Y2546000D02*
D03*
X11050000Y2725000D02*
D03*
D83*
X16399066Y6332200D02*
D03*
Y6532200D02*
D03*
D84*
X477500Y9537500D02*
D03*
X472500Y8972500D02*
D03*
X4810066Y3925000D02*
D03*
X4175000D02*
D03*
X4260000Y10805000D02*
D03*
X4825000Y10800000D02*
D03*
D85*
X2925000Y8468000D02*
D03*
Y10500000D02*
D03*
D86*
X8585000Y3250000D02*
D03*
X8035000Y4100000D02*
D03*
X7315000Y3250000D02*
D03*
X6765000Y4100000D02*
D03*
D87*
X6500000Y1421967D02*
D03*
Y3171967D02*
D03*
D88*
X20700000Y2314000D02*
D03*
Y3330000D02*
D03*
Y3838000D02*
D03*
Y1806000D02*
D03*
Y2822000D02*
D03*
D89*
X1250000Y2750000D02*
D03*
X3190000D02*
D03*
X1250000Y9250000D02*
D03*
D90*
X13930000Y10469999D02*
D03*
D91*
X11304000Y2725000D02*
D03*
D92*
X825000Y7380029D02*
D03*
X175000D02*
D03*
X817329Y6725000D02*
D03*
X175000D02*
D03*
X150000Y1950000D02*
D03*
X850000D02*
D03*
X9850000Y11300000D02*
D03*
Y10700000D02*
D03*
X9150000D02*
D03*
Y11300000D02*
D03*
X9850000Y775000D02*
D03*
X9150000D02*
D03*
X9850000Y175000D02*
D03*
X9150000D02*
D03*
X4850000Y800000D02*
D03*
X4150000D02*
D03*
X4850000Y200000D02*
D03*
X4150000D02*
D03*
D93*
X11647450Y6992854D02*
D03*
X11250000Y8400000D02*
D03*
X11025000Y8395850D02*
D03*
X9875000Y8625000D02*
D03*
X16380000Y10061173D02*
D03*
X14375961Y10055000D02*
D03*
X13525000Y9175000D02*
D03*
X13050000Y9125000D02*
D03*
X13911395Y8975000D02*
D03*
Y9175000D02*
D03*
X13600000Y9050000D02*
D03*
X13359946Y10134260D02*
D03*
X14039999Y9905010D02*
D03*
X14893124Y9437482D02*
D03*
X14653708Y8537235D02*
D03*
X15110001Y4025000D02*
D03*
X15088860Y2436139D02*
D03*
X14475417Y7444583D02*
D03*
X14250000Y7670000D02*
D03*
X14375000Y6875000D02*
D03*
X14039999Y5240000D02*
D03*
X13714839Y8319779D02*
D03*
X9556467Y2100000D02*
D03*
X8420000Y2200000D02*
D03*
X13396378Y8140026D02*
D03*
X12626255Y10350022D02*
D03*
X12073067D02*
D03*
X12800000Y8880431D02*
D03*
X12825000Y8200000D02*
D03*
X2700000Y7844591D02*
D03*
X2025000Y7825000D02*
D03*
X15493033Y8248783D02*
D03*
X15229802Y7475001D02*
D03*
X15339999Y4025000D02*
D03*
X13564859Y8319779D02*
D03*
X12622785Y10082199D02*
D03*
X15025000Y10100000D02*
D03*
X16125000Y6025000D02*
D03*
X16075000Y5500000D02*
D03*
X15075000Y5075000D02*
D03*
X2275000Y8475000D02*
D03*
X13102444Y8880431D02*
D03*
X12950000Y8350000D02*
D03*
X14461703Y4710121D02*
D03*
X14925000Y6000000D02*
D03*
Y5825000D02*
D03*
X16775000Y8519669D02*
D03*
X12100000Y3200000D02*
D03*
Y3850000D02*
D03*
X9475000Y5900000D02*
D03*
X12275000Y5300000D02*
D03*
Y6083081D02*
D03*
X13300000Y6475000D02*
D03*
X13617300Y6850885D02*
D03*
X12450581Y6353137D02*
D03*
X12661163Y6700000D02*
D03*
Y6353137D02*
D03*
X13550000Y6359545D02*
D03*
X13552345Y6144271D02*
D03*
X12879626Y5250000D02*
D03*
X11900000Y8522851D02*
D03*
X17688219Y7125000D02*
D03*
X17778375Y6025000D02*
D03*
X17075000Y8175000D02*
D03*
X17250000Y7113325D02*
D03*
X13778465Y5806188D02*
D03*
X13825000Y5633383D02*
D03*
X15700000Y9581788D02*
D03*
X15400000Y9400000D02*
D03*
X15955000Y9550000D02*
D03*
X15925000Y9937696D02*
D03*
X15325000Y7150000D02*
D03*
X16870000Y9090000D02*
D03*
X17100000Y7100000D02*
D03*
X17011617Y6362200D02*
D03*
X16380000Y9450000D02*
D03*
X16325000Y8186201D02*
D03*
X15849066Y7542200D02*
D03*
X15851010Y7290100D02*
D03*
X15849066Y7432200D02*
D03*
Y7652200D02*
D03*
X15851010Y7023784D02*
D03*
X15958066Y6703639D02*
D03*
X14500000Y7175000D02*
D03*
X16589999Y2945112D02*
D03*
X16416168Y2937725D02*
D03*
X16242500Y2945112D02*
D03*
X14770001Y3910000D02*
D03*
X11767449Y9518584D02*
D03*
X11190000Y6263804D02*
D03*
X11148801Y7268067D02*
D03*
X10828651Y8880870D02*
D03*
X10441001Y6871458D02*
D03*
X9270000Y7830000D02*
D03*
X9150000D02*
D03*
X9030000D02*
D03*
X14217163Y4961505D02*
D03*
X12000000Y4740000D02*
D03*
X10090000Y5680000D02*
D03*
X7075000Y1450000D02*
D03*
X7775000Y1550000D02*
D03*
X15050000Y4230000D02*
D03*
X11914776Y7775000D02*
D03*
X11525000Y7400000D02*
D03*
X10999369Y6725000D02*
D03*
X11450000Y6475000D02*
D03*
X10589655Y6722700D02*
D03*
X10689999Y6639999D02*
D03*
X8050000Y9300000D02*
D03*
Y9825000D02*
D03*
X16525000Y10875000D02*
D03*
X12825000Y2225000D02*
D03*
X9556467Y1843532D02*
D03*
X15856201Y8296201D02*
D03*
X13609169Y7819169D02*
D03*
X13120000Y4250000D02*
D03*
X10980000Y8626869D02*
D03*
X11935618Y8264500D02*
D03*
X12989999Y7760000D02*
D03*
X10860000Y7743834D02*
D03*
X10317901Y7752444D02*
D03*
X10987136Y7141067D02*
D03*
X13122086Y2225000D02*
D03*
X9650000Y8625000D02*
D03*
Y8925000D02*
D03*
X11347699Y8871351D02*
D03*
X9850000Y6800000D02*
D03*
X9760000Y6670000D02*
D03*
X12970000Y7520000D02*
D03*
X15068657Y9691482D02*
D03*
X15260001Y9263407D02*
D03*
X14380000Y5110000D02*
D03*
X12989999Y4270000D02*
D03*
X11900000Y8776850D02*
D03*
X12000000Y7500000D02*
D03*
X12020000Y6982407D02*
D03*
X11900000Y6972700D02*
D03*
X13295979Y7499200D02*
D03*
X17723080Y5593186D02*
D03*
X16531009Y7061084D02*
D03*
X16546165Y7652200D02*
D03*
Y7542200D02*
D03*
Y7432200D02*
D03*
X16399066Y6822200D02*
D03*
X16166966D02*
D03*
X16551010Y7251084D02*
D03*
X11310000Y6992854D02*
D03*
X10987136Y6997449D02*
D03*
X11275156Y9564844D02*
D03*
X11276901Y9764060D02*
D03*
X16330000Y10690000D02*
D03*
D94*
X15752499Y4152002D02*
D03*
X16272501Y4147002D02*
D03*
X13155000Y3890000D02*
D03*
X13150000Y3370000D02*
D03*
Y3650000D02*
D03*
X13020000Y1140000D02*
D03*
X13025000Y1660000D02*
D03*
X15000000Y1475000D02*
D03*
X14760001Y1480000D02*
D03*
X14480000D02*
D03*
D95*
X18825000Y4050000D02*
D03*
X19300000Y4650000D02*
D03*
X19767632Y4277225D02*
D03*
X20031444Y1350000D02*
D03*
X20050000Y1825000D02*
D03*
X17439452Y4085548D02*
D03*
X19050000Y6614999D02*
D03*
D96*
X16500000Y3260000D02*
D03*
Y3360000D02*
D03*
X16400000D02*
D03*
Y3160000D02*
D03*
Y3260000D02*
D03*
X16500000Y3160000D02*
D03*
X16474274Y780000D02*
D03*
Y880001D02*
D03*
Y980001D02*
D03*
X16300000Y3160000D02*
D03*
Y3260000D02*
D03*
Y3360000D02*
D03*
X16374274Y980001D02*
D03*
X16274274Y880001D02*
D03*
Y980001D02*
D03*
X16374274Y880001D02*
D03*
Y780000D02*
D03*
X16274274D02*
D03*
X14224274Y3360000D02*
D03*
Y3260000D02*
D03*
X14124274Y3160000D02*
D03*
X14224274D02*
D03*
X14124274Y3260000D02*
D03*
Y3360000D02*
D03*
X14024274Y3160000D02*
D03*
Y3260000D02*
D03*
Y3360000D02*
D03*
X14089999Y880000D02*
D03*
Y980000D02*
D03*
Y780000D02*
D03*
X13989999Y980000D02*
D03*
Y880000D02*
D03*
X13889999Y980000D02*
D03*
Y780000D02*
D03*
Y880000D02*
D03*
X13989999Y780000D02*
D03*
D97*
X500000Y1600000D02*
D03*
Y7050000D02*
D03*
D98*
X16011301Y4150000D02*
D03*
D99*
X15962500Y4035000D02*
D03*
D100*
X13135001Y3629999D02*
D03*
D101*
X2212500Y2856434D02*
D03*
D102*
X9500000Y11000000D02*
D03*
X9500000Y500000D02*
D03*
D103*
X4500000Y462500D02*
D03*
D104*
X14739999Y1495000D02*
D03*
D105*
X13077863Y1425000D02*
D03*
%TF.MD5,90ca3d972f363f481903b4e3cc537c32*%
M02*
