%TF.GenerationSoftware,Altium Limited,Altium Designer,25.8.1 (18)*%
G04 Layer_Physical_Order=2*
G04 Layer_Color=24703*
%FSLAX45Y45*%
%MOMM*%
%TF.SameCoordinates,8572D1E1-8A29-45F6-85B8-02B6E87FD275*%
%TF.FilePolarity,Positive*%
%TF.FileFunction,Copper,L2,Bot,Signal*%
%TF.Part,Single*%
G01*
G75*
%TA.AperFunction,SMDPad,CuDef*%
%ADD15R,1.00000X1.60000*%
%ADD17R,1.60000X1.00000*%
%TA.AperFunction,Conductor*%
%ADD45C,1.50000*%
%ADD46C,0.25400*%
%ADD48C,0.50000*%
%ADD49C,0.40000*%
%ADD50C,0.49999*%
%ADD51C,1.00000*%
%ADD52C,0.25000*%
%ADD54C,0.25399*%
%TA.AperFunction,NonConductor*%
%ADD58C,1.50000*%
%TA.AperFunction,WasherPad*%
%ADD71C,3.00000*%
%ADD72C,4.00000*%
%TA.AperFunction,ComponentPad*%
%ADD73C,1.50000*%
%ADD74C,3.00000*%
%ADD75C,1.30000*%
%TA.AperFunction,ViaPad*%
%ADD76C,1.20000*%
%TA.AperFunction,ComponentPad*%
%ADD77O,2.10000X1.40000*%
%ADD78C,1.30300*%
%ADD79R,1.30300X1.30300*%
%ADD80R,1.30300X1.30300*%
%ADD81R,1.65000X1.65000*%
%ADD82C,1.65000*%
%ADD83O,1.95000X1.30000*%
%TA.AperFunction,WasherPad*%
%ADD84C,1.80000*%
%TA.AperFunction,ComponentPad*%
%ADD85C,1.90500*%
%ADD86C,1.40000*%
%ADD87C,1.85000*%
%ADD88C,2.40000*%
%ADD89C,8.00000*%
%ADD90R,1.30000X1.30000*%
%ADD91R,1.65000X1.65000*%
%TA.AperFunction,ViaPad*%
%ADD92C,1.50000*%
%ADD93C,0.80000*%
%ADD94C,1.80000*%
%ADD95C,1.27000*%
%ADD96C,0.60000*%
%TA.AperFunction,NonConductor*%
%ADD97R,9.00000X9.00000*%
%ADD98R,7.12602X2.00000*%
%ADD99R,4.75000X4.30000*%
%ADD100R,2.90000X8.20000*%
%ADD101R,34.25000X16.12868*%
%ADD102R,9.00000X10.00000*%
%ADD103R,9.00000X9.25000*%
%ADD104R,8.20000X2.90000*%
%ADD105R,4.55726X8.00000*%
%TA.AperFunction,Conductor*%
%ADD106C,1.49999*%
%TA.AperFunction,NonConductor*%
%ADD107C,0.50000*%
%TA.AperFunction,Conductor*%
%ADD108C,0.42092*%
%ADD109C,1.49998*%
%ADD110R,13.50000X35.75000*%
%ADD111R,22.15504X4.91501*%
%ADD112R,4.75000X2.25000*%
%ADD113R,13.25000X33.25000*%
%ADD114R,3.50000X10.75000*%
%ADD115R,24.00000X9.50000*%
%ADD116R,26.50000X8.50000*%
%ADD117R,2.75001X6.70000*%
G36*
X7950000Y10600000D02*
Y10162132D01*
X7900000Y10112132D01*
X7587132D01*
X7500000Y10025000D01*
X6943824D01*
X6928011Y10031550D01*
X6891989D01*
X6876175Y10025000D01*
X6775000D01*
X6750000Y10000000D01*
Y9307868D01*
X6992132D01*
X7225000Y9075000D01*
Y4875000D01*
X7727145Y4372855D01*
X7725000Y4370710D01*
Y2525000D01*
X5587336D01*
X5512336Y2450000D01*
X5450191D01*
X5461120Y2454527D01*
X5491473Y2484880D01*
X5507900Y2524537D01*
Y2533300D01*
X5400000D01*
X5292100D01*
Y2524537D01*
X5308527Y2484880D01*
X5338880Y2454527D01*
X5349809Y2450000D01*
X5098195D01*
X5100000Y2448195D01*
Y51387D01*
X3150000D01*
Y1325000D01*
X3175000Y1350000D01*
Y1700000D01*
X644800D01*
X640355Y1707698D01*
X607698Y1740355D01*
X567702Y1763447D01*
X523092Y1775400D01*
X512700D01*
Y1600000D01*
X487300D01*
Y1775400D01*
X476908D01*
X432298Y1763447D01*
X392302Y1740355D01*
X359645Y1707698D01*
X355200Y1700000D01*
X51387D01*
Y1925715D01*
X64885Y1893128D01*
X93128Y1864885D01*
X130029Y1849600D01*
X137300D01*
Y1950000D01*
Y2050400D01*
X130029D01*
X93128Y2035115D01*
X64885Y2006872D01*
X51387Y1974285D01*
Y7500000D01*
X2025000D01*
Y6350000D01*
X3075000D01*
X3185949Y6460949D01*
Y9950000D01*
X5550000D01*
X6450000Y10850000D01*
X7700000D01*
X7950000Y10600000D01*
D02*
G37*
G36*
X19001903Y7098097D02*
X18992336Y7075000D01*
X17950000D01*
X17850000Y7175000D01*
X17725000Y7350000D01*
X17553198Y7575000D01*
X17033792Y8094406D01*
X17049142Y8114411D01*
X17049756Y8114057D01*
X17062300Y8110696D01*
Y8162300D01*
X17010696D01*
X17014056Y8149756D01*
X17014410Y8149143D01*
X16994406Y8133792D01*
X16372900Y8755298D01*
X16376224Y9384600D01*
X16388609D01*
X16405244Y9389057D01*
X16420157Y9397667D01*
X16432333Y9409843D01*
X16440942Y9424756D01*
X16444304Y9437300D01*
X16380000D01*
Y9462700D01*
X16444304D01*
X16440942Y9475243D01*
X16432333Y9490157D01*
X16420157Y9502333D01*
X16405244Y9510943D01*
X16388609Y9515400D01*
X16376976Y9527095D01*
X16377541Y9634010D01*
X16402637Y9652051D01*
X16411781Y9649600D01*
X16438219D01*
X16447826Y9652174D01*
X19001903Y7098097D01*
D02*
G37*
G36*
X16175000Y8052200D02*
Y6887600D01*
X16158357D01*
X16141724Y6883143D01*
X16126811Y6874533D01*
X16114635Y6862357D01*
X16106024Y6847444D01*
X16101567Y6830810D01*
Y6813590D01*
X16106024Y6796956D01*
X16114635Y6782043D01*
X16126811Y6769867D01*
X16141724Y6761257D01*
X16158357Y6756800D01*
X16175578D01*
X16192210Y6761257D01*
X16207124Y6769867D01*
X16219299Y6782043D01*
X16220058Y6783353D01*
X16345976D01*
X16346733Y6782043D01*
X16358910Y6769867D01*
X16373822Y6761257D01*
X16390456Y6756800D01*
X16407677D01*
X16424310Y6761257D01*
X16439223Y6769867D01*
X16451399Y6782043D01*
X16460008Y6796956D01*
X16460825Y6800000D01*
X17200000D01*
Y6200000D01*
X15975000D01*
X15775000Y6400000D01*
Y6974637D01*
X15794012Y6981856D01*
X15800000Y6982304D01*
X15810854Y6971451D01*
X15825766Y6962841D01*
X15838310Y6959480D01*
Y7023784D01*
Y7088088D01*
X15825766Y7084727D01*
X15810854Y7076117D01*
X15800000Y7065264D01*
X15794012Y7065712D01*
X15775000Y7072931D01*
Y7240953D01*
X15794012Y7248172D01*
X15800000Y7248620D01*
X15810854Y7237767D01*
X15825766Y7229157D01*
X15838310Y7225796D01*
Y7290100D01*
X15851010D01*
Y7302800D01*
X15915314D01*
X15911954Y7315344D01*
X15903343Y7330257D01*
X15891167Y7342433D01*
X15881763Y7347862D01*
X15880017Y7353340D01*
X15879430Y7365478D01*
X15881631Y7375484D01*
X15889223Y7379867D01*
X15901399Y7392043D01*
X15910008Y7406956D01*
X15913370Y7419500D01*
X15849066D01*
Y7444900D01*
X15913370D01*
X15910008Y7457443D01*
X15901399Y7472356D01*
X15891077Y7487200D01*
X15901399Y7502043D01*
X15910008Y7516956D01*
X15913370Y7529500D01*
X15849066D01*
Y7554900D01*
X15913370D01*
X15910008Y7567443D01*
X15901399Y7582356D01*
X15891077Y7597200D01*
X15901399Y7612043D01*
X15910008Y7626956D01*
X15913370Y7639500D01*
X15849066D01*
Y7652200D01*
X15836366D01*
Y7716504D01*
X15823824Y7713143D01*
X15808910Y7704533D01*
X15800000Y7695623D01*
X15786649Y7698091D01*
X15775000Y7704713D01*
Y8200000D01*
X16175000D01*
Y8052200D01*
D02*
G37*
G36*
X15545560Y9149807D02*
X15546855Y9149251D01*
X15547781Y9148511D01*
X15548151Y9148326D01*
X15549261Y9146659D01*
X15549818Y9145178D01*
X15550003Y9144067D01*
Y9143882D01*
Y9143696D01*
Y9124995D01*
X15570001D01*
X15570926Y9124624D01*
X15572223Y9124069D01*
X15573148Y9123328D01*
X15573518Y9123143D01*
Y9122958D01*
X15574445Y9121477D01*
X15574815Y9119995D01*
X15575000Y9119069D01*
Y9118884D01*
Y9118699D01*
X15574815Y9116847D01*
X15574258Y9115551D01*
X15573705Y9114625D01*
X15573518Y9114255D01*
X15572037Y9113329D01*
X15570557Y9112774D01*
X15569260Y9112589D01*
X15550003D01*
Y9093702D01*
X15549632Y9091665D01*
X15549077Y9090183D01*
X15548521Y9089258D01*
X15548151Y9088887D01*
X15546671Y9087962D01*
X15545374Y9087591D01*
X15544263Y9087406D01*
X15543892D01*
X15542041Y9087591D01*
X15540559Y9088147D01*
X15539819Y9088702D01*
X15539449Y9088887D01*
X15538338Y9090369D01*
X15537782Y9091850D01*
X15537598Y9092591D01*
Y9093146D01*
Y9093516D01*
Y9093702D01*
Y9112589D01*
X15518895D01*
X15517784Y9112774D01*
X15516858Y9112959D01*
X15515376Y9113700D01*
X15514452Y9114255D01*
X15514265Y9114625D01*
X15513341Y9116107D01*
X15512784Y9117403D01*
X15512599Y9118329D01*
Y9118699D01*
X15512784Y9120366D01*
X15513341Y9121662D01*
X15514079Y9122588D01*
X15514265Y9122958D01*
X15515005Y9123699D01*
X15515747Y9124069D01*
X15517229Y9124810D01*
X15518340Y9124995D01*
X15537598D01*
Y9143696D01*
Y9144807D01*
X15537967Y9145733D01*
X15538522Y9147215D01*
X15539262Y9148140D01*
X15539449Y9148326D01*
X15539633D01*
X15541115Y9149251D01*
X15542596Y9149807D01*
X15543523Y9149992D01*
X15543892D01*
X15545560Y9149807D01*
D02*
G37*
G36*
X15453346Y9199802D02*
X15455753Y9199617D01*
X15460568Y9198506D01*
X15464456Y9196839D01*
X15467789Y9195173D01*
X15470566Y9193321D01*
X15471677Y9192395D01*
X15472418Y9191654D01*
X15473158Y9191099D01*
X15473714Y9190543D01*
X15473898Y9190358D01*
X15474084Y9190173D01*
X15476677Y9186655D01*
X15478529Y9182952D01*
X15479825Y9179248D01*
X15480751Y9175915D01*
X15481306Y9172953D01*
X15481491Y9171657D01*
Y9170546D01*
X15481676Y9169805D01*
Y9169064D01*
Y9168694D01*
Y9168509D01*
X15481491Y9165916D01*
X15481306Y9163509D01*
X15480936Y9161287D01*
X15480380Y9159250D01*
X15479825Y9157584D01*
X15479454Y9156288D01*
X15479269Y9155547D01*
X15479083Y9155177D01*
X15477972Y9152770D01*
X15476677Y9150733D01*
X15475381Y9148881D01*
X15474084Y9147400D01*
X15472974Y9146104D01*
X15472047Y9145178D01*
X15471492Y9144622D01*
X15471307Y9144437D01*
X15474271Y9142400D01*
X15476862Y9140178D01*
X15479083Y9137771D01*
X15480751Y9135734D01*
X15482233Y9133698D01*
X15483157Y9132216D01*
X15483713Y9131105D01*
X15483897Y9130920D01*
Y9130735D01*
X15485194Y9127587D01*
X15486307Y9124254D01*
X15487045Y9121106D01*
X15487418Y9118329D01*
X15487787Y9115922D01*
X15487971Y9114070D01*
Y9113329D01*
Y9112774D01*
Y9112589D01*
Y9112403D01*
X15487787Y9109626D01*
X15487602Y9106848D01*
X15486491Y9101849D01*
X15485008Y9097405D01*
X15483344Y9093702D01*
X15482417Y9092035D01*
X15481676Y9090554D01*
X15480936Y9089443D01*
X15480196Y9088332D01*
X15479640Y9087591D01*
X15479083Y9087036D01*
X15478899Y9086665D01*
X15478714Y9086480D01*
X15476677Y9084443D01*
X15474455Y9082777D01*
X15472234Y9081110D01*
X15469826Y9079814D01*
X15467419Y9078703D01*
X15465198Y9077777D01*
X15460753Y9076481D01*
X15458531Y9075926D01*
X15456679Y9075555D01*
X15455013Y9075370D01*
X15453531Y9075185D01*
X15452235Y9075000D01*
X15450569D01*
X15447237Y9075185D01*
X15444273Y9075555D01*
X15441310Y9076111D01*
X15438718Y9076852D01*
X15436127Y9077777D01*
X15433904Y9078703D01*
X15431682Y9079814D01*
X15429829Y9080925D01*
X15428163Y9081851D01*
X15426682Y9082962D01*
X15425386Y9083888D01*
X15424275Y9084814D01*
X15423534Y9085554D01*
X15422980Y9086110D01*
X15422607Y9086480D01*
X15422423Y9086665D01*
X15420757Y9088702D01*
X15419275Y9090924D01*
X15417979Y9093146D01*
X15416869Y9095368D01*
X15415202Y9099627D01*
X15414091Y9103701D01*
X15413535Y9107219D01*
X15413350Y9108700D01*
X15413165Y9109996D01*
X15412981Y9110922D01*
Y9111663D01*
Y9112218D01*
Y9112403D01*
X15413165Y9116107D01*
X15413721Y9119440D01*
X15414461Y9122588D01*
X15415202Y9125180D01*
X15415942Y9127587D01*
X15416682Y9129254D01*
X15417239Y9130365D01*
X15417424Y9130735D01*
X15419090Y9133883D01*
X15421127Y9136475D01*
X15423164Y9138882D01*
X15425201Y9140734D01*
X15427052Y9142215D01*
X15428534Y9143326D01*
X15429460Y9144067D01*
X15429645Y9144252D01*
X15429829D01*
X15427979Y9145918D01*
X15426497Y9147770D01*
X15425015Y9149622D01*
X15423904Y9151473D01*
X15423164Y9152955D01*
X15422607Y9154066D01*
X15422238Y9154806D01*
X15422054Y9155177D01*
X15421127Y9157584D01*
X15420386Y9159991D01*
X15420016Y9162213D01*
X15419646Y9164250D01*
X15419461Y9165916D01*
X15419275Y9167398D01*
Y9168138D01*
Y9168509D01*
Y9170916D01*
X15419646Y9173138D01*
X15420572Y9177212D01*
X15421867Y9180915D01*
X15423164Y9184063D01*
X15424644Y9186655D01*
X15425941Y9188507D01*
X15426497Y9189247D01*
X15426868Y9189803D01*
X15427052Y9189988D01*
X15427238Y9190173D01*
X15428905Y9191840D01*
X15430756Y9193506D01*
X15432607Y9194802D01*
X15434644Y9195913D01*
X15438533Y9197580D01*
X15442236Y9198691D01*
X15445569Y9199431D01*
X15446864Y9199617D01*
X15448161Y9199802D01*
X15449088Y9199987D01*
X15450569D01*
X15453346Y9199802D01*
D02*
G37*
%LPC*%
G36*
X7001336Y10537232D02*
X6820236D01*
Y10356132D01*
X7001336D01*
Y10537232D01*
D02*
G37*
G36*
X7594971Y10500400D02*
X7555029D01*
X7518128Y10485115D01*
X7489885Y10456872D01*
X7474600Y10419971D01*
Y10380029D01*
X7489885Y10343128D01*
X7518128Y10314885D01*
X7555029Y10299600D01*
X7594971D01*
X7631872Y10314885D01*
X7660115Y10343128D01*
X7675400Y10380029D01*
Y10419971D01*
X7660115Y10456872D01*
X7631872Y10485115D01*
X7594971Y10500400D01*
D02*
G37*
G36*
X5473092Y9705400D02*
X5426908D01*
X5382298Y9693447D01*
X5342302Y9670355D01*
X5309645Y9637698D01*
X5286553Y9597702D01*
X5274600Y9553092D01*
Y9506908D01*
X5286553Y9462298D01*
X5309645Y9422302D01*
X5342302Y9389645D01*
X5382298Y9366553D01*
X5426908Y9354600D01*
X5473092D01*
X5517702Y9366553D01*
X5557698Y9389645D01*
X5590355Y9422302D01*
X5613447Y9462298D01*
X5625400Y9506908D01*
Y9553092D01*
X5613447Y9597702D01*
X5590355Y9637698D01*
X5557698Y9670355D01*
X5517702Y9693447D01*
X5473092Y9705400D01*
D02*
G37*
G36*
X3573091D02*
X3526907D01*
X3482297Y9693447D01*
X3442301Y9670355D01*
X3409644Y9637698D01*
X3386552Y9597702D01*
X3374599Y9553092D01*
Y9506908D01*
X3386552Y9462298D01*
X3409644Y9422302D01*
X3442301Y9389645D01*
X3482297Y9366553D01*
X3526907Y9354600D01*
X3573091D01*
X3617701Y9366553D01*
X3657697Y9389645D01*
X3690354Y9422302D01*
X3713445Y9462298D01*
X3725399Y9506908D01*
Y9553092D01*
X3713445Y9597702D01*
X3690354Y9637698D01*
X3657697Y9670355D01*
X3617701Y9693447D01*
X3573091Y9705400D01*
D02*
G37*
G36*
X6928011Y9015550D02*
X6891989D01*
X6858707Y9001765D01*
X6833235Y8976292D01*
X6819450Y8943011D01*
Y8906989D01*
X6833235Y8873707D01*
X6858707Y8848235D01*
X6891989Y8834450D01*
X6928011D01*
X6961292Y8848235D01*
X6986765Y8873707D01*
X7000550Y8906989D01*
Y8943011D01*
X6986765Y8976292D01*
X6961292Y9001765D01*
X6928011Y9015550D01*
D02*
G37*
G36*
X6902011Y8334368D02*
X6865989D01*
X6832707Y8320582D01*
X6807235Y8295110D01*
X6793450Y8261829D01*
Y8225806D01*
X6807235Y8192525D01*
X6832707Y8167053D01*
X6865989Y8153268D01*
X6902011D01*
X6935292Y8167053D01*
X6960765Y8192525D01*
X6974550Y8225806D01*
Y8261829D01*
X6960765Y8295110D01*
X6935292Y8320582D01*
X6902011Y8334368D01*
D02*
G37*
G36*
X844971Y7480429D02*
X837700D01*
Y7392729D01*
X925400D01*
Y7400000D01*
X910115Y7436901D01*
X881872Y7465144D01*
X844971Y7480429D01*
D02*
G37*
G36*
X812300D02*
X805029D01*
X768128Y7465144D01*
X739885Y7436901D01*
X724600Y7400000D01*
Y7392729D01*
X812300D01*
Y7480429D01*
D02*
G37*
G36*
X194971D02*
X187700D01*
Y7392729D01*
X275400D01*
Y7400000D01*
X260115Y7436901D01*
X231872Y7465144D01*
X194971Y7480429D01*
D02*
G37*
G36*
X162300D02*
X155029D01*
X118128Y7465144D01*
X89885Y7436901D01*
X74600Y7400000D01*
Y7392729D01*
X162300D01*
Y7480429D01*
D02*
G37*
G36*
X6902011Y7515550D02*
X6865989D01*
X6832707Y7501765D01*
X6807235Y7476292D01*
X6793450Y7443011D01*
Y7406988D01*
X6807235Y7373707D01*
X6832707Y7348235D01*
X6865989Y7334450D01*
X6902011D01*
X6935292Y7348235D01*
X6960765Y7373707D01*
X6974550Y7406988D01*
Y7443011D01*
X6960765Y7476292D01*
X6935292Y7501765D01*
X6902011Y7515550D01*
D02*
G37*
G36*
X925400Y7367329D02*
X837700D01*
Y7279629D01*
X844971D01*
X881872Y7294914D01*
X910115Y7323157D01*
X925400Y7360058D01*
Y7367329D01*
D02*
G37*
G36*
X812300D02*
X724600D01*
Y7360058D01*
X739885Y7323157D01*
X768128Y7294914D01*
X805029Y7279629D01*
X812300D01*
Y7367329D01*
D02*
G37*
G36*
X275400D02*
X187700D01*
Y7279629D01*
X194971D01*
X231872Y7294914D01*
X260115Y7323157D01*
X275400Y7360058D01*
Y7367329D01*
D02*
G37*
G36*
X162300D02*
X74600D01*
Y7360058D01*
X89885Y7323157D01*
X118128Y7294914D01*
X155029Y7279629D01*
X162300D01*
Y7367329D01*
D02*
G37*
G36*
X523092Y7225400D02*
X512700D01*
Y7062700D01*
X675400D01*
Y7073092D01*
X663447Y7117702D01*
X640355Y7157698D01*
X607698Y7190355D01*
X567702Y7213447D01*
X523092Y7225400D01*
D02*
G37*
G36*
X487300D02*
X476908D01*
X432298Y7213447D01*
X392302Y7190355D01*
X359645Y7157698D01*
X336553Y7117702D01*
X324600Y7073092D01*
Y7062700D01*
X487300D01*
Y7225400D01*
D02*
G37*
G36*
X675400Y7037300D02*
X512700D01*
Y6874600D01*
X523092D01*
X567702Y6886553D01*
X607698Y6909645D01*
X640355Y6942302D01*
X663447Y6982298D01*
X675400Y7026908D01*
Y7037300D01*
D02*
G37*
G36*
X487300D02*
X324600D01*
Y7026908D01*
X336553Y6982298D01*
X359645Y6942302D01*
X392302Y6909645D01*
X432298Y6886553D01*
X476908Y6874600D01*
X487300D01*
Y7037300D01*
D02*
G37*
G36*
X837300Y6825400D02*
X830029D01*
Y6737700D01*
X917729D01*
Y6744971D01*
X902444Y6781872D01*
X874201Y6810115D01*
X837300Y6825400D01*
D02*
G37*
G36*
X804629D02*
X797359D01*
X760457Y6810115D01*
X732214Y6781872D01*
X716929Y6744971D01*
Y6737700D01*
X804629D01*
Y6825400D01*
D02*
G37*
G36*
X194971D02*
X187700D01*
Y6737700D01*
X275400D01*
Y6744971D01*
X260115Y6781872D01*
X231872Y6810115D01*
X194971Y6825400D01*
D02*
G37*
G36*
X162300D02*
X155029D01*
X118128Y6810115D01*
X89885Y6781872D01*
X74600Y6744971D01*
Y6737700D01*
X162300D01*
Y6825400D01*
D02*
G37*
G36*
X917729Y6712300D02*
X830029D01*
Y6624600D01*
X837300D01*
X874201Y6639885D01*
X902444Y6668128D01*
X917729Y6705029D01*
Y6712300D01*
D02*
G37*
G36*
X804629D02*
X716929D01*
Y6705029D01*
X732214Y6668128D01*
X760457Y6639885D01*
X797359Y6624600D01*
X804629D01*
Y6712300D01*
D02*
G37*
G36*
X275400D02*
X187700D01*
Y6624600D01*
X194971D01*
X231872Y6639885D01*
X260115Y6668128D01*
X275400Y6705029D01*
Y6712300D01*
D02*
G37*
G36*
X162300D02*
X74600D01*
Y6705029D01*
X89885Y6668128D01*
X118128Y6639885D01*
X155029Y6624600D01*
X162300D01*
Y6712300D01*
D02*
G37*
G36*
X6902011Y6690550D02*
X6865989D01*
X6832707Y6676765D01*
X6807235Y6651293D01*
X6793450Y6618011D01*
Y6581989D01*
X6807235Y6548708D01*
X6832707Y6523235D01*
X6865989Y6509450D01*
X6902011D01*
X6935292Y6523235D01*
X6960765Y6548708D01*
X6974550Y6581989D01*
Y6618011D01*
X6960765Y6651293D01*
X6935292Y6676765D01*
X6902011Y6690550D01*
D02*
G37*
G36*
X3016987Y5864636D02*
X2983013D01*
X2951625Y5851635D01*
X2927601Y5827612D01*
X2914600Y5796224D01*
Y5762250D01*
X2927601Y5730862D01*
X2951625Y5706838D01*
X2983013Y5693837D01*
X3016987D01*
X3048375Y5706838D01*
X3072399Y5730862D01*
X3085400Y5762250D01*
Y5796224D01*
X3072399Y5827612D01*
X3048375Y5851635D01*
X3016987Y5864636D01*
D02*
G37*
G36*
X6902011Y5865550D02*
X6865989D01*
X6832707Y5851765D01*
X6807235Y5826292D01*
X6793450Y5793011D01*
Y5756988D01*
X6807235Y5723707D01*
X6832707Y5698235D01*
X6865989Y5684450D01*
X6902011D01*
X6935292Y5698235D01*
X6960765Y5723707D01*
X6974550Y5756988D01*
Y5793011D01*
X6960765Y5826292D01*
X6935292Y5851765D01*
X6902011Y5865550D01*
D02*
G37*
G36*
X1723092Y6025400D02*
X1676908D01*
X1632298Y6013447D01*
X1592302Y5990355D01*
X1559645Y5957698D01*
X1536553Y5917702D01*
X1524600Y5873092D01*
Y5826908D01*
X1536553Y5782298D01*
X1559645Y5742302D01*
X1592302Y5709645D01*
X1632298Y5686553D01*
X1676908Y5674600D01*
X1723092D01*
X1767702Y5686553D01*
X1807698Y5709645D01*
X1840355Y5742302D01*
X1863447Y5782298D01*
X1875400Y5826908D01*
Y5873092D01*
X1863447Y5917702D01*
X1840355Y5957698D01*
X1807698Y5990355D01*
X1767702Y6013447D01*
X1723092Y6025400D01*
D02*
G37*
G36*
X5473092Y5505394D02*
X5426908D01*
X5382298Y5493441D01*
X5342302Y5470349D01*
X5309645Y5437692D01*
X5286553Y5397696D01*
X5274600Y5353086D01*
Y5306902D01*
X5286553Y5262292D01*
X5309645Y5222296D01*
X5342302Y5189639D01*
X5382298Y5166547D01*
X5426908Y5154594D01*
X5473092D01*
X5517702Y5166547D01*
X5557698Y5189639D01*
X5590355Y5222296D01*
X5613447Y5262292D01*
X5625400Y5306902D01*
Y5353086D01*
X5613447Y5397696D01*
X5590355Y5437692D01*
X5557698Y5470349D01*
X5517702Y5493441D01*
X5473092Y5505394D01*
D02*
G37*
G36*
X3573091D02*
X3526907D01*
X3482297Y5493441D01*
X3442301Y5470349D01*
X3409644Y5437692D01*
X3386552Y5397696D01*
X3374599Y5353086D01*
Y5306902D01*
X3386552Y5262292D01*
X3409644Y5222296D01*
X3442301Y5189639D01*
X3482297Y5166547D01*
X3526907Y5154594D01*
X3573091D01*
X3617701Y5166547D01*
X3657697Y5189639D01*
X3690354Y5222296D01*
X3713445Y5262292D01*
X3725399Y5306902D01*
Y5353086D01*
X3713445Y5397696D01*
X3690354Y5437692D01*
X3657697Y5470349D01*
X3617701Y5493441D01*
X3573091Y5505394D01*
D02*
G37*
G36*
X6902011Y5040550D02*
X6865989D01*
X6832707Y5026765D01*
X6807235Y5001293D01*
X6793450Y4968011D01*
Y4931989D01*
X6807235Y4898707D01*
X6832707Y4873235D01*
X6865989Y4859450D01*
X6902011D01*
X6935292Y4873235D01*
X6960765Y4898707D01*
X6974550Y4931989D01*
Y4968011D01*
X6960765Y5001293D01*
X6935292Y5026765D01*
X6902011Y5040550D01*
D02*
G37*
G36*
X4824355Y4685400D02*
X4820068D01*
Y4612700D01*
X4892767D01*
Y4616987D01*
X4879766Y4648375D01*
X4855743Y4672399D01*
X4824355Y4685400D01*
D02*
G37*
G36*
X4794668D02*
X4790381D01*
X4758993Y4672399D01*
X4734969Y4648375D01*
X4721968Y4616987D01*
Y4612700D01*
X4794668D01*
Y4685400D01*
D02*
G37*
G36*
X4078094D02*
X4073807D01*
Y4612700D01*
X4146507D01*
Y4616987D01*
X4133506Y4648375D01*
X4109482Y4672399D01*
X4078094Y4685400D01*
D02*
G37*
G36*
X4048407D02*
X4044120D01*
X4012732Y4672399D01*
X3988708Y4648375D01*
X3975707Y4616987D01*
Y4612700D01*
X4048407D01*
Y4685400D01*
D02*
G37*
G36*
X4892767Y4587300D02*
X4820068D01*
Y4514600D01*
X4824355D01*
X4855743Y4527601D01*
X4879766Y4551625D01*
X4892767Y4583013D01*
Y4587300D01*
D02*
G37*
G36*
X4794668D02*
X4721968D01*
Y4583013D01*
X4734969Y4551625D01*
X4758993Y4527601D01*
X4790381Y4514600D01*
X4794668D01*
Y4587300D01*
D02*
G37*
G36*
X4146507D02*
X4073807D01*
Y4514600D01*
X4078094D01*
X4109482Y4527601D01*
X4133506Y4551625D01*
X4146507Y4583013D01*
Y4587300D01*
D02*
G37*
G36*
X4048407D02*
X3975707D01*
Y4583013D01*
X3988708Y4551625D01*
X4012732Y4527601D01*
X4044120Y4514600D01*
X4048407D01*
Y4587300D01*
D02*
G37*
G36*
X1723092Y4575400D02*
X1676908D01*
X1632298Y4563447D01*
X1592302Y4540355D01*
X1559645Y4507698D01*
X1536553Y4467702D01*
X1524600Y4423092D01*
Y4376908D01*
X1536553Y4332298D01*
X1559645Y4292302D01*
X1592302Y4259645D01*
X1632298Y4236553D01*
X1676908Y4224600D01*
X1723092D01*
X1767702Y4236553D01*
X1807698Y4259645D01*
X1840355Y4292302D01*
X1863447Y4332298D01*
X1875400Y4376908D01*
Y4423092D01*
X1863447Y4467702D01*
X1840355Y4507698D01*
X1807698Y4540355D01*
X1767702Y4563447D01*
X1723092Y4575400D01*
D02*
G37*
G36*
X6783976Y4195400D02*
X6746024D01*
X6710960Y4180876D01*
X6684124Y4154040D01*
X6669600Y4118976D01*
Y4081024D01*
X6684124Y4045960D01*
X6710960Y4019124D01*
X6746024Y4004600D01*
X6783976D01*
X6819040Y4019124D01*
X6845876Y4045960D01*
X6860400Y4081024D01*
Y4118976D01*
X6845876Y4154040D01*
X6819040Y4180876D01*
X6783976Y4195400D01*
D02*
G37*
G36*
X4833020Y4040400D02*
X4787111D01*
X4744697Y4022831D01*
X4712234Y3990369D01*
X4694666Y3947955D01*
Y3902046D01*
X4712234Y3859631D01*
X4744697Y3827169D01*
X4787111Y3809600D01*
X4833020D01*
X4875434Y3827169D01*
X4907897Y3859631D01*
X4925465Y3902046D01*
Y3947955D01*
X4907897Y3990369D01*
X4875434Y4022831D01*
X4833020Y4040400D01*
D02*
G37*
G36*
X4197955D02*
X4152046D01*
X4109631Y4022831D01*
X4077169Y3990369D01*
X4059600Y3947955D01*
Y3902046D01*
X4077169Y3859631D01*
X4109631Y3827169D01*
X4152046Y3809600D01*
X4197955D01*
X4240369Y3827169D01*
X4272831Y3859631D01*
X4290400Y3902046D01*
Y3947955D01*
X4272831Y3990369D01*
X4240369Y4022831D01*
X4197955Y4040400D01*
D02*
G37*
G36*
X7333976Y3345400D02*
X7296024D01*
X7260960Y3330876D01*
X7234124Y3304040D01*
X7219600Y3268976D01*
Y3231024D01*
X7234124Y3195960D01*
X7260960Y3169124D01*
X7296024Y3154600D01*
X7333976D01*
X7369040Y3169124D01*
X7395876Y3195960D01*
X7410400Y3231024D01*
Y3268976D01*
X7395876Y3304040D01*
X7369040Y3330876D01*
X7333976Y3345400D01*
D02*
G37*
G36*
X6019971Y3300400D02*
X5980029D01*
X5943128Y3285115D01*
X5914885Y3256872D01*
X5899600Y3219971D01*
Y3180029D01*
X5914885Y3143128D01*
X5943128Y3114885D01*
X5980029Y3099600D01*
X6019971D01*
X6056872Y3114885D01*
X6085115Y3143128D01*
X6100400Y3180029D01*
Y3219971D01*
X6085115Y3256872D01*
X6056872Y3285115D01*
X6019971Y3300400D01*
D02*
G37*
G36*
X7004971Y3280400D02*
X6965029D01*
X6928128Y3265115D01*
X6899885Y3236872D01*
X6884600Y3199971D01*
Y3160029D01*
X6899885Y3123128D01*
X6928128Y3094885D01*
X6965029Y3079600D01*
X7004971D01*
X7041872Y3094885D01*
X7070115Y3123128D01*
X7085400Y3160029D01*
Y3199971D01*
X7070115Y3236872D01*
X7041872Y3265115D01*
X7004971Y3280400D01*
D02*
G37*
G36*
X6523452Y3289867D02*
X6476548D01*
X6433215Y3271918D01*
X6400049Y3238752D01*
X6382100Y3195419D01*
Y3148515D01*
X6400049Y3105182D01*
X6433215Y3072016D01*
X6476548Y3054067D01*
X6523452D01*
X6566785Y3072016D01*
X6599951Y3105182D01*
X6617900Y3148515D01*
Y3195419D01*
X6599951Y3238752D01*
X6566785Y3271918D01*
X6523452Y3289867D01*
D02*
G37*
G36*
X5507900Y3161900D02*
X5292100D01*
Y2946100D01*
X5507900D01*
Y3161900D01*
D02*
G37*
G36*
X5421463Y2907900D02*
X5412700D01*
Y2812700D01*
X5507900D01*
Y2821462D01*
X5491473Y2861120D01*
X5461120Y2891473D01*
X5421463Y2907900D01*
D02*
G37*
G36*
X5387300D02*
X5378538D01*
X5338880Y2891473D01*
X5308527Y2861120D01*
X5292100Y2821462D01*
Y2812700D01*
X5387300D01*
Y2907900D01*
D02*
G37*
G36*
X5507900Y2787300D02*
X5412700D01*
Y2692100D01*
X5421463D01*
X5461120Y2708527D01*
X5491473Y2738880D01*
X5507900Y2778537D01*
Y2787300D01*
D02*
G37*
G36*
X5387300D02*
X5292100D01*
Y2778537D01*
X5308527Y2738880D01*
X5338880Y2708527D01*
X5378538Y2692100D01*
X5387300D01*
Y2787300D01*
D02*
G37*
G36*
X5421463Y2653900D02*
X5412700D01*
Y2558700D01*
X5507900D01*
Y2567462D01*
X5491473Y2607120D01*
X5461120Y2637473D01*
X5421463Y2653900D01*
D02*
G37*
G36*
X5387300D02*
X5378538D01*
X5338880Y2637473D01*
X5308527Y2607120D01*
X5292100Y2567462D01*
Y2558700D01*
X5387300D01*
Y2653900D01*
D02*
G37*
G36*
X3231898Y3175400D02*
X3148102D01*
X3065915Y3159052D01*
X2988497Y3126985D01*
X2918823Y3080430D01*
X2859570Y3021177D01*
X2813015Y2951503D01*
X2780948Y2874085D01*
X2764600Y2791898D01*
Y2708102D01*
X2780948Y2625915D01*
X2813015Y2548498D01*
X2859570Y2478823D01*
X2918823Y2419570D01*
X2988497Y2373016D01*
X3065915Y2340948D01*
X3148102Y2324600D01*
X3231898D01*
X3314085Y2340948D01*
X3391502Y2373016D01*
X3461177Y2419570D01*
X3520430Y2478823D01*
X3566984Y2548498D01*
X3599052Y2625915D01*
X3615400Y2708102D01*
Y2791898D01*
X3599052Y2874085D01*
X3566984Y2951503D01*
X3520430Y3021177D01*
X3461177Y3080430D01*
X3391502Y3126985D01*
X3314085Y3159052D01*
X3231898Y3175400D01*
D02*
G37*
G36*
X1291898D02*
X1208102D01*
X1125915Y3159052D01*
X1048498Y3126985D01*
X978823Y3080430D01*
X919570Y3021177D01*
X873016Y2951503D01*
X840948Y2874085D01*
X824600Y2791898D01*
Y2708102D01*
X840948Y2625915D01*
X873016Y2548498D01*
X919570Y2478823D01*
X978823Y2419570D01*
X1048498Y2373016D01*
X1125915Y2340948D01*
X1208102Y2324600D01*
X1291898D01*
X1374085Y2340948D01*
X1451503Y2373016D01*
X1521177Y2419570D01*
X1580430Y2478823D01*
X1626985Y2548498D01*
X1659052Y2625915D01*
X1675400Y2708102D01*
Y2791898D01*
X1659052Y2874085D01*
X1626985Y2951503D01*
X1580430Y3021177D01*
X1521177Y3080430D01*
X1451503Y3126985D01*
X1374085Y3159052D01*
X1291898Y3175400D01*
D02*
G37*
G36*
X869971Y2050400D02*
X862700D01*
Y1962700D01*
X950400D01*
Y1969971D01*
X935115Y2006872D01*
X906872Y2035115D01*
X869971Y2050400D01*
D02*
G37*
G36*
X837300D02*
X830029D01*
X793128Y2035115D01*
X764885Y2006872D01*
X749600Y1969971D01*
Y1962700D01*
X837300D01*
Y2050400D01*
D02*
G37*
G36*
X169971D02*
X162700D01*
Y1962700D01*
X250400D01*
Y1969971D01*
X235115Y2006872D01*
X206872Y2035115D01*
X169971Y2050400D01*
D02*
G37*
G36*
X950400Y1937300D02*
X862700D01*
Y1849600D01*
X869971D01*
X906872Y1864885D01*
X935115Y1893128D01*
X950400Y1930029D01*
Y1937300D01*
D02*
G37*
G36*
X837300D02*
X749600D01*
Y1930029D01*
X764885Y1893128D01*
X793128Y1864885D01*
X830029Y1849600D01*
X837300D01*
Y1937300D01*
D02*
G37*
G36*
X250400D02*
X162700D01*
Y1849600D01*
X169971D01*
X206872Y1864885D01*
X235115Y1893128D01*
X250400Y1930029D01*
Y1937300D01*
D02*
G37*
G36*
X4869971Y900400D02*
X4862700D01*
Y812700D01*
X4950400D01*
Y819971D01*
X4935115Y856872D01*
X4906872Y885115D01*
X4869971Y900400D01*
D02*
G37*
G36*
X4837300D02*
X4830029D01*
X4793128Y885115D01*
X4764885Y856872D01*
X4749600Y819971D01*
Y812700D01*
X4837300D01*
Y900400D01*
D02*
G37*
G36*
X4169971D02*
X4162700D01*
Y812700D01*
X4250400D01*
Y819971D01*
X4235115Y856872D01*
X4206872Y885115D01*
X4169971Y900400D01*
D02*
G37*
G36*
X4137300D02*
X4130029D01*
X4093128Y885115D01*
X4064885Y856872D01*
X4049600Y819971D01*
Y812700D01*
X4137300D01*
Y900400D01*
D02*
G37*
G36*
X4950400Y787300D02*
X4862700D01*
Y699600D01*
X4869971D01*
X4906872Y714885D01*
X4935115Y743128D01*
X4950400Y780029D01*
Y787300D01*
D02*
G37*
G36*
X4837300D02*
X4749600D01*
Y780029D01*
X4764885Y743128D01*
X4793128Y714885D01*
X4830029Y699600D01*
X4837300D01*
Y787300D01*
D02*
G37*
G36*
X4250400D02*
X4162700D01*
Y699600D01*
X4169971D01*
X4206872Y714885D01*
X4235115Y743128D01*
X4250400Y780029D01*
Y787300D01*
D02*
G37*
G36*
X4137300D02*
X4049600D01*
Y780029D01*
X4064885Y743128D01*
X4093128Y714885D01*
X4130029Y699600D01*
X4137300D01*
Y787300D01*
D02*
G37*
G36*
X4523092Y675400D02*
X4512700D01*
Y512700D01*
X4675400D01*
Y523092D01*
X4663447Y567702D01*
X4640355Y607698D01*
X4607698Y640355D01*
X4567702Y663447D01*
X4523092Y675400D01*
D02*
G37*
G36*
X4487300D02*
X4476908D01*
X4432298Y663447D01*
X4392302Y640355D01*
X4359645Y607698D01*
X4336553Y567702D01*
X4324600Y523092D01*
Y512700D01*
X4487300D01*
Y675400D01*
D02*
G37*
G36*
X4675400Y487300D02*
X4512700D01*
Y324600D01*
X4523092D01*
X4567702Y336553D01*
X4607698Y359645D01*
X4640355Y392302D01*
X4663447Y432298D01*
X4675400Y476908D01*
Y487300D01*
D02*
G37*
G36*
X4487300D02*
X4324600D01*
Y476908D01*
X4336553Y432298D01*
X4359645Y392302D01*
X4392302Y359645D01*
X4432298Y336553D01*
X4476908Y324600D01*
X4487300D01*
Y487300D01*
D02*
G37*
G36*
X4869971Y300400D02*
X4862700D01*
Y212700D01*
X4950400D01*
Y219971D01*
X4935115Y256872D01*
X4906872Y285115D01*
X4869971Y300400D01*
D02*
G37*
G36*
X4837300D02*
X4830029D01*
X4793128Y285115D01*
X4764885Y256872D01*
X4749600Y219971D01*
Y212700D01*
X4837300D01*
Y300400D01*
D02*
G37*
G36*
X4169971D02*
X4162700D01*
Y212700D01*
X4250400D01*
Y219971D01*
X4235115Y256872D01*
X4206872Y285115D01*
X4169971Y300400D01*
D02*
G37*
G36*
X4137300D02*
X4130029D01*
X4093128Y285115D01*
X4064885Y256872D01*
X4049600Y219971D01*
Y212700D01*
X4137300D01*
Y300400D01*
D02*
G37*
G36*
X4950400Y187300D02*
X4862700D01*
Y99600D01*
X4869971D01*
X4906872Y114885D01*
X4935115Y143128D01*
X4950400Y180029D01*
Y187300D01*
D02*
G37*
G36*
X4837300D02*
X4749600D01*
Y180029D01*
X4764885Y143128D01*
X4793128Y114885D01*
X4830029Y99600D01*
X4837300D01*
Y187300D01*
D02*
G37*
G36*
X4250400D02*
X4162700D01*
Y99600D01*
X4169971D01*
X4206872Y114885D01*
X4235115Y143128D01*
X4250400Y180029D01*
Y187300D01*
D02*
G37*
G36*
X4137300D02*
X4049600D01*
Y180029D01*
X4064885Y143128D01*
X4093128Y114885D01*
X4130029Y99600D01*
X4137300D01*
Y187300D01*
D02*
G37*
G36*
X16882700Y9154304D02*
Y9102700D01*
X16934303D01*
X16930943Y9115244D01*
X16922333Y9130157D01*
X16910156Y9142333D01*
X16895244Y9150943D01*
X16882700Y9154304D01*
D02*
G37*
G36*
X16857300D02*
X16844757Y9150943D01*
X16829843Y9142333D01*
X16817667Y9130157D01*
X16809058Y9115244D01*
X16805696Y9102700D01*
X16857300D01*
Y9154304D01*
D02*
G37*
G36*
X16934303Y9077300D02*
X16882700D01*
Y9025696D01*
X16895244Y9029057D01*
X16910156Y9037667D01*
X16922333Y9049843D01*
X16930943Y9064757D01*
X16934303Y9077300D01*
D02*
G37*
G36*
X16857300D02*
X16805696D01*
X16809058Y9064757D01*
X16817667Y9049843D01*
X16829843Y9037667D01*
X16844757Y9029057D01*
X16857300Y9025696D01*
Y9077300D01*
D02*
G37*
G36*
X16787700Y8583973D02*
Y8532369D01*
X16839304D01*
X16835944Y8544913D01*
X16827333Y8559826D01*
X16815157Y8572002D01*
X16800244Y8580612D01*
X16787700Y8583973D01*
D02*
G37*
G36*
X16762300D02*
X16749756Y8580612D01*
X16734843Y8572002D01*
X16722667Y8559826D01*
X16714056Y8544913D01*
X16710696Y8532369D01*
X16762300D01*
Y8583973D01*
D02*
G37*
G36*
X16839304Y8506969D02*
X16787700D01*
Y8455365D01*
X16800244Y8458726D01*
X16815157Y8467336D01*
X16827333Y8479512D01*
X16835944Y8494425D01*
X16839304Y8506969D01*
D02*
G37*
G36*
X16762300D02*
X16710696D01*
X16714056Y8494425D01*
X16722667Y8479512D01*
X16734843Y8467336D01*
X16749756Y8458726D01*
X16762300Y8455365D01*
Y8506969D01*
D02*
G37*
G36*
X17087700Y8239304D02*
Y8187700D01*
X17139304D01*
X17135944Y8200243D01*
X17127333Y8215157D01*
X17115157Y8227333D01*
X17100243Y8235943D01*
X17087700Y8239304D01*
D02*
G37*
G36*
X17062300D02*
X17049756Y8235943D01*
X17034843Y8227333D01*
X17022667Y8215157D01*
X17014056Y8200243D01*
X17010696Y8187700D01*
X17062300D01*
Y8239304D01*
D02*
G37*
G36*
X17139304Y8162300D02*
X17087700D01*
Y8110696D01*
X17100243Y8114057D01*
X17115157Y8122667D01*
X17127333Y8134843D01*
X17135944Y8149756D01*
X17139304Y8162300D01*
D02*
G37*
G36*
X16142368Y8077600D02*
X16079668D01*
Y7984900D01*
X16142368D01*
Y8077600D01*
D02*
G37*
G36*
X16054266D02*
X15991568D01*
Y7984900D01*
X16054266D01*
Y8077600D01*
D02*
G37*
G36*
X16142368Y7959500D02*
X16079668D01*
Y7866800D01*
X16142368D01*
Y7959500D01*
D02*
G37*
G36*
X16054266D02*
X15991568D01*
Y7866800D01*
X16054266D01*
Y7959500D01*
D02*
G37*
G36*
X16142368Y7840300D02*
X16079668D01*
Y7747600D01*
X16142368D01*
Y7840300D01*
D02*
G37*
G36*
X16054266D02*
X15991568D01*
Y7747600D01*
X16054266D01*
Y7840300D01*
D02*
G37*
G36*
X15861766Y7716504D02*
Y7664900D01*
X15913370D01*
X15910008Y7677443D01*
X15901399Y7692356D01*
X15889223Y7704533D01*
X15874310Y7713143D01*
X15861766Y7716504D01*
D02*
G37*
G36*
X16142368Y7722200D02*
X16066966D01*
X15991568D01*
Y7643113D01*
X15991568Y7629500D01*
X15991568Y7604500D01*
Y7525414D01*
X16066966D01*
X16142368D01*
Y7604500D01*
X16142368Y7618113D01*
X16142368Y7643113D01*
Y7722200D01*
D02*
G37*
G36*
Y7500014D02*
X16079668D01*
Y7407313D01*
X16142368D01*
Y7500014D01*
D02*
G37*
G36*
X16054266D02*
X15991568D01*
Y7407313D01*
X16054266D01*
Y7500014D01*
D02*
G37*
G36*
X16142368Y7356485D02*
X16079669D01*
Y7263786D01*
X16142368D01*
Y7356485D01*
D02*
G37*
G36*
X16054269D02*
X15991568D01*
Y7263786D01*
X16054269D01*
Y7356485D01*
D02*
G37*
G36*
X15915314Y7277400D02*
X15863710D01*
Y7225796D01*
X15876253Y7229157D01*
X15891167Y7237767D01*
X15903343Y7249943D01*
X15911954Y7264856D01*
X15915314Y7277400D01*
D02*
G37*
G36*
X15863710Y7088088D02*
Y7036484D01*
X15915314D01*
X15911954Y7049028D01*
X15903343Y7063941D01*
X15891167Y7076117D01*
X15876253Y7084727D01*
X15863710Y7088088D01*
D02*
G37*
G36*
X16142368Y7238386D02*
X16066969D01*
X15991568D01*
Y7151731D01*
X15991568Y7145685D01*
X15993666Y7121555D01*
Y7034900D01*
X16069066D01*
X16144466D01*
Y7121554D01*
X16144466Y7127600D01*
X16142368Y7151730D01*
Y7152600D01*
Y7238386D01*
D02*
G37*
G36*
X15915314Y7011084D02*
X15863710D01*
Y6959480D01*
X15876253Y6962841D01*
X15891167Y6971451D01*
X15903343Y6983627D01*
X15911954Y6998540D01*
X15915314Y7011084D01*
D02*
G37*
G36*
X16144466Y7009500D02*
X16081766D01*
Y6916800D01*
X16144466D01*
Y7009500D01*
D02*
G37*
G36*
X16056366D02*
X15993666D01*
Y6916800D01*
X16056366D01*
Y7009500D01*
D02*
G37*
G36*
X15970766Y6767943D02*
Y6716339D01*
X16022369D01*
X16019009Y6728883D01*
X16010399Y6743796D01*
X15998222Y6755972D01*
X15983308Y6764582D01*
X15970766Y6767943D01*
D02*
G37*
G36*
X15945366D02*
X15932822Y6764582D01*
X15917909Y6755972D01*
X15905733Y6743796D01*
X15897124Y6728883D01*
X15893762Y6716339D01*
X15945366D01*
Y6767943D01*
D02*
G37*
G36*
X16022369Y6690939D02*
X15970766D01*
Y6639335D01*
X15983308Y6642696D01*
X15998222Y6651306D01*
X16010399Y6663482D01*
X16019009Y6678396D01*
X16022369Y6690939D01*
D02*
G37*
G36*
X15945366D02*
X15893762D01*
X15897124Y6678396D01*
X15905733Y6663482D01*
X15917909Y6651306D01*
X15932822Y6642696D01*
X15945366Y6639335D01*
Y6690939D01*
D02*
G37*
G36*
X17024316Y6426504D02*
Y6374900D01*
X17075920D01*
X17072559Y6387443D01*
X17063950Y6402357D01*
X17051773Y6414533D01*
X17036859Y6423143D01*
X17024316Y6426504D01*
D02*
G37*
G36*
X16998917D02*
X16986372Y6423143D01*
X16971458Y6414533D01*
X16959283Y6402357D01*
X16950673Y6387443D01*
X16947311Y6374900D01*
X16998917D01*
Y6426504D01*
D02*
G37*
G36*
X16431566Y6623379D02*
X16366566D01*
X16342967Y6620273D01*
X16320976Y6611164D01*
X16302092Y6596673D01*
X16287602Y6577789D01*
X16278493Y6555799D01*
X16275386Y6532200D01*
X16278493Y6508600D01*
X16287602Y6486610D01*
X16302092Y6467726D01*
X16320976Y6453236D01*
X16340472Y6445160D01*
X16342967Y6437856D01*
Y6426544D01*
X16340472Y6419239D01*
X16320976Y6411164D01*
X16302092Y6396674D01*
X16287602Y6377790D01*
X16278493Y6355799D01*
X16277058Y6344899D01*
X16399065D01*
X16521074D01*
X16519640Y6355799D01*
X16510530Y6377790D01*
X16496040Y6396674D01*
X16477156Y6411164D01*
X16457660Y6419239D01*
X16455165Y6426544D01*
Y6437856D01*
X16457660Y6445160D01*
X16477156Y6453236D01*
X16496040Y6467726D01*
X16510530Y6486610D01*
X16519640Y6508600D01*
X16522746Y6532200D01*
X16519640Y6555799D01*
X16510530Y6577789D01*
X16496040Y6596673D01*
X16477156Y6611164D01*
X16455165Y6620273D01*
X16431566Y6623379D01*
D02*
G37*
G36*
X17075920Y6349500D02*
X17024316D01*
Y6297896D01*
X17036859Y6301257D01*
X17051773Y6309867D01*
X17063950Y6322043D01*
X17072559Y6336956D01*
X17075920Y6349500D01*
D02*
G37*
G36*
X16998917D02*
X16947311D01*
X16950673Y6336956D01*
X16959283Y6322043D01*
X16971458Y6309867D01*
X16986372Y6301257D01*
X16998917Y6297896D01*
Y6349500D01*
D02*
G37*
G36*
X16521074Y6319499D02*
X16411765D01*
Y6241020D01*
X16431566D01*
X16455165Y6244127D01*
X16477156Y6253236D01*
X16496040Y6267726D01*
X16510530Y6286610D01*
X16519640Y6308601D01*
X16521074Y6319499D01*
D02*
G37*
G36*
X16386365D02*
X16277058D01*
X16278493Y6308601D01*
X16287602Y6286610D01*
X16302092Y6267726D01*
X16320976Y6253236D01*
X16342967Y6244127D01*
X16366566Y6241020D01*
X16386365D01*
Y6319499D01*
D02*
G37*
G36*
X15451865Y9187581D02*
X15450569D01*
X15447421Y9187396D01*
X15444458Y9186655D01*
X15442052Y9185729D01*
X15440199Y9184618D01*
X15438533Y9183322D01*
X15437422Y9182396D01*
X15436681Y9181655D01*
X15436496Y9181470D01*
X15434830Y9179434D01*
X15433717Y9177212D01*
X15432793Y9175175D01*
X15432237Y9173138D01*
X15431866Y9171286D01*
X15431682Y9169990D01*
Y9169064D01*
Y9168694D01*
X15431866Y9165916D01*
X15432422Y9163509D01*
X15433163Y9161287D01*
X15434090Y9159436D01*
X15435014Y9157769D01*
X15435754Y9156658D01*
X15436311Y9155917D01*
X15436496Y9155732D01*
X15438718Y9153695D01*
X15440939Y9152399D01*
X15443347Y9151288D01*
X15445569Y9150548D01*
X15447606Y9150177D01*
X15449088Y9149992D01*
X15450198Y9149807D01*
X15450569D01*
X15453716Y9149992D01*
X15456679Y9150733D01*
X15459087Y9151659D01*
X15460938Y9152770D01*
X15462604Y9153881D01*
X15463715Y9154806D01*
X15464456Y9155547D01*
X15464641Y9155732D01*
X15466122Y9157769D01*
X15467233Y9159991D01*
X15468159Y9162028D01*
X15468715Y9164250D01*
X15469086Y9165916D01*
X15469270Y9167398D01*
Y9168324D01*
Y9168694D01*
X15469086Y9171286D01*
X15468530Y9173879D01*
X15467789Y9175915D01*
X15466862Y9177952D01*
X15466122Y9179434D01*
X15465382Y9180545D01*
X15464825Y9181285D01*
X15464641Y9181470D01*
X15462419Y9183507D01*
X15460011Y9184988D01*
X15457605Y9186099D01*
X15455383Y9186840D01*
X15453531Y9187210D01*
X15451865Y9187581D01*
D02*
G37*
G36*
X15451680Y9137401D02*
X15448347D01*
X15446310Y9137030D01*
X15442606Y9136105D01*
X15439459Y9134809D01*
X15436681Y9133512D01*
X15434459Y9132031D01*
X15432977Y9130735D01*
X15432053Y9129809D01*
X15431682Y9129624D01*
Y9129439D01*
X15429645Y9126661D01*
X15427979Y9123699D01*
X15426868Y9120921D01*
X15426128Y9118144D01*
X15425755Y9115922D01*
X15425386Y9114070D01*
Y9113329D01*
Y9112774D01*
Y9112589D01*
Y9112403D01*
X15425571Y9108700D01*
X15426312Y9105367D01*
X15427423Y9102404D01*
X15428534Y9099812D01*
X15429645Y9097775D01*
X15430756Y9096294D01*
X15431496Y9095368D01*
X15431682Y9094998D01*
X15434459Y9092405D01*
X15437607Y9090554D01*
X15440755Y9089258D01*
X15443716Y9088332D01*
X15446495Y9087776D01*
X15448532Y9087591D01*
X15449458Y9087406D01*
X15450569D01*
X15454642Y9087776D01*
X15458347Y9088702D01*
X15461678Y9089813D01*
X15464456Y9091294D01*
X15466493Y9092776D01*
X15468159Y9093887D01*
X15469086Y9094813D01*
X15469455Y9095183D01*
X15471492Y9097960D01*
X15472974Y9100923D01*
X15474084Y9103701D01*
X15474825Y9106478D01*
X15475195Y9108885D01*
X15475381Y9110737D01*
X15475566Y9111478D01*
Y9112033D01*
Y9112218D01*
Y9112403D01*
X15475381Y9116107D01*
X15474640Y9119255D01*
X15473714Y9122217D01*
X15472418Y9124810D01*
X15471307Y9126846D01*
X15470381Y9128328D01*
X15469641Y9129254D01*
X15469455Y9129624D01*
X15466678Y9132216D01*
X15463530Y9134068D01*
X15460382Y9135549D01*
X15457420Y9136475D01*
X15454642Y9137030D01*
X15452605Y9137216D01*
X15451680Y9137401D01*
D02*
G37*
%LPD*%
D15*
X16066968Y7251085D02*
D03*
X16069066Y7022200D02*
D03*
X16066968Y7734900D02*
D03*
Y7972200D02*
D03*
Y7512713D02*
D03*
X16366966Y7512714D02*
D03*
X16369064Y7022201D02*
D03*
X16366966Y7251083D02*
D03*
X16366966Y7972200D02*
D03*
Y7734900D02*
D03*
D17*
X16749066Y6982201D02*
D03*
X16749068Y7282199D02*
D03*
D45*
X16380000Y9945416D02*
Y10022639D01*
X16255000Y9820416D02*
X16380000Y9945416D01*
X16255000Y9679584D02*
Y9820416D01*
Y9679584D02*
X16380000Y9554584D01*
Y9450000D02*
Y9554584D01*
X18143237Y7004250D02*
X18957751D01*
X18013988Y6875000D02*
X18143237Y7004250D01*
X16487500Y2012500D02*
X16952757Y2477757D01*
Y3607540D01*
X16327699Y9075000D02*
Y9450000D01*
Y8811894D02*
Y9075000D01*
Y8755298D02*
X16669702D01*
X16271104D02*
X16327699D01*
X15700000Y10100000D02*
X16379706D01*
X15025000D02*
X15700000D01*
X12275000Y6083081D02*
X12360380Y5997701D01*
Y5385380D02*
Y5997701D01*
X12275000Y5300000D02*
X12360380Y5385380D01*
X16379706Y10100000D02*
X16380000Y10099706D01*
X12217713Y8530000D02*
X12305581Y8442132D01*
X7046967Y1421967D02*
X8334787Y2709787D01*
X16669702Y8755298D02*
X17925000Y7500000D01*
X14929999Y10195001D02*
X15025000Y10100000D01*
X14925000Y10200000D02*
X14929999Y10195001D01*
X8521460Y8980460D02*
X8721920Y8780000D01*
X13425684Y10200000D02*
X14925000D01*
X13359946Y10134260D02*
X13425684Y10200000D01*
X14129999Y10225000D02*
Y10470000D01*
X14929999Y10195001D02*
Y10470000D01*
X14929999Y10470000D01*
X15130000D01*
X14330000Y10470000D02*
X14330000Y10470000D01*
X14129999Y10470000D02*
X14330000D01*
X12622785Y10082199D02*
X12674847Y10134260D01*
X12616655Y10082199D02*
X12622785D01*
X17838426Y7409106D02*
X17925000Y7322532D01*
X13564859Y8319779D02*
Y8541700D01*
X12305581Y9771125D02*
X12616655Y10082199D01*
X12305581Y9511669D02*
Y9771125D01*
X8035000Y4100000D02*
X8585000Y3550000D01*
Y3250000D02*
Y3550000D01*
X9475000Y5900000D02*
X9555000Y5820000D01*
Y5680000D02*
Y5820000D01*
X8035000Y4160000D02*
X9555000Y5680000D01*
X8035000Y4100000D02*
Y4160000D01*
X9555000Y5680000D02*
X10090000D01*
X7575000Y9150000D02*
X8259000D01*
Y9242920D01*
X2275000Y8475000D02*
X2282001Y8468000D01*
X2925000D01*
X2268000D02*
X2275000Y8475000D01*
X560368Y8468000D02*
X2268000D01*
X14525000Y3000000D02*
X14750000Y3225000D01*
X8625001Y2799999D02*
Y3000000D01*
X14525000D01*
X8625001D02*
Y3210000D01*
X12305581Y8541700D02*
Y9511669D01*
Y8541700D02*
X13564859D01*
X12217713Y8530000D02*
X12229414Y8541700D01*
X12305581D01*
X13564859D02*
X14223547D01*
X12100000Y3200000D02*
Y3850000D01*
X12275000Y5015000D02*
Y5300000D01*
X12000000Y4740000D02*
X12275000Y5015000D01*
X12029591Y6083081D02*
X12275000D01*
X12305581Y6113663D02*
Y6700000D01*
X12275000Y6083081D02*
X12305581Y6113663D01*
Y6700000D02*
X12661163D01*
X12305581D02*
Y7887656D01*
X17925000Y7322532D02*
Y7500000D01*
Y7175000D02*
Y7322532D01*
X10102700Y5680000D02*
X11044939D01*
X17925000Y7175000D02*
X17948425Y7151574D01*
X17972487Y6758499D02*
Y6833499D01*
X18013988Y6875000D01*
X18124277Y4130000D02*
X18149277D01*
X17972487Y4306789D02*
X18119276Y4160000D01*
X17972487Y4306789D02*
Y6758499D01*
X18119276Y4135001D02*
X18124277Y4130000D01*
X18119276Y4135001D02*
Y4160000D01*
X17380205Y4343500D02*
X17910777D01*
X16271104Y8755298D02*
X16327699Y8811894D01*
X17075000Y3700000D02*
Y4038295D01*
X17380205Y4343500D01*
X16982539Y3607540D02*
X17075000Y3700000D01*
X16952757Y3607540D02*
X16982539D01*
X15971758Y3500000D02*
X15977310Y3505553D01*
X15649600Y3500000D02*
X15971758D01*
X14250000Y8515248D02*
Y8940000D01*
X12305581Y8442132D02*
Y8541700D01*
X11767449Y9518584D02*
X11774364Y9511669D01*
X11576850Y9327985D02*
X11767449Y9518584D01*
X11774364Y9511669D02*
X12305581D01*
X11576850Y8776850D02*
Y9327985D01*
X11491784Y9242920D02*
X11576850Y9327985D01*
X8521460Y9242920D02*
X11491784D01*
X12055619Y8530000D02*
X12217713D01*
X12264787Y7928451D02*
X12305581Y7887656D01*
Y8442132D01*
X12041609Y7928451D02*
X12264787D01*
X8475000Y9196460D02*
X8521460Y9242920D01*
X8475000Y8934000D02*
Y9196460D01*
X8259000Y9242920D02*
X8521460D01*
X8259000D02*
Y10916000D01*
X8075000Y11100000D02*
X8259000Y10916000D01*
X9024224Y8780000D02*
X9162500D01*
X8721920D02*
X9024224D01*
X6275000Y11100000D02*
X8075000D01*
X5275000Y10100000D02*
X6275000Y11100000D01*
X2925000Y10041421D02*
X2983579Y10100000D01*
X5275000D01*
X475000Y8975000D02*
Y9535000D01*
X477500Y9537500D01*
X472500Y8972500D02*
X475000Y8975000D01*
X2925000Y8468000D02*
Y10041421D01*
X472500Y8555868D02*
X560368Y8468000D01*
X472500Y8555868D02*
Y8972500D01*
X10663602Y6871458D02*
X10750060Y6784999D01*
X10441001Y6871458D02*
X10663602D01*
X11961510Y6015000D02*
X12029591Y6083081D01*
X11379939Y6015000D02*
X11961510D01*
X11044939Y5680000D02*
X11379939Y6015000D01*
X8585000Y3250000D02*
X8625001Y3210000D01*
X8634786Y2709787D02*
X8674999Y2750000D01*
X8625001Y2799999D02*
X8674999Y2750000D01*
X8334787Y2709787D02*
X8634786D01*
X6000000Y1921967D02*
Y1950000D01*
Y1921967D02*
X6500000Y1421967D01*
X7046967D01*
D46*
X11525000Y7400000D02*
X11647450Y7277550D01*
Y6992854D02*
Y7277550D01*
X11250000Y8400000D02*
X11440000D01*
X9650000Y8625000D02*
X9875000D01*
X12626255Y10350022D02*
X12800000Y10176277D01*
Y8880431D02*
Y10176277D01*
X13504884Y9154884D02*
X13525000Y9175000D01*
X13244614Y9154884D02*
X13504884D01*
X12970161Y8880431D02*
X13244614Y9154884D01*
X12800000Y8880431D02*
X12970161D01*
X13730009Y9905010D02*
X14039999D01*
X13050000Y9225000D02*
X13730009Y9905010D01*
X13050000Y9125000D02*
Y9225000D01*
X13911395Y8975000D02*
Y9175000D01*
X12849730Y8140026D02*
X13396378D01*
X12825000Y6104960D02*
Y8115296D01*
X12907301Y4192699D02*
Y5065529D01*
X12825000Y8115296D02*
Y8200000D01*
Y8115296D02*
X12849730Y8140026D01*
X13110001Y3990000D02*
X13120000D01*
X12907301Y4192699D02*
X13110001Y3990000D01*
X12073067Y10350022D02*
X12629653D01*
X12637300Y5917260D02*
X12825000Y6104960D01*
X12720000Y5252829D02*
Y5263044D01*
Y5252829D02*
X12907301Y5065529D01*
X12637300Y5345744D02*
Y5917260D01*
Y5345744D02*
X12720000Y5263044D01*
X2665634Y7825000D02*
X2685225Y7844591D01*
X2700000D01*
X2025000Y7825000D02*
X2665634D01*
X9927301Y6722700D02*
X10589655D01*
X9850000Y6800000D02*
X9927301Y6722700D01*
X9802179Y6639999D02*
X10689999D01*
X9760000Y6670000D02*
X9772179D01*
X9802179Y6639999D01*
X13778465Y5806188D02*
X14337103D01*
X14355916Y5825000D01*
X14925000D01*
X12450581Y6353137D02*
X12661163D01*
X17778375Y5931762D02*
Y6025000D01*
X17723080Y5876469D02*
X17778375Y5931762D01*
X17723080Y5593186D02*
Y5876469D01*
X15805000Y9400000D02*
X15955000Y9550000D01*
X15400000Y9400000D02*
X15805000D01*
X16775000Y8500000D02*
Y8519669D01*
X11144050Y9075000D02*
X11347699Y8871351D01*
X10962620Y9075000D02*
X11144050D01*
X9650000Y8925000D02*
X9800000Y9075000D01*
X10694681D01*
X11907388Y7767612D02*
X11914776Y7775000D01*
X11900000Y6972700D02*
X11907388Y6980088D01*
Y7767612D01*
X11816850Y8776850D02*
X11900000D01*
X11440000Y8400000D02*
X11816850Y8776850D01*
X16335001Y10690000D02*
X16520000Y10875000D01*
X16330000Y10690000D02*
X16335001D01*
X16520000Y10875000D02*
X16525000D01*
X12970000Y7520000D02*
X12980400Y7509600D01*
X13285579D02*
X13295979Y7499200D01*
X12980400Y7509600D02*
X13285579D01*
X12000000Y7017182D02*
Y7500000D01*
X12020000Y6982407D02*
Y6997182D01*
X12000000Y7017182D02*
X12020000Y6997182D01*
X16166966Y6822200D02*
X16399066D01*
X16406741Y7672426D02*
X16449435D01*
X16366966Y7251083D02*
X16366968Y7251084D01*
X16551010D01*
X16531009Y7061084D02*
X16545784D01*
X16551010Y7251084D02*
X16717950D01*
X16749068Y7282199D01*
X16479468Y7564951D02*
Y7642393D01*
X16449435Y7672426D02*
X16479468Y7642393D01*
X16349066Y7954299D02*
X16366966Y7972200D01*
X16349066Y7752802D02*
Y7954299D01*
Y7752802D02*
X16366966Y7734900D01*
Y7512714D02*
Y7632651D01*
X16406741Y7672426D01*
X10987136Y6997449D02*
X10989433Y6995151D01*
X11307703D01*
X11310000Y6992854D01*
X11275156Y9564844D02*
Y9575156D01*
X11276901Y9576901D01*
Y9764060D01*
D48*
X10895381Y8264500D02*
X11914776D01*
X13600000Y9050000D02*
X14375961Y9825962D01*
Y10055000D01*
X13272014Y9050000D02*
X13600000D01*
X15239999Y4144069D02*
X15831020D01*
X13102444Y8880431D02*
X13272014Y9050000D01*
X14590015Y9448186D02*
X14893124D01*
X14570000Y9002804D02*
X14653708Y8919097D01*
Y8537235D02*
Y8919097D01*
X14570000Y9428171D02*
X14590015Y9448186D01*
X14570000Y9002804D02*
Y9428171D01*
X14441473Y8325000D02*
X14653708Y8537235D01*
X15239999Y4155000D02*
Y5230000D01*
X14071213D02*
X15025000D01*
X14675835Y6875000D02*
X15025000Y6525834D01*
Y5230000D02*
X15239999D01*
X15025000D02*
Y6525834D01*
X15831020Y4144069D02*
X15831816Y4144865D01*
X15110001Y4025000D02*
X15239999Y4155000D01*
X14250000Y7470826D02*
Y7670000D01*
Y7470826D02*
X14276244Y7444583D01*
X14250000Y7000000D02*
Y7470826D01*
X14276244Y7444583D02*
X14475417D01*
X14250000Y7000000D02*
X14375000Y6875000D01*
X14675835D01*
X14039999Y5240000D02*
X14045740Y5234260D01*
X14066954D02*
X14071213Y5230000D01*
X14045740Y5234260D02*
X14066954D01*
X13720061Y8325000D02*
X14441473D01*
X13714839Y8319779D02*
X13720061Y8325000D01*
X9892606Y2436139D02*
X15088860D01*
X9556467Y2100000D02*
X9892606Y2436139D01*
X8720000Y2100000D02*
X9563494D01*
X8420000Y2200000D02*
X8420977Y2199024D01*
X8620977D02*
X8720000Y2100000D01*
X8420977Y2199024D02*
X8620977D01*
X17895000Y3630001D02*
X18405000D01*
X18825000Y4050000D01*
X19314732Y4710897D02*
X19342337Y4738500D01*
X19314732Y4664733D02*
Y4710897D01*
X19342337Y4738500D02*
Y6322662D01*
X19300000Y4650000D02*
X19314732Y4664733D01*
X19150000Y2500725D02*
Y4475000D01*
X13656313Y8150199D02*
X15528799D01*
X15674802Y8296201D01*
X15856201D01*
X19767632Y4269797D02*
X20700000Y3337427D01*
X19767632Y4269797D02*
Y4277225D01*
X20700000Y3330000D02*
Y3337427D01*
X19050000Y6614999D02*
X19342337Y6322662D01*
X20050000Y1450000D02*
Y1825000D01*
X20038657Y1357212D02*
Y1438656D01*
X20031444Y1350000D02*
X20038657Y1357212D01*
Y1438656D02*
X20050000Y1450000D01*
X13609169Y8103055D02*
X13656313Y8150199D01*
X13609169Y7811051D02*
Y8103055D01*
X13392445Y8319779D02*
X13609169Y8103055D01*
X13643163Y7560000D02*
Y7777057D01*
Y6587057D02*
Y7560000D01*
X13609169Y7811051D02*
X13643163Y7777057D01*
X10950405Y6902449D02*
X10999369Y6853484D01*
X10892136Y6958099D02*
X10947786Y6902449D01*
X10999369Y6725000D02*
Y6853484D01*
X10947786Y6902449D02*
X10950405D01*
X10892136Y6958099D02*
Y8261255D01*
X10999369Y6725000D02*
X11200000D01*
X7634423Y7675000D02*
X10274132D01*
X10312161Y7746704D02*
X10317901Y7752444D01*
X10312161Y7713029D02*
Y7746704D01*
X7392000Y7432577D02*
X7634423Y7675000D01*
X10274132D02*
X10312161Y7713029D01*
X12950000Y8349069D02*
Y8350000D01*
Y8349069D02*
X12979289Y8319779D01*
X13392445D01*
X14504782Y6012700D02*
X14517482Y6000000D01*
X14925000D01*
X13396153Y6433905D02*
X13431163Y6398895D01*
X13349214Y6433905D02*
X13396153D01*
X13300000Y6475000D02*
X13308118D01*
X13349214Y6433905D01*
X13510651Y6454545D02*
X13643163Y6587057D01*
X13455000Y6384325D02*
Y6398895D01*
X13431163Y6360487D02*
X13455000Y6384325D01*
X13617300Y6850885D02*
X13625418D01*
X13431380Y7560000D02*
X13643163D01*
X13431163Y5995889D02*
Y6360487D01*
X15700000Y9581788D02*
Y10106165D01*
X16950000Y7011490D02*
Y8025000D01*
X16475000Y8500000D02*
X16950000Y8025000D01*
X16060001Y8500000D02*
X16475000D01*
X15856201Y8296201D02*
X16060001Y8500000D01*
X17439452Y4085548D02*
X17895000Y3630001D01*
X11200000Y6725000D02*
X11450000Y6475000D01*
X16749066Y6982201D02*
X16920711D01*
X16950000Y7011490D01*
X8050000Y9300000D02*
Y9825000D01*
X18149277Y1500001D02*
X18159921D01*
X18201497Y1541576D01*
Y1552222D01*
X19150000Y2500725D01*
X7392000Y7425000D02*
Y7432577D01*
X13447974Y6012700D02*
X14504782D01*
X12989999Y7760000D02*
X13231380D01*
X13431380Y7560000D01*
X13431163Y5995889D02*
X13447974Y6012700D01*
X13120000Y5684727D02*
X13431163Y5995889D01*
X13120000Y4250000D02*
Y5684727D01*
X10865000Y8511869D02*
X10980000Y8626869D01*
X10892136Y8261255D02*
X10895381Y8264500D01*
X10865000Y8288391D02*
X10892136Y8261255D01*
X10860000Y7743834D02*
X10895381Y7779215D01*
X10865000Y8288391D02*
Y8511869D01*
X10317901Y7743834D02*
X10860000D01*
X10981396Y7135327D02*
X10987136Y7141067D01*
X10910028Y7135327D02*
X10981396D01*
X10896826Y7122125D02*
X10910028Y7135327D01*
X16406364Y7061084D02*
X16531009D01*
X16545784D02*
X16587367Y7019501D01*
X16711765D01*
D49*
X15075000Y4537366D02*
Y5075000D01*
X15050000Y4512366D02*
X15075000Y4537366D01*
X15050000Y4230000D02*
Y4512366D01*
X16030000Y5930000D02*
X16050000Y5950000D01*
Y5535824D02*
X16075000Y5510824D01*
Y5500000D02*
Y5510824D01*
X16050000Y5950000D02*
X16125000Y6025000D01*
X16050000Y5535824D02*
Y5950000D01*
X15795000Y5930000D02*
X16030000D01*
X14380000Y5110000D02*
X15029176D01*
X15064175Y5075000D02*
X15075000D01*
X15029176Y5110000D02*
X15064175Y5075000D01*
X15260001Y9263407D02*
X16038406D01*
X16100000Y9325000D01*
Y9762695D01*
X15925000Y9937696D02*
X16100000Y9762695D01*
X12961716Y5213284D02*
X12989999Y5185000D01*
X12927167Y5213284D02*
X12961716D01*
X12890450Y5250000D02*
X12927167Y5213284D01*
X12879626Y5250000D02*
X12890450D01*
X17250000Y7113325D02*
X17255836Y7119163D01*
X17682381D02*
X17688219Y7125000D01*
X17255836Y7119163D02*
X17682381D01*
X12989999Y4270000D02*
Y5185000D01*
X15425000Y6300000D02*
X15795000Y5930000D01*
X15425000Y6300000D02*
Y7050000D01*
X15325000Y7150000D02*
X15425000Y7050000D01*
X7775000Y1550000D02*
X8175000Y1950000D01*
X9560084D01*
X12600000D01*
X12819289Y2169290D01*
Y2219289D02*
X12825000Y2225000D01*
X12819289Y2169290D02*
Y2219289D01*
X9560084Y1847149D02*
Y1950000D01*
X9556467Y1843532D02*
X9560084Y1847149D01*
X13122086Y2225000D02*
X13122086Y2225000D01*
X12825000Y2225000D02*
X13122086D01*
X14480000Y1480000D02*
Y1490000D01*
X15068657Y9454750D02*
X15260001Y9263407D01*
X15068657Y9454750D02*
Y9691482D01*
D50*
X13455000Y6398895D02*
X13510651Y6454545D01*
D51*
X20575000Y6037500D02*
Y6691998D01*
X20508499Y6758499D02*
X20575000Y6691998D01*
X16380000Y10061173D02*
Y10099706D01*
Y10022639D02*
Y10061173D01*
X11025000Y8395850D02*
X11302774Y8673624D01*
X9030000Y7830000D02*
Y8774224D01*
X14217163Y4961505D02*
X14720000Y4458668D01*
X20508499Y6758499D02*
X21000000Y7250000D01*
X14520605Y3760606D02*
X14720000Y3960000D01*
X14800002Y7475001D02*
X15229802D01*
X14500000Y7175000D02*
X14800002Y7475001D01*
X18150000Y2000724D02*
Y2650000D01*
X17000000Y2000001D02*
X18149277D01*
X15339999Y3650000D02*
Y4025000D01*
Y3650000D02*
X15510400Y3479600D01*
X15610001D01*
X17100000Y6817078D02*
X17158578Y6758499D01*
X17100000Y6817078D02*
Y7100000D01*
X17158578Y6758499D02*
X17824986D01*
X17838426Y6771939D02*
Y7409106D01*
X11302774Y8673624D02*
X11518271D01*
X11257686D02*
X11302774D01*
X11900000Y8522851D02*
X11903827Y8526678D01*
X12052296D02*
X12055619Y8530000D01*
X11903827Y8526678D02*
X12052296D01*
X13825000Y5200000D02*
X14063495Y4961505D01*
X13825000Y5200000D02*
Y5633383D01*
X14770001Y3910000D02*
X14775000Y3905000D01*
X14720000Y3960000D02*
X14770001Y3910000D01*
X16395000Y9090000D02*
X16870000D01*
X17972487Y6758499D02*
X20508499D01*
X17824986D02*
X17838426Y6771939D01*
X17824986Y6758499D02*
X17972487D01*
X16380000Y9075000D02*
X16395000Y9090000D01*
X14720000Y3960000D02*
Y4458668D01*
X14520605Y3653600D02*
Y3760606D01*
X11576850Y8732203D02*
Y8776850D01*
X11518271Y8673624D02*
X11576850Y8732203D01*
X11052733Y8880870D02*
X11257686Y8675917D01*
Y8673624D02*
Y8675917D01*
X11768745Y7928451D02*
X12041609D01*
X11152628Y7312333D02*
X11768745Y7928451D01*
X11152628Y7271894D02*
Y7312333D01*
X10828651Y8880870D02*
X11052733D01*
X9024224Y8780000D02*
X9030000Y8774224D01*
X11148801Y7268067D02*
X11152628Y7271894D01*
X14063495Y4961505D02*
X14217163D01*
D52*
X13550000Y6158073D02*
Y6359545D01*
Y6158073D02*
X13558073Y6150000D01*
X13552345Y6144271D02*
X13558073Y6150000D01*
D54*
X10694681Y9075000D02*
X10962620D01*
D58*
X1060582Y9250000D02*
X1250000D01*
D71*
X500000Y1600000D02*
D03*
X1700000Y4400000D02*
D03*
X9500000Y11000000D02*
D03*
Y500000D02*
D03*
X500000Y7050000D02*
D03*
X4500000Y500000D02*
D03*
X11000000D02*
D03*
X1700000Y5850000D02*
D03*
X500000Y500000D02*
D03*
X11800000Y11000000D02*
D03*
X500000D02*
D03*
X21500000Y500000D02*
D03*
Y11000000D02*
D03*
X12500000D02*
D03*
X11000000D02*
D03*
D72*
X20000000Y11000000D02*
D03*
X2000000Y500000D02*
D03*
X20000000D02*
D03*
D73*
X19150000Y4475000D02*
D03*
X19121982Y6184999D02*
D03*
X16550000Y2200000D02*
D03*
X10350000Y3000000D02*
D03*
X19133603Y7450000D02*
D03*
X15020000Y8760827D02*
D03*
X8100000Y1150000D02*
D03*
X8271150Y1500000D02*
D03*
X15375000Y8854201D02*
D03*
X12190380Y5825881D02*
D03*
Y5525884D02*
D03*
X9922219Y1387737D02*
D03*
X11276901Y9975000D02*
D03*
X11450000Y6675000D02*
D03*
X13700000Y6198383D02*
D03*
X16425000Y9750000D02*
D03*
X17600000Y5975000D02*
D03*
X16779066Y7600000D02*
D03*
X17125000Y8542701D02*
D03*
X6985000Y1930000D02*
D03*
Y3180000D02*
D03*
X7575000Y9150000D02*
D03*
X6000000Y1950000D02*
D03*
X7575000Y10400000D02*
D03*
X6000000Y3200000D02*
D03*
D74*
X3549999Y5329994D02*
D03*
Y9530000D02*
D03*
X5450000D02*
D03*
Y5329994D02*
D03*
D75*
X15330000Y10470000D02*
D03*
X14730000Y10469999D02*
D03*
X15130000Y10470000D02*
D03*
X14330000Y10470000D02*
D03*
X14929999D02*
D03*
X14129999Y10470000D02*
D03*
X14530000Y10470000D02*
D03*
X14730000Y10670000D02*
D03*
X14530000Y10670001D02*
D03*
X14330000Y10670000D02*
D03*
X14130000Y10669999D02*
D03*
X13930000Y10670000D02*
D03*
X14930000D02*
D03*
X15130000Y10670000D02*
D03*
X15330000Y10670000D02*
D03*
D76*
X3550000Y10250000D02*
D03*
X3000000Y5779237D02*
D03*
X4807368Y4600000D02*
D03*
X4061107D02*
D03*
X21000000Y7250000D02*
D03*
Y6950000D02*
D03*
Y7100000D02*
D03*
Y5675000D02*
D03*
Y5525000D02*
D03*
Y5825000D02*
D03*
X20700304Y4405000D02*
D03*
X20900000D02*
D03*
X21100000D02*
D03*
X14250000Y8940000D02*
D03*
X8674999Y2750000D02*
D03*
D77*
X18149277Y1500001D02*
D03*
Y2000001D02*
D03*
X18150000Y2650000D02*
D03*
X18150002Y2999997D02*
D03*
X18149277Y4130000D02*
D03*
Y3630001D02*
D03*
D78*
X6910000Y9433000D02*
D03*
Y8925000D02*
D03*
Y9941000D02*
D03*
X6884000Y5775000D02*
D03*
X7900000D02*
D03*
X7392000D02*
D03*
X6884000Y4950000D02*
D03*
X7392000D02*
D03*
X8010000D02*
D03*
X8475000Y8934000D02*
D03*
X7392000Y6600000D02*
D03*
X7900000D02*
D03*
X6884000D02*
D03*
Y8243818D02*
D03*
X7392000D02*
D03*
X7900000D02*
D03*
X7392000Y7425000D02*
D03*
X7900000D02*
D03*
X6884000D02*
D03*
X8475000Y9442000D02*
D03*
Y9950000D02*
D03*
D79*
X6910786Y10446682D02*
D03*
X8475000Y10458000D02*
D03*
D80*
X8408000Y5775000D02*
D03*
Y4950000D02*
D03*
Y6600000D02*
D03*
Y8243818D02*
D03*
Y7425000D02*
D03*
D81*
X5400000Y3054000D02*
D03*
D82*
Y2292000D02*
D03*
Y2800000D02*
D03*
Y2546000D02*
D03*
X11050000Y2725000D02*
D03*
D83*
X16399066Y6332200D02*
D03*
Y6532200D02*
D03*
D84*
X477500Y9537500D02*
D03*
X472500Y8972500D02*
D03*
X4810066Y3925000D02*
D03*
X4175000D02*
D03*
X4260000Y10805000D02*
D03*
X4825000Y10800000D02*
D03*
D85*
X2925000Y8468000D02*
D03*
Y10500000D02*
D03*
D86*
X8585000Y3250000D02*
D03*
X8035000Y4100000D02*
D03*
X7315000Y3250000D02*
D03*
X6765000Y4100000D02*
D03*
D87*
X6500000Y1421967D02*
D03*
Y3171967D02*
D03*
D88*
X20700000Y2314000D02*
D03*
Y3330000D02*
D03*
Y3838000D02*
D03*
Y1806000D02*
D03*
Y2822000D02*
D03*
D89*
X1250000Y2750000D02*
D03*
X3190000D02*
D03*
X1250000Y9250000D02*
D03*
D90*
X13930000Y10469999D02*
D03*
D91*
X11304000Y2725000D02*
D03*
D92*
X825000Y7380029D02*
D03*
X175000D02*
D03*
X817329Y6725000D02*
D03*
X175000D02*
D03*
X150000Y1950000D02*
D03*
X850000D02*
D03*
X9850000Y11300000D02*
D03*
Y10700000D02*
D03*
X9150000D02*
D03*
Y11300000D02*
D03*
X9850000Y775000D02*
D03*
X9150000D02*
D03*
X9850000Y175000D02*
D03*
X9150000D02*
D03*
X4850000Y800000D02*
D03*
X4150000D02*
D03*
X4850000Y200000D02*
D03*
X4150000D02*
D03*
D93*
X11647450Y6992854D02*
D03*
X11250000Y8400000D02*
D03*
X11025000Y8395850D02*
D03*
X9875000Y8625000D02*
D03*
X16380000Y10061173D02*
D03*
X14375961Y10055000D02*
D03*
X13525000Y9175000D02*
D03*
X13050000Y9125000D02*
D03*
X13911395Y8975000D02*
D03*
Y9175000D02*
D03*
X13600000Y9050000D02*
D03*
X13359946Y10134260D02*
D03*
X14039999Y9905010D02*
D03*
X14893124Y9437482D02*
D03*
X14653708Y8537235D02*
D03*
X15110001Y4025000D02*
D03*
X15088860Y2436139D02*
D03*
X14475417Y7444583D02*
D03*
X14250000Y7670000D02*
D03*
X14375000Y6875000D02*
D03*
X14039999Y5240000D02*
D03*
X13714839Y8319779D02*
D03*
X9556467Y2100000D02*
D03*
X8420000Y2200000D02*
D03*
X13396378Y8140026D02*
D03*
X12626255Y10350022D02*
D03*
X12073067D02*
D03*
X12800000Y8880431D02*
D03*
X12825000Y8200000D02*
D03*
X2700000Y7844591D02*
D03*
X2025000Y7825000D02*
D03*
X15493033Y8248783D02*
D03*
X15229802Y7475001D02*
D03*
X15339999Y4025000D02*
D03*
X13564859Y8319779D02*
D03*
X12622785Y10082199D02*
D03*
X15025000Y10100000D02*
D03*
X16125000Y6025000D02*
D03*
X16075000Y5500000D02*
D03*
X15075000Y5075000D02*
D03*
X2275000Y8475000D02*
D03*
X13102444Y8880431D02*
D03*
X12950000Y8350000D02*
D03*
X14461703Y4710121D02*
D03*
X14925000Y6000000D02*
D03*
Y5825000D02*
D03*
X16775000Y8519669D02*
D03*
X12100000Y3200000D02*
D03*
Y3850000D02*
D03*
X9475000Y5900000D02*
D03*
X12275000Y5300000D02*
D03*
Y6083081D02*
D03*
X13300000Y6475000D02*
D03*
X13617300Y6850885D02*
D03*
X12450581Y6353137D02*
D03*
X12661163Y6700000D02*
D03*
Y6353137D02*
D03*
X13550000Y6359545D02*
D03*
X13552345Y6144271D02*
D03*
X12879626Y5250000D02*
D03*
X11900000Y8522851D02*
D03*
X17688219Y7125000D02*
D03*
X17778375Y6025000D02*
D03*
X17075000Y8175000D02*
D03*
X17250000Y7113325D02*
D03*
X13778465Y5806188D02*
D03*
X13825000Y5633383D02*
D03*
X15700000Y9581788D02*
D03*
X15400000Y9400000D02*
D03*
X15955000Y9550000D02*
D03*
X15925000Y9937696D02*
D03*
X15325000Y7150000D02*
D03*
X16870000Y9090000D02*
D03*
X17100000Y7100000D02*
D03*
X17011617Y6362200D02*
D03*
X16380000Y9450000D02*
D03*
X16325000Y8186201D02*
D03*
X15849066Y7542200D02*
D03*
X15851010Y7290100D02*
D03*
X15849066Y7432200D02*
D03*
Y7652200D02*
D03*
X15851010Y7023784D02*
D03*
X15958066Y6703639D02*
D03*
X14500000Y7175000D02*
D03*
X16589999Y2945112D02*
D03*
X16416168Y2937725D02*
D03*
X16242500Y2945112D02*
D03*
X14770001Y3910000D02*
D03*
X11767449Y9518584D02*
D03*
X11190000Y6263804D02*
D03*
X11148801Y7268067D02*
D03*
X10828651Y8880870D02*
D03*
X10441001Y6871458D02*
D03*
X9270000Y7830000D02*
D03*
X9150000D02*
D03*
X9030000D02*
D03*
X14217163Y4961505D02*
D03*
X12000000Y4740000D02*
D03*
X10090000Y5680000D02*
D03*
X7075000Y1450000D02*
D03*
X7775000Y1550000D02*
D03*
X15050000Y4230000D02*
D03*
X11914776Y7775000D02*
D03*
X11525000Y7400000D02*
D03*
X10999369Y6725000D02*
D03*
X11450000Y6475000D02*
D03*
X10589655Y6722700D02*
D03*
X10689999Y6639999D02*
D03*
X8050000Y9300000D02*
D03*
Y9825000D02*
D03*
X16525000Y10875000D02*
D03*
X12825000Y2225000D02*
D03*
X9556467Y1843532D02*
D03*
X15856201Y8296201D02*
D03*
X13609169Y7819169D02*
D03*
X13120000Y4250000D02*
D03*
X10980000Y8626869D02*
D03*
X11935618Y8264500D02*
D03*
X12989999Y7760000D02*
D03*
X10860000Y7743834D02*
D03*
X10317901Y7752444D02*
D03*
X10987136Y7141067D02*
D03*
X13122086Y2225000D02*
D03*
X9650000Y8625000D02*
D03*
Y8925000D02*
D03*
X11347699Y8871351D02*
D03*
X9850000Y6800000D02*
D03*
X9760000Y6670000D02*
D03*
X12970000Y7520000D02*
D03*
X15068657Y9691482D02*
D03*
X15260001Y9263407D02*
D03*
X14380000Y5110000D02*
D03*
X12989999Y4270000D02*
D03*
X11900000Y8776850D02*
D03*
X12000000Y7500000D02*
D03*
X12020000Y6982407D02*
D03*
X11900000Y6972700D02*
D03*
X13295979Y7499200D02*
D03*
X17723080Y5593186D02*
D03*
X16531009Y7061084D02*
D03*
X16546165Y7652200D02*
D03*
Y7542200D02*
D03*
Y7432200D02*
D03*
X16399066Y6822200D02*
D03*
X16166966D02*
D03*
X16551010Y7251084D02*
D03*
X11310000Y6992854D02*
D03*
X10987136Y6997449D02*
D03*
X11275156Y9564844D02*
D03*
X11276901Y9764060D02*
D03*
X16330000Y10690000D02*
D03*
D94*
X15752499Y4152002D02*
D03*
X16272501Y4147002D02*
D03*
X13155000Y3890000D02*
D03*
X13150000Y3370000D02*
D03*
Y3650000D02*
D03*
X13020000Y1140000D02*
D03*
X13025000Y1660000D02*
D03*
X15000000Y1475000D02*
D03*
X14760001Y1480000D02*
D03*
X14480000D02*
D03*
D95*
X18825000Y4050000D02*
D03*
X19300000Y4650000D02*
D03*
X19767632Y4277225D02*
D03*
X20031444Y1350000D02*
D03*
X20050000Y1825000D02*
D03*
X17439452Y4085548D02*
D03*
X19050000Y6614999D02*
D03*
D96*
X16500000Y3260000D02*
D03*
Y3360000D02*
D03*
X16400000D02*
D03*
Y3160000D02*
D03*
Y3260000D02*
D03*
X16500000Y3160000D02*
D03*
X16474274Y780000D02*
D03*
Y880001D02*
D03*
Y980001D02*
D03*
X16300000Y3160000D02*
D03*
Y3260000D02*
D03*
Y3360000D02*
D03*
X16374274Y980001D02*
D03*
X16274274Y880001D02*
D03*
Y980001D02*
D03*
X16374274Y880001D02*
D03*
Y780000D02*
D03*
X16274274D02*
D03*
X14224274Y3360000D02*
D03*
Y3260000D02*
D03*
X14124274Y3160000D02*
D03*
X14224274D02*
D03*
X14124274Y3260000D02*
D03*
Y3360000D02*
D03*
X14024274Y3160000D02*
D03*
Y3260000D02*
D03*
Y3360000D02*
D03*
X14089999Y880000D02*
D03*
Y980000D02*
D03*
Y780000D02*
D03*
X13989999Y980000D02*
D03*
Y880000D02*
D03*
X13889999Y980000D02*
D03*
Y780000D02*
D03*
Y880000D02*
D03*
X13989999Y780000D02*
D03*
D97*
X500000Y1600000D02*
D03*
Y7050000D02*
D03*
D98*
X16011301Y4150000D02*
D03*
D99*
X15962500Y4035000D02*
D03*
D100*
X13135001Y3629999D02*
D03*
D101*
X2212500Y2856434D02*
D03*
D102*
X9500000Y11000000D02*
D03*
X9500000Y500000D02*
D03*
D103*
X4500000Y462500D02*
D03*
D104*
X14739999Y1495000D02*
D03*
D105*
X13077863Y1425000D02*
D03*
D106*
X10939309Y6580000D02*
X11222753Y6296556D01*
X11379939Y6139370D01*
X11190000Y6263804D02*
X11190000D01*
X11222753Y6296556D01*
X10750060Y6784999D02*
X10854369Y6680690D01*
Y6664939D02*
Y6680690D01*
X11379939Y6015000D02*
Y6139370D01*
D107*
X6854290Y1775000D02*
X7095710D01*
X6825000Y1804290D02*
X6854290Y1775000D01*
X6825000Y1804290D02*
Y2045710D01*
X6854290Y2075000D01*
X7095710D01*
Y1775000D02*
X7125000Y1804290D01*
X7095710Y2075000D02*
X7125000Y2045710D01*
Y1804290D02*
Y2045710D01*
D108*
X16327699Y10022639D02*
Y10111059D01*
D109*
X10854369Y6664939D02*
X10939309Y6580000D01*
D110*
X20575000Y6037500D02*
D03*
D111*
X18957751Y7004249D02*
D03*
D112*
X16262500Y8212500D02*
D03*
D113*
X16487500Y2012500D02*
D03*
D114*
X9150000Y8312500D02*
D03*
D115*
X14750000Y3225000D02*
D03*
D116*
X14700000Y775000D02*
D03*
D117*
X16454468Y7717200D02*
D03*
%TF.MD5,1e20562f691999cdca3e69a9b94efa16*%
M02*
