%TF.GenerationSoftware,Altium Limited,Altium Designer,25.8.1 (18)*%
G04 Layer_Color=16711935*
%FSLAX45Y45*%
%MOMM*%
%TF.SameCoordinates,8572D1E1-8A29-45F6-85B8-02B6E87FD275*%
%TF.FilePolarity,Negative*%
%TF.FileFunction,Soldermask,Bot*%
%TF.Part,Single*%
G01*
G75*
%TA.AperFunction,ViaPad*%
%ADD96C,0.60000*%
%TA.AperFunction,NonConductor*%
%ADD97R,9.00000X9.00000*%
%ADD98R,7.12602X2.00000*%
%ADD101R,34.25000X16.12868*%
%ADD102R,9.00000X10.00000*%
%ADD103R,9.00000X9.25000*%
%ADD107C,0.50000*%
%ADD119C,0.20000*%
%ADD121C,0.35000*%
%ADD122C,0.30000*%
%TA.AperFunction,SMDPad,CuDef*%
%ADD125R,1.20320X1.80320*%
%ADD127R,1.80320X1.20320*%
%TA.AperFunction,WasherPad*%
%ADD148C,3.20320*%
%ADD149C,4.20320*%
%TA.AperFunction,ComponentPad*%
%ADD150C,1.70320*%
%ADD151C,1.50320*%
%TA.AperFunction,ViaPad*%
%ADD152C,1.40320*%
%TA.AperFunction,ComponentPad*%
%ADD153O,2.30320X1.60320*%
%ADD154C,1.50620*%
%ADD155R,1.50620X1.50620*%
%ADD156R,1.50620X1.50620*%
%ADD157R,1.85320X1.85320*%
%ADD158C,1.85320*%
%ADD159O,2.15320X1.50320*%
%TA.AperFunction,WasherPad*%
%ADD160C,2.00320*%
%TA.AperFunction,ComponentPad*%
%ADD161C,2.10820*%
%ADD162C,1.60320*%
%ADD163C,2.05320*%
%ADD164C,2.60320*%
%ADD165C,8.20320*%
%ADD166R,1.50320X1.50320*%
%ADD167R,1.85320X1.85320*%
%TA.AperFunction,ViaPad*%
%ADD168C,1.70320*%
%ADD169C,1.00320*%
%ADD170C,2.00320*%
%ADD171C,1.47320*%
%TA.AperFunction,NonConductor*%
%ADD172C,0.40000*%
D96*
X16500000Y3260000D02*
D03*
Y3360000D02*
D03*
X16400000D02*
D03*
Y3160000D02*
D03*
Y3260000D02*
D03*
X16500000Y3160000D02*
D03*
X16474274Y780000D02*
D03*
Y880001D02*
D03*
Y980001D02*
D03*
X16300000Y3160000D02*
D03*
Y3260000D02*
D03*
Y3360000D02*
D03*
X16374274Y980001D02*
D03*
X16274274Y880001D02*
D03*
Y980001D02*
D03*
X16374274Y880001D02*
D03*
Y780000D02*
D03*
X16274274D02*
D03*
X14224274Y3360000D02*
D03*
Y3260000D02*
D03*
X14124274Y3160000D02*
D03*
X14224274D02*
D03*
X14124274Y3260000D02*
D03*
Y3360000D02*
D03*
X14024274Y3160000D02*
D03*
Y3260000D02*
D03*
Y3360000D02*
D03*
X14089999Y880000D02*
D03*
Y980000D02*
D03*
Y780000D02*
D03*
X13989999Y980000D02*
D03*
Y880000D02*
D03*
X13889999Y980000D02*
D03*
Y780000D02*
D03*
Y880000D02*
D03*
X13989999Y780000D02*
D03*
D97*
X500000Y1600000D02*
D03*
Y7050000D02*
D03*
D98*
X16011301Y4150000D02*
D03*
D101*
X2212500Y2856434D02*
D03*
D102*
X9500000Y11000000D02*
D03*
X9500000Y500000D02*
D03*
D103*
X4500000Y462500D02*
D03*
D107*
X1950000Y5850000D02*
G03*
X1950000Y5850000I-250000J0D01*
G01*
Y4400000D02*
G03*
X1950000Y4400000I-250000J0D01*
G01*
D119*
X3150000Y5779237D02*
G03*
X3150000Y5779237I-150000J0D01*
G01*
D121*
X5175000Y2800000D02*
X5650000D01*
D122*
X6935000Y4100000D02*
G03*
X6935000Y4100000I-170000J0D01*
G01*
X7054000Y4950000D02*
G03*
X7054000Y4950000I-170000J0D01*
G01*
Y5775000D02*
G03*
X7054000Y5775000I-170000J0D01*
G01*
Y6600000D02*
G03*
X7054000Y6600000I-170000J0D01*
G01*
Y7425000D02*
G03*
X7054000Y7425000I-170000J0D01*
G01*
Y8243818D02*
G03*
X7054000Y8243818I-170000J0D01*
G01*
X7080000Y8925000D02*
G03*
X7080000Y8925000I-170000J0D01*
G01*
X7080786Y10446682D02*
G03*
X7080786Y10446682I-170000J0D01*
G01*
X7745000Y10400000D02*
G03*
X7745000Y10400000I-170000J0D01*
G01*
X4980065Y3925000D02*
G03*
X4980065Y3925000I-170000J0D01*
G01*
X4345000D02*
G03*
X4345000Y3925000I-170000J0D01*
G01*
X4937368Y4600000D02*
G03*
X4937368Y4600000I-130000J0D01*
G01*
X4191107D02*
G03*
X4191107Y4600000I-130000J0D01*
G01*
X5676721Y9530000D02*
G03*
X5676721Y9530000I-226721J0D01*
G01*
X3776720D02*
G03*
X3776720Y9530000I-226721J0D01*
G01*
X5676721Y5329994D02*
G03*
X5676721Y5329994I-226721J0D01*
G01*
X3776720D02*
G03*
X3776720Y5329994I-226721J0D01*
G01*
D125*
X16066968Y7251085D02*
D03*
X16069066Y7022200D02*
D03*
X16066968Y7734900D02*
D03*
Y7972200D02*
D03*
Y7512713D02*
D03*
X16366966Y7512714D02*
D03*
X16369064Y7022201D02*
D03*
X16366966Y7251083D02*
D03*
X16366966Y7972200D02*
D03*
Y7734900D02*
D03*
D127*
X16749066Y6982201D02*
D03*
X16749068Y7282199D02*
D03*
D148*
X500000Y1600000D02*
D03*
X1700000Y4400000D02*
D03*
X9500000Y11000000D02*
D03*
Y500000D02*
D03*
X500000Y7050000D02*
D03*
X11000000Y500000D02*
D03*
X1700000Y5850000D02*
D03*
X500000Y500000D02*
D03*
X11800000Y11000000D02*
D03*
X500000D02*
D03*
X21500000Y500000D02*
D03*
Y11000000D02*
D03*
X12500000D02*
D03*
X11000000D02*
D03*
D149*
X20000000Y11000000D02*
D03*
X2000000Y500000D02*
D03*
X20000000D02*
D03*
D150*
X19150000Y4475000D02*
D03*
X19121982Y6184999D02*
D03*
X16550000Y2200000D02*
D03*
X10350000Y3000000D02*
D03*
X19133603Y7450000D02*
D03*
X15020000Y8760827D02*
D03*
X8100000Y1150000D02*
D03*
X8271150Y1500000D02*
D03*
X15375000Y8854201D02*
D03*
X12190380Y5825881D02*
D03*
Y5525884D02*
D03*
X9922219Y1387737D02*
D03*
X11276901Y9975000D02*
D03*
X11450000Y6675000D02*
D03*
X13700000Y6198383D02*
D03*
X16425000Y9750000D02*
D03*
X17600000Y5975000D02*
D03*
X16779066Y7600000D02*
D03*
X17125000Y8542701D02*
D03*
X6985000Y1930000D02*
D03*
Y3180000D02*
D03*
X7575000Y9150000D02*
D03*
X6000000Y1950000D02*
D03*
X7575000Y10400000D02*
D03*
X6000000Y3200000D02*
D03*
D151*
X15330000Y10470000D02*
D03*
X14730000Y10469999D02*
D03*
X15130000Y10470000D02*
D03*
X14330000Y10470000D02*
D03*
X14929999D02*
D03*
X14129999Y10470000D02*
D03*
X14530000Y10470000D02*
D03*
X14730000Y10670000D02*
D03*
X14530000Y10670001D02*
D03*
X14330000Y10670000D02*
D03*
X14130000Y10669999D02*
D03*
X13930000Y10670000D02*
D03*
X14930000D02*
D03*
X15130000Y10670000D02*
D03*
X15330000Y10670000D02*
D03*
D152*
X3550000Y10250000D02*
D03*
X3000000Y5779237D02*
D03*
X4807368Y4600000D02*
D03*
X4061107D02*
D03*
X21000000Y7250000D02*
D03*
Y6950000D02*
D03*
Y7100000D02*
D03*
Y5675000D02*
D03*
Y5525000D02*
D03*
Y5825000D02*
D03*
X20700304Y4405000D02*
D03*
X20900000D02*
D03*
X21100000D02*
D03*
X14250000Y8940000D02*
D03*
X8674999Y2750000D02*
D03*
D153*
X18149277Y1500001D02*
D03*
Y2000001D02*
D03*
X18150000Y2650000D02*
D03*
X18150002Y2999997D02*
D03*
X18149277Y4130000D02*
D03*
Y3630001D02*
D03*
D154*
X6910000Y9433000D02*
D03*
Y8925000D02*
D03*
Y9941000D02*
D03*
X6884000Y5775000D02*
D03*
X7900000D02*
D03*
X7392000D02*
D03*
X6884000Y4950000D02*
D03*
X7392000D02*
D03*
X8010000D02*
D03*
X8475000Y8934000D02*
D03*
X7392000Y6600000D02*
D03*
X7900000D02*
D03*
X6884000D02*
D03*
Y8243818D02*
D03*
X7392000D02*
D03*
X7900000D02*
D03*
X7392000Y7425000D02*
D03*
X7900000D02*
D03*
X6884000D02*
D03*
X8475000Y9442000D02*
D03*
Y9950000D02*
D03*
D155*
X6910786Y10446682D02*
D03*
X8475000Y10458000D02*
D03*
D156*
X8408000Y5775000D02*
D03*
Y4950000D02*
D03*
Y6600000D02*
D03*
Y8243818D02*
D03*
Y7425000D02*
D03*
D157*
X5400000Y3054000D02*
D03*
D158*
Y2292000D02*
D03*
Y2800000D02*
D03*
Y2546000D02*
D03*
X11050000Y2725000D02*
D03*
D159*
X16399066Y6332200D02*
D03*
Y6532200D02*
D03*
D160*
X477500Y9537500D02*
D03*
X472500Y8972500D02*
D03*
X4810066Y3925000D02*
D03*
X4175000D02*
D03*
X4260000Y10805000D02*
D03*
X4825000Y10800000D02*
D03*
D161*
X2925000Y8468000D02*
D03*
Y10500000D02*
D03*
D162*
X8585000Y3250000D02*
D03*
X8035000Y4100000D02*
D03*
X7315000Y3250000D02*
D03*
X6765000Y4100000D02*
D03*
D163*
X6500000Y1421967D02*
D03*
Y3171967D02*
D03*
D164*
X20700000Y2314000D02*
D03*
Y3330000D02*
D03*
Y3838000D02*
D03*
Y1806000D02*
D03*
Y2822000D02*
D03*
D165*
X1250000Y2750000D02*
D03*
X3190000D02*
D03*
X1250000Y9250000D02*
D03*
D166*
X13930000Y10469999D02*
D03*
D167*
X11304000Y2725000D02*
D03*
D168*
X825000Y7380029D02*
D03*
X175000D02*
D03*
X817329Y6725000D02*
D03*
X175000D02*
D03*
X150000Y1950000D02*
D03*
X850000D02*
D03*
X9850000Y11300000D02*
D03*
Y10700000D02*
D03*
X9150000D02*
D03*
Y11300000D02*
D03*
X9850000Y775000D02*
D03*
X9150000D02*
D03*
X9850000Y175000D02*
D03*
X9150000D02*
D03*
X4850000Y800000D02*
D03*
X4150000D02*
D03*
X4850000Y200000D02*
D03*
X4150000D02*
D03*
D169*
X11647450Y6992854D02*
D03*
X11250000Y8400000D02*
D03*
X11025000Y8395850D02*
D03*
X9875000Y8625000D02*
D03*
X16380000Y10061173D02*
D03*
X14375961Y10055000D02*
D03*
X13525000Y9175000D02*
D03*
X13050000Y9125000D02*
D03*
X13911395Y8975000D02*
D03*
Y9175000D02*
D03*
X13600000Y9050000D02*
D03*
X13359946Y10134260D02*
D03*
X14039999Y9905010D02*
D03*
X14893124Y9437482D02*
D03*
X14653708Y8537235D02*
D03*
X15110001Y4025000D02*
D03*
X15088860Y2436139D02*
D03*
X14475417Y7444583D02*
D03*
X14250000Y7670000D02*
D03*
X14375000Y6875000D02*
D03*
X14039999Y5240000D02*
D03*
X13714839Y8319779D02*
D03*
X9556467Y2100000D02*
D03*
X8420000Y2200000D02*
D03*
X13396378Y8140026D02*
D03*
X12626255Y10350022D02*
D03*
X12073067D02*
D03*
X12800000Y8880431D02*
D03*
X12825000Y8200000D02*
D03*
X2700000Y7844591D02*
D03*
X2025000Y7825000D02*
D03*
X15493033Y8248783D02*
D03*
X15229802Y7475001D02*
D03*
X15339999Y4025000D02*
D03*
X13564859Y8319779D02*
D03*
X12622785Y10082199D02*
D03*
X15025000Y10100000D02*
D03*
X16125000Y6025000D02*
D03*
X16075000Y5500000D02*
D03*
X15075000Y5075000D02*
D03*
X2275000Y8475000D02*
D03*
X13102444Y8880431D02*
D03*
X12950000Y8350000D02*
D03*
X14461703Y4710121D02*
D03*
X14925000Y6000000D02*
D03*
Y5825000D02*
D03*
X16775000Y8519669D02*
D03*
X12100000Y3200000D02*
D03*
Y3850000D02*
D03*
X9475000Y5900000D02*
D03*
X12275000Y5300000D02*
D03*
Y6083081D02*
D03*
X13300000Y6475000D02*
D03*
X13617300Y6850885D02*
D03*
X12450581Y6353137D02*
D03*
X12661163Y6700000D02*
D03*
Y6353137D02*
D03*
X13550000Y6359545D02*
D03*
X13552345Y6144271D02*
D03*
X12879626Y5250000D02*
D03*
X11900000Y8522851D02*
D03*
X17688219Y7125000D02*
D03*
X17778375Y6025000D02*
D03*
X17075000Y8175000D02*
D03*
X17250000Y7113325D02*
D03*
X13778465Y5806188D02*
D03*
X13825000Y5633383D02*
D03*
X15700000Y9581788D02*
D03*
X15400000Y9400000D02*
D03*
X15955000Y9550000D02*
D03*
X15925000Y9937696D02*
D03*
X15325000Y7150000D02*
D03*
X16870000Y9090000D02*
D03*
X17100000Y7100000D02*
D03*
X17011617Y6362200D02*
D03*
X16380000Y9450000D02*
D03*
X16325000Y8186201D02*
D03*
X15849066Y7542200D02*
D03*
X15851010Y7290100D02*
D03*
X15849066Y7432200D02*
D03*
Y7652200D02*
D03*
X15851010Y7023784D02*
D03*
X15958066Y6703639D02*
D03*
X14500000Y7175000D02*
D03*
X16589999Y2945112D02*
D03*
X16416168Y2937725D02*
D03*
X16242500Y2945112D02*
D03*
X14770001Y3910000D02*
D03*
X11767449Y9518584D02*
D03*
X11190000Y6263804D02*
D03*
X11148801Y7268067D02*
D03*
X10828651Y8880870D02*
D03*
X10441001Y6871458D02*
D03*
X9270000Y7830000D02*
D03*
X9150000D02*
D03*
X9030000D02*
D03*
X14217163Y4961505D02*
D03*
X12000000Y4740000D02*
D03*
X10090000Y5680000D02*
D03*
X7075000Y1450000D02*
D03*
X7775000Y1550000D02*
D03*
X15050000Y4230000D02*
D03*
X11914776Y7775000D02*
D03*
X11525000Y7400000D02*
D03*
X10999369Y6725000D02*
D03*
X11450000Y6475000D02*
D03*
X10589655Y6722700D02*
D03*
X10689999Y6639999D02*
D03*
X8050000Y9300000D02*
D03*
Y9825000D02*
D03*
X16525000Y10875000D02*
D03*
X12825000Y2225000D02*
D03*
X9556467Y1843532D02*
D03*
X15856201Y8296201D02*
D03*
X13609169Y7819169D02*
D03*
X13120000Y4250000D02*
D03*
X10980000Y8626869D02*
D03*
X11935618Y8264500D02*
D03*
X12989999Y7760000D02*
D03*
X10860000Y7743834D02*
D03*
X10317901Y7752444D02*
D03*
X10987136Y7141067D02*
D03*
X13122086Y2225000D02*
D03*
X9650000Y8625000D02*
D03*
Y8925000D02*
D03*
X11347699Y8871351D02*
D03*
X9850000Y6800000D02*
D03*
X9760000Y6670000D02*
D03*
X12970000Y7520000D02*
D03*
X15068657Y9691482D02*
D03*
X15260001Y9263407D02*
D03*
X14380000Y5110000D02*
D03*
X12989999Y4270000D02*
D03*
X11900000Y8776850D02*
D03*
X12000000Y7500000D02*
D03*
X12020000Y6982407D02*
D03*
X11900000Y6972700D02*
D03*
X13295979Y7499200D02*
D03*
X17723080Y5593186D02*
D03*
X16531009Y7061084D02*
D03*
X16546165Y7652200D02*
D03*
Y7542200D02*
D03*
Y7432200D02*
D03*
X16399066Y6822200D02*
D03*
X16166966D02*
D03*
X16551010Y7251084D02*
D03*
X11310000Y6992854D02*
D03*
X10987136Y6997449D02*
D03*
X11275156Y9564844D02*
D03*
X11276901Y9764060D02*
D03*
X16330000Y10690000D02*
D03*
D170*
X15752499Y4152002D02*
D03*
X16272501Y4147002D02*
D03*
X13155000Y3890000D02*
D03*
X13150000Y3370000D02*
D03*
Y3650000D02*
D03*
X13020000Y1140000D02*
D03*
X13025000Y1660000D02*
D03*
X15000000Y1475000D02*
D03*
X14760001Y1480000D02*
D03*
X14480000D02*
D03*
D171*
X18825000Y4050000D02*
D03*
X19300000Y4650000D02*
D03*
X19767632Y4277225D02*
D03*
X20031444Y1350000D02*
D03*
X20050000Y1825000D02*
D03*
X17439452Y4085548D02*
D03*
X19050000Y6614999D02*
D03*
D172*
X5650000Y2800000D02*
X5900000Y3050000D01*
X7575000D01*
X7600000Y3075000D01*
Y3400000D01*
X5200000D02*
X7600000D01*
X5175000Y3375000D02*
X5200000Y3400000D01*
X5175000Y2800000D02*
Y3375000D01*
%TF.MD5,8a7f27fa7d7a9d32fb8a45a93a11d826*%
M02*
