G04*
G04 #@! TF.GenerationSoftware,Altium Limited,Altium Designer,24.3.1 (35)*
G04*
G04 Layer_Color=32896*
%FSLAX44Y44*%
%MOMM*%
G71*
G04*
G04 #@! TF.SameCoordinates,DC73BA1F-C390-44C3-A56D-8D3931A129D1*
G04*
G04*
G04 #@! TF.FilePolarity,Positive*
G04*
G01*
G75*
%ADD10C,0.2000*%
G36*
X1337594Y401480D02*
X1337835Y401443D01*
X1337928Y401406D01*
X1338002Y401388D01*
X1338039Y401369D01*
X1338057D01*
X1338317Y401277D01*
X1338557Y401165D01*
X1338650Y401128D01*
X1338724Y401091D01*
X1338761Y401073D01*
X1338779Y401054D01*
X1339039Y400888D01*
X1339279Y400703D01*
X1339465Y400517D01*
X1339631Y400351D01*
X1339779Y400203D01*
X1339872Y400073D01*
X1339928Y399999D01*
X1339946Y399962D01*
X1340002Y399814D01*
X1340039Y399703D01*
X1340057Y399629D01*
Y399610D01*
X1340039Y399518D01*
X1340020Y399425D01*
X1339946Y399295D01*
X1339890Y399203D01*
X1339853Y399166D01*
X1339705Y399073D01*
X1339557Y399017D01*
X1339446Y398999D01*
X1339409D01*
X1339131Y399054D01*
X1339020Y399129D01*
X1338946Y399203D01*
X1338909Y399258D01*
X1338891Y399277D01*
X1338668Y399573D01*
X1338539Y399703D01*
X1338428Y399814D01*
X1338317Y399888D01*
X1338242Y399943D01*
X1338187Y399980D01*
X1338168Y399999D01*
X1338002Y400092D01*
X1337835Y400147D01*
X1337687Y400203D01*
X1337539Y400221D01*
X1337428Y400240D01*
X1337335Y400258D01*
X1337261D01*
X1336928Y400240D01*
X1336780Y400203D01*
X1336669Y400184D01*
X1336557Y400147D01*
X1336483Y400110D01*
X1336428Y400092D01*
X1336409D01*
X1336132Y399943D01*
X1335928Y399814D01*
X1335835Y399740D01*
X1335780Y399703D01*
X1335743Y399666D01*
X1335724Y399647D01*
X1335520Y399425D01*
X1335354Y399184D01*
X1335243Y398943D01*
X1335169Y398740D01*
X1335132Y398536D01*
X1335095Y398388D01*
Y398295D01*
Y398277D01*
Y398258D01*
X1335113Y398092D01*
X1335132Y397925D01*
X1335169Y397758D01*
X1335206Y397629D01*
X1335261Y397499D01*
X1335298Y397407D01*
X1335317Y397332D01*
X1335335Y397314D01*
X1339946Y389963D01*
X1340039Y389778D01*
X1340076Y389630D01*
X1340094Y389537D01*
Y389500D01*
X1340057Y389333D01*
X1339983Y389204D01*
X1339872Y389130D01*
X1339742Y389056D01*
X1339631Y389019D01*
X1339520Y389000D01*
X1334409D01*
X1334298Y389019D01*
X1334206Y389037D01*
X1334076Y389111D01*
X1333984Y389167D01*
X1333965Y389204D01*
X1333873Y389352D01*
X1333817Y389482D01*
X1333799Y389574D01*
Y389611D01*
X1333835Y389778D01*
X1333891Y389907D01*
X1333947Y390000D01*
X1333984Y390037D01*
X1334058Y390111D01*
X1334113Y390148D01*
X1334261Y390222D01*
X1334373Y390241D01*
X1338298D01*
X1334261Y396666D01*
X1334132Y396962D01*
X1334021Y397240D01*
X1333947Y397499D01*
X1333910Y397721D01*
X1333873Y397925D01*
X1333854Y398073D01*
Y398166D01*
Y398203D01*
X1333873Y398443D01*
X1333891Y398684D01*
X1334021Y399129D01*
X1334169Y399536D01*
X1334354Y399869D01*
X1334558Y400147D01*
X1334632Y400258D01*
X1334706Y400351D01*
X1334780Y400425D01*
X1334835Y400480D01*
X1334854Y400499D01*
X1334872Y400517D01*
X1335076Y400684D01*
X1335280Y400851D01*
X1335484Y400980D01*
X1335687Y401091D01*
X1336113Y401258D01*
X1336502Y401369D01*
X1336835Y401443D01*
X1336983Y401462D01*
X1337113Y401480D01*
X1337206Y401499D01*
X1337354D01*
X1337594Y401480D01*
D02*
G37*
G36*
X1343131Y401573D02*
X1343224Y401554D01*
X1343297Y401536D01*
X1343316Y401517D01*
X1343409Y401462D01*
X1343501Y401388D01*
X1343557Y401332D01*
X1343575Y401314D01*
X1346075Y398795D01*
X1346186Y398647D01*
X1346242Y398499D01*
X1346260Y398406D01*
Y398388D01*
Y398369D01*
X1346242Y398277D01*
X1346223Y398203D01*
X1346149Y398055D01*
X1346093Y397962D01*
X1346057Y397944D01*
Y397925D01*
X1345908Y397814D01*
X1345760Y397758D01*
X1345668Y397740D01*
X1345631D01*
X1345464Y397777D01*
X1345316Y397832D01*
X1345223Y397888D01*
X1345186Y397925D01*
X1343742Y399369D01*
Y389611D01*
X1343705Y389407D01*
X1343649Y389259D01*
X1343594Y389185D01*
X1343557Y389148D01*
X1343409Y389056D01*
X1343279Y389019D01*
X1343168Y389000D01*
X1343131D01*
X1342946Y389019D01*
X1342798Y389074D01*
X1342724Y389130D01*
X1342686Y389148D01*
X1342575Y389296D01*
X1342520Y389444D01*
X1342501Y389556D01*
Y389593D01*
Y389611D01*
Y400869D01*
X1342520Y401091D01*
X1342575Y401258D01*
X1342649Y401369D01*
X1342668Y401406D01*
X1342816Y401517D01*
X1342927Y401573D01*
X1343001Y401591D01*
X1343020D01*
X1343131Y401573D01*
D02*
G37*
G36*
X1354574Y393963D02*
X1354704Y393907D01*
X1354796Y393833D01*
X1354833Y393814D01*
Y393796D01*
X1354926Y393648D01*
X1354982Y393500D01*
X1355000Y393407D01*
Y393388D01*
Y393370D01*
X1354982Y393185D01*
X1354907Y393055D01*
X1354852Y392963D01*
X1354833Y392926D01*
X1354685Y392833D01*
X1354537Y392777D01*
X1354426Y392759D01*
X1349371D01*
X1349260Y392777D01*
X1349167Y392796D01*
X1349038Y392870D01*
X1348945Y392926D01*
X1348927Y392963D01*
X1348834Y393111D01*
X1348778Y393240D01*
X1348760Y393333D01*
Y393370D01*
X1348797Y393537D01*
X1348853Y393666D01*
X1348908Y393759D01*
X1348945Y393796D01*
X1349019Y393870D01*
X1349075Y393907D01*
X1349223Y393981D01*
X1349334Y393999D01*
X1354482D01*
X1354574Y393963D01*
D02*
G37*
G36*
X1607074Y437462D02*
X1607204Y437407D01*
X1607296Y437333D01*
X1607333Y437314D01*
Y437296D01*
X1607426Y437148D01*
X1607482Y437000D01*
X1607500Y436907D01*
Y436888D01*
Y436870D01*
X1607482Y436685D01*
X1607407Y436555D01*
X1607352Y436463D01*
X1607333Y436426D01*
X1607185Y436333D01*
X1607037Y436277D01*
X1606926Y436259D01*
X1601871D01*
X1601760Y436277D01*
X1601667Y436296D01*
X1601538Y436370D01*
X1601445Y436426D01*
X1601427Y436463D01*
X1601334Y436611D01*
X1601278Y436740D01*
X1601260Y436833D01*
Y436870D01*
X1601297Y437037D01*
X1601353Y437166D01*
X1601408Y437259D01*
X1601445Y437296D01*
X1601519Y437370D01*
X1601575Y437407D01*
X1601723Y437481D01*
X1601834Y437500D01*
X1606982D01*
X1607074Y437462D01*
D02*
G37*
G36*
X1595298Y444980D02*
X1595538Y444962D01*
X1596020Y444851D01*
X1596409Y444684D01*
X1596742Y444517D01*
X1597020Y444332D01*
X1597131Y444240D01*
X1597205Y444165D01*
X1597279Y444110D01*
X1597334Y444054D01*
X1597353Y444036D01*
X1597371Y444017D01*
X1597631Y443666D01*
X1597816Y443295D01*
X1597945Y442925D01*
X1598038Y442592D01*
X1598094Y442295D01*
X1598112Y442166D01*
Y442055D01*
X1598131Y441981D01*
Y441906D01*
Y441869D01*
Y441851D01*
X1598112Y441592D01*
X1598094Y441351D01*
X1598056Y441129D01*
X1598001Y440925D01*
X1597945Y440758D01*
X1597908Y440629D01*
X1597890Y440555D01*
X1597871Y440518D01*
X1597760Y440277D01*
X1597631Y440073D01*
X1597501Y439888D01*
X1597371Y439740D01*
X1597260Y439610D01*
X1597168Y439518D01*
X1597112Y439462D01*
X1597094Y439444D01*
X1597390Y439240D01*
X1597649Y439018D01*
X1597871Y438777D01*
X1598038Y438573D01*
X1598186Y438370D01*
X1598279Y438222D01*
X1598334Y438111D01*
X1598353Y438092D01*
Y438074D01*
X1598482Y437759D01*
X1598593Y437425D01*
X1598668Y437111D01*
X1598705Y436833D01*
X1598742Y436592D01*
X1598760Y436407D01*
Y436333D01*
Y436277D01*
Y436259D01*
Y436240D01*
X1598742Y435963D01*
X1598723Y435685D01*
X1598612Y435185D01*
X1598464Y434740D01*
X1598297Y434370D01*
X1598205Y434203D01*
X1598131Y434055D01*
X1598056Y433944D01*
X1597982Y433833D01*
X1597927Y433759D01*
X1597871Y433704D01*
X1597853Y433666D01*
X1597834Y433648D01*
X1597631Y433444D01*
X1597408Y433278D01*
X1597186Y433111D01*
X1596945Y432981D01*
X1596705Y432870D01*
X1596483Y432778D01*
X1596038Y432648D01*
X1595816Y432593D01*
X1595631Y432556D01*
X1595464Y432537D01*
X1595316Y432519D01*
X1595186Y432500D01*
X1595020D01*
X1594686Y432519D01*
X1594390Y432556D01*
X1594094Y432611D01*
X1593835Y432685D01*
X1593575Y432778D01*
X1593353Y432870D01*
X1593131Y432981D01*
X1592946Y433092D01*
X1592779Y433185D01*
X1592631Y433296D01*
X1592502Y433389D01*
X1592390Y433481D01*
X1592316Y433555D01*
X1592261Y433611D01*
X1592224Y433648D01*
X1592205Y433666D01*
X1592039Y433870D01*
X1591891Y434092D01*
X1591761Y434315D01*
X1591650Y434537D01*
X1591483Y434963D01*
X1591372Y435370D01*
X1591317Y435722D01*
X1591298Y435870D01*
X1591279Y436000D01*
X1591261Y436092D01*
Y436166D01*
Y436222D01*
Y436240D01*
X1591279Y436611D01*
X1591335Y436944D01*
X1591409Y437259D01*
X1591483Y437518D01*
X1591557Y437759D01*
X1591631Y437925D01*
X1591687Y438036D01*
X1591705Y438074D01*
X1591872Y438388D01*
X1592076Y438647D01*
X1592279Y438888D01*
X1592483Y439073D01*
X1592668Y439221D01*
X1592816Y439333D01*
X1592909Y439407D01*
X1592927Y439425D01*
X1592946D01*
X1592761Y439592D01*
X1592613Y439777D01*
X1592464Y439962D01*
X1592353Y440147D01*
X1592279Y440295D01*
X1592224Y440407D01*
X1592187Y440481D01*
X1592168Y440518D01*
X1592076Y440758D01*
X1592002Y440999D01*
X1591965Y441221D01*
X1591928Y441425D01*
X1591909Y441592D01*
X1591891Y441740D01*
Y441814D01*
Y441851D01*
Y442092D01*
X1591928Y442314D01*
X1592020Y442721D01*
X1592150Y443092D01*
X1592279Y443406D01*
X1592428Y443666D01*
X1592557Y443851D01*
X1592613Y443925D01*
X1592650Y443980D01*
X1592668Y443999D01*
X1592687Y444017D01*
X1592853Y444184D01*
X1593038Y444351D01*
X1593224Y444480D01*
X1593427Y444591D01*
X1593816Y444758D01*
X1594187Y444869D01*
X1594520Y444943D01*
X1594650Y444962D01*
X1594779Y444980D01*
X1594872Y444999D01*
X1595020D01*
X1595298Y444980D01*
D02*
G37*
G36*
X1474556Y182481D02*
X1474686Y182425D01*
X1474778Y182351D01*
X1474815Y182333D01*
X1474926Y182166D01*
X1474982Y182018D01*
X1475000Y181907D01*
Y181888D01*
Y181870D01*
Y180000D01*
X1477000D01*
X1477093Y179963D01*
X1477222Y179907D01*
X1477315Y179833D01*
X1477352Y179814D01*
Y179796D01*
X1477444Y179648D01*
X1477482Y179499D01*
X1477500Y179407D01*
Y179388D01*
Y179370D01*
X1477482Y179185D01*
X1477426Y179055D01*
X1477370Y178963D01*
X1477352Y178925D01*
X1477204Y178833D01*
X1477056Y178777D01*
X1476926Y178759D01*
X1475000D01*
Y176870D01*
X1474963Y176667D01*
X1474908Y176518D01*
X1474852Y176426D01*
X1474815Y176389D01*
X1474667Y176296D01*
X1474537Y176259D01*
X1474426Y176241D01*
X1474389D01*
X1474204Y176259D01*
X1474056Y176315D01*
X1473982Y176370D01*
X1473945Y176389D01*
X1473834Y176537D01*
X1473778Y176685D01*
X1473760Y176759D01*
Y176815D01*
Y176852D01*
Y176870D01*
Y178759D01*
X1471889D01*
X1471778Y178777D01*
X1471686Y178796D01*
X1471538Y178870D01*
X1471445Y178925D01*
X1471427Y178963D01*
X1471334Y179111D01*
X1471278Y179240D01*
X1471260Y179333D01*
Y179370D01*
X1471278Y179537D01*
X1471334Y179666D01*
X1471408Y179759D01*
X1471427Y179796D01*
X1471501Y179870D01*
X1471575Y179907D01*
X1471723Y179981D01*
X1471834Y180000D01*
X1473760D01*
Y181870D01*
Y181981D01*
X1473797Y182073D01*
X1473852Y182222D01*
X1473926Y182314D01*
X1473945Y182333D01*
X1473963D01*
X1474111Y182425D01*
X1474260Y182481D01*
X1474352Y182499D01*
X1474389D01*
X1474556Y182481D01*
D02*
G37*
G36*
X1465335Y187480D02*
X1465575Y187462D01*
X1466057Y187351D01*
X1466446Y187184D01*
X1466779Y187017D01*
X1467057Y186832D01*
X1467168Y186740D01*
X1467242Y186665D01*
X1467316Y186610D01*
X1467371Y186554D01*
X1467390Y186536D01*
X1467408Y186517D01*
X1467668Y186166D01*
X1467853Y185795D01*
X1467982Y185425D01*
X1468075Y185092D01*
X1468131Y184795D01*
X1468149Y184666D01*
Y184555D01*
X1468168Y184480D01*
Y184406D01*
Y184369D01*
Y184351D01*
X1468149Y184092D01*
X1468131Y183851D01*
X1468094Y183629D01*
X1468038Y183425D01*
X1467982Y183258D01*
X1467945Y183129D01*
X1467927Y183055D01*
X1467908Y183018D01*
X1467797Y182777D01*
X1467668Y182573D01*
X1467538Y182388D01*
X1467408Y182240D01*
X1467297Y182110D01*
X1467205Y182018D01*
X1467149Y181962D01*
X1467131Y181944D01*
X1467427Y181740D01*
X1467686Y181518D01*
X1467908Y181277D01*
X1468075Y181073D01*
X1468223Y180870D01*
X1468316Y180722D01*
X1468371Y180611D01*
X1468390Y180592D01*
Y180574D01*
X1468519Y180259D01*
X1468631Y179925D01*
X1468705Y179611D01*
X1468742Y179333D01*
X1468779Y179092D01*
X1468797Y178907D01*
Y178833D01*
Y178777D01*
Y178759D01*
Y178740D01*
X1468779Y178463D01*
X1468760Y178185D01*
X1468649Y177685D01*
X1468501Y177241D01*
X1468334Y176870D01*
X1468242Y176703D01*
X1468168Y176555D01*
X1468094Y176444D01*
X1468020Y176333D01*
X1467964Y176259D01*
X1467908Y176204D01*
X1467890Y176167D01*
X1467871Y176148D01*
X1467668Y175944D01*
X1467446Y175778D01*
X1467223Y175611D01*
X1466983Y175481D01*
X1466742Y175370D01*
X1466520Y175278D01*
X1466075Y175148D01*
X1465853Y175093D01*
X1465668Y175056D01*
X1465501Y175037D01*
X1465353Y175019D01*
X1465224Y175000D01*
X1465057D01*
X1464724Y175019D01*
X1464427Y175056D01*
X1464131Y175111D01*
X1463872Y175185D01*
X1463613Y175278D01*
X1463390Y175370D01*
X1463168Y175481D01*
X1462983Y175592D01*
X1462816Y175685D01*
X1462668Y175796D01*
X1462539Y175889D01*
X1462428Y175981D01*
X1462353Y176056D01*
X1462298Y176111D01*
X1462261Y176148D01*
X1462242Y176167D01*
X1462076Y176370D01*
X1461927Y176592D01*
X1461798Y176815D01*
X1461687Y177037D01*
X1461520Y177463D01*
X1461409Y177870D01*
X1461353Y178222D01*
X1461335Y178370D01*
X1461317Y178500D01*
X1461298Y178592D01*
Y178666D01*
Y178722D01*
Y178740D01*
X1461317Y179111D01*
X1461372Y179444D01*
X1461446Y179759D01*
X1461520Y180018D01*
X1461594Y180259D01*
X1461668Y180425D01*
X1461724Y180536D01*
X1461742Y180574D01*
X1461909Y180888D01*
X1462113Y181147D01*
X1462316Y181388D01*
X1462520Y181573D01*
X1462705Y181721D01*
X1462853Y181833D01*
X1462946Y181907D01*
X1462964Y181925D01*
X1462983D01*
X1462798Y182092D01*
X1462650Y182277D01*
X1462502Y182462D01*
X1462390Y182647D01*
X1462316Y182796D01*
X1462261Y182907D01*
X1462224Y182981D01*
X1462205Y183018D01*
X1462113Y183258D01*
X1462039Y183499D01*
X1462002Y183721D01*
X1461965Y183925D01*
X1461946Y184092D01*
X1461927Y184240D01*
Y184314D01*
Y184351D01*
Y184592D01*
X1461965Y184814D01*
X1462057Y185221D01*
X1462187Y185592D01*
X1462316Y185906D01*
X1462464Y186166D01*
X1462594Y186351D01*
X1462650Y186425D01*
X1462687Y186480D01*
X1462705Y186499D01*
X1462724Y186517D01*
X1462890Y186684D01*
X1463076Y186851D01*
X1463261Y186980D01*
X1463464Y187091D01*
X1463853Y187258D01*
X1464224Y187369D01*
X1464557Y187443D01*
X1464686Y187462D01*
X1464816Y187480D01*
X1464909Y187499D01*
X1465057D01*
X1465335Y187480D01*
D02*
G37*
G36*
X1251391Y147480D02*
X1251632Y147443D01*
X1251725Y147406D01*
X1251799Y147388D01*
X1251836Y147369D01*
X1251854D01*
X1252113Y147276D01*
X1252354Y147165D01*
X1252447Y147128D01*
X1252521Y147091D01*
X1252558Y147073D01*
X1252576Y147054D01*
X1252836Y146888D01*
X1253076Y146702D01*
X1253261Y146517D01*
X1253428Y146351D01*
X1253576Y146203D01*
X1253669Y146073D01*
X1253724Y145999D01*
X1253743Y145962D01*
X1253799Y145814D01*
X1253836Y145703D01*
X1253854Y145628D01*
Y145610D01*
X1253836Y145517D01*
X1253817Y145425D01*
X1253743Y145295D01*
X1253687Y145203D01*
X1253650Y145166D01*
X1253502Y145073D01*
X1253354Y145017D01*
X1253243Y144999D01*
X1253206D01*
X1252928Y145055D01*
X1252817Y145129D01*
X1252743Y145203D01*
X1252706Y145258D01*
X1252688Y145277D01*
X1252465Y145573D01*
X1252336Y145703D01*
X1252225Y145814D01*
X1252113Y145888D01*
X1252039Y145943D01*
X1251984Y145980D01*
X1251965Y145999D01*
X1251799Y146091D01*
X1251632Y146147D01*
X1251484Y146203D01*
X1251336Y146221D01*
X1251225Y146240D01*
X1251132Y146258D01*
X1251058D01*
X1250725Y146240D01*
X1250577Y146203D01*
X1250465Y146184D01*
X1250354Y146147D01*
X1250280Y146110D01*
X1250225Y146091D01*
X1250206D01*
X1249929Y145943D01*
X1249725Y145814D01*
X1249632Y145740D01*
X1249577Y145703D01*
X1249540Y145666D01*
X1249521Y145647D01*
X1249317Y145425D01*
X1249151Y145184D01*
X1249040Y144943D01*
X1248966Y144740D01*
X1248929Y144536D01*
X1248892Y144388D01*
Y144295D01*
Y144277D01*
Y144258D01*
X1248910Y144092D01*
X1248929Y143925D01*
X1248966Y143758D01*
X1249003Y143629D01*
X1249058Y143499D01*
X1249095Y143406D01*
X1249114Y143333D01*
X1249132Y143314D01*
X1253743Y135963D01*
X1253836Y135778D01*
X1253873Y135630D01*
X1253891Y135537D01*
Y135500D01*
X1253854Y135333D01*
X1253780Y135204D01*
X1253669Y135130D01*
X1253539Y135056D01*
X1253428Y135019D01*
X1253317Y135000D01*
X1248206D01*
X1248095Y135019D01*
X1248003Y135037D01*
X1247873Y135111D01*
X1247781Y135167D01*
X1247762Y135204D01*
X1247670Y135352D01*
X1247614Y135481D01*
X1247595Y135574D01*
Y135611D01*
X1247633Y135778D01*
X1247688Y135907D01*
X1247744Y136000D01*
X1247781Y136037D01*
X1247855Y136111D01*
X1247910Y136148D01*
X1248058Y136222D01*
X1248169Y136241D01*
X1252095D01*
X1248058Y142666D01*
X1247929Y142962D01*
X1247818Y143240D01*
X1247744Y143499D01*
X1247707Y143721D01*
X1247670Y143925D01*
X1247651Y144073D01*
Y144166D01*
Y144203D01*
X1247670Y144444D01*
X1247688Y144684D01*
X1247818Y145129D01*
X1247966Y145536D01*
X1248151Y145869D01*
X1248355Y146147D01*
X1248429Y146258D01*
X1248503Y146351D01*
X1248577Y146425D01*
X1248632Y146480D01*
X1248651Y146499D01*
X1248669Y146517D01*
X1248873Y146684D01*
X1249077Y146851D01*
X1249280Y146980D01*
X1249484Y147091D01*
X1249910Y147258D01*
X1250299Y147369D01*
X1250632Y147443D01*
X1250780Y147462D01*
X1250910Y147480D01*
X1251003Y147499D01*
X1251151D01*
X1251391Y147480D01*
D02*
G37*
G36*
X1272056Y142481D02*
X1272186Y142425D01*
X1272278Y142351D01*
X1272315Y142333D01*
X1272426Y142166D01*
X1272482Y142018D01*
X1272500Y141907D01*
Y141888D01*
Y141870D01*
Y140000D01*
X1274500D01*
X1274593Y139963D01*
X1274722Y139907D01*
X1274815Y139833D01*
X1274852Y139814D01*
Y139796D01*
X1274944Y139648D01*
X1274982Y139500D01*
X1275000Y139407D01*
Y139388D01*
Y139370D01*
X1274982Y139185D01*
X1274926Y139055D01*
X1274870Y138963D01*
X1274852Y138926D01*
X1274704Y138833D01*
X1274556Y138777D01*
X1274426Y138759D01*
X1272500D01*
Y136870D01*
X1272463Y136666D01*
X1272408Y136518D01*
X1272352Y136426D01*
X1272315Y136389D01*
X1272167Y136296D01*
X1272037Y136259D01*
X1271926Y136241D01*
X1271889D01*
X1271704Y136259D01*
X1271556Y136315D01*
X1271482Y136370D01*
X1271445Y136389D01*
X1271334Y136537D01*
X1271278Y136685D01*
X1271260Y136759D01*
Y136815D01*
Y136852D01*
Y136870D01*
Y138759D01*
X1269389D01*
X1269278Y138777D01*
X1269186Y138796D01*
X1269038Y138870D01*
X1268945Y138926D01*
X1268926Y138963D01*
X1268834Y139111D01*
X1268778Y139240D01*
X1268760Y139333D01*
Y139370D01*
X1268778Y139537D01*
X1268834Y139666D01*
X1268908Y139759D01*
X1268926Y139796D01*
X1269001Y139870D01*
X1269075Y139907D01*
X1269223Y139981D01*
X1269334Y140000D01*
X1271260D01*
Y141870D01*
Y141981D01*
X1271297Y142073D01*
X1271352Y142221D01*
X1271426Y142314D01*
X1271445Y142333D01*
X1271463D01*
X1271611Y142425D01*
X1271760Y142481D01*
X1271852Y142499D01*
X1271889D01*
X1272056Y142481D01*
D02*
G37*
G36*
X1265890Y147480D02*
X1266038Y147406D01*
X1266149Y147295D01*
X1266223Y147184D01*
X1266260Y147073D01*
X1266279Y146962D01*
X1266297Y146888D01*
Y146869D01*
Y141851D01*
X1266279Y141648D01*
X1266205Y141499D01*
X1266112Y141388D01*
X1265982Y141314D01*
X1265871Y141277D01*
X1265779Y141259D01*
X1265705Y141240D01*
X1263186D01*
X1262909Y141222D01*
X1262649Y141147D01*
X1262409Y141074D01*
X1262224Y140962D01*
X1262057Y140870D01*
X1261946Y140777D01*
X1261872Y140703D01*
X1261853Y140685D01*
X1261668Y140462D01*
X1261538Y140240D01*
X1261427Y140018D01*
X1261372Y139814D01*
X1261335Y139629D01*
X1261298Y139481D01*
Y139388D01*
Y139351D01*
Y138111D01*
X1261316Y137815D01*
X1261390Y137555D01*
X1261464Y137333D01*
X1261575Y137129D01*
X1261668Y136981D01*
X1261761Y136852D01*
X1261835Y136778D01*
X1261853Y136759D01*
X1262075Y136592D01*
X1262298Y136463D01*
X1262520Y136370D01*
X1262723Y136315D01*
X1262909Y136278D01*
X1263057Y136241D01*
X1265797D01*
X1265890Y136204D01*
X1266019Y136148D01*
X1266112Y136074D01*
X1266149Y136055D01*
Y136037D01*
X1266242Y135889D01*
X1266279Y135741D01*
X1266297Y135648D01*
Y135630D01*
Y135611D01*
X1266279Y135426D01*
X1266223Y135296D01*
X1266168Y135204D01*
X1266149Y135167D01*
X1266001Y135074D01*
X1265853Y135019D01*
X1265723Y135000D01*
X1263186D01*
X1262946Y135019D01*
X1262723Y135037D01*
X1262298Y135148D01*
X1261927Y135296D01*
X1261612Y135463D01*
X1261335Y135630D01*
X1261150Y135759D01*
X1261076Y135833D01*
X1261020Y135870D01*
X1261001Y135889D01*
X1260983Y135907D01*
X1260816Y136093D01*
X1260668Y136278D01*
X1260557Y136463D01*
X1260446Y136648D01*
X1260279Y137018D01*
X1260168Y137352D01*
X1260113Y137666D01*
X1260076Y137796D01*
Y137889D01*
X1260057Y137981D01*
Y138055D01*
Y138092D01*
Y138111D01*
Y139351D01*
X1260076Y139592D01*
X1260094Y139814D01*
X1260205Y140240D01*
X1260353Y140611D01*
X1260520Y140944D01*
X1260687Y141203D01*
X1260835Y141388D01*
X1260890Y141462D01*
X1260946Y141518D01*
X1260964Y141536D01*
X1260983Y141555D01*
X1261168Y141721D01*
X1261335Y141870D01*
X1261538Y141981D01*
X1261724Y142092D01*
X1262094Y142259D01*
X1262427Y142370D01*
X1262723Y142425D01*
X1262853Y142462D01*
X1262964D01*
X1263057Y142481D01*
X1265057D01*
Y146258D01*
X1260687D01*
X1260576Y146277D01*
X1260483Y146295D01*
X1260335Y146369D01*
X1260242Y146425D01*
X1260224Y146462D01*
X1260131Y146610D01*
X1260076Y146740D01*
X1260057Y146832D01*
Y146869D01*
X1260094Y147036D01*
X1260150Y147165D01*
X1260205Y147258D01*
X1260242Y147295D01*
X1260316Y147369D01*
X1260390Y147406D01*
X1260538Y147480D01*
X1260650Y147499D01*
X1265686D01*
X1265890Y147480D01*
D02*
G37*
G36*
X1257132Y136204D02*
X1257261Y136148D01*
X1257354Y136093D01*
X1257391Y136055D01*
X1257483Y135907D01*
X1257539Y135759D01*
X1257557Y135648D01*
Y135630D01*
Y135611D01*
X1257539Y135444D01*
X1257465Y135315D01*
X1257409Y135222D01*
X1257391Y135185D01*
X1257243Y135074D01*
X1257094Y135019D01*
X1256983Y135000D01*
X1256946D01*
X1256761Y135037D01*
X1256631Y135093D01*
X1256539Y135148D01*
X1256502Y135185D01*
X1256391Y135333D01*
X1256335Y135481D01*
X1256317Y135574D01*
Y135592D01*
Y135611D01*
Y135704D01*
X1256354Y135796D01*
X1256428Y135926D01*
X1256502Y136018D01*
X1256520Y136055D01*
X1256539D01*
X1256687Y136167D01*
X1256817Y136222D01*
X1256909Y136241D01*
X1256946D01*
X1257132Y136204D01*
D02*
G37*
G36*
X504556Y233430D02*
X504611Y233412D01*
X504630Y233393D01*
X504741Y233319D01*
X504852Y233208D01*
X504908Y233097D01*
X504945Y233023D01*
X504963Y232986D01*
X507463Y224227D01*
X507500Y224079D01*
Y223931D01*
X507463Y223764D01*
X507389Y223635D01*
X507296Y223561D01*
X507167Y223487D01*
X507056Y223450D01*
X506945Y223431D01*
X503093D01*
Y221561D01*
X503056Y221357D01*
X503000Y221209D01*
X502945Y221135D01*
X502908Y221098D01*
X502760Y221006D01*
X502630Y220968D01*
X502519Y220950D01*
X502482D01*
X502297Y220968D01*
X502149Y221024D01*
X502075Y221080D01*
X502038Y221098D01*
X501926Y221246D01*
X501871Y221394D01*
X501852Y221506D01*
Y221542D01*
Y221561D01*
Y223431D01*
X500612D01*
X500501Y223450D01*
X500408Y223468D01*
X500260Y223542D01*
X500167Y223598D01*
X500149Y223635D01*
X500056Y223783D01*
X500001Y223913D01*
X499982Y224005D01*
Y224042D01*
X500019Y224209D01*
X500075Y224338D01*
X500130Y224431D01*
X500167Y224468D01*
X500242Y224542D01*
X500316Y224579D01*
X500464Y224653D01*
X500575Y224672D01*
X501852D01*
Y226542D01*
Y226653D01*
X501889Y226746D01*
X501945Y226894D01*
X502019Y226986D01*
X502038Y227005D01*
X502056D01*
X502204Y227097D01*
X502334Y227153D01*
X502445Y227172D01*
X502482D01*
X502649Y227153D01*
X502778Y227097D01*
X502871Y227023D01*
X502908Y227005D01*
X503019Y226838D01*
X503074Y226690D01*
X503093Y226579D01*
Y226560D01*
Y226542D01*
Y224672D01*
X506037D01*
X503760Y232634D01*
X503741Y232819D01*
X503778Y233004D01*
X503834Y233152D01*
X503889Y233227D01*
X503926Y233263D01*
X504074Y233375D01*
X504223Y233430D01*
X504334Y233449D01*
X504482D01*
X504556Y233430D01*
D02*
G37*
G36*
X501871Y312573D02*
X501963Y312554D01*
X502037Y312536D01*
X502056Y312517D01*
X502148Y312462D01*
X502241Y312388D01*
X502297Y312332D01*
X502315Y312313D01*
X504815Y309795D01*
X504926Y309647D01*
X504981Y309499D01*
X505000Y309406D01*
Y309388D01*
Y309369D01*
X504981Y309277D01*
X504963Y309203D01*
X504889Y309055D01*
X504833Y308962D01*
X504796Y308944D01*
Y308925D01*
X504648Y308814D01*
X504500Y308758D01*
X504408Y308740D01*
X504370D01*
X504204Y308777D01*
X504056Y308832D01*
X503963Y308888D01*
X503926Y308925D01*
X502482Y310369D01*
Y300611D01*
X502445Y300407D01*
X502389Y300259D01*
X502334Y300185D01*
X502297Y300148D01*
X502148Y300056D01*
X502019Y300019D01*
X501908Y300000D01*
X501871D01*
X501685Y300019D01*
X501537Y300074D01*
X501463Y300130D01*
X501426Y300148D01*
X501315Y300296D01*
X501260Y300444D01*
X501241Y300555D01*
Y300592D01*
Y300611D01*
Y311869D01*
X501260Y312091D01*
X501315Y312258D01*
X501389Y312369D01*
X501408Y312406D01*
X501556Y312517D01*
X501667Y312573D01*
X501741Y312591D01*
X501760D01*
X501871Y312573D01*
D02*
G37*
G36*
X1374371Y1053073D02*
X1374463Y1053054D01*
X1374537Y1053036D01*
X1374556Y1053017D01*
X1374648Y1052962D01*
X1374741Y1052887D01*
X1374797Y1052832D01*
X1374815Y1052813D01*
X1377315Y1050295D01*
X1377426Y1050147D01*
X1377482Y1049999D01*
X1377500Y1049906D01*
Y1049888D01*
Y1049869D01*
X1377482Y1049777D01*
X1377463Y1049703D01*
X1377389Y1049555D01*
X1377333Y1049462D01*
X1377296Y1049443D01*
Y1049425D01*
X1377148Y1049314D01*
X1377000Y1049258D01*
X1376908Y1049240D01*
X1376870D01*
X1376704Y1049277D01*
X1376556Y1049332D01*
X1376463Y1049388D01*
X1376426Y1049425D01*
X1374982Y1050869D01*
Y1041111D01*
X1374945Y1040907D01*
X1374889Y1040759D01*
X1374834Y1040685D01*
X1374797Y1040648D01*
X1374648Y1040555D01*
X1374519Y1040518D01*
X1374408Y1040500D01*
X1374371D01*
X1374185Y1040518D01*
X1374037Y1040574D01*
X1373963Y1040630D01*
X1373926Y1040648D01*
X1373815Y1040796D01*
X1373760Y1040944D01*
X1373741Y1041055D01*
Y1041092D01*
Y1041111D01*
Y1052369D01*
X1373760Y1052591D01*
X1373815Y1052758D01*
X1373889Y1052869D01*
X1373908Y1052906D01*
X1374056Y1053017D01*
X1374167Y1053073D01*
X1374241Y1053091D01*
X1374260D01*
X1374371Y1053073D01*
D02*
G37*
G36*
X1561871Y1074977D02*
X1561963Y1074958D01*
X1562037Y1074940D01*
X1562056Y1074921D01*
X1562148Y1074865D01*
X1562241Y1074791D01*
X1562297Y1074736D01*
X1562315Y1074717D01*
X1564815Y1072199D01*
X1564926Y1072051D01*
X1564982Y1071903D01*
X1565000Y1071810D01*
Y1071792D01*
Y1071773D01*
X1564982Y1071681D01*
X1564963Y1071607D01*
X1564889Y1071458D01*
X1564833Y1071366D01*
X1564796Y1071347D01*
Y1071329D01*
X1564648Y1071218D01*
X1564500Y1071162D01*
X1564408Y1071144D01*
X1564370D01*
X1564204Y1071181D01*
X1564056Y1071236D01*
X1563963Y1071292D01*
X1563926Y1071329D01*
X1562482Y1072773D01*
Y1063015D01*
X1562445Y1062811D01*
X1562389Y1062663D01*
X1562334Y1062589D01*
X1562297Y1062552D01*
X1562148Y1062459D01*
X1562019Y1062422D01*
X1561908Y1062404D01*
X1561871D01*
X1561685Y1062422D01*
X1561537Y1062478D01*
X1561463Y1062533D01*
X1561426Y1062552D01*
X1561315Y1062700D01*
X1561260Y1062848D01*
X1561241Y1062959D01*
Y1062996D01*
Y1063015D01*
Y1074273D01*
X1561260Y1074495D01*
X1561315Y1074662D01*
X1561389Y1074773D01*
X1561408Y1074810D01*
X1561556Y1074921D01*
X1561667Y1074977D01*
X1561741Y1074995D01*
X1561760D01*
X1561871Y1074977D01*
D02*
G37*
G36*
X1554631Y1074828D02*
X1555057Y1074625D01*
X1555464Y1074384D01*
X1555816Y1074143D01*
X1556112Y1073921D01*
X1556371Y1073717D01*
X1556556Y1073551D01*
X1556631Y1073495D01*
X1556686Y1073440D01*
X1556705Y1073421D01*
X1556723Y1073403D01*
X1557038Y1073051D01*
X1557316Y1072699D01*
X1557556Y1072366D01*
X1557742Y1072051D01*
X1557890Y1071792D01*
X1558001Y1071570D01*
X1558038Y1071496D01*
X1558075Y1071440D01*
X1558093Y1071403D01*
Y1071384D01*
X1558315Y1070792D01*
X1558482Y1070181D01*
X1558593Y1069625D01*
X1558649Y1069348D01*
X1558667Y1069107D01*
X1558704Y1068866D01*
X1558723Y1068662D01*
X1558741Y1068477D01*
Y1068311D01*
X1558760Y1068181D01*
Y1068088D01*
Y1068033D01*
Y1068014D01*
Y1064885D01*
X1558723Y1064515D01*
X1558649Y1064181D01*
X1558519Y1063867D01*
X1558390Y1063626D01*
X1558260Y1063404D01*
X1558130Y1063256D01*
X1558056Y1063163D01*
X1558019Y1063126D01*
X1557723Y1062885D01*
X1557427Y1062700D01*
X1557149Y1062589D01*
X1556871Y1062496D01*
X1556631Y1062441D01*
X1556445Y1062422D01*
X1556371Y1062404D01*
X1555020D01*
X1554649Y1062441D01*
X1554297Y1062515D01*
X1554001Y1062626D01*
X1553742Y1062774D01*
X1553538Y1062904D01*
X1553390Y1063015D01*
X1553297Y1063089D01*
X1553260Y1063126D01*
X1553020Y1063422D01*
X1552835Y1063718D01*
X1552705Y1064015D01*
X1552612Y1064293D01*
X1552557Y1064533D01*
X1552538Y1064718D01*
X1552520Y1064792D01*
Y1064848D01*
Y1064866D01*
Y1064885D01*
Y1067385D01*
X1552557Y1067755D01*
X1552631Y1068107D01*
X1552760Y1068403D01*
X1552890Y1068662D01*
X1553020Y1068866D01*
X1553149Y1069014D01*
X1553223Y1069107D01*
X1553260Y1069144D01*
X1553557Y1069385D01*
X1553853Y1069570D01*
X1554149Y1069699D01*
X1554409Y1069792D01*
X1554649Y1069847D01*
X1554853Y1069866D01*
X1554927Y1069884D01*
X1557279D01*
X1557130Y1070385D01*
X1556945Y1070884D01*
X1556779Y1071236D01*
X1556612Y1071551D01*
X1556408Y1071829D01*
X1556242Y1072088D01*
X1556075Y1072292D01*
X1555945Y1072440D01*
X1555853Y1072532D01*
X1555816Y1072569D01*
X1555538Y1072829D01*
X1555279Y1073032D01*
X1555186Y1073106D01*
X1555112Y1073180D01*
X1555057Y1073199D01*
X1555038Y1073217D01*
X1554871Y1073310D01*
X1554742Y1073403D01*
X1554649Y1073440D01*
X1554612Y1073458D01*
X1554445Y1073532D01*
X1554297Y1073606D01*
X1554186Y1073662D01*
X1554168Y1073680D01*
X1554149D01*
X1554001Y1073773D01*
X1553909Y1073866D01*
X1553871Y1073921D01*
X1553853Y1073940D01*
X1553816Y1074032D01*
X1553779Y1074143D01*
Y1074217D01*
Y1074236D01*
X1553797Y1074421D01*
X1553853Y1074569D01*
X1553909Y1074662D01*
X1553927Y1074699D01*
X1554001Y1074773D01*
X1554075Y1074810D01*
X1554223Y1074884D01*
X1554334Y1074902D01*
X1554371D01*
X1554631Y1074828D01*
D02*
G37*
G36*
X2099593Y389980D02*
X2099741Y389906D01*
X2099852Y389795D01*
X2099926Y389684D01*
X2099963Y389573D01*
X2099982Y389462D01*
X2100000Y389388D01*
Y389369D01*
Y384351D01*
X2099982Y384147D01*
X2099907Y383999D01*
X2099815Y383888D01*
X2099685Y383814D01*
X2099574Y383777D01*
X2099482Y383759D01*
X2099408Y383740D01*
X2096889D01*
X2096611Y383722D01*
X2096352Y383647D01*
X2096111Y383573D01*
X2095926Y383462D01*
X2095760Y383370D01*
X2095649Y383277D01*
X2095574Y383203D01*
X2095556Y383185D01*
X2095371Y382962D01*
X2095241Y382740D01*
X2095130Y382518D01*
X2095075Y382314D01*
X2095038Y382129D01*
X2095000Y381981D01*
Y381888D01*
Y381851D01*
Y380611D01*
X2095019Y380314D01*
X2095093Y380055D01*
X2095167Y379833D01*
X2095278Y379629D01*
X2095371Y379481D01*
X2095463Y379352D01*
X2095538Y379278D01*
X2095556Y379259D01*
X2095778Y379092D01*
X2096000Y378963D01*
X2096223Y378870D01*
X2096426Y378815D01*
X2096611Y378778D01*
X2096760Y378741D01*
X2099500D01*
X2099593Y378704D01*
X2099722Y378648D01*
X2099815Y378574D01*
X2099852Y378555D01*
Y378537D01*
X2099944Y378389D01*
X2099982Y378241D01*
X2100000Y378148D01*
Y378130D01*
Y378111D01*
X2099982Y377926D01*
X2099926Y377796D01*
X2099870Y377704D01*
X2099852Y377667D01*
X2099704Y377574D01*
X2099556Y377519D01*
X2099426Y377500D01*
X2096889D01*
X2096649Y377519D01*
X2096426Y377537D01*
X2096000Y377648D01*
X2095630Y377796D01*
X2095315Y377963D01*
X2095038Y378130D01*
X2094852Y378259D01*
X2094778Y378333D01*
X2094723Y378370D01*
X2094704Y378389D01*
X2094686Y378407D01*
X2094519Y378592D01*
X2094371Y378778D01*
X2094260Y378963D01*
X2094149Y379148D01*
X2093982Y379518D01*
X2093871Y379852D01*
X2093815Y380166D01*
X2093778Y380296D01*
Y380389D01*
X2093760Y380481D01*
Y380555D01*
Y380592D01*
Y380611D01*
Y381851D01*
X2093778Y382092D01*
X2093797Y382314D01*
X2093908Y382740D01*
X2094056Y383111D01*
X2094223Y383444D01*
X2094389Y383703D01*
X2094538Y383888D01*
X2094593Y383962D01*
X2094649Y384018D01*
X2094667Y384036D01*
X2094686Y384055D01*
X2094871Y384221D01*
X2095038Y384370D01*
X2095241Y384481D01*
X2095426Y384592D01*
X2095797Y384758D01*
X2096130Y384870D01*
X2096426Y384925D01*
X2096556Y384962D01*
X2096667D01*
X2096760Y384981D01*
X2098759D01*
Y388758D01*
X2094389D01*
X2094278Y388777D01*
X2094186Y388795D01*
X2094038Y388869D01*
X2093945Y388925D01*
X2093927Y388962D01*
X2093834Y389110D01*
X2093778Y389240D01*
X2093760Y389332D01*
Y389369D01*
X2093797Y389536D01*
X2093853Y389665D01*
X2093908Y389758D01*
X2093945Y389795D01*
X2094019Y389869D01*
X2094093Y389906D01*
X2094241Y389980D01*
X2094352Y389999D01*
X2099389D01*
X2099593Y389980D01*
D02*
G37*
G36*
X2094371Y185073D02*
X2094463Y185054D01*
X2094537Y185036D01*
X2094556Y185017D01*
X2094648Y184962D01*
X2094741Y184888D01*
X2094797Y184832D01*
X2094815Y184813D01*
X2097315Y182295D01*
X2097426Y182147D01*
X2097482Y181999D01*
X2097500Y181906D01*
Y181888D01*
Y181869D01*
X2097482Y181777D01*
X2097463Y181703D01*
X2097389Y181555D01*
X2097333Y181462D01*
X2097296Y181444D01*
Y181425D01*
X2097148Y181314D01*
X2097000Y181258D01*
X2096908Y181240D01*
X2096870D01*
X2096704Y181277D01*
X2096556Y181332D01*
X2096463Y181388D01*
X2096426Y181425D01*
X2094982Y182869D01*
Y173111D01*
X2094945Y172907D01*
X2094889Y172759D01*
X2094834Y172685D01*
X2094797Y172648D01*
X2094648Y172556D01*
X2094519Y172519D01*
X2094408Y172500D01*
X2094371D01*
X2094185Y172519D01*
X2094037Y172574D01*
X2093963Y172630D01*
X2093926Y172648D01*
X2093815Y172796D01*
X2093760Y172944D01*
X2093741Y173055D01*
Y173092D01*
Y173111D01*
Y184369D01*
X2093760Y184591D01*
X2093815Y184758D01*
X2093889Y184869D01*
X2093908Y184906D01*
X2094056Y185017D01*
X2094167Y185073D01*
X2094241Y185091D01*
X2094260D01*
X2094371Y185073D01*
D02*
G37*
G36*
X1127056Y179981D02*
X1127186Y179925D01*
X1127278Y179851D01*
X1127315Y179833D01*
X1127426Y179666D01*
X1127482Y179518D01*
X1127500Y179407D01*
Y179388D01*
Y179370D01*
Y177500D01*
X1129500D01*
X1129593Y177463D01*
X1129722Y177407D01*
X1129815Y177333D01*
X1129852Y177314D01*
Y177296D01*
X1129945Y177148D01*
X1129982Y176999D01*
X1130000Y176907D01*
Y176888D01*
Y176870D01*
X1129982Y176685D01*
X1129926Y176555D01*
X1129870Y176463D01*
X1129852Y176425D01*
X1129704Y176333D01*
X1129556Y176277D01*
X1129426Y176259D01*
X1127500D01*
Y174370D01*
X1127463Y174167D01*
X1127408Y174018D01*
X1127352Y173926D01*
X1127315Y173889D01*
X1127167Y173796D01*
X1127037Y173759D01*
X1126926Y173741D01*
X1126889D01*
X1126704Y173759D01*
X1126556Y173815D01*
X1126482Y173870D01*
X1126445Y173889D01*
X1126334Y174037D01*
X1126278Y174185D01*
X1126260Y174259D01*
Y174315D01*
Y174352D01*
Y174370D01*
Y176259D01*
X1124389D01*
X1124278Y176277D01*
X1124186Y176296D01*
X1124038Y176370D01*
X1123945Y176425D01*
X1123927Y176463D01*
X1123834Y176611D01*
X1123778Y176740D01*
X1123760Y176833D01*
Y176870D01*
X1123778Y177037D01*
X1123834Y177166D01*
X1123908Y177259D01*
X1123927Y177296D01*
X1124001Y177370D01*
X1124075Y177407D01*
X1124223Y177481D01*
X1124334Y177500D01*
X1126260D01*
Y179370D01*
Y179481D01*
X1126297Y179573D01*
X1126352Y179722D01*
X1126426Y179814D01*
X1126445Y179833D01*
X1126463D01*
X1126611Y179925D01*
X1126760Y179981D01*
X1126852Y179999D01*
X1126889D01*
X1127056Y179981D01*
D02*
G37*
G36*
X1117835Y184980D02*
X1118075Y184962D01*
X1118557Y184851D01*
X1118946Y184684D01*
X1119279Y184517D01*
X1119557Y184332D01*
X1119668Y184240D01*
X1119742Y184165D01*
X1119816Y184110D01*
X1119871Y184054D01*
X1119890Y184036D01*
X1119909Y184017D01*
X1120168Y183666D01*
X1120353Y183295D01*
X1120482Y182925D01*
X1120575Y182592D01*
X1120631Y182295D01*
X1120649Y182166D01*
Y182055D01*
X1120668Y181980D01*
Y181906D01*
Y181869D01*
Y181851D01*
X1120649Y181592D01*
X1120631Y181351D01*
X1120594Y181129D01*
X1120538Y180925D01*
X1120482Y180758D01*
X1120445Y180629D01*
X1120427Y180555D01*
X1120408Y180518D01*
X1120297Y180277D01*
X1120168Y180073D01*
X1120038Y179888D01*
X1119909Y179740D01*
X1119797Y179610D01*
X1119705Y179518D01*
X1119649Y179462D01*
X1119631Y179444D01*
X1119927Y179240D01*
X1120186Y179018D01*
X1120408Y178777D01*
X1120575Y178573D01*
X1120723Y178370D01*
X1120816Y178222D01*
X1120871Y178111D01*
X1120890Y178092D01*
Y178074D01*
X1121019Y177759D01*
X1121131Y177425D01*
X1121205Y177111D01*
X1121242Y176833D01*
X1121279Y176592D01*
X1121297Y176407D01*
Y176333D01*
Y176277D01*
Y176259D01*
Y176240D01*
X1121279Y175963D01*
X1121260Y175685D01*
X1121149Y175185D01*
X1121001Y174741D01*
X1120834Y174370D01*
X1120742Y174203D01*
X1120668Y174055D01*
X1120594Y173944D01*
X1120519Y173833D01*
X1120464Y173759D01*
X1120408Y173704D01*
X1120390Y173667D01*
X1120371Y173648D01*
X1120168Y173444D01*
X1119946Y173278D01*
X1119723Y173111D01*
X1119483Y172981D01*
X1119242Y172870D01*
X1119020Y172778D01*
X1118575Y172648D01*
X1118353Y172593D01*
X1118168Y172556D01*
X1118001Y172537D01*
X1117853Y172519D01*
X1117723Y172500D01*
X1117557D01*
X1117224Y172519D01*
X1116927Y172556D01*
X1116631Y172611D01*
X1116372Y172685D01*
X1116113Y172778D01*
X1115890Y172870D01*
X1115668Y172981D01*
X1115483Y173092D01*
X1115316Y173185D01*
X1115168Y173296D01*
X1115039Y173389D01*
X1114928Y173481D01*
X1114853Y173556D01*
X1114798Y173611D01*
X1114761Y173648D01*
X1114742Y173667D01*
X1114576Y173870D01*
X1114427Y174092D01*
X1114298Y174315D01*
X1114187Y174537D01*
X1114020Y174963D01*
X1113909Y175370D01*
X1113854Y175722D01*
X1113835Y175870D01*
X1113817Y176000D01*
X1113798Y176092D01*
Y176166D01*
Y176222D01*
Y176240D01*
X1113817Y176611D01*
X1113872Y176944D01*
X1113946Y177259D01*
X1114020Y177518D01*
X1114094Y177759D01*
X1114168Y177925D01*
X1114224Y178036D01*
X1114242Y178074D01*
X1114409Y178388D01*
X1114613Y178647D01*
X1114816Y178888D01*
X1115020Y179073D01*
X1115205Y179221D01*
X1115353Y179333D01*
X1115446Y179407D01*
X1115464Y179425D01*
X1115483D01*
X1115298Y179592D01*
X1115150Y179777D01*
X1115002Y179962D01*
X1114891Y180147D01*
X1114816Y180296D01*
X1114761Y180407D01*
X1114724Y180481D01*
X1114705Y180518D01*
X1114613Y180758D01*
X1114539Y180999D01*
X1114502Y181221D01*
X1114465Y181425D01*
X1114446Y181592D01*
X1114427Y181740D01*
Y181814D01*
Y181851D01*
Y182092D01*
X1114465Y182314D01*
X1114557Y182721D01*
X1114687Y183092D01*
X1114816Y183406D01*
X1114965Y183666D01*
X1115094Y183851D01*
X1115150Y183925D01*
X1115187Y183980D01*
X1115205Y183999D01*
X1115224Y184017D01*
X1115390Y184184D01*
X1115576Y184351D01*
X1115761Y184480D01*
X1115964Y184591D01*
X1116353Y184758D01*
X1116724Y184869D01*
X1117057Y184943D01*
X1117187Y184962D01*
X1117316Y184980D01*
X1117409Y184999D01*
X1117557D01*
X1117835Y184980D01*
D02*
G37*
G36*
X1129574Y229963D02*
X1129704Y229907D01*
X1129796Y229833D01*
X1129833Y229814D01*
Y229796D01*
X1129926Y229648D01*
X1129982Y229499D01*
X1130000Y229407D01*
Y229388D01*
Y229370D01*
X1129982Y229185D01*
X1129907Y229055D01*
X1129852Y228963D01*
X1129833Y228925D01*
X1129685Y228833D01*
X1129537Y228777D01*
X1129426Y228759D01*
X1124371D01*
X1124260Y228777D01*
X1124167Y228796D01*
X1124038Y228870D01*
X1123945Y228925D01*
X1123927Y228963D01*
X1123834Y229111D01*
X1123778Y229240D01*
X1123760Y229333D01*
Y229370D01*
X1123797Y229537D01*
X1123852Y229666D01*
X1123908Y229759D01*
X1123945Y229796D01*
X1124019Y229870D01*
X1124075Y229907D01*
X1124223Y229981D01*
X1124334Y230000D01*
X1129482D01*
X1129574Y229963D01*
D02*
G37*
G36*
X1117798Y237480D02*
X1118038Y237462D01*
X1118520Y237351D01*
X1118909Y237184D01*
X1119242Y237017D01*
X1119520Y236832D01*
X1119631Y236740D01*
X1119705Y236665D01*
X1119779Y236610D01*
X1119834Y236554D01*
X1119853Y236536D01*
X1119871Y236517D01*
X1120131Y236166D01*
X1120316Y235795D01*
X1120445Y235425D01*
X1120538Y235092D01*
X1120594Y234795D01*
X1120612Y234666D01*
Y234555D01*
X1120631Y234480D01*
Y234406D01*
Y234369D01*
Y234351D01*
X1120612Y234092D01*
X1120594Y233851D01*
X1120556Y233629D01*
X1120501Y233425D01*
X1120445Y233258D01*
X1120408Y233129D01*
X1120390Y233055D01*
X1120371Y233018D01*
X1120260Y232777D01*
X1120131Y232573D01*
X1120001Y232388D01*
X1119871Y232240D01*
X1119760Y232110D01*
X1119668Y232018D01*
X1119612Y231962D01*
X1119594Y231944D01*
X1119890Y231740D01*
X1120149Y231518D01*
X1120371Y231277D01*
X1120538Y231073D01*
X1120686Y230870D01*
X1120779Y230722D01*
X1120834Y230611D01*
X1120853Y230592D01*
Y230574D01*
X1120982Y230259D01*
X1121094Y229925D01*
X1121168Y229611D01*
X1121205Y229333D01*
X1121242Y229092D01*
X1121260Y228907D01*
Y228833D01*
Y228777D01*
Y228759D01*
Y228740D01*
X1121242Y228463D01*
X1121223Y228185D01*
X1121112Y227685D01*
X1120964Y227241D01*
X1120797Y226870D01*
X1120705Y226703D01*
X1120631Y226555D01*
X1120556Y226444D01*
X1120482Y226333D01*
X1120427Y226259D01*
X1120371Y226204D01*
X1120353Y226167D01*
X1120334Y226148D01*
X1120131Y225944D01*
X1119909Y225778D01*
X1119686Y225611D01*
X1119445Y225481D01*
X1119205Y225370D01*
X1118983Y225278D01*
X1118538Y225148D01*
X1118316Y225093D01*
X1118131Y225056D01*
X1117964Y225037D01*
X1117816Y225019D01*
X1117686Y225000D01*
X1117520D01*
X1117187Y225019D01*
X1116890Y225056D01*
X1116594Y225111D01*
X1116335Y225185D01*
X1116076Y225278D01*
X1115853Y225370D01*
X1115631Y225481D01*
X1115446Y225592D01*
X1115279Y225685D01*
X1115131Y225796D01*
X1115002Y225889D01*
X1114891Y225981D01*
X1114816Y226056D01*
X1114761Y226111D01*
X1114724Y226148D01*
X1114705Y226167D01*
X1114539Y226370D01*
X1114390Y226592D01*
X1114261Y226815D01*
X1114150Y227037D01*
X1113983Y227463D01*
X1113872Y227870D01*
X1113817Y228222D01*
X1113798Y228370D01*
X1113780Y228500D01*
X1113761Y228592D01*
Y228666D01*
Y228722D01*
Y228740D01*
X1113780Y229111D01*
X1113835Y229444D01*
X1113909Y229759D01*
X1113983Y230018D01*
X1114057Y230259D01*
X1114131Y230425D01*
X1114187Y230536D01*
X1114205Y230574D01*
X1114372Y230888D01*
X1114576Y231147D01*
X1114779Y231388D01*
X1114983Y231573D01*
X1115168Y231721D01*
X1115316Y231833D01*
X1115409Y231907D01*
X1115427Y231925D01*
X1115446D01*
X1115261Y232092D01*
X1115113Y232277D01*
X1114965Y232462D01*
X1114853Y232647D01*
X1114779Y232796D01*
X1114724Y232907D01*
X1114687Y232981D01*
X1114668Y233018D01*
X1114576Y233258D01*
X1114502Y233499D01*
X1114465Y233721D01*
X1114427Y233925D01*
X1114409Y234092D01*
X1114390Y234240D01*
Y234314D01*
Y234351D01*
Y234592D01*
X1114427Y234814D01*
X1114520Y235221D01*
X1114650Y235592D01*
X1114779Y235906D01*
X1114928Y236166D01*
X1115057Y236351D01*
X1115113Y236425D01*
X1115150Y236480D01*
X1115168Y236499D01*
X1115187Y236517D01*
X1115353Y236684D01*
X1115538Y236851D01*
X1115724Y236980D01*
X1115927Y237091D01*
X1116316Y237258D01*
X1116687Y237369D01*
X1117020Y237443D01*
X1117150Y237462D01*
X1117279Y237480D01*
X1117372Y237499D01*
X1117520D01*
X1117798Y237480D01*
D02*
G37*
G36*
X1549556Y602481D02*
X1549686Y602425D01*
X1549778Y602351D01*
X1549815Y602333D01*
X1549926Y602166D01*
X1549982Y602018D01*
X1550000Y601907D01*
Y601888D01*
Y601870D01*
Y600000D01*
X1552000D01*
X1552093Y599963D01*
X1552222Y599907D01*
X1552315Y599833D01*
X1552352Y599814D01*
Y599796D01*
X1552444Y599648D01*
X1552482Y599500D01*
X1552500Y599407D01*
Y599388D01*
Y599370D01*
X1552482Y599185D01*
X1552426Y599055D01*
X1552370Y598963D01*
X1552352Y598926D01*
X1552204Y598833D01*
X1552056Y598777D01*
X1551926Y598759D01*
X1550000D01*
Y596870D01*
X1549963Y596666D01*
X1549908Y596518D01*
X1549852Y596426D01*
X1549815Y596389D01*
X1549667Y596296D01*
X1549537Y596259D01*
X1549426Y596241D01*
X1549389D01*
X1549204Y596259D01*
X1549056Y596315D01*
X1548982Y596370D01*
X1548945Y596389D01*
X1548834Y596537D01*
X1548778Y596685D01*
X1548760Y596759D01*
Y596815D01*
Y596852D01*
Y596870D01*
Y598759D01*
X1546889D01*
X1546778Y598777D01*
X1546686Y598796D01*
X1546538Y598870D01*
X1546445Y598926D01*
X1546427Y598963D01*
X1546334Y599111D01*
X1546278Y599240D01*
X1546260Y599333D01*
Y599370D01*
X1546278Y599537D01*
X1546334Y599666D01*
X1546408Y599759D01*
X1546427Y599796D01*
X1546501Y599870D01*
X1546575Y599907D01*
X1546723Y599981D01*
X1546834Y600000D01*
X1548760D01*
Y601870D01*
Y601981D01*
X1548797Y602073D01*
X1548852Y602221D01*
X1548926Y602314D01*
X1548945Y602333D01*
X1548963D01*
X1549111Y602425D01*
X1549260Y602481D01*
X1549352Y602499D01*
X1549389D01*
X1549556Y602481D01*
D02*
G37*
G36*
X1540335Y607480D02*
X1540575Y607462D01*
X1541057Y607351D01*
X1541446Y607184D01*
X1541779Y607017D01*
X1542057Y606832D01*
X1542168Y606740D01*
X1542242Y606665D01*
X1542316Y606610D01*
X1542371Y606554D01*
X1542390Y606536D01*
X1542408Y606517D01*
X1542668Y606166D01*
X1542853Y605795D01*
X1542982Y605425D01*
X1543075Y605092D01*
X1543131Y604795D01*
X1543149Y604666D01*
Y604555D01*
X1543168Y604481D01*
Y604406D01*
Y604369D01*
Y604351D01*
X1543149Y604092D01*
X1543131Y603851D01*
X1543094Y603629D01*
X1543038Y603425D01*
X1542982Y603258D01*
X1542945Y603129D01*
X1542927Y603055D01*
X1542908Y603018D01*
X1542797Y602777D01*
X1542668Y602573D01*
X1542538Y602388D01*
X1542408Y602240D01*
X1542297Y602110D01*
X1542205Y602018D01*
X1542149Y601962D01*
X1542131Y601944D01*
X1542427Y601740D01*
X1542686Y601518D01*
X1542908Y601277D01*
X1543075Y601073D01*
X1543223Y600870D01*
X1543316Y600722D01*
X1543371Y600611D01*
X1543390Y600592D01*
Y600574D01*
X1543519Y600259D01*
X1543631Y599925D01*
X1543705Y599611D01*
X1543742Y599333D01*
X1543779Y599092D01*
X1543797Y598907D01*
Y598833D01*
Y598777D01*
Y598759D01*
Y598740D01*
X1543779Y598463D01*
X1543760Y598185D01*
X1543649Y597685D01*
X1543501Y597240D01*
X1543334Y596870D01*
X1543242Y596703D01*
X1543168Y596555D01*
X1543094Y596444D01*
X1543020Y596333D01*
X1542964Y596259D01*
X1542908Y596204D01*
X1542890Y596166D01*
X1542871Y596148D01*
X1542668Y595944D01*
X1542446Y595778D01*
X1542223Y595611D01*
X1541983Y595481D01*
X1541742Y595370D01*
X1541520Y595278D01*
X1541075Y595148D01*
X1540853Y595093D01*
X1540668Y595056D01*
X1540501Y595037D01*
X1540353Y595019D01*
X1540224Y595000D01*
X1540057D01*
X1539724Y595019D01*
X1539427Y595056D01*
X1539131Y595111D01*
X1538872Y595185D01*
X1538613Y595278D01*
X1538390Y595370D01*
X1538168Y595481D01*
X1537983Y595592D01*
X1537816Y595685D01*
X1537668Y595796D01*
X1537539Y595889D01*
X1537428Y595981D01*
X1537353Y596055D01*
X1537298Y596111D01*
X1537261Y596148D01*
X1537242Y596166D01*
X1537076Y596370D01*
X1536927Y596592D01*
X1536798Y596815D01*
X1536687Y597037D01*
X1536520Y597463D01*
X1536409Y597870D01*
X1536353Y598222D01*
X1536335Y598370D01*
X1536317Y598500D01*
X1536298Y598592D01*
Y598666D01*
Y598722D01*
Y598740D01*
X1536317Y599111D01*
X1536372Y599444D01*
X1536446Y599759D01*
X1536520Y600018D01*
X1536594Y600259D01*
X1536668Y600425D01*
X1536724Y600536D01*
X1536742Y600574D01*
X1536909Y600888D01*
X1537113Y601147D01*
X1537316Y601388D01*
X1537520Y601573D01*
X1537705Y601721D01*
X1537853Y601833D01*
X1537946Y601907D01*
X1537964Y601925D01*
X1537983D01*
X1537798Y602092D01*
X1537650Y602277D01*
X1537502Y602462D01*
X1537390Y602647D01*
X1537316Y602795D01*
X1537261Y602907D01*
X1537224Y602981D01*
X1537205Y603018D01*
X1537113Y603258D01*
X1537039Y603499D01*
X1537002Y603721D01*
X1536965Y603925D01*
X1536946Y604092D01*
X1536927Y604240D01*
Y604314D01*
Y604351D01*
Y604592D01*
X1536965Y604814D01*
X1537057Y605221D01*
X1537187Y605592D01*
X1537316Y605906D01*
X1537464Y606166D01*
X1537594Y606351D01*
X1537650Y606425D01*
X1537687Y606480D01*
X1537705Y606499D01*
X1537724Y606517D01*
X1537890Y606684D01*
X1538076Y606851D01*
X1538261Y606980D01*
X1538464Y607091D01*
X1538853Y607258D01*
X1539224Y607369D01*
X1539557Y607443D01*
X1539686Y607462D01*
X1539816Y607480D01*
X1539909Y607499D01*
X1540057D01*
X1540335Y607480D01*
D02*
G37*
G36*
X1740258Y622444D02*
X1740610Y622369D01*
X1740906Y622240D01*
X1741165Y622110D01*
X1741369Y621981D01*
X1741517Y621851D01*
X1741610Y621777D01*
X1741647Y621740D01*
X1741887Y621444D01*
X1742072Y621147D01*
X1742202Y620851D01*
X1742295Y620592D01*
X1742350Y620351D01*
X1742369Y620147D01*
X1742387Y620073D01*
Y617722D01*
X1742887Y617870D01*
X1743387Y618055D01*
X1743739Y618222D01*
X1744054Y618388D01*
X1744332Y618592D01*
X1744591Y618759D01*
X1744794Y618925D01*
X1744943Y619055D01*
X1745035Y619147D01*
X1745072Y619184D01*
X1745331Y619462D01*
X1745535Y619721D01*
X1745609Y619814D01*
X1745683Y619888D01*
X1745702Y619944D01*
X1745720Y619962D01*
X1745813Y620129D01*
X1745905Y620258D01*
X1745943Y620351D01*
X1745961Y620388D01*
X1746035Y620555D01*
X1746109Y620703D01*
X1746165Y620814D01*
X1746183Y620832D01*
Y620851D01*
X1746276Y620999D01*
X1746368Y621092D01*
X1746424Y621129D01*
X1746442Y621147D01*
X1746535Y621184D01*
X1746646Y621221D01*
X1746720D01*
X1746739D01*
X1746924Y621203D01*
X1747072Y621147D01*
X1747165Y621092D01*
X1747202Y621073D01*
X1747276Y620999D01*
X1747313Y620925D01*
X1747387Y620777D01*
X1747405Y620666D01*
Y620629D01*
X1747331Y620370D01*
X1747128Y619944D01*
X1746887Y619536D01*
X1746646Y619184D01*
X1746424Y618888D01*
X1746220Y618629D01*
X1746054Y618444D01*
X1745998Y618370D01*
X1745943Y618314D01*
X1745924Y618296D01*
X1745905Y618277D01*
X1745554Y617962D01*
X1745202Y617685D01*
X1744868Y617444D01*
X1744554Y617259D01*
X1744294Y617111D01*
X1744072Y617000D01*
X1743998Y616963D01*
X1743943Y616926D01*
X1743906Y616907D01*
X1743887D01*
X1743295Y616685D01*
X1742684Y616518D01*
X1742128Y616407D01*
X1741850Y616352D01*
X1741610Y616333D01*
X1741369Y616296D01*
X1741165Y616277D01*
X1740980Y616259D01*
X1740813D01*
X1740684Y616240D01*
X1740591D01*
X1740536D01*
X1740517D01*
X1737388D01*
X1737018Y616277D01*
X1736684Y616352D01*
X1736369Y616481D01*
X1736129Y616611D01*
X1735907Y616740D01*
X1735758Y616870D01*
X1735666Y616944D01*
X1735629Y616981D01*
X1735388Y617277D01*
X1735203Y617574D01*
X1735092Y617851D01*
X1734999Y618129D01*
X1734944Y618370D01*
X1734925Y618555D01*
X1734907Y618629D01*
Y619981D01*
X1734944Y620351D01*
X1735018Y620703D01*
X1735129Y620999D01*
X1735277Y621258D01*
X1735406Y621462D01*
X1735518Y621610D01*
X1735592Y621703D01*
X1735629Y621740D01*
X1735925Y621981D01*
X1736221Y622166D01*
X1736517Y622295D01*
X1736795Y622388D01*
X1737036Y622444D01*
X1737221Y622462D01*
X1737295Y622481D01*
X1737351D01*
X1737369D01*
X1737388D01*
X1739888D01*
X1740258Y622444D01*
D02*
G37*
G36*
X1745276Y613704D02*
X1745609Y613630D01*
X1745905Y613500D01*
X1746165Y613370D01*
X1746368Y613241D01*
X1746535Y613111D01*
X1746628Y613037D01*
X1746665Y613000D01*
X1746905Y612722D01*
X1747090Y612426D01*
X1747220Y612130D01*
X1747313Y611852D01*
X1747368Y611611D01*
X1747387Y611408D01*
X1747405Y611334D01*
Y609982D01*
X1747368Y609612D01*
X1747294Y609278D01*
X1747165Y608963D01*
X1747035Y608723D01*
X1746905Y608501D01*
X1746776Y608352D01*
X1746702Y608260D01*
X1746665Y608223D01*
X1746368Y607982D01*
X1746072Y607797D01*
X1745776Y607686D01*
X1745517Y607593D01*
X1745276Y607538D01*
X1745072Y607519D01*
X1744998Y607501D01*
X1744943D01*
X1744924D01*
X1744906D01*
X1742406D01*
X1742036Y607538D01*
X1741684Y607612D01*
X1741387Y607741D01*
X1741128Y607871D01*
X1740906Y608000D01*
X1740758Y608130D01*
X1740665Y608204D01*
X1740628Y608241D01*
X1740388Y608537D01*
X1740202Y608834D01*
X1740091Y609112D01*
X1739999Y609389D01*
X1739943Y609630D01*
X1739925Y609815D01*
X1739906Y609889D01*
Y612241D01*
X1739369Y612093D01*
X1738906Y611926D01*
X1738554Y611759D01*
X1738221Y611556D01*
X1737943Y611371D01*
X1737684Y611204D01*
X1737480Y611037D01*
X1737332Y610908D01*
X1737240Y610834D01*
X1737203Y610797D01*
X1736943Y610519D01*
X1736721Y610260D01*
X1736647Y610148D01*
X1736592Y610074D01*
X1736555Y610019D01*
X1736536Y610000D01*
X1736351Y609686D01*
X1736277Y609537D01*
X1736221Y609408D01*
X1736166Y609297D01*
X1736129Y609204D01*
X1736092Y609148D01*
Y609130D01*
X1735999Y608982D01*
X1735925Y608889D01*
X1735851Y608834D01*
X1735832Y608815D01*
X1735740Y608778D01*
X1735647Y608760D01*
X1735573Y608741D01*
X1735555D01*
X1735370Y608778D01*
X1735221Y608834D01*
X1735129Y608889D01*
X1735110Y608926D01*
X1735092D01*
X1734981Y609075D01*
X1734925Y609204D01*
X1734907Y609297D01*
Y609334D01*
X1734944Y609612D01*
X1735147Y610037D01*
X1735370Y610426D01*
X1735592Y610778D01*
X1735814Y611093D01*
X1736018Y611334D01*
X1736184Y611519D01*
X1736240Y611574D01*
X1736295Y611630D01*
X1736314Y611648D01*
X1736332Y611667D01*
X1736684Y611982D01*
X1737036Y612259D01*
X1737388Y612500D01*
X1737703Y612704D01*
X1737999Y612852D01*
X1738110Y612907D01*
X1738203Y612963D01*
X1738295Y613000D01*
X1738351Y613037D01*
X1738388Y613055D01*
X1738406D01*
X1738999Y613278D01*
X1739591Y613444D01*
X1740165Y613574D01*
X1740684Y613648D01*
X1740906Y613685D01*
X1741128Y613704D01*
X1741313Y613722D01*
X1741480D01*
X1741610Y613741D01*
X1741702D01*
X1741758D01*
X1741776D01*
X1744906D01*
X1745276Y613704D01*
D02*
G37*
G36*
X1745054Y604964D02*
X1745443Y604871D01*
X1745776Y604742D01*
X1746054Y604594D01*
X1746276Y604427D01*
X1746442Y604297D01*
X1746553Y604205D01*
X1746591Y604186D01*
Y604168D01*
X1746739Y604019D01*
X1746868Y603853D01*
X1747054Y603520D01*
X1747202Y603205D01*
X1747313Y602908D01*
X1747368Y602631D01*
X1747387Y602427D01*
X1747405Y602353D01*
Y601297D01*
X1747368Y601094D01*
X1747276Y600705D01*
X1747146Y600390D01*
X1746998Y600094D01*
X1746831Y599872D01*
X1746702Y599705D01*
X1746609Y599594D01*
X1746591Y599576D01*
X1746572Y599557D01*
X1746405Y599409D01*
X1746257Y599298D01*
X1745924Y599094D01*
X1745591Y598964D01*
X1745294Y598853D01*
X1745035Y598798D01*
X1744832Y598779D01*
X1744757Y598761D01*
X1744702D01*
X1744665D01*
X1744646D01*
X1737647D01*
X1737425Y598779D01*
X1737221Y598798D01*
X1736851Y598890D01*
X1736517Y599020D01*
X1736221Y599168D01*
X1735999Y599316D01*
X1735832Y599446D01*
X1735721Y599538D01*
X1735703Y599576D01*
X1735684D01*
X1735425Y599890D01*
X1735240Y600224D01*
X1735092Y600538D01*
X1734999Y600853D01*
X1734944Y601112D01*
X1734925Y601316D01*
X1734907Y601390D01*
Y602242D01*
X1734925Y602445D01*
X1734944Y602649D01*
X1735036Y603038D01*
X1735166Y603371D01*
X1735314Y603649D01*
X1735462Y603871D01*
X1735592Y604038D01*
X1735684Y604149D01*
X1735721Y604186D01*
X1735869Y604334D01*
X1736036Y604464D01*
X1736369Y604649D01*
X1736684Y604797D01*
X1736999Y604908D01*
X1737258Y604964D01*
X1737462Y604982D01*
X1737536Y605001D01*
X1737592D01*
X1737628D01*
X1737647D01*
X1744646D01*
X1744850D01*
X1745054Y604964D01*
D02*
G37*
G36*
X1735703Y596224D02*
X1735832Y596150D01*
X1735925Y596076D01*
X1735962Y596057D01*
Y596039D01*
X1736073Y595891D01*
X1736129Y595761D01*
X1736147Y595668D01*
Y595631D01*
X1736110Y595446D01*
X1736055Y595317D01*
X1735999Y595224D01*
X1735962Y595187D01*
X1735814Y595094D01*
X1735666Y595039D01*
X1735555Y595020D01*
X1735536D01*
X1735518D01*
X1735351Y595039D01*
X1735221Y595113D01*
X1735129Y595168D01*
X1735092Y595187D01*
X1734981Y595335D01*
X1734925Y595483D01*
X1734907Y595594D01*
Y595631D01*
X1734944Y595817D01*
X1734999Y595946D01*
X1735055Y596039D01*
X1735092Y596076D01*
X1735240Y596187D01*
X1735388Y596242D01*
X1735481Y596261D01*
X1735499D01*
X1735518D01*
X1735610D01*
X1735703Y596224D01*
D02*
G37*
G36*
X1738165Y592484D02*
X1738295Y592428D01*
X1738388Y592373D01*
X1738425Y592336D01*
X1738499Y592261D01*
X1738536Y592187D01*
X1738610Y592039D01*
X1738628Y591928D01*
Y590650D01*
X1740499D01*
X1740610D01*
X1740702Y590613D01*
X1740850Y590558D01*
X1740943Y590484D01*
X1740961Y590465D01*
Y590447D01*
X1741054Y590299D01*
X1741110Y590169D01*
X1741128Y590058D01*
Y590021D01*
X1741110Y589854D01*
X1741054Y589725D01*
X1740980Y589632D01*
X1740961Y589595D01*
X1740795Y589484D01*
X1740647Y589428D01*
X1740536Y589410D01*
X1740517D01*
X1740499D01*
X1738628D01*
Y586466D01*
X1746591Y588743D01*
X1746776Y588762D01*
X1746961Y588725D01*
X1747109Y588669D01*
X1747183Y588614D01*
X1747220Y588577D01*
X1747331Y588428D01*
X1747387Y588280D01*
X1747405Y588169D01*
Y588021D01*
X1747387Y587947D01*
X1747368Y587892D01*
X1747350Y587873D01*
X1747276Y587762D01*
X1747165Y587651D01*
X1747054Y587595D01*
X1746979Y587558D01*
X1746942Y587540D01*
X1738184Y585040D01*
X1738036Y585003D01*
X1737888D01*
X1737721Y585040D01*
X1737592Y585114D01*
X1737517Y585207D01*
X1737443Y585336D01*
X1737406Y585447D01*
X1737388Y585558D01*
Y589410D01*
X1735518D01*
X1735314Y589447D01*
X1735166Y589502D01*
X1735092Y589558D01*
X1735055Y589595D01*
X1734962Y589743D01*
X1734925Y589873D01*
X1734907Y589984D01*
Y590021D01*
X1734925Y590206D01*
X1734981Y590354D01*
X1735036Y590428D01*
X1735055Y590465D01*
X1735203Y590576D01*
X1735351Y590632D01*
X1735462Y590650D01*
X1735499D01*
X1735518D01*
X1737388D01*
Y591891D01*
X1737406Y592002D01*
X1737425Y592095D01*
X1737499Y592243D01*
X1737554Y592336D01*
X1737592Y592354D01*
X1737740Y592447D01*
X1737869Y592502D01*
X1737962Y592521D01*
X1737999D01*
X1738165Y592484D01*
D02*
G37*
G36*
X1739443Y582540D02*
X1739573Y582485D01*
X1739665Y582411D01*
X1739702Y582392D01*
X1739776Y582318D01*
X1739814Y582244D01*
X1739888Y582096D01*
X1739906Y581985D01*
Y580059D01*
X1741776D01*
X1741887D01*
X1741980Y580022D01*
X1742128Y579966D01*
X1742221Y579892D01*
X1742239Y579874D01*
Y579855D01*
X1742332Y579707D01*
X1742387Y579559D01*
X1742406Y579466D01*
Y579429D01*
X1742387Y579263D01*
X1742332Y579133D01*
X1742258Y579040D01*
X1742239Y579003D01*
X1742072Y578892D01*
X1741924Y578837D01*
X1741813Y578818D01*
X1741795D01*
X1741776D01*
X1739906D01*
Y576819D01*
X1739869Y576726D01*
X1739814Y576596D01*
X1739739Y576504D01*
X1739721Y576467D01*
X1739702D01*
X1739554Y576374D01*
X1739406Y576337D01*
X1739314Y576319D01*
X1739295D01*
X1739276D01*
X1739091Y576337D01*
X1738962Y576393D01*
X1738869Y576448D01*
X1738832Y576467D01*
X1738739Y576615D01*
X1738684Y576763D01*
X1738665Y576893D01*
Y578818D01*
X1736777D01*
X1736573Y578855D01*
X1736425Y578911D01*
X1736332Y578966D01*
X1736295Y579003D01*
X1736203Y579152D01*
X1736166Y579281D01*
X1736147Y579392D01*
Y579429D01*
X1736166Y579615D01*
X1736221Y579763D01*
X1736277Y579837D01*
X1736295Y579874D01*
X1736443Y579985D01*
X1736592Y580040D01*
X1736666Y580059D01*
X1736721D01*
X1736758D01*
X1736777D01*
X1738665D01*
Y581929D01*
X1738684Y582040D01*
X1738703Y582133D01*
X1738777Y582281D01*
X1738832Y582374D01*
X1738869Y582392D01*
X1739017Y582485D01*
X1739147Y582540D01*
X1739239Y582559D01*
X1739276D01*
X1739443Y582540D01*
D02*
G37*
G36*
X1290778Y668627D02*
X1290907Y668572D01*
X1291000Y668516D01*
X1291037Y668479D01*
X1291111Y668405D01*
X1291148Y668350D01*
X1291222Y668202D01*
X1291241Y668090D01*
Y664165D01*
X1297666Y668202D01*
X1297962Y668331D01*
X1298240Y668442D01*
X1298499Y668516D01*
X1298721Y668553D01*
X1298925Y668590D01*
X1299073Y668609D01*
X1299166D01*
X1299203D01*
X1299444Y668590D01*
X1299684Y668572D01*
X1300129Y668442D01*
X1300536Y668294D01*
X1300869Y668109D01*
X1301147Y667905D01*
X1301258Y667831D01*
X1301351Y667757D01*
X1301425Y667683D01*
X1301480Y667627D01*
X1301499Y667609D01*
X1301517Y667590D01*
X1301684Y667387D01*
X1301851Y667183D01*
X1301980Y666979D01*
X1302091Y666776D01*
X1302258Y666350D01*
X1302369Y665961D01*
X1302443Y665628D01*
X1302462Y665480D01*
X1302480Y665350D01*
X1302499Y665257D01*
Y665109D01*
X1302480Y664868D01*
X1302443Y664628D01*
X1302406Y664535D01*
X1302388Y664461D01*
X1302369Y664424D01*
Y664406D01*
X1302276Y664146D01*
X1302165Y663906D01*
X1302128Y663813D01*
X1302091Y663739D01*
X1302073Y663702D01*
X1302054Y663683D01*
X1301888Y663424D01*
X1301703Y663184D01*
X1301517Y662998D01*
X1301351Y662832D01*
X1301203Y662684D01*
X1301073Y662591D01*
X1300999Y662535D01*
X1300962Y662517D01*
X1300814Y662461D01*
X1300703Y662424D01*
X1300629Y662406D01*
X1300610D01*
X1300517Y662424D01*
X1300425Y662443D01*
X1300295Y662517D01*
X1300203Y662572D01*
X1300166Y662609D01*
X1300073Y662758D01*
X1300018Y662906D01*
X1299999Y663017D01*
Y663054D01*
X1300055Y663332D01*
X1300129Y663443D01*
X1300203Y663517D01*
X1300258Y663554D01*
X1300277Y663572D01*
X1300573Y663795D01*
X1300703Y663924D01*
X1300814Y664035D01*
X1300888Y664146D01*
X1300943Y664221D01*
X1300980Y664276D01*
X1300999Y664295D01*
X1301091Y664461D01*
X1301147Y664628D01*
X1301203Y664776D01*
X1301221Y664924D01*
X1301240Y665035D01*
X1301258Y665128D01*
Y665202D01*
X1301240Y665535D01*
X1301203Y665683D01*
X1301184Y665794D01*
X1301147Y665906D01*
X1301110Y665980D01*
X1301091Y666035D01*
Y666054D01*
X1300943Y666331D01*
X1300814Y666535D01*
X1300740Y666628D01*
X1300703Y666683D01*
X1300666Y666720D01*
X1300647Y666739D01*
X1300425Y666942D01*
X1300184Y667109D01*
X1299944Y667220D01*
X1299740Y667294D01*
X1299536Y667331D01*
X1299388Y667368D01*
X1299295D01*
X1299277D01*
X1299258D01*
X1299092Y667350D01*
X1298925Y667331D01*
X1298758Y667294D01*
X1298629Y667257D01*
X1298499Y667202D01*
X1298407Y667165D01*
X1298333Y667146D01*
X1298314Y667128D01*
X1290963Y662517D01*
X1290778Y662424D01*
X1290630Y662387D01*
X1290537Y662369D01*
X1290500D01*
X1290333Y662406D01*
X1290204Y662480D01*
X1290130Y662591D01*
X1290056Y662721D01*
X1290019Y662832D01*
X1290000Y662943D01*
Y668053D01*
X1290019Y668165D01*
X1290037Y668257D01*
X1290111Y668387D01*
X1290167Y668479D01*
X1290204Y668498D01*
X1290352Y668590D01*
X1290482Y668646D01*
X1290574Y668664D01*
X1290611D01*
X1290778Y668627D01*
D02*
G37*
G36*
X1302091Y659943D02*
X1302258Y659888D01*
X1302369Y659814D01*
X1302406Y659795D01*
X1302517Y659647D01*
X1302573Y659536D01*
X1302591Y659462D01*
Y659443D01*
X1302573Y659332D01*
X1302554Y659240D01*
X1302536Y659165D01*
X1302517Y659147D01*
X1302462Y659054D01*
X1302388Y658962D01*
X1302332Y658906D01*
X1302314Y658888D01*
X1299795Y656388D01*
X1299647Y656277D01*
X1299499Y656221D01*
X1299406Y656203D01*
X1299388D01*
X1299369D01*
X1299277Y656221D01*
X1299203Y656240D01*
X1299055Y656314D01*
X1298962Y656369D01*
X1298944Y656406D01*
X1298925D01*
X1298814Y656555D01*
X1298758Y656703D01*
X1298740Y656795D01*
Y656832D01*
X1298777Y656999D01*
X1298833Y657147D01*
X1298888Y657240D01*
X1298925Y657277D01*
X1300369Y658721D01*
X1290611D01*
X1290407Y658758D01*
X1290259Y658814D01*
X1290185Y658869D01*
X1290148Y658906D01*
X1290056Y659054D01*
X1290019Y659184D01*
X1290000Y659295D01*
Y659332D01*
X1290019Y659517D01*
X1290074Y659665D01*
X1290130Y659739D01*
X1290148Y659777D01*
X1290296Y659888D01*
X1290444Y659943D01*
X1290556Y659962D01*
X1290593D01*
X1290611D01*
X1301869D01*
X1302091Y659943D01*
D02*
G37*
G36*
X1294537Y653722D02*
X1294666Y653666D01*
X1294759Y653592D01*
X1294796Y653573D01*
X1294870Y653499D01*
X1294907Y653425D01*
X1294981Y653277D01*
X1295000Y653166D01*
Y651240D01*
X1296870D01*
X1296981D01*
X1297073Y651203D01*
X1297222Y651148D01*
X1297314Y651074D01*
X1297333Y651055D01*
Y651037D01*
X1297425Y650889D01*
X1297481Y650740D01*
X1297499Y650648D01*
Y650611D01*
X1297481Y650444D01*
X1297425Y650314D01*
X1297351Y650222D01*
X1297333Y650185D01*
X1297166Y650074D01*
X1297018Y650018D01*
X1296907Y650000D01*
X1296888D01*
X1296870D01*
X1295000D01*
Y648000D01*
X1294962Y647907D01*
X1294907Y647778D01*
X1294833Y647685D01*
X1294814Y647648D01*
X1294796D01*
X1294648Y647555D01*
X1294500Y647518D01*
X1294407Y647500D01*
X1294388D01*
X1294370D01*
X1294185Y647518D01*
X1294055Y647574D01*
X1293963Y647630D01*
X1293926Y647648D01*
X1293833Y647796D01*
X1293777Y647944D01*
X1293759Y648074D01*
Y650000D01*
X1291870D01*
X1291667Y650037D01*
X1291518Y650092D01*
X1291426Y650148D01*
X1291389Y650185D01*
X1291296Y650333D01*
X1291259Y650463D01*
X1291241Y650574D01*
Y650611D01*
X1291259Y650796D01*
X1291315Y650944D01*
X1291370Y651018D01*
X1291389Y651055D01*
X1291537Y651166D01*
X1291685Y651222D01*
X1291759Y651240D01*
X1291815D01*
X1291852D01*
X1291870D01*
X1293759D01*
Y653111D01*
X1293777Y653222D01*
X1293796Y653314D01*
X1293870Y653462D01*
X1293926Y653555D01*
X1293963Y653573D01*
X1294111Y653666D01*
X1294240Y653722D01*
X1294333Y653740D01*
X1294370D01*
X1294537Y653722D01*
D02*
G37*
G36*
X1527074Y542462D02*
X1527204Y542407D01*
X1527296Y542333D01*
X1527333Y542314D01*
Y542296D01*
X1527426Y542148D01*
X1527482Y542000D01*
X1527500Y541907D01*
Y541888D01*
Y541870D01*
X1527482Y541685D01*
X1527407Y541555D01*
X1527352Y541463D01*
X1527333Y541426D01*
X1527185Y541333D01*
X1527037Y541277D01*
X1526926Y541259D01*
X1521871D01*
X1521760Y541277D01*
X1521667Y541296D01*
X1521538Y541370D01*
X1521445Y541426D01*
X1521427Y541463D01*
X1521334Y541611D01*
X1521278Y541740D01*
X1521260Y541833D01*
Y541870D01*
X1521297Y542037D01*
X1521353Y542166D01*
X1521408Y542259D01*
X1521445Y542296D01*
X1521519Y542370D01*
X1521575Y542407D01*
X1521723Y542481D01*
X1521834Y542500D01*
X1526982D01*
X1527074Y542462D01*
D02*
G37*
G36*
X1515298Y549980D02*
X1515538Y549962D01*
X1516020Y549851D01*
X1516409Y549684D01*
X1516742Y549517D01*
X1517020Y549332D01*
X1517131Y549240D01*
X1517205Y549165D01*
X1517279Y549110D01*
X1517334Y549054D01*
X1517353Y549036D01*
X1517371Y549017D01*
X1517631Y548666D01*
X1517816Y548295D01*
X1517945Y547925D01*
X1518038Y547592D01*
X1518094Y547295D01*
X1518112Y547166D01*
Y547055D01*
X1518131Y546981D01*
Y546906D01*
Y546869D01*
Y546851D01*
X1518112Y546592D01*
X1518094Y546351D01*
X1518056Y546129D01*
X1518001Y545925D01*
X1517945Y545758D01*
X1517908Y545629D01*
X1517890Y545555D01*
X1517871Y545518D01*
X1517760Y545277D01*
X1517631Y545073D01*
X1517501Y544888D01*
X1517371Y544740D01*
X1517260Y544610D01*
X1517168Y544518D01*
X1517112Y544462D01*
X1517094Y544444D01*
X1517390Y544240D01*
X1517649Y544018D01*
X1517871Y543777D01*
X1518038Y543573D01*
X1518186Y543370D01*
X1518279Y543222D01*
X1518334Y543111D01*
X1518353Y543092D01*
Y543074D01*
X1518482Y542759D01*
X1518593Y542425D01*
X1518668Y542111D01*
X1518705Y541833D01*
X1518742Y541592D01*
X1518760Y541407D01*
Y541333D01*
Y541277D01*
Y541259D01*
Y541240D01*
X1518742Y540963D01*
X1518723Y540685D01*
X1518612Y540185D01*
X1518464Y539740D01*
X1518297Y539370D01*
X1518205Y539203D01*
X1518131Y539055D01*
X1518056Y538944D01*
X1517982Y538833D01*
X1517927Y538759D01*
X1517871Y538704D01*
X1517853Y538666D01*
X1517834Y538648D01*
X1517631Y538444D01*
X1517408Y538278D01*
X1517186Y538111D01*
X1516945Y537981D01*
X1516705Y537870D01*
X1516483Y537778D01*
X1516038Y537648D01*
X1515816Y537593D01*
X1515631Y537556D01*
X1515464Y537537D01*
X1515316Y537519D01*
X1515186Y537500D01*
X1515020D01*
X1514686Y537519D01*
X1514390Y537556D01*
X1514094Y537611D01*
X1513835Y537685D01*
X1513575Y537778D01*
X1513353Y537870D01*
X1513131Y537981D01*
X1512946Y538092D01*
X1512779Y538185D01*
X1512631Y538296D01*
X1512502Y538389D01*
X1512390Y538481D01*
X1512316Y538555D01*
X1512261Y538611D01*
X1512224Y538648D01*
X1512205Y538666D01*
X1512039Y538870D01*
X1511891Y539092D01*
X1511761Y539315D01*
X1511650Y539537D01*
X1511483Y539963D01*
X1511372Y540370D01*
X1511317Y540722D01*
X1511298Y540870D01*
X1511279Y541000D01*
X1511261Y541092D01*
Y541166D01*
Y541222D01*
Y541240D01*
X1511279Y541611D01*
X1511335Y541944D01*
X1511409Y542259D01*
X1511483Y542518D01*
X1511557Y542759D01*
X1511631Y542925D01*
X1511687Y543036D01*
X1511705Y543074D01*
X1511872Y543388D01*
X1512076Y543647D01*
X1512279Y543888D01*
X1512483Y544073D01*
X1512668Y544221D01*
X1512816Y544333D01*
X1512909Y544407D01*
X1512927Y544425D01*
X1512946D01*
X1512761Y544592D01*
X1512613Y544777D01*
X1512464Y544962D01*
X1512353Y545147D01*
X1512279Y545295D01*
X1512224Y545407D01*
X1512187Y545481D01*
X1512168Y545518D01*
X1512076Y545758D01*
X1512002Y545999D01*
X1511965Y546221D01*
X1511927Y546425D01*
X1511909Y546592D01*
X1511891Y546740D01*
Y546814D01*
Y546851D01*
Y547092D01*
X1511927Y547314D01*
X1512020Y547721D01*
X1512150Y548092D01*
X1512279Y548406D01*
X1512428Y548666D01*
X1512557Y548851D01*
X1512613Y548925D01*
X1512650Y548980D01*
X1512668Y548999D01*
X1512687Y549017D01*
X1512853Y549184D01*
X1513038Y549351D01*
X1513224Y549480D01*
X1513427Y549591D01*
X1513816Y549758D01*
X1514187Y549869D01*
X1514520Y549943D01*
X1514650Y549962D01*
X1514779Y549980D01*
X1514872Y549999D01*
X1515020D01*
X1515298Y549980D01*
D02*
G37*
G36*
X1450872Y574980D02*
X1450927Y574962D01*
X1450946Y574943D01*
X1451057Y574869D01*
X1451168Y574758D01*
X1451223Y574647D01*
X1451260Y574573D01*
X1451279Y574536D01*
X1453779Y565777D01*
X1453816Y565629D01*
Y565481D01*
X1453779Y565314D01*
X1453705Y565185D01*
X1453612Y565111D01*
X1453482Y565037D01*
X1453371Y565000D01*
X1453260Y564981D01*
X1449409D01*
Y563111D01*
X1449372Y562907D01*
X1449316Y562759D01*
X1449261Y562685D01*
X1449224Y562648D01*
X1449075Y562556D01*
X1448946Y562519D01*
X1448835Y562500D01*
X1448798D01*
X1448613Y562519D01*
X1448464Y562574D01*
X1448390Y562630D01*
X1448353Y562648D01*
X1448242Y562796D01*
X1448187Y562944D01*
X1448168Y563055D01*
Y563092D01*
Y563111D01*
Y564981D01*
X1446927D01*
X1446816Y565000D01*
X1446724Y565018D01*
X1446576Y565092D01*
X1446483Y565148D01*
X1446465Y565185D01*
X1446372Y565333D01*
X1446317Y565463D01*
X1446298Y565555D01*
Y565592D01*
X1446335Y565759D01*
X1446391Y565888D01*
X1446446Y565981D01*
X1446483Y566018D01*
X1446557Y566092D01*
X1446631Y566129D01*
X1446779Y566203D01*
X1446891Y566222D01*
X1448168D01*
Y568092D01*
Y568203D01*
X1448205Y568296D01*
X1448261Y568444D01*
X1448335Y568536D01*
X1448353Y568555D01*
X1448372D01*
X1448520Y568647D01*
X1448650Y568703D01*
X1448761Y568722D01*
X1448798D01*
X1448964Y568703D01*
X1449094Y568647D01*
X1449187Y568573D01*
X1449224Y568555D01*
X1449335Y568388D01*
X1449390Y568240D01*
X1449409Y568129D01*
Y568111D01*
Y568092D01*
Y566222D01*
X1452353D01*
X1450075Y574184D01*
X1450057Y574369D01*
X1450094Y574554D01*
X1450149Y574702D01*
X1450205Y574776D01*
X1450242Y574813D01*
X1450390Y574925D01*
X1450538Y574980D01*
X1450649Y574999D01*
X1450797D01*
X1450872Y574980D01*
D02*
G37*
G36*
X1459556Y569981D02*
X1459686Y569925D01*
X1459778Y569851D01*
X1459815Y569833D01*
X1459926Y569666D01*
X1459982Y569518D01*
X1460000Y569407D01*
Y569388D01*
Y569370D01*
Y567500D01*
X1462000D01*
X1462093Y567462D01*
X1462222Y567407D01*
X1462315Y567333D01*
X1462352Y567314D01*
Y567296D01*
X1462444Y567148D01*
X1462482Y567000D01*
X1462500Y566907D01*
Y566888D01*
Y566870D01*
X1462482Y566685D01*
X1462426Y566555D01*
X1462370Y566463D01*
X1462352Y566426D01*
X1462204Y566333D01*
X1462056Y566277D01*
X1461926Y566259D01*
X1460000D01*
Y564370D01*
X1459963Y564166D01*
X1459908Y564018D01*
X1459852Y563926D01*
X1459815Y563889D01*
X1459667Y563796D01*
X1459537Y563759D01*
X1459426Y563741D01*
X1459389D01*
X1459204Y563759D01*
X1459056Y563815D01*
X1458982Y563870D01*
X1458945Y563889D01*
X1458834Y564037D01*
X1458778Y564185D01*
X1458760Y564259D01*
Y564315D01*
Y564352D01*
Y564370D01*
Y566259D01*
X1456889D01*
X1456778Y566277D01*
X1456686Y566296D01*
X1456538Y566370D01*
X1456445Y566426D01*
X1456427Y566463D01*
X1456334Y566611D01*
X1456278Y566740D01*
X1456260Y566833D01*
Y566870D01*
X1456278Y567037D01*
X1456334Y567166D01*
X1456408Y567259D01*
X1456427Y567296D01*
X1456501Y567370D01*
X1456575Y567407D01*
X1456723Y567481D01*
X1456834Y567500D01*
X1458760D01*
Y569370D01*
Y569481D01*
X1458797Y569573D01*
X1458852Y569721D01*
X1458926Y569814D01*
X1458945Y569833D01*
X1458963D01*
X1459111Y569925D01*
X1459260Y569981D01*
X1459352Y569999D01*
X1459389D01*
X1459556Y569981D01*
D02*
G37*
G36*
X1443372Y563704D02*
X1443502Y563648D01*
X1443595Y563592D01*
X1443632Y563555D01*
X1443724Y563407D01*
X1443780Y563259D01*
X1443798Y563148D01*
Y563130D01*
Y563111D01*
X1443780Y562944D01*
X1443706Y562815D01*
X1443650Y562722D01*
X1443632Y562685D01*
X1443483Y562574D01*
X1443335Y562519D01*
X1443224Y562500D01*
X1443187D01*
X1443002Y562537D01*
X1442872Y562593D01*
X1442780Y562648D01*
X1442743Y562685D01*
X1442632Y562833D01*
X1442576Y562981D01*
X1442558Y563074D01*
Y563092D01*
Y563111D01*
Y563204D01*
X1442595Y563296D01*
X1442669Y563426D01*
X1442743Y563518D01*
X1442761Y563555D01*
X1442780D01*
X1442928Y563666D01*
X1443058Y563722D01*
X1443150Y563741D01*
X1443187D01*
X1443372Y563704D01*
D02*
G37*
G36*
X1437725Y574962D02*
X1438114Y574869D01*
X1438428Y574739D01*
X1438725Y574591D01*
X1438947Y574425D01*
X1439113Y574295D01*
X1439225Y574202D01*
X1439243Y574184D01*
X1439262Y574165D01*
X1439410Y573999D01*
X1439521Y573851D01*
X1439725Y573517D01*
X1439854Y573184D01*
X1439965Y572888D01*
X1440021Y572629D01*
X1440039Y572425D01*
X1440058Y572351D01*
Y572295D01*
Y572258D01*
Y572240D01*
Y565240D01*
X1440039Y565018D01*
X1440021Y564815D01*
X1439928Y564444D01*
X1439799Y564111D01*
X1439651Y563815D01*
X1439502Y563592D01*
X1439373Y563426D01*
X1439280Y563315D01*
X1439243Y563296D01*
Y563278D01*
X1438928Y563018D01*
X1438595Y562833D01*
X1438280Y562685D01*
X1437966Y562593D01*
X1437706Y562537D01*
X1437503Y562519D01*
X1437428Y562500D01*
X1436577D01*
X1436373Y562519D01*
X1436169Y562537D01*
X1435780Y562630D01*
X1435447Y562759D01*
X1435170Y562907D01*
X1434947Y563055D01*
X1434781Y563185D01*
X1434669Y563278D01*
X1434633Y563315D01*
X1434484Y563463D01*
X1434355Y563629D01*
X1434170Y563963D01*
X1434021Y564278D01*
X1433910Y564592D01*
X1433855Y564852D01*
X1433836Y565055D01*
X1433818Y565129D01*
Y565185D01*
Y565222D01*
Y565240D01*
Y572240D01*
Y572443D01*
X1433855Y572647D01*
X1433947Y573036D01*
X1434077Y573369D01*
X1434225Y573647D01*
X1434392Y573869D01*
X1434521Y574036D01*
X1434614Y574147D01*
X1434633Y574184D01*
X1434651D01*
X1434799Y574332D01*
X1434966Y574462D01*
X1435299Y574647D01*
X1435614Y574795D01*
X1435910Y574906D01*
X1436188Y574962D01*
X1436392Y574980D01*
X1436466Y574999D01*
X1437521D01*
X1437725Y574962D01*
D02*
G37*
G36*
X1429207D02*
X1429540Y574888D01*
X1429855Y574758D01*
X1430096Y574628D01*
X1430318Y574499D01*
X1430466Y574369D01*
X1430559Y574295D01*
X1430596Y574258D01*
X1430837Y573962D01*
X1431022Y573666D01*
X1431133Y573369D01*
X1431225Y573110D01*
X1431281Y572869D01*
X1431299Y572666D01*
X1431318Y572592D01*
Y572536D01*
Y572518D01*
Y572499D01*
Y569999D01*
X1431281Y569629D01*
X1431207Y569277D01*
X1431077Y568981D01*
X1430948Y568722D01*
X1430818Y568499D01*
X1430688Y568351D01*
X1430614Y568259D01*
X1430577Y568222D01*
X1430281Y567981D01*
X1429985Y567796D01*
X1429707Y567685D01*
X1429429Y567592D01*
X1429189Y567537D01*
X1429003Y567518D01*
X1428929Y567500D01*
X1426578D01*
X1426726Y566963D01*
X1426893Y566500D01*
X1427059Y566148D01*
X1427263Y565815D01*
X1427448Y565537D01*
X1427615Y565277D01*
X1427781Y565074D01*
X1427911Y564926D01*
X1427985Y564833D01*
X1428022Y564796D01*
X1428300Y564537D01*
X1428559Y564315D01*
X1428670Y564241D01*
X1428744Y564185D01*
X1428800Y564148D01*
X1428818Y564129D01*
X1429133Y563944D01*
X1429281Y563870D01*
X1429411Y563815D01*
X1429522Y563759D01*
X1429615Y563722D01*
X1429670Y563685D01*
X1429689D01*
X1429837Y563592D01*
X1429929Y563518D01*
X1429985Y563444D01*
X1430003Y563426D01*
X1430040Y563333D01*
X1430059Y563241D01*
X1430077Y563167D01*
Y563148D01*
X1430040Y562963D01*
X1429985Y562815D01*
X1429929Y562722D01*
X1429892Y562704D01*
Y562685D01*
X1429744Y562574D01*
X1429615Y562519D01*
X1429522Y562500D01*
X1429485D01*
X1429207Y562537D01*
X1428781Y562741D01*
X1428392Y562963D01*
X1428041Y563185D01*
X1427726Y563407D01*
X1427485Y563611D01*
X1427300Y563778D01*
X1427244Y563833D01*
X1427189Y563889D01*
X1427170Y563907D01*
X1427152Y563926D01*
X1426837Y564278D01*
X1426559Y564629D01*
X1426319Y564981D01*
X1426115Y565296D01*
X1425967Y565592D01*
X1425911Y565703D01*
X1425856Y565796D01*
X1425819Y565888D01*
X1425782Y565944D01*
X1425763Y565981D01*
Y566000D01*
X1425541Y566592D01*
X1425374Y567185D01*
X1425245Y567759D01*
X1425170Y568277D01*
X1425134Y568499D01*
X1425115Y568722D01*
X1425096Y568907D01*
Y569073D01*
X1425078Y569203D01*
Y569296D01*
Y569351D01*
Y569370D01*
Y572499D01*
X1425115Y572869D01*
X1425189Y573203D01*
X1425319Y573499D01*
X1425448Y573758D01*
X1425578Y573962D01*
X1425708Y574128D01*
X1425782Y574221D01*
X1425819Y574258D01*
X1426096Y574499D01*
X1426393Y574684D01*
X1426689Y574813D01*
X1426967Y574906D01*
X1427207Y574962D01*
X1427411Y574980D01*
X1427485Y574999D01*
X1428837D01*
X1429207Y574962D01*
D02*
G37*
G36*
X1418449Y574925D02*
X1418875Y574721D01*
X1419282Y574480D01*
X1419634Y574240D01*
X1419930Y574017D01*
X1420190Y573814D01*
X1420375Y573647D01*
X1420449Y573591D01*
X1420504Y573536D01*
X1420523Y573517D01*
X1420541Y573499D01*
X1420856Y573147D01*
X1421134Y572795D01*
X1421375Y572462D01*
X1421560Y572147D01*
X1421708Y571888D01*
X1421819Y571666D01*
X1421856Y571592D01*
X1421893Y571536D01*
X1421912Y571499D01*
Y571480D01*
X1422134Y570888D01*
X1422301Y570277D01*
X1422412Y569721D01*
X1422467Y569444D01*
X1422486Y569203D01*
X1422523Y568962D01*
X1422541Y568759D01*
X1422560Y568573D01*
Y568407D01*
X1422578Y568277D01*
Y568185D01*
Y568129D01*
Y568111D01*
Y564981D01*
X1422541Y564611D01*
X1422467Y564278D01*
X1422337Y563963D01*
X1422208Y563722D01*
X1422078Y563500D01*
X1421949Y563352D01*
X1421875Y563259D01*
X1421837Y563222D01*
X1421541Y562981D01*
X1421245Y562796D01*
X1420967Y562685D01*
X1420690Y562593D01*
X1420449Y562537D01*
X1420264Y562519D01*
X1420190Y562500D01*
X1418838D01*
X1418468Y562537D01*
X1418116Y562611D01*
X1417819Y562722D01*
X1417560Y562870D01*
X1417357Y563000D01*
X1417208Y563111D01*
X1417116Y563185D01*
X1417079Y563222D01*
X1416838Y563518D01*
X1416653Y563815D01*
X1416523Y564111D01*
X1416431Y564389D01*
X1416375Y564629D01*
X1416357Y564815D01*
X1416338Y564889D01*
Y564944D01*
Y564963D01*
Y564981D01*
Y567481D01*
X1416375Y567851D01*
X1416449Y568203D01*
X1416579Y568499D01*
X1416708Y568759D01*
X1416838Y568962D01*
X1416968Y569110D01*
X1417042Y569203D01*
X1417079Y569240D01*
X1417375Y569481D01*
X1417671Y569666D01*
X1417968Y569795D01*
X1418227Y569888D01*
X1418468Y569944D01*
X1418671Y569962D01*
X1418745Y569981D01*
X1421097D01*
X1420949Y570481D01*
X1420764Y570981D01*
X1420597Y571332D01*
X1420430Y571647D01*
X1420227Y571925D01*
X1420060Y572184D01*
X1419893Y572388D01*
X1419764Y572536D01*
X1419671Y572629D01*
X1419634Y572666D01*
X1419356Y572925D01*
X1419097Y573129D01*
X1419005Y573203D01*
X1418930Y573277D01*
X1418875Y573295D01*
X1418856Y573314D01*
X1418690Y573406D01*
X1418560Y573499D01*
X1418468Y573536D01*
X1418430Y573554D01*
X1418264Y573629D01*
X1418116Y573703D01*
X1418005Y573758D01*
X1417986Y573777D01*
X1417968D01*
X1417819Y573869D01*
X1417727Y573962D01*
X1417690Y574017D01*
X1417671Y574036D01*
X1417634Y574128D01*
X1417597Y574240D01*
Y574314D01*
Y574332D01*
X1417616Y574517D01*
X1417671Y574665D01*
X1417727Y574758D01*
X1417745Y574795D01*
X1417819Y574869D01*
X1417894Y574906D01*
X1418042Y574980D01*
X1418153Y574999D01*
X1418190D01*
X1418449Y574925D01*
D02*
G37*
G36*
X1437056Y959981D02*
X1437186Y959925D01*
X1437278Y959851D01*
X1437315Y959833D01*
X1437426Y959666D01*
X1437482Y959518D01*
X1437500Y959407D01*
Y959388D01*
Y959370D01*
Y957499D01*
X1439500D01*
X1439593Y957462D01*
X1439722Y957407D01*
X1439815Y957333D01*
X1439852Y957314D01*
Y957296D01*
X1439944Y957148D01*
X1439982Y957000D01*
X1440000Y956907D01*
Y956888D01*
Y956870D01*
X1439982Y956685D01*
X1439926Y956555D01*
X1439870Y956463D01*
X1439852Y956425D01*
X1439704Y956333D01*
X1439556Y956277D01*
X1439426Y956259D01*
X1437500D01*
Y954370D01*
X1437463Y954166D01*
X1437408Y954018D01*
X1437352Y953926D01*
X1437315Y953889D01*
X1437167Y953796D01*
X1437037Y953759D01*
X1436926Y953741D01*
X1436889D01*
X1436704Y953759D01*
X1436556Y953815D01*
X1436482Y953870D01*
X1436445Y953889D01*
X1436334Y954037D01*
X1436278Y954185D01*
X1436260Y954259D01*
Y954315D01*
Y954352D01*
Y954370D01*
Y956259D01*
X1434389D01*
X1434278Y956277D01*
X1434186Y956296D01*
X1434038Y956370D01*
X1433945Y956425D01*
X1433927Y956463D01*
X1433834Y956611D01*
X1433778Y956740D01*
X1433760Y956833D01*
Y956870D01*
X1433778Y957037D01*
X1433834Y957166D01*
X1433908Y957259D01*
X1433927Y957296D01*
X1434001Y957370D01*
X1434075Y957407D01*
X1434223Y957481D01*
X1434334Y957499D01*
X1436260D01*
Y959370D01*
Y959481D01*
X1436297Y959573D01*
X1436352Y959722D01*
X1436426Y959814D01*
X1436445Y959833D01*
X1436463D01*
X1436611Y959925D01*
X1436760Y959981D01*
X1436852Y959999D01*
X1436889D01*
X1437056Y959981D01*
D02*
G37*
G36*
X1427835Y964980D02*
X1428075Y964962D01*
X1428557Y964851D01*
X1428946Y964684D01*
X1429279Y964517D01*
X1429557Y964332D01*
X1429668Y964240D01*
X1429742Y964165D01*
X1429816Y964110D01*
X1429871Y964054D01*
X1429890Y964036D01*
X1429908Y964017D01*
X1430168Y963665D01*
X1430353Y963295D01*
X1430482Y962925D01*
X1430575Y962591D01*
X1430631Y962295D01*
X1430649Y962166D01*
Y962055D01*
X1430668Y961981D01*
Y961906D01*
Y961869D01*
Y961851D01*
X1430649Y961592D01*
X1430631Y961351D01*
X1430594Y961129D01*
X1430538Y960925D01*
X1430482Y960758D01*
X1430445Y960629D01*
X1430427Y960555D01*
X1430408Y960518D01*
X1430297Y960277D01*
X1430168Y960073D01*
X1430038Y959888D01*
X1429908Y959740D01*
X1429797Y959610D01*
X1429705Y959518D01*
X1429649Y959462D01*
X1429631Y959444D01*
X1429927Y959240D01*
X1430186Y959018D01*
X1430408Y958777D01*
X1430575Y958573D01*
X1430723Y958370D01*
X1430816Y958222D01*
X1430871Y958111D01*
X1430890Y958092D01*
Y958074D01*
X1431019Y957759D01*
X1431131Y957425D01*
X1431205Y957111D01*
X1431242Y956833D01*
X1431279Y956592D01*
X1431297Y956407D01*
Y956333D01*
Y956277D01*
Y956259D01*
Y956240D01*
X1431279Y955963D01*
X1431260Y955685D01*
X1431149Y955185D01*
X1431001Y954741D01*
X1430834Y954370D01*
X1430742Y954203D01*
X1430668Y954055D01*
X1430594Y953944D01*
X1430520Y953833D01*
X1430464Y953759D01*
X1430408Y953704D01*
X1430390Y953667D01*
X1430371Y953648D01*
X1430168Y953444D01*
X1429946Y953278D01*
X1429723Y953111D01*
X1429483Y952981D01*
X1429242Y952870D01*
X1429020Y952778D01*
X1428575Y952648D01*
X1428353Y952593D01*
X1428168Y952555D01*
X1428001Y952537D01*
X1427853Y952518D01*
X1427724Y952500D01*
X1427557D01*
X1427224Y952518D01*
X1426927Y952555D01*
X1426631Y952611D01*
X1426372Y952685D01*
X1426113Y952778D01*
X1425890Y952870D01*
X1425668Y952981D01*
X1425483Y953092D01*
X1425316Y953185D01*
X1425168Y953296D01*
X1425039Y953389D01*
X1424928Y953481D01*
X1424853Y953555D01*
X1424798Y953611D01*
X1424761Y953648D01*
X1424742Y953667D01*
X1424576Y953870D01*
X1424427Y954092D01*
X1424298Y954315D01*
X1424187Y954537D01*
X1424020Y954963D01*
X1423909Y955370D01*
X1423853Y955722D01*
X1423835Y955870D01*
X1423817Y956000D01*
X1423798Y956092D01*
Y956166D01*
Y956222D01*
Y956240D01*
X1423817Y956611D01*
X1423872Y956944D01*
X1423946Y957259D01*
X1424020Y957518D01*
X1424094Y957759D01*
X1424168Y957925D01*
X1424224Y958036D01*
X1424242Y958074D01*
X1424409Y958388D01*
X1424613Y958648D01*
X1424816Y958888D01*
X1425020Y959073D01*
X1425205Y959221D01*
X1425353Y959333D01*
X1425446Y959407D01*
X1425464Y959425D01*
X1425483D01*
X1425298Y959592D01*
X1425150Y959777D01*
X1425002Y959962D01*
X1424890Y960147D01*
X1424816Y960295D01*
X1424761Y960407D01*
X1424724Y960481D01*
X1424705Y960518D01*
X1424613Y960758D01*
X1424539Y960999D01*
X1424502Y961221D01*
X1424465Y961425D01*
X1424446Y961592D01*
X1424427Y961740D01*
Y961814D01*
Y961851D01*
Y962092D01*
X1424465Y962314D01*
X1424557Y962721D01*
X1424687Y963092D01*
X1424816Y963406D01*
X1424964Y963665D01*
X1425094Y963851D01*
X1425150Y963925D01*
X1425187Y963980D01*
X1425205Y963999D01*
X1425224Y964017D01*
X1425390Y964184D01*
X1425576Y964351D01*
X1425761Y964480D01*
X1425964Y964591D01*
X1426353Y964758D01*
X1426724Y964869D01*
X1427057Y964943D01*
X1427186Y964962D01*
X1427316Y964980D01*
X1427409Y964999D01*
X1427557D01*
X1427835Y964980D01*
D02*
G37*
G36*
X1344556Y262481D02*
X1344686Y262425D01*
X1344778Y262351D01*
X1344815Y262333D01*
X1344926Y262166D01*
X1344982Y262018D01*
X1345000Y261907D01*
Y261888D01*
Y261870D01*
Y260000D01*
X1347000D01*
X1347093Y259962D01*
X1347222Y259907D01*
X1347315Y259833D01*
X1347352Y259814D01*
Y259796D01*
X1347444Y259648D01*
X1347482Y259499D01*
X1347500Y259407D01*
Y259388D01*
Y259370D01*
X1347482Y259185D01*
X1347426Y259055D01*
X1347370Y258963D01*
X1347352Y258925D01*
X1347204Y258833D01*
X1347056Y258777D01*
X1346926Y258759D01*
X1345000D01*
Y256870D01*
X1344963Y256667D01*
X1344908Y256518D01*
X1344852Y256426D01*
X1344815Y256389D01*
X1344667Y256296D01*
X1344537Y256259D01*
X1344426Y256241D01*
X1344389D01*
X1344204Y256259D01*
X1344056Y256315D01*
X1343982Y256370D01*
X1343945Y256389D01*
X1343834Y256537D01*
X1343778Y256685D01*
X1343760Y256759D01*
Y256815D01*
Y256852D01*
Y256870D01*
Y258759D01*
X1341889D01*
X1341778Y258777D01*
X1341686Y258796D01*
X1341538Y258870D01*
X1341445Y258925D01*
X1341427Y258963D01*
X1341334Y259111D01*
X1341278Y259240D01*
X1341260Y259333D01*
Y259370D01*
X1341278Y259537D01*
X1341334Y259666D01*
X1341408Y259759D01*
X1341427Y259796D01*
X1341501Y259870D01*
X1341575Y259907D01*
X1341723Y259981D01*
X1341834Y260000D01*
X1343760D01*
Y261870D01*
Y261981D01*
X1343797Y262073D01*
X1343852Y262222D01*
X1343926Y262314D01*
X1343945Y262333D01*
X1343963D01*
X1344111Y262425D01*
X1344260Y262481D01*
X1344352Y262499D01*
X1344389D01*
X1344556Y262481D01*
D02*
G37*
G36*
X1335335Y267480D02*
X1335575Y267462D01*
X1336057Y267351D01*
X1336446Y267184D01*
X1336779Y267017D01*
X1337057Y266832D01*
X1337168Y266740D01*
X1337242Y266665D01*
X1337316Y266610D01*
X1337371Y266554D01*
X1337390Y266536D01*
X1337408Y266517D01*
X1337668Y266166D01*
X1337853Y265795D01*
X1337982Y265425D01*
X1338075Y265091D01*
X1338131Y264795D01*
X1338149Y264666D01*
Y264555D01*
X1338168Y264480D01*
Y264406D01*
Y264369D01*
Y264351D01*
X1338149Y264092D01*
X1338131Y263851D01*
X1338094Y263629D01*
X1338038Y263425D01*
X1337982Y263258D01*
X1337945Y263129D01*
X1337927Y263055D01*
X1337908Y263018D01*
X1337797Y262777D01*
X1337668Y262573D01*
X1337538Y262388D01*
X1337408Y262240D01*
X1337297Y262110D01*
X1337205Y262018D01*
X1337149Y261962D01*
X1337131Y261944D01*
X1337427Y261740D01*
X1337686Y261518D01*
X1337908Y261277D01*
X1338075Y261073D01*
X1338223Y260870D01*
X1338316Y260722D01*
X1338371Y260611D01*
X1338390Y260592D01*
Y260574D01*
X1338519Y260259D01*
X1338631Y259925D01*
X1338705Y259611D01*
X1338742Y259333D01*
X1338779Y259092D01*
X1338797Y258907D01*
Y258833D01*
Y258777D01*
Y258759D01*
Y258740D01*
X1338779Y258463D01*
X1338760Y258185D01*
X1338649Y257685D01*
X1338501Y257241D01*
X1338334Y256870D01*
X1338242Y256703D01*
X1338168Y256555D01*
X1338094Y256444D01*
X1338020Y256333D01*
X1337964Y256259D01*
X1337908Y256204D01*
X1337890Y256166D01*
X1337871Y256148D01*
X1337668Y255944D01*
X1337446Y255778D01*
X1337223Y255611D01*
X1336983Y255481D01*
X1336742Y255370D01*
X1336520Y255278D01*
X1336075Y255148D01*
X1335853Y255093D01*
X1335668Y255056D01*
X1335501Y255037D01*
X1335353Y255019D01*
X1335224Y255000D01*
X1335057D01*
X1334724Y255019D01*
X1334427Y255056D01*
X1334131Y255111D01*
X1333872Y255185D01*
X1333613Y255278D01*
X1333390Y255370D01*
X1333168Y255481D01*
X1332983Y255592D01*
X1332816Y255685D01*
X1332668Y255796D01*
X1332539Y255889D01*
X1332428Y255981D01*
X1332353Y256055D01*
X1332298Y256111D01*
X1332261Y256148D01*
X1332242Y256166D01*
X1332076Y256370D01*
X1331927Y256592D01*
X1331798Y256815D01*
X1331687Y257037D01*
X1331520Y257463D01*
X1331409Y257870D01*
X1331353Y258222D01*
X1331335Y258370D01*
X1331317Y258500D01*
X1331298Y258592D01*
Y258666D01*
Y258722D01*
Y258740D01*
X1331317Y259111D01*
X1331372Y259444D01*
X1331446Y259759D01*
X1331520Y260018D01*
X1331594Y260259D01*
X1331668Y260425D01*
X1331724Y260536D01*
X1331742Y260574D01*
X1331909Y260888D01*
X1332113Y261147D01*
X1332316Y261388D01*
X1332520Y261573D01*
X1332705Y261721D01*
X1332853Y261833D01*
X1332946Y261907D01*
X1332964Y261925D01*
X1332983D01*
X1332798Y262092D01*
X1332650Y262277D01*
X1332502Y262462D01*
X1332390Y262647D01*
X1332316Y262796D01*
X1332261Y262907D01*
X1332224Y262981D01*
X1332205Y263018D01*
X1332113Y263258D01*
X1332039Y263499D01*
X1332002Y263721D01*
X1331965Y263925D01*
X1331946Y264092D01*
X1331927Y264240D01*
Y264314D01*
Y264351D01*
Y264592D01*
X1331965Y264814D01*
X1332057Y265221D01*
X1332187Y265592D01*
X1332316Y265906D01*
X1332464Y266166D01*
X1332594Y266351D01*
X1332650Y266425D01*
X1332687Y266480D01*
X1332705Y266499D01*
X1332724Y266517D01*
X1332890Y266684D01*
X1333076Y266851D01*
X1333261Y266980D01*
X1333464Y267091D01*
X1333853Y267258D01*
X1334224Y267369D01*
X1334557Y267443D01*
X1334686Y267462D01*
X1334816Y267480D01*
X1334909Y267499D01*
X1335057D01*
X1335335Y267480D01*
D02*
G37*
G36*
X823891Y794980D02*
X824132Y794943D01*
X824225Y794906D01*
X824299Y794888D01*
X824336Y794869D01*
X824354D01*
X824613Y794777D01*
X824854Y794665D01*
X824947Y794628D01*
X825021Y794591D01*
X825058Y794573D01*
X825076Y794554D01*
X825336Y794388D01*
X825576Y794202D01*
X825761Y794017D01*
X825928Y793851D01*
X826076Y793703D01*
X826169Y793573D01*
X826224Y793499D01*
X826243Y793462D01*
X826299Y793314D01*
X826336Y793203D01*
X826354Y793129D01*
Y793110D01*
X826336Y793017D01*
X826317Y792925D01*
X826243Y792795D01*
X826187Y792703D01*
X826150Y792666D01*
X826002Y792573D01*
X825854Y792517D01*
X825743Y792499D01*
X825706D01*
X825428Y792554D01*
X825317Y792629D01*
X825243Y792703D01*
X825206Y792758D01*
X825188Y792777D01*
X824965Y793073D01*
X824836Y793203D01*
X824725Y793314D01*
X824613Y793388D01*
X824539Y793443D01*
X824484Y793480D01*
X824465Y793499D01*
X824299Y793592D01*
X824132Y793647D01*
X823984Y793703D01*
X823836Y793721D01*
X823725Y793740D01*
X823632Y793758D01*
X823558D01*
X823225Y793740D01*
X823077Y793703D01*
X822965Y793684D01*
X822854Y793647D01*
X822780Y793610D01*
X822725Y793592D01*
X822706D01*
X822429Y793443D01*
X822225Y793314D01*
X822132Y793240D01*
X822077Y793203D01*
X822040Y793166D01*
X822021Y793147D01*
X821817Y792925D01*
X821651Y792684D01*
X821540Y792443D01*
X821466Y792240D01*
X821429Y792036D01*
X821392Y791888D01*
Y791795D01*
Y791777D01*
Y791758D01*
X821410Y791592D01*
X821429Y791425D01*
X821466Y791258D01*
X821503Y791129D01*
X821558Y790999D01*
X821595Y790907D01*
X821614Y790833D01*
X821632Y790814D01*
X826243Y783463D01*
X826336Y783278D01*
X826373Y783130D01*
X826391Y783037D01*
Y783000D01*
X826354Y782833D01*
X826280Y782704D01*
X826169Y782630D01*
X826039Y782556D01*
X825928Y782518D01*
X825817Y782500D01*
X820706D01*
X820595Y782518D01*
X820503Y782537D01*
X820373Y782611D01*
X820281Y782667D01*
X820262Y782704D01*
X820170Y782852D01*
X820114Y782981D01*
X820095Y783074D01*
Y783111D01*
X820133Y783278D01*
X820188Y783407D01*
X820244Y783500D01*
X820281Y783537D01*
X820355Y783611D01*
X820410Y783648D01*
X820558Y783722D01*
X820669Y783741D01*
X824595D01*
X820558Y790166D01*
X820429Y790462D01*
X820318Y790740D01*
X820244Y790999D01*
X820207Y791221D01*
X820170Y791425D01*
X820151Y791573D01*
Y791666D01*
Y791703D01*
X820170Y791944D01*
X820188Y792184D01*
X820318Y792629D01*
X820466Y793036D01*
X820651Y793369D01*
X820855Y793647D01*
X820929Y793758D01*
X821003Y793851D01*
X821077Y793925D01*
X821132Y793980D01*
X821151Y793999D01*
X821169Y794017D01*
X821373Y794184D01*
X821577Y794351D01*
X821780Y794480D01*
X821984Y794591D01*
X822410Y794758D01*
X822799Y794869D01*
X823132Y794943D01*
X823280Y794962D01*
X823410Y794980D01*
X823503Y794999D01*
X823651D01*
X823891Y794980D01*
D02*
G37*
G36*
X844556Y789981D02*
X844686Y789925D01*
X844778Y789851D01*
X844815Y789833D01*
X844926Y789666D01*
X844982Y789518D01*
X845000Y789407D01*
Y789388D01*
Y789370D01*
Y787499D01*
X847000D01*
X847093Y787462D01*
X847222Y787407D01*
X847315Y787333D01*
X847352Y787314D01*
Y787296D01*
X847445Y787148D01*
X847482Y787000D01*
X847500Y786907D01*
Y786888D01*
Y786870D01*
X847482Y786685D01*
X847426Y786555D01*
X847370Y786463D01*
X847352Y786425D01*
X847204Y786333D01*
X847056Y786277D01*
X846926Y786259D01*
X845000D01*
Y784370D01*
X844963Y784166D01*
X844908Y784018D01*
X844852Y783926D01*
X844815Y783889D01*
X844667Y783796D01*
X844537Y783759D01*
X844426Y783741D01*
X844389D01*
X844204Y783759D01*
X844056Y783815D01*
X843982Y783870D01*
X843945Y783889D01*
X843834Y784037D01*
X843778Y784185D01*
X843760Y784259D01*
Y784315D01*
Y784352D01*
Y784370D01*
Y786259D01*
X841889D01*
X841778Y786277D01*
X841686Y786296D01*
X841538Y786370D01*
X841445Y786425D01*
X841427Y786463D01*
X841334Y786611D01*
X841278Y786740D01*
X841260Y786833D01*
Y786870D01*
X841278Y787037D01*
X841334Y787166D01*
X841408Y787259D01*
X841427Y787296D01*
X841501Y787370D01*
X841575Y787407D01*
X841723Y787481D01*
X841834Y787499D01*
X843760D01*
Y789370D01*
Y789481D01*
X843797Y789573D01*
X843852Y789722D01*
X843926Y789814D01*
X843945Y789833D01*
X843963D01*
X844111Y789925D01*
X844260Y789981D01*
X844352Y789999D01*
X844389D01*
X844556Y789981D01*
D02*
G37*
G36*
X838390Y794980D02*
X838538Y794906D01*
X838649Y794795D01*
X838723Y794684D01*
X838760Y794573D01*
X838779Y794462D01*
X838797Y794388D01*
Y794369D01*
Y789351D01*
X838779Y789147D01*
X838705Y788999D01*
X838612Y788888D01*
X838482Y788814D01*
X838371Y788777D01*
X838279Y788759D01*
X838205Y788740D01*
X835686D01*
X835409Y788722D01*
X835149Y788648D01*
X834909Y788574D01*
X834724Y788462D01*
X834557Y788370D01*
X834446Y788277D01*
X834372Y788203D01*
X834353Y788185D01*
X834168Y787962D01*
X834038Y787740D01*
X833927Y787518D01*
X833872Y787314D01*
X833835Y787129D01*
X833798Y786981D01*
Y786888D01*
Y786851D01*
Y785611D01*
X833816Y785314D01*
X833890Y785055D01*
X833964Y784833D01*
X834075Y784629D01*
X834168Y784481D01*
X834261Y784352D01*
X834335Y784278D01*
X834353Y784259D01*
X834575Y784092D01*
X834798Y783963D01*
X835020Y783870D01*
X835223Y783815D01*
X835409Y783778D01*
X835557Y783741D01*
X838297D01*
X838390Y783704D01*
X838520Y783648D01*
X838612Y783574D01*
X838649Y783556D01*
Y783537D01*
X838742Y783389D01*
X838779Y783241D01*
X838797Y783148D01*
Y783130D01*
Y783111D01*
X838779Y782926D01*
X838723Y782796D01*
X838668Y782704D01*
X838649Y782667D01*
X838501Y782574D01*
X838353Y782518D01*
X838223Y782500D01*
X835686D01*
X835446Y782518D01*
X835223Y782537D01*
X834798Y782648D01*
X834427Y782796D01*
X834112Y782963D01*
X833835Y783130D01*
X833650Y783259D01*
X833576Y783333D01*
X833520Y783370D01*
X833502Y783389D01*
X833483Y783407D01*
X833316Y783593D01*
X833168Y783778D01*
X833057Y783963D01*
X832946Y784148D01*
X832779Y784518D01*
X832668Y784852D01*
X832613Y785166D01*
X832576Y785296D01*
Y785389D01*
X832557Y785481D01*
Y785555D01*
Y785592D01*
Y785611D01*
Y786851D01*
X832576Y787092D01*
X832594Y787314D01*
X832705Y787740D01*
X832853Y788111D01*
X833020Y788444D01*
X833187Y788703D01*
X833335Y788888D01*
X833390Y788962D01*
X833446Y789018D01*
X833464Y789036D01*
X833483Y789055D01*
X833668Y789221D01*
X833835Y789370D01*
X834038Y789481D01*
X834224Y789592D01*
X834594Y789759D01*
X834927Y789870D01*
X835223Y789925D01*
X835353Y789962D01*
X835464D01*
X835557Y789981D01*
X837557D01*
Y793758D01*
X833187D01*
X833076Y793777D01*
X832983Y793795D01*
X832835Y793869D01*
X832742Y793925D01*
X832724Y793962D01*
X832631Y794110D01*
X832576Y794240D01*
X832557Y794332D01*
Y794369D01*
X832594Y794536D01*
X832650Y794665D01*
X832705Y794758D01*
X832742Y794795D01*
X832816Y794869D01*
X832890Y794906D01*
X833038Y794980D01*
X833150Y794999D01*
X838186D01*
X838390Y794980D01*
D02*
G37*
G36*
X829632Y783704D02*
X829761Y783648D01*
X829854Y783593D01*
X829891Y783556D01*
X829983Y783407D01*
X830039Y783259D01*
X830057Y783148D01*
Y783130D01*
Y783111D01*
X830039Y782944D01*
X829965Y782815D01*
X829909Y782722D01*
X829891Y782685D01*
X829743Y782574D01*
X829594Y782518D01*
X829483Y782500D01*
X829446D01*
X829261Y782537D01*
X829131Y782593D01*
X829039Y782648D01*
X829002Y782685D01*
X828891Y782833D01*
X828835Y782981D01*
X828817Y783074D01*
Y783092D01*
Y783111D01*
Y783204D01*
X828854Y783296D01*
X828928Y783426D01*
X829002Y783518D01*
X829020Y783556D01*
X829039D01*
X829187Y783667D01*
X829317Y783722D01*
X829409Y783741D01*
X829446D01*
X829632Y783704D01*
D02*
G37*
G36*
X1486391Y837000D02*
X1486632Y836963D01*
X1486725Y836926D01*
X1486799Y836907D01*
X1486836Y836889D01*
X1486854D01*
X1487113Y836796D01*
X1487354Y836685D01*
X1487447Y836648D01*
X1487521Y836611D01*
X1487558Y836593D01*
X1487576Y836574D01*
X1487836Y836407D01*
X1488076Y836222D01*
X1488262Y836037D01*
X1488428Y835871D01*
X1488576Y835722D01*
X1488669Y835593D01*
X1488724Y835519D01*
X1488743Y835482D01*
X1488799Y835333D01*
X1488835Y835222D01*
X1488854Y835148D01*
Y835130D01*
X1488835Y835037D01*
X1488817Y834945D01*
X1488743Y834815D01*
X1488687Y834723D01*
X1488650Y834686D01*
X1488502Y834593D01*
X1488354Y834537D01*
X1488243Y834519D01*
X1488206D01*
X1487928Y834574D01*
X1487817Y834648D01*
X1487743Y834723D01*
X1487706Y834778D01*
X1487688Y834797D01*
X1487465Y835093D01*
X1487336Y835222D01*
X1487225Y835333D01*
X1487113Y835408D01*
X1487039Y835463D01*
X1486984Y835500D01*
X1486965Y835519D01*
X1486799Y835611D01*
X1486632Y835667D01*
X1486484Y835722D01*
X1486336Y835741D01*
X1486225Y835759D01*
X1486132Y835778D01*
X1486058D01*
X1485725Y835759D01*
X1485577Y835722D01*
X1485466Y835704D01*
X1485354Y835667D01*
X1485280Y835630D01*
X1485225Y835611D01*
X1485206D01*
X1484928Y835463D01*
X1484725Y835333D01*
X1484632Y835259D01*
X1484577Y835222D01*
X1484540Y835185D01*
X1484521Y835167D01*
X1484317Y834945D01*
X1484151Y834704D01*
X1484040Y834463D01*
X1483966Y834260D01*
X1483929Y834056D01*
X1483892Y833908D01*
Y833815D01*
Y833797D01*
Y833778D01*
X1483910Y833612D01*
X1483929Y833445D01*
X1483966Y833278D01*
X1484003Y833149D01*
X1484058Y833019D01*
X1484095Y832926D01*
X1484114Y832852D01*
X1484132Y832834D01*
X1488743Y825483D01*
X1488835Y825297D01*
X1488873Y825149D01*
X1488891Y825057D01*
Y825020D01*
X1488854Y824853D01*
X1488780Y824724D01*
X1488669Y824650D01*
X1488539Y824575D01*
X1488428Y824538D01*
X1488317Y824520D01*
X1483206D01*
X1483095Y824538D01*
X1483003Y824557D01*
X1482873Y824631D01*
X1482781Y824687D01*
X1482762Y824724D01*
X1482670Y824872D01*
X1482614Y825001D01*
X1482595Y825094D01*
Y825131D01*
X1482632Y825297D01*
X1482688Y825427D01*
X1482744Y825520D01*
X1482781Y825557D01*
X1482855Y825631D01*
X1482910Y825668D01*
X1483058Y825742D01*
X1483169Y825760D01*
X1487095D01*
X1483058Y832186D01*
X1482929Y832482D01*
X1482818Y832760D01*
X1482744Y833019D01*
X1482706Y833241D01*
X1482670Y833445D01*
X1482651Y833593D01*
Y833686D01*
Y833723D01*
X1482670Y833963D01*
X1482688Y834204D01*
X1482818Y834648D01*
X1482966Y835056D01*
X1483151Y835389D01*
X1483355Y835667D01*
X1483429Y835778D01*
X1483503Y835871D01*
X1483577Y835945D01*
X1483632Y836000D01*
X1483651Y836019D01*
X1483669Y836037D01*
X1483873Y836204D01*
X1484077Y836370D01*
X1484280Y836500D01*
X1484484Y836611D01*
X1484910Y836778D01*
X1485299Y836889D01*
X1485632Y836963D01*
X1485780Y836982D01*
X1485910Y837000D01*
X1486003Y837019D01*
X1486151D01*
X1486391Y837000D01*
D02*
G37*
G36*
X1507056Y832001D02*
X1507186Y831945D01*
X1507278Y831871D01*
X1507315Y831852D01*
X1507426Y831686D01*
X1507482Y831538D01*
X1507500Y831426D01*
Y831408D01*
Y831389D01*
Y829519D01*
X1509500D01*
X1509593Y829482D01*
X1509722Y829427D01*
X1509815Y829353D01*
X1509852Y829334D01*
Y829316D01*
X1509944Y829167D01*
X1509982Y829019D01*
X1510000Y828927D01*
Y828908D01*
Y828890D01*
X1509982Y828705D01*
X1509926Y828575D01*
X1509870Y828482D01*
X1509852Y828445D01*
X1509704Y828353D01*
X1509556Y828297D01*
X1509426Y828279D01*
X1507500D01*
Y826390D01*
X1507463Y826186D01*
X1507408Y826038D01*
X1507352Y825946D01*
X1507315Y825909D01*
X1507167Y825816D01*
X1507037Y825779D01*
X1506926Y825760D01*
X1506889D01*
X1506704Y825779D01*
X1506556Y825835D01*
X1506482Y825890D01*
X1506445Y825909D01*
X1506334Y826057D01*
X1506278Y826205D01*
X1506260Y826279D01*
Y826335D01*
Y826372D01*
Y826390D01*
Y828279D01*
X1504389D01*
X1504278Y828297D01*
X1504186Y828316D01*
X1504038Y828390D01*
X1503945Y828445D01*
X1503927Y828482D01*
X1503834Y828631D01*
X1503778Y828760D01*
X1503760Y828853D01*
Y828890D01*
X1503778Y829056D01*
X1503834Y829186D01*
X1503908Y829279D01*
X1503927Y829316D01*
X1504001Y829390D01*
X1504075Y829427D01*
X1504223Y829501D01*
X1504334Y829519D01*
X1506260D01*
Y831389D01*
Y831501D01*
X1506297Y831593D01*
X1506352Y831741D01*
X1506426Y831834D01*
X1506445Y831852D01*
X1506463D01*
X1506611Y831945D01*
X1506760Y832001D01*
X1506852Y832019D01*
X1506889D01*
X1507056Y832001D01*
D02*
G37*
G36*
X1500890Y837000D02*
X1501038Y836926D01*
X1501149Y836815D01*
X1501223Y836704D01*
X1501260Y836593D01*
X1501279Y836482D01*
X1501297Y836407D01*
Y836389D01*
Y831371D01*
X1501279Y831167D01*
X1501205Y831019D01*
X1501112Y830908D01*
X1500982Y830834D01*
X1500871Y830797D01*
X1500779Y830779D01*
X1500705Y830760D01*
X1498186D01*
X1497909Y830741D01*
X1497649Y830667D01*
X1497409Y830593D01*
X1497224Y830482D01*
X1497057Y830390D01*
X1496946Y830297D01*
X1496872Y830223D01*
X1496853Y830204D01*
X1496668Y829982D01*
X1496538Y829760D01*
X1496427Y829538D01*
X1496372Y829334D01*
X1496335Y829149D01*
X1496298Y829001D01*
Y828908D01*
Y828871D01*
Y827631D01*
X1496316Y827334D01*
X1496390Y827075D01*
X1496464Y826853D01*
X1496575Y826649D01*
X1496668Y826501D01*
X1496761Y826372D01*
X1496835Y826297D01*
X1496853Y826279D01*
X1497075Y826112D01*
X1497298Y825983D01*
X1497520Y825890D01*
X1497724Y825835D01*
X1497909Y825798D01*
X1498057Y825760D01*
X1500797D01*
X1500890Y825723D01*
X1501019Y825668D01*
X1501112Y825594D01*
X1501149Y825575D01*
Y825557D01*
X1501242Y825409D01*
X1501279Y825260D01*
X1501297Y825168D01*
Y825149D01*
Y825131D01*
X1501279Y824946D01*
X1501223Y824816D01*
X1501168Y824724D01*
X1501149Y824687D01*
X1501001Y824594D01*
X1500853Y824538D01*
X1500723Y824520D01*
X1498186D01*
X1497946Y824538D01*
X1497724Y824557D01*
X1497298Y824668D01*
X1496927Y824816D01*
X1496613Y824983D01*
X1496335Y825149D01*
X1496150Y825279D01*
X1496075Y825353D01*
X1496020Y825390D01*
X1496001Y825409D01*
X1495983Y825427D01*
X1495816Y825612D01*
X1495668Y825798D01*
X1495557Y825983D01*
X1495446Y826168D01*
X1495279Y826538D01*
X1495168Y826871D01*
X1495113Y827186D01*
X1495076Y827316D01*
Y827408D01*
X1495057Y827501D01*
Y827575D01*
Y827612D01*
Y827631D01*
Y828871D01*
X1495076Y829112D01*
X1495094Y829334D01*
X1495205Y829760D01*
X1495353Y830130D01*
X1495520Y830464D01*
X1495687Y830723D01*
X1495835Y830908D01*
X1495890Y830982D01*
X1495946Y831038D01*
X1495964Y831056D01*
X1495983Y831075D01*
X1496168Y831241D01*
X1496335Y831389D01*
X1496538Y831501D01*
X1496724Y831612D01*
X1497094Y831778D01*
X1497427Y831889D01*
X1497724Y831945D01*
X1497853Y831982D01*
X1497964D01*
X1498057Y832001D01*
X1500057D01*
Y835778D01*
X1495687D01*
X1495576Y835796D01*
X1495483Y835815D01*
X1495335Y835889D01*
X1495242Y835945D01*
X1495224Y835982D01*
X1495131Y836130D01*
X1495076Y836259D01*
X1495057Y836352D01*
Y836389D01*
X1495094Y836556D01*
X1495150Y836685D01*
X1495205Y836778D01*
X1495242Y836815D01*
X1495316Y836889D01*
X1495390Y836926D01*
X1495538Y837000D01*
X1495650Y837019D01*
X1500686D01*
X1500890Y837000D01*
D02*
G37*
G36*
X1492132Y825723D02*
X1492261Y825668D01*
X1492354Y825612D01*
X1492391Y825575D01*
X1492483Y825427D01*
X1492539Y825279D01*
X1492557Y825168D01*
Y825149D01*
Y825131D01*
X1492539Y824964D01*
X1492465Y824835D01*
X1492409Y824742D01*
X1492391Y824705D01*
X1492243Y824594D01*
X1492095Y824538D01*
X1491983Y824520D01*
X1491946D01*
X1491761Y824557D01*
X1491631Y824612D01*
X1491539Y824668D01*
X1491502Y824705D01*
X1491391Y824853D01*
X1491335Y825001D01*
X1491317Y825094D01*
Y825112D01*
Y825131D01*
Y825223D01*
X1491354Y825316D01*
X1491428Y825446D01*
X1491502Y825538D01*
X1491520Y825575D01*
X1491539D01*
X1491687Y825686D01*
X1491817Y825742D01*
X1491909Y825760D01*
X1491946D01*
X1492132Y825723D01*
D02*
G37*
G36*
X1380815Y727482D02*
X1380945Y727426D01*
X1381037Y727370D01*
X1381075Y727352D01*
X1381167Y727204D01*
X1381223Y727056D01*
X1381241Y726926D01*
Y725000D01*
X1383130D01*
X1383333Y724963D01*
X1383482Y724908D01*
X1383574Y724852D01*
X1383611Y724815D01*
X1383704Y724667D01*
X1383741Y724537D01*
X1383759Y724426D01*
Y724389D01*
X1383741Y724204D01*
X1383685Y724056D01*
X1383630Y723982D01*
X1383611Y723945D01*
X1383463Y723834D01*
X1383315Y723778D01*
X1383241Y723760D01*
X1383185D01*
X1383148D01*
X1383130D01*
X1381241D01*
Y721889D01*
X1381223Y721778D01*
X1381204Y721686D01*
X1381130Y721538D01*
X1381075Y721445D01*
X1381037Y721427D01*
X1380889Y721334D01*
X1380760Y721278D01*
X1380667Y721260D01*
X1380630D01*
X1380463Y721278D01*
X1380334Y721334D01*
X1380241Y721408D01*
X1380204Y721427D01*
X1380130Y721501D01*
X1380093Y721575D01*
X1380019Y721723D01*
X1380000Y721834D01*
Y723760D01*
X1378130D01*
X1378019D01*
X1377927Y723797D01*
X1377778Y723852D01*
X1377686Y723926D01*
X1377667Y723945D01*
Y723963D01*
X1377575Y724111D01*
X1377519Y724260D01*
X1377501Y724352D01*
Y724389D01*
X1377519Y724556D01*
X1377575Y724686D01*
X1377649Y724778D01*
X1377667Y724815D01*
X1377834Y724926D01*
X1377982Y724982D01*
X1378093Y725000D01*
X1378112D01*
X1378130D01*
X1380000D01*
Y727000D01*
X1380038Y727093D01*
X1380093Y727222D01*
X1380167Y727315D01*
X1380186Y727352D01*
X1380204D01*
X1380352Y727445D01*
X1380500Y727482D01*
X1380593Y727500D01*
X1380612D01*
X1380630D01*
X1380815Y727482D01*
D02*
G37*
G36*
X1384574Y718779D02*
X1384704Y718723D01*
X1384796Y718668D01*
X1384833Y718649D01*
X1384926Y718501D01*
X1384982Y718353D01*
X1385000Y718223D01*
Y715686D01*
X1384982Y715446D01*
X1384963Y715223D01*
X1384852Y714798D01*
X1384704Y714427D01*
X1384537Y714112D01*
X1384370Y713835D01*
X1384241Y713650D01*
X1384167Y713576D01*
X1384130Y713520D01*
X1384111Y713502D01*
X1384093Y713483D01*
X1383907Y713316D01*
X1383722Y713168D01*
X1383537Y713057D01*
X1383352Y712946D01*
X1382982Y712779D01*
X1382648Y712668D01*
X1382334Y712613D01*
X1382204Y712576D01*
X1382111D01*
X1382019Y712557D01*
X1381945D01*
X1381908D01*
X1381889D01*
X1380649D01*
X1380408Y712576D01*
X1380186Y712594D01*
X1379760Y712705D01*
X1379389Y712853D01*
X1379056Y713020D01*
X1378797Y713187D01*
X1378612Y713335D01*
X1378538Y713390D01*
X1378482Y713446D01*
X1378464Y713464D01*
X1378445Y713483D01*
X1378278Y713668D01*
X1378130Y713835D01*
X1378019Y714038D01*
X1377908Y714224D01*
X1377742Y714594D01*
X1377630Y714927D01*
X1377575Y715223D01*
X1377538Y715353D01*
Y715464D01*
X1377519Y715557D01*
Y717557D01*
X1373742D01*
Y713187D01*
X1373723Y713076D01*
X1373705Y712983D01*
X1373631Y712835D01*
X1373575Y712742D01*
X1373538Y712724D01*
X1373390Y712631D01*
X1373260Y712576D01*
X1373168Y712557D01*
X1373131D01*
X1372964Y712594D01*
X1372835Y712650D01*
X1372742Y712705D01*
X1372705Y712742D01*
X1372631Y712816D01*
X1372594Y712890D01*
X1372520Y713039D01*
X1372501Y713150D01*
Y718186D01*
X1372520Y718390D01*
X1372594Y718538D01*
X1372705Y718649D01*
X1372816Y718723D01*
X1372927Y718760D01*
X1373038Y718779D01*
X1373112Y718797D01*
X1373131D01*
X1378149D01*
X1378353Y718779D01*
X1378501Y718705D01*
X1378612Y718612D01*
X1378686Y718482D01*
X1378723Y718371D01*
X1378741Y718279D01*
X1378760Y718205D01*
Y715686D01*
X1378778Y715409D01*
X1378853Y715149D01*
X1378927Y714909D01*
X1379038Y714724D01*
X1379130Y714557D01*
X1379223Y714446D01*
X1379297Y714372D01*
X1379315Y714353D01*
X1379538Y714168D01*
X1379760Y714038D01*
X1379982Y713927D01*
X1380186Y713872D01*
X1380371Y713835D01*
X1380519Y713798D01*
X1380612D01*
X1380649D01*
X1381889D01*
X1382186Y713816D01*
X1382445Y713890D01*
X1382667Y713964D01*
X1382871Y714075D01*
X1383019Y714168D01*
X1383148Y714261D01*
X1383222Y714335D01*
X1383241Y714353D01*
X1383407Y714575D01*
X1383537Y714798D01*
X1383630Y715020D01*
X1383685Y715223D01*
X1383722Y715409D01*
X1383759Y715557D01*
Y718297D01*
X1383796Y718390D01*
X1383852Y718520D01*
X1383926Y718612D01*
X1383945Y718649D01*
X1383963D01*
X1384111Y718742D01*
X1384259Y718779D01*
X1384352Y718797D01*
X1384370D01*
X1384389D01*
X1384574Y718779D01*
D02*
G37*
G36*
X1384556Y710039D02*
X1384685Y709965D01*
X1384778Y709909D01*
X1384815Y709891D01*
X1384926Y709743D01*
X1384982Y709594D01*
X1385000Y709483D01*
Y709446D01*
X1384963Y709261D01*
X1384907Y709132D01*
X1384852Y709039D01*
X1384815Y709002D01*
X1384667Y708891D01*
X1384518Y708835D01*
X1384426Y708817D01*
X1384407D01*
X1384389D01*
X1384296D01*
X1384204Y708854D01*
X1384074Y708928D01*
X1383982Y709002D01*
X1383945Y709020D01*
Y709039D01*
X1383833Y709187D01*
X1383778Y709317D01*
X1383759Y709409D01*
Y709446D01*
X1383796Y709632D01*
X1383852Y709761D01*
X1383907Y709854D01*
X1383945Y709891D01*
X1384093Y709983D01*
X1384241Y710039D01*
X1384352Y710057D01*
X1384370D01*
X1384389D01*
X1384556Y710039D01*
D02*
G37*
G36*
X1384667Y706354D02*
X1384796Y706280D01*
X1384870Y706169D01*
X1384944Y706039D01*
X1384982Y705928D01*
X1385000Y705817D01*
Y700706D01*
X1384982Y700595D01*
X1384963Y700503D01*
X1384889Y700373D01*
X1384833Y700281D01*
X1384796Y700262D01*
X1384648Y700170D01*
X1384518Y700114D01*
X1384426Y700096D01*
X1384389D01*
X1384222Y700133D01*
X1384093Y700188D01*
X1384000Y700244D01*
X1383963Y700281D01*
X1383889Y700355D01*
X1383852Y700410D01*
X1383778Y700558D01*
X1383759Y700669D01*
Y704595D01*
X1377334Y700558D01*
X1377038Y700429D01*
X1376760Y700318D01*
X1376501Y700244D01*
X1376279Y700207D01*
X1376075Y700170D01*
X1375927Y700151D01*
X1375834D01*
X1375797D01*
X1375556Y700170D01*
X1375316Y700188D01*
X1374871Y700318D01*
X1374464Y700466D01*
X1374131Y700651D01*
X1373853Y700855D01*
X1373742Y700929D01*
X1373649Y701003D01*
X1373575Y701077D01*
X1373520Y701132D01*
X1373501Y701151D01*
X1373483Y701169D01*
X1373316Y701373D01*
X1373149Y701577D01*
X1373020Y701780D01*
X1372909Y701984D01*
X1372742Y702410D01*
X1372631Y702799D01*
X1372557Y703132D01*
X1372538Y703280D01*
X1372520Y703410D01*
X1372501Y703503D01*
Y703651D01*
X1372520Y703891D01*
X1372557Y704132D01*
X1372594Y704225D01*
X1372612Y704299D01*
X1372631Y704336D01*
Y704354D01*
X1372724Y704613D01*
X1372835Y704854D01*
X1372872Y704947D01*
X1372909Y705021D01*
X1372927Y705058D01*
X1372946Y705076D01*
X1373112Y705336D01*
X1373297Y705576D01*
X1373483Y705761D01*
X1373649Y705928D01*
X1373797Y706076D01*
X1373927Y706169D01*
X1374001Y706224D01*
X1374038Y706243D01*
X1374186Y706299D01*
X1374297Y706336D01*
X1374371Y706354D01*
X1374390D01*
X1374483Y706336D01*
X1374575Y706317D01*
X1374705Y706243D01*
X1374797Y706187D01*
X1374834Y706150D01*
X1374927Y706002D01*
X1374982Y705854D01*
X1375001Y705743D01*
Y705706D01*
X1374946Y705428D01*
X1374871Y705317D01*
X1374797Y705243D01*
X1374742Y705206D01*
X1374723Y705188D01*
X1374427Y704965D01*
X1374297Y704836D01*
X1374186Y704725D01*
X1374112Y704613D01*
X1374057Y704539D01*
X1374020Y704484D01*
X1374001Y704465D01*
X1373909Y704299D01*
X1373853Y704132D01*
X1373797Y703984D01*
X1373779Y703836D01*
X1373760Y703725D01*
X1373742Y703632D01*
Y703558D01*
X1373760Y703225D01*
X1373797Y703077D01*
X1373816Y702965D01*
X1373853Y702854D01*
X1373890Y702780D01*
X1373909Y702725D01*
Y702706D01*
X1374057Y702429D01*
X1374186Y702225D01*
X1374260Y702132D01*
X1374297Y702077D01*
X1374334Y702040D01*
X1374353Y702021D01*
X1374575Y701817D01*
X1374816Y701651D01*
X1375057Y701540D01*
X1375260Y701466D01*
X1375464Y701429D01*
X1375612Y701392D01*
X1375705D01*
X1375723D01*
X1375742D01*
X1375908Y701410D01*
X1376075Y701429D01*
X1376242Y701466D01*
X1376371Y701503D01*
X1376501Y701558D01*
X1376593Y701595D01*
X1376667Y701614D01*
X1376686Y701632D01*
X1384037Y706243D01*
X1384222Y706336D01*
X1384370Y706373D01*
X1384463Y706391D01*
X1384500D01*
X1384667Y706354D01*
D02*
G37*
G36*
X987094Y332462D02*
X987223Y332406D01*
X987297Y332351D01*
X987334Y332313D01*
X987427Y332147D01*
X987483Y331980D01*
Y331906D01*
X987501Y331851D01*
Y331814D01*
Y331795D01*
Y320611D01*
X987464Y320407D01*
X987409Y320259D01*
X987353Y320185D01*
X987316Y320148D01*
X987168Y320056D01*
X987038Y320019D01*
X986927Y320000D01*
X986890D01*
X986705Y320019D01*
X986557Y320074D01*
X986483Y320130D01*
X986446Y320148D01*
X986335Y320296D01*
X986279Y320444D01*
X986260Y320555D01*
Y320592D01*
Y320611D01*
Y329369D01*
X981205Y320370D01*
X981113Y320241D01*
X981020Y320148D01*
X980928Y320093D01*
X980817Y320056D01*
X980742Y320019D01*
X980668Y320000D01*
X980520D01*
X980446Y320019D01*
X980409Y320037D01*
X980391D01*
X980206Y320185D01*
X980094Y320352D01*
X980039Y320518D01*
X980020Y320574D01*
Y320630D01*
Y320667D01*
Y320685D01*
Y331869D01*
Y331980D01*
X980057Y332073D01*
X980113Y332221D01*
X980187Y332313D01*
X980206Y332332D01*
X980224D01*
X980372Y332425D01*
X980520Y332480D01*
X980613Y332499D01*
X980650D01*
X980817Y332480D01*
X980946Y332425D01*
X981039Y332351D01*
X981076Y332332D01*
X981187Y332165D01*
X981242Y332017D01*
X981261Y331906D01*
Y331888D01*
Y331869D01*
Y323111D01*
X986335Y332091D01*
X986427Y332221D01*
X986520Y332332D01*
X986612Y332406D01*
X986705Y332443D01*
X986797Y332480D01*
X986871Y332499D01*
X986927D01*
X987094Y332462D01*
D02*
G37*
G36*
X967059D02*
X967188Y332406D01*
X967281Y332332D01*
X967318Y332313D01*
Y332295D01*
X967429Y332147D01*
X967485Y332017D01*
X967503Y331925D01*
Y331906D01*
Y331888D01*
X967466Y331665D01*
X963726Y320537D01*
X963633Y320352D01*
X963541Y320222D01*
X963448Y320130D01*
X963337Y320074D01*
X963263Y320037D01*
X963189Y320000D01*
X963133D01*
X962967Y320056D01*
X962856Y320093D01*
X962781Y320130D01*
X962763Y320148D01*
X962670Y320278D01*
X962596Y320407D01*
X962559Y320500D01*
X962541Y320518D01*
Y320537D01*
X958800Y331665D01*
X958763Y331888D01*
X958800Y332073D01*
X958856Y332202D01*
X958911Y332295D01*
X958949Y332332D01*
X959097Y332425D01*
X959245Y332480D01*
X959356Y332499D01*
X959393D01*
X959522Y332480D01*
X959634Y332443D01*
X959708Y332388D01*
X959745Y332369D01*
X959837Y332258D01*
X959911Y332165D01*
X959948Y332091D01*
X959967Y332054D01*
X963133Y322703D01*
X966281Y332073D01*
X966374Y332239D01*
X966466Y332369D01*
X966522Y332425D01*
X966540Y332443D01*
X966707Y332499D01*
X966966D01*
X967059Y332462D01*
D02*
G37*
G36*
X995371D02*
X995722Y332388D01*
X996019Y332258D01*
X996278Y332128D01*
X996500Y331999D01*
X996648Y331869D01*
X996741Y331795D01*
X996778Y331758D01*
X997019Y331480D01*
X997204Y331184D01*
X997315Y330888D01*
X997407Y330610D01*
X997463Y330369D01*
X997482Y330166D01*
X997500Y330092D01*
Y330055D01*
Y330018D01*
Y329999D01*
Y322500D01*
X997463Y322129D01*
X997389Y321778D01*
X997259Y321481D01*
X997130Y321222D01*
X997000Y321000D01*
X996870Y320852D01*
X996796Y320759D01*
X996759Y320722D01*
X996463Y320481D01*
X996167Y320296D01*
X995871Y320185D01*
X995593Y320093D01*
X995352Y320037D01*
X995167Y320019D01*
X995093Y320000D01*
X990630D01*
X990427Y320019D01*
X990260Y320093D01*
X990149Y320185D01*
X990075Y320315D01*
X990038Y320426D01*
X990001Y320518D01*
Y320592D01*
Y320611D01*
Y326851D01*
X990019Y327055D01*
X990093Y327221D01*
X990204Y327333D01*
X990316Y327407D01*
X990427Y327444D01*
X990538Y327481D01*
X992001D01*
X992093Y327444D01*
X992223Y327388D01*
X992315Y327314D01*
X992352Y327295D01*
Y327277D01*
X992445Y327129D01*
X992482Y326981D01*
X992501Y326888D01*
Y326870D01*
Y326851D01*
X992482Y326666D01*
X992427Y326536D01*
X992371Y326444D01*
X992352Y326407D01*
X992204Y326314D01*
X992038Y326259D01*
X991926Y326240D01*
X991241D01*
Y321241D01*
X995019D01*
X995185Y321259D01*
X995334Y321278D01*
X995463Y321296D01*
X995482Y321315D01*
X995500D01*
X995648Y321407D01*
X995778Y321500D01*
X995871Y321574D01*
X995908Y321592D01*
X996019Y321741D01*
X996111Y321889D01*
X996167Y322037D01*
X996222Y322185D01*
X996241Y322296D01*
X996259Y322389D01*
Y322463D01*
Y322481D01*
Y329999D01*
X996241Y330184D01*
X996222Y330332D01*
X996204Y330443D01*
X996185Y330462D01*
Y330480D01*
X996111Y330647D01*
X996019Y330777D01*
X995945Y330851D01*
X995908Y330888D01*
X995760Y331017D01*
X995611Y331110D01*
X995463Y331166D01*
X995315Y331221D01*
X995204Y331240D01*
X995111Y331258D01*
X990630D01*
X990519Y331277D01*
X990427Y331295D01*
X990278Y331369D01*
X990186Y331425D01*
X990167Y331462D01*
X990075Y331610D01*
X990019Y331740D01*
X990001Y331832D01*
Y331869D01*
X990038Y332036D01*
X990093Y332165D01*
X990149Y332258D01*
X990186Y332295D01*
X990260Y332369D01*
X990334Y332406D01*
X990482Y332480D01*
X990593Y332499D01*
X995000D01*
X995371Y332462D01*
D02*
G37*
G36*
X977095Y332480D02*
X977243Y332406D01*
X977354Y332295D01*
X977428Y332184D01*
X977465Y332073D01*
X977484Y331962D01*
X977502Y331888D01*
Y331869D01*
Y320611D01*
X977484Y320407D01*
X977410Y320259D01*
X977317Y320148D01*
X977187Y320074D01*
X977076Y320037D01*
X976984Y320019D01*
X976910Y320000D01*
X972503D01*
X972132Y320037D01*
X971799Y320111D01*
X971503Y320222D01*
X971244Y320370D01*
X971040Y320500D01*
X970873Y320611D01*
X970781Y320685D01*
X970743Y320722D01*
X970503Y321018D01*
X970318Y321315D01*
X970188Y321611D01*
X970095Y321889D01*
X970040Y322129D01*
X970021Y322333D01*
X970003Y322407D01*
Y322463D01*
Y322481D01*
Y322500D01*
Y329999D01*
X970040Y330369D01*
X970114Y330703D01*
X970244Y330999D01*
X970373Y331258D01*
X970503Y331462D01*
X970632Y331628D01*
X970706Y331721D01*
X970743Y331758D01*
X971021Y331999D01*
X971318Y332184D01*
X971614Y332313D01*
X971892Y332406D01*
X972132Y332462D01*
X972336Y332480D01*
X972410Y332499D01*
X976891D01*
X977095Y332480D01*
D02*
G37*
G36*
X1675501Y747964D02*
X1675543Y747950D01*
X1675557Y747935D01*
X1675642Y747879D01*
X1675726Y747794D01*
X1675769Y747710D01*
X1675797Y747654D01*
X1675811Y747625D01*
X1677714Y740957D01*
X1677742Y740845D01*
Y740732D01*
X1677714Y740605D01*
X1677658Y740506D01*
X1677587Y740450D01*
X1677489Y740394D01*
X1677404Y740365D01*
X1677319Y740351D01*
X1674387D01*
Y738928D01*
X1674359Y738772D01*
X1674317Y738660D01*
X1674274Y738603D01*
X1674246Y738575D01*
X1674133Y738505D01*
X1674035Y738476D01*
X1673950Y738462D01*
X1673922D01*
X1673781Y738476D01*
X1673668Y738519D01*
X1673612Y738561D01*
X1673584Y738575D01*
X1673499Y738688D01*
X1673457Y738801D01*
X1673443Y738885D01*
Y738913D01*
Y738928D01*
Y740351D01*
X1672498D01*
X1672414Y740365D01*
X1672343Y740379D01*
X1672230Y740436D01*
X1672160Y740478D01*
X1672146Y740506D01*
X1672075Y740619D01*
X1672033Y740718D01*
X1672019Y740788D01*
Y740816D01*
X1672047Y740943D01*
X1672089Y741042D01*
X1672132Y741113D01*
X1672160Y741141D01*
X1672216Y741197D01*
X1672273Y741225D01*
X1672385Y741282D01*
X1672470Y741296D01*
X1673443D01*
Y742720D01*
Y742804D01*
X1673471Y742875D01*
X1673513Y742987D01*
X1673570Y743058D01*
X1673584Y743072D01*
X1673598D01*
X1673710Y743142D01*
X1673809Y743185D01*
X1673894Y743199D01*
X1673922D01*
X1674049Y743185D01*
X1674147Y743142D01*
X1674218Y743086D01*
X1674246Y743072D01*
X1674331Y742945D01*
X1674373Y742832D01*
X1674387Y742748D01*
Y742734D01*
Y742720D01*
Y741296D01*
X1676629D01*
X1674895Y747357D01*
X1674881Y747498D01*
X1674909Y747639D01*
X1674951Y747752D01*
X1674993Y747809D01*
X1675022Y747837D01*
X1675134Y747921D01*
X1675247Y747964D01*
X1675332Y747978D01*
X1675444D01*
X1675501Y747964D01*
D02*
G37*
G36*
X1685030D02*
X1685143Y747907D01*
X1685228Y747823D01*
X1685284Y747738D01*
X1685312Y747654D01*
X1685326Y747569D01*
X1685341Y747513D01*
Y747498D01*
Y738928D01*
X1685312Y738772D01*
X1685270Y738660D01*
X1685228Y738603D01*
X1685200Y738575D01*
X1685087Y738505D01*
X1684988Y738476D01*
X1684904Y738462D01*
X1684875D01*
X1684734Y738476D01*
X1684622Y738519D01*
X1684565Y738561D01*
X1684537Y738575D01*
X1684452Y738688D01*
X1684410Y738801D01*
X1684396Y738885D01*
Y738913D01*
Y738928D01*
Y742269D01*
X1682761D01*
X1680519Y738674D01*
X1680449Y738589D01*
X1680392Y738533D01*
X1680350Y738505D01*
X1680336Y738491D01*
X1680266Y738476D01*
X1680195Y738462D01*
X1680139D01*
X1679998Y738476D01*
X1679885Y738533D01*
X1679814Y738575D01*
X1679786Y738589D01*
X1679730Y738645D01*
X1679702Y738702D01*
X1679645Y738815D01*
X1679631Y738899D01*
Y738913D01*
Y738928D01*
X1679674Y739082D01*
X1679716Y739195D01*
X1681633Y742269D01*
X1681548D01*
X1681266Y742297D01*
X1680999Y742353D01*
X1680773Y742438D01*
X1680576Y742550D01*
X1680421Y742649D01*
X1680294Y742734D01*
X1680223Y742790D01*
X1680195Y742818D01*
X1680012Y743044D01*
X1679871Y743269D01*
X1679772Y743495D01*
X1679702Y743706D01*
X1679659Y743890D01*
X1679645Y744045D01*
X1679631Y744101D01*
Y744143D01*
Y744157D01*
Y744172D01*
Y746075D01*
X1679659Y746357D01*
X1679716Y746610D01*
X1679814Y746836D01*
X1679913Y747033D01*
X1680012Y747188D01*
X1680111Y747315D01*
X1680167Y747386D01*
X1680195Y747414D01*
X1680407Y747597D01*
X1680632Y747738D01*
X1680858Y747837D01*
X1681069Y747907D01*
X1681252Y747950D01*
X1681407Y747964D01*
X1681464Y747978D01*
X1684875D01*
X1685030Y747964D01*
D02*
G37*
G36*
X1668340Y747950D02*
X1668636Y747879D01*
X1668875Y747780D01*
X1669101Y747668D01*
X1669270Y747541D01*
X1669397Y747442D01*
X1669481Y747372D01*
X1669496Y747357D01*
X1669510Y747343D01*
X1669622Y747216D01*
X1669707Y747104D01*
X1669862Y746850D01*
X1669961Y746596D01*
X1670045Y746371D01*
X1670088Y746173D01*
X1670102Y746018D01*
X1670116Y745962D01*
Y745920D01*
Y745891D01*
Y745877D01*
Y740549D01*
X1670102Y740379D01*
X1670088Y740224D01*
X1670017Y739942D01*
X1669918Y739689D01*
X1669806Y739463D01*
X1669693Y739294D01*
X1669594Y739167D01*
X1669524Y739082D01*
X1669496Y739068D01*
Y739054D01*
X1669256Y738857D01*
X1669002Y738716D01*
X1668763Y738603D01*
X1668523Y738533D01*
X1668326Y738491D01*
X1668170Y738476D01*
X1668114Y738462D01*
X1667466D01*
X1667310Y738476D01*
X1667155Y738491D01*
X1666859Y738561D01*
X1666606Y738660D01*
X1666394Y738772D01*
X1666225Y738885D01*
X1666098Y738984D01*
X1666014Y739054D01*
X1665985Y739082D01*
X1665873Y739195D01*
X1665774Y739322D01*
X1665633Y739576D01*
X1665520Y739816D01*
X1665436Y740055D01*
X1665393Y740253D01*
X1665379Y740408D01*
X1665365Y740464D01*
Y740506D01*
Y740535D01*
Y740549D01*
Y745877D01*
Y746032D01*
X1665393Y746187D01*
X1665464Y746484D01*
X1665562Y746737D01*
X1665675Y746949D01*
X1665802Y747118D01*
X1665901Y747245D01*
X1665971Y747329D01*
X1665985Y747357D01*
X1665999D01*
X1666112Y747470D01*
X1666239Y747569D01*
X1666493Y747710D01*
X1666732Y747823D01*
X1666958Y747907D01*
X1667169Y747950D01*
X1667325Y747964D01*
X1667381Y747978D01*
X1668185D01*
X1668340Y747950D01*
D02*
G37*
G36*
X1566366Y703970D02*
X1566531Y703944D01*
X1566607Y703919D01*
X1566658Y703906D01*
X1566696Y703894D01*
X1566708D01*
X1566912Y703817D01*
X1567000Y703779D01*
X1567089Y703728D01*
X1567153Y703703D01*
X1567204Y703665D01*
X1567242Y703652D01*
X1567254Y703640D01*
X1567458Y703513D01*
X1567623Y703373D01*
X1567775Y703233D01*
X1567902Y703106D01*
X1568004Y702979D01*
X1568080Y702890D01*
X1568131Y702827D01*
X1568143Y702801D01*
X1568182Y702687D01*
X1568207Y702598D01*
X1568220Y702547D01*
Y702535D01*
X1568207Y702458D01*
X1568194Y702395D01*
X1568143Y702293D01*
X1568093Y702230D01*
X1568067Y702205D01*
X1567953Y702128D01*
X1567839Y702090D01*
X1567762Y702077D01*
X1567737D01*
X1567521Y702116D01*
X1567445Y702179D01*
X1567381Y702243D01*
X1567356Y702281D01*
X1567343Y702293D01*
X1567254Y702408D01*
X1567153Y702522D01*
X1567064Y702611D01*
X1566975Y702687D01*
X1566899Y702751D01*
X1566835Y702801D01*
X1566797Y702827D01*
X1566785Y702840D01*
X1566658Y702903D01*
X1566543Y702954D01*
X1566416Y702979D01*
X1566315Y703005D01*
X1566226Y703017D01*
X1566162Y703030D01*
X1566099D01*
X1565858Y703005D01*
X1565743Y702992D01*
X1565654Y702967D01*
X1565578Y702941D01*
X1565515Y702928D01*
X1565477Y702903D01*
X1565464D01*
X1565248Y702801D01*
X1565159Y702738D01*
X1565083Y702687D01*
X1565019Y702649D01*
X1564969Y702611D01*
X1564943Y702586D01*
X1564930Y702573D01*
X1564765Y702395D01*
X1564651Y702217D01*
X1564562Y702039D01*
X1564511Y701874D01*
X1564473Y701722D01*
X1564460Y701608D01*
X1564448Y701531D01*
Y701519D01*
Y701506D01*
X1564460Y701379D01*
X1564473Y701252D01*
X1564499Y701125D01*
X1564537Y701023D01*
X1564575Y700935D01*
X1564600Y700858D01*
X1564613Y700807D01*
X1564626Y700795D01*
X1568143Y695181D01*
X1568207Y695042D01*
X1568245Y694940D01*
X1568258Y694864D01*
Y694851D01*
Y694838D01*
X1568232Y694712D01*
X1568182Y694623D01*
X1568093Y694546D01*
X1567991Y694508D01*
X1567902Y694483D01*
X1567813Y694470D01*
X1567762Y694457D01*
X1563927D01*
X1563838Y694470D01*
X1563775Y694483D01*
X1563660Y694534D01*
X1563597Y694585D01*
X1563571Y694610D01*
X1563508Y694724D01*
X1563470Y694826D01*
X1563457Y694902D01*
Y694915D01*
Y694927D01*
Y694991D01*
X1563483Y695054D01*
X1563521Y695156D01*
X1563571Y695232D01*
X1563584Y695245D01*
X1563597Y695258D01*
X1563648Y695308D01*
X1563711Y695347D01*
X1563813Y695397D01*
X1563889Y695410D01*
X1566886D01*
X1563813Y700312D01*
X1563711Y700528D01*
X1563635Y700744D01*
X1563571Y700935D01*
X1563533Y701112D01*
X1563508Y701265D01*
X1563495Y701379D01*
Y701455D01*
Y701481D01*
X1563508Y701671D01*
X1563533Y701849D01*
X1563571Y702014D01*
X1563610Y702179D01*
X1563737Y702484D01*
X1563876Y702738D01*
X1563952Y702852D01*
X1564029Y702941D01*
X1564092Y703030D01*
X1564143Y703106D01*
X1564194Y703157D01*
X1564232Y703195D01*
X1564257Y703221D01*
X1564270Y703233D01*
X1564422Y703360D01*
X1564575Y703487D01*
X1564727Y703576D01*
X1564892Y703665D01*
X1565057Y703741D01*
X1565210Y703805D01*
X1565502Y703894D01*
X1565642Y703919D01*
X1565769Y703944D01*
X1565883Y703957D01*
X1565972Y703970D01*
X1566048Y703982D01*
X1566162D01*
X1566366Y703970D01*
D02*
G37*
G36*
X1559698D02*
X1559863Y703944D01*
X1559939Y703919D01*
X1559990Y703906D01*
X1560028Y703894D01*
X1560041D01*
X1560244Y703817D01*
X1560333Y703779D01*
X1560422Y703728D01*
X1560485Y703703D01*
X1560536Y703665D01*
X1560574Y703652D01*
X1560587Y703640D01*
X1560790Y703513D01*
X1560955Y703373D01*
X1561108Y703233D01*
X1561235Y703106D01*
X1561336Y702979D01*
X1561413Y702890D01*
X1561463Y702827D01*
X1561476Y702801D01*
X1561514Y702687D01*
X1561539Y702598D01*
X1561552Y702547D01*
Y702535D01*
X1561539Y702458D01*
X1561527Y702395D01*
X1561476Y702293D01*
X1561425Y702230D01*
X1561400Y702205D01*
X1561286Y702128D01*
X1561171Y702090D01*
X1561095Y702077D01*
X1561070D01*
X1560854Y702116D01*
X1560777Y702179D01*
X1560714Y702243D01*
X1560689Y702281D01*
X1560676Y702293D01*
X1560587Y702408D01*
X1560485Y702522D01*
X1560397Y702611D01*
X1560308Y702687D01*
X1560231Y702751D01*
X1560168Y702801D01*
X1560130Y702827D01*
X1560117Y702840D01*
X1559990Y702903D01*
X1559876Y702954D01*
X1559749Y702979D01*
X1559647Y703005D01*
X1559558Y703017D01*
X1559495Y703030D01*
X1559431D01*
X1559190Y703005D01*
X1559076Y702992D01*
X1558987Y702967D01*
X1558911Y702941D01*
X1558847Y702928D01*
X1558809Y702903D01*
X1558796D01*
X1558580Y702801D01*
X1558492Y702738D01*
X1558415Y702687D01*
X1558352Y702649D01*
X1558301Y702611D01*
X1558276Y702586D01*
X1558263Y702573D01*
X1558098Y702395D01*
X1557984Y702217D01*
X1557895Y702039D01*
X1557844Y701874D01*
X1557806Y701722D01*
X1557793Y701608D01*
X1557780Y701531D01*
Y701519D01*
Y701506D01*
X1557793Y701379D01*
X1557806Y701252D01*
X1557831Y701125D01*
X1557869Y701023D01*
X1557907Y700935D01*
X1557933Y700858D01*
X1557945Y700807D01*
X1557958Y700795D01*
X1561476Y695181D01*
X1561539Y695042D01*
X1561578Y694940D01*
X1561590Y694864D01*
Y694851D01*
Y694838D01*
X1561565Y694712D01*
X1561514Y694623D01*
X1561425Y694546D01*
X1561324Y694508D01*
X1561235Y694483D01*
X1561146Y694470D01*
X1561095Y694457D01*
X1557260D01*
X1557171Y694470D01*
X1557107Y694483D01*
X1556993Y694534D01*
X1556929Y694585D01*
X1556904Y694610D01*
X1556841Y694724D01*
X1556802Y694826D01*
X1556790Y694902D01*
Y694915D01*
Y694927D01*
Y694991D01*
X1556815Y695054D01*
X1556853Y695156D01*
X1556904Y695232D01*
X1556917Y695245D01*
X1556929Y695258D01*
X1556980Y695308D01*
X1557044Y695347D01*
X1557145Y695397D01*
X1557222Y695410D01*
X1560219D01*
X1557145Y700312D01*
X1557044Y700528D01*
X1556967Y700744D01*
X1556904Y700935D01*
X1556866Y701112D01*
X1556841Y701265D01*
X1556828Y701379D01*
Y701455D01*
Y701481D01*
X1556841Y701671D01*
X1556866Y701849D01*
X1556904Y702014D01*
X1556942Y702179D01*
X1557069Y702484D01*
X1557209Y702738D01*
X1557285Y702852D01*
X1557361Y702941D01*
X1557425Y703030D01*
X1557475Y703106D01*
X1557526Y703157D01*
X1557564Y703195D01*
X1557590Y703221D01*
X1557603Y703233D01*
X1557755Y703360D01*
X1557907Y703487D01*
X1558060Y703576D01*
X1558225Y703665D01*
X1558390Y703741D01*
X1558542Y703805D01*
X1558834Y703894D01*
X1558974Y703919D01*
X1559101Y703944D01*
X1559215Y703957D01*
X1559304Y703970D01*
X1559380Y703982D01*
X1559495D01*
X1559698Y703970D01*
D02*
G37*
G36*
X1573262Y703957D02*
X1573528Y703894D01*
X1573757Y703805D01*
X1573947Y703703D01*
X1574113Y703602D01*
X1574227Y703513D01*
X1574303Y703449D01*
X1574316Y703436D01*
X1574328Y703424D01*
X1574430Y703322D01*
X1574506Y703208D01*
X1574646Y702979D01*
X1574735Y702751D01*
X1574811Y702547D01*
X1574849Y702357D01*
X1574862Y702205D01*
X1574875Y702154D01*
Y702116D01*
Y702090D01*
Y702077D01*
Y696363D01*
X1574862Y696210D01*
X1574849Y696070D01*
X1574786Y695816D01*
X1574697Y695575D01*
X1574595Y695385D01*
X1574494Y695219D01*
X1574405Y695105D01*
X1574341Y695029D01*
X1574316Y695016D01*
Y695004D01*
X1574214Y694902D01*
X1574100Y694826D01*
X1573871Y694686D01*
X1573643Y694597D01*
X1573439Y694521D01*
X1573262Y694483D01*
X1573109Y694470D01*
X1573058Y694457D01*
X1570595D01*
X1570506Y694470D01*
X1570442Y694483D01*
X1570328Y694534D01*
X1570264Y694585D01*
X1570239Y694610D01*
X1570175Y694724D01*
X1570137Y694826D01*
X1570125Y694902D01*
Y694915D01*
Y694927D01*
Y694991D01*
X1570150Y695054D01*
X1570188Y695156D01*
X1570239Y695232D01*
X1570252Y695245D01*
X1570264Y695258D01*
X1570315Y695308D01*
X1570379Y695347D01*
X1570480Y695397D01*
X1570556Y695410D01*
X1572982D01*
X1573109Y695423D01*
X1573224Y695448D01*
X1573274D01*
X1573312Y695461D01*
X1573338Y695473D01*
X1573351D01*
X1573465Y695537D01*
X1573566Y695601D01*
X1573630Y695651D01*
X1573643Y695677D01*
X1573655D01*
X1573744Y695791D01*
X1573808Y695905D01*
X1573858Y696020D01*
X1573884Y696121D01*
X1573909Y696223D01*
X1573922Y696299D01*
Y696350D01*
Y696363D01*
Y702077D01*
X1573909Y702217D01*
X1573884Y702331D01*
X1573871Y702408D01*
X1573858Y702420D01*
Y702433D01*
X1573795Y702560D01*
X1573732Y702662D01*
X1573681Y702725D01*
X1573655Y702751D01*
X1573541Y702840D01*
X1573427Y702916D01*
X1573325Y702967D01*
X1573211Y702992D01*
X1573122Y703017D01*
X1573046Y703030D01*
X1570595D01*
X1570506Y703043D01*
X1570442Y703055D01*
X1570328Y703106D01*
X1570264Y703157D01*
X1570239Y703182D01*
X1570175Y703297D01*
X1570137Y703398D01*
X1570125Y703475D01*
Y703487D01*
Y703500D01*
Y703563D01*
X1570150Y703627D01*
X1570188Y703728D01*
X1570239Y703805D01*
X1570252Y703817D01*
X1570264Y703830D01*
X1570315Y703881D01*
X1570379Y703919D01*
X1570480Y703970D01*
X1570556Y703982D01*
X1573122D01*
X1573262Y703957D01*
D02*
G37*
G36*
X1565419Y781932D02*
X1565585Y781906D01*
X1565661Y781881D01*
X1565712Y781868D01*
X1565750Y781855D01*
X1565762D01*
X1565966Y781779D01*
X1566054Y781741D01*
X1566143Y781690D01*
X1566207Y781665D01*
X1566258Y781627D01*
X1566296Y781614D01*
X1566308Y781601D01*
X1566512Y781475D01*
X1566677Y781335D01*
X1566829Y781195D01*
X1566956Y781068D01*
X1567058Y780941D01*
X1567134Y780852D01*
X1567185Y780789D01*
X1567197Y780763D01*
X1567236Y780649D01*
X1567261Y780560D01*
X1567274Y780509D01*
Y780497D01*
X1567261Y780420D01*
X1567248Y780357D01*
X1567197Y780255D01*
X1567147Y780192D01*
X1567121Y780166D01*
X1567007Y780090D01*
X1566893Y780052D01*
X1566816Y780039D01*
X1566791D01*
X1566575Y780078D01*
X1566499Y780141D01*
X1566435Y780204D01*
X1566410Y780243D01*
X1566397Y780255D01*
X1566308Y780370D01*
X1566207Y780484D01*
X1566118Y780573D01*
X1566029Y780649D01*
X1565953Y780713D01*
X1565889Y780763D01*
X1565851Y780789D01*
X1565838Y780801D01*
X1565712Y780865D01*
X1565597Y780916D01*
X1565470Y780941D01*
X1565369Y780966D01*
X1565280Y780979D01*
X1565216Y780992D01*
X1565153D01*
X1564911Y780966D01*
X1564797Y780954D01*
X1564708Y780928D01*
X1564632Y780903D01*
X1564568Y780890D01*
X1564530Y780865D01*
X1564518D01*
X1564302Y780763D01*
X1564213Y780700D01*
X1564137Y780649D01*
X1564073Y780611D01*
X1564022Y780573D01*
X1563997Y780547D01*
X1563984Y780535D01*
X1563819Y780357D01*
X1563705Y780179D01*
X1563616Y780001D01*
X1563565Y779836D01*
X1563527Y779684D01*
X1563514Y779569D01*
X1563502Y779493D01*
Y779481D01*
Y779468D01*
X1563514Y779341D01*
X1563527Y779214D01*
X1563553Y779087D01*
X1563591Y778985D01*
X1563629Y778896D01*
X1563654Y778820D01*
X1563667Y778769D01*
X1563680Y778757D01*
X1567197Y773143D01*
X1567261Y773004D01*
X1567299Y772902D01*
X1567312Y772826D01*
Y772813D01*
Y772800D01*
X1567286Y772673D01*
X1567236Y772585D01*
X1567147Y772508D01*
X1567045Y772470D01*
X1566956Y772445D01*
X1566867Y772432D01*
X1566816Y772419D01*
X1562981D01*
X1562892Y772432D01*
X1562829Y772445D01*
X1562714Y772496D01*
X1562651Y772546D01*
X1562625Y772572D01*
X1562562Y772686D01*
X1562524Y772788D01*
X1562511Y772864D01*
Y772877D01*
Y772889D01*
Y772953D01*
X1562536Y773016D01*
X1562575Y773118D01*
X1562625Y773194D01*
X1562638Y773207D01*
X1562651Y773220D01*
X1562702Y773270D01*
X1562765Y773308D01*
X1562867Y773359D01*
X1562943Y773372D01*
X1565940D01*
X1562867Y778274D01*
X1562765Y778490D01*
X1562689Y778706D01*
X1562625Y778896D01*
X1562587Y779074D01*
X1562562Y779227D01*
X1562549Y779341D01*
Y779417D01*
Y779443D01*
X1562562Y779633D01*
X1562587Y779811D01*
X1562625Y779976D01*
X1562664Y780141D01*
X1562791Y780446D01*
X1562930Y780700D01*
X1563006Y780814D01*
X1563083Y780903D01*
X1563146Y780992D01*
X1563197Y781068D01*
X1563248Y781119D01*
X1563286Y781157D01*
X1563311Y781182D01*
X1563324Y781195D01*
X1563476Y781322D01*
X1563629Y781449D01*
X1563781Y781538D01*
X1563946Y781627D01*
X1564111Y781703D01*
X1564264Y781767D01*
X1564556Y781855D01*
X1564695Y781881D01*
X1564823Y781906D01*
X1564937Y781919D01*
X1565026Y781932D01*
X1565102Y781944D01*
X1565216D01*
X1565419Y781932D01*
D02*
G37*
G36*
X1558219Y782008D02*
X1558295Y781995D01*
X1558345Y781970D01*
X1558358Y781957D01*
X1558434Y781906D01*
X1558485Y781868D01*
X1558536Y781817D01*
X1558549Y781805D01*
X1560454Y779887D01*
X1560504Y779836D01*
X1560543Y779773D01*
X1560581Y779671D01*
X1560606Y779595D01*
Y779582D01*
Y779569D01*
X1560593Y779506D01*
X1560581Y779430D01*
X1560530Y779328D01*
X1560479Y779252D01*
X1560454Y779239D01*
Y779227D01*
X1560390Y779176D01*
X1560327Y779138D01*
X1560225Y779100D01*
X1560136Y779074D01*
X1560111D01*
X1560047Y779087D01*
X1559984Y779100D01*
X1559882Y779150D01*
X1559819Y779201D01*
X1559793Y779227D01*
X1558688Y780319D01*
Y772889D01*
X1558676Y772800D01*
X1558663Y772737D01*
X1558612Y772623D01*
X1558574Y772559D01*
X1558549Y772534D01*
X1558434Y772470D01*
X1558333Y772432D01*
X1558244Y772419D01*
X1558219D01*
X1558079Y772432D01*
X1557964Y772483D01*
X1557901Y772521D01*
X1557876Y772534D01*
X1557825Y772585D01*
X1557799Y772648D01*
X1557749Y772762D01*
Y772813D01*
X1557736Y772851D01*
Y772877D01*
Y772889D01*
Y781475D01*
X1557761Y781640D01*
X1557799Y781767D01*
X1557838Y781843D01*
X1557863Y781868D01*
X1557914Y781919D01*
X1557964Y781957D01*
X1558053Y782008D01*
X1558104Y782021D01*
X1558130D01*
X1558219Y782008D01*
D02*
G37*
G36*
X1572316Y781919D02*
X1572582Y781855D01*
X1572811Y781767D01*
X1573001Y781665D01*
X1573166Y781563D01*
X1573281Y781475D01*
X1573357Y781411D01*
X1573370Y781398D01*
X1573382Y781386D01*
X1573484Y781284D01*
X1573560Y781170D01*
X1573700Y780941D01*
X1573789Y780713D01*
X1573865Y780509D01*
X1573903Y780319D01*
X1573916Y780166D01*
X1573928Y780116D01*
Y780078D01*
Y780052D01*
Y780039D01*
Y774324D01*
X1573916Y774172D01*
X1573903Y774032D01*
X1573840Y773778D01*
X1573751Y773537D01*
X1573649Y773346D01*
X1573547Y773181D01*
X1573459Y773067D01*
X1573395Y772991D01*
X1573370Y772978D01*
Y772965D01*
X1573268Y772864D01*
X1573154Y772788D01*
X1572925Y772648D01*
X1572697Y772559D01*
X1572493Y772483D01*
X1572316Y772445D01*
X1572163Y772432D01*
X1572112Y772419D01*
X1569648D01*
X1569560Y772432D01*
X1569496Y772445D01*
X1569382Y772496D01*
X1569318Y772546D01*
X1569293Y772572D01*
X1569229Y772686D01*
X1569191Y772788D01*
X1569179Y772864D01*
Y772877D01*
Y772889D01*
Y772953D01*
X1569204Y773016D01*
X1569242Y773118D01*
X1569293Y773194D01*
X1569306Y773207D01*
X1569318Y773220D01*
X1569369Y773270D01*
X1569433Y773308D01*
X1569534Y773359D01*
X1569610Y773372D01*
X1572036D01*
X1572163Y773385D01*
X1572277Y773410D01*
X1572328D01*
X1572366Y773423D01*
X1572392Y773435D01*
X1572404D01*
X1572519Y773499D01*
X1572620Y773562D01*
X1572684Y773613D01*
X1572697Y773639D01*
X1572709D01*
X1572798Y773753D01*
X1572862Y773867D01*
X1572912Y773981D01*
X1572938Y774083D01*
X1572963Y774185D01*
X1572976Y774261D01*
Y774312D01*
Y774324D01*
Y780039D01*
X1572963Y780179D01*
X1572938Y780293D01*
X1572925Y780370D01*
X1572912Y780382D01*
Y780395D01*
X1572849Y780522D01*
X1572785Y780624D01*
X1572735Y780687D01*
X1572709Y780713D01*
X1572595Y780801D01*
X1572481Y780878D01*
X1572379Y780928D01*
X1572265Y780954D01*
X1572176Y780979D01*
X1572100Y780992D01*
X1569648D01*
X1569560Y781005D01*
X1569496Y781017D01*
X1569382Y781068D01*
X1569318Y781119D01*
X1569293Y781144D01*
X1569229Y781259D01*
X1569191Y781360D01*
X1569179Y781436D01*
Y781449D01*
Y781462D01*
Y781525D01*
X1569204Y781589D01*
X1569242Y781690D01*
X1569293Y781767D01*
X1569306Y781779D01*
X1569318Y781792D01*
X1569369Y781843D01*
X1569433Y781881D01*
X1569534Y781932D01*
X1569610Y781944D01*
X1572176D01*
X1572316Y781919D01*
D02*
G37*
G36*
X1565893Y727970D02*
X1566058Y727944D01*
X1566134Y727919D01*
X1566185Y727906D01*
X1566223Y727894D01*
X1566236D01*
X1566439Y727817D01*
X1566528Y727779D01*
X1566617Y727729D01*
X1566680Y727703D01*
X1566731Y727665D01*
X1566769Y727652D01*
X1566782Y727640D01*
X1566985Y727513D01*
X1567150Y727373D01*
X1567302Y727233D01*
X1567429Y727106D01*
X1567531Y726979D01*
X1567607Y726890D01*
X1567658Y726827D01*
X1567671Y726801D01*
X1567709Y726687D01*
X1567734Y726598D01*
X1567747Y726547D01*
Y726535D01*
X1567734Y726459D01*
X1567721Y726395D01*
X1567671Y726293D01*
X1567620Y726230D01*
X1567594Y726205D01*
X1567480Y726128D01*
X1567366Y726090D01*
X1567290Y726077D01*
X1567264D01*
X1567048Y726116D01*
X1566972Y726179D01*
X1566909Y726243D01*
X1566883Y726281D01*
X1566871Y726293D01*
X1566782Y726408D01*
X1566680Y726522D01*
X1566591Y726611D01*
X1566502Y726687D01*
X1566426Y726751D01*
X1566362Y726801D01*
X1566324Y726827D01*
X1566312Y726840D01*
X1566185Y726903D01*
X1566070Y726954D01*
X1565943Y726979D01*
X1565842Y727005D01*
X1565753Y727017D01*
X1565689Y727030D01*
X1565626D01*
X1565385Y727005D01*
X1565270Y726992D01*
X1565181Y726966D01*
X1565105Y726941D01*
X1565042Y726928D01*
X1565004Y726903D01*
X1564991D01*
X1564775Y726801D01*
X1564686Y726738D01*
X1564610Y726687D01*
X1564546Y726649D01*
X1564496Y726611D01*
X1564470Y726585D01*
X1564458Y726573D01*
X1564292Y726395D01*
X1564178Y726217D01*
X1564089Y726039D01*
X1564038Y725874D01*
X1564000Y725722D01*
X1563988Y725608D01*
X1563975Y725531D01*
Y725519D01*
Y725506D01*
X1563988Y725379D01*
X1564000Y725252D01*
X1564026Y725125D01*
X1564064Y725023D01*
X1564102Y724934D01*
X1564127Y724858D01*
X1564140Y724808D01*
X1564153Y724795D01*
X1567671Y719181D01*
X1567734Y719042D01*
X1567772Y718940D01*
X1567785Y718864D01*
Y718851D01*
Y718839D01*
X1567760Y718711D01*
X1567709Y718623D01*
X1567620Y718546D01*
X1567518Y718508D01*
X1567429Y718483D01*
X1567340Y718470D01*
X1567290Y718457D01*
X1563454D01*
X1563365Y718470D01*
X1563302Y718483D01*
X1563188Y718534D01*
X1563124Y718585D01*
X1563099Y718610D01*
X1563035Y718724D01*
X1562997Y718826D01*
X1562984Y718902D01*
Y718915D01*
Y718927D01*
Y718991D01*
X1563010Y719054D01*
X1563048Y719156D01*
X1563099Y719232D01*
X1563111Y719245D01*
X1563124Y719258D01*
X1563175Y719308D01*
X1563238Y719346D01*
X1563340Y719397D01*
X1563416Y719410D01*
X1566413D01*
X1563340Y724312D01*
X1563238Y724528D01*
X1563162Y724744D01*
X1563099Y724934D01*
X1563060Y725112D01*
X1563035Y725265D01*
X1563022Y725379D01*
Y725455D01*
Y725481D01*
X1563035Y725671D01*
X1563060Y725849D01*
X1563099Y726014D01*
X1563137Y726179D01*
X1563264Y726484D01*
X1563403Y726738D01*
X1563480Y726852D01*
X1563556Y726941D01*
X1563619Y727030D01*
X1563670Y727106D01*
X1563721Y727157D01*
X1563759Y727195D01*
X1563784Y727221D01*
X1563797Y727233D01*
X1563949Y727360D01*
X1564102Y727487D01*
X1564254Y727576D01*
X1564419Y727665D01*
X1564585Y727741D01*
X1564737Y727805D01*
X1565029Y727894D01*
X1565169Y727919D01*
X1565296Y727944D01*
X1565410Y727957D01*
X1565499Y727970D01*
X1565575Y727982D01*
X1565689D01*
X1565893Y727970D01*
D02*
G37*
G36*
X1572789Y727957D02*
X1573055Y727894D01*
X1573284Y727805D01*
X1573474Y727703D01*
X1573640Y727601D01*
X1573754Y727513D01*
X1573830Y727449D01*
X1573843Y727436D01*
X1573855Y727424D01*
X1573957Y727322D01*
X1574033Y727208D01*
X1574173Y726979D01*
X1574262Y726751D01*
X1574338Y726547D01*
X1574376Y726357D01*
X1574389Y726205D01*
X1574402Y726154D01*
Y726116D01*
Y726090D01*
Y726077D01*
Y720362D01*
X1574389Y720210D01*
X1574376Y720070D01*
X1574313Y719816D01*
X1574224Y719575D01*
X1574122Y719385D01*
X1574021Y719220D01*
X1573932Y719105D01*
X1573868Y719029D01*
X1573843Y719016D01*
Y719004D01*
X1573741Y718902D01*
X1573627Y718826D01*
X1573398Y718686D01*
X1573170Y718597D01*
X1572966Y718521D01*
X1572789Y718483D01*
X1572636Y718470D01*
X1572585Y718457D01*
X1570122D01*
X1570033Y718470D01*
X1569969Y718483D01*
X1569855Y718534D01*
X1569792Y718585D01*
X1569766Y718610D01*
X1569703Y718724D01*
X1569664Y718826D01*
X1569652Y718902D01*
Y718915D01*
Y718927D01*
Y718991D01*
X1569677Y719054D01*
X1569715Y719156D01*
X1569766Y719232D01*
X1569779Y719245D01*
X1569792Y719258D01*
X1569842Y719308D01*
X1569906Y719346D01*
X1570007Y719397D01*
X1570084Y719410D01*
X1572509D01*
X1572636Y719423D01*
X1572751Y719448D01*
X1572801D01*
X1572840Y719461D01*
X1572865Y719473D01*
X1572878D01*
X1572992Y719537D01*
X1573094Y719601D01*
X1573157Y719651D01*
X1573170Y719677D01*
X1573182D01*
X1573271Y719791D01*
X1573335Y719905D01*
X1573386Y720020D01*
X1573411Y720121D01*
X1573436Y720223D01*
X1573449Y720299D01*
Y720350D01*
Y720362D01*
Y726077D01*
X1573436Y726217D01*
X1573411Y726331D01*
X1573398Y726408D01*
X1573386Y726420D01*
Y726433D01*
X1573322Y726560D01*
X1573259Y726662D01*
X1573208Y726725D01*
X1573182Y726751D01*
X1573068Y726840D01*
X1572954Y726916D01*
X1572852Y726966D01*
X1572738Y726992D01*
X1572649Y727017D01*
X1572573Y727030D01*
X1570122D01*
X1570033Y727043D01*
X1569969Y727055D01*
X1569855Y727106D01*
X1569792Y727157D01*
X1569766Y727182D01*
X1569703Y727297D01*
X1569664Y727398D01*
X1569652Y727475D01*
Y727487D01*
Y727500D01*
Y727563D01*
X1569677Y727627D01*
X1569715Y727729D01*
X1569766Y727805D01*
X1569779Y727817D01*
X1569792Y727830D01*
X1569842Y727881D01*
X1569906Y727919D01*
X1570007Y727970D01*
X1570084Y727982D01*
X1572649D01*
X1572789Y727957D01*
D02*
G37*
G36*
X1559136Y727970D02*
X1559289Y727957D01*
X1559568Y727881D01*
X1559822Y727779D01*
X1560038Y727665D01*
X1560216Y727551D01*
X1560343Y727449D01*
X1560394Y727411D01*
X1560432Y727373D01*
X1560444Y727360D01*
X1560457Y727347D01*
X1560559Y727233D01*
X1560660Y727106D01*
X1560813Y726852D01*
X1560914Y726611D01*
X1560990Y726382D01*
X1561028Y726179D01*
X1561054Y726103D01*
Y726027D01*
X1561067Y725963D01*
Y725925D01*
Y725900D01*
Y725887D01*
Y720553D01*
X1561054Y720388D01*
X1561041Y720236D01*
X1560965Y719943D01*
X1560863Y719689D01*
X1560749Y719473D01*
X1560635Y719296D01*
X1560546Y719169D01*
X1560495Y719118D01*
X1560470Y719080D01*
X1560457Y719067D01*
X1560444Y719054D01*
X1560330Y718953D01*
X1560203Y718864D01*
X1559949Y718711D01*
X1559708Y718610D01*
X1559479Y718534D01*
X1559276Y718496D01*
X1559187Y718470D01*
X1559111D01*
X1559047Y718457D01*
X1558400D01*
X1558235Y718470D01*
X1558082Y718483D01*
X1557803Y718559D01*
X1557549Y718661D01*
X1557333Y718775D01*
X1557155Y718889D01*
X1557028Y718978D01*
X1556977Y719029D01*
X1556939Y719054D01*
X1556926Y719067D01*
X1556914Y719080D01*
X1556812Y719194D01*
X1556711Y719321D01*
X1556558Y719575D01*
X1556456Y719816D01*
X1556380Y720045D01*
X1556329Y720248D01*
X1556317Y720337D01*
Y720413D01*
X1556304Y720477D01*
Y720515D01*
Y720540D01*
Y720553D01*
Y725887D01*
X1556317Y726052D01*
X1556329Y726205D01*
X1556406Y726484D01*
X1556507Y726738D01*
X1556622Y726954D01*
X1556736Y727132D01*
X1556837Y727259D01*
X1556876Y727309D01*
X1556914Y727347D01*
X1556926Y727360D01*
X1556939Y727373D01*
X1557053Y727475D01*
X1557180Y727576D01*
X1557434Y727729D01*
X1557676Y727830D01*
X1557904Y727906D01*
X1558107Y727957D01*
X1558184Y727970D01*
X1558260D01*
X1558323Y727982D01*
X1558971D01*
X1559136Y727970D01*
D02*
G37*
G36*
X1566307Y800008D02*
X1566383Y799995D01*
X1566434Y799970D01*
X1566446Y799957D01*
X1566523Y799906D01*
X1566573Y799868D01*
X1566624Y799817D01*
X1566637Y799805D01*
X1568542Y797887D01*
X1568593Y797836D01*
X1568631Y797773D01*
X1568669Y797671D01*
X1568694Y797595D01*
Y797582D01*
Y797570D01*
X1568682Y797506D01*
X1568669Y797430D01*
X1568618Y797328D01*
X1568567Y797252D01*
X1568542Y797239D01*
Y797227D01*
X1568478Y797176D01*
X1568415Y797138D01*
X1568313Y797100D01*
X1568224Y797074D01*
X1568199D01*
X1568136Y797087D01*
X1568072Y797100D01*
X1567970Y797150D01*
X1567907Y797201D01*
X1567881Y797227D01*
X1566777Y798319D01*
Y790889D01*
X1566764Y790800D01*
X1566751Y790737D01*
X1566700Y790623D01*
X1566662Y790559D01*
X1566637Y790534D01*
X1566523Y790470D01*
X1566421Y790432D01*
X1566332Y790419D01*
X1566307D01*
X1566167Y790432D01*
X1566053Y790483D01*
X1565989Y790521D01*
X1565964Y790534D01*
X1565913Y790584D01*
X1565888Y790648D01*
X1565837Y790762D01*
Y790813D01*
X1565824Y790851D01*
Y790877D01*
Y790889D01*
Y799474D01*
X1565849Y799640D01*
X1565888Y799767D01*
X1565926Y799843D01*
X1565951Y799868D01*
X1566002Y799919D01*
X1566053Y799957D01*
X1566142Y800008D01*
X1566192Y800021D01*
X1566218D01*
X1566307Y800008D01*
D02*
G37*
G36*
X1573736Y799919D02*
X1574003Y799855D01*
X1574232Y799767D01*
X1574422Y799665D01*
X1574587Y799563D01*
X1574701Y799474D01*
X1574778Y799411D01*
X1574790Y799398D01*
X1574803Y799386D01*
X1574905Y799284D01*
X1574981Y799170D01*
X1575121Y798941D01*
X1575209Y798712D01*
X1575286Y798509D01*
X1575324Y798319D01*
X1575336Y798166D01*
X1575349Y798116D01*
Y798077D01*
Y798052D01*
Y798039D01*
Y792324D01*
X1575336Y792172D01*
X1575324Y792032D01*
X1575260Y791778D01*
X1575171Y791537D01*
X1575070Y791347D01*
X1574968Y791181D01*
X1574879Y791067D01*
X1574816Y790991D01*
X1574790Y790978D01*
Y790965D01*
X1574689Y790864D01*
X1574574Y790788D01*
X1574346Y790648D01*
X1574117Y790559D01*
X1573914Y790483D01*
X1573736Y790445D01*
X1573584Y790432D01*
X1573533Y790419D01*
X1571069D01*
X1570980Y790432D01*
X1570917Y790445D01*
X1570802Y790496D01*
X1570739Y790546D01*
X1570714Y790572D01*
X1570650Y790686D01*
X1570612Y790788D01*
X1570599Y790864D01*
Y790877D01*
Y790889D01*
Y790953D01*
X1570625Y791016D01*
X1570663Y791118D01*
X1570714Y791194D01*
X1570726Y791207D01*
X1570739Y791219D01*
X1570790Y791270D01*
X1570853Y791308D01*
X1570955Y791359D01*
X1571031Y791372D01*
X1573457D01*
X1573584Y791385D01*
X1573698Y791410D01*
X1573749D01*
X1573787Y791423D01*
X1573812Y791435D01*
X1573825D01*
X1573939Y791499D01*
X1574041Y791562D01*
X1574104Y791613D01*
X1574117Y791639D01*
X1574130D01*
X1574219Y791753D01*
X1574282Y791867D01*
X1574333Y791982D01*
X1574359Y792083D01*
X1574384Y792185D01*
X1574397Y792261D01*
Y792312D01*
Y792324D01*
Y798039D01*
X1574384Y798179D01*
X1574359Y798293D01*
X1574346Y798370D01*
X1574333Y798382D01*
Y798395D01*
X1574270Y798522D01*
X1574206Y798624D01*
X1574155Y798687D01*
X1574130Y798712D01*
X1574016Y798801D01*
X1573901Y798878D01*
X1573800Y798928D01*
X1573685Y798954D01*
X1573596Y798979D01*
X1573520Y798992D01*
X1571069D01*
X1570980Y799005D01*
X1570917Y799017D01*
X1570802Y799068D01*
X1570739Y799119D01*
X1570714Y799144D01*
X1570650Y799259D01*
X1570612Y799360D01*
X1570599Y799436D01*
Y799449D01*
Y799462D01*
Y799525D01*
X1570625Y799589D01*
X1570663Y799690D01*
X1570714Y799767D01*
X1570726Y799779D01*
X1570739Y799792D01*
X1570790Y799843D01*
X1570853Y799881D01*
X1570955Y799932D01*
X1571031Y799944D01*
X1573596D01*
X1573736Y799919D01*
D02*
G37*
G36*
X1561277Y799932D02*
X1561468Y799906D01*
X1561658Y799881D01*
X1561824Y799830D01*
X1562128Y799703D01*
X1562255Y799640D01*
X1562382Y799576D01*
X1562484Y799500D01*
X1562586Y799436D01*
X1562662Y799373D01*
X1562725Y799309D01*
X1562789Y799259D01*
X1562827Y799233D01*
X1562840Y799208D01*
X1562852Y799195D01*
X1562954Y799068D01*
X1563043Y798928D01*
X1563195Y798649D01*
X1563297Y798370D01*
X1563360Y798116D01*
X1563411Y797900D01*
X1563424Y797798D01*
Y797722D01*
X1563436Y797646D01*
Y797595D01*
Y797570D01*
Y797557D01*
X1563424Y797354D01*
X1563398Y797176D01*
X1563373Y796998D01*
X1563335Y796846D01*
X1563297Y796719D01*
X1563259Y796617D01*
X1563246Y796553D01*
X1563233Y796528D01*
X1563144Y796350D01*
X1563043Y796198D01*
X1562954Y796058D01*
X1562852Y795944D01*
X1562763Y795842D01*
X1562700Y795779D01*
X1562649Y795728D01*
X1562636Y795715D01*
X1562865Y795563D01*
X1563068Y795385D01*
X1563233Y795207D01*
X1563373Y795042D01*
X1563475Y794902D01*
X1563551Y794775D01*
X1563602Y794699D01*
X1563614Y794687D01*
Y794674D01*
X1563716Y794433D01*
X1563792Y794179D01*
X1563843Y793950D01*
X1563881Y793734D01*
X1563906Y793544D01*
X1563919Y793404D01*
Y793353D01*
Y793315D01*
Y793290D01*
Y793277D01*
X1563906Y793061D01*
X1563894Y792858D01*
X1563805Y792464D01*
X1563690Y792134D01*
X1563627Y791982D01*
X1563564Y791842D01*
X1563500Y791715D01*
X1563436Y791613D01*
X1563373Y791512D01*
X1563322Y791435D01*
X1563271Y791372D01*
X1563233Y791334D01*
X1563221Y791308D01*
X1563208Y791296D01*
X1563056Y791143D01*
X1562890Y791004D01*
X1562713Y790889D01*
X1562535Y790788D01*
X1562357Y790699D01*
X1562179Y790635D01*
X1562001Y790572D01*
X1561836Y790534D01*
X1561684Y790496D01*
X1561544Y790470D01*
X1561405Y790445D01*
X1561290Y790432D01*
X1561201Y790419D01*
X1561074D01*
X1560820Y790432D01*
X1560592Y790458D01*
X1560376Y790496D01*
X1560160Y790559D01*
X1559969Y790623D01*
X1559792Y790699D01*
X1559639Y790788D01*
X1559487Y790864D01*
X1559360Y790953D01*
X1559245Y791029D01*
X1559157Y791105D01*
X1559068Y791169D01*
X1559004Y791232D01*
X1558966Y791270D01*
X1558941Y791296D01*
X1558928Y791308D01*
X1558801Y791473D01*
X1558687Y791639D01*
X1558598Y791804D01*
X1558509Y791969D01*
X1558433Y792134D01*
X1558382Y792299D01*
X1558293Y792604D01*
X1558268Y792744D01*
X1558242Y792870D01*
X1558230Y792985D01*
X1558217Y793086D01*
X1558204Y793163D01*
Y793226D01*
Y793264D01*
Y793277D01*
X1558217Y793556D01*
X1558255Y793810D01*
X1558306Y794052D01*
X1558369Y794255D01*
X1558433Y794433D01*
X1558483Y794560D01*
X1558509Y794610D01*
X1558522Y794649D01*
X1558534Y794661D01*
Y794674D01*
X1558674Y794902D01*
X1558826Y795118D01*
X1558979Y795296D01*
X1559144Y795436D01*
X1559284Y795550D01*
X1559398Y795639D01*
X1559474Y795690D01*
X1559487Y795703D01*
X1559500D01*
X1559360Y795842D01*
X1559233Y795982D01*
X1559131Y796109D01*
X1559042Y796249D01*
X1558979Y796363D01*
X1558928Y796452D01*
X1558903Y796503D01*
X1558890Y796528D01*
X1558826Y796719D01*
X1558776Y796896D01*
X1558737Y797074D01*
X1558712Y797227D01*
X1558699Y797366D01*
X1558687Y797468D01*
Y797531D01*
Y797557D01*
X1558699Y797735D01*
X1558712Y797900D01*
X1558776Y798217D01*
X1558877Y798497D01*
X1558992Y798738D01*
X1559106Y798928D01*
X1559157Y799005D01*
X1559195Y799081D01*
X1559245Y799132D01*
X1559271Y799170D01*
X1559284Y799182D01*
X1559296Y799195D01*
X1559423Y799322D01*
X1559563Y799449D01*
X1559715Y799538D01*
X1559855Y799627D01*
X1560007Y799703D01*
X1560160Y799767D01*
X1560439Y799855D01*
X1560693Y799906D01*
X1560795Y799919D01*
X1560896Y799932D01*
X1560973Y799944D01*
X1561074D01*
X1561277Y799932D01*
D02*
G37*
G36*
X1564886Y754008D02*
X1564962Y753995D01*
X1565013Y753970D01*
X1565026Y753957D01*
X1565102Y753906D01*
X1565153Y753868D01*
X1565204Y753817D01*
X1565216Y753805D01*
X1567121Y751887D01*
X1567172Y751836D01*
X1567210Y751773D01*
X1567248Y751671D01*
X1567274Y751595D01*
Y751582D01*
Y751570D01*
X1567261Y751506D01*
X1567248Y751430D01*
X1567197Y751328D01*
X1567147Y751252D01*
X1567121Y751239D01*
Y751227D01*
X1567058Y751176D01*
X1566994Y751138D01*
X1566893Y751100D01*
X1566804Y751074D01*
X1566778D01*
X1566715Y751087D01*
X1566651Y751100D01*
X1566550Y751150D01*
X1566486Y751201D01*
X1566461Y751227D01*
X1565356Y752319D01*
Y744889D01*
X1565343Y744800D01*
X1565331Y744737D01*
X1565280Y744623D01*
X1565242Y744559D01*
X1565216Y744534D01*
X1565102Y744470D01*
X1565000Y744432D01*
X1564911Y744419D01*
X1564886D01*
X1564746Y744432D01*
X1564632Y744483D01*
X1564568Y744521D01*
X1564543Y744534D01*
X1564492Y744585D01*
X1564467Y744648D01*
X1564416Y744762D01*
Y744813D01*
X1564403Y744851D01*
Y744877D01*
Y744889D01*
Y753475D01*
X1564429Y753640D01*
X1564467Y753767D01*
X1564505Y753843D01*
X1564530Y753868D01*
X1564581Y753919D01*
X1564632Y753957D01*
X1564721Y754008D01*
X1564772Y754021D01*
X1564797D01*
X1564886Y754008D01*
D02*
G37*
G36*
X1572316Y753919D02*
X1572582Y753856D01*
X1572811Y753767D01*
X1573001Y753665D01*
X1573166Y753563D01*
X1573281Y753475D01*
X1573357Y753411D01*
X1573370Y753398D01*
X1573382Y753386D01*
X1573484Y753284D01*
X1573560Y753170D01*
X1573700Y752941D01*
X1573789Y752712D01*
X1573865Y752509D01*
X1573903Y752319D01*
X1573916Y752166D01*
X1573928Y752116D01*
Y752077D01*
Y752052D01*
Y752039D01*
Y746324D01*
X1573916Y746172D01*
X1573903Y746032D01*
X1573840Y745778D01*
X1573751Y745537D01*
X1573649Y745347D01*
X1573547Y745181D01*
X1573459Y745067D01*
X1573395Y744991D01*
X1573370Y744978D01*
Y744966D01*
X1573268Y744864D01*
X1573154Y744788D01*
X1572925Y744648D01*
X1572697Y744559D01*
X1572493Y744483D01*
X1572316Y744445D01*
X1572163Y744432D01*
X1572112Y744419D01*
X1569648D01*
X1569560Y744432D01*
X1569496Y744445D01*
X1569382Y744496D01*
X1569318Y744546D01*
X1569293Y744572D01*
X1569229Y744686D01*
X1569191Y744788D01*
X1569179Y744864D01*
Y744877D01*
Y744889D01*
Y744953D01*
X1569204Y745016D01*
X1569242Y745118D01*
X1569293Y745194D01*
X1569306Y745207D01*
X1569318Y745219D01*
X1569369Y745270D01*
X1569433Y745308D01*
X1569534Y745359D01*
X1569610Y745372D01*
X1572036D01*
X1572163Y745385D01*
X1572277Y745410D01*
X1572328D01*
X1572366Y745423D01*
X1572392Y745435D01*
X1572404D01*
X1572519Y745499D01*
X1572620Y745562D01*
X1572684Y745613D01*
X1572697Y745639D01*
X1572709D01*
X1572798Y745753D01*
X1572862Y745867D01*
X1572912Y745982D01*
X1572938Y746083D01*
X1572963Y746185D01*
X1572976Y746261D01*
Y746312D01*
Y746324D01*
Y752039D01*
X1572963Y752179D01*
X1572938Y752293D01*
X1572925Y752370D01*
X1572912Y752382D01*
Y752395D01*
X1572849Y752522D01*
X1572785Y752624D01*
X1572735Y752687D01*
X1572709Y752712D01*
X1572595Y752801D01*
X1572481Y752878D01*
X1572379Y752928D01*
X1572265Y752954D01*
X1572176Y752979D01*
X1572100Y752992D01*
X1569648D01*
X1569560Y753005D01*
X1569496Y753017D01*
X1569382Y753068D01*
X1569318Y753119D01*
X1569293Y753144D01*
X1569229Y753259D01*
X1569191Y753360D01*
X1569179Y753436D01*
Y753449D01*
Y753462D01*
Y753525D01*
X1569204Y753589D01*
X1569242Y753690D01*
X1569293Y753767D01*
X1569306Y753779D01*
X1569318Y753792D01*
X1569369Y753843D01*
X1569433Y753881D01*
X1569534Y753932D01*
X1569610Y753944D01*
X1572176D01*
X1572316Y753919D01*
D02*
G37*
G36*
X1559349Y753894D02*
X1559679Y753728D01*
X1559984Y753563D01*
X1560251Y753373D01*
X1560492Y753195D01*
X1560682Y753043D01*
X1560759Y752979D01*
X1560822Y752916D01*
X1560885Y752865D01*
X1560924Y752827D01*
X1560936Y752814D01*
X1560949Y752801D01*
X1561190Y752535D01*
X1561406Y752268D01*
X1561584Y752014D01*
X1561724Y751773D01*
X1561838Y751570D01*
X1561889Y751481D01*
X1561927Y751404D01*
X1561952Y751354D01*
X1561978Y751303D01*
X1561990Y751277D01*
Y751265D01*
X1562155Y750807D01*
X1562283Y750350D01*
X1562371Y749919D01*
X1562410Y749715D01*
X1562435Y749525D01*
X1562460Y749347D01*
X1562473Y749195D01*
X1562486Y749055D01*
Y748928D01*
X1562498Y748826D01*
Y748763D01*
Y748712D01*
Y748699D01*
Y746312D01*
X1562486Y746159D01*
X1562473Y746020D01*
X1562410Y745766D01*
X1562321Y745537D01*
X1562219Y745334D01*
X1562117Y745181D01*
X1562029Y745067D01*
X1561965Y744991D01*
X1561940Y744978D01*
Y744966D01*
X1561825Y744864D01*
X1561711Y744788D01*
X1561482Y744648D01*
X1561266Y744559D01*
X1561051Y744483D01*
X1560873Y744445D01*
X1560720Y744432D01*
X1560670Y744419D01*
X1559641D01*
X1559501Y744432D01*
X1559362Y744445D01*
X1559095Y744508D01*
X1558866Y744597D01*
X1558676Y744699D01*
X1558511Y744800D01*
X1558396Y744889D01*
X1558320Y744953D01*
X1558295Y744978D01*
X1558193Y745080D01*
X1558104Y745194D01*
X1557977Y745423D01*
X1557876Y745651D01*
X1557799Y745867D01*
X1557761Y746045D01*
X1557749Y746197D01*
X1557736Y746248D01*
Y746286D01*
Y746312D01*
Y746324D01*
Y748229D01*
Y748369D01*
X1557761Y748509D01*
X1557825Y748775D01*
X1557914Y749004D01*
X1558015Y749195D01*
X1558130Y749360D01*
X1558219Y749474D01*
X1558282Y749550D01*
X1558295Y749576D01*
X1558307D01*
X1558409Y749677D01*
X1558523Y749766D01*
X1558752Y749893D01*
X1558981Y749995D01*
X1559184Y750071D01*
X1559362Y750109D01*
X1559514Y750122D01*
X1559565Y750134D01*
X1561368D01*
X1561254Y750515D01*
X1561114Y750896D01*
X1560987Y751163D01*
X1560860Y751404D01*
X1560720Y751620D01*
X1560581Y751798D01*
X1560454Y751951D01*
X1560352Y752065D01*
X1560289Y752141D01*
X1560263Y752166D01*
X1560035Y752370D01*
X1559946Y752446D01*
X1559844Y752522D01*
X1559781Y752586D01*
X1559717Y752624D01*
X1559679Y752649D01*
X1559666Y752662D01*
X1559539Y752751D01*
X1559438Y752814D01*
X1559362Y752852D01*
X1559349Y752865D01*
X1559336D01*
X1559222Y752916D01*
X1559108Y752967D01*
X1559019Y753005D01*
X1559006Y753017D01*
X1558993D01*
X1558879Y753093D01*
X1558815Y753157D01*
X1558777Y753195D01*
X1558765Y753208D01*
X1558727Y753284D01*
X1558714Y753360D01*
X1558701Y753411D01*
Y753436D01*
X1558714Y753576D01*
X1558752Y753690D01*
X1558803Y753767D01*
X1558815Y753779D01*
Y753792D01*
X1558879Y753843D01*
X1558930Y753881D01*
X1559031Y753932D01*
X1559120Y753944D01*
X1559146D01*
X1559349Y753894D01*
D02*
G37*
%LPC*%
G36*
X1595149Y443758D02*
X1595020D01*
X1594705Y443740D01*
X1594409Y443666D01*
X1594168Y443573D01*
X1593983Y443462D01*
X1593816Y443332D01*
X1593705Y443240D01*
X1593631Y443166D01*
X1593613Y443147D01*
X1593446Y442943D01*
X1593335Y442721D01*
X1593242Y442518D01*
X1593187Y442314D01*
X1593150Y442129D01*
X1593131Y441999D01*
Y441906D01*
Y441869D01*
X1593150Y441592D01*
X1593205Y441351D01*
X1593279Y441129D01*
X1593372Y440944D01*
X1593464Y440777D01*
X1593539Y440666D01*
X1593594Y440592D01*
X1593613Y440573D01*
X1593835Y440370D01*
X1594057Y440240D01*
X1594298Y440129D01*
X1594520Y440055D01*
X1594724Y440018D01*
X1594872Y439999D01*
X1594983Y439981D01*
X1595020D01*
X1595335Y439999D01*
X1595631Y440073D01*
X1595872Y440166D01*
X1596057Y440277D01*
X1596223Y440388D01*
X1596335Y440481D01*
X1596409Y440555D01*
X1596427Y440573D01*
X1596575Y440777D01*
X1596686Y440999D01*
X1596779Y441203D01*
X1596834Y441425D01*
X1596871Y441592D01*
X1596890Y441740D01*
Y441832D01*
Y441869D01*
X1596871Y442129D01*
X1596816Y442388D01*
X1596742Y442592D01*
X1596649Y442795D01*
X1596575Y442943D01*
X1596501Y443055D01*
X1596446Y443129D01*
X1596427Y443147D01*
X1596205Y443351D01*
X1595964Y443499D01*
X1595724Y443610D01*
X1595501Y443684D01*
X1595316Y443721D01*
X1595149Y443758D01*
D02*
G37*
G36*
X1595131Y438740D02*
X1594798D01*
X1594594Y438703D01*
X1594224Y438610D01*
X1593909Y438481D01*
X1593631Y438351D01*
X1593409Y438203D01*
X1593261Y438074D01*
X1593168Y437981D01*
X1593131Y437962D01*
Y437944D01*
X1592927Y437666D01*
X1592761Y437370D01*
X1592650Y437092D01*
X1592576Y436814D01*
X1592539Y436592D01*
X1592502Y436407D01*
Y436333D01*
Y436277D01*
Y436259D01*
Y436240D01*
X1592520Y435870D01*
X1592594Y435537D01*
X1592705Y435241D01*
X1592816Y434981D01*
X1592927Y434777D01*
X1593038Y434629D01*
X1593113Y434537D01*
X1593131Y434500D01*
X1593409Y434241D01*
X1593724Y434055D01*
X1594038Y433926D01*
X1594335Y433833D01*
X1594612Y433778D01*
X1594816Y433759D01*
X1594909Y433741D01*
X1595020D01*
X1595427Y433778D01*
X1595797Y433870D01*
X1596131Y433981D01*
X1596409Y434129D01*
X1596612Y434278D01*
X1596779Y434389D01*
X1596871Y434481D01*
X1596909Y434518D01*
X1597112Y434796D01*
X1597260Y435092D01*
X1597371Y435370D01*
X1597446Y435648D01*
X1597482Y435888D01*
X1597501Y436074D01*
X1597520Y436148D01*
Y436203D01*
Y436222D01*
Y436240D01*
X1597501Y436611D01*
X1597427Y436926D01*
X1597334Y437222D01*
X1597205Y437481D01*
X1597094Y437685D01*
X1597001Y437833D01*
X1596927Y437925D01*
X1596909Y437962D01*
X1596631Y438222D01*
X1596316Y438407D01*
X1596001Y438555D01*
X1595705Y438647D01*
X1595427Y438703D01*
X1595224Y438722D01*
X1595131Y438740D01*
D02*
G37*
G36*
X1465186Y186258D02*
X1465057D01*
X1464742Y186240D01*
X1464446Y186166D01*
X1464205Y186073D01*
X1464020Y185962D01*
X1463853Y185832D01*
X1463742Y185740D01*
X1463668Y185666D01*
X1463650Y185647D01*
X1463483Y185443D01*
X1463372Y185221D01*
X1463279Y185018D01*
X1463224Y184814D01*
X1463187Y184629D01*
X1463168Y184499D01*
Y184406D01*
Y184369D01*
X1463187Y184092D01*
X1463242Y183851D01*
X1463316Y183629D01*
X1463409Y183444D01*
X1463501Y183277D01*
X1463575Y183166D01*
X1463631Y183092D01*
X1463650Y183073D01*
X1463872Y182870D01*
X1464094Y182740D01*
X1464335Y182629D01*
X1464557Y182555D01*
X1464761Y182518D01*
X1464909Y182499D01*
X1465020Y182481D01*
X1465057D01*
X1465372Y182499D01*
X1465668Y182573D01*
X1465909Y182666D01*
X1466094Y182777D01*
X1466260Y182888D01*
X1466371Y182981D01*
X1466446Y183055D01*
X1466464Y183073D01*
X1466612Y183277D01*
X1466723Y183499D01*
X1466816Y183703D01*
X1466871Y183925D01*
X1466909Y184092D01*
X1466927Y184240D01*
Y184332D01*
Y184369D01*
X1466909Y184629D01*
X1466853Y184888D01*
X1466779Y185092D01*
X1466686Y185295D01*
X1466612Y185443D01*
X1466538Y185555D01*
X1466483Y185629D01*
X1466464Y185647D01*
X1466242Y185851D01*
X1466001Y185999D01*
X1465760Y186110D01*
X1465538Y186184D01*
X1465353Y186221D01*
X1465186Y186258D01*
D02*
G37*
G36*
X1465168Y181240D02*
X1464835D01*
X1464631Y181203D01*
X1464261Y181110D01*
X1463946Y180981D01*
X1463668Y180851D01*
X1463446Y180703D01*
X1463298Y180574D01*
X1463205Y180481D01*
X1463168Y180462D01*
Y180444D01*
X1462964Y180166D01*
X1462798Y179870D01*
X1462687Y179592D01*
X1462613Y179314D01*
X1462576Y179092D01*
X1462539Y178907D01*
Y178833D01*
Y178777D01*
Y178759D01*
Y178740D01*
X1462557Y178370D01*
X1462631Y178037D01*
X1462742Y177740D01*
X1462853Y177481D01*
X1462964Y177278D01*
X1463076Y177129D01*
X1463150Y177037D01*
X1463168Y177000D01*
X1463446Y176741D01*
X1463761Y176555D01*
X1464075Y176426D01*
X1464372Y176333D01*
X1464650Y176278D01*
X1464853Y176259D01*
X1464946Y176241D01*
X1465057D01*
X1465464Y176278D01*
X1465835Y176370D01*
X1466168Y176481D01*
X1466446Y176630D01*
X1466649Y176778D01*
X1466816Y176889D01*
X1466909Y176981D01*
X1466945Y177018D01*
X1467149Y177296D01*
X1467297Y177592D01*
X1467408Y177870D01*
X1467482Y178148D01*
X1467520Y178389D01*
X1467538Y178574D01*
X1467557Y178648D01*
Y178703D01*
Y178722D01*
Y178740D01*
X1467538Y179111D01*
X1467464Y179426D01*
X1467371Y179722D01*
X1467242Y179981D01*
X1467131Y180185D01*
X1467038Y180333D01*
X1466964Y180425D01*
X1466945Y180462D01*
X1466668Y180722D01*
X1466353Y180907D01*
X1466038Y181055D01*
X1465742Y181147D01*
X1465464Y181203D01*
X1465260Y181222D01*
X1465168Y181240D01*
D02*
G37*
G36*
X1557501Y1068644D02*
X1555020D01*
X1554834Y1068625D01*
X1554649Y1068588D01*
X1554501Y1068533D01*
X1554371Y1068459D01*
X1554279Y1068385D01*
X1554186Y1068329D01*
X1554149Y1068292D01*
X1554131Y1068274D01*
X1554001Y1068125D01*
X1553909Y1067977D01*
X1553853Y1067829D01*
X1553797Y1067700D01*
X1553779Y1067570D01*
X1553760Y1067477D01*
Y1067403D01*
Y1067385D01*
Y1064885D01*
X1553779Y1064681D01*
X1553816Y1064515D01*
X1553871Y1064348D01*
X1553946Y1064218D01*
X1554020Y1064126D01*
X1554075Y1064033D01*
X1554112Y1063996D01*
X1554131Y1063978D01*
X1554279Y1063867D01*
X1554427Y1063793D01*
X1554575Y1063718D01*
X1554705Y1063681D01*
X1554834Y1063663D01*
X1554927Y1063644D01*
X1556279D01*
X1556445Y1063663D01*
X1556593Y1063681D01*
X1556723Y1063700D01*
X1556742Y1063718D01*
X1556760D01*
X1556908Y1063811D01*
X1557038Y1063904D01*
X1557130Y1063978D01*
X1557168Y1063996D01*
X1557279Y1064144D01*
X1557371Y1064293D01*
X1557427Y1064441D01*
X1557482Y1064589D01*
X1557501Y1064700D01*
X1557519Y1064792D01*
Y1064866D01*
Y1064885D01*
Y1068014D01*
X1557501Y1068644D01*
D02*
G37*
G36*
X1117686Y183758D02*
X1117557D01*
X1117242Y183740D01*
X1116946Y183666D01*
X1116705Y183573D01*
X1116520Y183462D01*
X1116353Y183332D01*
X1116242Y183240D01*
X1116168Y183166D01*
X1116150Y183147D01*
X1115983Y182943D01*
X1115872Y182721D01*
X1115779Y182518D01*
X1115724Y182314D01*
X1115687Y182129D01*
X1115668Y181999D01*
Y181906D01*
Y181869D01*
X1115687Y181592D01*
X1115742Y181351D01*
X1115816Y181129D01*
X1115909Y180944D01*
X1116002Y180777D01*
X1116076Y180666D01*
X1116131Y180592D01*
X1116150Y180573D01*
X1116372Y180370D01*
X1116594Y180240D01*
X1116835Y180129D01*
X1117057Y180055D01*
X1117261Y180018D01*
X1117409Y179999D01*
X1117520Y179981D01*
X1117557D01*
X1117872Y179999D01*
X1118168Y180073D01*
X1118409Y180166D01*
X1118594Y180277D01*
X1118760Y180388D01*
X1118872Y180481D01*
X1118946Y180555D01*
X1118964Y180573D01*
X1119112Y180777D01*
X1119223Y180999D01*
X1119316Y181203D01*
X1119371Y181425D01*
X1119408Y181592D01*
X1119427Y181740D01*
Y181832D01*
Y181869D01*
X1119408Y182129D01*
X1119353Y182388D01*
X1119279Y182592D01*
X1119186Y182795D01*
X1119112Y182943D01*
X1119038Y183055D01*
X1118983Y183129D01*
X1118964Y183147D01*
X1118742Y183351D01*
X1118501Y183499D01*
X1118260Y183610D01*
X1118038Y183684D01*
X1117853Y183721D01*
X1117686Y183758D01*
D02*
G37*
G36*
X1117668Y178740D02*
X1117335D01*
X1117131Y178703D01*
X1116761Y178610D01*
X1116446Y178481D01*
X1116168Y178351D01*
X1115946Y178203D01*
X1115798Y178074D01*
X1115705Y177981D01*
X1115668Y177962D01*
Y177944D01*
X1115464Y177666D01*
X1115298Y177370D01*
X1115187Y177092D01*
X1115113Y176814D01*
X1115076Y176592D01*
X1115039Y176407D01*
Y176333D01*
Y176277D01*
Y176259D01*
Y176240D01*
X1115057Y175870D01*
X1115131Y175537D01*
X1115242Y175240D01*
X1115353Y174981D01*
X1115464Y174778D01*
X1115576Y174629D01*
X1115650Y174537D01*
X1115668Y174500D01*
X1115946Y174241D01*
X1116261Y174055D01*
X1116575Y173926D01*
X1116872Y173833D01*
X1117150Y173778D01*
X1117353Y173759D01*
X1117446Y173741D01*
X1117557D01*
X1117964Y173778D01*
X1118335Y173870D01*
X1118668Y173981D01*
X1118946Y174130D01*
X1119149Y174278D01*
X1119316Y174389D01*
X1119408Y174481D01*
X1119445Y174518D01*
X1119649Y174796D01*
X1119797Y175092D01*
X1119909Y175370D01*
X1119983Y175648D01*
X1120020Y175889D01*
X1120038Y176074D01*
X1120057Y176148D01*
Y176203D01*
Y176222D01*
Y176240D01*
X1120038Y176611D01*
X1119964Y176926D01*
X1119871Y177222D01*
X1119742Y177481D01*
X1119631Y177685D01*
X1119538Y177833D01*
X1119464Y177925D01*
X1119445Y177962D01*
X1119168Y178222D01*
X1118853Y178407D01*
X1118538Y178555D01*
X1118242Y178647D01*
X1117964Y178703D01*
X1117760Y178722D01*
X1117668Y178740D01*
D02*
G37*
G36*
X1117649Y236258D02*
X1117520D01*
X1117205Y236240D01*
X1116909Y236166D01*
X1116668Y236073D01*
X1116483Y235962D01*
X1116316Y235832D01*
X1116205Y235740D01*
X1116131Y235666D01*
X1116113Y235647D01*
X1115946Y235443D01*
X1115835Y235221D01*
X1115742Y235018D01*
X1115687Y234814D01*
X1115650Y234629D01*
X1115631Y234499D01*
Y234406D01*
Y234369D01*
X1115650Y234092D01*
X1115705Y233851D01*
X1115779Y233629D01*
X1115872Y233444D01*
X1115964Y233277D01*
X1116039Y233166D01*
X1116094Y233092D01*
X1116113Y233073D01*
X1116335Y232870D01*
X1116557Y232740D01*
X1116798Y232629D01*
X1117020Y232555D01*
X1117224Y232518D01*
X1117372Y232499D01*
X1117483Y232481D01*
X1117520D01*
X1117835Y232499D01*
X1118131Y232573D01*
X1118372Y232666D01*
X1118557Y232777D01*
X1118723Y232888D01*
X1118835Y232981D01*
X1118909Y233055D01*
X1118927Y233073D01*
X1119075Y233277D01*
X1119186Y233499D01*
X1119279Y233703D01*
X1119334Y233925D01*
X1119371Y234092D01*
X1119390Y234240D01*
Y234332D01*
Y234369D01*
X1119371Y234629D01*
X1119316Y234888D01*
X1119242Y235092D01*
X1119149Y235295D01*
X1119075Y235443D01*
X1119001Y235555D01*
X1118946Y235629D01*
X1118927Y235647D01*
X1118705Y235851D01*
X1118464Y235999D01*
X1118223Y236110D01*
X1118001Y236184D01*
X1117816Y236221D01*
X1117649Y236258D01*
D02*
G37*
G36*
X1117631Y231240D02*
X1117298D01*
X1117094Y231203D01*
X1116724Y231110D01*
X1116409Y230981D01*
X1116131Y230851D01*
X1115909Y230703D01*
X1115761Y230574D01*
X1115668Y230481D01*
X1115631Y230462D01*
Y230444D01*
X1115427Y230166D01*
X1115261Y229870D01*
X1115150Y229592D01*
X1115076Y229314D01*
X1115039Y229092D01*
X1115002Y228907D01*
Y228833D01*
Y228777D01*
Y228759D01*
Y228740D01*
X1115020Y228370D01*
X1115094Y228037D01*
X1115205Y227740D01*
X1115316Y227481D01*
X1115427Y227278D01*
X1115538Y227129D01*
X1115613Y227037D01*
X1115631Y227000D01*
X1115909Y226741D01*
X1116224Y226555D01*
X1116538Y226426D01*
X1116835Y226333D01*
X1117112Y226278D01*
X1117316Y226259D01*
X1117409Y226241D01*
X1117520D01*
X1117927Y226278D01*
X1118298Y226370D01*
X1118631Y226481D01*
X1118909Y226630D01*
X1119112Y226778D01*
X1119279Y226889D01*
X1119371Y226981D01*
X1119408Y227018D01*
X1119612Y227296D01*
X1119760Y227592D01*
X1119871Y227870D01*
X1119946Y228148D01*
X1119983Y228389D01*
X1120001Y228574D01*
X1120020Y228648D01*
Y228703D01*
Y228722D01*
Y228740D01*
X1120001Y229111D01*
X1119927Y229426D01*
X1119834Y229722D01*
X1119705Y229981D01*
X1119594Y230185D01*
X1119501Y230333D01*
X1119427Y230425D01*
X1119408Y230462D01*
X1119131Y230722D01*
X1118816Y230907D01*
X1118501Y231055D01*
X1118205Y231147D01*
X1117927Y231203D01*
X1117723Y231222D01*
X1117631Y231240D01*
D02*
G37*
G36*
X1540186Y606258D02*
X1540057D01*
X1539742Y606240D01*
X1539446Y606166D01*
X1539205Y606073D01*
X1539020Y605962D01*
X1538853Y605832D01*
X1538742Y605740D01*
X1538668Y605666D01*
X1538650Y605647D01*
X1538483Y605443D01*
X1538372Y605221D01*
X1538279Y605018D01*
X1538224Y604814D01*
X1538187Y604629D01*
X1538168Y604499D01*
Y604406D01*
Y604369D01*
X1538187Y604092D01*
X1538242Y603851D01*
X1538316Y603629D01*
X1538409Y603444D01*
X1538501Y603277D01*
X1538575Y603166D01*
X1538631Y603092D01*
X1538650Y603073D01*
X1538872Y602870D01*
X1539094Y602740D01*
X1539335Y602629D01*
X1539557Y602555D01*
X1539761Y602518D01*
X1539909Y602499D01*
X1540020Y602481D01*
X1540057D01*
X1540372Y602499D01*
X1540668Y602573D01*
X1540909Y602666D01*
X1541094Y602777D01*
X1541260Y602888D01*
X1541371Y602981D01*
X1541446Y603055D01*
X1541464Y603073D01*
X1541612Y603277D01*
X1541723Y603499D01*
X1541816Y603703D01*
X1541871Y603925D01*
X1541909Y604092D01*
X1541927Y604240D01*
Y604332D01*
Y604369D01*
X1541909Y604629D01*
X1541853Y604888D01*
X1541779Y605092D01*
X1541686Y605295D01*
X1541612Y605443D01*
X1541538Y605555D01*
X1541483Y605629D01*
X1541464Y605647D01*
X1541242Y605851D01*
X1541001Y605999D01*
X1540760Y606110D01*
X1540538Y606184D01*
X1540353Y606221D01*
X1540186Y606258D01*
D02*
G37*
G36*
X1540168Y601240D02*
X1539835D01*
X1539631Y601203D01*
X1539261Y601110D01*
X1538946Y600981D01*
X1538668Y600851D01*
X1538446Y600703D01*
X1538298Y600574D01*
X1538205Y600481D01*
X1538168Y600462D01*
Y600444D01*
X1537964Y600166D01*
X1537798Y599870D01*
X1537687Y599592D01*
X1537613Y599314D01*
X1537576Y599092D01*
X1537539Y598907D01*
Y598833D01*
Y598777D01*
Y598759D01*
Y598740D01*
X1537557Y598370D01*
X1537631Y598037D01*
X1537742Y597741D01*
X1537853Y597481D01*
X1537964Y597277D01*
X1538076Y597129D01*
X1538150Y597037D01*
X1538168Y597000D01*
X1538446Y596741D01*
X1538761Y596555D01*
X1539075Y596426D01*
X1539372Y596333D01*
X1539650Y596278D01*
X1539853Y596259D01*
X1539946Y596241D01*
X1540057D01*
X1540464Y596278D01*
X1540835Y596370D01*
X1541168Y596481D01*
X1541446Y596629D01*
X1541649Y596778D01*
X1541816Y596889D01*
X1541909Y596981D01*
X1541945Y597018D01*
X1542149Y597296D01*
X1542297Y597592D01*
X1542408Y597870D01*
X1542482Y598148D01*
X1542520Y598388D01*
X1542538Y598574D01*
X1542557Y598648D01*
Y598703D01*
Y598722D01*
Y598740D01*
X1542538Y599111D01*
X1542464Y599426D01*
X1542371Y599722D01*
X1542242Y599981D01*
X1542131Y600185D01*
X1542038Y600333D01*
X1541964Y600425D01*
X1541945Y600462D01*
X1541668Y600722D01*
X1541353Y600907D01*
X1541038Y601055D01*
X1540742Y601147D01*
X1540464Y601203D01*
X1540260Y601222D01*
X1540168Y601240D01*
D02*
G37*
G36*
X1739980Y621240D02*
X1739906D01*
X1739888D01*
X1737388D01*
X1737184Y621221D01*
X1737018Y621184D01*
X1736851Y621129D01*
X1736721Y621055D01*
X1736629Y620981D01*
X1736536Y620925D01*
X1736499Y620888D01*
X1736481Y620869D01*
X1736369Y620721D01*
X1736295Y620573D01*
X1736221Y620425D01*
X1736184Y620295D01*
X1736166Y620166D01*
X1736147Y620073D01*
Y618722D01*
X1736166Y618555D01*
X1736184Y618407D01*
X1736203Y618277D01*
X1736221Y618259D01*
Y618240D01*
X1736314Y618092D01*
X1736406Y617962D01*
X1736481Y617870D01*
X1736499Y617833D01*
X1736647Y617722D01*
X1736795Y617629D01*
X1736943Y617574D01*
X1737092Y617518D01*
X1737203Y617500D01*
X1737295Y617481D01*
X1737369D01*
X1737388D01*
X1740517D01*
X1741147Y617500D01*
Y619981D01*
X1741128Y620166D01*
X1741091Y620351D01*
X1741036Y620499D01*
X1740961Y620629D01*
X1740887Y620721D01*
X1740832Y620814D01*
X1740795Y620851D01*
X1740776Y620869D01*
X1740628Y620999D01*
X1740480Y621092D01*
X1740332Y621147D01*
X1740202Y621203D01*
X1740073Y621221D01*
X1739980Y621240D01*
D02*
G37*
G36*
X1744998Y612500D02*
X1744924D01*
X1744906D01*
X1741758D01*
X1741424D01*
X1741147Y612481D01*
Y609982D01*
X1741165Y609815D01*
X1741184Y609667D01*
X1741202Y609537D01*
X1741221Y609519D01*
Y609500D01*
X1741313Y609352D01*
X1741406Y609223D01*
X1741480Y609130D01*
X1741499Y609093D01*
X1741647Y608982D01*
X1741795Y608889D01*
X1741943Y608834D01*
X1742091Y608778D01*
X1742202Y608760D01*
X1742295Y608741D01*
X1742369D01*
X1742387D01*
X1744906D01*
X1745091Y608760D01*
X1745239Y608778D01*
X1745350Y608797D01*
X1745368Y608815D01*
X1745387D01*
X1745554Y608889D01*
X1745683Y608982D01*
X1745757Y609056D01*
X1745794Y609093D01*
X1745924Y609241D01*
X1746017Y609389D01*
X1746072Y609537D01*
X1746128Y609686D01*
X1746146Y609797D01*
X1746165Y609889D01*
Y611241D01*
X1746146Y611426D01*
X1746109Y611611D01*
X1746054Y611759D01*
X1745979Y611889D01*
X1745905Y611982D01*
X1745850Y612074D01*
X1745813Y612111D01*
X1745794Y612130D01*
X1745646Y612259D01*
X1745498Y612352D01*
X1745350Y612407D01*
X1745220Y612463D01*
X1745091Y612481D01*
X1744998Y612500D01*
D02*
G37*
G36*
X1744757Y603760D02*
X1744683D01*
X1744646D01*
X1737647D01*
X1737406Y603742D01*
X1737203Y603686D01*
X1737018Y603612D01*
X1736869Y603538D01*
X1736740Y603445D01*
X1736647Y603371D01*
X1736592Y603316D01*
X1736573Y603297D01*
X1736425Y603131D01*
X1736332Y602946D01*
X1736258Y602760D01*
X1736203Y602612D01*
X1736166Y602464D01*
X1736147Y602353D01*
Y601501D01*
X1736166Y601279D01*
X1736221Y601075D01*
X1736277Y600890D01*
X1736369Y600723D01*
X1736443Y600594D01*
X1736499Y600501D01*
X1736555Y600446D01*
X1736573Y600427D01*
X1736740Y600279D01*
X1736925Y600187D01*
X1737110Y600112D01*
X1737277Y600057D01*
X1737425Y600020D01*
X1737536Y600001D01*
X1737628D01*
X1737647D01*
X1744646D01*
X1744868Y600020D01*
X1745072Y600075D01*
X1745257Y600131D01*
X1745424Y600224D01*
X1745554Y600298D01*
X1745646Y600353D01*
X1745702Y600409D01*
X1745720Y600427D01*
X1745868Y600594D01*
X1745979Y600779D01*
X1746054Y600964D01*
X1746109Y601131D01*
X1746146Y601279D01*
X1746165Y601390D01*
Y602242D01*
X1746146Y602483D01*
X1746091Y602686D01*
X1746017Y602871D01*
X1745943Y603019D01*
X1745868Y603149D01*
X1745794Y603242D01*
X1745739Y603297D01*
X1745720Y603316D01*
X1745554Y603464D01*
X1745368Y603575D01*
X1745183Y603649D01*
X1745017Y603705D01*
X1744868Y603742D01*
X1744757Y603760D01*
D02*
G37*
G36*
X1515149Y548758D02*
X1515020D01*
X1514705Y548740D01*
X1514409Y548666D01*
X1514168Y548573D01*
X1513983Y548462D01*
X1513816Y548332D01*
X1513705Y548240D01*
X1513631Y548166D01*
X1513613Y548147D01*
X1513446Y547943D01*
X1513335Y547721D01*
X1513242Y547518D01*
X1513187Y547314D01*
X1513150Y547129D01*
X1513131Y546999D01*
Y546906D01*
Y546869D01*
X1513150Y546592D01*
X1513205Y546351D01*
X1513279Y546129D01*
X1513372Y545944D01*
X1513464Y545777D01*
X1513539Y545666D01*
X1513594Y545592D01*
X1513613Y545573D01*
X1513835Y545369D01*
X1514057Y545240D01*
X1514298Y545129D01*
X1514520Y545055D01*
X1514724Y545018D01*
X1514872Y544999D01*
X1514983Y544981D01*
X1515020D01*
X1515335Y544999D01*
X1515631Y545073D01*
X1515872Y545166D01*
X1516057Y545277D01*
X1516223Y545388D01*
X1516335Y545481D01*
X1516409Y545555D01*
X1516427Y545573D01*
X1516575Y545777D01*
X1516686Y545999D01*
X1516779Y546203D01*
X1516834Y546425D01*
X1516871Y546592D01*
X1516890Y546740D01*
Y546832D01*
Y546869D01*
X1516871Y547129D01*
X1516816Y547388D01*
X1516742Y547592D01*
X1516649Y547795D01*
X1516575Y547943D01*
X1516501Y548055D01*
X1516446Y548129D01*
X1516427Y548147D01*
X1516205Y548351D01*
X1515964Y548499D01*
X1515723Y548610D01*
X1515501Y548684D01*
X1515316Y548721D01*
X1515149Y548758D01*
D02*
G37*
G36*
X1515131Y543740D02*
X1514798D01*
X1514594Y543703D01*
X1514224Y543610D01*
X1513909Y543481D01*
X1513631Y543351D01*
X1513409Y543203D01*
X1513261Y543074D01*
X1513168Y542981D01*
X1513131Y542962D01*
Y542944D01*
X1512927Y542666D01*
X1512761Y542370D01*
X1512650Y542092D01*
X1512576Y541814D01*
X1512539Y541592D01*
X1512502Y541407D01*
Y541333D01*
Y541277D01*
Y541259D01*
Y541240D01*
X1512520Y540870D01*
X1512594Y540537D01*
X1512705Y540240D01*
X1512816Y539981D01*
X1512927Y539777D01*
X1513038Y539629D01*
X1513113Y539537D01*
X1513131Y539500D01*
X1513409Y539241D01*
X1513724Y539055D01*
X1514038Y538926D01*
X1514335Y538833D01*
X1514612Y538778D01*
X1514816Y538759D01*
X1514909Y538741D01*
X1515020D01*
X1515427Y538778D01*
X1515797Y538870D01*
X1516131Y538981D01*
X1516409Y539129D01*
X1516612Y539278D01*
X1516779Y539389D01*
X1516871Y539481D01*
X1516909Y539518D01*
X1517112Y539796D01*
X1517260Y540092D01*
X1517371Y540370D01*
X1517446Y540648D01*
X1517482Y540888D01*
X1517501Y541074D01*
X1517520Y541148D01*
Y541203D01*
Y541222D01*
Y541240D01*
X1517501Y541611D01*
X1517427Y541926D01*
X1517334Y542222D01*
X1517205Y542481D01*
X1517094Y542685D01*
X1517001Y542833D01*
X1516927Y542925D01*
X1516909Y542962D01*
X1516631Y543222D01*
X1516316Y543407D01*
X1516001Y543555D01*
X1515705Y543647D01*
X1515427Y543703D01*
X1515224Y543722D01*
X1515131Y543740D01*
D02*
G37*
G36*
X1437428Y573758D02*
X1436577D01*
X1436336Y573740D01*
X1436132Y573684D01*
X1435947Y573610D01*
X1435799Y573536D01*
X1435669Y573462D01*
X1435577Y573388D01*
X1435521Y573332D01*
X1435503Y573314D01*
X1435355Y573147D01*
X1435244Y572962D01*
X1435170Y572777D01*
X1435114Y572610D01*
X1435077Y572462D01*
X1435058Y572351D01*
Y572277D01*
Y572240D01*
Y565240D01*
X1435077Y565000D01*
X1435132Y564796D01*
X1435206Y564611D01*
X1435281Y564463D01*
X1435373Y564333D01*
X1435447Y564241D01*
X1435503Y564185D01*
X1435521Y564166D01*
X1435688Y564018D01*
X1435873Y563926D01*
X1436058Y563852D01*
X1436206Y563796D01*
X1436355Y563759D01*
X1436466Y563741D01*
X1437317D01*
X1437540Y563759D01*
X1437743Y563815D01*
X1437928Y563870D01*
X1438095Y563963D01*
X1438225Y564037D01*
X1438317Y564092D01*
X1438373Y564148D01*
X1438391Y564166D01*
X1438539Y564333D01*
X1438632Y564518D01*
X1438706Y564703D01*
X1438762Y564870D01*
X1438799Y565018D01*
X1438817Y565129D01*
Y565222D01*
Y565240D01*
Y572240D01*
X1438799Y572462D01*
X1438743Y572666D01*
X1438688Y572851D01*
X1438595Y573017D01*
X1438521Y573147D01*
X1438465Y573240D01*
X1438410Y573295D01*
X1438391Y573314D01*
X1438225Y573462D01*
X1438040Y573573D01*
X1437854Y573647D01*
X1437688Y573703D01*
X1437540Y573740D01*
X1437428Y573758D01*
D02*
G37*
G36*
X1428929D02*
X1427578D01*
X1427392Y573740D01*
X1427207Y573703D01*
X1427059Y573647D01*
X1426930Y573573D01*
X1426837Y573499D01*
X1426744Y573443D01*
X1426707Y573406D01*
X1426689Y573388D01*
X1426559Y573240D01*
X1426467Y573092D01*
X1426411Y572943D01*
X1426356Y572814D01*
X1426337Y572684D01*
X1426319Y572592D01*
Y572518D01*
Y572499D01*
Y569351D01*
Y569018D01*
X1426337Y568740D01*
X1428837D01*
X1429003Y568759D01*
X1429152Y568777D01*
X1429281Y568796D01*
X1429300Y568814D01*
X1429318D01*
X1429466Y568907D01*
X1429596Y568999D01*
X1429689Y569073D01*
X1429726Y569092D01*
X1429837Y569240D01*
X1429929Y569388D01*
X1429985Y569536D01*
X1430040Y569684D01*
X1430059Y569795D01*
X1430077Y569888D01*
Y569962D01*
Y569981D01*
Y572499D01*
X1430059Y572684D01*
X1430040Y572832D01*
X1430022Y572943D01*
X1430003Y572962D01*
Y572980D01*
X1429929Y573147D01*
X1429837Y573277D01*
X1429763Y573351D01*
X1429726Y573388D01*
X1429577Y573517D01*
X1429429Y573610D01*
X1429281Y573666D01*
X1429133Y573721D01*
X1429022Y573740D01*
X1428929Y573758D01*
D02*
G37*
G36*
X1421319Y568740D02*
X1418838D01*
X1418653Y568722D01*
X1418468Y568685D01*
X1418319Y568629D01*
X1418190Y568555D01*
X1418097Y568481D01*
X1418005Y568425D01*
X1417968Y568388D01*
X1417949Y568370D01*
X1417819Y568222D01*
X1417727Y568074D01*
X1417671Y567925D01*
X1417616Y567796D01*
X1417597Y567666D01*
X1417579Y567574D01*
Y567500D01*
Y567481D01*
Y564981D01*
X1417597Y564777D01*
X1417634Y564611D01*
X1417690Y564444D01*
X1417764Y564315D01*
X1417838Y564222D01*
X1417894Y564129D01*
X1417930Y564092D01*
X1417949Y564074D01*
X1418097Y563963D01*
X1418245Y563889D01*
X1418394Y563815D01*
X1418523Y563778D01*
X1418653Y563759D01*
X1418745Y563741D01*
X1420097D01*
X1420264Y563759D01*
X1420412Y563778D01*
X1420541Y563796D01*
X1420560Y563815D01*
X1420578D01*
X1420726Y563907D01*
X1420856Y564000D01*
X1420949Y564074D01*
X1420986Y564092D01*
X1421097Y564241D01*
X1421190Y564389D01*
X1421245Y564537D01*
X1421301Y564685D01*
X1421319Y564796D01*
X1421338Y564889D01*
Y564963D01*
Y564981D01*
Y568111D01*
X1421319Y568740D01*
D02*
G37*
G36*
X1427686Y963758D02*
X1427557D01*
X1427242Y963740D01*
X1426946Y963665D01*
X1426705Y963573D01*
X1426520Y963462D01*
X1426353Y963332D01*
X1426242Y963240D01*
X1426168Y963166D01*
X1426150Y963147D01*
X1425983Y962943D01*
X1425872Y962721D01*
X1425779Y962517D01*
X1425724Y962314D01*
X1425687Y962129D01*
X1425668Y961999D01*
Y961906D01*
Y961869D01*
X1425687Y961592D01*
X1425742Y961351D01*
X1425816Y961129D01*
X1425909Y960944D01*
X1426001Y960777D01*
X1426075Y960666D01*
X1426131Y960592D01*
X1426150Y960573D01*
X1426372Y960370D01*
X1426594Y960240D01*
X1426835Y960129D01*
X1427057Y960055D01*
X1427261Y960018D01*
X1427409Y959999D01*
X1427520Y959981D01*
X1427557D01*
X1427872Y959999D01*
X1428168Y960073D01*
X1428409Y960166D01*
X1428594Y960277D01*
X1428760Y960388D01*
X1428871Y960481D01*
X1428946Y960555D01*
X1428964Y960573D01*
X1429112Y960777D01*
X1429223Y960999D01*
X1429316Y961203D01*
X1429371Y961425D01*
X1429409Y961592D01*
X1429427Y961740D01*
Y961832D01*
Y961869D01*
X1429409Y962129D01*
X1429353Y962388D01*
X1429279Y962591D01*
X1429186Y962795D01*
X1429112Y962943D01*
X1429038Y963055D01*
X1428983Y963129D01*
X1428964Y963147D01*
X1428742Y963351D01*
X1428501Y963499D01*
X1428260Y963610D01*
X1428038Y963684D01*
X1427853Y963721D01*
X1427686Y963758D01*
D02*
G37*
G36*
X1427668Y958740D02*
X1427335D01*
X1427131Y958703D01*
X1426761Y958611D01*
X1426446Y958481D01*
X1426168Y958351D01*
X1425946Y958203D01*
X1425798Y958074D01*
X1425705Y957981D01*
X1425668Y957962D01*
Y957944D01*
X1425464Y957666D01*
X1425298Y957370D01*
X1425187Y957092D01*
X1425113Y956814D01*
X1425076Y956592D01*
X1425039Y956407D01*
Y956333D01*
Y956277D01*
Y956259D01*
Y956240D01*
X1425057Y955870D01*
X1425131Y955537D01*
X1425242Y955240D01*
X1425353Y954981D01*
X1425464Y954778D01*
X1425576Y954629D01*
X1425650Y954537D01*
X1425668Y954500D01*
X1425946Y954241D01*
X1426261Y954055D01*
X1426575Y953926D01*
X1426872Y953833D01*
X1427150Y953778D01*
X1427353Y953759D01*
X1427446Y953741D01*
X1427557D01*
X1427964Y953778D01*
X1428335Y953870D01*
X1428668Y953981D01*
X1428946Y954129D01*
X1429149Y954278D01*
X1429316Y954389D01*
X1429409Y954481D01*
X1429445Y954518D01*
X1429649Y954796D01*
X1429797Y955092D01*
X1429908Y955370D01*
X1429982Y955648D01*
X1430020Y955889D01*
X1430038Y956074D01*
X1430057Y956148D01*
Y956203D01*
Y956222D01*
Y956240D01*
X1430038Y956611D01*
X1429964Y956926D01*
X1429871Y957222D01*
X1429742Y957481D01*
X1429631Y957685D01*
X1429538Y957833D01*
X1429464Y957925D01*
X1429445Y957962D01*
X1429168Y958222D01*
X1428853Y958407D01*
X1428538Y958555D01*
X1428242Y958648D01*
X1427964Y958703D01*
X1427760Y958722D01*
X1427668Y958740D01*
D02*
G37*
G36*
X1335186Y266258D02*
X1335057D01*
X1334742Y266240D01*
X1334446Y266166D01*
X1334205Y266073D01*
X1334020Y265962D01*
X1333853Y265832D01*
X1333742Y265740D01*
X1333668Y265666D01*
X1333650Y265647D01*
X1333483Y265443D01*
X1333372Y265221D01*
X1333279Y265018D01*
X1333224Y264814D01*
X1333187Y264629D01*
X1333168Y264499D01*
Y264406D01*
Y264369D01*
X1333187Y264092D01*
X1333242Y263851D01*
X1333316Y263629D01*
X1333409Y263444D01*
X1333501Y263277D01*
X1333575Y263166D01*
X1333631Y263092D01*
X1333650Y263073D01*
X1333872Y262870D01*
X1334094Y262740D01*
X1334335Y262629D01*
X1334557Y262555D01*
X1334761Y262518D01*
X1334909Y262499D01*
X1335020Y262481D01*
X1335057D01*
X1335372Y262499D01*
X1335668Y262573D01*
X1335909Y262666D01*
X1336094Y262777D01*
X1336260Y262888D01*
X1336371Y262981D01*
X1336446Y263055D01*
X1336464Y263073D01*
X1336612Y263277D01*
X1336723Y263499D01*
X1336816Y263703D01*
X1336871Y263925D01*
X1336909Y264092D01*
X1336927Y264240D01*
Y264332D01*
Y264369D01*
X1336909Y264629D01*
X1336853Y264888D01*
X1336779Y265091D01*
X1336686Y265295D01*
X1336612Y265443D01*
X1336538Y265555D01*
X1336483Y265629D01*
X1336464Y265647D01*
X1336242Y265851D01*
X1336001Y265999D01*
X1335760Y266110D01*
X1335538Y266184D01*
X1335353Y266221D01*
X1335186Y266258D01*
D02*
G37*
G36*
X1335168Y261240D02*
X1334835D01*
X1334631Y261203D01*
X1334261Y261110D01*
X1333946Y260981D01*
X1333668Y260851D01*
X1333446Y260703D01*
X1333298Y260574D01*
X1333205Y260481D01*
X1333168Y260462D01*
Y260444D01*
X1332964Y260166D01*
X1332798Y259870D01*
X1332687Y259592D01*
X1332613Y259314D01*
X1332576Y259092D01*
X1332539Y258907D01*
Y258833D01*
Y258777D01*
Y258759D01*
Y258740D01*
X1332557Y258370D01*
X1332631Y258037D01*
X1332742Y257740D01*
X1332853Y257481D01*
X1332964Y257278D01*
X1333076Y257129D01*
X1333150Y257037D01*
X1333168Y257000D01*
X1333446Y256741D01*
X1333761Y256555D01*
X1334075Y256426D01*
X1334372Y256333D01*
X1334650Y256278D01*
X1334853Y256259D01*
X1334946Y256241D01*
X1335057D01*
X1335464Y256278D01*
X1335835Y256370D01*
X1336168Y256481D01*
X1336446Y256630D01*
X1336649Y256778D01*
X1336816Y256889D01*
X1336909Y256981D01*
X1336945Y257018D01*
X1337149Y257296D01*
X1337297Y257592D01*
X1337408Y257870D01*
X1337482Y258148D01*
X1337520Y258389D01*
X1337538Y258574D01*
X1337557Y258648D01*
Y258703D01*
Y258722D01*
Y258740D01*
X1337538Y259111D01*
X1337464Y259426D01*
X1337371Y259722D01*
X1337242Y259981D01*
X1337131Y260185D01*
X1337038Y260333D01*
X1336964Y260425D01*
X1336945Y260462D01*
X1336668Y260722D01*
X1336353Y260907D01*
X1336038Y261055D01*
X1335742Y261147D01*
X1335464Y261203D01*
X1335260Y261222D01*
X1335168Y261240D01*
D02*
G37*
G36*
X976262Y331258D02*
X972503D01*
X972317Y331240D01*
X972132Y331203D01*
X971984Y331147D01*
X971854Y331073D01*
X971762Y330999D01*
X971669Y330943D01*
X971632Y330906D01*
X971614Y330888D01*
X971484Y330740D01*
X971392Y330592D01*
X971336Y330443D01*
X971281Y330314D01*
X971262Y330184D01*
X971244Y330092D01*
Y330018D01*
Y329999D01*
Y322481D01*
X971262Y322277D01*
X971299Y322111D01*
X971355Y321944D01*
X971429Y321815D01*
X971503Y321722D01*
X971558Y321629D01*
X971595Y321592D01*
X971614Y321574D01*
X971762Y321463D01*
X971910Y321389D01*
X972058Y321315D01*
X972188Y321278D01*
X972317Y321259D01*
X972410Y321241D01*
X976262D01*
Y331258D01*
D02*
G37*
G36*
X1684396Y747033D02*
X1681534D01*
X1681393Y747019D01*
X1681252Y746991D01*
X1681140Y746949D01*
X1681041Y746892D01*
X1680970Y746836D01*
X1680900Y746794D01*
X1680872Y746765D01*
X1680858Y746751D01*
X1680759Y746638D01*
X1680688Y746526D01*
X1680646Y746413D01*
X1680604Y746314D01*
X1680590Y746216D01*
X1680576Y746145D01*
Y746089D01*
Y746075D01*
Y744157D01*
X1680590Y744002D01*
X1680618Y743876D01*
X1680660Y743749D01*
X1680717Y743650D01*
X1680773Y743579D01*
X1680815Y743509D01*
X1680844Y743481D01*
X1680858Y743467D01*
X1680970Y743382D01*
X1681083Y743326D01*
X1681196Y743269D01*
X1681295Y743241D01*
X1681393Y743227D01*
X1681464Y743213D01*
X1684396D01*
Y747033D01*
D02*
G37*
G36*
X1668114D02*
X1667466D01*
X1667282Y747019D01*
X1667127Y746977D01*
X1666986Y746920D01*
X1666873Y746864D01*
X1666775Y746808D01*
X1666704Y746751D01*
X1666662Y746709D01*
X1666648Y746695D01*
X1666535Y746568D01*
X1666451Y746427D01*
X1666394Y746286D01*
X1666352Y746159D01*
X1666324Y746047D01*
X1666310Y745962D01*
Y745906D01*
Y745877D01*
Y740549D01*
X1666324Y740365D01*
X1666366Y740210D01*
X1666422Y740069D01*
X1666479Y739957D01*
X1666549Y739858D01*
X1666606Y739787D01*
X1666648Y739745D01*
X1666662Y739731D01*
X1666789Y739618D01*
X1666930Y739548D01*
X1667071Y739491D01*
X1667184Y739449D01*
X1667296Y739421D01*
X1667381Y739407D01*
X1668029D01*
X1668199Y739421D01*
X1668354Y739463D01*
X1668495Y739505D01*
X1668622Y739576D01*
X1668720Y739632D01*
X1668791Y739675D01*
X1668833Y739717D01*
X1668847Y739731D01*
X1668960Y739858D01*
X1669030Y739999D01*
X1669087Y740140D01*
X1669129Y740267D01*
X1669157Y740379D01*
X1669171Y740464D01*
Y740535D01*
Y740549D01*
Y745877D01*
X1669157Y746047D01*
X1669115Y746201D01*
X1669073Y746342D01*
X1669002Y746469D01*
X1668946Y746568D01*
X1668903Y746638D01*
X1668861Y746681D01*
X1668847Y746695D01*
X1668720Y746808D01*
X1668579Y746892D01*
X1668438Y746949D01*
X1668311Y746991D01*
X1668199Y747019D01*
X1668114Y747033D01*
D02*
G37*
G36*
X1559047Y727030D02*
X1558400D01*
X1558222Y727017D01*
X1558069Y726979D01*
X1557930Y726916D01*
X1557815Y726865D01*
X1557714Y726801D01*
X1557650Y726738D01*
X1557599Y726700D01*
X1557587Y726687D01*
X1557473Y726560D01*
X1557396Y726420D01*
X1557333Y726281D01*
X1557295Y726154D01*
X1557269Y726052D01*
X1557257Y725963D01*
Y725912D01*
Y725887D01*
Y720553D01*
X1557269Y720375D01*
X1557307Y720210D01*
X1557371Y720070D01*
X1557422Y719956D01*
X1557485Y719855D01*
X1557549Y719791D01*
X1557587Y719740D01*
X1557599Y719727D01*
X1557726Y719626D01*
X1557866Y719550D01*
X1558006Y719486D01*
X1558133Y719448D01*
X1558235Y719423D01*
X1558323Y719410D01*
X1558971D01*
X1559149Y719423D01*
X1559301Y719461D01*
X1559441Y719512D01*
X1559555Y719575D01*
X1559657Y719639D01*
X1559720Y719689D01*
X1559771Y719727D01*
X1559784Y719740D01*
X1559898Y719880D01*
X1559974Y720007D01*
X1560038Y720147D01*
X1560076Y720274D01*
X1560101Y720388D01*
X1560114Y720477D01*
Y720528D01*
Y720553D01*
Y725887D01*
X1560101Y726052D01*
X1560063Y726205D01*
X1560013Y726344D01*
X1559949Y726459D01*
X1559886Y726560D01*
X1559835Y726624D01*
X1559797Y726674D01*
X1559784Y726687D01*
X1559644Y726801D01*
X1559517Y726890D01*
X1559377Y726941D01*
X1559250Y726992D01*
X1559136Y727017D01*
X1559047Y727030D01*
D02*
G37*
G36*
X1561087Y798992D02*
X1561062D01*
X1560820Y798967D01*
X1560604Y798916D01*
X1560427Y798852D01*
X1560274Y798763D01*
X1560160Y798674D01*
X1560071Y798611D01*
X1560007Y798560D01*
X1559995Y798535D01*
X1559881Y798382D01*
X1559792Y798217D01*
X1559728Y798052D01*
X1559677Y797900D01*
X1559652Y797760D01*
X1559639Y797658D01*
Y797582D01*
Y797570D01*
Y797557D01*
X1559652Y797354D01*
X1559690Y797163D01*
X1559754Y796998D01*
X1559817Y796858D01*
X1559881Y796744D01*
X1559944Y796655D01*
X1559982Y796604D01*
X1559995Y796579D01*
X1560160Y796426D01*
X1560338Y796325D01*
X1560515Y796249D01*
X1560693Y796185D01*
X1560833Y796160D01*
X1560960Y796147D01*
X1561036Y796134D01*
X1561062D01*
X1561303Y796160D01*
X1561519Y796211D01*
X1561709Y796274D01*
X1561862Y796363D01*
X1561976Y796439D01*
X1562065Y796515D01*
X1562128Y796566D01*
X1562141Y796579D01*
X1562255Y796731D01*
X1562344Y796896D01*
X1562395Y797061D01*
X1562446Y797214D01*
X1562471Y797354D01*
X1562484Y797455D01*
Y797531D01*
Y797557D01*
X1562471Y797760D01*
X1562433Y797951D01*
X1562370Y798116D01*
X1562306Y798255D01*
X1562255Y798370D01*
X1562192Y798458D01*
X1562154Y798522D01*
X1562141Y798535D01*
X1561963Y798687D01*
X1561785Y798801D01*
X1561608Y798878D01*
X1561430Y798941D01*
X1561290Y798967D01*
X1561163Y798979D01*
X1561087Y798992D01*
D02*
G37*
G36*
X1561151Y795182D02*
X1561062D01*
X1560896Y795169D01*
X1560744Y795156D01*
X1560465Y795093D01*
X1560211Y794991D01*
X1560007Y794877D01*
X1559842Y794763D01*
X1559728Y794674D01*
X1559652Y794598D01*
X1559626Y794585D01*
Y794572D01*
X1559474Y794356D01*
X1559360Y794140D01*
X1559271Y793925D01*
X1559220Y793721D01*
X1559182Y793544D01*
X1559169Y793404D01*
X1559157Y793353D01*
Y793315D01*
Y793290D01*
Y793277D01*
X1559182Y792998D01*
X1559233Y792744D01*
X1559309Y792515D01*
X1559398Y792324D01*
X1559487Y792172D01*
X1559563Y792058D01*
X1559614Y791982D01*
X1559639Y791956D01*
X1559741Y791854D01*
X1559855Y791766D01*
X1560084Y791613D01*
X1560325Y791512D01*
X1560554Y791448D01*
X1560757Y791397D01*
X1560833Y791385D01*
X1560909D01*
X1560973Y791372D01*
X1561062D01*
X1561227Y791385D01*
X1561379Y791397D01*
X1561671Y791461D01*
X1561913Y791562D01*
X1562116Y791677D01*
X1562281Y791778D01*
X1562395Y791880D01*
X1562471Y791943D01*
X1562484Y791969D01*
X1562497D01*
X1562649Y792185D01*
X1562763Y792401D01*
X1562852Y792617D01*
X1562903Y792820D01*
X1562941Y793010D01*
X1562954Y793150D01*
X1562967Y793201D01*
Y793239D01*
Y793264D01*
Y793277D01*
X1562941Y793556D01*
X1562890Y793810D01*
X1562814Y794026D01*
X1562725Y794217D01*
X1562649Y794382D01*
X1562573Y794496D01*
X1562522Y794560D01*
X1562497Y794585D01*
X1562395Y794687D01*
X1562281Y794788D01*
X1562052Y794928D01*
X1561811Y795042D01*
X1561582Y795106D01*
X1561379Y795156D01*
X1561290Y795169D01*
X1561214D01*
X1561151Y795182D01*
D02*
G37*
G36*
X1561533Y749182D02*
X1559641D01*
X1559501Y749169D01*
X1559362Y749144D01*
X1559247Y749093D01*
X1559146Y749042D01*
X1559069Y748991D01*
X1559019Y748941D01*
X1558981Y748915D01*
X1558968Y748903D01*
X1558879Y748788D01*
X1558803Y748674D01*
X1558752Y748572D01*
X1558727Y748458D01*
X1558701Y748369D01*
X1558688Y748293D01*
Y748242D01*
Y748229D01*
Y746324D01*
X1558701Y746172D01*
X1558727Y746032D01*
X1558777Y745918D01*
X1558828Y745816D01*
X1558879Y745727D01*
X1558930Y745677D01*
X1558955Y745639D01*
X1558968Y745626D01*
X1559082Y745537D01*
X1559196Y745473D01*
X1559298Y745435D01*
X1559412Y745410D01*
X1559501Y745385D01*
X1559577Y745372D01*
X1560593D01*
X1560733Y745385D01*
X1560847Y745410D01*
X1560898D01*
X1560936Y745423D01*
X1560962Y745435D01*
X1560974D01*
X1561089Y745499D01*
X1561190Y745562D01*
X1561254Y745613D01*
X1561266Y745639D01*
X1561279D01*
X1561368Y745753D01*
X1561432Y745867D01*
X1561482Y745982D01*
X1561508Y746083D01*
X1561533Y746185D01*
X1561546Y746261D01*
Y746312D01*
Y746324D01*
Y748699D01*
X1561533Y749182D01*
D02*
G37*
%LPD*%
D10*
X1643697Y741271D02*
X1643697Y761271D01*
X1599697Y741271D02*
X1599697Y761271D01*
X1643697Y761271D01*
X1599697Y741271D02*
X1643697Y741271D01*
X1643907Y692220D02*
X1643907Y712220D01*
X1599906Y692220D02*
X1599906Y712220D01*
X1643907Y712220D01*
X1599906Y692220D02*
X1643907Y692220D01*
X1599697Y715108D02*
X1599697Y735108D01*
X1643697Y715108D02*
X1643697Y735108D01*
X1599697Y715108D02*
X1643697Y715108D01*
X1599697Y735108D02*
X1643697Y735108D01*
X1684907Y691220D02*
X1684907Y735220D01*
X1664907Y691220D02*
X1664907Y735220D01*
X1664907Y691220D02*
X1684907Y691220D01*
X1664907Y735220D02*
X1684907Y735220D01*
X1599697Y787220D02*
X1643697D01*
X1599697Y807220D02*
X1643697D01*
X1599697Y787220D02*
X1599697Y807220D01*
X1643697Y787220D02*
X1643697Y807220D01*
X1599697Y763490D02*
X1643697D01*
X1599697Y783490D02*
X1643697D01*
X1599697Y763490D02*
X1599697Y783490D01*
X1643697Y763490D02*
X1643697Y783490D01*
M02*
