%TF.GenerationSoftware,Altium Limited,Altium Designer,25.8.1 (18)*%
G04 Layer_Color=8388736*
%FSLAX45Y45*%
%MOMM*%
%TF.SameCoordinates,8572D1E1-8A29-45F6-85B8-02B6E87FD275*%
%TF.FilePolarity,Negative*%
%TF.FileFunction,Soldermask,Top*%
%TF.Part,Single*%
G01*
G75*
%TA.AperFunction,Conductor*%
%ADD10C,0.20000*%
%TA.AperFunction,SMDPad,CuDef*%
%ADD11R,0.39247X1.00564*%
G04:AMPARAMS|DCode=12|XSize=1.00564mm|YSize=0.39247mm|CornerRadius=0.19624mm|HoleSize=0mm|Usage=FLASHONLY|Rotation=90.000|XOffset=0mm|YOffset=0mm|HoleType=Round|Shape=RoundedRectangle|*
%AMROUNDEDRECTD12*
21,1,1.00564,0.00000,0,0,90.0*
21,1,0.61317,0.39247,0,0,90.0*
1,1,0.39247,0.00000,0.30659*
1,1,0.39247,0.00000,-0.30659*
1,1,0.39247,0.00000,-0.30659*
1,1,0.39247,0.00000,0.30659*
%
%ADD12ROUNDEDRECTD12*%
G04:AMPARAMS|DCode=22|XSize=1.00564mm|YSize=0.39247mm|CornerRadius=0.19624mm|HoleSize=0mm|Usage=FLASHONLY|Rotation=0.000|XOffset=0mm|YOffset=0mm|HoleType=Round|Shape=RoundedRectangle|*
%AMROUNDEDRECTD22*
21,1,1.00564,0.00000,0,0,0.0*
21,1,0.61317,0.39247,0,0,0.0*
1,1,0.39247,0.30659,0.00000*
1,1,0.39247,-0.30659,0.00000*
1,1,0.39247,-0.30659,0.00000*
1,1,0.39247,0.30659,0.00000*
%
%ADD22ROUNDEDRECTD22*%
%ADD23R,1.00564X0.39247*%
%ADD24R,3.80000X2.50000*%
%ADD25R,7.90000X2.30000*%
%ADD26R,3.40000X2.30000*%
%TA.AperFunction,BGAPad,CuDef*%
%ADD33C,0.31500*%
%TA.AperFunction,SMDPad,CuDef*%
%ADD34R,3.15000X3.15000*%
%TA.AperFunction,Conductor*%
%ADD45C,1.50000*%
%ADD61R,3.92074X5.20001*%
%TA.AperFunction,ViaPad*%
%ADD96C,0.60000*%
%TA.AperFunction,NonConductor*%
%ADD97R,9.00000X9.00000*%
%ADD98R,7.12602X2.00000*%
%ADD101R,34.25000X16.12868*%
%ADD102R,9.00000X10.00000*%
%ADD103R,9.00000X9.25000*%
%TA.AperFunction,SMDPad,CuDef*%
%ADD123O,0.85320X1.72820*%
%ADD124R,0.85320X1.72820*%
%ADD125R,1.20320X1.80320*%
%ADD126R,1.30320X0.80320*%
%ADD127R,1.80320X1.20320*%
%ADD128O,1.72820X0.85320*%
%ADD129R,1.45320X1.20320*%
%ADD130R,1.28820X0.75320*%
%ADD131R,1.20320X1.45320*%
%ADD132P,1.41874X4X345.0*%
G04:AMPARAMS|DCode=133|XSize=2.2032mm|YSize=1.3032mm|CornerRadius=0mm|HoleSize=0mm|Usage=FLASHONLY|Rotation=300.000|XOffset=0mm|YOffset=0mm|HoleType=Round|Shape=Rectangle|*
%AMROTATEDRECTD133*
4,1,4,-1.11510,0.62821,0.01350,1.27981,1.11510,-0.62821,-0.01350,-1.27981,-1.11510,0.62821,0.0*
%
%ADD133ROTATEDRECTD133*%

%ADD134P,1.41874X4X75.0*%
G04:AMPARAMS|DCode=135|XSize=2.2032mm|YSize=1.3032mm|CornerRadius=0mm|HoleSize=0mm|Usage=FLASHONLY|Rotation=30.000|XOffset=0mm|YOffset=0mm|HoleType=Round|Shape=Rectangle|*
%AMROTATEDRECTD135*
4,1,4,-0.62821,-1.11510,-1.27981,0.01350,0.62821,1.11510,1.27981,-0.01350,-0.62821,-1.11510,0.0*
%
%ADD135ROTATEDRECTD135*%

%ADD136R,0.50320X1.65320*%
G04:AMPARAMS|DCode=137|XSize=1.8032mm|YSize=0.8032mm|CornerRadius=0.4016mm|HoleSize=0mm|Usage=FLASHONLY|Rotation=180.000|XOffset=0mm|YOffset=0mm|HoleType=Round|Shape=RoundedRectangle|*
%AMROUNDEDRECTD137*
21,1,1.80320,0.00000,0,0,180.0*
21,1,1.00000,0.80320,0,0,180.0*
1,1,0.80320,-0.50000,0.00000*
1,1,0.80320,0.50000,0.00000*
1,1,0.80320,0.50000,0.00000*
1,1,0.80320,-0.50000,0.00000*
%
%ADD137ROUNDEDRECTD137*%
%ADD138R,1.72820X0.85320*%
%ADD139R,2.00320X1.10320*%
%ADD140R,1.60320X0.65320*%
%ADD141R,1.25320X0.90320*%
%ADD142R,2.80320X1.30320*%
%ADD143C,2.00000*%
%ADD144R,1.30320X2.80320*%
%ADD145R,8.95320X5.40320*%
%ADD146R,1.80320X0.80320*%
%ADD147R,2.00320X3.40320*%
%TA.AperFunction,WasherPad*%
%ADD148C,3.20320*%
%ADD149C,4.20320*%
%TA.AperFunction,ComponentPad*%
%ADD150C,1.70320*%
%ADD151C,1.50320*%
%TA.AperFunction,ViaPad*%
%ADD152C,1.40320*%
%TA.AperFunction,ComponentPad*%
%ADD153O,2.30320X1.60320*%
%ADD154C,1.50620*%
%ADD155R,1.50620X1.50620*%
%ADD156R,1.50620X1.50620*%
%ADD157R,1.85320X1.85320*%
%ADD158C,1.85320*%
%ADD159O,2.15320X1.50320*%
%TA.AperFunction,WasherPad*%
%ADD160C,2.00320*%
%TA.AperFunction,ComponentPad*%
%ADD161C,2.10820*%
%ADD162C,1.60320*%
%ADD163C,2.05320*%
%ADD164C,2.60320*%
%ADD165C,8.20320*%
%ADD166R,1.50320X1.50320*%
%ADD167R,1.85320X1.85320*%
%TA.AperFunction,ViaPad*%
%ADD168C,1.70320*%
%ADD169C,1.00320*%
%ADD170C,2.00320*%
%ADD171C,1.47320*%
G36*
X2287502Y6369221D02*
X2746436Y5910287D01*
X653565Y5910286D01*
X1112499Y6369221D01*
X2287502Y6369221D01*
D02*
G37*
G36*
X2746436Y4333934D02*
X2287502Y3875000D01*
X1112499D01*
X653565Y4333935D01*
X2746436Y4333934D01*
D02*
G37*
G36*
X14271774Y3467500D02*
Y3464019D01*
X14269110Y3457587D01*
X14264188Y3452664D01*
X14257755Y3450000D01*
X14250793D01*
X14244360Y3452664D01*
X14239438Y3457587D01*
X14236774Y3464019D01*
Y3467500D01*
Y3550000D01*
X14271774D01*
Y3467500D01*
D02*
G37*
G36*
X14206773D02*
Y3464019D01*
X14204111Y3457587D01*
X14199187Y3452664D01*
X14192755Y3450000D01*
X14185793D01*
X14179361Y3452664D01*
X14174438Y3457587D01*
X14171774Y3464019D01*
Y3467500D01*
Y3550000D01*
X14206773D01*
X14206773Y3467500D01*
D02*
G37*
G36*
X14141774D02*
Y3464019D01*
X14139110Y3457587D01*
X14134187Y3452664D01*
X14127756Y3450000D01*
X14120793D01*
X14114362Y3452664D01*
X14109438Y3457587D01*
X14106773Y3464019D01*
Y3467500D01*
Y3550000D01*
X14141774D01*
Y3467500D01*
D02*
G37*
G36*
X14076775D02*
Y3464019D01*
X14074110Y3457587D01*
X14069186Y3452664D01*
X14062755Y3450000D01*
X14055794D01*
X14049361Y3452664D01*
X14044438Y3457587D01*
X14041774Y3464019D01*
Y3467500D01*
X14041774D01*
Y3550000D01*
X14076775D01*
Y3467500D01*
D02*
G37*
G36*
X14011774D02*
Y3464019D01*
X14009109Y3457587D01*
X14004187Y3452664D01*
X13997755Y3450000D01*
X13990793D01*
X13984361Y3452664D01*
X13979437Y3457587D01*
X13976775Y3464019D01*
Y3467500D01*
Y3550000D01*
X14011774D01*
Y3467500D01*
D02*
G37*
G36*
X16547501Y3467500D02*
Y3464019D01*
X16544836Y3457587D01*
X16539912Y3452664D01*
X16533481Y3450000D01*
X16526518D01*
X16520087Y3452664D01*
X16515164Y3457587D01*
X16512500Y3464019D01*
Y3467500D01*
Y3550000D01*
X16547501D01*
Y3467500D01*
D02*
G37*
G36*
X16482500D02*
Y3464019D01*
X16479836Y3457587D01*
X16474913Y3452664D01*
X16468481Y3450000D01*
X16461519D01*
X16455087Y3452664D01*
X16450163Y3457587D01*
X16447501Y3464019D01*
Y3467500D01*
Y3550000D01*
X16482500D01*
X16482500Y3467500D01*
D02*
G37*
G36*
X16417500D02*
Y3464019D01*
X16414836Y3457587D01*
X16409914Y3452664D01*
X16403481Y3450000D01*
X16396519D01*
X16390086Y3452664D01*
X16385164Y3457587D01*
X16382500Y3464019D01*
Y3467500D01*
Y3550000D01*
X16417500D01*
Y3467500D01*
D02*
G37*
G36*
X16352499D02*
Y3464019D01*
X16349835Y3457587D01*
X16344913Y3452664D01*
X16338481Y3450000D01*
X16331519D01*
X16325087Y3452664D01*
X16320164Y3457587D01*
X16317500Y3464019D01*
Y3467500D01*
X16317500D01*
Y3550000D01*
X16352499D01*
Y3467500D01*
D02*
G37*
G36*
X16287500D02*
Y3464019D01*
X16284836Y3457587D01*
X16279913Y3452664D01*
X16273482Y3450000D01*
X16266519D01*
X16260088Y3452664D01*
X16255164Y3457587D01*
X16252499Y3464019D01*
Y3467500D01*
Y3550000D01*
X16287500D01*
Y3467500D01*
D02*
G37*
G36*
X14414275Y3372500D02*
X14328293D01*
X14321861Y3375164D01*
X14316937Y3380087D01*
X14314275Y3386519D01*
Y3390000D01*
Y3393481D01*
X14316937Y3399913D01*
X14321861Y3404836D01*
X14328293Y3407500D01*
X14414275D01*
Y3372500D01*
D02*
G37*
G36*
X13926688Y3404836D02*
X13931610Y3399913D01*
X13934274Y3393481D01*
Y3390000D01*
Y3386519D01*
X13931610Y3380087D01*
X13926688Y3375164D01*
X13920255Y3372500D01*
X13834274D01*
Y3407500D01*
X13920255D01*
X13926688Y3404836D01*
D02*
G37*
G36*
X16689999Y3372500D02*
X16604019D01*
X16597588Y3375164D01*
X16592664Y3380087D01*
X16589999Y3386519D01*
Y3390000D01*
Y3393481D01*
X16592664Y3399913D01*
X16597588Y3404836D01*
X16604019Y3407500D01*
X16689999D01*
Y3372500D01*
D02*
G37*
G36*
X16202412Y3404836D02*
X16207336Y3399913D01*
X16210001Y3393481D01*
Y3390000D01*
Y3386519D01*
X16207336Y3380087D01*
X16202412Y3375164D01*
X16195981Y3372500D01*
X16110001D01*
Y3407500D01*
X16195981D01*
X16202412Y3404836D01*
D02*
G37*
G36*
X14331773Y3342500D02*
X14414275D01*
Y3307500D01*
X14328293D01*
X14321861Y3310165D01*
X14316937Y3315087D01*
X14314275Y3321519D01*
Y3325000D01*
Y3328481D01*
X14316937Y3334913D01*
X14321861Y3339836D01*
X14328293Y3342501D01*
X14331773D01*
Y3342500D01*
D02*
G37*
G36*
X13926688Y3339836D02*
X13931610Y3334913D01*
X13934274Y3328481D01*
Y3325000D01*
Y3321519D01*
X13931610Y3315087D01*
X13926688Y3310165D01*
X13920255Y3307500D01*
X13834274D01*
Y3342500D01*
X13916774Y3342501D01*
X13920255D01*
X13926688Y3339836D01*
D02*
G37*
G36*
X16607500Y3342500D02*
X16689999D01*
Y3307500D01*
X16604019D01*
X16597588Y3310164D01*
X16592664Y3315087D01*
X16589999Y3321519D01*
Y3325000D01*
Y3328481D01*
X16592664Y3334913D01*
X16597588Y3339836D01*
X16604019Y3342500D01*
X16607500D01*
Y3342500D01*
D02*
G37*
G36*
X16202412Y3339836D02*
X16207336Y3334913D01*
X16210001Y3328481D01*
Y3325000D01*
Y3321519D01*
X16207336Y3315087D01*
X16202412Y3310164D01*
X16195981Y3307500D01*
X16110001D01*
Y3342500D01*
X16192500Y3342500D01*
X16195981D01*
X16202412Y3339836D01*
D02*
G37*
G36*
X14414275Y3242500D02*
X14328293D01*
X14321861Y3245164D01*
X14316937Y3250087D01*
X14314275Y3256519D01*
Y3260000D01*
Y3263481D01*
X14316937Y3269913D01*
X14321861Y3274836D01*
X14328293Y3277500D01*
X14414275D01*
Y3242500D01*
D02*
G37*
G36*
X13926688Y3274836D02*
X13931610Y3269913D01*
X13934274Y3263481D01*
Y3260000D01*
Y3256519D01*
X13931610Y3250087D01*
X13926688Y3245164D01*
X13920255Y3242500D01*
X13834274D01*
Y3277500D01*
X13920255D01*
X13926688Y3274836D01*
D02*
G37*
G36*
X16689999Y3242500D02*
X16604019D01*
X16597588Y3245164D01*
X16592664Y3250087D01*
X16589999Y3256519D01*
Y3260000D01*
Y3263481D01*
X16592664Y3269913D01*
X16597588Y3274836D01*
X16604019Y3277500D01*
X16689999D01*
Y3242500D01*
D02*
G37*
G36*
X16202412Y3274836D02*
X16207336Y3269913D01*
X16210001Y3263481D01*
Y3260000D01*
Y3256519D01*
X16207336Y3250087D01*
X16202412Y3245164D01*
X16195981Y3242500D01*
X16110001D01*
Y3277500D01*
X16195981D01*
X16202412Y3274836D01*
D02*
G37*
G36*
X14414275Y3177500D02*
X14331773Y3177500D01*
X14328293D01*
X14321861Y3180164D01*
X14316937Y3185087D01*
X14314275Y3191519D01*
Y3195000D01*
Y3198481D01*
X14316937Y3204913D01*
X14321861Y3209836D01*
X14328293Y3212500D01*
X14414275D01*
Y3177500D01*
D02*
G37*
G36*
X13926688Y3209836D02*
X13931610Y3204913D01*
X13934274Y3198481D01*
Y3195000D01*
Y3191519D01*
X13931610Y3185087D01*
X13926688Y3180164D01*
X13920255Y3177500D01*
X13916774D01*
Y3177500D01*
X13834274D01*
Y3212500D01*
X13920255D01*
X13926688Y3209836D01*
D02*
G37*
G36*
X16689999Y3177500D02*
X16607500Y3177500D01*
X16604019D01*
X16597588Y3180164D01*
X16592664Y3185087D01*
X16589999Y3191519D01*
Y3195000D01*
Y3198481D01*
X16592664Y3204913D01*
X16597588Y3209836D01*
X16604019Y3212500D01*
X16689999D01*
Y3177500D01*
D02*
G37*
G36*
X16202412Y3209836D02*
X16207336Y3204913D01*
X16210001Y3198481D01*
Y3195000D01*
Y3191519D01*
X16207336Y3185087D01*
X16202412Y3180164D01*
X16195981Y3177500D01*
X16192500D01*
Y3177500D01*
X16110001D01*
Y3212500D01*
X16195981D01*
X16202412Y3209836D01*
D02*
G37*
G36*
X14414275Y3112500D02*
X14328293D01*
X14321861Y3115164D01*
X14316937Y3120087D01*
X14314275Y3126519D01*
Y3130000D01*
Y3133481D01*
X14316937Y3139913D01*
X14321861Y3144836D01*
X14328293Y3147500D01*
X14414275D01*
Y3112500D01*
D02*
G37*
G36*
X13926688Y3144836D02*
X13931610Y3139913D01*
X13934274Y3133481D01*
Y3130000D01*
Y3126519D01*
X13931610Y3120087D01*
X13926688Y3115164D01*
X13920255Y3112500D01*
X13834274D01*
Y3147500D01*
X13920255D01*
X13926688Y3144836D01*
D02*
G37*
G36*
X16689999Y3112500D02*
X16604019D01*
X16597588Y3115164D01*
X16592664Y3120087D01*
X16589999Y3126519D01*
Y3130000D01*
Y3133481D01*
X16592664Y3139913D01*
X16597588Y3144836D01*
X16604019Y3147500D01*
X16689999D01*
Y3112500D01*
D02*
G37*
G36*
X16202412Y3144836D02*
X16207336Y3139913D01*
X16210001Y3133481D01*
Y3130000D01*
Y3126519D01*
X16207336Y3120087D01*
X16202412Y3115164D01*
X16195981Y3112500D01*
X16110001D01*
Y3147500D01*
X16195981D01*
X16202412Y3144836D01*
D02*
G37*
G36*
X14264188Y3067336D02*
X14269110Y3062413D01*
X14271774Y3055981D01*
Y3052500D01*
Y2970000D01*
X14236774D01*
Y3052500D01*
Y3055981D01*
X14239438Y3062413D01*
X14244360Y3067336D01*
X14250793Y3070000D01*
X14257755D01*
X14264188Y3067336D01*
D02*
G37*
G36*
X14199187D02*
X14204111Y3062413D01*
X14206773Y3055981D01*
Y3052500D01*
X14206773D01*
Y2970000D01*
X14171774D01*
Y3052500D01*
Y3055981D01*
X14174438Y3062413D01*
X14179361Y3067336D01*
X14185793Y3070000D01*
X14192755D01*
X14199187Y3067336D01*
D02*
G37*
G36*
X14134187D02*
X14139110Y3062413D01*
X14141774Y3055981D01*
Y3052500D01*
Y2970000D01*
X14106773D01*
Y3052500D01*
Y3055981D01*
X14109438Y3062413D01*
X14114362Y3067336D01*
X14120793Y3070000D01*
X14127756D01*
X14134187Y3067336D01*
D02*
G37*
G36*
X14069186D02*
X14074110Y3062413D01*
X14076775Y3055981D01*
Y3052500D01*
Y2970000D01*
X14041774D01*
X14041774Y3052500D01*
Y3055981D01*
X14044438Y3062413D01*
X14049361Y3067336D01*
X14055794Y3070000D01*
X14062755D01*
X14069186Y3067336D01*
D02*
G37*
G36*
X14004187D02*
X14009109Y3062413D01*
X14011774Y3055981D01*
Y3052500D01*
Y2970000D01*
X13976775D01*
Y3052500D01*
Y3055981D01*
X13979437Y3062413D01*
X13984361Y3067336D01*
X13990793Y3070000D01*
X13997755D01*
X14004187Y3067336D01*
D02*
G37*
G36*
X16539912Y3067336D02*
X16544836Y3062413D01*
X16547501Y3055981D01*
Y3052500D01*
Y2970000D01*
X16512500D01*
Y3052500D01*
Y3055981D01*
X16515164Y3062413D01*
X16520087Y3067336D01*
X16526518Y3070000D01*
X16533481D01*
X16539912Y3067336D01*
D02*
G37*
G36*
X16474913D02*
X16479836Y3062413D01*
X16482500Y3055981D01*
Y3052500D01*
X16482500D01*
Y2970000D01*
X16447501D01*
Y3052500D01*
Y3055981D01*
X16450163Y3062413D01*
X16455087Y3067336D01*
X16461519Y3070000D01*
X16468481D01*
X16474913Y3067336D01*
D02*
G37*
G36*
X16409914D02*
X16414836Y3062413D01*
X16417500Y3055981D01*
Y3052500D01*
Y2970000D01*
X16382500D01*
Y3052500D01*
Y3055981D01*
X16385164Y3062413D01*
X16390086Y3067336D01*
X16396519Y3070000D01*
X16403481D01*
X16409914Y3067336D01*
D02*
G37*
G36*
X16344913D02*
X16349835Y3062413D01*
X16352499Y3055981D01*
Y3052500D01*
Y2970000D01*
X16317500D01*
X16317500Y3052500D01*
Y3055981D01*
X16320164Y3062413D01*
X16325087Y3067336D01*
X16331519Y3070000D01*
X16338481D01*
X16344913Y3067336D01*
D02*
G37*
G36*
X16279913D02*
X16284836Y3062413D01*
X16287500Y3055981D01*
Y3052500D01*
Y2970000D01*
X16252499D01*
Y3052500D01*
Y3055981D01*
X16255164Y3062413D01*
X16260088Y3067336D01*
X16266519Y3070000D01*
X16273482D01*
X16279913Y3067336D01*
D02*
G37*
G36*
X16521774Y1087500D02*
Y1084019D01*
X16519109Y1077587D01*
X16514188Y1072665D01*
X16507755Y1070000D01*
X16500793D01*
X16494360Y1072665D01*
X16489438Y1077587D01*
X16486774Y1084019D01*
Y1087500D01*
Y1170000D01*
X16521774D01*
Y1087500D01*
D02*
G37*
G36*
X16456773D02*
Y1084019D01*
X16454111Y1077587D01*
X16449187Y1072665D01*
X16442755Y1070000D01*
X16435793D01*
X16429361Y1072665D01*
X16424438Y1077587D01*
X16421774Y1084019D01*
Y1087500D01*
Y1170000D01*
X16456773D01*
X16456773Y1087500D01*
D02*
G37*
G36*
X16391774D02*
Y1084019D01*
X16389108Y1077587D01*
X16384187Y1072665D01*
X16377756Y1070000D01*
X16370793D01*
X16364362Y1072665D01*
X16359438Y1077587D01*
X16356773Y1084019D01*
Y1087500D01*
Y1170000D01*
X16391774D01*
Y1087500D01*
D02*
G37*
G36*
X16326775D02*
Y1084019D01*
X16324109Y1077587D01*
X16319186Y1072665D01*
X16312755Y1070000D01*
X16305794D01*
X16299361Y1072665D01*
X16294438Y1077587D01*
X16291774Y1084019D01*
Y1087500D01*
X16291774D01*
Y1170000D01*
X16326775D01*
Y1087500D01*
D02*
G37*
G36*
X16261774D02*
Y1084019D01*
X16259109Y1077587D01*
X16254187Y1072665D01*
X16247755Y1070000D01*
X16240793D01*
X16234361Y1072665D01*
X16229437Y1077587D01*
X16226775Y1084019D01*
Y1087500D01*
Y1170000D01*
X16261774D01*
Y1087500D01*
D02*
G37*
G36*
X14137500Y1087500D02*
Y1084019D01*
X14134836Y1077587D01*
X14129913Y1072664D01*
X14123482Y1070000D01*
X14116519D01*
X14110088Y1072664D01*
X14105164Y1077587D01*
X14102499Y1084019D01*
Y1087500D01*
Y1170000D01*
X14137500D01*
Y1087500D01*
D02*
G37*
G36*
X14072501D02*
Y1084019D01*
X14069836Y1077587D01*
X14064912Y1072664D01*
X14058481Y1070000D01*
X14051518D01*
X14045087Y1072664D01*
X14040164Y1077587D01*
X14037500Y1084019D01*
Y1087500D01*
Y1170000D01*
X14072501D01*
X14072501Y1087500D01*
D02*
G37*
G36*
X14007500D02*
Y1084019D01*
X14004836Y1077587D01*
X13999913Y1072664D01*
X13993481Y1070000D01*
X13986519D01*
X13980087Y1072664D01*
X13975163Y1077587D01*
X13972501Y1084019D01*
Y1087500D01*
Y1170000D01*
X14007500D01*
Y1087500D01*
D02*
G37*
G36*
X13942500D02*
Y1084019D01*
X13939835Y1077587D01*
X13934914Y1072664D01*
X13928481Y1070000D01*
X13921519D01*
X13915086Y1072664D01*
X13910164Y1077587D01*
X13907500Y1084019D01*
Y1087500D01*
X13907500D01*
Y1170000D01*
X13942500D01*
Y1087500D01*
D02*
G37*
G36*
X13877499D02*
Y1084019D01*
X13874837Y1077587D01*
X13869913Y1072664D01*
X13863481Y1070000D01*
X13856519D01*
X13850087Y1072664D01*
X13845164Y1077587D01*
X13842500Y1084019D01*
Y1087500D01*
Y1170000D01*
X13877499D01*
Y1087500D01*
D02*
G37*
G36*
X16664275Y992500D02*
X16578293D01*
X16571861Y995165D01*
X16566937Y1000087D01*
X16564275Y1006519D01*
Y1010001D01*
Y1013481D01*
X16566937Y1019913D01*
X16571861Y1024836D01*
X16578293Y1027501D01*
X16664275D01*
Y992500D01*
D02*
G37*
G36*
X16176688Y1024836D02*
X16181609Y1019913D01*
X16184274Y1013481D01*
Y1010001D01*
Y1006519D01*
X16181609Y1000087D01*
X16176688Y995165D01*
X16170255Y992500D01*
X16084274D01*
Y1027501D01*
X16170255D01*
X16176688Y1024836D01*
D02*
G37*
G36*
X14280000Y992500D02*
X14194019D01*
X14187587Y995164D01*
X14182664Y1000087D01*
X14180000Y1006519D01*
Y1010000D01*
Y1013481D01*
X14182664Y1019913D01*
X14187587Y1024836D01*
X14194019Y1027500D01*
X14280000D01*
Y992500D01*
D02*
G37*
G36*
X13792413Y1024836D02*
X13797336Y1019913D01*
X13800000Y1013481D01*
Y1010000D01*
Y1006519D01*
X13797336Y1000087D01*
X13792413Y995164D01*
X13785982Y992500D01*
X13700000D01*
Y1027500D01*
X13785982D01*
X13792413Y1024836D01*
D02*
G37*
G36*
X16581773Y962500D02*
X16664275D01*
Y927501D01*
X16578293D01*
X16571861Y930165D01*
X16566937Y935088D01*
X16564275Y941520D01*
Y945001D01*
Y948481D01*
X16566937Y954914D01*
X16571861Y959836D01*
X16578293Y962501D01*
X16581773D01*
Y962500D01*
D02*
G37*
G36*
X16176688Y959836D02*
X16181609Y954914D01*
X16184274Y948481D01*
Y945001D01*
Y941520D01*
X16181609Y935088D01*
X16176688Y930165D01*
X16170255Y927501D01*
X16084274D01*
Y962500D01*
X16166774Y962501D01*
X16170255D01*
X16176688Y959836D01*
D02*
G37*
G36*
X14197501Y962500D02*
X14280000D01*
Y927500D01*
X14194019D01*
X14187587Y930164D01*
X14182664Y935087D01*
X14180000Y941519D01*
Y945000D01*
Y948481D01*
X14182664Y954913D01*
X14187587Y959836D01*
X14194019Y962500D01*
X14197501D01*
Y962500D01*
D02*
G37*
G36*
X13792413Y959836D02*
X13797336Y954913D01*
X13800000Y948481D01*
Y945000D01*
Y941519D01*
X13797336Y935087D01*
X13792413Y930164D01*
X13785982Y927500D01*
X13700000D01*
Y962500D01*
X13782500Y962500D01*
X13785982D01*
X13792413Y959836D01*
D02*
G37*
G36*
X16664275Y862500D02*
X16578293D01*
X16571861Y865165D01*
X16566937Y870087D01*
X16564275Y876519D01*
Y880001D01*
Y883481D01*
X16566937Y889913D01*
X16571861Y894836D01*
X16578293Y897501D01*
X16664275D01*
Y862500D01*
D02*
G37*
G36*
X16176688Y894836D02*
X16181609Y889913D01*
X16184274Y883481D01*
Y880001D01*
Y876519D01*
X16181609Y870087D01*
X16176688Y865165D01*
X16170255Y862500D01*
X16084274D01*
Y897501D01*
X16170255D01*
X16176688Y894836D01*
D02*
G37*
G36*
X14280000Y862500D02*
X14194019D01*
X14187587Y865164D01*
X14182664Y870087D01*
X14180000Y876519D01*
Y880000D01*
Y883481D01*
X14182664Y889913D01*
X14187587Y894836D01*
X14194019Y897500D01*
X14280000D01*
Y862500D01*
D02*
G37*
G36*
X13792413Y894836D02*
X13797336Y889913D01*
X13800000Y883481D01*
Y880000D01*
Y876519D01*
X13797336Y870087D01*
X13792413Y865164D01*
X13785982Y862500D01*
X13700000D01*
Y897500D01*
X13785982D01*
X13792413Y894836D01*
D02*
G37*
G36*
X16664275Y797501D02*
X16581773Y797500D01*
X16578293D01*
X16571861Y800165D01*
X16566937Y805087D01*
X16564275Y811519D01*
Y815000D01*
Y818481D01*
X16566937Y824913D01*
X16571861Y829836D01*
X16578293Y832500D01*
X16664275D01*
Y797501D01*
D02*
G37*
G36*
X16176688Y829836D02*
X16181609Y824913D01*
X16184274Y818481D01*
Y815000D01*
Y811519D01*
X16181609Y805087D01*
X16176688Y800165D01*
X16170255Y797500D01*
X16166774D01*
Y797501D01*
X16084274D01*
Y832500D01*
X16170255D01*
X16176688Y829836D01*
D02*
G37*
G36*
X14280000Y797500D02*
X14197501Y797500D01*
X14194019D01*
X14187587Y800164D01*
X14182664Y805087D01*
X14180000Y811519D01*
Y815000D01*
Y818481D01*
X14182664Y824913D01*
X14187587Y829836D01*
X14194019Y832500D01*
X14280000D01*
Y797500D01*
D02*
G37*
G36*
X13792413Y829836D02*
X13797336Y824913D01*
X13800000Y818481D01*
Y815000D01*
Y811519D01*
X13797336Y805087D01*
X13792413Y800164D01*
X13785982Y797500D01*
X13782500D01*
Y797500D01*
X13700000D01*
Y832500D01*
X13785982D01*
X13792413Y829836D01*
D02*
G37*
G36*
X16664275Y732500D02*
X16578293D01*
X16571861Y735165D01*
X16566937Y740087D01*
X16564275Y746519D01*
Y750001D01*
Y753481D01*
X16566937Y759913D01*
X16571861Y764836D01*
X16578293Y767501D01*
X16664275D01*
Y732500D01*
D02*
G37*
G36*
X16176688Y764836D02*
X16181609Y759913D01*
X16184274Y753481D01*
Y750001D01*
Y746519D01*
X16181609Y740087D01*
X16176688Y735165D01*
X16170255Y732500D01*
X16084274D01*
Y767501D01*
X16170255D01*
X16176688Y764836D01*
D02*
G37*
G36*
X14280000Y732500D02*
X14194019D01*
X14187587Y735164D01*
X14182664Y740087D01*
X14180000Y746519D01*
Y750000D01*
Y753481D01*
X14182664Y759913D01*
X14187587Y764836D01*
X14194019Y767500D01*
X14280000D01*
Y732500D01*
D02*
G37*
G36*
X13792413Y764836D02*
X13797336Y759913D01*
X13800000Y753481D01*
Y750000D01*
Y746519D01*
X13797336Y740087D01*
X13792413Y735164D01*
X13785982Y732500D01*
X13700000D01*
Y767500D01*
X13785982D01*
X13792413Y764836D01*
D02*
G37*
G36*
X16514188Y687336D02*
X16519109Y682413D01*
X16521774Y675981D01*
Y672501D01*
Y590001D01*
X16486774D01*
Y672501D01*
Y675981D01*
X16489438Y682413D01*
X16494360Y687336D01*
X16500793Y690001D01*
X16507755D01*
X16514188Y687336D01*
D02*
G37*
G36*
X16449187D02*
X16454111Y682413D01*
X16456773Y675981D01*
Y672501D01*
X16456773D01*
Y590001D01*
X16421774D01*
Y672501D01*
Y675981D01*
X16424438Y682413D01*
X16429361Y687336D01*
X16435793Y690001D01*
X16442755D01*
X16449187Y687336D01*
D02*
G37*
G36*
X16384187D02*
X16389108Y682413D01*
X16391774Y675981D01*
Y672501D01*
Y590001D01*
X16356773D01*
Y672501D01*
Y675981D01*
X16359438Y682413D01*
X16364362Y687336D01*
X16370793Y690001D01*
X16377756D01*
X16384187Y687336D01*
D02*
G37*
G36*
X16319186D02*
X16324109Y682413D01*
X16326775Y675981D01*
Y672501D01*
Y590001D01*
X16291774D01*
X16291774Y672501D01*
Y675981D01*
X16294438Y682413D01*
X16299361Y687336D01*
X16305794Y690001D01*
X16312755D01*
X16319186Y687336D01*
D02*
G37*
G36*
X16254187D02*
X16259109Y682413D01*
X16261774Y675981D01*
Y672501D01*
Y590001D01*
X16226775D01*
Y672501D01*
Y675981D01*
X16229437Y682413D01*
X16234361Y687336D01*
X16240793Y690001D01*
X16247755D01*
X16254187Y687336D01*
D02*
G37*
G36*
X14129913Y687336D02*
X14134836Y682413D01*
X14137500Y675981D01*
Y672500D01*
Y590000D01*
X14102499D01*
Y672500D01*
Y675981D01*
X14105164Y682413D01*
X14110088Y687336D01*
X14116519Y690000D01*
X14123482D01*
X14129913Y687336D01*
D02*
G37*
G36*
X14064912D02*
X14069836Y682413D01*
X14072501Y675981D01*
Y672500D01*
X14072501D01*
Y590000D01*
X14037500D01*
Y672500D01*
Y675981D01*
X14040164Y682413D01*
X14045087Y687336D01*
X14051518Y690000D01*
X14058481D01*
X14064912Y687336D01*
D02*
G37*
G36*
X13999913D02*
X14004836Y682413D01*
X14007500Y675981D01*
Y672500D01*
Y590000D01*
X13972501D01*
Y672500D01*
Y675981D01*
X13975163Y682413D01*
X13980087Y687336D01*
X13986519Y690000D01*
X13993481D01*
X13999913Y687336D01*
D02*
G37*
G36*
X13934914D02*
X13939835Y682413D01*
X13942500Y675981D01*
Y672500D01*
Y590000D01*
X13907500D01*
X13907500Y672500D01*
Y675981D01*
X13910164Y682413D01*
X13915086Y687336D01*
X13921519Y690000D01*
X13928481D01*
X13934914Y687336D01*
D02*
G37*
G36*
X13869913D02*
X13874837Y682413D01*
X13877499Y675981D01*
Y672500D01*
Y590000D01*
X13842500D01*
Y672500D01*
Y675981D01*
X13845164Y682413D01*
X13850087Y687336D01*
X13856519Y690000D01*
X13863481D01*
X13869913Y687336D01*
D02*
G37*
D10*
X1805090Y2750000D02*
G03*
X1805090Y2750000I-555090J0D01*
G01*
D11*
X12425001Y4879969D02*
D03*
X12860001Y4920251D02*
D03*
X13100002Y5030281D02*
D03*
X12650004D02*
D03*
X13310004Y4917601D02*
D03*
X13758842Y4916973D02*
D03*
X13978844Y5027025D02*
D03*
X13550005Y5030280D02*
D03*
X3050028Y7800057D02*
D03*
D12*
X12425000Y5080026D02*
D03*
X12860001Y5120309D02*
D03*
X3050028Y7599999D02*
D03*
X12650002Y4830223D02*
D03*
X13978841Y4826969D02*
D03*
X13550003Y4830225D02*
D03*
X13100003Y4830227D02*
D03*
X13758844Y5117032D02*
D03*
X13310001Y5117656D02*
D03*
D22*
X16598315Y3883604D02*
D03*
X13879971Y1710000D02*
D03*
X16269972Y1660000D02*
D03*
X14006746Y3980000D02*
D03*
D23*
X16398259Y3883604D02*
D03*
X16470029Y1660000D02*
D03*
X14080028Y1710000D02*
D03*
X14206802Y3980000D02*
D03*
D24*
X20960001Y6615000D02*
D03*
X19590001Y6184999D02*
D03*
X19590001Y6614999D02*
D03*
X20960002Y6185000D02*
D03*
X20960001Y8040000D02*
D03*
X19589999Y7610000D02*
D03*
Y8040000D02*
D03*
X20960001Y7610000D02*
D03*
X20960001Y5239999D02*
D03*
X19589999Y4809999D02*
D03*
X19589999Y5239999D02*
D03*
X20960001Y4810000D02*
D03*
D25*
X20375000Y5895001D02*
D03*
X20375002Y7320000D02*
D03*
X20375000Y4520000D02*
D03*
D26*
X20600002Y6910001D02*
D03*
X20600000Y8335001D02*
D03*
X20600000Y5534999D02*
D03*
D33*
X16639999Y3195000D02*
D03*
X16641805Y3130000D02*
D03*
X16464999Y3500000D02*
D03*
X16530000Y3020000D02*
D03*
X16464999D02*
D03*
X16616080Y750001D02*
D03*
X16439275Y1120001D02*
D03*
X16400000Y3501805D02*
D03*
X16335001Y3500000D02*
D03*
X16160001Y3195000D02*
D03*
X16335001Y3020000D02*
D03*
X16400000Y3018195D02*
D03*
X16160001Y3130000D02*
D03*
X16270000Y3018195D02*
D03*
X14366080Y3130000D02*
D03*
X16374274Y1121806D02*
D03*
X16309274Y1120000D02*
D03*
Y640000D02*
D03*
X16134274Y750001D02*
D03*
X14231805Y750000D02*
D03*
X14124274Y3501806D02*
D03*
X14189275Y3500000D02*
D03*
X14059274Y3500000D02*
D03*
X13884274Y3130000D02*
D03*
X14059274Y3020000D02*
D03*
X14189275D02*
D03*
X13994273Y3018195D02*
D03*
X14055000Y1120000D02*
D03*
X13989999Y1121805D02*
D03*
X14120000Y640000D02*
D03*
X13925000Y1120000D02*
D03*
Y640000D02*
D03*
X13860001Y638195D02*
D03*
X14230000Y1010000D02*
D03*
X14231805Y880000D02*
D03*
X14120000Y1121805D02*
D03*
X16134274Y945001D02*
D03*
Y815000D02*
D03*
X16614275D02*
D03*
X16616080Y880001D02*
D03*
X16614275Y945001D02*
D03*
Y1010001D02*
D03*
X16244273Y638195D02*
D03*
X16374274D02*
D03*
X16439275Y640000D02*
D03*
X16504274D02*
D03*
Y1121806D02*
D03*
X16132469Y880001D02*
D03*
Y1010001D02*
D03*
X16244273Y1120000D02*
D03*
X14055000Y640000D02*
D03*
X13989999Y638195D02*
D03*
X14230000Y945000D02*
D03*
X14230000Y815000D02*
D03*
X13750000Y750000D02*
D03*
Y815000D02*
D03*
Y945000D02*
D03*
X13748195Y880000D02*
D03*
Y1010000D02*
D03*
X13860001Y1120000D02*
D03*
X16639999Y3390000D02*
D03*
Y3325000D02*
D03*
X16641805Y3260000D02*
D03*
X16530000Y3501805D02*
D03*
X16270000Y3500000D02*
D03*
X16158195Y3390000D02*
D03*
X16160001Y3325000D02*
D03*
X16158195Y3260000D02*
D03*
X13994273Y3500000D02*
D03*
X14254274Y3501806D02*
D03*
Y3020000D02*
D03*
X14124274Y3018195D02*
D03*
X14364275Y3390000D02*
D03*
Y3325000D02*
D03*
X14366080Y3260000D02*
D03*
X14364275Y3195000D02*
D03*
X13884274D02*
D03*
X13882469Y3260000D02*
D03*
X13884274Y3325000D02*
D03*
X13882469Y3390000D02*
D03*
D34*
X16400000Y3260000D02*
D03*
X16374274Y880001D02*
D03*
X14124274Y3260000D02*
D03*
X13989999Y880000D02*
D03*
D45*
X7150000Y4845932D02*
X7600000Y4395932D01*
X7650000Y10775000D02*
X7686247D01*
X5400000Y2800000D02*
Y2820000D01*
X6625000Y9307868D02*
Y10024264D01*
X6712868Y9220000D02*
X6942132D01*
X6625000Y9307868D02*
X6712868Y9220000D01*
X4061107Y4600000D02*
X4807368D01*
X3350000D02*
X4061107D01*
X5400000Y2650000D02*
X7350000D01*
X2825000Y5125000D02*
X3350000Y4600000D01*
X537868Y5125000D02*
X2825000D01*
X450000Y5037132D02*
X537868Y5125000D01*
X450000Y3662868D02*
Y5037132D01*
X4950000Y2762868D02*
Y3474264D01*
X4862132Y3562132D02*
X4950000Y3474264D01*
X625000Y3575000D02*
X637868Y3562132D01*
X4862132D01*
X537868Y3575000D02*
X625000D01*
X450000Y3662868D02*
X537868Y3575000D01*
X7650000Y10775000D02*
X7875000Y10550000D01*
X7787132Y10112132D02*
X7875000Y10200000D01*
Y10550000D01*
X6712868Y10112132D02*
X7787132D01*
X6600000Y10775000D02*
X7650000D01*
X6625000Y10024264D02*
X6712868Y10112132D01*
X7150000Y4845932D02*
Y9012132D01*
X6942132Y9220000D02*
X7150000Y9012132D01*
X7350000Y2650000D02*
X7600000Y2900000D01*
Y4395932D01*
X5975000Y10150000D02*
X6600000Y10775000D01*
X5975000Y4687868D02*
Y5278950D01*
Y10150000D01*
X5887132Y4600000D02*
X5975000Y4687868D01*
X4807368Y4600000D02*
X5887132D01*
X5400000Y2650000D02*
Y2800000D01*
X5037868Y2675000D02*
X5375000D01*
X4950000Y2762868D02*
X5037868Y2675000D01*
X5400000Y2546000D02*
Y2650000D01*
D61*
X1678963Y4593935D02*
D03*
X1703963Y5660000D02*
D03*
D96*
X16500000Y3260000D02*
D03*
Y3360000D02*
D03*
X16400000D02*
D03*
Y3160000D02*
D03*
Y3260000D02*
D03*
X16500000Y3160000D02*
D03*
X16474274Y780000D02*
D03*
Y880001D02*
D03*
Y980001D02*
D03*
X16300000Y3160000D02*
D03*
Y3260000D02*
D03*
Y3360000D02*
D03*
X16374274Y980001D02*
D03*
X16274274Y880001D02*
D03*
Y980001D02*
D03*
X16374274Y880001D02*
D03*
Y780000D02*
D03*
X16274274D02*
D03*
X14224274Y3360000D02*
D03*
Y3260000D02*
D03*
X14124274Y3160000D02*
D03*
X14224274D02*
D03*
X14124274Y3260000D02*
D03*
Y3360000D02*
D03*
X14024274Y3160000D02*
D03*
Y3260000D02*
D03*
Y3360000D02*
D03*
X14089999Y880000D02*
D03*
Y980000D02*
D03*
Y780000D02*
D03*
X13989999Y980000D02*
D03*
Y880000D02*
D03*
X13889999Y980000D02*
D03*
Y780000D02*
D03*
Y880000D02*
D03*
X13989999Y780000D02*
D03*
D97*
X500000Y1600000D02*
D03*
Y7050000D02*
D03*
D98*
X16011301Y4150000D02*
D03*
D101*
X2212500Y2856434D02*
D03*
D102*
X9500000Y11000000D02*
D03*
X9500000Y500000D02*
D03*
D103*
X4500000Y462500D02*
D03*
D123*
X13900446Y9376781D02*
D03*
X13773444Y9376782D02*
D03*
X13646443Y9376782D02*
D03*
X13519444Y9376781D02*
D03*
X13265443Y9376782D02*
D03*
X13138445Y9376781D02*
D03*
X13011446Y9376781D02*
D03*
Y9919182D02*
D03*
X13138445Y9919181D02*
D03*
X13265446Y9919181D02*
D03*
X13519444Y9919182D02*
D03*
X13646445Y9919181D02*
D03*
X13773445Y9919182D02*
D03*
X13392445Y9376781D02*
D03*
Y9919182D02*
D03*
X13691859Y8502898D02*
D03*
X13930666Y6392084D02*
D03*
X13691859Y7960498D02*
D03*
X13564859Y8502898D02*
D03*
X13930664Y5849684D02*
D03*
X13564859Y7960498D02*
D03*
X13945859Y8502899D02*
D03*
X13818858Y8502898D02*
D03*
X13437859Y8502899D02*
D03*
X13310860Y8502898D02*
D03*
X13183859Y8502898D02*
D03*
Y7960498D02*
D03*
X13310860Y7960498D02*
D03*
X13437859Y7960499D02*
D03*
X13818858Y7960498D02*
D03*
X13945859Y7960499D02*
D03*
X14072859Y7960498D02*
D03*
X14311662Y5849684D02*
D03*
X14184663D02*
D03*
X14057664Y5849683D02*
D03*
Y6392084D02*
D03*
X14184663Y6392084D02*
D03*
D124*
X13900446Y9919182D02*
D03*
X14072859Y8502898D02*
D03*
X14311665Y6392082D02*
D03*
D125*
X15644667Y10075000D02*
D03*
X13225000Y5375000D02*
D03*
X8274998Y2300001D02*
D03*
X10774999Y1875001D02*
D03*
X12991164Y6670883D02*
D03*
X12691165Y6670882D02*
D03*
X13525000Y5375000D02*
D03*
X12700000Y5300000D02*
D03*
X12400000Y5300000D02*
D03*
X15344669Y10074999D02*
D03*
X15254802Y7774999D02*
D03*
X15554800Y7774999D02*
D03*
X16431967Y8216202D02*
D03*
X17225000Y8000000D02*
D03*
X12811359Y10162199D02*
D03*
X14128358Y8799647D02*
D03*
X9300000Y7550000D02*
D03*
X9000001Y8099999D02*
D03*
X9300000Y7300000D02*
D03*
X13580000Y5645886D02*
D03*
X9300000Y5860000D02*
D03*
X17525000Y8000000D02*
D03*
X8612721Y1621723D02*
D03*
X8912720Y1621724D02*
D03*
X15831969Y9404981D02*
D03*
X15531969D02*
D03*
X9000000Y5860000D02*
D03*
X6521723Y4500000D02*
D03*
X16131969Y8216201D02*
D03*
X13481163Y6930885D02*
D03*
X9000000Y7550000D02*
D03*
X9299999Y8100000D02*
D03*
X9000000Y7300000D02*
D03*
Y8350000D02*
D03*
X9300000D02*
D03*
X6221725Y4499999D02*
D03*
X13478662Y6670883D02*
D03*
X13178664Y6670882D02*
D03*
X15118657Y9192200D02*
D03*
X14818658Y9192199D02*
D03*
X7975000Y2299999D02*
D03*
X13111359Y10162200D02*
D03*
X16131969Y7866201D02*
D03*
X16431967Y7866202D02*
D03*
X15951967Y8096202D02*
D03*
X15651968Y8096201D02*
D03*
X13828358Y8799646D02*
D03*
X13349046Y8769646D02*
D03*
X13649046Y8769647D02*
D03*
X14129166Y6630664D02*
D03*
X14429164Y6630665D02*
D03*
X13580000Y5893435D02*
D03*
X13279999Y5893435D02*
D03*
X13181165Y6930885D02*
D03*
X13280000Y5645886D02*
D03*
X12975000Y6930885D02*
D03*
X12674999Y6930885D02*
D03*
X10475001Y1875000D02*
D03*
D126*
X15560001Y9750000D02*
D03*
X13021164Y5580884D02*
D03*
X9426467Y1382737D02*
D03*
X15559999Y9655001D02*
D03*
X9686467Y1287737D02*
D03*
X9426467D02*
D03*
Y1477737D02*
D03*
X9686467D02*
D03*
X15820000Y9845000D02*
D03*
X12761165Y5485884D02*
D03*
X15820000Y9655001D02*
D03*
X15559999Y9845000D02*
D03*
X12761164Y5675883D02*
D03*
X13021164Y5675884D02*
D03*
X13021162Y5485884D02*
D03*
D127*
X14749998Y7774999D02*
D03*
X8511955Y2375001D02*
D03*
X14750000Y7475001D02*
D03*
X16779066Y7245199D02*
D03*
X16813528Y6362200D02*
D03*
X14408360Y8837246D02*
D03*
X17149998Y3121138D02*
D03*
X15980000Y10375000D02*
D03*
X17114275Y730001D02*
D03*
X15575000Y3899999D02*
D03*
X14564273Y3910000D02*
D03*
X15889999Y2602500D02*
D03*
X15885979Y730001D02*
D03*
X14720000Y736697D02*
D03*
X13723163Y7349200D02*
D03*
X13460661Y7350000D02*
D03*
X14220381Y4849627D02*
D03*
X12190379Y4740882D02*
D03*
X13624275Y3113482D02*
D03*
X13480000Y739913D02*
D03*
X8511954Y2674999D02*
D03*
X7735847Y1225001D02*
D03*
X8886797Y2170680D02*
D03*
X8886798Y1870681D02*
D03*
X7735846Y1524999D02*
D03*
X15980000Y10075000D02*
D03*
X16150000Y9800000D02*
D03*
Y9500000D02*
D03*
X10216468Y1597395D02*
D03*
X10216466Y1897393D02*
D03*
X7400000Y1650000D02*
D03*
Y1949999D02*
D03*
X5925000Y3925000D02*
D03*
Y3625000D02*
D03*
X16813528Y6662200D02*
D03*
X14720000Y1036697D02*
D03*
X13480000Y1039913D02*
D03*
X15885979Y1030000D02*
D03*
X17114275D02*
D03*
X15575002Y3600001D02*
D03*
X14564275Y3610001D02*
D03*
X15889999Y2902500D02*
D03*
X13624274Y3413480D02*
D03*
X15889999Y3415981D02*
D03*
Y3115981D02*
D03*
X17150000Y3421137D02*
D03*
X15620000Y3412500D02*
D03*
Y3112500D02*
D03*
X8624998Y2178000D02*
D03*
X8625000Y1878002D02*
D03*
X13976459Y7649200D02*
D03*
X13976459Y7349200D02*
D03*
X15025000Y7475001D02*
D03*
X15024998Y7774999D02*
D03*
X16671968Y7936202D02*
D03*
X16671967Y8236201D02*
D03*
X14390314Y8164180D02*
D03*
X14390315Y7864182D02*
D03*
X16779066Y6945201D02*
D03*
X14408359Y8537248D02*
D03*
X13460661Y7649999D02*
D03*
X13723161Y7649199D02*
D03*
X12299102Y9768582D02*
D03*
X12299103Y9468584D02*
D03*
X12542785Y9468583D02*
D03*
Y9768583D02*
D03*
X12815945Y9467982D02*
D03*
X12815944Y9767981D02*
D03*
X14220381Y5149623D02*
D03*
X12190380Y5040882D02*
D03*
X12550000Y5825881D02*
D03*
X12550000Y5525884D02*
D03*
D128*
X14697456Y9437482D02*
D03*
X14697458Y7991200D02*
D03*
X8227399Y2082002D02*
D03*
X17069568Y7280202D02*
D03*
X17055367Y6501701D02*
D03*
X16553168Y8542701D02*
D03*
X11691199Y9411850D02*
D03*
X11148800Y7375500D02*
D03*
X10828651Y8776850D02*
D03*
Y8395850D02*
D03*
Y8268850D02*
D03*
X14697458Y9691482D02*
D03*
Y9564482D02*
D03*
X15239857Y9437481D02*
D03*
X15239857Y9564482D02*
D03*
X15239857Y9818481D02*
D03*
X15239857Y9691482D02*
D03*
X7684999Y1828002D02*
D03*
X7684999Y1955001D02*
D03*
X7684999Y2082003D02*
D03*
X8227400Y1955001D02*
D03*
Y1828001D02*
D03*
X7684999Y1701001D02*
D03*
X16010768Y8542701D02*
D03*
X11148800Y8649850D02*
D03*
X11148798Y8522851D02*
D03*
X10828651Y8522849D02*
D03*
X11691200Y8264500D02*
D03*
X10286250Y7887850D02*
D03*
X10286251Y8522850D02*
D03*
X10286250Y8141850D02*
D03*
X17611967Y7534202D02*
D03*
X17055367Y6755699D02*
D03*
X15239857Y8245198D02*
D03*
X17055367Y6628699D02*
D03*
X17597765Y6501699D02*
D03*
X17597766Y6628699D02*
D03*
Y6755699D02*
D03*
X17597766Y6882698D02*
D03*
X17611967Y7661201D02*
D03*
X17611967Y7407202D02*
D03*
X17611967Y7280201D02*
D03*
X17069568Y7407202D02*
D03*
Y7534202D02*
D03*
X14697458Y8245198D02*
D03*
Y8118198D02*
D03*
X15239857Y7991198D02*
D03*
X15239857Y8118198D02*
D03*
X15239857Y8372197D02*
D03*
X16553168Y8796701D02*
D03*
X16553168Y8669701D02*
D03*
X16553168Y8415701D02*
D03*
X16010768Y8415702D02*
D03*
X16010768Y8669701D02*
D03*
X11691200Y8649850D02*
D03*
X11691199Y8776850D02*
D03*
X11691198Y8903851D02*
D03*
X11691199Y9030851D02*
D03*
X11691200Y9157849D02*
D03*
X11691199Y9284851D02*
D03*
X11148799Y9411850D02*
D03*
X11148798Y9284851D02*
D03*
X11148799Y9157851D02*
D03*
X11148799Y9030851D02*
D03*
X11148798Y8903851D02*
D03*
X11148798Y8776851D02*
D03*
X11148800Y8137500D02*
D03*
Y8010500D02*
D03*
X11148800Y7883500D02*
D03*
Y7756500D02*
D03*
X11148801Y7502500D02*
D03*
X11691200Y7375500D02*
D03*
X11691200Y7502500D02*
D03*
X11691200Y7629500D02*
D03*
X11691200Y7756500D02*
D03*
X11691200Y7883500D02*
D03*
X11691200Y8010499D02*
D03*
X11691200Y8137500D02*
D03*
X11148800Y7629501D02*
D03*
X10828651Y8014850D02*
D03*
X10828650Y8141850D02*
D03*
X10828650Y8649850D02*
D03*
X10286250Y8776850D02*
D03*
Y8395850D02*
D03*
X10286251Y8014850D02*
D03*
X10286250Y8649850D02*
D03*
X10286250Y8268850D02*
D03*
D129*
X15930000Y3870000D02*
D03*
X16718246Y9204201D02*
D03*
X16065366D02*
D03*
X16860001Y3093260D02*
D03*
X16824274Y697501D02*
D03*
X14564275Y3091519D02*
D03*
X14430000Y697500D02*
D03*
X12550000Y6200001D02*
D03*
X12550001Y6000001D02*
D03*
X14430000Y897500D02*
D03*
X16824274Y897501D02*
D03*
X16860001Y3293259D02*
D03*
X15930000Y3670000D02*
D03*
X14564275Y3291519D02*
D03*
X15691968Y8610202D02*
D03*
X15691968Y8410201D02*
D03*
X15681969Y9004200D02*
D03*
X15681969Y8804201D02*
D03*
X16718246Y9004200D02*
D03*
X16065366D02*
D03*
X16290315Y9204201D02*
D03*
X16290315Y9004200D02*
D03*
X16500314Y9204201D02*
D03*
X16500314Y9004200D02*
D03*
X15471968Y8610201D02*
D03*
X15471968Y8410201D02*
D03*
D130*
X9976468Y2105435D02*
D03*
X9128911Y2106388D02*
D03*
X9976470Y1866587D02*
D03*
X9128910Y1876388D02*
D03*
X9356910Y1876389D02*
D03*
X9356910Y2106388D02*
D03*
X9748467Y2105435D02*
D03*
X9748469Y1866588D02*
D03*
D131*
X13300000Y3620000D02*
D03*
X17199066Y6302200D02*
D03*
X13255727Y1459999D02*
D03*
X15700000Y1250000D02*
D03*
X15500000D02*
D03*
X13455727Y1459999D02*
D03*
X13500000Y3620000D02*
D03*
X17399066Y6302199D02*
D03*
X14217163Y5420383D02*
D03*
X13041164Y5943479D02*
D03*
X12841164Y5943479D02*
D03*
X14211162Y5620883D02*
D03*
X14011163Y5620884D02*
D03*
X14017162Y5420383D02*
D03*
D132*
X19179999Y1754738D02*
D03*
X19855000Y3779738D02*
D03*
X19805002Y2079737D02*
D03*
X19255000Y3554737D02*
D03*
D133*
X19085001Y1919282D02*
D03*
X19710001Y2244281D02*
D03*
X19160002Y3719283D02*
D03*
X19760001Y3944281D02*
D03*
D134*
X19395261Y2480002D02*
D03*
X19682214Y3453803D02*
D03*
X19770262Y1704999D02*
D03*
X19495264Y4199592D02*
D03*
D135*
X19230719Y2385002D02*
D03*
X19605717Y1610000D02*
D03*
X19330717Y4104593D02*
D03*
X19517671Y3358802D02*
D03*
D136*
X16181967Y7490201D02*
D03*
X16381967D02*
D03*
X16331967D02*
D03*
X16281969D02*
D03*
X16231969D02*
D03*
X16181967Y7045202D02*
D03*
X16231969D02*
D03*
X16281967D02*
D03*
X16331967D02*
D03*
X16381967D02*
D03*
D137*
X15773528Y6753200D02*
D03*
X10270000Y6865854D02*
D03*
Y5687704D02*
D03*
Y7373854D02*
D03*
X15183528Y5991200D02*
D03*
X10860000Y7627854D02*
D03*
Y7119854D02*
D03*
Y6449704D02*
D03*
X10270000Y7246854D02*
D03*
Y7119854D02*
D03*
X10860000Y6322704D02*
D03*
X15773528Y6118200D02*
D03*
X15773528Y6245200D02*
D03*
X15773528Y6372200D02*
D03*
X15773529Y6499200D02*
D03*
Y6626200D02*
D03*
X15183528Y6753200D02*
D03*
X15183528Y6626200D02*
D03*
X15183528Y6499199D02*
D03*
Y6372200D02*
D03*
Y6245200D02*
D03*
X15183528Y6118200D02*
D03*
X10270000Y6322704D02*
D03*
Y6195704D02*
D03*
Y6068704D02*
D03*
Y5941704D02*
D03*
Y5814704D02*
D03*
X10860000Y5687704D02*
D03*
Y5814704D02*
D03*
Y5941704D02*
D03*
Y6068704D02*
D03*
Y6195704D02*
D03*
X10270000Y7500854D02*
D03*
Y6992854D02*
D03*
X10860000Y6865854D02*
D03*
Y7246854D02*
D03*
Y7373854D02*
D03*
Y7500854D02*
D03*
Y6992854D02*
D03*
D138*
X11691198Y8522851D02*
D03*
X14697458Y9818482D02*
D03*
X8227399Y1701001D02*
D03*
X17055367Y6882700D02*
D03*
X17069568Y7661202D02*
D03*
X14697458Y8372199D02*
D03*
X16010768Y8796702D02*
D03*
X11148800Y8264500D02*
D03*
X10828651Y7887850D02*
D03*
D139*
X2425000Y6870000D02*
D03*
X2425000Y7330000D02*
D03*
X2425000Y7100000D02*
D03*
D140*
X12841164Y6133384D02*
D03*
X13281163Y6328382D02*
D03*
X13281163Y6133384D02*
D03*
X12841167Y6198383D02*
D03*
X12841164Y6328383D02*
D03*
X12841164Y6263384D02*
D03*
X13281163Y6198383D02*
D03*
X13281163Y6263383D02*
D03*
D141*
X11190000Y6150000D02*
D03*
X11420000Y6055000D02*
D03*
X11190000Y5959999D02*
D03*
D142*
X9012109Y2780000D02*
D03*
Y2470000D02*
D03*
D143*
X21825000Y249791D02*
D03*
Y1000000D02*
D03*
X21025000Y249790D02*
D03*
X21825000Y11250209D02*
D03*
Y10500000D02*
D03*
X21025000Y11250210D02*
D03*
X175000Y11250209D02*
D03*
Y10500000D02*
D03*
X975000Y11250210D02*
D03*
X249791Y175000D02*
D03*
X1000000D02*
D03*
X249790Y975000D02*
D03*
D144*
X6655000Y3751697D02*
D03*
X6345000D02*
D03*
D145*
X2300001Y4584999D02*
D03*
X1100000Y4585000D02*
D03*
X1100001Y5665001D02*
D03*
X2300000Y5665000D02*
D03*
D146*
X15773528Y5991200D02*
D03*
X10270000Y6449704D02*
D03*
Y7627854D02*
D03*
D147*
X3025000Y7099999D02*
D03*
D148*
X500000Y1600000D02*
D03*
X1700000Y4400000D02*
D03*
X9500000Y11000000D02*
D03*
Y500000D02*
D03*
X500000Y7050000D02*
D03*
X11000000Y500000D02*
D03*
X1700000Y5850000D02*
D03*
X500000Y500000D02*
D03*
X11800000Y11000000D02*
D03*
X500000D02*
D03*
X21500000Y500000D02*
D03*
Y11000000D02*
D03*
X12500000D02*
D03*
X11000000D02*
D03*
D149*
X20000000Y11000000D02*
D03*
X2000000Y500000D02*
D03*
X20000000D02*
D03*
D150*
X19150000Y4475000D02*
D03*
X19121982Y6184999D02*
D03*
X16550000Y2200000D02*
D03*
X10350000Y3000000D02*
D03*
X19133603Y7450000D02*
D03*
X15020000Y8760827D02*
D03*
X8100000Y1150000D02*
D03*
X8271150Y1500000D02*
D03*
X15375000Y8854201D02*
D03*
X12190380Y5825881D02*
D03*
Y5525884D02*
D03*
X9922219Y1387737D02*
D03*
X11276901Y9975000D02*
D03*
X11450000Y6675000D02*
D03*
X13700000Y6198383D02*
D03*
X16425000Y9750000D02*
D03*
X17600000Y5975000D02*
D03*
X16779066Y7600000D02*
D03*
X17125000Y8542701D02*
D03*
X6985000Y1930000D02*
D03*
Y3180000D02*
D03*
X7575000Y9150000D02*
D03*
X6000000Y1950000D02*
D03*
X7575000Y10400000D02*
D03*
X6000000Y3200000D02*
D03*
D151*
X15330000Y10470000D02*
D03*
X14730000Y10469999D02*
D03*
X15130000Y10470000D02*
D03*
X14330000Y10470000D02*
D03*
X14929999D02*
D03*
X14129999Y10470000D02*
D03*
X14530000Y10470000D02*
D03*
X14730000Y10670000D02*
D03*
X14530000Y10670001D02*
D03*
X14330000Y10670000D02*
D03*
X14130000Y10669999D02*
D03*
X13930000Y10670000D02*
D03*
X14930000D02*
D03*
X15130000Y10670000D02*
D03*
X15330000Y10670000D02*
D03*
D152*
X3550000Y10250000D02*
D03*
X3000000Y5779237D02*
D03*
X4807368Y4600000D02*
D03*
X4061107D02*
D03*
X21000000Y7250000D02*
D03*
Y6950000D02*
D03*
Y7100000D02*
D03*
Y5675000D02*
D03*
Y5525000D02*
D03*
Y5825000D02*
D03*
X20700304Y4405000D02*
D03*
X20900000D02*
D03*
X21100000D02*
D03*
X14250000Y8940000D02*
D03*
X8674999Y2750000D02*
D03*
D153*
X18149277Y1500001D02*
D03*
Y2000001D02*
D03*
X18150000Y2650000D02*
D03*
X18150002Y2999997D02*
D03*
X18149277Y4130000D02*
D03*
Y3630001D02*
D03*
D154*
X6910000Y9433000D02*
D03*
Y8925000D02*
D03*
Y9941000D02*
D03*
X6884000Y5775000D02*
D03*
X7900000D02*
D03*
X7392000D02*
D03*
X6884000Y4950000D02*
D03*
X7392000D02*
D03*
X8010000D02*
D03*
X8475000Y8934000D02*
D03*
X7392000Y6600000D02*
D03*
X7900000D02*
D03*
X6884000D02*
D03*
Y8243818D02*
D03*
X7392000D02*
D03*
X7900000D02*
D03*
X7392000Y7425000D02*
D03*
X7900000D02*
D03*
X6884000D02*
D03*
X8475000Y9442000D02*
D03*
Y9950000D02*
D03*
D155*
X6910786Y10446682D02*
D03*
X8475000Y10458000D02*
D03*
D156*
X8408000Y5775000D02*
D03*
Y4950000D02*
D03*
Y6600000D02*
D03*
Y8243818D02*
D03*
Y7425000D02*
D03*
D157*
X5400000Y3054000D02*
D03*
D158*
Y2292000D02*
D03*
Y2800000D02*
D03*
Y2546000D02*
D03*
X11050000Y2725000D02*
D03*
D159*
X16399066Y6332200D02*
D03*
Y6532200D02*
D03*
D160*
X477500Y9537500D02*
D03*
X472500Y8972500D02*
D03*
X4810066Y3925000D02*
D03*
X4175000D02*
D03*
X4260000Y10805000D02*
D03*
X4825000Y10800000D02*
D03*
D161*
X2925000Y8468000D02*
D03*
Y10500000D02*
D03*
D162*
X8585000Y3250000D02*
D03*
X8035000Y4100000D02*
D03*
X7315000Y3250000D02*
D03*
X6765000Y4100000D02*
D03*
D163*
X6500000Y1421967D02*
D03*
Y3171967D02*
D03*
D164*
X20700000Y2314000D02*
D03*
Y3330000D02*
D03*
Y3838000D02*
D03*
Y1806000D02*
D03*
Y2822000D02*
D03*
D165*
X1250000Y2750000D02*
D03*
X3190000D02*
D03*
X1250000Y9250000D02*
D03*
D166*
X13930000Y10469999D02*
D03*
D167*
X11304000Y2725000D02*
D03*
D168*
X825000Y7380029D02*
D03*
X175000D02*
D03*
X817329Y6725000D02*
D03*
X175000D02*
D03*
X150000Y1950000D02*
D03*
X850000D02*
D03*
X9850000Y11300000D02*
D03*
Y10700000D02*
D03*
X9150000D02*
D03*
Y11300000D02*
D03*
X9850000Y775000D02*
D03*
X9150000D02*
D03*
X9850000Y175000D02*
D03*
X9150000D02*
D03*
X4850000Y800000D02*
D03*
X4150000D02*
D03*
X4850000Y200000D02*
D03*
X4150000D02*
D03*
D169*
X11647450Y6992854D02*
D03*
X11250000Y8400000D02*
D03*
X11025000Y8395850D02*
D03*
X9875000Y8625000D02*
D03*
X16380000Y10061173D02*
D03*
X14375961Y10055000D02*
D03*
X13525000Y9175000D02*
D03*
X13050000Y9125000D02*
D03*
X13911395Y8975000D02*
D03*
Y9175000D02*
D03*
X13600000Y9050000D02*
D03*
X13359946Y10134260D02*
D03*
X14039999Y9905010D02*
D03*
X14893124Y9437482D02*
D03*
X14653708Y8537235D02*
D03*
X15110001Y4025000D02*
D03*
X15088860Y2436139D02*
D03*
X14475417Y7444583D02*
D03*
X14250000Y7670000D02*
D03*
X14375000Y6875000D02*
D03*
X14039999Y5240000D02*
D03*
X13714839Y8319779D02*
D03*
X9556467Y2100000D02*
D03*
X8420000Y2200000D02*
D03*
X13396378Y8140026D02*
D03*
X12626255Y10350022D02*
D03*
X12073067D02*
D03*
X12800000Y8880431D02*
D03*
X12825000Y8200000D02*
D03*
X2700000Y7844591D02*
D03*
X2025000Y7825000D02*
D03*
X15493033Y8248783D02*
D03*
X15229802Y7475001D02*
D03*
X15339999Y4025000D02*
D03*
X13564859Y8319779D02*
D03*
X12622785Y10082199D02*
D03*
X15025000Y10100000D02*
D03*
X16125000Y6025000D02*
D03*
X16075000Y5500000D02*
D03*
X15075000Y5075000D02*
D03*
X2275000Y8475000D02*
D03*
X13102444Y8880431D02*
D03*
X12950000Y8350000D02*
D03*
X14461703Y4710121D02*
D03*
X14925000Y6000000D02*
D03*
Y5825000D02*
D03*
X16775000Y8519669D02*
D03*
X12100000Y3200000D02*
D03*
Y3850000D02*
D03*
X9475000Y5900000D02*
D03*
X12275000Y5300000D02*
D03*
Y6083081D02*
D03*
X13300000Y6475000D02*
D03*
X13617300Y6850885D02*
D03*
X12450581Y6353137D02*
D03*
X12661163Y6700000D02*
D03*
Y6353137D02*
D03*
X13550000Y6359545D02*
D03*
X13552345Y6144271D02*
D03*
X12879626Y5250000D02*
D03*
X11900000Y8522851D02*
D03*
X17688219Y7125000D02*
D03*
X17778375Y6025000D02*
D03*
X17075000Y8175000D02*
D03*
X17250000Y7113325D02*
D03*
X13778465Y5806188D02*
D03*
X13825000Y5633383D02*
D03*
X15700000Y9581788D02*
D03*
X15400000Y9400000D02*
D03*
X15955000Y9550000D02*
D03*
X15925000Y9937696D02*
D03*
X15325000Y7150000D02*
D03*
X16870000Y9090000D02*
D03*
X17100000Y7100000D02*
D03*
X17011617Y6362200D02*
D03*
X16380000Y9450000D02*
D03*
X16325000Y8186201D02*
D03*
X15849066Y7542200D02*
D03*
X15851010Y7290100D02*
D03*
X15849066Y7432200D02*
D03*
Y7652200D02*
D03*
X15851010Y7023784D02*
D03*
X15958066Y6703639D02*
D03*
X14500000Y7175000D02*
D03*
X16589999Y2945112D02*
D03*
X16416168Y2937725D02*
D03*
X16242500Y2945112D02*
D03*
X14770001Y3910000D02*
D03*
X11767449Y9518584D02*
D03*
X11190000Y6263804D02*
D03*
X11148801Y7268067D02*
D03*
X10828651Y8880870D02*
D03*
X10441001Y6871458D02*
D03*
X9270000Y7830000D02*
D03*
X9150000D02*
D03*
X9030000D02*
D03*
X14217163Y4961505D02*
D03*
X12000000Y4740000D02*
D03*
X10090000Y5680000D02*
D03*
X7075000Y1450000D02*
D03*
X7775000Y1550000D02*
D03*
X15050000Y4230000D02*
D03*
X11914776Y7775000D02*
D03*
X11525000Y7400000D02*
D03*
X10999369Y6725000D02*
D03*
X11450000Y6475000D02*
D03*
X10589655Y6722700D02*
D03*
X10689999Y6639999D02*
D03*
X8050000Y9300000D02*
D03*
Y9825000D02*
D03*
X16525000Y10875000D02*
D03*
X12825000Y2225000D02*
D03*
X9556467Y1843532D02*
D03*
X15856201Y8296201D02*
D03*
X13609169Y7819169D02*
D03*
X13120000Y4250000D02*
D03*
X10980000Y8626869D02*
D03*
X11935618Y8264500D02*
D03*
X12989999Y7760000D02*
D03*
X10860000Y7743834D02*
D03*
X10317901Y7752444D02*
D03*
X10987136Y7141067D02*
D03*
X13122086Y2225000D02*
D03*
X9650000Y8625000D02*
D03*
Y8925000D02*
D03*
X11347699Y8871351D02*
D03*
X9850000Y6800000D02*
D03*
X9760000Y6670000D02*
D03*
X12970000Y7520000D02*
D03*
X15068657Y9691482D02*
D03*
X15260001Y9263407D02*
D03*
X14380000Y5110000D02*
D03*
X12989999Y4270000D02*
D03*
X11900000Y8776850D02*
D03*
X12000000Y7500000D02*
D03*
X12020000Y6982407D02*
D03*
X11900000Y6972700D02*
D03*
X13295979Y7499200D02*
D03*
X17723080Y5593186D02*
D03*
X16531009Y7061084D02*
D03*
X16546165Y7652200D02*
D03*
Y7542200D02*
D03*
Y7432200D02*
D03*
X16399066Y6822200D02*
D03*
X16166966D02*
D03*
X16551010Y7251084D02*
D03*
X11310000Y6992854D02*
D03*
X10987136Y6997449D02*
D03*
X11275156Y9564844D02*
D03*
X11276901Y9764060D02*
D03*
X16330000Y10690000D02*
D03*
D170*
X15752499Y4152002D02*
D03*
X16272501Y4147002D02*
D03*
X13155000Y3890000D02*
D03*
X13150000Y3370000D02*
D03*
Y3650000D02*
D03*
X13020000Y1140000D02*
D03*
X13025000Y1660000D02*
D03*
X15000000Y1475000D02*
D03*
X14760001Y1480000D02*
D03*
X14480000D02*
D03*
D171*
X18825000Y4050000D02*
D03*
X19300000Y4650000D02*
D03*
X19767632Y4277225D02*
D03*
X20031444Y1350000D02*
D03*
X20050000Y1825000D02*
D03*
X17439452Y4085548D02*
D03*
X19050000Y6614999D02*
D03*
%TF.MD5,2881aea6fa1634bb8f5d307fd06b30bc*%
M02*
