G04*
G04 #@! TF.GenerationSoftware,Altium Limited,Altium Designer,24.3.1 (35)*
G04*
G04 Layer_Physical_Order=2*
G04 Layer_Color=16711680*
%FSLAX25Y25*%
%MOIN*%
G70*
G04*
G04 #@! TF.SameCoordinates,93CE9DFF-0CCD-43E9-96D4-8759F4791444*
G04*
G04*
G04 #@! TF.FilePolarity,Positive*
G04*
G01*
G75*
%ADD23C,0.03937*%
%ADD51C,0.01968*%
%ADD52C,0.01500*%
%ADD53C,0.01000*%
%ADD57R,0.05118X0.05118*%
%ADD58C,0.05118*%
%ADD59C,0.08661*%
%ADD60C,0.11811*%
%ADD61R,0.05118X0.05118*%
%ADD62C,0.03150*%
G36*
X862205Y-82677D02*
X848724D01*
X848460Y-81693D01*
X848642Y-81588D01*
X849305Y-80926D01*
X849773Y-80114D01*
X850016Y-79209D01*
Y-78272D01*
X849773Y-77366D01*
X849305Y-76555D01*
X848642Y-75892D01*
X847830Y-75424D01*
X847416Y-75313D01*
Y-74294D01*
X847830Y-74183D01*
X848642Y-73714D01*
X849305Y-73051D01*
X849773Y-72240D01*
X850016Y-71335D01*
Y-70398D01*
X849773Y-69492D01*
X849305Y-68681D01*
X848642Y-68018D01*
X847830Y-67550D01*
X847416Y-67439D01*
Y-66420D01*
X847830Y-66309D01*
X848642Y-65840D01*
X849305Y-65177D01*
X849773Y-64366D01*
X850016Y-63461D01*
Y-62524D01*
X849773Y-61618D01*
X849305Y-60807D01*
X848642Y-60144D01*
X847830Y-59676D01*
X847416Y-59565D01*
Y-58546D01*
X847830Y-58435D01*
X848642Y-57966D01*
X849305Y-57303D01*
X849773Y-56492D01*
X850016Y-55587D01*
Y-54650D01*
X849773Y-53744D01*
X849305Y-52933D01*
X848642Y-52270D01*
X847830Y-51802D01*
X847416Y-51691D01*
Y-50672D01*
X847830Y-50561D01*
X848642Y-50092D01*
X849305Y-49429D01*
X849773Y-48618D01*
X850007Y-47744D01*
X846457D01*
Y-46744D01*
X850007D01*
X849773Y-45870D01*
X849305Y-45059D01*
X848642Y-44396D01*
X847830Y-43928D01*
X847416Y-43817D01*
Y-42798D01*
X847830Y-42687D01*
X848642Y-42218D01*
X849305Y-41555D01*
X849773Y-40744D01*
X850016Y-39839D01*
Y-38901D01*
X849773Y-37996D01*
X849305Y-37185D01*
X848642Y-36522D01*
X847830Y-36054D01*
X846925Y-35811D01*
X845988D01*
X845083Y-36054D01*
X844271Y-36522D01*
X843609Y-37185D01*
X843140Y-37996D01*
X843126Y-38049D01*
X842142Y-37920D01*
Y-35811D01*
X839083D01*
Y-39370D01*
X838583D01*
Y-39870D01*
X835024D01*
Y-42929D01*
X837132D01*
X837262Y-43913D01*
X837209Y-43928D01*
X836397Y-44396D01*
X835735Y-45059D01*
X835266Y-45870D01*
X835024Y-46775D01*
Y-47713D01*
X835266Y-48618D01*
X835735Y-49429D01*
X836397Y-50092D01*
X837209Y-50561D01*
X837623Y-50672D01*
Y-51691D01*
X837209Y-51802D01*
X836397Y-52270D01*
X835735Y-52933D01*
X835266Y-53744D01*
X835024Y-54650D01*
Y-55587D01*
X835266Y-56492D01*
X835735Y-57303D01*
X836397Y-57966D01*
X837209Y-58435D01*
X837623Y-58546D01*
Y-59565D01*
X837209Y-59676D01*
X836397Y-60144D01*
X835735Y-60807D01*
X835266Y-61618D01*
X835032Y-62492D01*
X838583D01*
Y-63492D01*
X835032D01*
X835266Y-64366D01*
X835735Y-65177D01*
X836397Y-65840D01*
X837209Y-66309D01*
X837623Y-66420D01*
Y-67439D01*
X837209Y-67550D01*
X836397Y-68018D01*
X835735Y-68681D01*
X835266Y-69492D01*
X835024Y-70398D01*
Y-71335D01*
X835266Y-72240D01*
X835735Y-73051D01*
X836397Y-73714D01*
X837209Y-74183D01*
X837623Y-74294D01*
Y-75313D01*
X837209Y-75424D01*
X836397Y-75892D01*
X835735Y-76555D01*
X835266Y-77366D01*
X835032Y-78240D01*
X838583D01*
Y-79240D01*
X835032D01*
X835266Y-80114D01*
X835735Y-80926D01*
X836397Y-81588D01*
X836579Y-81693D01*
X836315Y-82677D01*
X831399D01*
X823864Y-75143D01*
Y-72711D01*
X823748Y-72125D01*
X823416Y-71629D01*
X810008Y-58221D01*
X810193Y-57530D01*
Y-56608D01*
X809954Y-55718D01*
X809494Y-54920D01*
X808842Y-54268D01*
X808044Y-53807D01*
X807154Y-53569D01*
X806232D01*
X805342Y-53807D01*
X804544Y-54268D01*
X803892Y-54920D01*
X803431Y-55718D01*
X803193Y-56608D01*
Y-57176D01*
X802209Y-57439D01*
X802013Y-57101D01*
X801362Y-56449D01*
X800564Y-55989D01*
X799673Y-55750D01*
X798752D01*
X797862Y-55989D01*
X797064Y-56449D01*
X796412Y-57101D01*
X795951Y-57899D01*
X795713Y-58789D01*
Y-59711D01*
X795459Y-60041D01*
X794409Y-60120D01*
X793611Y-59660D01*
X792721Y-59421D01*
X791799D01*
X790909Y-59660D01*
X790111Y-60120D01*
X789941Y-60290D01*
X682153D01*
X682087Y-60116D01*
X681890Y-60313D01*
X540097Y-60212D01*
X539689Y-59228D01*
X539856Y-59061D01*
X540195Y-58474D01*
X540327Y-57980D01*
X535264D01*
X535396Y-58474D01*
X535735Y-59061D01*
X535899Y-59225D01*
X535491Y-60209D01*
X285946Y-60032D01*
X285525Y-59061D01*
X285864Y-58474D01*
X285996Y-57980D01*
X280933D01*
X281065Y-58474D01*
X281404Y-59061D01*
X280980Y-60029D01*
X126854Y-59919D01*
Y-43701D01*
X519808D01*
X519872Y-43738D01*
X520527Y-43913D01*
X521205D01*
X521860Y-43738D01*
X521924Y-43701D01*
X682283D01*
X682366Y-43618D01*
X706011D01*
X708055Y-45662D01*
Y-45715D01*
X708231Y-46370D01*
X708570Y-46957D01*
X709049Y-47436D01*
X709636Y-47775D01*
X710291Y-47951D01*
X710969D01*
X711624Y-47775D01*
X712211Y-47436D01*
X712690Y-46957D01*
X713029Y-46370D01*
X713205Y-45715D01*
Y-45037D01*
X713088Y-44603D01*
X713417Y-43956D01*
X713725Y-43618D01*
X792010D01*
X795176Y-40452D01*
X806605Y-40550D01*
X806693Y-40551D01*
X807087Y-40945D01*
X807558Y-40474D01*
X807558Y-40024D01*
Y-28071D01*
X807790Y-27839D01*
X807480Y-27529D01*
Y-5512D01*
X862205D01*
Y-82677D01*
D02*
G37*
%LPC*%
G36*
X838083Y-35811D02*
X835024D01*
Y-38870D01*
X838083D01*
Y-35811D01*
D02*
G37*
G36*
X656229Y-45893D02*
Y-47925D01*
X658261D01*
X658128Y-47431D01*
X657789Y-46844D01*
X657310Y-46365D01*
X656723Y-46026D01*
X656229Y-45893D01*
D02*
G37*
G36*
X655229D02*
X654735Y-46026D01*
X654148Y-46365D01*
X653669Y-46844D01*
X653330Y-47431D01*
X653197Y-47925D01*
X655229D01*
Y-45893D01*
D02*
G37*
G36*
X250106Y-48649D02*
Y-50681D01*
X252138D01*
X252006Y-50187D01*
X251667Y-49600D01*
X251187Y-49121D01*
X250600Y-48782D01*
X250106Y-48649D01*
D02*
G37*
G36*
X249106D02*
X248612Y-48782D01*
X248025Y-49121D01*
X247546Y-49600D01*
X247207Y-50187D01*
X247075Y-50681D01*
X249106D01*
Y-48649D01*
D02*
G37*
G36*
X171366Y-48750D02*
Y-50782D01*
X173398D01*
X173266Y-50288D01*
X172926Y-49701D01*
X172447Y-49222D01*
X171860Y-48883D01*
X171366Y-48750D01*
D02*
G37*
G36*
X170366D02*
X169872Y-48883D01*
X169285Y-49222D01*
X168806Y-49701D01*
X168467Y-50288D01*
X168334Y-50782D01*
X170366D01*
Y-48750D01*
D02*
G37*
G36*
X629634Y-48849D02*
Y-50880D01*
X631666D01*
X631533Y-50387D01*
X631194Y-49799D01*
X630715Y-49320D01*
X630128Y-48981D01*
X629634Y-48849D01*
D02*
G37*
G36*
X628634D02*
X628140Y-48981D01*
X627553Y-49320D01*
X627073Y-49799D01*
X626734Y-50387D01*
X626602Y-50880D01*
X628634D01*
Y-48849D01*
D02*
G37*
G36*
X658261Y-48925D02*
X656229D01*
Y-50957D01*
X656723Y-50824D01*
X657310Y-50486D01*
X657789Y-50006D01*
X658128Y-49419D01*
X658261Y-48925D01*
D02*
G37*
G36*
X655229D02*
X653197D01*
X653330Y-49419D01*
X653669Y-50006D01*
X654148Y-50486D01*
X654735Y-50824D01*
X655229Y-50957D01*
Y-48925D01*
D02*
G37*
G36*
X514280Y-49437D02*
Y-51468D01*
X516311D01*
X516179Y-50975D01*
X515840Y-50388D01*
X515360Y-49908D01*
X514773Y-49569D01*
X514280Y-49437D01*
D02*
G37*
G36*
X513279D02*
X512786Y-49569D01*
X512199Y-49908D01*
X511719Y-50388D01*
X511380Y-50975D01*
X511248Y-51468D01*
X513279D01*
Y-49437D01*
D02*
G37*
G36*
X616248Y-49830D02*
Y-51862D01*
X618280D01*
X618147Y-51368D01*
X617808Y-50781D01*
X617329Y-50302D01*
X616742Y-49963D01*
X616248Y-49830D01*
D02*
G37*
G36*
X615248D02*
X614754Y-49963D01*
X614167Y-50302D01*
X613688Y-50781D01*
X613349Y-51368D01*
X613216Y-51862D01*
X615248D01*
Y-49830D01*
D02*
G37*
G36*
X233177Y-50178D02*
Y-52209D01*
X235209D01*
X235076Y-51715D01*
X234737Y-51128D01*
X234258Y-50649D01*
X233671Y-50310D01*
X233177Y-50178D01*
D02*
G37*
G36*
X232177D02*
X231683Y-50310D01*
X231096Y-50649D01*
X230617Y-51128D01*
X230278Y-51715D01*
X230146Y-52209D01*
X232177D01*
Y-50178D01*
D02*
G37*
G36*
X157193Y-50178D02*
Y-52209D01*
X159225D01*
X159092Y-51715D01*
X158753Y-51128D01*
X158274Y-50649D01*
X157687Y-50310D01*
X157193Y-50178D01*
D02*
G37*
G36*
X156193D02*
X155699Y-50310D01*
X155112Y-50649D01*
X154633Y-51128D01*
X154294Y-51715D01*
X154161Y-52209D01*
X156193D01*
Y-50178D01*
D02*
G37*
G36*
X252138Y-51681D02*
X250106D01*
Y-53713D01*
X250600Y-53580D01*
X251187Y-53241D01*
X251667Y-52762D01*
X252006Y-52175D01*
X252138Y-51681D01*
D02*
G37*
G36*
X249106D02*
X247075D01*
X247207Y-52175D01*
X247546Y-52762D01*
X248025Y-53241D01*
X248612Y-53580D01*
X249106Y-53713D01*
Y-51681D01*
D02*
G37*
G36*
X173398Y-51782D02*
X171366D01*
Y-53814D01*
X171860Y-53681D01*
X172447Y-53342D01*
X172926Y-52863D01*
X173266Y-52276D01*
X173398Y-51782D01*
D02*
G37*
G36*
X170366D02*
X168334D01*
X168467Y-52276D01*
X168806Y-52863D01*
X169285Y-53342D01*
X169872Y-53681D01*
X170366Y-53814D01*
Y-51782D01*
D02*
G37*
G36*
X631666Y-51881D02*
X629634D01*
Y-53912D01*
X630128Y-53780D01*
X630715Y-53441D01*
X631194Y-52961D01*
X631533Y-52374D01*
X631666Y-51881D01*
D02*
G37*
G36*
X628634D02*
X626602D01*
X626734Y-52374D01*
X627073Y-52961D01*
X627553Y-53441D01*
X628140Y-53780D01*
X628634Y-53912D01*
Y-51881D01*
D02*
G37*
G36*
X516311Y-52469D02*
X514280D01*
Y-54500D01*
X514773Y-54368D01*
X515360Y-54029D01*
X515840Y-53549D01*
X516179Y-52962D01*
X516311Y-52469D01*
D02*
G37*
G36*
X513279D02*
X511248D01*
X511380Y-52962D01*
X511719Y-53549D01*
X512199Y-54029D01*
X512786Y-54368D01*
X513279Y-54500D01*
Y-52469D01*
D02*
G37*
G36*
X824820Y-21000D02*
X823899D01*
X823008Y-21238D01*
X822210Y-21699D01*
X821559Y-22351D01*
X821098Y-23149D01*
X820859Y-24039D01*
Y-24462D01*
X820577Y-25088D01*
X819950Y-25371D01*
X819528D01*
X818638Y-25609D01*
X817840Y-26070D01*
X817188Y-26722D01*
X816727Y-27520D01*
X816489Y-28410D01*
Y-29331D01*
X816727Y-30222D01*
X817188Y-31020D01*
X817840Y-31671D01*
X818459Y-32029D01*
Y-51091D01*
X818576Y-51676D01*
X818907Y-52172D01*
X819919Y-53184D01*
X819640Y-53463D01*
X819180Y-54261D01*
X818941Y-55151D01*
Y-56073D01*
X819180Y-56963D01*
X819640Y-57761D01*
X820292Y-58413D01*
X821090Y-58874D01*
X821980Y-59112D01*
X822902D01*
X823792Y-58874D01*
X824590Y-58413D01*
X825242Y-57761D01*
X825702Y-56963D01*
X825941Y-56073D01*
Y-55151D01*
X825784Y-54567D01*
X826428Y-54100D01*
X826657Y-54020D01*
X827389Y-54443D01*
X828279Y-54681D01*
X829201D01*
X830091Y-54443D01*
X830889Y-53982D01*
X831541Y-53330D01*
X832002Y-52532D01*
X832240Y-51642D01*
Y-50720D01*
X832002Y-49830D01*
X831541Y-49032D01*
X830889Y-48380D01*
X830524Y-48170D01*
Y-28881D01*
X830525Y-28881D01*
X830389Y-28198D01*
X830002Y-27619D01*
X827750Y-25368D01*
X827859Y-24961D01*
Y-24039D01*
X827621Y-23149D01*
X827160Y-22351D01*
X826508Y-21699D01*
X825710Y-21238D01*
X824820Y-21000D01*
D02*
G37*
G36*
X618280Y-52862D02*
X616248D01*
Y-54894D01*
X616742Y-54761D01*
X617329Y-54423D01*
X617808Y-53943D01*
X618147Y-53356D01*
X618280Y-52862D01*
D02*
G37*
G36*
X615248D02*
X613216D01*
X613349Y-53356D01*
X613688Y-53943D01*
X614167Y-54423D01*
X614754Y-54761D01*
X615248Y-54894D01*
Y-52862D01*
D02*
G37*
G36*
X235209Y-53209D02*
X233177D01*
Y-55241D01*
X233671Y-55109D01*
X234258Y-54770D01*
X234737Y-54290D01*
X235076Y-53703D01*
X235209Y-53209D01*
D02*
G37*
G36*
X232177D02*
X230146D01*
X230278Y-53703D01*
X230617Y-54290D01*
X231096Y-54770D01*
X231683Y-55109D01*
X232177Y-55241D01*
Y-53209D01*
D02*
G37*
G36*
X159225Y-53209D02*
X157193D01*
Y-55241D01*
X157687Y-55109D01*
X158274Y-54770D01*
X158753Y-54290D01*
X159092Y-53703D01*
X159225Y-53209D01*
D02*
G37*
G36*
X156193D02*
X154161D01*
X154294Y-53703D01*
X154633Y-54290D01*
X155112Y-54770D01*
X155699Y-55109D01*
X156193Y-55241D01*
Y-53209D01*
D02*
G37*
G36*
X387114Y-53768D02*
Y-55799D01*
X389146D01*
X389014Y-55305D01*
X388674Y-54718D01*
X388195Y-54239D01*
X387608Y-53900D01*
X387114Y-53768D01*
D02*
G37*
G36*
X386114D02*
X385620Y-53900D01*
X385033Y-54239D01*
X384554Y-54718D01*
X384215Y-55305D01*
X384083Y-55799D01*
X386114D01*
Y-53768D01*
D02*
G37*
G36*
X538295Y-54949D02*
Y-56980D01*
X540327D01*
X540195Y-56486D01*
X539856Y-55899D01*
X539376Y-55420D01*
X538789Y-55081D01*
X538295Y-54949D01*
D02*
G37*
G36*
X537295D02*
X536801Y-55081D01*
X536214Y-55420D01*
X535735Y-55899D01*
X535396Y-56486D01*
X535264Y-56980D01*
X537295D01*
Y-54949D01*
D02*
G37*
G36*
X283965D02*
Y-56980D01*
X285996D01*
X285864Y-56486D01*
X285525Y-55899D01*
X285046Y-55420D01*
X284458Y-55081D01*
X283965Y-54949D01*
D02*
G37*
G36*
X282965D02*
X282471Y-55081D01*
X281884Y-55420D01*
X281404Y-55899D01*
X281065Y-56486D01*
X280933Y-56980D01*
X282965D01*
Y-54949D01*
D02*
G37*
G36*
X389146Y-56799D02*
X387114D01*
Y-58831D01*
X387608Y-58698D01*
X388195Y-58360D01*
X388674Y-57880D01*
X389014Y-57293D01*
X389146Y-56799D01*
D02*
G37*
G36*
X386114D02*
X384083D01*
X384215Y-57293D01*
X384554Y-57880D01*
X385033Y-58360D01*
X385620Y-58698D01*
X386114Y-58831D01*
Y-56799D01*
D02*
G37*
%LPD*%
D23*
X828740Y-51181D02*
D03*
X822441Y-55612D02*
D03*
X819989Y-28871D02*
D03*
X824359Y-24500D02*
D03*
X734646Y-105905D02*
D03*
X800787Y-77165D02*
D03*
X816142Y-75197D02*
D03*
X817914Y-111855D02*
D03*
X799838Y-66142D02*
D03*
X785827D02*
D03*
X799213Y-59250D02*
D03*
X792260Y-62921D02*
D03*
X806693Y-57069D02*
D03*
D51*
X335391Y-124803D02*
X526777D01*
X506693Y-104719D02*
Y-94882D01*
X825591Y-100787D02*
X825817Y-101013D01*
Y-104151D02*
Y-101013D01*
Y-104151D02*
X836626Y-114961D01*
X841732D01*
X846457Y-110236D01*
X506693Y-104719D02*
X526777Y-124803D01*
X592126D01*
X335391D02*
X335827Y-124367D01*
Y-88976D01*
X275665Y-124803D02*
X335391D01*
X198893Y-125192D02*
X199213D01*
X275665Y-124803D02*
X275984D01*
X323622Y-79201D02*
X328397Y-83976D01*
X330826D01*
X335827Y-88976D01*
X323622Y-79201D02*
Y-63748D01*
X669291Y-124803D02*
X712205D01*
X731102Y-105905D01*
X592126Y-124803D02*
X669291D01*
X198893Y-125192D02*
X275276D01*
X275665Y-124803D01*
X198499Y-124798D02*
X198893Y-125192D01*
X119685Y-124798D02*
X198499D01*
X679134Y-93701D02*
Y-92520D01*
X681890Y-89764D01*
Y-57087D01*
X570472Y-40945D02*
X668898D01*
X184646D02*
X259252D01*
X564247D02*
X570472D01*
X520866Y-41339D02*
X563854D01*
X564247Y-40945D01*
X110630D02*
X119823D01*
X150452D02*
X184646D01*
X150058Y-41339D02*
X150452Y-40945D01*
X259449Y-41142D02*
X520669D01*
X259252Y-40945D02*
X259449Y-41142D01*
X119823Y-40945D02*
X120216Y-41339D01*
X104893Y-40945D02*
X110630D01*
X520669Y-41142D02*
X520866Y-41339D01*
X120216D02*
X150058D01*
X705805Y-40551D02*
X710630Y-45376D01*
X669685Y-40551D02*
X705805D01*
X668898Y-40945D02*
X669291Y-40551D01*
X731102Y-105905D02*
X734646D01*
D52*
X792260Y-77802D02*
Y-62921D01*
Y-77802D02*
X834515Y-120057D01*
X846070D01*
X853128Y-112999D02*
Y-101160D01*
X846457Y-94488D02*
X853128Y-101160D01*
X846070Y-120057D02*
X853128Y-112999D01*
X828740Y-51181D02*
Y-28881D01*
X824359Y-24500D02*
X828740Y-28881D01*
X800313Y-76691D02*
Y-66616D01*
Y-76691D02*
X800787Y-77165D01*
X799838Y-66142D02*
X800313Y-66616D01*
X815651Y-75197D02*
X816142D01*
X799213Y-59250D02*
X799704D01*
X815651Y-75197D01*
X785827Y-79768D02*
X817914Y-111855D01*
X785827Y-79768D02*
Y-66142D01*
D53*
X806693Y-57069D02*
X822335Y-72711D01*
Y-104439D02*
Y-72711D01*
Y-104439D02*
X835522Y-117626D01*
X845063D01*
X850697Y-111993D01*
Y-106602D01*
X846457Y-102362D02*
X850697Y-106602D01*
X819989Y-51091D02*
X821676Y-52778D01*
Y-54847D02*
Y-52778D01*
Y-54847D02*
X822441Y-55612D01*
X819989Y-51091D02*
Y-28871D01*
D57*
X356181Y-165354D02*
D03*
X520866Y-165354D02*
D03*
D58*
X346181Y-165354D02*
D03*
X510866Y-165354D02*
D03*
X846457Y-39370D02*
D03*
X838583Y-47244D02*
D03*
X846457D02*
D03*
X838583Y-55118D02*
D03*
X846457D02*
D03*
X838583Y-62992D02*
D03*
X846457D02*
D03*
X838583Y-70866D02*
D03*
X846457D02*
D03*
X838583Y-78740D02*
D03*
X846457D02*
D03*
X838583Y-86614D02*
D03*
X846457D02*
D03*
X838583Y-94488D02*
D03*
X846457D02*
D03*
X838583Y-102362D02*
D03*
X846457D02*
D03*
X838583Y-110236D02*
D03*
X846457D02*
D03*
X727953Y-136614D02*
D03*
X641339D02*
D03*
X567323Y-136614D02*
D03*
X476772Y-117323D02*
D03*
X312598Y-116535D02*
D03*
X252362Y-136614D02*
D03*
X174016Y-137003D02*
D03*
X97244Y-136609D02*
D03*
D59*
X827172Y-167323D02*
D03*
X433471D02*
D03*
X39770D02*
D03*
D60*
X668504Y-155512D02*
D03*
X744882D02*
D03*
X515748Y-135827D02*
D03*
X351181D02*
D03*
X592126Y-155512D02*
D03*
X274803Y-155512D02*
D03*
X198425Y-155512D02*
D03*
X122047Y-155512D02*
D03*
X78740Y-19685D02*
D03*
X787402Y-19685D02*
D03*
D61*
X838583Y-39370D02*
D03*
D62*
X669291Y-124803D02*
D03*
X592126D02*
D03*
X335827Y-88976D02*
D03*
X275984Y-124803D02*
D03*
X199213Y-125192D02*
D03*
X119685Y-124798D02*
D03*
X679134Y-93701D02*
D03*
X678346Y-40551D02*
D03*
X570472Y-40945D02*
D03*
X564567D02*
D03*
X629134Y-51380D02*
D03*
X249606Y-51181D02*
D03*
X190551Y-40955D02*
D03*
X184646Y-40945D02*
D03*
X110630D02*
D03*
X104724D02*
D03*
X170866Y-51282D02*
D03*
X710630Y-45376D02*
D03*
X323622Y-63748D02*
D03*
X386614Y-56299D02*
D03*
X506693Y-94882D02*
D03*
X283465Y-57480D02*
D03*
X537795D02*
D03*
X513779Y-51968D02*
D03*
X232677Y-52709D02*
D03*
X156693Y-52709D02*
D03*
X615748Y-52362D02*
D03*
X655729Y-48425D02*
D03*
X669291Y-40551D02*
D03*
X520866Y-41339D02*
D03*
X825591Y-100787D02*
D03*
M02*
