G04*
G04 #@! TF.GenerationSoftware,Altium Limited,Altium Designer,24.3.1 (35)*
G04*
G04 Layer_Physical_Order=1*
G04 Layer_Color=255*
%FSLAX25Y25*%
%MOIN*%
G70*
G04*
G04 #@! TF.SameCoordinates,93CE9DFF-0CCD-43E9-96D4-8759F4791444*
G04*
G04*
G04 #@! TF.FilePolarity,Positive*
G04*
G01*
G75*
%ADD14R,0.03937X0.06299*%
%ADD15R,0.01654X0.03504*%
%ADD16R,0.05906X0.05906*%
%ADD17R,0.05906X0.05906*%
%ADD18R,0.06299X0.03937*%
%ADD19O,0.02559X0.06004*%
%ADD20R,0.02559X0.06004*%
%ADD21O,0.06004X0.02559*%
%ADD22R,0.06004X0.02559*%
%ADD23C,0.03937*%
%ADD24R,0.02756X0.04134*%
%ADD25R,0.04921X0.03937*%
%ADD26R,0.03937X0.04921*%
%ADD27R,0.02362X0.06299*%
G04:AMPARAMS|DCode=28|XSize=62.99mil|YSize=23.62mil|CornerRadius=11.81mil|HoleSize=0mil|Usage=FLASHONLY|Rotation=90.000|XOffset=0mil|YOffset=0mil|HoleType=Round|Shape=RoundedRectangle|*
%AMROUNDEDRECTD28*
21,1,0.06299,0.00000,0,0,90.0*
21,1,0.03937,0.02362,0,0,90.0*
1,1,0.02362,0.00000,0.01968*
1,1,0.02362,0.00000,-0.01968*
1,1,0.02362,0.00000,-0.01968*
1,1,0.02362,0.00000,0.01968*
%
%ADD28ROUNDEDRECTD28*%
%ADD51C,0.01968*%
%ADD52C,0.01500*%
%ADD53C,0.01000*%
%ADD54C,0.01465*%
%ADD55C,0.01465*%
%ADD56C,0.00984*%
%ADD57R,0.05118X0.05118*%
%ADD58C,0.05118*%
%ADD59C,0.08661*%
%ADD60C,0.11811*%
%ADD61R,0.05118X0.05118*%
%ADD62C,0.03150*%
D14*
X343268Y-85827D02*
D03*
X355079Y-85827D02*
D03*
X119587Y-40945D02*
D03*
X131398Y-40945D02*
D03*
X170866Y-40945D02*
D03*
X159055Y-40945D02*
D03*
X249606Y-40945D02*
D03*
X237795Y-40945D02*
D03*
X210295Y-40955D02*
D03*
X198484Y-40955D02*
D03*
X629528Y-40945D02*
D03*
X617717Y-40945D02*
D03*
X590846Y-40945D02*
D03*
X579036Y-40945D02*
D03*
X229921Y-40945D02*
D03*
X218110Y-40945D02*
D03*
X138583Y-40945D02*
D03*
X150394Y-40945D02*
D03*
X495669Y-40945D02*
D03*
X507480Y-40945D02*
D03*
X519646Y-87008D02*
D03*
X507835D02*
D03*
X598425Y-40945D02*
D03*
X610236Y-40945D02*
D03*
D15*
X344882Y-112953D02*
D03*
X347441D02*
D03*
X350000D02*
D03*
X352559D02*
D03*
Y-96457D02*
D03*
X350000D02*
D03*
X347441D02*
D03*
X344882D02*
D03*
X514567Y-114134D02*
D03*
X509449Y-97638D02*
D03*
X512008Y-114134D02*
D03*
Y-97638D02*
D03*
X514567D02*
D03*
X517126D02*
D03*
Y-114134D02*
D03*
X509449D02*
D03*
D16*
X508382Y-184253D02*
D03*
X343697Y-183859D02*
D03*
X661020Y-187009D02*
D03*
X114563D02*
D03*
X190941D02*
D03*
X267319D02*
D03*
X584659Y-187010D02*
D03*
D17*
X523329Y-184250D02*
D03*
X358644Y-183856D02*
D03*
X675966Y-187006D02*
D03*
X129510D02*
D03*
X205888D02*
D03*
X282265D02*
D03*
X599606Y-187008D02*
D03*
D18*
X688583Y-53150D02*
D03*
X688583Y-41339D02*
D03*
Y-82284D02*
D03*
X688583Y-94095D02*
D03*
X656496Y-124803D02*
D03*
X580315D02*
D03*
X262795D02*
D03*
X186221Y-125192D02*
D03*
X110236Y-124798D02*
D03*
X656496Y-136614D02*
D03*
X110236Y-136609D02*
D03*
X186221Y-137003D02*
D03*
X262795Y-136614D02*
D03*
X332677Y-110630D02*
D03*
Y-98819D02*
D03*
X361417Y-98425D02*
D03*
Y-110236D02*
D03*
X371654D02*
D03*
Y-98425D02*
D03*
X381496Y-110236D02*
D03*
Y-98425D02*
D03*
X497244Y-111811D02*
D03*
Y-100000D02*
D03*
X536221Y-111417D02*
D03*
Y-99606D02*
D03*
X546063Y-111417D02*
D03*
Y-99606D02*
D03*
X580315Y-136614D02*
D03*
X688583Y-61417D02*
D03*
X688583Y-73228D02*
D03*
X525984Y-111417D02*
D03*
Y-99606D02*
D03*
D19*
X228130Y-52709D02*
D03*
X218130Y-74064D02*
D03*
X223130D02*
D03*
X228130D02*
D03*
X213130Y-52709D02*
D03*
X223130D02*
D03*
X218130D02*
D03*
X508286Y-52709D02*
D03*
Y-74064D02*
D03*
X498286D02*
D03*
X503286D02*
D03*
Y-52709D02*
D03*
X498286D02*
D03*
X493286D02*
D03*
X610648D02*
D03*
X600648Y-74064D02*
D03*
X605648D02*
D03*
X610648D02*
D03*
X605648Y-52709D02*
D03*
X600648D02*
D03*
X595648D02*
D03*
X136592D02*
D03*
X141592D02*
D03*
X146592D02*
D03*
X151592D02*
D03*
Y-74064D02*
D03*
X146592D02*
D03*
X141592D02*
D03*
D20*
X213130Y-74064D02*
D03*
X136592Y-74064D02*
D03*
X493286D02*
D03*
X595648D02*
D03*
D21*
X674456Y-59033D02*
D03*
X674456Y-64033D02*
D03*
X674456Y-69033D02*
D03*
X653102Y-74033D02*
D03*
Y-69033D02*
D03*
Y-64033D02*
D03*
X674456Y-74033D02*
D03*
D22*
X653102Y-59033D02*
D03*
D23*
X856107Y-7172D02*
D03*
X826571D02*
D03*
X859252Y-187016D02*
D03*
Y-157480D02*
D03*
X827756Y-187016D02*
D03*
X9834Y-6890D02*
D03*
X39370D02*
D03*
X9834Y-38386D02*
D03*
X6890Y-187016D02*
D03*
Y-157480D02*
D03*
X38386Y-187016D02*
D03*
X828740Y-51181D02*
D03*
X822441Y-55612D02*
D03*
X819989Y-28871D02*
D03*
X824359Y-24500D02*
D03*
X734646Y-105905D02*
D03*
X800787Y-77165D02*
D03*
X816142Y-75197D02*
D03*
X817914Y-111855D02*
D03*
X799838Y-66142D02*
D03*
X785827D02*
D03*
X799213Y-59250D02*
D03*
X792260Y-62921D02*
D03*
X806693Y-57069D02*
D03*
D24*
X680709Y-131102D02*
D03*
X684449Y-122047D02*
D03*
X138189Y-122042D02*
D03*
X130709D02*
D03*
X134449Y-131098D02*
D03*
X206693Y-122436D02*
D03*
X210433Y-131491D02*
D03*
X214173Y-122436D02*
D03*
X283268Y-122047D02*
D03*
X287008Y-131102D02*
D03*
X290748Y-122047D02*
D03*
X600787D02*
D03*
X604528Y-131102D02*
D03*
X608268Y-122047D02*
D03*
X676968D02*
D03*
D25*
X520472Y-59449D02*
D03*
Y-67323D02*
D03*
X323622Y-102756D02*
D03*
Y-110630D02*
D03*
X488189Y-111811D02*
D03*
Y-103937D02*
D03*
X528346Y-67323D02*
D03*
Y-59449D02*
D03*
X585433Y-65748D02*
D03*
Y-57874D02*
D03*
X204882Y-57874D02*
D03*
Y-65748D02*
D03*
X127953Y-65748D02*
D03*
Y-57874D02*
D03*
D26*
X661417Y-48425D02*
D03*
X669291Y-48425D02*
D03*
D27*
X328701Y-47638D02*
D03*
D28*
X333701D02*
D03*
X338701Y-47638D02*
D03*
X343701Y-47638D02*
D03*
X348701Y-47638D02*
D03*
X353701D02*
D03*
X358701D02*
D03*
X358701Y-24409D02*
D03*
X353701D02*
D03*
X348701Y-24409D02*
D03*
X343701Y-24409D02*
D03*
X338701Y-24409D02*
D03*
X333701Y-24409D02*
D03*
X328701D02*
D03*
D51*
X838583Y-110236D02*
Y-110236D01*
X629134Y-51380D02*
Y-41339D01*
X629528Y-40945D01*
X356181Y-165354D02*
X369004Y-152532D01*
Y-121398D02*
X369488Y-120914D01*
X369004Y-152532D02*
Y-121398D01*
X356181Y-181394D02*
X358644Y-183856D01*
X356181Y-181394D02*
Y-165354D01*
X838583Y-110236D02*
Y-102362D01*
X734646Y-105905D02*
X834252D01*
X846457Y-86614D02*
X851181Y-91339D01*
Y-112193D02*
Y-91339D01*
X843307Y-114961D02*
X848414D01*
X838583Y-110236D02*
X843307Y-114961D01*
X834252Y-105905D02*
X838583Y-110236D01*
X848414Y-114961D02*
X851181Y-112193D01*
X367362Y-56299D02*
X386614D01*
X360745Y-49682D02*
X367362Y-56299D01*
X358883Y-49682D02*
X360745D01*
X358701Y-49500D02*
X358883Y-49682D01*
X358701Y-49500D02*
Y-47638D01*
X520866Y-181788D02*
X523329Y-184250D01*
X520866Y-181788D02*
Y-165748D01*
X534213Y-152402D02*
Y-120079D01*
X520866Y-165748D02*
X534213Y-152402D01*
X535197Y-111417D02*
X536221D01*
X554457Y-120079D02*
X555610Y-118926D01*
X534213Y-120079D02*
X554457D01*
X555610Y-118926D02*
Y-75295D01*
X534213Y-120079D02*
Y-112402D01*
X525984Y-111417D02*
X535197D01*
X496834Y-57980D02*
X519004D01*
X534213Y-112402D02*
X535197Y-111417D01*
X323622Y-63748D02*
Y-31457D01*
X328701Y-26378D01*
Y-24409D01*
X369488Y-120914D02*
X388217D01*
X389370Y-119761D02*
Y-59055D01*
X388217Y-120914D02*
X389370Y-119761D01*
X335827Y-88976D02*
X343307Y-96457D01*
X344630D01*
X369488Y-120914D02*
Y-111221D01*
X370472Y-110236D01*
X371654D01*
X386614Y-56299D02*
X389370Y-59055D01*
X656496Y-124803D02*
X669291D01*
X656496Y-124803D02*
X656496Y-124803D01*
X580315Y-124803D02*
X580315Y-124803D01*
X592126D01*
X262795D02*
X275984D01*
X262795Y-124803D02*
X262795Y-124803D01*
X187584Y-125375D02*
X187767Y-125192D01*
X199213D01*
X110236Y-124798D02*
X119685D01*
X688386Y-93898D02*
X688583Y-94095D01*
X679331Y-93898D02*
X688386D01*
X679134Y-93701D02*
X679331Y-93898D01*
X678346Y-40551D02*
X679134Y-41339D01*
X688583D01*
X570472Y-40945D02*
X570472Y-40945D01*
X579036D01*
X564567Y-48425D02*
Y-40945D01*
Y-48425D02*
X574016Y-57874D01*
X249606Y-51181D02*
X249606Y-51181D01*
X249606Y-51181D02*
Y-40945D01*
X190551Y-40955D02*
X198484D01*
X184742Y-45472D02*
X197143Y-57874D01*
X184742Y-45472D02*
Y-41041D01*
X184646Y-40945D02*
X184742Y-41041D01*
X110630Y-40945D02*
X110630Y-40945D01*
X119587D01*
X113262Y-57750D02*
X127829D01*
X104724Y-49213D02*
Y-40945D01*
Y-49213D02*
X113262Y-57750D01*
X170866Y-51282D02*
Y-44094D01*
X711811Y-81102D02*
X731496Y-100787D01*
X585433Y-57874D02*
X592205D01*
X197143Y-57874D02*
X204882D01*
X127829Y-57750D02*
X127953Y-57874D01*
X133150D01*
X710630Y-46196D02*
Y-45376D01*
X711811Y-81102D02*
Y-47377D01*
X710630Y-46196D02*
X711811Y-47377D01*
X574016Y-57874D02*
X585433D01*
X128445Y-65748D02*
X141592D01*
X204882Y-65748D02*
X217544D01*
Y-65017D01*
X127953Y-65748D02*
X128445D01*
X217544Y-65017D02*
X228130Y-54432D01*
Y-52709D01*
X217544Y-65748D02*
X218130Y-66334D01*
Y-74064D02*
Y-66334D01*
X648115Y-56039D02*
X655729Y-48425D01*
X669291Y-48425D02*
Y-48425D01*
X669291Y-48917D02*
X669291Y-48425D01*
X669291Y-48917D02*
X674456Y-54082D01*
X674456Y-59033D02*
X674456Y-54082D01*
X651379Y-64033D02*
X653102D01*
X648115Y-61135D02*
Y-56039D01*
Y-61135D02*
X649508Y-62527D01*
X649713D01*
X651220Y-64033D01*
X651379D01*
X661417Y-57333D02*
Y-48425D01*
Y-57333D02*
X666282Y-62198D01*
Y-71794D02*
Y-62198D01*
Y-71794D02*
X668522Y-74033D01*
X674456D01*
X648115Y-67297D02*
X651379Y-64033D01*
X648115Y-92505D02*
Y-67297D01*
Y-92505D02*
X676968Y-121358D01*
Y-122047D02*
Y-121358D01*
X228130Y-52709D02*
X232677D01*
X213130Y-54432D02*
Y-52709D01*
X211156Y-56406D02*
X213130Y-54432D01*
X206350Y-56406D02*
X211156D01*
X204882Y-57874D02*
X206350Y-56406D01*
X537215Y-58060D02*
X537795Y-57480D01*
X555610Y-75295D01*
X352559Y-112953D02*
X357520D01*
X506693Y-94882D02*
X506919Y-95108D01*
X507529D01*
X509449Y-97028D01*
Y-97638D02*
Y-97028D01*
X360236Y-110236D02*
X361417D01*
X357520Y-112953D02*
X360236Y-110236D01*
X350252Y-112953D02*
X352559D01*
X283268Y-57677D02*
X283465Y-57480D01*
X283268Y-122047D02*
Y-57677D01*
X656474Y-48425D02*
X661417D01*
X585433Y-86171D02*
Y-65748D01*
Y-86171D02*
X600787Y-101526D01*
Y-122047D02*
Y-101526D01*
X528346Y-67323D02*
X528839D01*
X537215Y-58946D02*
Y-58060D01*
X528839Y-67323D02*
X537215Y-58946D01*
X509006Y-51968D02*
X513779D01*
X508286Y-52689D02*
X509006Y-51968D01*
X508286Y-52709D02*
Y-52689D01*
X128445Y-65748D02*
X130709Y-68012D01*
Y-122042D02*
Y-68012D01*
X206693Y-122436D02*
Y-121747D01*
X204882Y-119936D02*
X206693Y-121747D01*
X204882Y-119936D02*
Y-65748D01*
X151592Y-52709D02*
X156693D01*
X610648D02*
X610995Y-52362D01*
X615748D01*
X669291Y-48425D02*
Y-40551D01*
X669291Y-40551D01*
X520472Y-59449D02*
X520866Y-59055D01*
Y-41339D01*
X520472Y-59449D02*
X528346D01*
X519004Y-57980D02*
X520472Y-59449D01*
X493286Y-54432D02*
X496834Y-57980D01*
X493286Y-54432D02*
Y-52709D01*
X731496Y-100787D02*
X825591D01*
X585433Y-65748D02*
X600648D01*
Y-64432D01*
X610648Y-54432D02*
Y-52709D01*
X600648Y-64432D02*
X610648Y-54432D01*
X600648Y-74064D02*
Y-65748D01*
X595648Y-54432D02*
Y-52709D01*
X592205Y-57874D02*
X595648Y-54432D01*
X141592Y-65748D02*
Y-64432D01*
Y-72341D02*
Y-65748D01*
Y-64432D02*
X151592Y-54432D01*
Y-52709D01*
X136592Y-54432D02*
Y-52709D01*
X133150Y-57874D02*
X136592Y-54432D01*
X361417Y-110236D02*
X370472D01*
D52*
X237795Y-40945D02*
X237795Y-40945D01*
X229921Y-40945D02*
X237795D01*
X210295Y-40955D02*
X218100D01*
X218110Y-40945D01*
X824359Y-24500D02*
X844354D01*
X850947Y-31092D01*
X835107Y-94162D02*
X838257D01*
X838583Y-94488D01*
X816142Y-75197D02*
X835107Y-94162D01*
X833858Y-66142D02*
X838583Y-70866D01*
X799838Y-66142D02*
X833858D01*
X833214Y-41870D02*
X834093Y-42749D01*
X766134Y-39370D02*
X830734D01*
X765098Y-41870D02*
X833214D01*
X830734Y-39370D02*
X835224Y-34880D01*
X834093Y-42754D02*
Y-42749D01*
X835224Y-34880D02*
X841967D01*
X846457Y-39370D01*
X826102Y-50511D02*
X828071D01*
X762405Y-47051D02*
X822642D01*
X828071Y-50511D02*
X828740Y-51181D01*
X822642Y-47051D02*
X826102Y-50511D01*
X763441Y-44551D02*
X828377D01*
X833171Y-49346D01*
X729528Y-14173D02*
X762405Y-47051D01*
X732028Y-13138D02*
X763441Y-44551D01*
X730434Y-7206D02*
X765098Y-41870D01*
X733402Y-6638D02*
X766134Y-39370D01*
X833171Y-54239D02*
X834050Y-55118D01*
X833171Y-54239D02*
Y-49346D01*
X834050Y-55118D02*
X838583D01*
X817914Y-111855D02*
X823935Y-117876D01*
X849621D01*
X846457Y-70866D02*
X856778Y-81187D01*
Y-114511D02*
Y-81187D01*
X743031Y-120557D02*
X850732D01*
X695702Y-73228D02*
X743031Y-120557D01*
X854097Y-113401D02*
Y-86380D01*
X846457Y-78740D02*
X854097Y-86380D01*
X850732Y-120557D02*
X856778Y-114511D01*
X849621Y-117876D02*
X854097Y-113401D01*
X793423Y-70766D02*
X822734D01*
X688583Y-73228D02*
X695702D01*
X822734Y-70766D02*
X838583Y-86614D01*
X789705Y-74484D02*
X793423Y-70766D01*
X755854Y-74484D02*
X789705D01*
X712170Y-30801D02*
X755854Y-74484D01*
X611204Y-30801D02*
X712170D01*
X605581Y-36424D02*
X611204Y-30801D01*
X605581Y-37667D02*
Y-36424D01*
Y-37667D02*
X606459Y-38545D01*
X610986D01*
X850947Y-50628D02*
Y-31092D01*
X846457Y-55118D02*
X850947Y-50628D01*
X732028Y-13138D02*
Y-13138D01*
X730563Y-11673D02*
X732028Y-13138D01*
X242529Y-11673D02*
X730563D01*
X222766Y-31437D02*
X242529Y-11673D01*
X222766Y-37667D02*
Y-31437D01*
X221887Y-38545D02*
X222766Y-37667D01*
X219329Y-38545D02*
X221887D01*
X218120Y-39754D02*
X219329Y-38545D01*
X218120Y-40493D02*
Y-39754D01*
X834093Y-42754D02*
X838583Y-47244D01*
X138583Y-40945D02*
Y-40945D01*
X175319Y-7206D02*
X730434D01*
X145822Y-36702D02*
X175319Y-7206D01*
X145822Y-37945D02*
Y-36702D01*
Y-37945D02*
X146701Y-38824D01*
X151969D01*
Y-40945D02*
Y-38824D01*
X733402Y-6638D02*
Y-6638D01*
X731469Y-4706D02*
X733402Y-6638D01*
X174283Y-4706D02*
X731469D01*
X143322Y-35667D02*
X174283Y-4706D01*
X143322Y-37945D02*
Y-35667D01*
X142443Y-38824D02*
X143322Y-37945D01*
X139801Y-38824D02*
X142443D01*
X138583Y-40042D02*
X139801Y-38824D01*
X138583Y-40945D02*
Y-40042D01*
X784948Y-71984D02*
X785827Y-71106D01*
X756889Y-71984D02*
X784948D01*
X785827Y-71106D02*
Y-66142D01*
X131398Y-40945D02*
X138583D01*
Y-42126D02*
Y-40945D01*
X150394Y-40945D02*
X151969D01*
X159055D01*
X150394Y-40945D02*
X150394Y-40945D01*
X688583Y-73228D02*
X688583Y-73228D01*
X688583Y-82284D02*
Y-73228D01*
X690982Y-47600D02*
X697638Y-40945D01*
X690982Y-51931D02*
Y-47600D01*
X689764Y-53150D02*
X690982Y-51931D01*
X688583Y-53150D02*
X689764D01*
X680373Y-73228D02*
X688583D01*
X754743Y-77165D02*
X800787D01*
X718523Y-40945D02*
X754743Y-77165D01*
X697638Y-40945D02*
X718523D01*
X688583Y-53150D02*
X688583Y-53150D01*
X688583Y-61417D02*
Y-53150D01*
X598425Y-39764D02*
X599644Y-38545D01*
X598425Y-40945D02*
Y-39764D01*
X603081Y-37667D02*
Y-35388D01*
X610169Y-28301D01*
X599644Y-38545D02*
X602202D01*
X610169Y-28301D02*
X713205D01*
X602202Y-38545D02*
X603081Y-37667D01*
X713205Y-28301D02*
X756889Y-71984D01*
X598425Y-42126D02*
Y-40945D01*
X612598Y-40157D02*
X616929D01*
X617717Y-40945D01*
X610986Y-38545D02*
X612598Y-40157D01*
X590846Y-40945D02*
X592421Y-39370D01*
X590846Y-40945D02*
X598425D01*
X590846D02*
X592421Y-39370D01*
X611024Y-40157D02*
X612598D01*
X610236Y-40945D02*
X611024Y-40157D01*
X717753Y-21450D02*
X753803Y-57500D01*
X500325Y-35388D02*
X514263Y-21450D01*
X716718Y-23950D02*
X752768Y-60000D01*
X502825Y-36424D02*
X515299Y-23950D01*
X514263Y-21450D02*
X717753D01*
X515299Y-23950D02*
X716718D01*
X507480Y-40945D02*
Y-39764D01*
Y-46792D02*
Y-40945D01*
X753803Y-57500D02*
X793105D01*
X794641Y-59035D01*
X798998D01*
X799213Y-59250D01*
X752768Y-60000D02*
X789706D01*
X792260Y-62554D01*
Y-62921D02*
Y-62554D01*
X243565Y-14173D02*
X729528D01*
Y-14173D02*
Y-14173D01*
X225266Y-32472D02*
X243565Y-14173D01*
X688189Y-61811D02*
X688583Y-61417D01*
X678687Y-61811D02*
X688189D01*
X676465Y-64033D02*
X678687Y-61811D01*
X674456Y-64033D02*
X676465D01*
X676179Y-69033D02*
X680373Y-73228D01*
X674456Y-69033D02*
X676179Y-69033D01*
X674456D02*
Y-69033D01*
X228703Y-42163D02*
X229921Y-40945D01*
X228703Y-45414D02*
Y-42163D01*
X223130Y-50987D02*
X228703Y-45414D01*
X223130Y-52709D02*
Y-50987D01*
X218130Y-52709D02*
Y-50997D01*
X218120Y-50987D02*
X218130Y-50997D01*
X218120Y-50987D02*
Y-40955D01*
X218110Y-40945D02*
X218120Y-40955D01*
X225266Y-37667D02*
Y-32472D01*
Y-37667D02*
X226144Y-38545D01*
X228703D01*
X229921Y-39764D01*
Y-40945D02*
Y-39764D01*
X495669Y-42126D02*
Y-40945D01*
Y-39764D01*
X496888Y-38545D01*
X499446D01*
X500325Y-37667D01*
Y-35388D01*
X506262Y-38545D02*
X507480Y-39764D01*
X503703Y-38545D02*
X506262D01*
X502825Y-37667D02*
X503703Y-38545D01*
X502825Y-37667D02*
Y-36424D01*
X150394Y-42126D02*
Y-40945D01*
X503286Y-50987D02*
X507480Y-46792D01*
X503286Y-52709D02*
Y-50987D01*
X498286D02*
Y-44742D01*
X610236Y-42126D02*
Y-40945D01*
X605648Y-46714D02*
X610236Y-42126D01*
X605648Y-52709D02*
Y-46714D01*
X598425Y-42126D02*
X600648Y-44348D01*
Y-52709D02*
Y-44348D01*
X495669Y-42126D02*
X498286Y-44742D01*
X146592Y-45928D02*
X150394Y-42126D01*
X146592Y-52709D02*
Y-45928D01*
X138583Y-42126D02*
X141592Y-45135D01*
Y-52709D02*
Y-45135D01*
D53*
X338189Y-157362D02*
Y-118504D01*
Y-157362D02*
X346181Y-165354D01*
X343697Y-183859D02*
X346181Y-181375D01*
Y-165354D01*
X824209Y-18110D02*
X847047D01*
X819989Y-28871D02*
Y-22330D01*
X824209Y-18110D01*
X847047D02*
X853378Y-24441D01*
Y-56071D02*
Y-24441D01*
X846457Y-62992D02*
X853378Y-56071D01*
X508382Y-184253D02*
X510866Y-181768D01*
Y-165748D01*
X499825Y-154707D02*
Y-124624D01*
Y-154707D02*
X510866Y-165748D01*
X499053Y-117323D02*
X499894Y-116482D01*
X476772Y-117323D02*
X499053D01*
X499894Y-116482D02*
Y-113279D01*
X497244Y-111811D02*
X497244Y-111811D01*
X488189Y-111811D02*
X497244D01*
X487697D02*
X488189D01*
X499894Y-124551D02*
Y-119685D01*
Y-116482D01*
X338189Y-118504D02*
X347441D01*
X333263D02*
X338189D01*
X322441Y-116535D02*
X332677D01*
X312598D02*
X322441D01*
X347441Y-118504D02*
Y-112953D01*
X332677Y-117918D02*
Y-116535D01*
Y-117918D02*
X333263Y-118504D01*
X332677Y-116535D02*
Y-110630D01*
X323622Y-115354D02*
Y-110630D01*
X322441Y-116535D02*
X323622Y-115354D01*
X499894Y-119685D02*
X511422D01*
X497244Y-111811D02*
X498425D01*
X499894Y-113279D01*
X511422Y-119685D02*
X512008Y-119099D01*
Y-114134D01*
X508286Y-74064D02*
Y-72341D01*
Y-87738D02*
Y-74064D01*
X517126Y-98563D02*
Y-97638D01*
X509449Y-114134D02*
Y-106535D01*
X539173Y-105709D02*
X544882Y-111417D01*
X546063D01*
X508304Y-67323D02*
X520472D01*
X503286Y-72341D02*
X508304Y-67323D01*
X353701Y-52287D02*
Y-45669D01*
X333701Y-52287D02*
Y-47638D01*
Y-52287D02*
X334287Y-52873D01*
X353115D01*
X353701Y-52287D01*
X343701Y-47638D02*
X343701Y-47638D01*
X338701Y-47638D02*
X343701D01*
X338701Y-47638D02*
X338701Y-47638D01*
X348701Y-24409D02*
X348701Y-24409D01*
X353701D01*
X359304Y-16838D02*
X726615D01*
X353701Y-22441D02*
X359304Y-16838D01*
X353701Y-24409D02*
Y-22441D01*
X358701Y-26378D02*
Y-24409D01*
X348701Y-36378D02*
X358701Y-26378D01*
X348701Y-47638D02*
Y-36378D01*
X381226Y-37069D02*
X399276Y-19019D01*
X362301Y-37069D02*
X381226D01*
X353701Y-45669D02*
X362301Y-37069D01*
X806107Y-57069D02*
X806693D01*
X804107Y-55069D02*
X806107Y-57069D01*
X761762Y-55069D02*
X804107D01*
X725711Y-19019D02*
X761762Y-55069D01*
X399276Y-19019D02*
X725711D01*
X328701Y-70079D02*
X343268Y-84646D01*
X328701Y-70079D02*
Y-47638D01*
X343268Y-85827D02*
Y-84646D01*
X314173Y-97933D02*
Y-33177D01*
X327590Y-19760D01*
X346020D01*
X348701Y-22441D01*
Y-24409D02*
Y-22441D01*
X290748Y-121358D02*
X314173Y-97933D01*
X290748Y-122047D02*
Y-121358D01*
X811149Y-55612D02*
X822441D01*
X808425Y-52888D02*
X811149Y-55612D01*
X762665Y-52888D02*
X808425D01*
X726615Y-16838D02*
X762665Y-52888D01*
X343268Y-87008D02*
Y-85827D01*
X332677Y-98819D02*
X333858D01*
X327583Y-102756D02*
X328613Y-101725D01*
Y-101702D01*
X331496Y-98819D01*
X332677D01*
X364367Y-92319D02*
Y-91646D01*
Y-92319D02*
X370472Y-98425D01*
X371654D01*
X358547Y-85827D02*
X364367Y-91646D01*
X376847Y-101894D02*
X380315Y-98425D01*
X381496D01*
X375591Y-105512D02*
X380315Y-110236D01*
X381496D01*
X678937Y-184035D02*
Y-183641D01*
X675966Y-187006D02*
X678937Y-184035D01*
X680709Y-182460D02*
Y-131102D01*
X679528Y-183641D02*
X680709Y-182460D01*
X678937Y-183641D02*
X679528D01*
X656554Y-182937D02*
X657261Y-183644D01*
X657655D01*
X661020Y-187009D01*
X656496Y-182288D02*
Y-136614D01*
Y-182288D02*
X656554Y-182346D01*
Y-182937D02*
Y-182346D01*
X580481Y-182832D02*
Y-182455D01*
Y-182832D02*
X584659Y-187010D01*
X580315Y-182288D02*
X580481Y-182455D01*
X580315Y-182288D02*
Y-136614D01*
X603453Y-183535D02*
X604528Y-182460D01*
X603079Y-183535D02*
X603453D01*
X599606Y-187008D02*
X603079Y-183535D01*
X604528Y-182460D02*
Y-131102D01*
X286024Y-183444D02*
X287008Y-182460D01*
X285827Y-183444D02*
X286024D01*
X282265Y-187006D02*
X285827Y-183444D01*
X287008Y-182460D02*
Y-131102D01*
X263050Y-182740D02*
Y-182543D01*
Y-182740D02*
X267319Y-187009D01*
X262795Y-182288D02*
X263050Y-182543D01*
X262795Y-182288D02*
Y-136614D01*
X110395Y-182841D02*
Y-182442D01*
Y-182841D02*
X114563Y-187009D01*
X110236Y-182283D02*
X110395Y-182442D01*
X110236Y-182283D02*
Y-136609D01*
X133364Y-183540D02*
X134449Y-182456D01*
X132975Y-183540D02*
X133364D01*
X129510Y-187006D02*
X132975Y-183540D01*
X134449Y-182456D02*
Y-131098D01*
X641339Y-136614D02*
X641339Y-136614D01*
X656496D01*
X567323D02*
X580315D01*
X252362D02*
X262795D01*
X174016Y-137003D02*
X186221D01*
X97244Y-136609D02*
X110236D01*
X654824Y-59033D02*
X660630Y-64839D01*
Y-88189D02*
X684449Y-112008D01*
X660630Y-88189D02*
Y-64839D01*
X684449Y-122047D02*
Y-112008D01*
X653102Y-59033D02*
X654824D01*
X213130Y-120704D02*
Y-74064D01*
Y-120704D02*
X214173Y-121747D01*
Y-122436D02*
Y-121747D01*
X138189Y-122042D02*
Y-121353D01*
X136592Y-119757D02*
X138189Y-121353D01*
X136592Y-119757D02*
Y-74064D01*
X186221Y-182677D02*
Y-137003D01*
Y-182677D02*
X190941Y-187397D01*
X507835Y-88189D02*
X508286Y-87738D01*
X507835Y-88189D02*
Y-87008D01*
Y-88189D02*
X507835Y-88189D01*
X608268Y-122047D02*
Y-88406D01*
X595648Y-75786D02*
X608268Y-88406D01*
X595648Y-75786D02*
Y-74064D01*
X333858Y-98819D02*
X340551Y-105512D01*
X344055D01*
X344882Y-106339D01*
Y-112953D02*
Y-106339D01*
X344055Y-105512D02*
X375591D01*
X503286Y-74064D02*
Y-72341D01*
X355079Y-85827D02*
X358547D01*
X355079Y-87008D02*
Y-85827D01*
X353610Y-88476D02*
X355079Y-87008D01*
X353011Y-88476D02*
X353610D01*
X350000Y-91487D02*
X353011Y-88476D01*
X350000Y-96457D02*
Y-91487D01*
X352559Y-97382D02*
Y-96457D01*
Y-97382D02*
X353602Y-98425D01*
X361417D01*
X362598D01*
X366067Y-101894D02*
X376847D01*
X362598Y-98425D02*
X366067Y-101894D01*
X323622Y-102756D02*
X327583D01*
X347441Y-96457D02*
Y-91181D01*
X343268Y-87008D02*
X347441Y-91181D01*
X508622Y-105709D02*
X509449Y-106535D01*
X508622Y-105709D02*
X539173D01*
X504134D02*
X508622D01*
X498425Y-100000D02*
X504134Y-105709D01*
X497244Y-100000D02*
X498425D01*
X496063D02*
X497244D01*
X494594Y-101469D02*
X496063Y-100000D01*
X494594Y-101492D02*
Y-101469D01*
X492150Y-103937D02*
X494594Y-101492D01*
X488189Y-103937D02*
X492150D01*
X210433Y-182849D02*
Y-131491D01*
X205888Y-187395D02*
X210433Y-182849D01*
X517126Y-98563D02*
X518169Y-99606D01*
X525984D01*
X544882D02*
X546063D01*
X525984D02*
X527165D01*
X541413Y-103075D02*
X544882Y-99606D01*
X530634Y-103075D02*
X541413D01*
X527165Y-99606D02*
X530634Y-103075D01*
X533571Y-98138D02*
Y-97465D01*
X523114Y-87008D02*
X533571Y-97465D01*
X519646Y-88189D02*
Y-87008D01*
X523114D01*
X535039Y-99606D02*
X536221D01*
X533571Y-98138D02*
X535039Y-99606D01*
X518177Y-89657D02*
X519646Y-88189D01*
X517578Y-89657D02*
X518177D01*
X514567Y-92668D02*
X517578Y-89657D01*
X514567Y-97638D02*
Y-92668D01*
X512008Y-97638D02*
Y-92362D01*
X507835Y-88189D02*
X512008Y-92362D01*
D54*
X514567Y-114134D02*
X517126D01*
X518917Y-111417D02*
X525984D01*
X517126Y-113209D02*
X518917Y-111417D01*
X517126Y-114134D02*
Y-113209D01*
X350000Y-112953D02*
X350252D01*
D55*
X344630Y-96457D02*
X344882D01*
D56*
X170866Y-44094D02*
Y-40945D01*
D57*
X356181Y-165354D02*
D03*
X520866Y-165354D02*
D03*
D58*
X346181Y-165354D02*
D03*
X510866Y-165354D02*
D03*
X846457Y-39370D02*
D03*
X838583Y-47244D02*
D03*
X846457D02*
D03*
X838583Y-55118D02*
D03*
X846457D02*
D03*
X838583Y-62992D02*
D03*
X846457D02*
D03*
X838583Y-70866D02*
D03*
X846457D02*
D03*
X838583Y-78740D02*
D03*
X846457D02*
D03*
X838583Y-86614D02*
D03*
X846457D02*
D03*
X838583Y-94488D02*
D03*
X846457D02*
D03*
X838583Y-102362D02*
D03*
X846457D02*
D03*
X838583Y-110236D02*
D03*
X846457D02*
D03*
X727953Y-136614D02*
D03*
X641339D02*
D03*
X567323Y-136614D02*
D03*
X476772Y-117323D02*
D03*
X312598Y-116535D02*
D03*
X252362Y-136614D02*
D03*
X174016Y-137003D02*
D03*
X97244Y-136609D02*
D03*
D59*
X827172Y-167323D02*
D03*
X433471D02*
D03*
X39770D02*
D03*
D60*
X668504Y-155512D02*
D03*
X744882D02*
D03*
X515748Y-135827D02*
D03*
X351181D02*
D03*
X592126Y-155512D02*
D03*
X274803Y-155512D02*
D03*
X198425Y-155512D02*
D03*
X122047Y-155512D02*
D03*
X78740Y-19685D02*
D03*
X787402Y-19685D02*
D03*
D61*
X838583Y-39370D02*
D03*
D62*
X669291Y-124803D02*
D03*
X592126D02*
D03*
X335827Y-88976D02*
D03*
X275984Y-124803D02*
D03*
X199213Y-125192D02*
D03*
X119685Y-124798D02*
D03*
X679134Y-93701D02*
D03*
X678346Y-40551D02*
D03*
X570472Y-40945D02*
D03*
X564567D02*
D03*
X629134Y-51380D02*
D03*
X249606Y-51181D02*
D03*
X190551Y-40955D02*
D03*
X184646Y-40945D02*
D03*
X110630D02*
D03*
X104724D02*
D03*
X170866Y-51282D02*
D03*
X710630Y-45376D02*
D03*
X323622Y-63748D02*
D03*
X386614Y-56299D02*
D03*
X506693Y-94882D02*
D03*
X283465Y-57480D02*
D03*
X537795D02*
D03*
X513779Y-51968D02*
D03*
X232677Y-52709D02*
D03*
X156693Y-52709D02*
D03*
X615748Y-52362D02*
D03*
X655729Y-48425D02*
D03*
X669291Y-40551D02*
D03*
X520866Y-41339D02*
D03*
X825591Y-100787D02*
D03*
M02*
