G04*
G04 #@! TF.GenerationSoftware,Altium Limited,Altium Designer,24.3.1 (35)*
G04*
G04 Layer_Color=8421504*
%FSLAX25Y25*%
%MOIN*%
G70*
G04*
G04 #@! TF.SameCoordinates,93CE9DFF-0CCD-43E9-96D4-8759F4791444*
G04*
G04*
G04 #@! TF.FilePolarity,Positive*
G04*
G01*
G75*
%ADD14R,0.03937X0.06299*%
%ADD15R,0.01654X0.03504*%
%ADD16R,0.05906X0.05906*%
%ADD17R,0.05906X0.05906*%
%ADD18R,0.06299X0.03937*%
%ADD19O,0.02559X0.06004*%
%ADD20R,0.02559X0.06004*%
%ADD21O,0.06004X0.02559*%
%ADD22R,0.06004X0.02559*%
%ADD23C,0.03937*%
%ADD24R,0.02756X0.04134*%
%ADD25R,0.04921X0.03937*%
%ADD26R,0.03937X0.04921*%
%ADD27R,0.02362X0.06299*%
G04:AMPARAMS|DCode=28|XSize=62.99mil|YSize=23.62mil|CornerRadius=11.81mil|HoleSize=0mil|Usage=FLASHONLY|Rotation=90.000|XOffset=0mil|YOffset=0mil|HoleType=Round|Shape=RoundedRectangle|*
%AMROUNDEDRECTD28*
21,1,0.06299,0.00000,0,0,90.0*
21,1,0.03937,0.02362,0,0,90.0*
1,1,0.02362,0.00000,0.01968*
1,1,0.02362,0.00000,-0.01968*
1,1,0.02362,0.00000,-0.01968*
1,1,0.02362,0.00000,0.01968*
%
%ADD28ROUNDEDRECTD28*%
D14*
X343268Y-85827D02*
D03*
X355079Y-85827D02*
D03*
X119587Y-40945D02*
D03*
X131398Y-40945D02*
D03*
X170866Y-40945D02*
D03*
X159055Y-40945D02*
D03*
X249606Y-40945D02*
D03*
X237795Y-40945D02*
D03*
X210295Y-40955D02*
D03*
X198484Y-40955D02*
D03*
X629528Y-40945D02*
D03*
X617717Y-40945D02*
D03*
X590846Y-40945D02*
D03*
X579036Y-40945D02*
D03*
X229921Y-40945D02*
D03*
X218110Y-40945D02*
D03*
X138583Y-40945D02*
D03*
X150394Y-40945D02*
D03*
X495669Y-40945D02*
D03*
X507480Y-40945D02*
D03*
X519646Y-87008D02*
D03*
X507835D02*
D03*
X598425Y-40945D02*
D03*
X610236Y-40945D02*
D03*
D15*
X344882Y-112953D02*
D03*
X347441D02*
D03*
X350000D02*
D03*
X352559D02*
D03*
Y-96457D02*
D03*
X350000D02*
D03*
X347441D02*
D03*
X344882D02*
D03*
X514567Y-114134D02*
D03*
X509449Y-97638D02*
D03*
X512008Y-114134D02*
D03*
Y-97638D02*
D03*
X514567D02*
D03*
X517126D02*
D03*
Y-114134D02*
D03*
X509449D02*
D03*
D16*
X508382Y-184253D02*
D03*
X343697Y-183859D02*
D03*
X661020Y-187009D02*
D03*
X114563D02*
D03*
X190941D02*
D03*
X267319D02*
D03*
X584659Y-187010D02*
D03*
D17*
X523329Y-184250D02*
D03*
X358644Y-183856D02*
D03*
X675966Y-187006D02*
D03*
X129510D02*
D03*
X205888D02*
D03*
X282265D02*
D03*
X599606Y-187008D02*
D03*
D18*
X688583Y-53150D02*
D03*
X688583Y-41339D02*
D03*
Y-82284D02*
D03*
X688583Y-94095D02*
D03*
X656496Y-124803D02*
D03*
X580315D02*
D03*
X262795D02*
D03*
X186221Y-125192D02*
D03*
X110236Y-124798D02*
D03*
X656496Y-136614D02*
D03*
X110236Y-136609D02*
D03*
X186221Y-137003D02*
D03*
X262795Y-136614D02*
D03*
X332677Y-110630D02*
D03*
Y-98819D02*
D03*
X361417Y-98425D02*
D03*
Y-110236D02*
D03*
X371654D02*
D03*
Y-98425D02*
D03*
X381496Y-110236D02*
D03*
Y-98425D02*
D03*
X497244Y-111811D02*
D03*
Y-100000D02*
D03*
X536221Y-111417D02*
D03*
Y-99606D02*
D03*
X546063Y-111417D02*
D03*
Y-99606D02*
D03*
X580315Y-136614D02*
D03*
X688583Y-61417D02*
D03*
X688583Y-73228D02*
D03*
X525984Y-111417D02*
D03*
Y-99606D02*
D03*
D19*
X228130Y-52709D02*
D03*
X218130Y-74064D02*
D03*
X223130D02*
D03*
X228130D02*
D03*
X213130Y-52709D02*
D03*
X223130D02*
D03*
X218130D02*
D03*
X508286Y-52709D02*
D03*
Y-74064D02*
D03*
X498286D02*
D03*
X503286D02*
D03*
Y-52709D02*
D03*
X498286D02*
D03*
X493286D02*
D03*
X610648D02*
D03*
X600648Y-74064D02*
D03*
X605648D02*
D03*
X610648D02*
D03*
X605648Y-52709D02*
D03*
X600648D02*
D03*
X595648D02*
D03*
X136592D02*
D03*
X141592D02*
D03*
X146592D02*
D03*
X151592D02*
D03*
Y-74064D02*
D03*
X146592D02*
D03*
X141592D02*
D03*
D20*
X213130Y-74064D02*
D03*
X136592Y-74064D02*
D03*
X493286D02*
D03*
X595648D02*
D03*
D21*
X674456Y-59033D02*
D03*
X674456Y-64033D02*
D03*
X674456Y-69033D02*
D03*
X653102Y-74033D02*
D03*
Y-69033D02*
D03*
Y-64033D02*
D03*
X674456Y-74033D02*
D03*
D22*
X653102Y-59033D02*
D03*
D23*
X856107Y-7172D02*
D03*
X826571D02*
D03*
X859252Y-187016D02*
D03*
Y-157480D02*
D03*
X827756Y-187016D02*
D03*
X9834Y-6890D02*
D03*
X39370D02*
D03*
X9834Y-38386D02*
D03*
X6890Y-187016D02*
D03*
Y-157480D02*
D03*
X38386Y-187016D02*
D03*
D24*
X680709Y-131102D02*
D03*
X684449Y-122047D02*
D03*
X138189Y-122042D02*
D03*
X130709D02*
D03*
X134449Y-131098D02*
D03*
X206693Y-122436D02*
D03*
X210433Y-131491D02*
D03*
X214173Y-122436D02*
D03*
X283268Y-122047D02*
D03*
X287008Y-131102D02*
D03*
X290748Y-122047D02*
D03*
X600787D02*
D03*
X604528Y-131102D02*
D03*
X608268Y-122047D02*
D03*
X676968D02*
D03*
D25*
X520472Y-59449D02*
D03*
Y-67323D02*
D03*
X323622Y-102756D02*
D03*
Y-110630D02*
D03*
X488189Y-111811D02*
D03*
Y-103937D02*
D03*
X528346Y-67323D02*
D03*
Y-59449D02*
D03*
X585433Y-65748D02*
D03*
Y-57874D02*
D03*
X204882Y-57874D02*
D03*
Y-65748D02*
D03*
X127953Y-65748D02*
D03*
Y-57874D02*
D03*
D26*
X661417Y-48425D02*
D03*
X669291Y-48425D02*
D03*
D27*
X328701Y-47638D02*
D03*
D28*
X333701D02*
D03*
X338701Y-47638D02*
D03*
X343701Y-47638D02*
D03*
X348701Y-47638D02*
D03*
X353701D02*
D03*
X358701D02*
D03*
X358701Y-24409D02*
D03*
X353701D02*
D03*
X348701Y-24409D02*
D03*
X343701Y-24409D02*
D03*
X338701Y-24409D02*
D03*
X333701Y-24409D02*
D03*
X328701D02*
D03*
M02*
