G04*
G04 #@! TF.GenerationSoftware,Altium Limited,Altium Designer,24.3.1 (35)*
G04*
G04 Layer_Color=16711935*
%FSLAX25Y25*%
%MOIN*%
G70*
G04*
G04 #@! TF.SameCoordinates,93CE9DFF-0CCD-43E9-96D4-8759F4791444*
G04*
G04*
G04 #@! TF.FilePolarity,Negative*
G04*
G01*
G75*
%ADD44R,0.05918X0.05918*%
%ADD45C,0.05918*%
%ADD46C,0.09461*%
%ADD47C,0.12611*%
%ADD48R,0.05918X0.05918*%
%ADD49C,0.04737*%
%ADD50C,0.03950*%
D44*
X356181Y-165354D02*
D03*
X520866Y-165354D02*
D03*
D45*
X346181Y-165354D02*
D03*
X510866Y-165354D02*
D03*
X846457Y-39370D02*
D03*
X838583Y-47244D02*
D03*
X846457D02*
D03*
X838583Y-55118D02*
D03*
X846457D02*
D03*
X838583Y-62992D02*
D03*
X846457D02*
D03*
X838583Y-70866D02*
D03*
X846457D02*
D03*
X838583Y-78740D02*
D03*
X846457D02*
D03*
X838583Y-86614D02*
D03*
X846457D02*
D03*
X838583Y-94488D02*
D03*
X846457D02*
D03*
X838583Y-102362D02*
D03*
X846457D02*
D03*
X838583Y-110236D02*
D03*
X846457D02*
D03*
X727953Y-136614D02*
D03*
X641339D02*
D03*
X567323Y-136614D02*
D03*
X476772Y-117323D02*
D03*
X312598Y-116535D02*
D03*
X252362Y-136614D02*
D03*
X174016Y-137003D02*
D03*
X97244Y-136609D02*
D03*
D46*
X827172Y-167323D02*
D03*
X433471D02*
D03*
X39770D02*
D03*
D47*
X668504Y-155512D02*
D03*
X744882D02*
D03*
X515748Y-135827D02*
D03*
X351181D02*
D03*
X592126Y-155512D02*
D03*
X274803Y-155512D02*
D03*
X198425Y-155512D02*
D03*
X122047Y-155512D02*
D03*
X78740Y-19685D02*
D03*
X787402Y-19685D02*
D03*
D48*
X838583Y-39370D02*
D03*
D49*
X828740Y-51181D02*
D03*
X822441Y-55612D02*
D03*
X819989Y-28871D02*
D03*
X824359Y-24500D02*
D03*
X734646Y-105905D02*
D03*
X800787Y-77165D02*
D03*
X816142Y-75197D02*
D03*
X817914Y-111855D02*
D03*
X799838Y-66142D02*
D03*
X785827D02*
D03*
X799213Y-59250D02*
D03*
X792260Y-62921D02*
D03*
X806693Y-57069D02*
D03*
D50*
X669291Y-124803D02*
D03*
X592126D02*
D03*
X335827Y-88976D02*
D03*
X275984Y-124803D02*
D03*
X199213Y-125192D02*
D03*
X119685Y-124798D02*
D03*
X679134Y-93701D02*
D03*
X678346Y-40551D02*
D03*
X570472Y-40945D02*
D03*
X564567D02*
D03*
X629134Y-51380D02*
D03*
X249606Y-51181D02*
D03*
X190551Y-40955D02*
D03*
X184646Y-40945D02*
D03*
X110630D02*
D03*
X104724D02*
D03*
X170866Y-51282D02*
D03*
X710630Y-45376D02*
D03*
X323622Y-63748D02*
D03*
X386614Y-56299D02*
D03*
X506693Y-94882D02*
D03*
X283465Y-57480D02*
D03*
X537795D02*
D03*
X513779Y-51968D02*
D03*
X232677Y-52709D02*
D03*
X156693Y-52709D02*
D03*
X615748Y-52362D02*
D03*
X655729Y-48425D02*
D03*
X669291Y-40551D02*
D03*
X520866Y-41339D02*
D03*
X825591Y-100787D02*
D03*
M02*
