G04*
G04 #@! TF.GenerationSoftware,Altium Limited,Altium Designer,24.3.1 (35)*
G04*
G04 Layer_Color=32896*
%FSLAX25Y25*%
%MOIN*%
G70*
G04*
G04 #@! TF.SameCoordinates,93CE9DFF-0CCD-43E9-96D4-8759F4791444*
G04*
G04*
G04 #@! TF.FilePolarity,Positive*
G04*
G01*
G75*
G36*
X840476Y-31447D02*
X840558Y-31475D01*
X840613Y-31511D01*
X840631Y-31520D01*
X840686Y-31593D01*
X840713Y-31648D01*
X840722Y-31684D01*
Y-31693D01*
X840713Y-31748D01*
X840704Y-31793D01*
X840695Y-31830D01*
X840686Y-31839D01*
X840659Y-31885D01*
X840622Y-31930D01*
X840595Y-31957D01*
X840586Y-31967D01*
X839347Y-33196D01*
X839274Y-33251D01*
X839201Y-33278D01*
X839155Y-33287D01*
X839146D01*
X839137D01*
X839092Y-33278D01*
X839055Y-33269D01*
X838982Y-33233D01*
X838937Y-33205D01*
X838928Y-33187D01*
X838919D01*
X838864Y-33114D01*
X838837Y-33041D01*
X838828Y-32996D01*
Y-32978D01*
X838846Y-32896D01*
X838873Y-32823D01*
X838900Y-32777D01*
X838919Y-32759D01*
X839629Y-32048D01*
X834828D01*
X834728Y-32030D01*
X834655Y-32003D01*
X834619Y-31976D01*
X834600Y-31957D01*
X834555Y-31885D01*
X834537Y-31821D01*
X834528Y-31766D01*
Y-31748D01*
X834537Y-31657D01*
X834564Y-31584D01*
X834591Y-31547D01*
X834600Y-31529D01*
X834673Y-31475D01*
X834746Y-31447D01*
X834801Y-31438D01*
X834819D01*
X834828D01*
X840367D01*
X840476Y-31447D01*
D02*
G37*
G36*
X843965Y-30611D02*
X844029Y-30638D01*
X844075Y-30666D01*
X844093Y-30684D01*
X844129Y-30720D01*
X844147Y-30748D01*
X844184Y-30821D01*
X844193Y-30875D01*
Y-32807D01*
X847354Y-30821D01*
X847500Y-30757D01*
X847637Y-30702D01*
X847764Y-30666D01*
X847873Y-30648D01*
X847974Y-30629D01*
X848047Y-30620D01*
X848092D01*
X848110D01*
X848229Y-30629D01*
X848347Y-30638D01*
X848566Y-30702D01*
X848766Y-30775D01*
X848930Y-30866D01*
X849067Y-30966D01*
X849122Y-31003D01*
X849167Y-31039D01*
X849203Y-31076D01*
X849231Y-31103D01*
X849240Y-31112D01*
X849249Y-31121D01*
X849331Y-31221D01*
X849413Y-31322D01*
X849477Y-31422D01*
X849531Y-31522D01*
X849613Y-31732D01*
X849668Y-31923D01*
X849705Y-32087D01*
X849714Y-32160D01*
X849723Y-32223D01*
X849732Y-32269D01*
Y-32342D01*
X849723Y-32460D01*
X849705Y-32579D01*
X849686Y-32624D01*
X849677Y-32661D01*
X849668Y-32679D01*
Y-32688D01*
X849623Y-32816D01*
X849568Y-32934D01*
X849550Y-32980D01*
X849531Y-33016D01*
X849522Y-33034D01*
X849513Y-33043D01*
X849431Y-33171D01*
X849340Y-33289D01*
X849249Y-33380D01*
X849167Y-33463D01*
X849094Y-33535D01*
X849030Y-33581D01*
X848994Y-33608D01*
X848976Y-33617D01*
X848903Y-33645D01*
X848848Y-33663D01*
X848812Y-33672D01*
X848803D01*
X848757Y-33663D01*
X848712Y-33654D01*
X848648Y-33617D01*
X848602Y-33590D01*
X848584Y-33572D01*
X848538Y-33499D01*
X848511Y-33426D01*
X848502Y-33371D01*
Y-33353D01*
X848529Y-33217D01*
X848566Y-33162D01*
X848602Y-33125D01*
X848630Y-33107D01*
X848639Y-33098D01*
X848785Y-32989D01*
X848848Y-32925D01*
X848903Y-32870D01*
X848939Y-32816D01*
X848967Y-32779D01*
X848985Y-32752D01*
X848994Y-32743D01*
X849040Y-32661D01*
X849067Y-32579D01*
X849094Y-32506D01*
X849103Y-32433D01*
X849112Y-32378D01*
X849122Y-32333D01*
Y-32296D01*
X849112Y-32132D01*
X849094Y-32059D01*
X849085Y-32005D01*
X849067Y-31950D01*
X849049Y-31914D01*
X849040Y-31886D01*
Y-31877D01*
X848967Y-31741D01*
X848903Y-31640D01*
X848866Y-31595D01*
X848848Y-31568D01*
X848830Y-31549D01*
X848821Y-31540D01*
X848712Y-31440D01*
X848593Y-31358D01*
X848475Y-31303D01*
X848374Y-31267D01*
X848274Y-31249D01*
X848201Y-31231D01*
X848156D01*
X848147D01*
X848138D01*
X848056Y-31240D01*
X847974Y-31249D01*
X847892Y-31267D01*
X847828Y-31285D01*
X847764Y-31313D01*
X847719Y-31331D01*
X847682Y-31340D01*
X847673Y-31349D01*
X844056Y-33617D01*
X843965Y-33663D01*
X843892Y-33681D01*
X843847Y-33690D01*
X843829D01*
X843747Y-33672D01*
X843683Y-33636D01*
X843647Y-33581D01*
X843610Y-33517D01*
X843592Y-33463D01*
X843583Y-33408D01*
Y-30893D01*
X843592Y-30839D01*
X843601Y-30793D01*
X843637Y-30729D01*
X843665Y-30684D01*
X843683Y-30675D01*
X843756Y-30629D01*
X843820Y-30602D01*
X843865Y-30593D01*
X843883D01*
X843965Y-30611D01*
D02*
G37*
G36*
X848969Y-114491D02*
X849160Y-114536D01*
X849324Y-114600D01*
X849461Y-114673D01*
X849570Y-114755D01*
X849652Y-114819D01*
X849707Y-114865D01*
X849725Y-114874D01*
Y-114883D01*
X849798Y-114956D01*
X849861Y-115038D01*
X849953Y-115202D01*
X850025Y-115356D01*
X850080Y-115502D01*
X850107Y-115639D01*
X850117Y-115739D01*
X850126Y-115776D01*
Y-116295D01*
X850107Y-116395D01*
X850062Y-116586D01*
X849998Y-116741D01*
X849925Y-116887D01*
X849843Y-116996D01*
X849779Y-117078D01*
X849734Y-117133D01*
X849725Y-117142D01*
X849716Y-117151D01*
X849634Y-117224D01*
X849561Y-117279D01*
X849397Y-117379D01*
X849233Y-117443D01*
X849087Y-117497D01*
X848960Y-117525D01*
X848859Y-117534D01*
X848823Y-117543D01*
X848796D01*
X848777D01*
X848768D01*
X845325D01*
X845215Y-117534D01*
X845115Y-117525D01*
X844933Y-117479D01*
X844769Y-117415D01*
X844623Y-117342D01*
X844514Y-117270D01*
X844432Y-117206D01*
X844377Y-117160D01*
X844368Y-117142D01*
X844359D01*
X844232Y-116987D01*
X844140Y-116823D01*
X844067Y-116668D01*
X844022Y-116513D01*
X843995Y-116386D01*
X843985Y-116286D01*
X843976Y-116249D01*
Y-115830D01*
X843985Y-115730D01*
X843995Y-115630D01*
X844040Y-115438D01*
X844104Y-115274D01*
X844177Y-115138D01*
X844250Y-115029D01*
X844314Y-114946D01*
X844359Y-114892D01*
X844377Y-114874D01*
X844450Y-114801D01*
X844532Y-114737D01*
X844696Y-114646D01*
X844851Y-114573D01*
X845006Y-114518D01*
X845133Y-114491D01*
X845234Y-114482D01*
X845270Y-114473D01*
X845297D01*
X845316D01*
X845325D01*
X848768D01*
X848868D01*
X848969Y-114491D01*
D02*
G37*
G36*
X844359Y-118800D02*
X844423Y-118827D01*
X844468Y-118855D01*
X844487Y-118873D01*
X844523Y-118909D01*
X844541Y-118937D01*
X844578Y-119009D01*
X844587Y-119064D01*
Y-120995D01*
X847748Y-119009D01*
X847894Y-118946D01*
X848030Y-118891D01*
X848158Y-118855D01*
X848267Y-118836D01*
X848367Y-118818D01*
X848440Y-118809D01*
X848486D01*
X848504D01*
X848623Y-118818D01*
X848741Y-118827D01*
X848960Y-118891D01*
X849160Y-118964D01*
X849324Y-119055D01*
X849461Y-119155D01*
X849515Y-119192D01*
X849561Y-119228D01*
X849597Y-119265D01*
X849625Y-119292D01*
X849634Y-119301D01*
X849643Y-119310D01*
X849725Y-119410D01*
X849807Y-119511D01*
X849871Y-119611D01*
X849925Y-119711D01*
X850007Y-119921D01*
X850062Y-120112D01*
X850098Y-120276D01*
X850107Y-120349D01*
X850117Y-120413D01*
X850126Y-120458D01*
Y-120531D01*
X850117Y-120649D01*
X850098Y-120768D01*
X850080Y-120813D01*
X850071Y-120850D01*
X850062Y-120868D01*
Y-120877D01*
X850016Y-121005D01*
X849962Y-121123D01*
X849943Y-121169D01*
X849925Y-121205D01*
X849916Y-121223D01*
X849907Y-121232D01*
X849825Y-121360D01*
X849734Y-121478D01*
X849643Y-121570D01*
X849561Y-121651D01*
X849488Y-121724D01*
X849424Y-121770D01*
X849388Y-121797D01*
X849370Y-121806D01*
X849297Y-121834D01*
X849242Y-121852D01*
X849205Y-121861D01*
X849196D01*
X849151Y-121852D01*
X849105Y-121843D01*
X849041Y-121806D01*
X848996Y-121779D01*
X848978Y-121761D01*
X848932Y-121688D01*
X848905Y-121615D01*
X848896Y-121560D01*
Y-121542D01*
X848923Y-121405D01*
X848960Y-121351D01*
X848996Y-121314D01*
X849023Y-121296D01*
X849032Y-121287D01*
X849178Y-121178D01*
X849242Y-121114D01*
X849297Y-121059D01*
X849333Y-121005D01*
X849360Y-120968D01*
X849379Y-120941D01*
X849388Y-120932D01*
X849433Y-120850D01*
X849461Y-120768D01*
X849488Y-120695D01*
X849497Y-120622D01*
X849506Y-120567D01*
X849515Y-120522D01*
Y-120485D01*
X849506Y-120321D01*
X849488Y-120248D01*
X849479Y-120194D01*
X849461Y-120139D01*
X849442Y-120103D01*
X849433Y-120075D01*
Y-120066D01*
X849360Y-119930D01*
X849297Y-119829D01*
X849260Y-119784D01*
X849242Y-119757D01*
X849224Y-119738D01*
X849215Y-119729D01*
X849105Y-119629D01*
X848987Y-119547D01*
X848868Y-119492D01*
X848768Y-119456D01*
X848668Y-119438D01*
X848595Y-119420D01*
X848550D01*
X848540D01*
X848531D01*
X848449Y-119429D01*
X848367Y-119438D01*
X848285Y-119456D01*
X848222Y-119474D01*
X848158Y-119501D01*
X848112Y-119520D01*
X848076Y-119529D01*
X848067Y-119538D01*
X844450Y-121806D01*
X844359Y-121852D01*
X844286Y-121870D01*
X844241Y-121879D01*
X844222D01*
X844140Y-121861D01*
X844077Y-121825D01*
X844040Y-121770D01*
X844004Y-121706D01*
X843985Y-121651D01*
X843976Y-121597D01*
Y-119082D01*
X843985Y-119028D01*
X843995Y-118982D01*
X844031Y-118918D01*
X844058Y-118873D01*
X844077Y-118864D01*
X844149Y-118818D01*
X844213Y-118791D01*
X844259Y-118782D01*
X844277D01*
X844359Y-118800D01*
D02*
G37*
G36*
X839747Y-114941D02*
X839911Y-114978D01*
X840057Y-115041D01*
X840184Y-115105D01*
X840285Y-115169D01*
X840367Y-115233D01*
X840412Y-115269D01*
X840431Y-115287D01*
X840549Y-115424D01*
X840640Y-115570D01*
X840704Y-115715D01*
X840749Y-115852D01*
X840777Y-115971D01*
X840786Y-116071D01*
X840795Y-116107D01*
Y-116772D01*
X840777Y-116954D01*
X840740Y-117118D01*
X840676Y-117273D01*
X840613Y-117392D01*
X840549Y-117501D01*
X840485Y-117574D01*
X840449Y-117619D01*
X840431Y-117638D01*
X840285Y-117756D01*
X840139Y-117847D01*
X839993Y-117902D01*
X839866Y-117947D01*
X839747Y-117975D01*
X839647Y-117984D01*
X839611Y-117993D01*
X839583D01*
X839574D01*
X839565D01*
X838335D01*
X838153Y-117975D01*
X837980Y-117938D01*
X837834Y-117875D01*
X837707Y-117811D01*
X837597Y-117747D01*
X837524Y-117683D01*
X837479Y-117647D01*
X837461Y-117629D01*
X837342Y-117483D01*
X837251Y-117337D01*
X837197Y-117200D01*
X837151Y-117064D01*
X837124Y-116945D01*
X837115Y-116854D01*
X837105Y-116818D01*
Y-115661D01*
X836841Y-115734D01*
X836613Y-115816D01*
X836440Y-115898D01*
X836276Y-115998D01*
X836140Y-116089D01*
X836012Y-116171D01*
X835912Y-116253D01*
X835839Y-116317D01*
X835793Y-116353D01*
X835775Y-116371D01*
X835648Y-116508D01*
X835538Y-116636D01*
X835502Y-116690D01*
X835475Y-116727D01*
X835456Y-116754D01*
X835447Y-116763D01*
X835356Y-116918D01*
X835320Y-116991D01*
X835293Y-117055D01*
X835265Y-117109D01*
X835247Y-117155D01*
X835229Y-117182D01*
Y-117191D01*
X835183Y-117264D01*
X835147Y-117310D01*
X835110Y-117337D01*
X835101Y-117346D01*
X835056Y-117364D01*
X835010Y-117373D01*
X834974Y-117383D01*
X834964D01*
X834873Y-117364D01*
X834801Y-117337D01*
X834755Y-117310D01*
X834746Y-117291D01*
X834737D01*
X834682Y-117219D01*
X834655Y-117155D01*
X834646Y-117109D01*
Y-117091D01*
X834664Y-116954D01*
X834764Y-116745D01*
X834873Y-116553D01*
X834983Y-116380D01*
X835092Y-116226D01*
X835192Y-116107D01*
X835274Y-116016D01*
X835302Y-115989D01*
X835329Y-115961D01*
X835338Y-115952D01*
X835347Y-115943D01*
X835520Y-115788D01*
X835693Y-115652D01*
X835866Y-115533D01*
X836021Y-115433D01*
X836167Y-115360D01*
X836222Y-115333D01*
X836267Y-115305D01*
X836313Y-115287D01*
X836340Y-115269D01*
X836358Y-115260D01*
X836367D01*
X836659Y-115151D01*
X836950Y-115069D01*
X837233Y-115005D01*
X837488Y-114968D01*
X837597Y-114950D01*
X837707Y-114941D01*
X837798Y-114932D01*
X837880D01*
X837943Y-114923D01*
X837989D01*
X838016D01*
X838025D01*
X839565D01*
X839747Y-114941D01*
D02*
G37*
G36*
X840594Y-119223D02*
X840676Y-119250D01*
X840731Y-119287D01*
X840749Y-119296D01*
X840804Y-119369D01*
X840831Y-119423D01*
X840841Y-119460D01*
Y-119469D01*
X840831Y-119523D01*
X840822Y-119569D01*
X840813Y-119605D01*
X840804Y-119615D01*
X840777Y-119660D01*
X840740Y-119706D01*
X840713Y-119733D01*
X840704Y-119742D01*
X839465Y-120972D01*
X839392Y-121027D01*
X839319Y-121054D01*
X839273Y-121063D01*
X839264D01*
X839255D01*
X839210Y-121054D01*
X839173Y-121045D01*
X839100Y-121008D01*
X839055Y-120981D01*
X839046Y-120963D01*
X839037D01*
X838982Y-120890D01*
X838955Y-120817D01*
X838946Y-120772D01*
Y-120753D01*
X838964Y-120671D01*
X838991Y-120598D01*
X839019Y-120553D01*
X839037Y-120535D01*
X839747Y-119824D01*
X834946D01*
X834846Y-119806D01*
X834773Y-119779D01*
X834737Y-119751D01*
X834719Y-119733D01*
X834673Y-119660D01*
X834655Y-119596D01*
X834646Y-119542D01*
Y-119523D01*
X834655Y-119432D01*
X834682Y-119359D01*
X834709Y-119323D01*
X834719Y-119305D01*
X834791Y-119250D01*
X834864Y-119223D01*
X834919Y-119214D01*
X834937D01*
X834946D01*
X840485D01*
X840594Y-119223D01*
D02*
G37*
G36*
X866214Y-72851D02*
X866345Y-72895D01*
X866432Y-72953D01*
X866461Y-72968D01*
X866549Y-73085D01*
X866593Y-73172D01*
X866607Y-73230D01*
Y-73245D01*
X866593Y-73332D01*
X866578Y-73405D01*
X866564Y-73464D01*
X866549Y-73478D01*
X866505Y-73551D01*
X866447Y-73624D01*
X866403Y-73668D01*
X866389Y-73682D01*
X864406Y-75651D01*
X864289Y-75738D01*
X864172Y-75782D01*
X864100Y-75796D01*
X864085D01*
X864070D01*
X863997Y-75782D01*
X863939Y-75767D01*
X863822Y-75709D01*
X863750Y-75665D01*
X863735Y-75636D01*
X863721D01*
X863633Y-75519D01*
X863589Y-75403D01*
X863575Y-75330D01*
Y-75301D01*
X863604Y-75169D01*
X863648Y-75053D01*
X863691Y-74980D01*
X863721Y-74951D01*
X864858Y-73813D01*
X857174D01*
X857014Y-73784D01*
X856897Y-73741D01*
X856839Y-73697D01*
X856810Y-73668D01*
X856737Y-73551D01*
X856707Y-73449D01*
X856693Y-73362D01*
Y-73332D01*
X856707Y-73187D01*
X856751Y-73070D01*
X856795Y-73012D01*
X856810Y-72983D01*
X856926Y-72895D01*
X857043Y-72851D01*
X857130Y-72837D01*
X857160D01*
X857174D01*
X866039D01*
X866214Y-72851D01*
D02*
G37*
G36*
X864858Y-77794D02*
X865120Y-77852D01*
X865353Y-77954D01*
X865558Y-78056D01*
X865718Y-78158D01*
X865849Y-78260D01*
X865922Y-78319D01*
X865951Y-78348D01*
X866141Y-78567D01*
X866286Y-78800D01*
X866389Y-79033D01*
X866461Y-79252D01*
X866505Y-79441D01*
X866520Y-79602D01*
X866534Y-79660D01*
Y-83188D01*
X866520Y-83349D01*
X866461Y-83465D01*
X866374Y-83553D01*
X866286Y-83611D01*
X866199Y-83640D01*
X866112Y-83655D01*
X866053Y-83670D01*
X866039D01*
X857174D01*
X857014Y-83640D01*
X856897Y-83597D01*
X856839Y-83553D01*
X856810Y-83524D01*
X856737Y-83407D01*
X856707Y-83305D01*
X856693Y-83218D01*
Y-83188D01*
X856707Y-83043D01*
X856751Y-82926D01*
X856795Y-82868D01*
X856810Y-82839D01*
X856926Y-82751D01*
X857043Y-82707D01*
X857130Y-82693D01*
X857160D01*
X857174D01*
X860629D01*
Y-79748D01*
X860659Y-79456D01*
X860717Y-79179D01*
X860804Y-78946D01*
X860921Y-78742D01*
X861023Y-78581D01*
X861111Y-78450D01*
X861169Y-78377D01*
X861198Y-78348D01*
X861431Y-78158D01*
X861665Y-78013D01*
X861898Y-77911D01*
X862117Y-77838D01*
X862306Y-77794D01*
X862467Y-77779D01*
X862525Y-77765D01*
X862569D01*
X862583D01*
X862598D01*
X864566D01*
X864858Y-77794D01*
D02*
G37*
G36*
X866170Y-85638D02*
X866272Y-85682D01*
X866345Y-85740D01*
X866374Y-85755D01*
Y-85769D01*
X866432Y-85827D01*
X866461Y-85900D01*
X866520Y-86017D01*
X866534Y-86105D01*
Y-86250D01*
X866491Y-86352D01*
X866432Y-86425D01*
X866374Y-86484D01*
X866330Y-86513D01*
X866316Y-86527D01*
X862496Y-89064D01*
X866301Y-91616D01*
X866374Y-91674D01*
X866432Y-91747D01*
X866476Y-91805D01*
X866505Y-91878D01*
X866520Y-91922D01*
X866534Y-91966D01*
Y-92082D01*
X866505Y-92155D01*
X866461Y-92272D01*
X866403Y-92345D01*
X866389Y-92374D01*
X866374D01*
X866257Y-92461D01*
X866155Y-92505D01*
X866068Y-92520D01*
X866053D01*
X866039D01*
X865907D01*
X865762Y-92461D01*
X861606Y-89662D01*
X857451Y-92447D01*
X857349Y-92491D01*
X857261Y-92505D01*
X857203Y-92520D01*
X857189D01*
X857116Y-92505D01*
X857043Y-92491D01*
X856941Y-92432D01*
X856868Y-92388D01*
X856839Y-92359D01*
X856751Y-92228D01*
X856707Y-92126D01*
X856693Y-92053D01*
Y-92024D01*
X856737Y-91805D01*
X856795Y-91718D01*
X856853Y-91659D01*
X856897Y-91630D01*
X856912Y-91616D01*
X860717Y-89064D01*
X856912Y-86527D01*
X856839Y-86469D01*
X856780Y-86396D01*
X856751Y-86338D01*
X856722Y-86265D01*
X856707Y-86221D01*
X856693Y-86177D01*
Y-86134D01*
X856722Y-85988D01*
X856766Y-85871D01*
X856810Y-85798D01*
X856839Y-85769D01*
X856897Y-85711D01*
X856955Y-85682D01*
X857057Y-85623D01*
X857145Y-85609D01*
X857160D01*
X857174D01*
X857305Y-85638D01*
X857451Y-85696D01*
X861606Y-88466D01*
X865747Y-85696D01*
X865864Y-85638D01*
X865951Y-85623D01*
X866010Y-85609D01*
X866024D01*
X866097D01*
X866170Y-85638D01*
D02*
G37*
%LPC*%
G36*
X848823Y-115083D02*
X848787D01*
X848768D01*
X845325D01*
X845206Y-115092D01*
X845106Y-115120D01*
X845015Y-115156D01*
X844942Y-115192D01*
X844878Y-115238D01*
X844833Y-115274D01*
X844805Y-115302D01*
X844796Y-115311D01*
X844723Y-115393D01*
X844678Y-115484D01*
X844641Y-115575D01*
X844614Y-115648D01*
X844596Y-115721D01*
X844587Y-115776D01*
Y-116195D01*
X844596Y-116304D01*
X844623Y-116404D01*
X844650Y-116495D01*
X844696Y-116577D01*
X844732Y-116641D01*
X844760Y-116686D01*
X844787Y-116714D01*
X844796Y-116723D01*
X844878Y-116796D01*
X844969Y-116841D01*
X845061Y-116878D01*
X845142Y-116905D01*
X845215Y-116923D01*
X845270Y-116932D01*
X845316D01*
X845325D01*
X848768D01*
X848878Y-116923D01*
X848978Y-116896D01*
X849069Y-116869D01*
X849151Y-116823D01*
X849215Y-116787D01*
X849260Y-116759D01*
X849288Y-116732D01*
X849297Y-116723D01*
X849370Y-116641D01*
X849424Y-116550D01*
X849461Y-116459D01*
X849488Y-116377D01*
X849506Y-116304D01*
X849515Y-116249D01*
Y-115830D01*
X849506Y-115712D01*
X849479Y-115612D01*
X849442Y-115520D01*
X849406Y-115447D01*
X849370Y-115384D01*
X849333Y-115338D01*
X849306Y-115311D01*
X849297Y-115302D01*
X849215Y-115229D01*
X849123Y-115174D01*
X849032Y-115138D01*
X848950Y-115111D01*
X848878Y-115092D01*
X848823Y-115083D01*
D02*
G37*
G36*
X839611Y-115533D02*
X839574D01*
X839565D01*
X838016D01*
X837852D01*
X837716Y-115542D01*
Y-116772D01*
X837725Y-116854D01*
X837734Y-116927D01*
X837743Y-116991D01*
X837752Y-117000D01*
Y-117009D01*
X837798Y-117082D01*
X837843Y-117146D01*
X837880Y-117191D01*
X837889Y-117209D01*
X837962Y-117264D01*
X838035Y-117310D01*
X838107Y-117337D01*
X838180Y-117364D01*
X838235Y-117373D01*
X838281Y-117383D01*
X838317D01*
X838326D01*
X839565D01*
X839656Y-117373D01*
X839729Y-117364D01*
X839784Y-117355D01*
X839793Y-117346D01*
X839802D01*
X839884Y-117310D01*
X839948Y-117264D01*
X839984Y-117228D01*
X840002Y-117209D01*
X840066Y-117137D01*
X840112Y-117064D01*
X840139Y-116991D01*
X840166Y-116918D01*
X840175Y-116863D01*
X840184Y-116818D01*
Y-116153D01*
X840175Y-116062D01*
X840157Y-115971D01*
X840130Y-115898D01*
X840093Y-115834D01*
X840057Y-115788D01*
X840030Y-115743D01*
X840011Y-115725D01*
X840002Y-115715D01*
X839929Y-115652D01*
X839857Y-115606D01*
X839784Y-115579D01*
X839720Y-115551D01*
X839656Y-115542D01*
X839611Y-115533D01*
D02*
G37*
G36*
X864639Y-78742D02*
X864581D01*
X864566D01*
X862583D01*
X862423Y-78756D01*
X862292Y-78785D01*
X862160Y-78829D01*
X862058Y-78887D01*
X861985Y-78946D01*
X861913Y-78989D01*
X861883Y-79019D01*
X861869Y-79033D01*
X861781Y-79150D01*
X861723Y-79267D01*
X861665Y-79383D01*
X861635Y-79485D01*
X861621Y-79587D01*
X861606Y-79660D01*
Y-82693D01*
X865558D01*
Y-79733D01*
X865543Y-79587D01*
X865514Y-79441D01*
X865470Y-79325D01*
X865412Y-79223D01*
X865353Y-79150D01*
X865310Y-79077D01*
X865281Y-79048D01*
X865266Y-79033D01*
X865149Y-78931D01*
X865033Y-78858D01*
X864916Y-78815D01*
X864814Y-78771D01*
X864712Y-78756D01*
X864639Y-78742D01*
D02*
G37*
%LPD*%
M02*
