M48
;Layer_Color=9474304
;FILE_FORMAT=2:5
INCH
;TYPE=PLATED
T01F00S00C0.01968
T02F00S00C0.03150
T03F00S00C0.03543
%
T01
X0119685Y0327958
X0110630Y0411811
X0104724
X0156693Y0400047
X0170866Y0401474
X0184646Y0411811
X0190551Y0411801
X0232677Y0400047
X0249606Y0401575
X0283465Y0395276
X0275984Y0327953
X0199213Y0327564
X0335827Y0363780
X0323622Y0389008
X0386614Y0396457
X0513779Y0400787
X0520866Y0411417
X0537795Y0395276
X0564567Y0411811
X0570472
X0615748Y0400394
X0592126Y0327953
X0506693Y0357874
X0629134Y0401375
X0655729Y0404331
X0669291Y0412205
X0678346
X0710630Y0407380
X0679134Y0359055
X0669291Y0327953
X0734646Y0346850
X0817914Y0340901
X0825591Y0351969
X0816142Y0377559
X0800787Y0375591
X0799838Y0386614
X0799213Y0393506
X0806693Y0395687
X0822441Y0397144
X0828740Y0401575
X0819989Y0423885
X0824359Y0428256
X0792260Y0389835
X0785827Y0386614
T02
X0510866Y0287402
X0520866
X0356181Y0287402
X0346181
X0097244Y0316147
X0174016Y0315753
X0252362Y0316142
X0312598Y0336221
X0476772Y0335433
X0567323Y0316142
X0641339Y0316142
X0727953
T03
X0838583Y0342520
Y0350394
Y0358268
Y0366142
Y0374016
Y0381890
Y0389764
Y0397638
Y0405512
Y0413386
X0846457
Y0405512
Y0397638
Y0389764
Y0381890
Y0374016
Y0366142
Y0358268
Y0350394
Y0342520
M30
