G04*
G04 #@! TF.GenerationSoftware,Altium Limited,Altium Designer,24.3.1 (35)*
G04*
G04 Layer_Color=8388736*
%FSLAX25Y25*%
%MOIN*%
G70*
G04*
G04 #@! TF.SameCoordinates,93CE9DFF-0CCD-43E9-96D4-8759F4791444*
G04*
G04*
G04 #@! TF.FilePolarity,Negative*
G04*
G01*
G75*
%ADD29R,0.04737X0.07099*%
%ADD30R,0.02454X0.04304*%
%ADD31R,0.06706X0.06706*%
%ADD32R,0.06706X0.06706*%
%ADD33R,0.07099X0.04737*%
%ADD34O,0.03359X0.06804*%
%ADD35R,0.03359X0.06804*%
%ADD36O,0.06804X0.03359*%
%ADD37R,0.06804X0.03359*%
%ADD38C,0.07874*%
%ADD39R,0.03556X0.04934*%
%ADD40R,0.05721X0.04737*%
%ADD41R,0.04737X0.05721*%
%ADD42R,0.03162X0.07099*%
G04:AMPARAMS|DCode=43|XSize=70.99mil|YSize=31.62mil|CornerRadius=15.81mil|HoleSize=0mil|Usage=FLASHONLY|Rotation=90.000|XOffset=0mil|YOffset=0mil|HoleType=Round|Shape=RoundedRectangle|*
%AMROUNDEDRECTD43*
21,1,0.07099,0.00000,0,0,90.0*
21,1,0.03937,0.03162,0,0,90.0*
1,1,0.03162,0.00000,0.01968*
1,1,0.03162,0.00000,-0.01968*
1,1,0.03162,0.00000,-0.01968*
1,1,0.03162,0.00000,0.01968*
%
%ADD43ROUNDEDRECTD43*%
%ADD44R,0.05918X0.05918*%
%ADD45C,0.05918*%
%ADD46C,0.09461*%
%ADD47C,0.12611*%
%ADD48R,0.05918X0.05918*%
%ADD49C,0.04737*%
%ADD50C,0.03950*%
D29*
X343268Y-85827D02*
D03*
X355079Y-85827D02*
D03*
X119587Y-40945D02*
D03*
X131398Y-40945D02*
D03*
X170866Y-40945D02*
D03*
X159055Y-40945D02*
D03*
X249606Y-40945D02*
D03*
X237795Y-40945D02*
D03*
X210295Y-40955D02*
D03*
X198484Y-40955D02*
D03*
X629528Y-40945D02*
D03*
X617717Y-40945D02*
D03*
X590846Y-40945D02*
D03*
X579036Y-40945D02*
D03*
X229921Y-40945D02*
D03*
X218110Y-40945D02*
D03*
X138583Y-40945D02*
D03*
X150394Y-40945D02*
D03*
X495669Y-40945D02*
D03*
X507480Y-40945D02*
D03*
X519646Y-87008D02*
D03*
X507835D02*
D03*
X598425Y-40945D02*
D03*
X610236Y-40945D02*
D03*
D30*
X344882Y-112953D02*
D03*
X347441D02*
D03*
X350000D02*
D03*
X352559D02*
D03*
Y-96457D02*
D03*
X350000D02*
D03*
X347441D02*
D03*
X344882D02*
D03*
X514567Y-114134D02*
D03*
X509449Y-97638D02*
D03*
X512008Y-114134D02*
D03*
Y-97638D02*
D03*
X514567D02*
D03*
X517126D02*
D03*
Y-114134D02*
D03*
X509449D02*
D03*
D31*
X508382Y-184253D02*
D03*
X343697Y-183859D02*
D03*
X661020Y-187009D02*
D03*
X114563D02*
D03*
X190941D02*
D03*
X267319D02*
D03*
X584659Y-187010D02*
D03*
D32*
X523329Y-184250D02*
D03*
X358644Y-183856D02*
D03*
X675966Y-187006D02*
D03*
X129510D02*
D03*
X205888D02*
D03*
X282265D02*
D03*
X599606Y-187008D02*
D03*
D33*
X688583Y-53150D02*
D03*
X688583Y-41339D02*
D03*
Y-82284D02*
D03*
X688583Y-94095D02*
D03*
X656496Y-124803D02*
D03*
X580315D02*
D03*
X262795D02*
D03*
X186221Y-125192D02*
D03*
X110236Y-124798D02*
D03*
X656496Y-136614D02*
D03*
X110236Y-136609D02*
D03*
X186221Y-137003D02*
D03*
X262795Y-136614D02*
D03*
X332677Y-110630D02*
D03*
Y-98819D02*
D03*
X361417Y-98425D02*
D03*
Y-110236D02*
D03*
X371654D02*
D03*
Y-98425D02*
D03*
X381496Y-110236D02*
D03*
Y-98425D02*
D03*
X497244Y-111811D02*
D03*
Y-100000D02*
D03*
X536221Y-111417D02*
D03*
Y-99606D02*
D03*
X546063Y-111417D02*
D03*
Y-99606D02*
D03*
X580315Y-136614D02*
D03*
X688583Y-61417D02*
D03*
X688583Y-73228D02*
D03*
X525984Y-111417D02*
D03*
Y-99606D02*
D03*
D34*
X228130Y-52709D02*
D03*
X218130Y-74064D02*
D03*
X223130D02*
D03*
X228130D02*
D03*
X213130Y-52709D02*
D03*
X223130D02*
D03*
X218130D02*
D03*
X508286Y-52709D02*
D03*
Y-74064D02*
D03*
X498286D02*
D03*
X503286D02*
D03*
Y-52709D02*
D03*
X498286D02*
D03*
X493286D02*
D03*
X610648D02*
D03*
X600648Y-74064D02*
D03*
X605648D02*
D03*
X610648D02*
D03*
X605648Y-52709D02*
D03*
X600648D02*
D03*
X595648D02*
D03*
X136592D02*
D03*
X141592D02*
D03*
X146592D02*
D03*
X151592D02*
D03*
Y-74064D02*
D03*
X146592D02*
D03*
X141592D02*
D03*
D35*
X213130Y-74064D02*
D03*
X136592Y-74064D02*
D03*
X493286D02*
D03*
X595648D02*
D03*
D36*
X674456Y-59033D02*
D03*
X674456Y-64033D02*
D03*
X674456Y-69033D02*
D03*
X653102Y-74033D02*
D03*
Y-69033D02*
D03*
Y-64033D02*
D03*
X674456Y-74033D02*
D03*
D37*
X653102Y-59033D02*
D03*
D38*
X856107Y-7172D02*
D03*
X826571D02*
D03*
X859252Y-187016D02*
D03*
Y-157480D02*
D03*
X827756Y-187016D02*
D03*
X9834Y-6890D02*
D03*
X39370D02*
D03*
X9834Y-38386D02*
D03*
X6890Y-187016D02*
D03*
Y-157480D02*
D03*
X38386Y-187016D02*
D03*
D39*
X680709Y-131102D02*
D03*
X684449Y-122047D02*
D03*
X138189Y-122042D02*
D03*
X130709D02*
D03*
X134449Y-131098D02*
D03*
X206693Y-122436D02*
D03*
X210433Y-131491D02*
D03*
X214173Y-122436D02*
D03*
X283268Y-122047D02*
D03*
X287008Y-131102D02*
D03*
X290748Y-122047D02*
D03*
X600787D02*
D03*
X604528Y-131102D02*
D03*
X608268Y-122047D02*
D03*
X676968D02*
D03*
D40*
X520472Y-59449D02*
D03*
Y-67323D02*
D03*
X323622Y-102756D02*
D03*
Y-110630D02*
D03*
X488189Y-111811D02*
D03*
Y-103937D02*
D03*
X528346Y-67323D02*
D03*
Y-59449D02*
D03*
X585433Y-65748D02*
D03*
Y-57874D02*
D03*
X204882Y-57874D02*
D03*
Y-65748D02*
D03*
X127953Y-65748D02*
D03*
Y-57874D02*
D03*
D41*
X661417Y-48425D02*
D03*
X669291Y-48425D02*
D03*
D42*
X328701Y-47638D02*
D03*
D43*
X333701D02*
D03*
X338701Y-47638D02*
D03*
X343701Y-47638D02*
D03*
X348701Y-47638D02*
D03*
X353701D02*
D03*
X358701D02*
D03*
X358701Y-24409D02*
D03*
X353701D02*
D03*
X348701Y-24409D02*
D03*
X343701Y-24409D02*
D03*
X338701Y-24409D02*
D03*
X333701Y-24409D02*
D03*
X328701D02*
D03*
D44*
X356181Y-165354D02*
D03*
X520866Y-165354D02*
D03*
D45*
X346181Y-165354D02*
D03*
X510866Y-165354D02*
D03*
X846457Y-39370D02*
D03*
X838583Y-47244D02*
D03*
X846457D02*
D03*
X838583Y-55118D02*
D03*
X846457D02*
D03*
X838583Y-62992D02*
D03*
X846457D02*
D03*
X838583Y-70866D02*
D03*
X846457D02*
D03*
X838583Y-78740D02*
D03*
X846457D02*
D03*
X838583Y-86614D02*
D03*
X846457D02*
D03*
X838583Y-94488D02*
D03*
X846457D02*
D03*
X838583Y-102362D02*
D03*
X846457D02*
D03*
X838583Y-110236D02*
D03*
X846457D02*
D03*
X727953Y-136614D02*
D03*
X641339D02*
D03*
X567323Y-136614D02*
D03*
X476772Y-117323D02*
D03*
X312598Y-116535D02*
D03*
X252362Y-136614D02*
D03*
X174016Y-137003D02*
D03*
X97244Y-136609D02*
D03*
D46*
X827172Y-167323D02*
D03*
X433471D02*
D03*
X39770D02*
D03*
D47*
X668504Y-155512D02*
D03*
X744882D02*
D03*
X515748Y-135827D02*
D03*
X351181D02*
D03*
X592126Y-155512D02*
D03*
X274803Y-155512D02*
D03*
X198425Y-155512D02*
D03*
X122047Y-155512D02*
D03*
X78740Y-19685D02*
D03*
X787402Y-19685D02*
D03*
D48*
X838583Y-39370D02*
D03*
D49*
X828740Y-51181D02*
D03*
X822441Y-55612D02*
D03*
X819989Y-28871D02*
D03*
X824359Y-24500D02*
D03*
X734646Y-105905D02*
D03*
X800787Y-77165D02*
D03*
X816142Y-75197D02*
D03*
X817914Y-111855D02*
D03*
X799838Y-66142D02*
D03*
X785827D02*
D03*
X799213Y-59250D02*
D03*
X792260Y-62921D02*
D03*
X806693Y-57069D02*
D03*
D50*
X669291Y-124803D02*
D03*
X592126D02*
D03*
X335827Y-88976D02*
D03*
X275984Y-124803D02*
D03*
X199213Y-125192D02*
D03*
X119685Y-124798D02*
D03*
X679134Y-93701D02*
D03*
X678346Y-40551D02*
D03*
X570472Y-40945D02*
D03*
X564567D02*
D03*
X629134Y-51380D02*
D03*
X249606Y-51181D02*
D03*
X190551Y-40955D02*
D03*
X184646Y-40945D02*
D03*
X110630D02*
D03*
X104724D02*
D03*
X170866Y-51282D02*
D03*
X710630Y-45376D02*
D03*
X323622Y-63748D02*
D03*
X386614Y-56299D02*
D03*
X506693Y-94882D02*
D03*
X283465Y-57480D02*
D03*
X537795D02*
D03*
X513779Y-51968D02*
D03*
X232677Y-52709D02*
D03*
X156693Y-52709D02*
D03*
X615748Y-52362D02*
D03*
X655729Y-48425D02*
D03*
X669291Y-40551D02*
D03*
X520866Y-41339D02*
D03*
X825591Y-100787D02*
D03*
M02*
