M48
;Layer_Color=9474304
;FILE_FORMAT=4:4
METRIC,LZ
;TYPE=PLATED
T01F00S00C0.3000
T02F00S00C0.6000
T03F00S00C0.9000
T04F00S00C1.1000
T05F00S00C1.3000
T06F00S00C3.4000
;TYPE=NON_PLATED
T07F00S00C3.4000
%
T01
X0027025Y003085
Y003215
X0149805Y00515
X0150605
X01727Y00505
X01735
X0107825Y01573
X0107025
X00895222Y01555356
Y01547356
X00818Y0152645
X0081
X0148075Y0138125
X0148875
X02374398Y01743352
X02368741Y01749009
X02234Y017125
X02226
X0206725Y0164225
X0205925
X0198934Y017329
X019825Y0172875
X019995Y01769291
X020075
X01535Y016415
X01527
X0144875Y01695
Y0170375
X01333486Y01722086
X01326Y01724908
X01306Y017875
Y017955
X013115Y0164083
X013195
X0064Y017245
Y017325
X00593Y017525
X00585
X00506099Y01620934
X00504Y01611296
X001855Y016255
X001775
T02
X024Y00245
X0253Y0041
X0217Y00245
X0194
X01464Y00269
X01463Y003455
X0134375Y0034425
X01326Y0036125
X01294574Y00323324
X01279Y00309
X0121975Y002875
X0119075Y0028725
X01186Y0034075
X01206
X0120625Y003815
X0125525Y004015
X01144Y003775
X01142Y003355
X01162Y00335
X01117Y003355
X01097Y0033575
X0107425Y003775
Y00407
X010325Y0037225
X0103275Y0035225
X0103825Y0028725
X0105525
X009575Y0027025
X0091575Y00283291
X0089125Y003535
X0091625Y0039225
X009725Y003915
X009575Y00351
X008265Y0032875
X00808Y003645
X008185Y0026125
X0090925Y0015
X0094275
X0092375Y0013
X0089425
X00964
X01008125Y0015
X01026
X0069914Y00158
Y001785
Y001975
X0072475Y00211
Y00228
X0069914Y0024175
Y00267
Y00311
X00683534Y003625
X00647Y0037625
X005675Y003625
X004095Y00335
X00412Y0039325
X006275Y00228
Y001785
X00752Y0026125
X0035705Y00465625
X0031895Y0046575
X002905
X003205Y0051525
X00344Y0057125
X00371Y0059425
X0034435Y0062525
X0031895Y00625306
X00268Y0059925
X00271Y0067275
X0025Y007195
X00153
X000765
X00459Y007
X00479
X0047512Y0065625
X00497Y0062075
X00504Y0059125
X00504Y0057125
X00504Y0055125
Y0053125
X0050525Y00469671
X00525Y0046913
X00545Y00469125
X00562Y0048325
X0058
X006
X00628
X00659
X006755Y0049825
X006695Y0052025
X006695Y0054025
X006695Y0055725
Y0057725
Y0060325
Y0063925
X00651
X00629
X00609
X00588
X00568Y0063925
X00542
X00521
X005475Y0070725
X005675
Y0075075
X005475
X005175
Y007725
Y00798
X00664Y0074625
X006375Y0070575
X00699Y0066825
X0074Y0065025
Y0062825
X00741Y0059125
Y0057575
X00741Y0045125
X007215Y0043775
X00695Y0044425
X00647Y0042
X00628
X00542
X00521
X00501
X0047512
X00435Y0047525
X004105Y00464054
X004375Y0051425
X0044Y0060575
X0074Y0072625
X00772Y0070225
X00714464Y0079
X00823Y0066225
Y00644
X008785Y0061675
X0089275Y00602392
X00885Y005225
X00893Y00495
X00922Y004865
X0094675Y0046075
X010375Y0046425
Y00485
Y004425
X0107425Y0046175
X0108125Y00492
X011005Y004915
X0108125Y0051225
X0109325Y005595
X0111325
X0114325
X0116325Y0050975
X0116855Y0062016
X01058Y0055875
X0103775
X01021Y00581
X01009625Y00521
X008265Y005065
X012Y004945
X012Y004655
Y004385
Y004185
X01234Y005395
X0125475
X0121975Y0056775
X0129961
X01314Y0046175
X0146625Y0041675
X0152185Y004165
X0149425Y0068776
Y00764
X0155775Y007755
X0129075Y0074125
X01269
X012045Y0067375
X0157525Y0066236
X0160875Y007115
X0162775Y00609
X01716Y00639
X0177425Y0069725
X01749Y00417
X01693
X0253Y0064
Y0087
Y011
X0212975
X0201Y0098
X0178Y00977
X0155Y0098
X0123225Y0086475
X011945Y0088125
X0099375Y0102375
X008515Y01066
Y01131
X00852Y00959
Y00894
X00761Y0096
X00718Y00957
X00631Y00956
X00578Y00939
Y00874
X00631741
X00682
X006815Y01046
X00631241
X005775
Y01111
X005325Y01107
X00515Y01122
X00503Y01207
X00396Y01198
X006305Y01128
X007175Y01129
X007605Y01132
X005175Y008275
X00332Y00931
X00263Y00917
X0036Y01194143
Y01258
X00264Y01267
Y01309
X00263Y01336
X00200365Y015285
X001425
X00385Y01515
X004425
X0058695Y01445
X00641Y01445
X00631Y0129775
X00578Y0128075
Y0121575
X00631
X00682
X00718Y0129875
X00761Y0130175
X00396Y01278
X00852Y0130075
Y0123575
X00849Y01446339
X0079495Y01446339
X0105645Y01412475
X01113
X0113455Y0151497
X01023
X0105645Y013375
X0130195Y01297
X01356Y01297
X014657Y0129725
X0151975Y0129725
X015125Y014515
X01512Y01501
X015695
X01468Y016035
X0137555Y016035
X012525
X012965Y01501
X01354
X0159105Y016035
X0190175Y015405
X0190275Y0148725
X0195925Y015405
X01914885Y0133775
X0197275
X02084885Y0133875
X0214275
X0212325Y0124275
X0235Y0133
X02188Y015225
X0244Y014755
X0253Y0133
X0254575Y0172825
X02468Y01706
X025455Y018505
X02655Y01771
X02327Y01748504
X0224905Y0163
X02195Y0163
X019808Y01643
X0185775
X01813Y0183725
X01105Y016575
X0046405Y016175
X00429Y01685
X00409023Y017775
X00341Y016175
T03
X00562Y0053525
X00585Y0055825
X00562Y0058125
X00608
Y0053525
X00115Y01117
Y01167
X00545Y0159
X00565
X00585
X00605
X00625
X00645
X00665
X00685
X00705
X00725
X00745
X00765
X00785
X00805
X00825
X00845
X00865
X00885
X00905
X00925
X02433Y0179
Y0181
X02453
X02473
Y0179
X02453
X02493
X02513
Y0181
X02493
X02533
X02553
X02573
X02593
X02613
Y0179
X02593
X02573
X02553
X02533
X02285
Y0181
X02265
X02245
X02225
X02205
X02185
X02165
Y0179
X02185
X02205
X02225
X02245
X02265
X02145
X02125
X02105
Y0181
X02125
X02145
X01957
Y0179
X01937
X01917
Y0181
X01937
X01897
X01877
X01857
X01837
Y0179
X01857
X01877
X01897
X01817
X01797
X01777
Y0181
X01797
X01817
X0163Y0181
X0161
Y0179
X0163
X0159
Y0181
X0157
X0155
Y0179
X0157
X01298Y0174
X01278
Y0172
X01298
X01258
X01238
X01218
X01198
X01178
Y0174
X01198
X01218
X01238
X01258
X01158
Y0172
X01138
X01118
Y0174
X01138
X01098
X01078
X01058
Y0172
X01078
X01098
X01038
X01018
X00998
X00978
Y0174
X00998
X01018
X01038
X00958
X00938
Y0172
X00958
X00918
Y0174
X00925Y0161
X00905
X00885
X00865
X00845
X00825
X00805
X00785
X00765
X00745
X00725
X00705
X00685
X00665
X00645
X00625
X00605
X00585
X00565
X00545
X00529Y0172
X00509
X00489
X00469
X00449
X00429
X00409
X00389
Y0174
X00409
X00429
X00449
X00469
X00489
X00509
X00529
X00369
X00349
Y0172
X00369
X00329
X00309
X00289
X00269
X00249
X00229
X00209
Y0174
X00229
X00249
X00269
X00289
X00309
X00329
X00189
X00169
Y0172
X00189
X00149
Y0174
T04
X007809Y001285
X008063
X008317
X007555
X0060025
X0057485
X0054945
X0052405
X0031Y002215
X002846
X002592
X002338
X002304Y00509409
Y00534809
Y00560209
Y00585609
Y00611009
X00205
Y00585609
Y00560209
Y00534809
Y00509409
X0106695Y0070725
X0109235
X0111775
X0114315
X0116855
X0119395
X013709Y0071318
Y0073858
Y0076398
Y0078938
X013963
Y0076398
Y0073858
Y0071318
Y0068778
X013709
Y0066238
Y0063698
Y0061158
Y0058618
Y0056078
Y0053538
Y0050998
X013963
Y0053538
Y0056078
Y0058618
Y0061158
Y0063698
Y0066238
Y0081478
X013709
Y0084018
Y0086558
Y0089098
Y0091638
Y0094178
Y0096718
Y0099258
X013963
Y0096718
Y0094178
Y0091638
Y0089098
Y0086558
Y0084018
X001694Y01035
X00144
X001186
X000932
T05
X012035Y001905
X012535Y0015
X013035Y001905
X011535Y0015
X011035Y001905
X010535Y0015
X0044Y004
X0037505Y0048875
X0044075Y0045
X0058626Y00783
X006125Y00802
X00638736Y00783
X013009Y0065596
X014663Y0061158
Y0053538
X01525Y0056078
X014663Y0086556
X013009Y0084018
T06
X0265Y0005
X014
X0015
X0275Y0185
X014
X0005
T07
X0165916Y0048792
X0253
Y0098
X0165916
M30
