G04*
G04 #@! TF.GenerationSoftware,Altium Limited,Altium Designer,24.9.1 (31)*
G04*
G04 Layer_Physical_Order=4*
G04 Layer_Color=16737945*
%FSLAX44Y44*%
%MOMM*%
G71*
G04*
G04 #@! TF.SameCoordinates,FFAC17DA-0C39-4F23-945C-E2544D3BB645*
G04*
G04*
G04 #@! TF.FilePolarity,Positive*
G04*
G01*
G75*
%ADD10C,0.2500*%
%ADD80C,0.2000*%
%ADD89C,1.5000*%
%ADD98C,0.6000*%
D10*
X0Y100000D02*
X100000D01*
Y0D02*
Y100000D01*
Y0D02*
X2700000D01*
X2800000Y100000D02*
Y1900000D01*
X0D02*
X2800000D01*
X2700000Y0D02*
Y100000D01*
X2800000D01*
X0D02*
Y1900000D01*
D80*
X496989Y1611296D02*
X497535Y1610750D01*
X464285Y1644000D02*
X496989Y1611296D01*
X504000D01*
X497809Y1618961D02*
X503044D01*
X505017Y1620934D01*
X506099D01*
X466771Y1650000D02*
X497809Y1618961D01*
X148485Y1650000D02*
X466771D01*
X146000Y1644000D02*
X464285D01*
X1985476Y1727241D02*
X1994467Y1718250D01*
X1996952Y1724250D02*
X2017148D01*
X2044250Y1751351D01*
X2019634Y1718250D02*
X2050250Y1748866D01*
X1994467Y1718250D02*
X2019634D01*
X1989340Y1731862D02*
X1996952Y1724250D01*
X1983582Y1728750D02*
X1985092Y1727241D01*
X2380741Y1751109D02*
Y1787046D01*
X2368741Y1749009D02*
X2369823D01*
X2374398Y1743352D02*
Y1744435D01*
X2348757Y1819029D02*
X2380741Y1787046D01*
X1989340Y1731862D02*
Y1732900D01*
X2371691Y1750544D02*
X2374741Y1753595D01*
X2371359Y1750544D02*
X2371691D01*
X2342757Y1816544D02*
X2374741Y1784560D01*
X2375934Y1746302D02*
X2380741Y1751109D01*
X2369823Y1749009D02*
X2371359Y1750544D01*
X1985092Y1727241D02*
X1985476D01*
X2374741Y1753595D02*
Y1784560D01*
X2375934Y1745970D02*
Y1746302D01*
X2374398Y1744435D02*
X2375934Y1745970D01*
X1982500Y1728750D02*
X1983582D01*
X2050250Y1748866D02*
Y1839265D01*
X2044250Y1751351D02*
Y1841750D01*
X1326765Y1719060D02*
Y1724142D01*
X1326000Y1724908D02*
X1326765Y1724142D01*
X640000Y1732500D02*
X640765Y1731735D01*
X642937D02*
X643172Y1731500D01*
X640765Y1731735D02*
X642937D01*
X863044Y1731500D02*
X912044Y1682500D01*
X640765Y1725265D02*
X642937D01*
X643172Y1725500D02*
X860559D01*
X909559Y1676500D02*
X1297956D01*
X1332870Y1721471D02*
X1338900Y1727500D01*
X860559Y1725500D02*
X909559Y1676500D01*
X1326765Y1719060D02*
X1326871Y1718955D01*
X642937Y1725265D02*
X643172Y1725500D01*
X1326871Y1713900D02*
Y1718955D01*
X1297956Y1676500D02*
X1332870Y1711415D01*
X643172Y1731500D02*
X863044D01*
X912044Y1682500D02*
X1295471D01*
X1332870Y1711415D02*
Y1721471D01*
X640000Y1724500D02*
X640765Y1725265D01*
X1295471Y1682500D02*
X1326871Y1713900D01*
X145482Y1740000D02*
X149000D01*
X142058Y1736575D02*
X145482Y1740000D01*
X141575Y1736575D02*
X142058D01*
X125000Y1665000D02*
Y1720000D01*
X141575Y1736575D01*
X132172Y1706053D02*
X158553D01*
X131000Y1667485D02*
Y1704882D01*
Y1667485D02*
X148485Y1650000D01*
X131000Y1704882D02*
X132172Y1706053D01*
X125000Y1665000D02*
X142485Y1647515D01*
X158553Y1706053D02*
X169000Y1716500D01*
Y1720000D01*
X142485Y1647515D02*
X146000Y1644000D01*
X142485Y1647515D02*
Y1647515D01*
X148485Y1650000D02*
Y1650000D01*
X682513Y1612487D02*
X685000Y1610000D01*
X676750Y1623250D02*
X682513Y1617487D01*
Y1612487D02*
Y1617487D01*
X532172Y1623250D02*
X676750D01*
X525000Y1584422D02*
X534422Y1575000D01*
X670000D02*
X685000Y1590000D01*
X534422Y1575000D02*
X670000D01*
X525000Y1584422D02*
Y1634244D01*
X531000Y1624422D02*
X532172Y1623250D01*
X531000Y1624422D02*
Y1631759D01*
X610000Y1710759D01*
X525000Y1634244D02*
X604000Y1713244D01*
X559500Y1734500D02*
X595142D01*
X601172Y1740529D01*
X554500Y1710029D02*
Y1729500D01*
X559500Y1734500D01*
X539470Y1695000D02*
X554500Y1710029D01*
X289000Y1716482D02*
X310482Y1695000D01*
X539470D01*
X289000Y1716482D02*
Y1720000D01*
X314000Y1765000D02*
X598178D01*
X309000Y1760000D02*
X309000D01*
X314000Y1765000D01*
X289000Y1740000D02*
X309000Y1760000D01*
X598178Y1765000D02*
X610000Y1753178D01*
X604000Y1713244D02*
Y1739358D01*
X601172Y1740529D02*
X602828D01*
X604000Y1739358D01*
X610000Y1710759D02*
Y1753178D01*
X542500Y1715000D02*
Y1740000D01*
X341500Y1707500D02*
X535000D01*
X542500Y1715000D01*
X329000Y1720000D02*
X341500Y1707500D01*
X542500Y1740000D02*
X549000Y1746500D01*
X590172D01*
X592343Y1751843D02*
X593000Y1752500D01*
X592343Y1748672D02*
Y1751843D01*
X590172Y1746500D02*
X592343Y1748672D01*
X321500Y1752500D02*
X585000D01*
X309000Y1740000D02*
X321500Y1752500D01*
X1487750Y1342985D02*
Y1378078D01*
X1481515Y1378313D02*
X1481750Y1378078D01*
X1487750Y1342985D02*
X1493985Y1336750D01*
X1481515Y1378313D02*
Y1380485D01*
X1487985D02*
X1488750Y1381250D01*
X1487750Y1378078D02*
X1487985Y1378313D01*
X1480750Y1381250D02*
X1481515Y1380485D01*
X1481750Y1340500D02*
X1483507Y1338743D01*
Y1338743D02*
X1485765Y1336485D01*
X1487985Y1378313D02*
Y1380485D01*
X1481750Y1340500D02*
Y1378078D01*
X1483507Y1338743D02*
Y1338743D01*
X718250Y1623250D02*
X1029250D01*
X705000Y1610000D02*
X718250Y1623250D01*
X1067985Y1553500D02*
X1077250Y1562765D01*
X1065500Y1559500D02*
X1071250Y1565250D01*
X1077250Y1562765D02*
Y1569828D01*
X1051015Y1553500D02*
X1067985D01*
X1071250Y1565250D02*
Y1569828D01*
X1053500Y1559500D02*
X1065500D01*
X1040250Y1564265D02*
X1051015Y1553500D01*
X1046250Y1566750D02*
X1053500Y1559500D01*
X1040250Y1564265D02*
Y1603765D01*
X1046250Y1566750D02*
Y1606250D01*
X1029250Y1623250D02*
X1032765Y1619735D01*
Y1619735D02*
Y1619735D01*
X1026765Y1617250D02*
Y1617250D01*
Y1617250D02*
X1040250Y1603765D01*
X1032765Y1619735D02*
X1042735Y1609765D01*
X1042735D01*
X1040250Y1603765D02*
X1040250D01*
X942750Y1617250D02*
X1026765D01*
X1042735Y1609765D02*
X1046250Y1606250D01*
X936500Y1611000D02*
X942750Y1617250D01*
X1070250Y1573000D02*
X1071015Y1572235D01*
Y1570063D02*
Y1572235D01*
X1077485D02*
X1078250Y1573000D01*
X1077250Y1569828D02*
X1077485Y1570063D01*
Y1572235D01*
X1071015Y1570063D02*
X1071250Y1569828D01*
X927099Y1577250D02*
X936500Y1586651D01*
X737750Y1577250D02*
X927099D01*
X725000Y1590000D02*
X737750Y1577250D01*
X936500Y1586651D02*
Y1611000D01*
X1485765Y1336485D02*
X1487985Y1334265D01*
X1485765Y1336485D02*
X1485765D01*
X1493985Y1336750D02*
Y1336750D01*
X1487985Y1334265D02*
X1491500Y1330750D01*
X1493985Y1336750D02*
X1892672D01*
X1491500Y1330750D02*
X1895157D01*
X1487985Y1334265D02*
Y1334265D01*
X2089500Y1525000D02*
Y1812000D01*
X2095500Y1522515D02*
Y1775172D01*
X1895157Y1330750D02*
X1933915Y1369507D01*
X1942493D01*
X1931429Y1375507D02*
X1940007D01*
X1892672Y1336750D02*
X1931429Y1375507D01*
X1942493Y1369507D02*
X2095500Y1522515D01*
X1940007Y1375507D02*
X2089500Y1525000D01*
X2095500Y1775172D02*
X2097578Y1777250D01*
X2132250D01*
X2145000Y1790000D01*
X2089500Y1812000D02*
X2099250Y1821750D01*
X2133250D01*
X2145000Y1810000D01*
X1694956Y1760500D02*
X1900087D01*
X1661456Y1727000D02*
X1689257Y1754801D01*
X1691743Y1748802D02*
X1697441Y1754500D01*
X1691441Y1756985D02*
Y1756985D01*
X1691743Y1748802D02*
X1691743D01*
X1689257Y1754801D02*
X1689257D01*
X1663941Y1721000D02*
X1691743Y1748802D01*
X1697441Y1754500D02*
Y1754500D01*
X1902572D01*
X1689257Y1754801D02*
X1691441Y1756985D01*
Y1756985D02*
X1694956Y1760500D01*
X1493338Y1721000D02*
X1663941D01*
X1495824Y1727000D02*
X1661456D01*
X1338900Y1727500D02*
X1486838D01*
X1334592Y1733500D02*
X1489324D01*
X1326000Y1724908D02*
X1334592Y1733500D01*
X1489324D02*
X1495824Y1727000D01*
X1486838Y1727500D02*
X1493338Y1721000D01*
X1635179Y1776250D02*
X1645000Y1786071D01*
X1590000Y1790000D02*
X1603750Y1776250D01*
X1635179D01*
X1645500Y1804021D02*
Y1813250D01*
X1635500Y1823250D02*
X1645500Y1813250D01*
X1603250Y1823250D02*
X1635500D01*
X1590000Y1810000D02*
X1603250Y1823250D01*
X1646672Y1802849D02*
X1651651D01*
X1657500Y1797000D01*
Y1775000D02*
Y1797000D01*
X1645500Y1804021D02*
X1646672Y1802849D01*
X1651500Y1777485D02*
Y1794515D01*
X1639500Y1757000D02*
X1657500Y1775000D01*
X1646172Y1796849D02*
X1649165D01*
X1651500Y1794515D01*
X1911572Y1763500D02*
X1953835D01*
X1909087Y1769500D02*
X1951349D01*
X1900087Y1760500D02*
X1909087Y1769500D01*
X1902572Y1754500D02*
X1911572Y1763500D01*
X1868000Y1823250D02*
X1962000D01*
X1857000Y1810000D02*
Y1812250D01*
X1868000Y1823250D01*
X1962000D02*
X1968750Y1816500D01*
Y1778416D02*
Y1816500D01*
X1869500Y1777500D02*
X1955349D01*
X1951349Y1769500D02*
X1956521Y1774672D01*
Y1776328D01*
X1955349Y1777500D02*
X1956521Y1776328D01*
X1953835Y1763500D02*
X1968750Y1778416D01*
X1857000Y1790000D02*
X1869500Y1777500D01*
X890015Y1752500D02*
X908765Y1771250D01*
X1502485D01*
X892500Y1746500D02*
X911250Y1765250D01*
X1502485Y1771250D02*
X1510735Y1763000D01*
X1500000Y1765250D02*
X1508250Y1757000D01*
X911250Y1765250D02*
X1500000D01*
X886500Y1725015D02*
Y1748985D01*
X892500Y1746500D02*
X892500D01*
X890015Y1752500D02*
X890015D01*
X886500Y1748985D02*
X890015Y1752500D01*
X892500Y1727500D02*
Y1746500D01*
X1315500Y1745500D02*
X1494294D01*
X1310250Y1740250D02*
X1315500Y1745500D01*
X1310250Y1714250D02*
Y1740250D01*
X964500Y1753500D02*
X978000Y1740000D01*
X909580Y1753500D02*
X964500D01*
X902500Y1746420D02*
X909580Y1753500D01*
X1495029Y1753250D02*
X1500294Y1747985D01*
X1011250Y1753250D02*
X1495029D01*
X998000Y1740000D02*
X1011250Y1753250D01*
X1301750Y1705750D02*
X1310250Y1714250D01*
X1032250Y1705750D02*
X1301750D01*
X1018000Y1720000D02*
X1032250Y1705750D01*
X1494294Y1745500D02*
X1500794Y1739000D01*
X1494294Y1745500D02*
Y1745500D01*
X1500794Y1739000D02*
X1656485D01*
X1503279Y1745000D02*
X1654000D01*
X1500294Y1747985D02*
Y1747985D01*
Y1747985D02*
X1503279Y1745000D01*
X1659243Y1741757D02*
X1659243D01*
X1654000Y1745000D02*
X1669500Y1760500D01*
X1659243Y1741757D02*
X1668993Y1751507D01*
X1656485Y1739000D02*
X1659243Y1741757D01*
X1637015Y1763000D02*
X1651500Y1777485D01*
X1508250Y1757000D02*
X1639500D01*
X1510735Y1763000D02*
X1637015D01*
X1668993Y1751507D02*
Y1751507D01*
X1675500Y1758015D01*
Y1812456D01*
X1644956Y1843000D02*
X1675500Y1812456D01*
X1669500Y1760500D02*
Y1809971D01*
X1642471Y1837000D02*
X1669500Y1809971D01*
X1552515Y1843000D02*
X1644956D01*
X1555000Y1837000D02*
X1642471D01*
X1524750Y1815235D02*
X1552515Y1843000D01*
X1530750Y1812750D02*
X1555000Y1837000D01*
X1524750Y1780515D02*
Y1815235D01*
X1530750Y1783000D02*
Y1812750D01*
X1534500Y1781000D02*
X1537250Y1783750D01*
X1532750Y1781000D02*
X1534500D01*
X1537250Y1783750D02*
Y1801000D01*
X1524750Y1780515D02*
X1530265Y1775000D01*
X1530750Y1783000D02*
X1532750Y1781000D01*
X1546482Y1810000D02*
X1550000D01*
X1542933Y1806450D02*
X1546482Y1810000D01*
X1542700Y1806450D02*
X1542933D01*
X1537250Y1801000D02*
X1542700Y1806450D01*
X1530265Y1775000D02*
X1560750D01*
X1567513Y1787513D02*
X1570000Y1790000D01*
X1560750Y1775000D02*
X1567513Y1781763D01*
Y1787513D01*
X2304301Y1855000D02*
X2342757Y1816544D01*
X2050250Y1839265D02*
X2065985Y1855000D01*
X2063500Y1861000D02*
X2306787D01*
X2065985Y1855000D02*
X2304301D01*
X2306787Y1861000D02*
X2348757Y1819030D01*
X2044250Y1841750D02*
X2063500Y1861000D01*
X2348757Y1819029D02*
Y1819030D01*
X2342757Y1816544D02*
Y1816544D01*
X892500Y1727500D02*
X899672Y1720328D01*
X886500Y1725015D02*
X896500Y1715015D01*
X902500Y1721500D02*
Y1746420D01*
X896500Y1715015D02*
X907015Y1704500D01*
X899672Y1720328D02*
X901328D01*
X902500Y1721500D01*
X896500Y1715015D02*
Y1715015D01*
X907015Y1704500D02*
X964420D01*
X1645000Y1786071D02*
Y1795678D01*
X1646172Y1796849D01*
X978000Y1718080D02*
Y1720000D01*
X964420Y1704500D02*
X978000Y1718080D01*
X1774513Y1807513D02*
X1777000Y1810000D01*
X1762500Y1783743D02*
Y1800335D01*
X1769678Y1807513D02*
X1774513D01*
X1762500Y1800335D02*
X1769678Y1807513D01*
X1759672Y1782571D02*
X1761328D01*
X1762500Y1783743D01*
X1755000Y1787243D02*
X1759672Y1782571D01*
X1749000Y1805334D02*
X1822666Y1879000D01*
X1749000Y1784757D02*
Y1805334D01*
Y1784757D02*
X1761257Y1772500D01*
X1755000Y1787243D02*
Y1802849D01*
X1825151Y1873000D01*
X1761257Y1772500D02*
X1792000D01*
X1797000Y1777500D01*
Y1790000D01*
X1825151Y1873000D02*
X2311757D01*
X1822666Y1879000D02*
X2314243D01*
X2360757Y1824000D02*
X2384547Y1800210D01*
X2314243Y1879000D02*
X2387032Y1806210D01*
X2360757Y1824000D02*
Y1824000D01*
X2311757Y1873000D02*
X2360757Y1824000D01*
X2429257Y1774500D02*
X2459420D01*
X2473000Y1788080D01*
X2422500Y1781257D02*
Y1794039D01*
Y1781257D02*
X2429257Y1774500D01*
X2384547Y1800210D02*
X2416328D01*
X2422500Y1794039D01*
X2417500Y1816420D02*
X2426580Y1825500D01*
X2457500D01*
X2473000Y1810000D01*
X2387032Y1806210D02*
X2416328D01*
X2417500Y1807382D02*
Y1816420D01*
X2416328Y1806210D02*
X2417500Y1807382D01*
X2473000Y1788080D02*
Y1790000D01*
D89*
X685000Y1590000D02*
D03*
Y1610000D02*
D03*
X705000D02*
D03*
X725000Y1590000D02*
D03*
X978000Y1740000D02*
D03*
Y1720000D02*
D03*
X1018000D02*
D03*
X998000Y1740000D02*
D03*
X169000Y1720000D02*
D03*
X149000Y1740000D02*
D03*
X289000Y1720000D02*
D03*
Y1740000D02*
D03*
X309000D02*
D03*
X329000Y1720000D02*
D03*
X2473000Y1790000D02*
D03*
Y1810000D02*
D03*
X2145000Y1790000D02*
D03*
Y1810000D02*
D03*
X1857000D02*
D03*
X1777000D02*
D03*
X1797000Y1790000D02*
D03*
X1857000D02*
D03*
X1550000Y1810000D02*
D03*
X1570000Y1790000D02*
D03*
X1590000D02*
D03*
Y1810000D02*
D03*
D98*
X504000Y1611296D02*
D03*
X506099Y1620934D02*
D03*
X1982500Y1728750D02*
D03*
X1989340Y1732900D02*
D03*
X1078250Y1573000D02*
D03*
X1070250D02*
D03*
X1488750Y1381250D02*
D03*
X1480750D02*
D03*
X2374398Y1743352D02*
D03*
X2368741Y1749009D02*
D03*
X1333486Y1722086D02*
D03*
X1326000Y1724908D02*
D03*
X640000Y1724500D02*
D03*
Y1732500D02*
D03*
X585000Y1752500D02*
D03*
X593000D02*
D03*
M02*
