G04*
G04 #@! TF.GenerationSoftware,Altium Limited,Altium Designer,24.9.1 (31)*
G04*
G04 Layer_Color=8388736*
%FSLAX44Y44*%
%MOMM*%
G71*
G04*
G04 #@! TF.SameCoordinates,FFAC17DA-0C39-4F23-945C-E2544D3BB645*
G04*
G04*
G04 #@! TF.FilePolarity,Negative*
G04*
G01*
G75*
%ADD10C,0.2500*%
G04:AMPARAMS|DCode=41|XSize=2.1mm|YSize=0.4mm|CornerRadius=0mm|HoleSize=0mm|Usage=FLASHONLY|Rotation=0.000|XOffset=0mm|YOffset=0mm|HoleType=Round|Shape=Octagon|*
%AMOCTAGOND41*
4,1,8,1.0500,-0.1000,1.0500,0.1000,0.9500,0.2000,-0.9500,0.2000,-1.0500,0.1000,-1.0500,-0.1000,-0.9500,-0.2000,0.9500,-0.2000,1.0500,-0.1000,0.0*
%
%ADD41OCTAGOND41*%

%ADD42R,2.1000X0.4000*%
%ADD43R,0.4000X2.1000*%
%ADD44R,2.9000X1.7000*%
%ADD45R,1.9000X1.4000*%
%ADD46R,1.4000X1.9000*%
%ADD47R,1.2000X2.0000*%
%ADD48R,1.2000X0.5500*%
G04:AMPARAMS|DCode=49|XSize=1.2mm|YSize=0.55mm|CornerRadius=0mm|HoleSize=0mm|Usage=FLASHONLY|Rotation=0.000|XOffset=0mm|YOffset=0mm|HoleType=Round|Shape=Octagon|*
%AMOCTAGOND49*
4,1,8,0.6000,-0.1375,0.6000,0.1375,0.4625,0.2750,-0.4625,0.2750,-0.6000,0.1375,-0.6000,-0.1375,-0.4625,-0.2750,0.4625,-0.2750,0.6000,-0.1375,0.0*
%
%ADD49OCTAGOND49*%

G04:AMPARAMS|DCode=50|XSize=0.9mm|YSize=2mm|CornerRadius=0mm|HoleSize=0mm|Usage=FLASHONLY|Rotation=0.000|XOffset=0mm|YOffset=0mm|HoleType=Round|Shape=Octagon|*
%AMOCTAGOND50*
4,1,8,-0.2250,1.0000,0.2250,1.0000,0.4500,0.7750,0.4500,-0.7750,0.2250,-1.0000,-0.2250,-1.0000,-0.4500,-0.7750,-0.4500,0.7750,-0.2250,1.0000,0.0*
%
%ADD50OCTAGOND50*%

%ADD51R,0.9000X2.0000*%
%ADD52R,2.0000X1.2000*%
%ADD53R,1.6000X2.2000*%
%ADD54R,3.6000X2.4000*%
%ADD55R,1.3000X2.4000*%
G04:AMPARAMS|DCode=56|XSize=1.3mm|YSize=2.4mm|CornerRadius=0mm|HoleSize=0mm|Usage=FLASHONLY|Rotation=0.000|XOffset=0mm|YOffset=0mm|HoleType=Round|Shape=Octagon|*
%AMOCTAGOND56*
4,1,8,-0.3250,1.2000,0.3250,1.2000,0.6500,0.8750,0.6500,-0.8750,0.3250,-1.2000,-0.3250,-1.2000,-0.6500,-0.8750,-0.6500,0.8750,-0.3250,1.2000,0.0*
%
%ADD56OCTAGOND56*%

%ADD57R,1.7000X2.9000*%
%ADD58R,1.6000X3.6000*%
%ADD59R,1.6000X8.1000*%
%ADD60R,1.9000X1.8000*%
%ADD61R,1.6000X1.3000*%
%ADD62R,2.4000X3.6000*%
%ADD63R,2.4000X1.3000*%
G04:AMPARAMS|DCode=64|XSize=1.3mm|YSize=2.4mm|CornerRadius=0mm|HoleSize=0mm|Usage=FLASHONLY|Rotation=270.000|XOffset=0mm|YOffset=0mm|HoleType=Round|Shape=Octagon|*
%AMOCTAGOND64*
4,1,8,1.2000,0.3250,1.2000,-0.3250,0.8750,-0.6500,-0.8750,-0.6500,-1.2000,-0.3250,-1.2000,0.3250,-0.8750,0.6500,0.8750,0.6500,1.2000,0.3250,0.0*
%
%ADD64OCTAGOND64*%

%ADD65R,1.4000X1.6000*%
%ADD66R,1.3000X1.6000*%
%ADD67R,1.7000X2.2000*%
%ADD68R,1.8000X1.9000*%
%ADD69R,8.1000X1.6000*%
%ADD70R,3.6000X1.6000*%
%ADD71R,11.1000X11.1000*%
%ADD72C,1.6000*%
%ADD73C,1.8000*%
%ADD74R,1.8000X1.8000*%
%ADD75C,2.2000*%
%ADD76R,1.8000X1.8000*%
%ADD77R,1.6000X1.6000*%
%ADD78C,4.0000*%
%ADD79R,6.1000X6.1000*%
D10*
X0Y100000D02*
X100000D01*
Y0D02*
Y100000D01*
Y0D02*
X2700000D01*
X2800000Y100000D02*
Y1900000D01*
X0D02*
X2800000D01*
X2700000Y0D02*
Y100000D01*
X2800000D01*
X0D02*
Y1900000D01*
D41*
X475120Y645750D02*
D03*
X1009240Y511500D02*
D03*
D42*
X475120Y640750D02*
D03*
Y635750D02*
D03*
Y630750D02*
D03*
Y625750D02*
D03*
Y620750D02*
D03*
Y615750D02*
D03*
Y610750D02*
D03*
Y605750D02*
D03*
Y600750D02*
D03*
Y595750D02*
D03*
Y590750D02*
D03*
Y585750D02*
D03*
Y580750D02*
D03*
Y575750D02*
D03*
Y570750D02*
D03*
Y565750D02*
D03*
Y560750D02*
D03*
Y555750D02*
D03*
Y550750D02*
D03*
Y545750D02*
D03*
Y540750D02*
D03*
Y535750D02*
D03*
Y530750D02*
D03*
Y525750D02*
D03*
Y520750D02*
D03*
Y515750D02*
D03*
Y510750D02*
D03*
Y505750D02*
D03*
Y500750D02*
D03*
Y495750D02*
D03*
Y490750D02*
D03*
Y485750D02*
D03*
Y480750D02*
D03*
Y475750D02*
D03*
Y470750D02*
D03*
X694880D02*
D03*
Y475750D02*
D03*
Y480750D02*
D03*
Y485750D02*
D03*
Y490750D02*
D03*
Y495750D02*
D03*
Y500750D02*
D03*
Y505750D02*
D03*
Y510750D02*
D03*
Y515750D02*
D03*
Y520750D02*
D03*
Y525750D02*
D03*
Y530750D02*
D03*
Y535750D02*
D03*
Y540750D02*
D03*
Y545750D02*
D03*
Y550750D02*
D03*
Y555750D02*
D03*
Y560750D02*
D03*
Y565750D02*
D03*
Y570750D02*
D03*
Y575750D02*
D03*
Y580750D02*
D03*
Y585750D02*
D03*
Y590750D02*
D03*
Y595750D02*
D03*
Y600750D02*
D03*
Y605750D02*
D03*
Y610750D02*
D03*
Y615750D02*
D03*
Y620750D02*
D03*
Y625750D02*
D03*
Y630750D02*
D03*
Y635750D02*
D03*
Y640750D02*
D03*
Y645750D02*
D03*
X1009240Y506500D02*
D03*
Y501500D02*
D03*
Y496500D02*
D03*
Y491500D02*
D03*
Y486500D02*
D03*
Y481500D02*
D03*
Y476500D02*
D03*
Y471500D02*
D03*
Y466500D02*
D03*
Y461500D02*
D03*
Y456500D02*
D03*
Y451500D02*
D03*
Y446500D02*
D03*
Y441500D02*
D03*
Y436500D02*
D03*
Y431500D02*
D03*
Y426500D02*
D03*
Y421500D02*
D03*
Y416500D02*
D03*
Y411500D02*
D03*
Y406500D02*
D03*
Y401500D02*
D03*
Y396500D02*
D03*
Y391500D02*
D03*
Y386500D02*
D03*
Y381500D02*
D03*
Y376500D02*
D03*
Y371500D02*
D03*
Y366500D02*
D03*
Y361500D02*
D03*
Y356500D02*
D03*
Y351500D02*
D03*
Y346500D02*
D03*
Y341500D02*
D03*
Y336500D02*
D03*
X1229000D02*
D03*
Y341500D02*
D03*
Y346500D02*
D03*
Y351500D02*
D03*
Y356500D02*
D03*
Y361500D02*
D03*
Y366500D02*
D03*
Y371500D02*
D03*
Y376500D02*
D03*
Y381500D02*
D03*
Y386500D02*
D03*
Y391500D02*
D03*
Y396500D02*
D03*
Y401500D02*
D03*
Y406500D02*
D03*
Y411500D02*
D03*
Y416500D02*
D03*
Y421500D02*
D03*
Y426500D02*
D03*
Y431500D02*
D03*
Y436500D02*
D03*
Y441500D02*
D03*
Y446500D02*
D03*
Y451500D02*
D03*
Y456500D02*
D03*
Y461500D02*
D03*
Y466500D02*
D03*
Y471500D02*
D03*
Y476500D02*
D03*
Y481500D02*
D03*
Y486500D02*
D03*
Y491500D02*
D03*
Y496500D02*
D03*
Y501500D02*
D03*
Y506500D02*
D03*
Y511500D02*
D03*
D43*
X497500Y448370D02*
D03*
X502500D02*
D03*
X507500D02*
D03*
X512500D02*
D03*
X517500D02*
D03*
X522500D02*
D03*
X527500D02*
D03*
X532500D02*
D03*
X537500D02*
D03*
X542500D02*
D03*
X547500D02*
D03*
X552500D02*
D03*
X557500D02*
D03*
X562500D02*
D03*
X567500D02*
D03*
X572500D02*
D03*
X577500D02*
D03*
X582500D02*
D03*
X587500D02*
D03*
X592500D02*
D03*
X597500D02*
D03*
X602500D02*
D03*
X607500D02*
D03*
X612500D02*
D03*
X617500D02*
D03*
X622500D02*
D03*
X627500D02*
D03*
X632500D02*
D03*
X637500D02*
D03*
X642500D02*
D03*
X647500D02*
D03*
X652500D02*
D03*
X657500D02*
D03*
X662500D02*
D03*
X667500D02*
D03*
X672500D02*
D03*
Y668130D02*
D03*
X667500D02*
D03*
X662500D02*
D03*
X657500D02*
D03*
X652500D02*
D03*
X647500D02*
D03*
X642500D02*
D03*
X637500D02*
D03*
X632500D02*
D03*
X627500D02*
D03*
X622500D02*
D03*
X617500D02*
D03*
X612500D02*
D03*
X607500D02*
D03*
X602500D02*
D03*
X597500D02*
D03*
X592500D02*
D03*
X587500D02*
D03*
X582500D02*
D03*
X577500D02*
D03*
X572500D02*
D03*
X567500D02*
D03*
X562500D02*
D03*
X557500D02*
D03*
X552500D02*
D03*
X547500D02*
D03*
X542500D02*
D03*
X537500D02*
D03*
X532500D02*
D03*
X527500D02*
D03*
X522500D02*
D03*
X517500D02*
D03*
X512500D02*
D03*
X507500D02*
D03*
X502500D02*
D03*
X497500D02*
D03*
X1031620Y314120D02*
D03*
X1036620D02*
D03*
X1041620D02*
D03*
X1046620D02*
D03*
X1051620D02*
D03*
X1056620D02*
D03*
X1061620D02*
D03*
X1066620D02*
D03*
X1071620D02*
D03*
X1076620D02*
D03*
X1081620D02*
D03*
X1086620D02*
D03*
X1091620D02*
D03*
X1096620D02*
D03*
X1101620D02*
D03*
X1106620D02*
D03*
X1111620D02*
D03*
X1116620D02*
D03*
X1121620D02*
D03*
X1126620D02*
D03*
X1131620D02*
D03*
X1136620D02*
D03*
X1141620D02*
D03*
X1146620D02*
D03*
X1151620D02*
D03*
X1156620D02*
D03*
X1161620D02*
D03*
X1166620D02*
D03*
X1171620D02*
D03*
X1176620D02*
D03*
X1181620D02*
D03*
X1186620D02*
D03*
X1191620D02*
D03*
X1196620D02*
D03*
X1201620D02*
D03*
X1206620D02*
D03*
Y533880D02*
D03*
X1201620D02*
D03*
X1196620D02*
D03*
X1191620D02*
D03*
X1186620D02*
D03*
X1181620D02*
D03*
X1176620D02*
D03*
X1171620D02*
D03*
X1166620D02*
D03*
X1161620D02*
D03*
X1156620D02*
D03*
X1151620D02*
D03*
X1146620D02*
D03*
X1141620D02*
D03*
X1136620D02*
D03*
X1131620D02*
D03*
X1126620D02*
D03*
X1121620D02*
D03*
X1116620D02*
D03*
X1111620D02*
D03*
X1106620D02*
D03*
X1101620D02*
D03*
X1096620D02*
D03*
X1091620D02*
D03*
X1086620D02*
D03*
X1081620D02*
D03*
X1076620D02*
D03*
X1071620D02*
D03*
X1066620D02*
D03*
X1061620D02*
D03*
X1056620D02*
D03*
X1051620D02*
D03*
X1046620D02*
D03*
X1041620D02*
D03*
X1036620D02*
D03*
X1031620D02*
D03*
D44*
X760500Y1080500D02*
D03*
Y1109500D02*
D03*
X396000Y1221500D02*
D03*
Y1250500D02*
D03*
X198000Y1162500D02*
D03*
Y1133500D02*
D03*
X631000Y1271250D02*
D03*
Y1242250D02*
D03*
X761000Y1279250D02*
D03*
Y1250250D02*
D03*
X631000Y929500D02*
D03*
Y900500D02*
D03*
X761000Y937500D02*
D03*
Y908500D02*
D03*
X630500Y1101500D02*
D03*
Y1072500D02*
D03*
X357050Y441250D02*
D03*
Y412250D02*
D03*
D45*
X718000Y919000D02*
D03*
Y939000D02*
D03*
X360000Y1216000D02*
D03*
Y1236000D02*
D03*
X578000Y1262750D02*
D03*
Y1242750D02*
D03*
X718000Y1280750D02*
D03*
Y1260750D02*
D03*
X578000Y921000D02*
D03*
Y901000D02*
D03*
X577500Y1093000D02*
D03*
Y1073000D02*
D03*
X717500Y1111000D02*
D03*
Y1091000D02*
D03*
X295000Y1135629D02*
D03*
Y1155629D02*
D03*
X262500Y1135629D02*
D03*
Y1155629D02*
D03*
X318986Y440490D02*
D03*
Y420490D02*
D03*
D46*
X182500Y1528500D02*
D03*
X162500D02*
D03*
X2210950Y1630000D02*
D03*
X2230950D02*
D03*
X133000Y935000D02*
D03*
X113000D02*
D03*
X1712000Y417000D02*
D03*
X1732000D02*
D03*
X1484000D02*
D03*
X1504000D02*
D03*
X789000Y261250D02*
D03*
X769000D02*
D03*
D47*
X596000Y1502500D02*
D03*
X616000D02*
D03*
X804000Y1503839D02*
D03*
X824000D02*
D03*
X2093750Y1401750D02*
D03*
X2113750D02*
D03*
X1311000Y1354500D02*
D03*
X1331000D02*
D03*
X1474750Y1354750D02*
D03*
X1494750D02*
D03*
X1044000Y1514450D02*
D03*
X1064000D02*
D03*
X1065000Y1480975D02*
D03*
X1085000D02*
D03*
X1541500Y1569500D02*
D03*
X1521500D02*
D03*
X1450250Y763960D02*
D03*
X1470250D02*
D03*
X1450250Y687760D02*
D03*
X1470250D02*
D03*
X1943750Y1400750D02*
D03*
X1923750D02*
D03*
X1057750Y581000D02*
D03*
X1037750D02*
D03*
X1112250Y653250D02*
D03*
X1132250D02*
D03*
X1180750D02*
D03*
X1160750D02*
D03*
X394500Y1583500D02*
D03*
X414500D02*
D03*
X1911250Y1609000D02*
D03*
X1931250D02*
D03*
X1306000Y1569500D02*
D03*
X1326000D02*
D03*
X314750Y315000D02*
D03*
X294750D02*
D03*
D48*
X258500Y321500D02*
D03*
Y315000D02*
D03*
Y308500D02*
D03*
X235500Y308500D02*
D03*
Y315000D02*
D03*
D49*
Y321500D02*
D03*
D50*
X2084885Y1311250D02*
D03*
X1056450Y1385975D02*
D03*
X385950Y1488500D02*
D03*
X794950Y1418839D02*
D03*
X1512950Y1474500D02*
D03*
X1914885Y1310250D02*
D03*
X586950Y1417500D02*
D03*
X1301950Y1269500D02*
D03*
X1465700Y1269750D02*
D03*
X1902700Y1514000D02*
D03*
X1297450Y1474500D02*
D03*
X357050Y651750D02*
D03*
D51*
X2097585Y1311250D02*
D03*
X2110285D02*
D03*
X2122985D02*
D03*
Y1366250D02*
D03*
X2110285D02*
D03*
X2097585D02*
D03*
X2084885D02*
D03*
X1069150Y1385975D02*
D03*
X1081850D02*
D03*
X1094550D02*
D03*
Y1440975D02*
D03*
X1081850D02*
D03*
X1069150D02*
D03*
X1056450D02*
D03*
X385950Y1543500D02*
D03*
X398650D02*
D03*
X411350D02*
D03*
X424050D02*
D03*
Y1488500D02*
D03*
X411350D02*
D03*
X398650D02*
D03*
X794950Y1473839D02*
D03*
X807650D02*
D03*
X820350D02*
D03*
X833050D02*
D03*
Y1418839D02*
D03*
X820350D02*
D03*
X807650D02*
D03*
X1512950Y1529500D02*
D03*
X1525650D02*
D03*
X1538350D02*
D03*
X1551050D02*
D03*
Y1474500D02*
D03*
X1538350D02*
D03*
X1525650D02*
D03*
X1914885Y1365250D02*
D03*
X1927585D02*
D03*
X1940285D02*
D03*
X1952985D02*
D03*
Y1310250D02*
D03*
X1940285D02*
D03*
X1927585D02*
D03*
X586950Y1472500D02*
D03*
X599650D02*
D03*
X612350D02*
D03*
X625050D02*
D03*
Y1417500D02*
D03*
X612350D02*
D03*
X599650D02*
D03*
X1301950Y1324500D02*
D03*
X1314650D02*
D03*
X1327350D02*
D03*
X1340050D02*
D03*
Y1269500D02*
D03*
X1327350D02*
D03*
X1314650D02*
D03*
X1465700Y1324750D02*
D03*
X1478400D02*
D03*
X1491100D02*
D03*
X1503800D02*
D03*
Y1269750D02*
D03*
X1491100D02*
D03*
X1478400D02*
D03*
X1915400Y1514000D02*
D03*
X1928100D02*
D03*
X1940800D02*
D03*
Y1569000D02*
D03*
X1928100D02*
D03*
X1915400D02*
D03*
X1902700D02*
D03*
X1310150Y1474500D02*
D03*
X1322850D02*
D03*
X1335550D02*
D03*
Y1529500D02*
D03*
X1322850D02*
D03*
X1310150D02*
D03*
X1297450D02*
D03*
X344350Y651750D02*
D03*
X331650D02*
D03*
X318950D02*
D03*
Y596750D02*
D03*
X331650D02*
D03*
X344350D02*
D03*
X357050D02*
D03*
D52*
X2052750Y1313750D02*
D03*
Y1293750D02*
D03*
X759000Y1426339D02*
D03*
Y1446339D02*
D03*
X1882750Y1292750D02*
D03*
Y1312750D02*
D03*
X551000Y1425000D02*
D03*
Y1445000D02*
D03*
X1266000Y1277000D02*
D03*
Y1297000D02*
D03*
X1429750Y1277250D02*
D03*
Y1297250D02*
D03*
X393000Y605250D02*
D03*
Y625250D02*
D03*
X268000Y560750D02*
D03*
Y580750D02*
D03*
X298000Y535250D02*
D03*
Y515250D02*
D03*
X409000Y510250D02*
D03*
Y530250D02*
D03*
X776000Y565250D02*
D03*
Y585250D02*
D03*
D53*
X1084500Y1514975D02*
D03*
X1114500D02*
D03*
X1571000Y1603500D02*
D03*
X1541000D02*
D03*
X1521000D02*
D03*
X1491000D02*
D03*
X414000Y1617500D02*
D03*
X444000D02*
D03*
X364000D02*
D03*
X394000D02*
D03*
X1880750Y1643000D02*
D03*
X1910750D02*
D03*
X1930750D02*
D03*
X1960750D02*
D03*
X1275500Y1603500D02*
D03*
X1305500D02*
D03*
X1325500D02*
D03*
X1355500D02*
D03*
D54*
X459000Y1264000D02*
D03*
D55*
X482000Y1206000D02*
D03*
X459000D02*
D03*
D56*
X436000D02*
D03*
D57*
X142212Y979000D02*
D03*
X113212D02*
D03*
D58*
X332000Y968500D02*
D03*
D59*
X236000Y991000D02*
D03*
D60*
X305000Y1058000D02*
D03*
X263000D02*
D03*
Y944000D02*
D03*
X305000D02*
D03*
D61*
X682000Y1242750D02*
D03*
Y1260750D02*
D03*
Y901000D02*
D03*
Y919000D02*
D03*
X681500Y1073000D02*
D03*
Y1091000D02*
D03*
D62*
X881000Y1258750D02*
D03*
Y917000D02*
D03*
X880500Y1089000D02*
D03*
D63*
X823000Y1235750D02*
D03*
Y1258750D02*
D03*
Y894000D02*
D03*
Y917000D02*
D03*
X822500Y1066000D02*
D03*
Y1089000D02*
D03*
D64*
X823000Y1281750D02*
D03*
Y940000D02*
D03*
X822500Y1112000D02*
D03*
D65*
X290750Y444250D02*
D03*
Y419250D02*
D03*
X270250D02*
D03*
Y444250D02*
D03*
D66*
X394000Y412250D02*
D03*
X412000D02*
D03*
D67*
X474620Y390250D02*
D03*
X502620D02*
D03*
D68*
X226032Y1309000D02*
D03*
Y1267000D02*
D03*
X112032D02*
D03*
Y1309000D02*
D03*
D69*
X179032Y1240000D02*
D03*
D70*
X201532Y1336000D02*
D03*
D71*
X584853Y558250D02*
D03*
D72*
X585000D02*
D03*
X562000Y581250D02*
D03*
X608000D02*
D03*
Y535250D02*
D03*
X562000D02*
D03*
X115000Y1117000D02*
D03*
Y1167000D02*
D03*
X925000Y1590000D02*
D03*
X905000D02*
D03*
X885000D02*
D03*
X865000D02*
D03*
X845000D02*
D03*
X825000D02*
D03*
X805000D02*
D03*
X785000D02*
D03*
X765000D02*
D03*
X745000D02*
D03*
X925000Y1610000D02*
D03*
X905000D02*
D03*
X885000D02*
D03*
X865000D02*
D03*
X845000D02*
D03*
X825000D02*
D03*
X805000D02*
D03*
X785000D02*
D03*
X765000D02*
D03*
X745000D02*
D03*
X605000D02*
D03*
X585000D02*
D03*
X565000D02*
D03*
X625000Y1590000D02*
D03*
X605000D02*
D03*
X585000D02*
D03*
X565000D02*
D03*
X545000Y1610000D02*
D03*
X645000Y1590000D02*
D03*
X665000D02*
D03*
X685000D02*
D03*
X705000D02*
D03*
X645000Y1610000D02*
D03*
X665000D02*
D03*
X685000D02*
D03*
X705000D02*
D03*
X725000D02*
D03*
Y1590000D02*
D03*
X625000Y1610000D02*
D03*
X1298000Y1720000D02*
D03*
X1278000D02*
D03*
X1258000D02*
D03*
X1238000D02*
D03*
X1218000D02*
D03*
X1198000D02*
D03*
X1178000D02*
D03*
X1158000D02*
D03*
X1138000D02*
D03*
X1118000D02*
D03*
X1298000Y1740000D02*
D03*
X1278000D02*
D03*
X1258000D02*
D03*
X1238000D02*
D03*
X1218000D02*
D03*
X1198000D02*
D03*
X1178000D02*
D03*
X1158000D02*
D03*
X1138000D02*
D03*
X1118000D02*
D03*
X978000D02*
D03*
X958000D02*
D03*
X938000D02*
D03*
X998000Y1720000D02*
D03*
X978000D02*
D03*
X958000D02*
D03*
X938000D02*
D03*
X918000Y1740000D02*
D03*
X1018000Y1720000D02*
D03*
X1038000D02*
D03*
X1058000D02*
D03*
X1078000D02*
D03*
X1018000Y1740000D02*
D03*
X1038000D02*
D03*
X1058000D02*
D03*
X1078000D02*
D03*
X1098000D02*
D03*
Y1720000D02*
D03*
X998000Y1740000D02*
D03*
X529000Y1720000D02*
D03*
X509000D02*
D03*
X489000D02*
D03*
X469000D02*
D03*
X449000D02*
D03*
X429000D02*
D03*
X409000D02*
D03*
X389000D02*
D03*
X369000D02*
D03*
X349000D02*
D03*
X529000Y1740000D02*
D03*
X509000D02*
D03*
X489000D02*
D03*
X469000D02*
D03*
X449000D02*
D03*
X429000D02*
D03*
X409000D02*
D03*
X389000D02*
D03*
X369000D02*
D03*
X349000D02*
D03*
X209000D02*
D03*
X189000D02*
D03*
X169000D02*
D03*
X229000Y1720000D02*
D03*
X209000D02*
D03*
X189000D02*
D03*
X169000D02*
D03*
X149000Y1740000D02*
D03*
X249000Y1720000D02*
D03*
X269000D02*
D03*
X289000D02*
D03*
X309000D02*
D03*
X249000Y1740000D02*
D03*
X269000D02*
D03*
X289000D02*
D03*
X309000D02*
D03*
X329000D02*
D03*
Y1720000D02*
D03*
X229000Y1740000D02*
D03*
X2513000Y1810000D02*
D03*
X2613000Y1790000D02*
D03*
Y1810000D02*
D03*
X2593000D02*
D03*
X2573000D02*
D03*
X2553000D02*
D03*
X2533000D02*
D03*
X2593000Y1790000D02*
D03*
X2573000D02*
D03*
X2553000D02*
D03*
X2533000D02*
D03*
X2433000Y1810000D02*
D03*
X2453000Y1790000D02*
D03*
X2473000D02*
D03*
X2493000D02*
D03*
X2513000D02*
D03*
X2453000Y1810000D02*
D03*
X2473000D02*
D03*
X2493000D02*
D03*
X2185000D02*
D03*
X2285000Y1790000D02*
D03*
Y1810000D02*
D03*
X2265000D02*
D03*
X2245000D02*
D03*
X2225000D02*
D03*
X2205000D02*
D03*
X2265000Y1790000D02*
D03*
X2245000D02*
D03*
X2225000D02*
D03*
X2205000D02*
D03*
X2105000Y1810000D02*
D03*
X2125000Y1790000D02*
D03*
X2145000D02*
D03*
X2165000D02*
D03*
X2185000D02*
D03*
X2125000Y1810000D02*
D03*
X2145000D02*
D03*
X2165000D02*
D03*
X1857000D02*
D03*
X1957000Y1790000D02*
D03*
Y1810000D02*
D03*
X1937000D02*
D03*
X1917000D02*
D03*
X1897000D02*
D03*
X1877000D02*
D03*
X1937000Y1790000D02*
D03*
X1917000D02*
D03*
X1897000D02*
D03*
X1877000D02*
D03*
X1777000Y1810000D02*
D03*
X1797000Y1790000D02*
D03*
X1817000D02*
D03*
X1837000D02*
D03*
X1857000D02*
D03*
X1797000Y1810000D02*
D03*
X1817000D02*
D03*
X1837000D02*
D03*
X1630000Y1810000D02*
D03*
X1550000D02*
D03*
X1570000Y1790000D02*
D03*
X1590000D02*
D03*
X1610000D02*
D03*
X1630000D02*
D03*
X1570000Y1810000D02*
D03*
X1590000D02*
D03*
X1610000D02*
D03*
D73*
X310000Y221500D02*
D03*
X284600D02*
D03*
X259200D02*
D03*
X831700Y128500D02*
D03*
X806300D02*
D03*
X780900D02*
D03*
X169400Y1035000D02*
D03*
X144000D02*
D03*
X118600D02*
D03*
X230400Y611009D02*
D03*
Y585609D02*
D03*
Y560209D02*
D03*
Y534809D02*
D03*
X205000Y611009D02*
D03*
Y585609D02*
D03*
Y509409D02*
D03*
Y534809D02*
D03*
Y560209D02*
D03*
X1092350Y707250D02*
D03*
X1117750D02*
D03*
X1143150D02*
D03*
X1168550D02*
D03*
X1193950D02*
D03*
X1370900Y992580D02*
D03*
Y967180D02*
D03*
Y941780D02*
D03*
Y916380D02*
D03*
Y890980D02*
D03*
Y865580D02*
D03*
Y840180D02*
D03*
Y814780D02*
D03*
Y789380D02*
D03*
Y763980D02*
D03*
Y738580D02*
D03*
Y713180D02*
D03*
Y687780D02*
D03*
Y662380D02*
D03*
Y636980D02*
D03*
Y611580D02*
D03*
Y586180D02*
D03*
Y560780D02*
D03*
Y535380D02*
D03*
X1396300Y992580D02*
D03*
Y967180D02*
D03*
Y941780D02*
D03*
Y916380D02*
D03*
Y890980D02*
D03*
Y865580D02*
D03*
Y840180D02*
D03*
Y814780D02*
D03*
Y789380D02*
D03*
Y763980D02*
D03*
Y738580D02*
D03*
Y713180D02*
D03*
Y687780D02*
D03*
Y662380D02*
D03*
Y636980D02*
D03*
Y611580D02*
D03*
Y586180D02*
D03*
Y560780D02*
D03*
X1370900Y509980D02*
D03*
X1396300Y535380D02*
D03*
X549450Y128500D02*
D03*
X574850D02*
D03*
X600250D02*
D03*
D74*
X233800Y221500D02*
D03*
X755500Y128500D02*
D03*
X93200Y1035000D02*
D03*
X1066950Y707250D02*
D03*
X524050Y128500D02*
D03*
D75*
X1153500Y150000D02*
D03*
X1253500D02*
D03*
X1053500D02*
D03*
X1303500Y190500D02*
D03*
X586260Y783000D02*
D03*
X612500Y802000D02*
D03*
X638736Y783000D02*
D03*
X375050Y488750D02*
D03*
X440000Y400000D02*
D03*
X440750Y450000D02*
D03*
X1103500Y190500D02*
D03*
X1203500D02*
D03*
X1466300Y611580D02*
D03*
Y535380D02*
D03*
X1525000Y560780D02*
D03*
X1300900Y840180D02*
D03*
X1466300Y865560D02*
D03*
X1300900Y655960D02*
D03*
D76*
X230400Y509409D02*
D03*
X1396300Y509980D02*
D03*
D77*
X545000Y1590000D02*
D03*
X918000Y1720000D02*
D03*
X149000D02*
D03*
X2433000Y1790000D02*
D03*
X2105000D02*
D03*
X1777000D02*
D03*
X1550000Y1790000D02*
D03*
D78*
X1659160Y980000D02*
D03*
X2530000D02*
D03*
X1659160Y487920D02*
D03*
X2530000D02*
D03*
D79*
X2750000Y1850000D02*
D03*
X1400000D02*
D03*
X50000D02*
D03*
X2650000Y50000D02*
D03*
X1400000D02*
D03*
X150000D02*
D03*
M02*
