G04*
G04 #@! TF.GenerationSoftware,Altium Limited,Altium Designer,24.9.1 (31)*
G04*
G04 Layer_Physical_Order=3*
G04 Layer_Color=6736896*
%FSLAX44Y44*%
%MOMM*%
G71*
G04*
G04 #@! TF.SameCoordinates,FFAC17DA-0C39-4F23-945C-E2544D3BB645*
G04*
G04*
G04 #@! TF.FilePolarity,Positive*
G04*
G01*
G75*
%ADD10C,0.2500*%
%ADD80C,0.2000*%
%ADD89C,1.5000*%
%ADD90C,1.7000*%
%ADD94R,1.5000X1.5000*%
%ADD98C,0.6000*%
D10*
X0Y100000D02*
X100000D01*
Y0D02*
Y100000D01*
Y0D02*
X2700000D01*
X2800000Y100000D02*
Y1900000D01*
X0D02*
X2800000D01*
X2700000Y0D02*
Y100000D01*
X2800000D01*
X0D02*
Y1900000D01*
D80*
X1991328Y1759785D02*
X1994322Y1756791D01*
X1989672Y1759785D02*
X1991328D01*
X1988500Y1736071D02*
Y1758613D01*
X1994322Y1756791D02*
X2012678D01*
X2020000Y1764113D01*
X1988500Y1758613D02*
X1989672Y1759785D01*
X1983672Y1794571D02*
X2000635D01*
X2020000Y1764113D02*
Y1775206D01*
X2000635Y1794571D02*
X2020000Y1775206D01*
X1848530Y1823000D02*
X1860029Y1834500D01*
X1827750Y1823000D02*
X1848530D01*
X1817000Y1812250D02*
X1827750Y1823000D01*
X1817000Y1810000D02*
Y1812250D01*
X1860029Y1834500D02*
X1967220D01*
X1865458Y1764571D02*
X1981328D01*
X1853530Y1776500D02*
X1865458Y1764571D01*
X1830500Y1776500D02*
X1853530D01*
X1981328Y1764571D02*
X1982500Y1763400D01*
Y1728750D02*
Y1763400D01*
X1988574Y1733665D02*
Y1735997D01*
X1988500Y1736071D02*
X1988574Y1735997D01*
Y1733665D02*
X1989340Y1732900D01*
X1840029Y1750000D02*
X1913750D01*
X1915507Y1748243D01*
X1825044Y1756500D02*
X1837544Y1744000D01*
X1911265D02*
X2028265Y1627000D01*
X1915507Y1748243D02*
X1915507D01*
X1827529Y1762500D02*
X1840029Y1750000D01*
X1915507Y1748243D02*
X2009265Y1654485D01*
X1837544Y1744000D02*
X1911265D01*
X1817000Y1790000D02*
X1830500Y1776500D01*
X1982500Y1795743D02*
Y1819220D01*
X1967220Y1834500D02*
X1982500Y1819220D01*
Y1795743D02*
X1983672Y1794571D01*
X1971672Y1782571D02*
X1995664D01*
X1970500Y1783743D02*
X1971672Y1782571D01*
X1962250Y1822500D02*
X1970500Y1814250D01*
Y1783743D02*
Y1814250D01*
X1870429Y1776571D02*
X1993179D01*
X1857000Y1790000D02*
X1870429Y1776571D01*
X1993179D02*
X1997737Y1772013D01*
X1865000Y1822500D02*
X1962250D01*
X1859487Y1816987D02*
X1865000Y1822500D01*
X2007500Y1769291D02*
Y1770373D01*
X1997737Y1772013D02*
X1999500Y1770250D01*
X1997737Y1772013D02*
Y1772013D01*
X2005500Y1772373D02*
X2007500Y1770373D01*
X2005500Y1772373D02*
Y1772735D01*
X2003743Y1774493D02*
X2005500Y1772735D01*
X1999500Y1769291D02*
Y1770250D01*
X2003743Y1774493D02*
Y1774493D01*
X1995664Y1782571D02*
X2003743Y1774493D01*
X275235Y312000D02*
X294300Y292935D01*
Y231200D02*
Y292935D01*
X277721Y318000D02*
X300300Y295420D01*
Y231200D02*
Y295420D01*
Y231200D02*
X310000Y221500D01*
X284600D02*
X294300Y231200D01*
X270250Y308500D02*
Y308672D01*
Y321328D02*
Y321500D01*
X273578Y318000D02*
X277721D01*
X270250Y321328D02*
X273578Y318000D01*
Y312000D02*
X275235D01*
X270250Y308672D02*
X273578Y312000D01*
X811000Y1511000D02*
Y1523278D01*
X817000Y1508515D02*
Y1523278D01*
X586000Y1486500D02*
X794985D01*
X792500Y1492500D02*
X811000Y1511000D01*
X588485Y1492500D02*
X792500D01*
X794985Y1486500D02*
X817000Y1508515D01*
X817235Y1523513D02*
Y1525685D01*
X817000Y1523278D02*
X817235Y1523513D01*
X810000Y1526450D02*
X810765Y1525685D01*
Y1523513D02*
X811000Y1523278D01*
X817235Y1525685D02*
X818000Y1526450D01*
X810765Y1523513D02*
Y1525685D01*
X544500Y1747828D02*
X545672Y1749000D01*
X565000Y1662500D02*
Y1744015D01*
X544500Y1720651D02*
Y1747828D01*
X560015Y1749000D02*
X565000Y1744015D01*
X545672Y1749000D02*
X560015D01*
X384000Y1755000D02*
X562500D01*
X571000Y1660015D02*
Y1746500D01*
X562500Y1755000D02*
X571000Y1746500D01*
X516500Y1614000D02*
X565000Y1662500D01*
X522500Y1611515D02*
X571000Y1660015D01*
X389000Y1720000D02*
X404000Y1705000D01*
X528849D02*
X544500Y1720651D01*
X404000Y1705000D02*
X528849D01*
X369000Y1740000D02*
X384000Y1755000D01*
X522500Y1558485D02*
X588485Y1492500D01*
X522500Y1558485D02*
Y1611515D01*
X516500Y1556000D02*
Y1614000D01*
Y1556000D02*
X586000Y1486500D01*
X1041250Y1368750D02*
X1563750D01*
X881000Y1529000D02*
Y1541000D01*
Y1529000D02*
X1041250Y1368750D01*
X875000Y1526515D02*
Y1543485D01*
Y1526515D02*
X1038765Y1362750D01*
X1566235D01*
X885871Y1554356D02*
X892050D01*
X888356Y1548356D02*
X892050D01*
X878515Y1547000D02*
X878515D01*
X882356Y1550841D01*
X881000Y1541000D02*
X881000D01*
X888356Y1548356D02*
Y1548356D01*
X882356Y1550841D02*
Y1550841D01*
X885871Y1554356D01*
X875000Y1543485D02*
X878515Y1547000D01*
X881000Y1541000D02*
X888356Y1548356D01*
X892285Y1554590D02*
X894456D01*
X892285Y1548121D02*
X894456D01*
X892050Y1548356D02*
X892285Y1548121D01*
X894456D02*
X895222Y1547356D01*
X892050Y1554356D02*
X892285Y1554590D01*
X894456D02*
X895222Y1555356D01*
X1487750Y1384422D02*
Y1622721D01*
X1315971Y1794500D02*
X1487750Y1622721D01*
X1481750Y1384422D02*
Y1620235D01*
X1306765Y1788265D02*
X1308937D01*
X1487985Y1382015D02*
Y1384187D01*
X1309172Y1788500D02*
X1313485D01*
X1487750Y1384422D02*
X1487985Y1384187D01*
X1308937Y1788265D02*
X1309172Y1788500D01*
X1306000Y1787500D02*
X1306765Y1788265D01*
X1487985Y1382015D02*
X1488750Y1381250D01*
X1308937Y1794735D02*
X1309172Y1794500D01*
X1306765Y1794735D02*
X1308937D01*
X1309172Y1794500D02*
X1315971D01*
X1481515Y1384187D02*
X1481750Y1384422D01*
X1481515Y1382015D02*
Y1384187D01*
X1480750Y1381250D02*
X1481515Y1382015D01*
X1313485Y1788500D02*
X1481750Y1620235D01*
X1563750Y1368750D02*
X1622500Y1427500D01*
X1566235Y1362750D02*
X1628500Y1425015D01*
X1622500Y1427500D02*
Y1647500D01*
X1573625Y1696375D02*
X1622500Y1647500D01*
X1628500Y1425015D02*
Y1649985D01*
X1451207Y1696375D02*
X1573625D01*
X1449832Y1695000D02*
X1451207Y1696375D01*
X1449832Y1703750D02*
X1451207Y1702375D01*
X1448750Y1695000D02*
X1449832D01*
X1576110Y1702375D02*
X1628500Y1649985D01*
X1451207Y1702375D02*
X1576110D01*
X1448750Y1703750D02*
X1449832D01*
X2441240Y1754032D02*
X2596218D01*
X2598703Y1760032D02*
X2687000Y1671735D01*
Y672265D02*
Y1671735D01*
X2681000Y674750D02*
Y1669250D01*
X2596218Y1754032D02*
X2681000Y1669250D01*
X2443725Y1760032D02*
X2598703D01*
X1770500Y547500D02*
X2562235D01*
X2681000Y674750D02*
X2681000D01*
X2559750Y553500D02*
Y553500D01*
X2565750Y551015D02*
X2683485Y668750D01*
X2683485D01*
X2562235Y547500D02*
X2565750Y551015D01*
Y551015D01*
X2559750Y553500D02*
X2681000Y674750D01*
X1768015Y553500D02*
X2559750D01*
X2683485Y668750D02*
X2687000Y672265D01*
X2060250Y1645422D02*
Y1749493D01*
X2066250Y1645422D02*
Y1747007D01*
X2095993Y1776750D01*
X2060250Y1749493D02*
X2092250Y1781493D01*
X2066485Y1643015D02*
Y1645187D01*
X2060015D02*
X2060250Y1645422D01*
X2066250D02*
X2066485Y1645187D01*
Y1643015D02*
X2067250Y1642250D01*
X942250Y1814000D02*
X1321926D01*
X893250Y1738686D02*
Y1765000D01*
X896765Y1768515D01*
X896765D01*
X899250Y1762515D02*
X944735Y1808000D01*
Y1808000D02*
X1319441D01*
X938735Y1810485D02*
X942250Y1814000D01*
X899250Y1762515D02*
X899250D01*
X944735Y1808000D02*
Y1808000D01*
X938735Y1810485D02*
Y1810485D01*
X896765Y1768515D02*
X938735Y1810485D01*
X899250Y1741172D02*
Y1762515D01*
X1373426Y1762500D02*
X1827529D01*
X1370941Y1756500D02*
X1825044D01*
X1319441Y1808000D02*
X1370941Y1756500D01*
X1321926Y1814000D02*
X1373426Y1762500D01*
X1306000Y1795500D02*
X1306765Y1794735D01*
X2028265Y1627000D02*
X2059000D01*
X2066250Y1634250D01*
X2009265Y1654485D02*
X2030750Y1633000D01*
X2056515D02*
X2060250Y1636735D01*
X2030750Y1633000D02*
X2056515D01*
X2059250Y1642250D02*
X2060015Y1641485D01*
X2066250Y1639078D02*
X2066485Y1639313D01*
X2059250Y1642250D02*
X2060015Y1643015D01*
X2066485Y1639313D02*
Y1641485D01*
X2060250Y1636735D02*
Y1639078D01*
X2060015Y1639313D02*
Y1641485D01*
X2066485D02*
X2067250Y1642250D01*
X2066250Y1634250D02*
Y1639078D01*
X2060015Y1639313D02*
X2060250Y1639078D01*
X912172Y1725828D02*
Y1729328D01*
X897936Y1734000D02*
X907500D01*
X912172Y1725828D02*
X918000Y1720000D01*
X907500Y1734000D02*
X912172Y1729328D01*
X893250Y1738686D02*
X897936Y1734000D01*
X899250Y1741172D02*
X900422Y1740000D01*
X918000D01*
X2009265Y1654485D02*
Y1654485D01*
X2060015Y1643015D02*
Y1645187D01*
X2092250Y1800250D02*
X2102000Y1810000D01*
X2092250Y1781493D02*
Y1800250D01*
X2102000Y1810000D02*
X2105000D01*
X2125000Y1788250D02*
Y1790000D01*
X2095993Y1776750D02*
X2113500D01*
X2125000Y1788250D01*
X938750Y1612250D02*
X943000Y1616500D01*
X938750Y1584750D02*
Y1612250D01*
X943000Y1616500D02*
X1245500D01*
X1332870Y1703871D01*
X1243015Y1622500D02*
X1326871Y1706356D01*
X645000Y1610000D02*
X657500Y1622500D01*
X1243015D01*
X931250Y1577250D02*
X938750Y1584750D01*
X677750Y1577250D02*
X931250D01*
X665000Y1590000D02*
X677750Y1577250D01*
X1332870Y1703871D02*
Y1721471D01*
X1326000Y1724908D02*
X1326765Y1724142D01*
X1332870Y1721471D02*
X1333486Y1722086D01*
X1326765Y1721841D02*
X1326871Y1721736D01*
X1326765Y1721841D02*
Y1724142D01*
X1326871Y1706356D02*
Y1721736D01*
X1312500Y1654650D02*
X1346750Y1688900D01*
X1318500Y1652165D02*
X1352750Y1686415D01*
X1318500Y1644002D02*
Y1652165D01*
X1352750Y1686415D02*
Y1728985D01*
X1346750Y1688900D02*
Y1726500D01*
X1312500Y1644002D02*
Y1654650D01*
X1038000Y1716750D02*
X1049750Y1705000D01*
X1301250D02*
X1310264Y1714014D01*
X1049750Y1705000D02*
X1301250D01*
X1046000Y1751500D02*
X1304000D01*
X1038000Y1740000D02*
Y1743500D01*
X1046000Y1751500D01*
X1038000Y1716750D02*
Y1720000D01*
X1338328Y1743407D02*
X1352750Y1728985D01*
X1311436Y1743407D02*
X1338328D01*
X1304000Y1751500D02*
X1310264Y1745236D01*
Y1714014D02*
Y1736236D01*
Y1744579D02*
X1311436Y1743407D01*
X1335842Y1737408D02*
X1346750Y1726500D01*
X1310264Y1736236D02*
X1311436Y1737408D01*
X1335842D01*
X1310264Y1744579D02*
Y1745236D01*
X1312265Y1643767D02*
X1312500Y1644002D01*
X1312265Y1641596D02*
Y1643767D01*
X1318735Y1641596D02*
X1319500Y1640830D01*
X1311500D02*
X1312265Y1641596D01*
X1318500Y1644002D02*
X1318735Y1643767D01*
Y1641596D02*
Y1643767D01*
X138243Y1705000D02*
X157500D01*
X52500Y1619257D02*
X138243Y1705000D01*
X157500D02*
X169000Y1716500D01*
Y1720000D01*
X141575Y1736575D02*
X142058D01*
X132500Y1707743D02*
Y1727500D01*
X145482Y1740000D02*
X149000D01*
X142058Y1736575D02*
X145482Y1740000D01*
X132500Y1727500D02*
X141575Y1736575D01*
X46500Y1621743D02*
X132500Y1707743D01*
X52500Y255985D02*
Y1619257D01*
X46500Y253500D02*
X208500Y91500D01*
X52500Y255985D02*
X210985Y97500D01*
X1314015D01*
X208500Y91500D02*
X1316500D01*
X46500Y253500D02*
Y1621743D01*
X1316500Y91500D02*
X1505050Y280050D01*
X1314015Y97500D02*
X1499050Y282535D01*
X1505284Y514235D02*
X1506050Y515000D01*
X1505284Y512063D02*
Y514235D01*
X1498050Y515000D02*
X1498815Y514235D01*
Y512063D02*
Y514235D01*
X1505050Y511828D02*
X1505284Y512063D01*
X1498815D02*
X1499050Y511828D01*
X1505050Y280050D02*
Y511828D01*
X1499050Y282535D02*
Y511828D01*
X1545586Y1831500D02*
X1639485D01*
X1797000Y1786672D02*
Y1790000D01*
X1786900Y1776571D02*
X1797000Y1786672D01*
X1685929Y1776571D02*
X1786900D01*
X1770013Y1807513D02*
X1774513D01*
X1760000Y1797500D02*
X1770013Y1807513D01*
X1774513D02*
X1777000Y1810000D01*
X1760000Y1785259D02*
Y1797500D01*
X1757312Y1782571D02*
X1760000Y1785259D01*
X1688414Y1782571D02*
X1757312D01*
X1534500Y1782071D02*
Y1820414D01*
X1545586Y1831500D01*
X1542071Y1774500D02*
X1576420D01*
X1534500Y1782071D02*
X1542071Y1774500D01*
X1578078Y1821922D02*
X1590000Y1810000D01*
X1578078Y1821922D02*
Y1823578D01*
X1580000Y1825500D01*
X1637000D01*
X1639485Y1831500D02*
X1643000Y1827985D01*
Y1827985D02*
X1688414Y1782571D01*
X1637000Y1825500D02*
Y1825500D01*
X1643000Y1827985D02*
Y1827985D01*
X1637000Y1825500D02*
X1685929Y1776571D01*
X1576420Y1774500D02*
X1590000Y1788080D01*
Y1790000D01*
X2432086Y1773328D02*
X2433257Y1774500D01*
X2432086Y1771672D02*
X2443725Y1760032D01*
X2473000Y1788080D02*
Y1790000D01*
X2457500Y1825500D02*
X2473000Y1810000D01*
X2433257Y1774500D02*
X2459420D01*
X2426580Y1825500D02*
X2457500D01*
X2417500Y1816420D02*
X2426580Y1825500D01*
X2417500Y1777772D02*
X2441240Y1754032D01*
X2432086Y1771672D02*
Y1773328D01*
X2459420Y1774500D02*
X2473000Y1788080D01*
X2417500Y1777772D02*
Y1816420D01*
X1728000Y513485D02*
X1768015Y553500D01*
X1734000Y511000D02*
X1770500Y547500D01*
X1728000Y508172D02*
Y513485D01*
X1727765Y505765D02*
Y507937D01*
X1728000Y508172D01*
X1727000Y505000D02*
X1727765Y505765D01*
X1734234D02*
Y507937D01*
X1734000Y508172D02*
X1734234Y507937D01*
Y505765D02*
X1735000Y505000D01*
X1734000Y508172D02*
Y511000D01*
X1857000Y1810000D02*
X1859487Y1812487D01*
Y1816987D01*
X2227000Y1722471D02*
X2237029Y1732500D01*
X2233000Y1719985D02*
X2239515Y1726500D01*
X2257485D01*
X2237029Y1732500D02*
X2255000D01*
X2226765Y1715437D02*
X2227000Y1715672D01*
X2233000D02*
X2233235Y1715437D01*
X2226765Y1713265D02*
Y1715437D01*
X2226000Y1712500D02*
X2226765Y1713265D01*
X2233235D02*
X2234000Y1712500D01*
X2233235Y1713265D02*
Y1715437D01*
X2233000Y1715672D02*
Y1719985D01*
X2227000Y1715672D02*
Y1722471D01*
X2217500Y1777500D02*
X2287000D01*
X2289500Y1767000D02*
Y1775000D01*
X2287000Y1777500D02*
X2289500Y1775000D01*
X2205000Y1790000D02*
X2217500Y1777500D01*
X2257485Y1726500D02*
X2297500Y1766515D01*
X2290000Y1822500D02*
X2297500Y1815000D01*
Y1766515D02*
Y1815000D01*
X2197500Y1822500D02*
X2290000D01*
X2185000Y1810000D02*
X2197500Y1822500D01*
X2255000Y1732500D02*
X2289500Y1767000D01*
D89*
X665000Y1590000D02*
D03*
X645000Y1610000D02*
D03*
X918000Y1740000D02*
D03*
X1038000Y1720000D02*
D03*
Y1740000D02*
D03*
X389000Y1720000D02*
D03*
X369000Y1740000D02*
D03*
X169000Y1720000D02*
D03*
X149000Y1740000D02*
D03*
X2473000Y1790000D02*
D03*
Y1810000D02*
D03*
X2185000D02*
D03*
X2205000Y1790000D02*
D03*
X2105000Y1810000D02*
D03*
X2125000Y1790000D02*
D03*
X1857000Y1810000D02*
D03*
X1777000D02*
D03*
X1797000Y1790000D02*
D03*
X1817000D02*
D03*
X1857000D02*
D03*
X1817000Y1810000D02*
D03*
X1590000Y1790000D02*
D03*
Y1810000D02*
D03*
D90*
X310000Y221500D02*
D03*
X284600D02*
D03*
D94*
X918000Y1720000D02*
D03*
D98*
X1982500Y1728750D02*
D03*
X1989340Y1732900D02*
D03*
X270250Y308500D02*
D03*
Y321500D02*
D03*
X1488750Y1381250D02*
D03*
X1448750Y1695000D02*
D03*
Y1703750D02*
D03*
X1480750Y1381250D02*
D03*
X1311500Y1640830D02*
D03*
X1319500D02*
D03*
X1333486Y1722086D02*
D03*
X1326000Y1724908D02*
D03*
X2067250Y1642250D02*
D03*
X2059250D02*
D03*
X2234000Y1712500D02*
D03*
X2226000D02*
D03*
X1999500Y1769291D02*
D03*
X2007500D02*
D03*
X1727000Y505000D02*
D03*
X1735000D02*
D03*
X1498050Y515000D02*
D03*
X1506050D02*
D03*
X1306000Y1795500D02*
D03*
Y1787500D02*
D03*
X818000Y1526450D02*
D03*
X895222Y1555356D02*
D03*
Y1547356D02*
D03*
X810000Y1526450D02*
D03*
M02*
