G04*
G04 #@! TF.GenerationSoftware,Altium Limited,Altium Designer,24.9.1 (31)*
G04*
G04 Layer_Color=16711935*
%FSLAX44Y44*%
%MOMM*%
G71*
G04*
G04 #@! TF.SameCoordinates,FFAC17DA-0C39-4F23-945C-E2544D3BB645*
G04*
G04*
G04 #@! TF.FilePolarity,Negative*
G04*
G01*
G75*
%ADD10C,0.2500*%
%ADD44R,2.9000X1.7000*%
%ADD45R,1.9000X1.4000*%
%ADD46R,1.4000X1.9000*%
%ADD47R,1.2000X2.0000*%
G04:AMPARAMS|DCode=50|XSize=0.9mm|YSize=2mm|CornerRadius=0mm|HoleSize=0mm|Usage=FLASHONLY|Rotation=0.000|XOffset=0mm|YOffset=0mm|HoleType=Round|Shape=Octagon|*
%AMOCTAGOND50*
4,1,8,-0.2250,1.0000,0.2250,1.0000,0.4500,0.7750,0.4500,-0.7750,0.2250,-1.0000,-0.2250,-1.0000,-0.4500,-0.7750,-0.4500,0.7750,-0.2250,1.0000,0.0*
%
%ADD50OCTAGOND50*%

%ADD51R,0.9000X2.0000*%
%ADD52R,2.0000X1.2000*%
%ADD54R,3.6000X2.4000*%
%ADD55R,1.3000X2.4000*%
G04:AMPARAMS|DCode=56|XSize=1.3mm|YSize=2.4mm|CornerRadius=0mm|HoleSize=0mm|Usage=FLASHONLY|Rotation=0.000|XOffset=0mm|YOffset=0mm|HoleType=Round|Shape=Octagon|*
%AMOCTAGOND56*
4,1,8,-0.3250,1.2000,0.3250,1.2000,0.6500,0.8750,0.6500,-0.8750,0.3250,-1.2000,-0.3250,-1.2000,-0.6500,-0.8750,-0.6500,0.8750,-0.3250,1.2000,0.0*
%
%ADD56OCTAGOND56*%

%ADD57R,1.7000X2.9000*%
%ADD66R,1.3000X1.6000*%
%ADD72C,1.6000*%
%ADD73C,1.8000*%
%ADD74R,1.8000X1.8000*%
%ADD75C,2.2000*%
%ADD76R,1.8000X1.8000*%
%ADD77R,1.6000X1.6000*%
%ADD78C,4.0000*%
%ADD79R,6.1000X6.1000*%
%ADD106R,1.6000X2.3000*%
%ADD107R,1.7000X1.9000*%
%ADD108R,1.9000X1.7000*%
%ADD109R,2.2000X1.7000*%
D10*
X0Y100000D02*
X100000D01*
Y0D02*
Y100000D01*
Y0D02*
X2700000D01*
X2800000Y100000D02*
Y1900000D01*
X0D02*
X2800000D01*
X2700000Y0D02*
Y100000D01*
X2800000D01*
X0D02*
Y1900000D01*
D44*
X957500Y327250D02*
D03*
Y298250D02*
D03*
D45*
X852000Y1275750D02*
D03*
Y1255750D02*
D03*
X637500Y726250D02*
D03*
Y746250D02*
D03*
X916250Y327250D02*
D03*
Y307250D02*
D03*
X1009500Y484750D02*
D03*
Y504750D02*
D03*
Y442250D02*
D03*
Y462250D02*
D03*
X1229250Y401500D02*
D03*
Y381500D02*
D03*
X1009500Y372250D02*
D03*
Y352250D02*
D03*
X1229250Y438250D02*
D03*
Y418250D02*
D03*
X1074250Y424500D02*
D03*
Y444500D02*
D03*
X852000Y934000D02*
D03*
Y914000D02*
D03*
X851500Y1106000D02*
D03*
Y1086000D02*
D03*
X475120Y551250D02*
D03*
Y531250D02*
D03*
X475120Y640750D02*
D03*
Y620750D02*
D03*
X475120Y494250D02*
D03*
Y514250D02*
D03*
X475120Y475250D02*
D03*
Y455250D02*
D03*
X475120Y571250D02*
D03*
Y591250D02*
D03*
X695000Y577250D02*
D03*
Y557250D02*
D03*
X772000Y608250D02*
D03*
Y628250D02*
D03*
X659000Y461250D02*
D03*
Y441250D02*
D03*
X628000Y461250D02*
D03*
Y441250D02*
D03*
X694880Y540250D02*
D03*
Y520250D02*
D03*
X695000Y614250D02*
D03*
Y594250D02*
D03*
Y651750D02*
D03*
Y631750D02*
D03*
X695000Y478250D02*
D03*
Y498250D02*
D03*
D46*
X2122750Y1338750D02*
D03*
X2102750D02*
D03*
X1094500Y1412475D02*
D03*
X1074500D02*
D03*
X547500Y732000D02*
D03*
X567500D02*
D03*
X813050Y1446339D02*
D03*
X833050D02*
D03*
X1531000Y1501000D02*
D03*
X1551000D02*
D03*
X1557750Y662360D02*
D03*
X1537750D02*
D03*
X1608750Y609000D02*
D03*
X1588750D02*
D03*
X1932750Y1337750D02*
D03*
X1952750D02*
D03*
X479000Y677000D02*
D03*
X459000D02*
D03*
X770000Y364500D02*
D03*
X790000D02*
D03*
X1234000Y521000D02*
D03*
X1254000D02*
D03*
X1143250Y533750D02*
D03*
X1163250D02*
D03*
X1038000D02*
D03*
X1058000D02*
D03*
X1093250D02*
D03*
X1113250D02*
D03*
X1122500Y377500D02*
D03*
X1102500D02*
D03*
X1206000Y360500D02*
D03*
X1186000D02*
D03*
X953500Y392250D02*
D03*
X933500D02*
D03*
X1058250Y314250D02*
D03*
X1038250D02*
D03*
X1117000D02*
D03*
X1097000D02*
D03*
X1162000D02*
D03*
X1142000D02*
D03*
X605050Y1445000D02*
D03*
X625050D02*
D03*
X1320050Y1297000D02*
D03*
X1340050D02*
D03*
X424000Y1515000D02*
D03*
X404000D02*
D03*
X1483800Y1297250D02*
D03*
X1503800D02*
D03*
X1940750Y1540500D02*
D03*
X1920750D02*
D03*
X1335500Y1501000D02*
D03*
X1315500D02*
D03*
X525000Y448250D02*
D03*
X505000D02*
D03*
X514000Y668250D02*
D03*
X534000D02*
D03*
X525000Y488250D02*
D03*
X545000D02*
D03*
X562000Y448250D02*
D03*
X542000D02*
D03*
X600000D02*
D03*
X580000D02*
D03*
X609000Y668250D02*
D03*
X629000D02*
D03*
X651000D02*
D03*
X671000D02*
D03*
X568000D02*
D03*
X588000D02*
D03*
X521000Y390250D02*
D03*
X501000D02*
D03*
X319000Y651750D02*
D03*
X339000D02*
D03*
D47*
X171500Y1591500D02*
D03*
X191500D02*
D03*
X1492050Y478420D02*
D03*
X1512050D02*
D03*
X2220000Y1687500D02*
D03*
X2240000D02*
D03*
X2529000Y1850500D02*
D03*
X2509000D02*
D03*
X2563750D02*
D03*
X2583750D02*
D03*
X1721000Y478420D02*
D03*
X1741000D02*
D03*
X1608750Y636960D02*
D03*
X1588750D02*
D03*
X1557750Y694000D02*
D03*
X1537750D02*
D03*
X2488000Y1728000D02*
D03*
X2468000D02*
D03*
X2584000Y1728250D02*
D03*
X2564000D02*
D03*
X2509250D02*
D03*
X2529250D02*
D03*
X1129000Y654000D02*
D03*
X1109000D02*
D03*
X231000Y672750D02*
D03*
X251000D02*
D03*
D50*
X200365Y1501000D02*
D03*
X2249050Y1602500D02*
D03*
X1749750Y389920D02*
D03*
X1521850D02*
D03*
D51*
X200365Y1556000D02*
D03*
X187665D02*
D03*
X174965D02*
D03*
X162265D02*
D03*
Y1501000D02*
D03*
X174965D02*
D03*
X187665D02*
D03*
X2236350Y1602500D02*
D03*
X2223650D02*
D03*
X2210950D02*
D03*
Y1657500D02*
D03*
X2223650D02*
D03*
X2236350D02*
D03*
X2249050D02*
D03*
X1737050Y389920D02*
D03*
X1724350D02*
D03*
X1711650D02*
D03*
Y444920D02*
D03*
X1724350D02*
D03*
X1737050D02*
D03*
X1749750D02*
D03*
X1509150Y389920D02*
D03*
X1496450D02*
D03*
X1483750D02*
D03*
Y444920D02*
D03*
X1496450D02*
D03*
X1509150D02*
D03*
X1521850D02*
D03*
D52*
X1557750Y756000D02*
D03*
Y736000D02*
D03*
X232500Y1483500D02*
D03*
Y1503500D02*
D03*
X2285000Y1630000D02*
D03*
Y1610000D02*
D03*
X1772750Y390170D02*
D03*
Y370170D02*
D03*
X1544050Y390170D02*
D03*
Y370170D02*
D03*
X1608750Y672000D02*
D03*
Y692000D02*
D03*
X1009500Y391750D02*
D03*
Y411750D02*
D03*
X393000Y584250D02*
D03*
Y564250D02*
D03*
X267729Y509250D02*
D03*
Y489250D02*
D03*
D54*
X775059Y290000D02*
D03*
D55*
X752059Y232000D02*
D03*
X775059D02*
D03*
D56*
X798059D02*
D03*
D57*
X775309Y328500D02*
D03*
X804309D02*
D03*
X1245750Y567750D02*
D03*
X1274750D02*
D03*
D66*
X854750Y353500D02*
D03*
X872750D02*
D03*
X854750Y328000D02*
D03*
X872750D02*
D03*
D72*
X585000Y558250D02*
D03*
X562000Y581250D02*
D03*
X608000D02*
D03*
Y535250D02*
D03*
X562000D02*
D03*
X115000Y1117000D02*
D03*
Y1167000D02*
D03*
X925000Y1590000D02*
D03*
X905000D02*
D03*
X885000D02*
D03*
X865000D02*
D03*
X845000D02*
D03*
X825000D02*
D03*
X805000D02*
D03*
X785000D02*
D03*
X765000D02*
D03*
X745000D02*
D03*
X925000Y1610000D02*
D03*
X905000D02*
D03*
X885000D02*
D03*
X865000D02*
D03*
X845000D02*
D03*
X825000D02*
D03*
X805000D02*
D03*
X785000D02*
D03*
X765000D02*
D03*
X745000D02*
D03*
X605000D02*
D03*
X585000D02*
D03*
X565000D02*
D03*
X625000Y1590000D02*
D03*
X605000D02*
D03*
X585000D02*
D03*
X565000D02*
D03*
X545000Y1610000D02*
D03*
X645000Y1590000D02*
D03*
X665000D02*
D03*
X685000D02*
D03*
X705000D02*
D03*
X645000Y1610000D02*
D03*
X665000D02*
D03*
X685000D02*
D03*
X705000D02*
D03*
X725000D02*
D03*
Y1590000D02*
D03*
X625000Y1610000D02*
D03*
X1298000Y1720000D02*
D03*
X1278000D02*
D03*
X1258000D02*
D03*
X1238000D02*
D03*
X1218000D02*
D03*
X1198000D02*
D03*
X1178000D02*
D03*
X1158000D02*
D03*
X1138000D02*
D03*
X1118000D02*
D03*
X1298000Y1740000D02*
D03*
X1278000D02*
D03*
X1258000D02*
D03*
X1238000D02*
D03*
X1218000D02*
D03*
X1198000D02*
D03*
X1178000D02*
D03*
X1158000D02*
D03*
X1138000D02*
D03*
X1118000D02*
D03*
X978000D02*
D03*
X958000D02*
D03*
X938000D02*
D03*
X998000Y1720000D02*
D03*
X978000D02*
D03*
X958000D02*
D03*
X938000D02*
D03*
X918000Y1740000D02*
D03*
X1018000Y1720000D02*
D03*
X1038000D02*
D03*
X1058000D02*
D03*
X1078000D02*
D03*
X1018000Y1740000D02*
D03*
X1038000D02*
D03*
X1058000D02*
D03*
X1078000D02*
D03*
X1098000D02*
D03*
Y1720000D02*
D03*
X998000Y1740000D02*
D03*
X529000Y1720000D02*
D03*
X509000D02*
D03*
X489000D02*
D03*
X469000D02*
D03*
X449000D02*
D03*
X429000D02*
D03*
X409000D02*
D03*
X389000D02*
D03*
X369000D02*
D03*
X349000D02*
D03*
X529000Y1740000D02*
D03*
X509000D02*
D03*
X489000D02*
D03*
X469000D02*
D03*
X449000D02*
D03*
X429000D02*
D03*
X409000D02*
D03*
X389000D02*
D03*
X369000D02*
D03*
X349000D02*
D03*
X209000D02*
D03*
X189000D02*
D03*
X169000D02*
D03*
X229000Y1720000D02*
D03*
X209000D02*
D03*
X189000D02*
D03*
X169000D02*
D03*
X149000Y1740000D02*
D03*
X249000Y1720000D02*
D03*
X269000D02*
D03*
X289000D02*
D03*
X309000D02*
D03*
X249000Y1740000D02*
D03*
X269000D02*
D03*
X289000D02*
D03*
X309000D02*
D03*
X329000D02*
D03*
Y1720000D02*
D03*
X229000Y1740000D02*
D03*
X2513000Y1810000D02*
D03*
X2613000Y1790000D02*
D03*
Y1810000D02*
D03*
X2593000D02*
D03*
X2573000D02*
D03*
X2553000D02*
D03*
X2533000D02*
D03*
X2593000Y1790000D02*
D03*
X2573000D02*
D03*
X2553000D02*
D03*
X2533000D02*
D03*
X2433000Y1810000D02*
D03*
X2453000Y1790000D02*
D03*
X2473000D02*
D03*
X2493000D02*
D03*
X2513000D02*
D03*
X2453000Y1810000D02*
D03*
X2473000D02*
D03*
X2493000D02*
D03*
X2185000D02*
D03*
X2285000Y1790000D02*
D03*
Y1810000D02*
D03*
X2265000D02*
D03*
X2245000D02*
D03*
X2225000D02*
D03*
X2205000D02*
D03*
X2265000Y1790000D02*
D03*
X2245000D02*
D03*
X2225000D02*
D03*
X2205000D02*
D03*
X2105000Y1810000D02*
D03*
X2125000Y1790000D02*
D03*
X2145000D02*
D03*
X2165000D02*
D03*
X2185000D02*
D03*
X2125000Y1810000D02*
D03*
X2145000D02*
D03*
X2165000D02*
D03*
X1857000D02*
D03*
X1957000Y1790000D02*
D03*
Y1810000D02*
D03*
X1937000D02*
D03*
X1917000D02*
D03*
X1897000D02*
D03*
X1877000D02*
D03*
X1937000Y1790000D02*
D03*
X1917000D02*
D03*
X1897000D02*
D03*
X1877000D02*
D03*
X1777000Y1810000D02*
D03*
X1797000Y1790000D02*
D03*
X1817000D02*
D03*
X1837000D02*
D03*
X1857000D02*
D03*
X1797000Y1810000D02*
D03*
X1817000D02*
D03*
X1837000D02*
D03*
X1630000Y1810000D02*
D03*
X1550000D02*
D03*
X1570000Y1790000D02*
D03*
X1590000D02*
D03*
X1610000D02*
D03*
X1630000D02*
D03*
X1570000Y1810000D02*
D03*
X1590000D02*
D03*
X1610000D02*
D03*
D73*
X310000Y221500D02*
D03*
X284600D02*
D03*
X259200D02*
D03*
X831700Y128500D02*
D03*
X806300D02*
D03*
X780900D02*
D03*
X169400Y1035000D02*
D03*
X144000D02*
D03*
X118600D02*
D03*
X230400Y611009D02*
D03*
Y585609D02*
D03*
Y560209D02*
D03*
Y534809D02*
D03*
X205000Y611009D02*
D03*
Y585609D02*
D03*
Y509409D02*
D03*
Y534809D02*
D03*
Y560209D02*
D03*
X1092350Y707250D02*
D03*
X1117750D02*
D03*
X1143150D02*
D03*
X1168550D02*
D03*
X1193950D02*
D03*
X1370900Y992580D02*
D03*
Y967180D02*
D03*
Y941780D02*
D03*
Y916380D02*
D03*
Y890980D02*
D03*
Y865580D02*
D03*
Y840180D02*
D03*
Y814780D02*
D03*
Y789380D02*
D03*
Y763980D02*
D03*
Y738580D02*
D03*
Y713180D02*
D03*
Y687780D02*
D03*
Y662380D02*
D03*
Y636980D02*
D03*
Y611580D02*
D03*
Y586180D02*
D03*
Y560780D02*
D03*
Y535380D02*
D03*
X1396300Y992580D02*
D03*
Y967180D02*
D03*
Y941780D02*
D03*
Y916380D02*
D03*
Y890980D02*
D03*
Y865580D02*
D03*
Y840180D02*
D03*
Y814780D02*
D03*
Y789380D02*
D03*
Y763980D02*
D03*
Y738580D02*
D03*
Y713180D02*
D03*
Y687780D02*
D03*
Y662380D02*
D03*
Y636980D02*
D03*
Y611580D02*
D03*
Y586180D02*
D03*
Y560780D02*
D03*
X1370900Y509980D02*
D03*
X1396300Y535380D02*
D03*
X549450Y128500D02*
D03*
X574850D02*
D03*
X600250D02*
D03*
D74*
X233800Y221500D02*
D03*
X755500Y128500D02*
D03*
X93200Y1035000D02*
D03*
X1066950Y707250D02*
D03*
X524050Y128500D02*
D03*
D75*
X1153500Y150000D02*
D03*
X1253500D02*
D03*
X1053500D02*
D03*
X1303500Y190500D02*
D03*
X586260Y783000D02*
D03*
X612500Y802000D02*
D03*
X638736Y783000D02*
D03*
X375050Y488750D02*
D03*
X440000Y400000D02*
D03*
X440750Y450000D02*
D03*
X1103500Y190500D02*
D03*
X1203500D02*
D03*
X1466300Y611580D02*
D03*
Y535380D02*
D03*
X1525000Y560780D02*
D03*
X1300900Y840180D02*
D03*
X1466300Y865560D02*
D03*
X1300900Y655960D02*
D03*
D76*
X230400Y509409D02*
D03*
X1396300Y509980D02*
D03*
D77*
X545000Y1590000D02*
D03*
X918000Y1720000D02*
D03*
X149000D02*
D03*
X2433000Y1790000D02*
D03*
X2105000D02*
D03*
X1777000D02*
D03*
X1550000Y1790000D02*
D03*
D78*
X1659160Y980000D02*
D03*
X2530000D02*
D03*
X1659160Y487920D02*
D03*
X2530000D02*
D03*
D79*
X2750000Y1850000D02*
D03*
X1400000D02*
D03*
X50000D02*
D03*
X2650000Y50000D02*
D03*
X1400000D02*
D03*
X150000D02*
D03*
D106*
X1102250Y449500D02*
D03*
Y405500D02*
D03*
X1127250D02*
D03*
Y449500D02*
D03*
D107*
X1190750Y314250D02*
D03*
X1219750D02*
D03*
D108*
X1229250Y494500D02*
D03*
Y465500D02*
D03*
D109*
X772000Y680250D02*
D03*
Y652250D02*
D03*
X740000Y673250D02*
D03*
Y701250D02*
D03*
X410000Y514250D02*
D03*
Y486250D02*
D03*
M02*
