G04*
G04 #@! TF.GenerationSoftware,Altium Limited,Altium Designer,25.4.2 (15)*
G04*
G04 Layer_Physical_Order=2*
G04 Layer_Color=16711680*
%FSLAX45Y45*%
%MOMM*%
G71*
G04*
G04 #@! TF.SameCoordinates,68366695-8EDB-4132-BA68-496D34F545A7*
G04*
G04*
G04 #@! TF.FilePolarity,Positive*
G04*
G01*
G75*
%ADD23C,14.00000*%
%ADD24C,4.50000*%
%ADD25O,6.00000X4.00000*%
%ADD26O,4.00000X6.00000*%
%ADD27R,1.65000X1.65000*%
%ADD28C,1.65000*%
%ADD29C,1.90600*%
%ADD30C,6.00000*%
%ADD31C,1.60000*%
G36*
X6930000Y10990000D02*
Y8870000D01*
X6600000Y8540000D01*
X6350000D01*
X5930035Y8959964D01*
X5929982Y10810018D01*
X5640000Y11100000D01*
X4460000D01*
X3790000Y10430000D01*
X2760000D01*
X2340000Y10010000D01*
Y7370000D01*
X2230000Y7260000D01*
X2000000D01*
X1770000Y7490000D01*
Y8510000D01*
X1540547Y8739453D01*
X1524570Y8770810D01*
X1494464Y8812248D01*
X1458247Y8848465D01*
X1416810Y8878571D01*
X1385452Y8894548D01*
X1220000Y9060000D01*
X230000D01*
X160000Y9130000D01*
Y10100000D01*
X2210000Y12150000D01*
X5770000D01*
X6930000Y10990000D01*
D02*
G37*
G36*
X5540000Y10140000D02*
Y9000000D01*
X5820000Y8720000D01*
Y8190000D01*
X5650000Y8020000D01*
X4510000D01*
X4410000Y8120000D01*
X3530000D01*
X2550000Y9100000D01*
X2550000Y9940000D01*
X2820000Y10210000D01*
X3930000D01*
X4680000Y10960000D01*
X5540000D01*
Y10140000D01*
D02*
G37*
G36*
X920863Y8599137D02*
Y8574654D01*
X928875Y8524066D01*
X944703Y8475354D01*
X967956Y8429717D01*
X998062Y8388280D01*
X1034279Y8352063D01*
X1075716Y8321957D01*
X1121353Y8298704D01*
X1170065Y8282876D01*
X1220653Y8274864D01*
X1245136D01*
X1590000Y7930000D01*
Y7540000D01*
X1960000Y7170000D01*
X2660000D01*
X3520000Y8030000D01*
X3760000D01*
X3900000Y7890000D01*
Y4370000D01*
X3620000Y4090000D01*
X3199512D01*
X2080000Y5210000D01*
X1690000D01*
X1261604Y5616958D01*
Y6878396D01*
X600000Y7540000D01*
X240000D01*
X50000Y7730000D01*
Y8940000D01*
X130000Y9020000D01*
X500000D01*
X920863Y8599137D01*
D02*
G37*
G36*
X6310000Y4220000D02*
Y3330000D01*
X6040000Y3060000D01*
X5150000D01*
X4170000Y2080000D01*
X2160000D01*
X2010000Y2230000D01*
Y2510000D01*
Y2590000D01*
X2280000Y2860000D01*
X2579999D01*
X4120000Y4399999D01*
Y5190000D01*
X4430000Y5500000D01*
X5030000D01*
X6310000Y4220000D01*
D02*
G37*
G36*
X1200000Y6810000D02*
Y5530000D01*
X1660000Y5070000D01*
X1880000D01*
X2090000Y4860000D01*
Y3670000D01*
X1790000Y3370000D01*
Y2160000D01*
X2120000Y1830000D01*
X4220000D01*
X5260000Y2870000D01*
X6580000D01*
X6850000Y2600000D01*
Y2120000D01*
X5740000Y1010000D01*
X1740000D01*
X1000000Y1750000D01*
Y5569004D01*
X1011862Y5571364D01*
X1021917Y5578083D01*
X1028636Y5588138D01*
X1030996Y5600000D01*
Y6600000D01*
X1028636Y6611862D01*
X1021917Y6621917D01*
X1011862Y6628636D01*
X1000000Y6630996D01*
X749004D01*
X160000Y7220000D01*
Y7420000D01*
X250000Y7510000D01*
X500000D01*
X1200000Y6810000D01*
D02*
G37*
%LPC*%
G36*
X5125610Y12025400D02*
X5074391D01*
X5023802Y12017387D01*
X4975090Y12001560D01*
X4929453Y11978307D01*
X4888016Y11948201D01*
X4851799Y11911984D01*
X4821693Y11870547D01*
X4798440Y11824910D01*
X4782613Y11776198D01*
X4774600Y11725610D01*
Y11674390D01*
X4782613Y11623802D01*
X4798440Y11575090D01*
X4821693Y11529453D01*
X4851799Y11488016D01*
X4888016Y11451799D01*
X4929453Y11421693D01*
X4975090Y11398440D01*
X5023802Y11382612D01*
X5074391Y11374600D01*
X5125610D01*
X5176198Y11382612D01*
X5224910Y11398440D01*
X5270547Y11421693D01*
X5311984Y11451799D01*
X5348201Y11488016D01*
X5378307Y11529453D01*
X5401560Y11575090D01*
X5417388Y11623802D01*
X5425400Y11674390D01*
Y11725610D01*
X5417388Y11776198D01*
X5401560Y11824910D01*
X5378307Y11870547D01*
X5348201Y11911984D01*
X5311984Y11948201D01*
X5270547Y11978307D01*
X5224910Y12001560D01*
X5176198Y12017387D01*
X5125610Y12025400D01*
D02*
G37*
%LPD*%
D23*
X2000000Y6100000D02*
D03*
D24*
X5100000Y10700000D02*
D03*
X1246263Y7600264D02*
D03*
X4600000Y5100000D02*
D03*
D25*
X2937500Y9700000D02*
D03*
X2462500Y10700000D02*
D03*
X5762500Y3500000D02*
D03*
X6237500Y2500000D02*
D03*
X2462500D02*
D03*
X2937500Y1500000D02*
D03*
D26*
X5500000Y8462500D02*
D03*
X6500000Y8937500D02*
D03*
D27*
X340000Y9172000D02*
D03*
D28*
Y8918000D02*
D03*
Y8664000D02*
D03*
Y8410000D02*
D03*
Y8156000D02*
D03*
Y7902000D02*
D03*
Y7648000D02*
D03*
Y7394000D02*
D03*
D29*
X3644000Y7470000D02*
D03*
X2120000D02*
D03*
X3644000Y7850000D02*
D03*
X2120000D02*
D03*
X1920000Y4270000D02*
D03*
X3444000D02*
D03*
X1920000Y4700000D02*
D03*
X3444000D02*
D03*
D30*
X500000Y500000D02*
D03*
X7300000D02*
D03*
Y6100000D02*
D03*
Y11700000D02*
D03*
X500000D02*
D03*
Y6100000D02*
D03*
D31*
X6185713Y11594300D02*
D03*
X6685713Y10594300D02*
D03*
X6185713Y9594300D02*
D03*
X4185713Y11594300D02*
D03*
X3185713D02*
D03*
X3685713Y10594300D02*
D03*
X2185713Y11594300D02*
D03*
X1685713Y10594300D02*
D03*
X1185713Y9594300D02*
D03*
X4685713D02*
D03*
X4185713Y8594300D02*
D03*
X3685713Y9594300D02*
D03*
X3185713Y8594300D02*
D03*
Y6594300D02*
D03*
X3685713Y5594300D02*
D03*
X3185713Y4594300D02*
D03*
X2685713Y5594300D02*
D03*
X685713Y7594300D02*
D03*
X5185713Y4594300D02*
D03*
X4685713Y3594300D02*
D03*
X4185713Y2594300D02*
D03*
X3685713Y3594300D02*
D03*
X3185713Y2594300D02*
D03*
X6685713D02*
D03*
X6185713Y1594300D02*
D03*
X5685713Y2594300D02*
D03*
X5185713Y1594300D02*
D03*
X4185713D02*
D03*
X2185713D02*
D03*
X1685713Y4594300D02*
D03*
X1185713Y3594300D02*
D03*
X1685713Y2594300D02*
D03*
M02*
