M48
;Layer_Color=9474304
;FILE_FORMAT=4:4
METRIC,LZ
;TYPE=PLATED
T01F00S00C0.8000
T02F00S00C1.1000
T03F00S00C1.2710
T04F00S00C2.1500
T05F00S00C2.5000
T06F00S00C5.0000
;TYPE=NON_PLATED
T07F00S00C3.5000
T08F00S00C6.0000
%
T01
X00218571Y0015943
X00168571Y0025943
X00318571
X00418571
Y0015943
X00468571Y0035943
X00368571
X00318571Y0045943
X00168571
X00118571Y0035943
X00518571Y0045943
X00568571Y0025943
X00668571
X00618571Y0015943
X00518571
X00368571Y0055943
X00268571
X00318571Y0065943
Y0085943
X00418571
X00068571Y0075943
X00118571Y0095943
X00168571Y0105943
X00218571Y0115943
X00318571
X00418571
X00368571Y0105943
Y0095943
X00468571
X00618571
X00668571Y0105943
X00618571Y0115943
T02
X00034Y007394
Y007648
Y007902
Y008156
Y00841
Y008664
Y008918
Y009172
T03
X00192Y00427
Y0047
X003444
Y00427
X003644Y00747
Y00785
X00212
Y00747
T04
X0029375Y0015
X0024625Y0025
X0062375
X0057625Y0035
X0055Y0084625
X0065Y0089375
X0029375Y0097
X0024625Y0107
T05
X0046Y0051
X00124626Y00760026
X0051Y0107
T06
X002Y0061
T07
X0073Y0005
X0005
X0073Y0061
X0005
Y0117
X0073
T08
X00124626Y00860026
X0046Y0061
X0051Y0117
M30
