G04*
G04 #@! TF.GenerationSoftware,Altium Limited,Altium Designer,25.4.2 (15)*
G04*
G04 Layer_Color=16711935*
%FSLAX45Y45*%
%MOMM*%
G71*
G04*
G04 #@! TF.SameCoordinates,68366695-8EDB-4132-BA68-496D34F545A7*
G04*
G04*
G04 #@! TF.FilePolarity,Negative*
G04*
G01*
G75*
%ADD14C,14.10000*%
%ADD15C,4.60000*%
%ADD16C,0.10000*%
%ADD17O,6.10000X4.10000*%
%ADD18O,4.10000X6.10000*%
%ADD19R,1.85320X1.85320*%
%ADD20C,1.85320*%
%ADD21C,2.10920*%
%ADD22C,6.20320*%
%ADD32C,4.00000*%
%ADD33C,2.50000*%
D14*
X2000000Y6100000D02*
D03*
D15*
X5100000Y10700000D02*
D03*
X1246263Y7600264D02*
D03*
X4600000Y5100000D02*
D03*
D16*
X5100000Y11700000D02*
D03*
X1246263Y8600264D02*
D03*
X4600000Y6100000D02*
D03*
D17*
X2937500Y9700000D02*
D03*
X2462500Y10700000D02*
D03*
X5762500Y3500000D02*
D03*
X6237500Y2500000D02*
D03*
X2462500D02*
D03*
X2937500Y1500000D02*
D03*
D18*
X5500000Y8462500D02*
D03*
X6500000Y8937500D02*
D03*
D19*
X340000Y9172000D02*
D03*
D20*
Y8918000D02*
D03*
Y8664000D02*
D03*
Y8410000D02*
D03*
Y8156000D02*
D03*
Y7902000D02*
D03*
Y7648000D02*
D03*
Y7394000D02*
D03*
D21*
X3644000Y7470000D02*
D03*
X2120000D02*
D03*
X3644000Y7850000D02*
D03*
X2120000D02*
D03*
X1920000Y4270000D02*
D03*
X3444000D02*
D03*
X1920000Y4700000D02*
D03*
X3444000D02*
D03*
D22*
X500000Y500000D02*
D03*
X7300000D02*
D03*
Y6100000D02*
D03*
Y11700000D02*
D03*
X500000D02*
D03*
Y6100000D02*
D03*
D32*
X5060000Y10570000D02*
X5360000Y8520000D01*
X3190000Y9570000D02*
X5060000Y10570000D01*
X2500000Y10710000D02*
X4560000Y11340000D01*
X6100000Y11270000D02*
X6410000Y9250000D01*
X2030000Y7560000D02*
X2100000Y10680000D01*
X1310000Y7550000D02*
X1780000Y6630000D01*
X2370000Y6130000D02*
X3650000Y7690000D01*
X2390000Y5670000D02*
X3460000Y4410000D01*
X4750000Y5010000D02*
X5730000Y3600000D01*
X2730000Y2440000D02*
X4850000Y4850000D01*
X1260000Y1930000D02*
X2680000Y1320000D01*
X1290000Y1950000D02*
X1740000Y4710000D01*
X3260000Y1270000D02*
X6250000Y2180000D01*
D33*
X4520000Y11220000D02*
X5990000Y11230000D01*
M02*
