G04*
G04 #@! TF.GenerationSoftware,Altium Limited,Altium Designer,25.4.2 (15)*
G04*
G04 Layer_Color=65535*
%FSLAX45Y45*%
%MOMM*%
G71*
G04*
G04 #@! TF.SameCoordinates,68366695-8EDB-4132-BA68-496D34F545A7*
G04*
G04*
G04 #@! TF.FilePolarity,Positive*
G04*
G01*
G75*
%ADD10C,0.10000*%
%ADD11C,0.20000*%
G36*
X1790000Y3200000D02*
X3620000D01*
X3560000Y3240000D01*
X3450000Y3310000D01*
X3350000Y3360000D01*
X3240000Y3410000D01*
X3080000Y3460000D01*
X2950000Y3490000D01*
X2750000Y3510000D01*
X2620000D01*
X2540000Y3500000D01*
X2400000Y3480000D01*
X2220000Y3430000D01*
X2040000Y3360000D01*
X1930000Y3300000D01*
X1790000Y3200000D01*
D02*
G37*
G36*
X5090000Y4200000D02*
X6920000D01*
X6860000Y4240000D01*
X6750000Y4310000D01*
X6650000Y4360000D01*
X6540000Y4410000D01*
X6380000Y4460000D01*
X6250000Y4490000D01*
X6050000Y4510000D01*
X5920000D01*
X5840000Y4500000D01*
X5700000Y4480000D01*
X5520000Y4430000D01*
X5340000Y4360000D01*
X5230000Y4300000D01*
X5090000Y4200000D01*
D02*
G37*
G36*
X1790000Y11400000D02*
X3620000D01*
X3560000Y11440000D01*
X3450000Y11510000D01*
X3350000Y11560000D01*
X3240000Y11610000D01*
X3080000Y11660000D01*
X2950000Y11690000D01*
X2750000Y11710000D01*
X2620000D01*
X2540000Y11700000D01*
X2400000Y11680000D01*
X2220000Y11630000D01*
X2040000Y11560000D01*
X1930000Y11500000D01*
X1790000Y11400000D01*
D02*
G37*
G36*
X7200000Y9610000D02*
Y7780000D01*
X7240000Y7840000D01*
X7310000Y7950000D01*
X7360000Y8050000D01*
X7410000Y8160000D01*
X7460000Y8320000D01*
X7490000Y8450000D01*
X7510000Y8650000D01*
Y8780000D01*
X7500000Y8860000D01*
X7480000Y9000000D01*
X7430000Y9180000D01*
X7360000Y9360000D01*
X7300000Y9470000D01*
X7200000Y9610000D01*
D02*
G37*
G36*
X2696673Y8964438D02*
X2698154D01*
X2701857Y8962956D01*
X2703709Y8962216D01*
X2705561Y8960734D01*
X2705931D01*
X2706301Y8959994D01*
X2707042Y8958883D01*
X2708153Y8957772D01*
X2710004Y8954068D01*
X2710375Y8951476D01*
X2710745Y8948884D01*
Y8915924D01*
X2744075D01*
X2744445D01*
X2745186D01*
X2746667Y8915554D01*
X2748149D01*
X2752222Y8914073D01*
X2754074Y8912962D01*
X2755926Y8911480D01*
Y8911110D01*
X2756666Y8910740D01*
X2757037Y8909629D01*
X2757777Y8908147D01*
X2759259Y8904444D01*
X2759629Y8902592D01*
X2759999Y8900000D01*
Y8898889D01*
X2759629Y8897778D01*
Y8895926D01*
X2758518Y8892223D01*
X2756296Y8888520D01*
X2755926D01*
X2755555Y8887779D01*
X2754444Y8887038D01*
X2753333Y8886298D01*
X2751482Y8885557D01*
X2749260Y8884816D01*
X2747038Y8884446D01*
X2744075Y8884076D01*
X2710745D01*
Y8850005D01*
X2710375Y8848524D01*
Y8847043D01*
X2708893Y8842969D01*
X2708153Y8841117D01*
X2706671Y8839266D01*
X2706301D01*
X2705561Y8838525D01*
X2704820Y8838155D01*
X2703339Y8837414D01*
X2699635Y8835933D01*
X2697413Y8835562D01*
X2694821Y8835192D01*
X2694451D01*
X2694080D01*
X2691488Y8835562D01*
X2688155Y8837044D01*
X2686303Y8837784D01*
X2684452Y8839266D01*
X2684081Y8839636D01*
X2683711Y8840006D01*
X2682970Y8841117D01*
X2681859Y8842228D01*
X2680008Y8845932D01*
X2679637Y8848524D01*
X2679267Y8851116D01*
Y8884076D01*
X2645937D01*
X2645567D01*
X2644826D01*
X2643715Y8884446D01*
X2642234Y8884816D01*
X2638530Y8885927D01*
X2636308Y8887038D01*
X2634457Y8888520D01*
X2634086Y8888890D01*
X2633716Y8889260D01*
X2632975Y8890371D01*
X2632235Y8891853D01*
X2630753Y8895556D01*
X2630013Y8897778D01*
Y8901852D01*
X2630383Y8903333D01*
X2631494Y8906666D01*
X2633716Y8910369D01*
X2634086Y8910740D01*
X2634457Y8911110D01*
X2635568Y8912221D01*
X2637049Y8913332D01*
X2640752Y8915184D01*
X2643345Y8915554D01*
X2645937Y8915924D01*
X2679267D01*
Y8949995D01*
X2679637Y8951476D01*
X2680008Y8952957D01*
X2681489Y8957031D01*
X2682600Y8958883D01*
X2684452Y8960364D01*
X2684822Y8960734D01*
X2685192Y8961105D01*
X2687414Y8962586D01*
X2690747Y8964067D01*
X2692599Y8964808D01*
X2694821D01*
X2695191D01*
X2695932D01*
X2696673Y8964438D01*
D02*
G37*
G36*
X5996673Y1764438D02*
X5998154D01*
X6001857Y1762957D01*
X6003709Y1762216D01*
X6005561Y1760735D01*
X6005931D01*
X6006301Y1759994D01*
X6007042Y1758883D01*
X6008153Y1757772D01*
X6010004Y1754069D01*
X6010375Y1751476D01*
X6010745Y1748884D01*
Y1715924D01*
X6044075D01*
X6044445D01*
X6045186D01*
X6046667Y1715554D01*
X6048149D01*
X6052222Y1714073D01*
X6054074Y1712962D01*
X6055926Y1711480D01*
Y1711110D01*
X6056666Y1710740D01*
X6057037Y1709629D01*
X6057777Y1708147D01*
X6059259Y1704444D01*
X6059629Y1702592D01*
X6059999Y1700000D01*
Y1698889D01*
X6059629Y1697778D01*
Y1695927D01*
X6058518Y1692223D01*
X6056296Y1688520D01*
X6055926D01*
X6055555Y1687779D01*
X6054444Y1687039D01*
X6053333Y1686298D01*
X6051482Y1685557D01*
X6049260Y1684817D01*
X6047038Y1684446D01*
X6044075Y1684076D01*
X6010745D01*
Y1650005D01*
X6010375Y1648524D01*
Y1647043D01*
X6008893Y1642969D01*
X6008153Y1641117D01*
X6006672Y1639266D01*
X6006301D01*
X6005561Y1638525D01*
X6004820Y1638155D01*
X6003339Y1637414D01*
X5999635Y1635933D01*
X5997413Y1635562D01*
X5994821Y1635192D01*
X5994451D01*
X5994080D01*
X5991488Y1635562D01*
X5988155Y1637044D01*
X5986303Y1637784D01*
X5984452Y1639266D01*
X5984081Y1639636D01*
X5983711Y1640006D01*
X5982970Y1641117D01*
X5981859Y1642228D01*
X5980008Y1645932D01*
X5979637Y1648524D01*
X5979267Y1651116D01*
Y1684076D01*
X5945937D01*
X5945567D01*
X5944826D01*
X5943715Y1684446D01*
X5942234Y1684817D01*
X5938530Y1685928D01*
X5936308Y1687039D01*
X5934457Y1688520D01*
X5934086Y1688890D01*
X5933716Y1689261D01*
X5932975Y1690372D01*
X5932235Y1691853D01*
X5930753Y1695556D01*
X5930013Y1697778D01*
Y1701852D01*
X5930383Y1703333D01*
X5931494Y1706666D01*
X5933716Y1710369D01*
X5934086Y1710740D01*
X5934457Y1711110D01*
X5935568Y1712221D01*
X5937049Y1713332D01*
X5940752Y1715184D01*
X5943345Y1715554D01*
X5945937Y1715924D01*
X5979267D01*
Y1749995D01*
X5979637Y1751476D01*
X5980008Y1752958D01*
X5981489Y1757031D01*
X5982600Y1758883D01*
X5984452Y1760364D01*
X5984822Y1760735D01*
X5985192Y1761105D01*
X5987414Y1762586D01*
X5990747Y1764068D01*
X5992599Y1764808D01*
X5994821D01*
X5995191D01*
X5995932D01*
X5996673Y1764438D01*
D02*
G37*
G36*
X4703333Y8769616D02*
X4706666Y8768505D01*
X4710369Y8766283D01*
X4710740Y8765913D01*
X4711110Y8765543D01*
X4712221Y8764432D01*
X4713332Y8762950D01*
X4715184Y8759247D01*
X4715554Y8756655D01*
X4715924Y8754063D01*
Y8720733D01*
X4749995D01*
X4751476Y8720362D01*
X4752957Y8719992D01*
X4757031Y8718511D01*
X4758883Y8717400D01*
X4760364Y8715548D01*
X4760734Y8715178D01*
X4761105Y8714807D01*
X4762586Y8712585D01*
X4764067Y8709252D01*
X4764808Y8707401D01*
Y8705179D01*
Y8704808D01*
Y8704068D01*
X4764438Y8703327D01*
Y8701846D01*
X4762956Y8698142D01*
X4762216Y8696291D01*
X4760734Y8694439D01*
Y8694069D01*
X4759994Y8693698D01*
X4758883Y8692958D01*
X4757772Y8691847D01*
X4754068Y8689995D01*
X4751476Y8689625D01*
X4748884Y8689254D01*
X4715924D01*
Y8655925D01*
Y8655554D01*
Y8654814D01*
X4715554Y8653332D01*
Y8651851D01*
X4714073Y8647777D01*
X4712962Y8645926D01*
X4711480Y8644074D01*
X4711110D01*
X4710740Y8643333D01*
X4709629Y8642963D01*
X4708147Y8642222D01*
X4704444Y8640741D01*
X4702592Y8640371D01*
X4700000Y8640000D01*
X4698889D01*
X4697778Y8640371D01*
X4695926D01*
X4692223Y8641482D01*
X4688520Y8643704D01*
Y8644074D01*
X4687779Y8644444D01*
X4687038Y8645555D01*
X4686298Y8646666D01*
X4685557Y8648518D01*
X4684816Y8650740D01*
X4684446Y8652962D01*
X4684076Y8655925D01*
Y8689254D01*
X4650005D01*
X4648524Y8689625D01*
X4647043D01*
X4642969Y8691106D01*
X4641117Y8691847D01*
X4639266Y8693328D01*
Y8693698D01*
X4638525Y8694439D01*
X4638155Y8695180D01*
X4637414Y8696661D01*
X4635933Y8700364D01*
X4635562Y8702586D01*
X4635192Y8705179D01*
Y8705549D01*
Y8705919D01*
X4635562Y8708512D01*
X4637044Y8711845D01*
X4637784Y8713696D01*
X4639266Y8715548D01*
X4639636Y8715918D01*
X4640006Y8716289D01*
X4641117Y8717029D01*
X4642228Y8718140D01*
X4645932Y8719992D01*
X4648524Y8720362D01*
X4651116Y8720733D01*
X4684076D01*
Y8754063D01*
Y8754433D01*
Y8755173D01*
X4684446Y8756284D01*
X4684816Y8757766D01*
X4685927Y8761469D01*
X4687038Y8763691D01*
X4688520Y8765543D01*
X4688890Y8765913D01*
X4689260Y8766283D01*
X4690371Y8767024D01*
X4691853Y8767765D01*
X4695556Y8769246D01*
X4697778Y8769987D01*
X4701852D01*
X4703333Y8769616D01*
D02*
G37*
G36*
X2696673Y764438D02*
X2698154D01*
X2701857Y762957D01*
X2703709Y762216D01*
X2705561Y760735D01*
X2705931D01*
X2706301Y759994D01*
X2707042Y758883D01*
X2708153Y757772D01*
X2710004Y754069D01*
X2710375Y751476D01*
X2710745Y748884D01*
Y715924D01*
X2744075D01*
X2744445D01*
X2745186D01*
X2746667Y715554D01*
X2748149D01*
X2752222Y714073D01*
X2754074Y712962D01*
X2755926Y711480D01*
Y711110D01*
X2756666Y710740D01*
X2757037Y709629D01*
X2757777Y708147D01*
X2759259Y704444D01*
X2759629Y702592D01*
X2759999Y700000D01*
Y698889D01*
X2759629Y697778D01*
Y695926D01*
X2758518Y692223D01*
X2756296Y688520D01*
X2755926D01*
X2755555Y687779D01*
X2754444Y687039D01*
X2753333Y686298D01*
X2751482Y685557D01*
X2749260Y684817D01*
X2747038Y684446D01*
X2744075Y684076D01*
X2710745D01*
Y650005D01*
X2710375Y648524D01*
Y647043D01*
X2708893Y642969D01*
X2708153Y641117D01*
X2706671Y639266D01*
X2706301D01*
X2705561Y638525D01*
X2704820Y638155D01*
X2703339Y637414D01*
X2699635Y635933D01*
X2697413Y635562D01*
X2694821Y635192D01*
X2694451D01*
X2694080D01*
X2691488Y635562D01*
X2688155Y637044D01*
X2686303Y637784D01*
X2684452Y639266D01*
X2684081Y639636D01*
X2683711Y640006D01*
X2682970Y641117D01*
X2681859Y642228D01*
X2680008Y645932D01*
X2679637Y648524D01*
X2679267Y651116D01*
Y684076D01*
X2645937D01*
X2645567D01*
X2644826D01*
X2643715Y684446D01*
X2642234Y684817D01*
X2638530Y685928D01*
X2636308Y687039D01*
X2634457Y688520D01*
X2634086Y688890D01*
X2633716Y689260D01*
X2632975Y690371D01*
X2632235Y691853D01*
X2630753Y695556D01*
X2630013Y697778D01*
Y701852D01*
X2630383Y703333D01*
X2631494Y706666D01*
X2633716Y710369D01*
X2634086Y710740D01*
X2634457Y711110D01*
X2635568Y712221D01*
X2637049Y713332D01*
X2640752Y715184D01*
X2643345Y715554D01*
X2645937Y715924D01*
X2679267D01*
Y749995D01*
X2679637Y751476D01*
X2680008Y752958D01*
X2681489Y757031D01*
X2682600Y758883D01*
X2684452Y760364D01*
X2684822Y760735D01*
X2685192Y761105D01*
X2687414Y762586D01*
X2690747Y764068D01*
X2692599Y764808D01*
X2694821D01*
X2695191D01*
X2695932D01*
X2696673Y764438D01*
D02*
G37*
G36*
X2930186Y6151826D02*
X2931667Y6151455D01*
X2935741Y6149974D01*
X2937593Y6148863D01*
X2939444Y6147011D01*
X2939815D01*
X2940185Y6146271D01*
X2941666Y6144419D01*
X2943148Y6141086D01*
X2943888Y6138864D01*
Y6136272D01*
X2943518Y6132198D01*
X2898708Y5980362D01*
X2949073D01*
Y6013692D01*
Y6014062D01*
Y6014803D01*
X2949443Y6015914D01*
Y6017395D01*
X2950925Y6020728D01*
X2951665Y6022950D01*
X2953147Y6024802D01*
X2953517Y6025172D01*
X2954258Y6025542D01*
X2954998Y6026283D01*
X2956480Y6027024D01*
X2960183Y6028505D01*
X2962405Y6029246D01*
X2966108D01*
X2967219Y6028875D01*
X2968701D01*
X2972034Y6027394D01*
X2973885Y6026653D01*
X2975737Y6025172D01*
X2976107D01*
X2976478Y6024431D01*
X2978329Y6022209D01*
X2980181Y6018506D01*
X2980551Y6016284D01*
X2980922Y6013692D01*
Y5980362D01*
X3002771D01*
X3003882Y5979992D01*
X3005734Y5979621D01*
X3009067Y5978140D01*
X3010919Y5977029D01*
X3012770Y5975177D01*
X3013141Y5974807D01*
X3013511Y5974437D01*
X3015363Y5972215D01*
X3016844Y5968882D01*
X3017214Y5967030D01*
X3017585Y5964808D01*
Y5964438D01*
Y5963697D01*
X3017214Y5962956D01*
Y5961475D01*
X3015733Y5957772D01*
X3014992Y5955920D01*
X3013511Y5954068D01*
Y5953698D01*
X3012770Y5953328D01*
X3011659Y5952587D01*
X3010548Y5951476D01*
X3006845Y5949624D01*
X3004253Y5949254D01*
X3001660Y5948884D01*
X2980922D01*
Y5915924D01*
Y5915554D01*
Y5914813D01*
X2980551Y5913332D01*
Y5911851D01*
X2979070Y5907777D01*
X2977959Y5905925D01*
X2976478Y5904074D01*
X2976107D01*
X2975737Y5903333D01*
X2974626Y5902963D01*
X2973145Y5902222D01*
X2969441Y5900741D01*
X2967590Y5900370D01*
X2964997Y5900000D01*
X2963886D01*
X2962775Y5900370D01*
X2961294D01*
X2957591Y5901481D01*
X2953887Y5903703D01*
X2953517Y5904074D01*
X2953147Y5904444D01*
X2952406Y5905555D01*
X2951665Y5906666D01*
X2950554Y5908518D01*
X2949814Y5910740D01*
X2949443Y5912962D01*
X2949073Y5915924D01*
Y5948884D01*
X2878340D01*
X2876488Y5949254D01*
X2873896Y5949624D01*
X2870933Y5950735D01*
X2867600Y5952217D01*
X2865008Y5954809D01*
X2863156Y5958142D01*
X2862786Y5960364D01*
X2862415Y5962586D01*
X2862786Y5965919D01*
X2863526Y5968141D01*
X2912781Y6140716D01*
Y6141086D01*
X2913151Y6141456D01*
X2913892Y6143308D01*
X2915743Y6146271D01*
X2918336Y6149233D01*
X2920928Y6150715D01*
X2921298Y6151085D01*
X2922780Y6151455D01*
X2925002Y6151826D01*
X2927594Y6152196D01*
X2928705D01*
X2930186Y6151826D01*
D02*
G37*
G36*
X1245477Y8122601D02*
X1248069Y8122231D01*
X1251032Y8121861D01*
X1257698Y8120379D01*
X1265474Y8118157D01*
X1273622Y8114454D01*
X1277695Y8112232D01*
X1281769Y8109269D01*
X1285472Y8106307D01*
X1289176Y8102603D01*
X1289546Y8102233D01*
X1289916Y8101863D01*
X1290657Y8100752D01*
X1291768Y8099270D01*
X1294360Y8095567D01*
X1297323Y8090382D01*
X1300286Y8083716D01*
X1302878Y8076310D01*
X1304730Y8067792D01*
X1305470Y8063348D01*
Y8058534D01*
Y8057793D01*
Y8055941D01*
X1305100Y8052979D01*
X1304730Y8049275D01*
X1303989Y8044832D01*
X1302878Y8039647D01*
X1301397Y8034833D01*
X1299175Y8029648D01*
X1298804Y8028907D01*
X1298064Y8027426D01*
X1296582Y8025204D01*
X1294731Y8022241D01*
X1292138Y8018908D01*
X1289176Y8015575D01*
X1285472Y8011872D01*
X1281399Y8008909D01*
X1281769Y8008539D01*
X1282880Y8007798D01*
X1284732Y8006317D01*
X1286954Y8004095D01*
X1289546Y8001503D01*
X1292509Y7998170D01*
X1295471Y7994096D01*
X1298064Y7989282D01*
X1298434Y7988541D01*
X1299175Y7987060D01*
X1300286Y7984097D01*
X1301767Y7980764D01*
X1303248Y7976320D01*
X1304359Y7971506D01*
X1305100Y7965951D01*
X1305470Y7960396D01*
Y7935954D01*
Y7935584D01*
Y7934843D01*
Y7933362D01*
X1305100Y7931510D01*
X1304730Y7929288D01*
X1304359Y7926696D01*
X1303248Y7920400D01*
X1300656Y7912993D01*
X1297323Y7905216D01*
X1295101Y7901513D01*
X1292509Y7897439D01*
X1289546Y7893736D01*
X1286213Y7890033D01*
X1285843Y7889662D01*
X1285472Y7889292D01*
X1284361Y7888181D01*
X1282880Y7887070D01*
X1281028Y7885589D01*
X1278806Y7884107D01*
X1273251Y7880774D01*
X1266585Y7877071D01*
X1258809Y7874108D01*
X1249921Y7871886D01*
X1245106Y7871516D01*
X1240292Y7871146D01*
X1190297D01*
X1188816Y7871516D01*
X1187334D01*
X1183261Y7872997D01*
X1181409Y7873738D01*
X1179557Y7875219D01*
Y7875590D01*
X1178817Y7876330D01*
X1178446Y7877441D01*
X1177706Y7878923D01*
X1176224Y7882626D01*
X1175854Y7884848D01*
X1175484Y7887070D01*
Y7887440D01*
Y7887811D01*
X1175854Y7890403D01*
X1176965Y7893736D01*
X1179187Y7897439D01*
X1179557Y7897810D01*
X1179928Y7898180D01*
X1181039Y7898921D01*
X1182150Y7900032D01*
X1184001Y7901143D01*
X1186223Y7901883D01*
X1188445Y7902254D01*
X1191408Y7902624D01*
X1242514D01*
X1245106Y7902994D01*
X1248439Y7903735D01*
X1252143Y7904846D01*
X1255846Y7906698D01*
X1259920Y7908920D01*
X1263623Y7912253D01*
X1263993Y7912623D01*
X1265104Y7914104D01*
X1266956Y7915956D01*
X1268807Y7918919D01*
X1270289Y7922252D01*
X1272140Y7926325D01*
X1273251Y7930769D01*
X1273622Y7935954D01*
Y7960396D01*
Y7961136D01*
Y7962618D01*
X1273251Y7965210D01*
X1272511Y7968543D01*
X1271400Y7972246D01*
X1269548Y7975950D01*
X1267326Y7980023D01*
X1263993Y7983727D01*
X1263623Y7984097D01*
X1262141Y7985208D01*
X1260290Y7987060D01*
X1257327Y7988911D01*
X1253994Y7990393D01*
X1249921Y7992244D01*
X1245477Y7993355D01*
X1240292Y7993726D01*
X1214739D01*
X1213258Y7994096D01*
X1211776Y7994466D01*
X1207703Y7995577D01*
X1205481Y7996688D01*
X1203629Y7998170D01*
Y7998540D01*
X1202888Y7998910D01*
X1202518Y8000021D01*
X1201777Y8001503D01*
X1200666Y8005206D01*
X1199926Y8009650D01*
Y8010020D01*
Y8010391D01*
X1200296Y8012983D01*
X1201407Y8016316D01*
X1203629Y8020019D01*
X1203999Y8020390D01*
X1204370Y8020760D01*
X1205481Y8021501D01*
X1206592Y8022612D01*
X1208443Y8023723D01*
X1210665Y8024463D01*
X1212887Y8024834D01*
X1215850Y8025204D01*
X1242884D01*
X1245477Y8025574D01*
X1248810Y8026315D01*
X1252513Y8027796D01*
X1256216Y8029278D01*
X1260290Y8031870D01*
X1263993Y8035203D01*
X1264363Y8035573D01*
X1265474Y8037055D01*
X1266585Y8039277D01*
X1268437Y8041869D01*
X1269918Y8045572D01*
X1271029Y8049646D01*
X1272140Y8054090D01*
X1272511Y8059274D01*
Y8060015D01*
Y8061496D01*
X1272140Y8064089D01*
X1271400Y8067051D01*
X1270659Y8070755D01*
X1269178Y8074458D01*
X1267326Y8078161D01*
X1264734Y8081494D01*
X1264363Y8081865D01*
X1263252Y8082976D01*
X1261030Y8084827D01*
X1258438Y8086679D01*
X1254735Y8088160D01*
X1250661Y8090012D01*
X1245847Y8091123D01*
X1240292Y8091493D01*
X1190297D01*
X1188816Y8091864D01*
X1187334D01*
X1183261Y8093345D01*
X1181409Y8094086D01*
X1179557Y8095567D01*
Y8095937D01*
X1178817Y8096678D01*
X1178446Y8097419D01*
X1177706Y8098900D01*
X1176224Y8102603D01*
X1175854Y8104825D01*
X1175484Y8107418D01*
Y8107788D01*
Y8108158D01*
X1175854Y8110751D01*
X1177335Y8114084D01*
X1178076Y8115935D01*
X1179557Y8117787D01*
X1179928Y8118157D01*
X1180298Y8118528D01*
X1181409Y8119268D01*
X1182520Y8120379D01*
X1186223Y8122231D01*
X1188816Y8122601D01*
X1191408Y8122972D01*
X1243255D01*
X1245477Y8122601D01*
D02*
G37*
G36*
X4605240Y5673036D02*
X4607832Y5672666D01*
X4610795Y5672295D01*
X4617831Y5670814D01*
X4625608Y5668592D01*
X4634126Y5664889D01*
X4638570Y5662667D01*
X4643014Y5659704D01*
X4647087Y5656741D01*
X4651161Y5653038D01*
X4651531Y5652668D01*
X4651902Y5652297D01*
X4653013Y5651186D01*
X4654494Y5649335D01*
X4655975Y5647483D01*
X4657827Y5645261D01*
X4661901Y5639706D01*
X4665604Y5632670D01*
X4668937Y5624522D01*
X4670418Y5620078D01*
X4671529Y5615634D01*
X4671900Y5610820D01*
X4672270Y5605635D01*
Y5604895D01*
Y5603043D01*
X4671900Y5599710D01*
X4671159Y5595637D01*
X4670048Y5590822D01*
X4668567Y5585267D01*
X4666345Y5579342D01*
X4663382Y5573046D01*
X4584872Y5452688D01*
X4658197D01*
X4659679Y5452318D01*
X4661160Y5451948D01*
X4664863Y5450466D01*
X4666715Y5449355D01*
X4668567Y5447504D01*
X4668937Y5447133D01*
X4669307Y5446763D01*
X4671159Y5444541D01*
X4672640Y5441208D01*
X4673011Y5439356D01*
X4673381Y5437134D01*
Y5436764D01*
Y5436023D01*
X4673011Y5435283D01*
Y5433801D01*
X4671529Y5430098D01*
X4670789Y5428246D01*
X4669307Y5426395D01*
Y5426024D01*
X4668567Y5425654D01*
X4667456Y5424913D01*
X4666345Y5423802D01*
X4664493Y5422691D01*
X4662271Y5421951D01*
X4660049Y5421580D01*
X4657086Y5421210D01*
X4558578D01*
X4556726Y5421580D01*
X4553764Y5421951D01*
X4550801Y5423062D01*
X4547839Y5424543D01*
X4544876Y5426765D01*
X4543024Y5430098D01*
X4542654Y5432320D01*
X4542284Y5434542D01*
Y5434912D01*
Y5435283D01*
X4542654Y5437875D01*
X4543765Y5441208D01*
X4545617Y5445282D01*
X4635978Y5589711D01*
X4636348Y5590082D01*
X4636718Y5591193D01*
X4637459Y5592674D01*
X4638200Y5594896D01*
X4638940Y5597488D01*
X4639681Y5600451D01*
X4640422Y5603413D01*
Y5606376D01*
Y5607117D01*
Y5608598D01*
X4639681Y5611561D01*
X4638940Y5614894D01*
X4637829Y5618597D01*
X4635607Y5622671D01*
X4633015Y5626744D01*
X4629312Y5630818D01*
X4628941Y5631188D01*
X4628201Y5631559D01*
X4627090Y5632670D01*
X4625608Y5633781D01*
X4621535Y5636373D01*
X4616720Y5638965D01*
X4616350D01*
X4615609Y5639336D01*
X4614128Y5640076D01*
X4612276Y5640447D01*
X4610054Y5641187D01*
X4607462Y5641558D01*
X4601537Y5641928D01*
X4600055D01*
X4598574Y5641558D01*
X4596722D01*
X4591538Y5640076D01*
X4588945Y5639336D01*
X4586353Y5637854D01*
X4585983Y5637484D01*
X4584872Y5636743D01*
X4583390Y5635632D01*
X4581539Y5634151D01*
X4577095Y5630077D01*
X4572651Y5624522D01*
X4572280Y5624152D01*
X4571169Y5622671D01*
X4569318Y5620819D01*
X4566355Y5618597D01*
X4560059Y5617116D01*
X4558948D01*
X4557837Y5617486D01*
X4555986Y5617856D01*
X4552282Y5618967D01*
X4550060Y5620078D01*
X4548209Y5621560D01*
X4547839Y5621930D01*
X4547468Y5622300D01*
X4545617Y5624522D01*
X4543765Y5628226D01*
X4543395Y5630448D01*
X4543024Y5632670D01*
Y5633410D01*
X4543395Y5634892D01*
X4544135Y5637854D01*
X4545246Y5641187D01*
X4545617Y5641928D01*
X4547098Y5643409D01*
X4548949Y5646002D01*
X4551912Y5649335D01*
X4555245Y5653038D01*
X4559319Y5656741D01*
X4564133Y5660445D01*
X4569688Y5664148D01*
X4570058Y5664518D01*
X4570799Y5664889D01*
X4572280Y5665629D01*
X4574502Y5666740D01*
X4578946Y5668962D01*
X4584501Y5670814D01*
X4584872D01*
X4585983Y5671184D01*
X4587464Y5671555D01*
X4589316Y5672295D01*
X4594500Y5673036D01*
X4600055Y5673406D01*
X4603018D01*
X4605240Y5673036D01*
D02*
G37*
G36*
X5109812Y11253307D02*
X5112774Y11252196D01*
X5114626Y11250715D01*
X5116478Y11249234D01*
X5116848Y11248863D01*
X5117218Y11248493D01*
X5117959Y11247382D01*
X5118700Y11245901D01*
X5119811Y11241827D01*
X5120551Y11239235D01*
Y11236642D01*
Y11015924D01*
Y11015554D01*
Y11014813D01*
X5120181Y11013332D01*
Y11011851D01*
X5118700Y11007777D01*
X5117589Y11005925D01*
X5116107Y11004074D01*
X5115737D01*
X5115367Y11003333D01*
X5114256Y11002963D01*
X5112774Y11002222D01*
X5109071Y11000741D01*
X5107219Y11000370D01*
X5104627Y11000000D01*
X5103516D01*
X5102405Y11000370D01*
X5100553D01*
X5096850Y11001481D01*
X5093147Y11003703D01*
Y11004074D01*
X5092406Y11004444D01*
X5091665Y11005555D01*
X5090925Y11006666D01*
X5090184Y11008518D01*
X5089443Y11010740D01*
X5089073Y11012962D01*
X5088703Y11015924D01*
Y11203312D01*
X5066483Y11175908D01*
X5066113D01*
X5065742Y11175167D01*
X5064631Y11174426D01*
X5063150Y11173686D01*
X5059817Y11172204D01*
X5057595Y11171834D01*
X5055373Y11171464D01*
X5054262D01*
X5053151Y11171834D01*
X5051670Y11172204D01*
X5048337Y11173315D01*
X5046115Y11174426D01*
X5044263Y11175908D01*
X5043893Y11176278D01*
X5043522Y11176648D01*
X5042782Y11177759D01*
X5042041Y11179241D01*
X5040189Y11182944D01*
X5039819Y11185166D01*
X5039449Y11187388D01*
Y11187758D01*
Y11188499D01*
X5039819Y11189610D01*
X5040189Y11190721D01*
X5041300Y11194424D01*
X5042411Y11196276D01*
X5043893Y11198128D01*
X5093147Y11247382D01*
X5093517Y11247752D01*
X5094998Y11248863D01*
X5096850Y11250345D01*
X5099072Y11251826D01*
X5099813Y11252196D01*
X5101294Y11252937D01*
X5103886Y11253678D01*
X5106849Y11254048D01*
X5107590D01*
X5109812Y11253307D01*
D02*
G37*
G36*
X283060Y9655642D02*
X284541Y9655086D01*
X286207Y9653975D01*
X286393D01*
X286578Y9653605D01*
X287318Y9652679D01*
X287874Y9651198D01*
X288244Y9650272D01*
Y9649346D01*
Y9649161D01*
X288059Y9648420D01*
X287874Y9647309D01*
X287318Y9646198D01*
X256766Y9589908D01*
X287318Y9533432D01*
X287504Y9533247D01*
X287874Y9532506D01*
X288059Y9531580D01*
X288244Y9530469D01*
Y9530284D01*
Y9530099D01*
X288059Y9528988D01*
X287318Y9527507D01*
X286763Y9526766D01*
X286022Y9525840D01*
X285652Y9525655D01*
X284726Y9525100D01*
X283060Y9524359D01*
X281208Y9524174D01*
X280652D01*
X279912Y9524359D01*
X279171Y9524729D01*
X278245Y9525100D01*
X277319Y9525840D01*
X276394Y9526951D01*
X275653Y9528247D01*
X249545Y9578427D01*
X222881Y9526766D01*
Y9526581D01*
X222510Y9526396D01*
X221585Y9525470D01*
X220844Y9524914D01*
X219918Y9524544D01*
X218807Y9524359D01*
X217511Y9524174D01*
X217141D01*
X215844Y9524359D01*
X214363Y9524914D01*
X212882Y9525840D01*
X212511Y9526211D01*
X211956Y9527136D01*
X211400Y9528618D01*
X211030Y9530469D01*
Y9530655D01*
X211215Y9531395D01*
X211400Y9532506D01*
X211771Y9533617D01*
X242508Y9589908D01*
X211771Y9646198D01*
X211030Y9649161D01*
Y9649531D01*
X211215Y9650457D01*
X211771Y9651753D01*
X212697Y9653420D01*
Y9653605D01*
X213067Y9653790D01*
X213993Y9654716D01*
X215659Y9655456D01*
X216585Y9655642D01*
X217696Y9655827D01*
X218252D01*
X218992Y9655642D01*
X219733Y9655271D01*
X220659Y9654716D01*
X221770Y9653975D01*
X222696Y9652864D01*
X223436Y9651383D01*
X249545Y9601573D01*
X276208Y9652864D01*
Y9653049D01*
X276394Y9653420D01*
X277319Y9654345D01*
X278060Y9654901D01*
X278986Y9655456D01*
X280097Y9655642D01*
X281393Y9655827D01*
X281949D01*
X283060Y9655642D01*
D02*
G37*
G36*
X423786Y9655456D02*
X425267Y9654901D01*
X426934Y9653790D01*
X427119D01*
X427304Y9653420D01*
X428045Y9652679D01*
X428600Y9651198D01*
X428970Y9650272D01*
Y9649346D01*
Y9530469D01*
Y9530284D01*
Y9529914D01*
X428785Y9528803D01*
X428230Y9527322D01*
X427119Y9525840D01*
X426748Y9525655D01*
X425823Y9525100D01*
X424156Y9524359D01*
X422304Y9524174D01*
X422119D01*
X421379Y9524359D01*
X420082Y9524729D01*
X418231Y9525285D01*
X417860Y9525655D01*
X417120Y9526581D01*
X416379Y9528247D01*
X416194Y9529358D01*
X416009Y9530469D01*
Y9636384D01*
X399529Y9617312D01*
X399159Y9616942D01*
X398233Y9616386D01*
X396937Y9615831D01*
X395085Y9615461D01*
X394715D01*
X393419Y9615646D01*
X391937Y9616201D01*
X390456Y9617312D01*
X390086Y9617683D01*
X389530Y9618608D01*
X388975Y9620090D01*
X388604Y9621941D01*
Y9622127D01*
X388789Y9622867D01*
X389345Y9624163D01*
X389715Y9625089D01*
X390271Y9626200D01*
X417675Y9653790D01*
X418046Y9654160D01*
X418971Y9654716D01*
X420268Y9655271D01*
X422119Y9655642D01*
X422675D01*
X423786Y9655456D01*
D02*
G37*
G36*
X344905D02*
X346016D01*
X347127Y9655271D01*
X350090Y9654531D01*
X353238Y9653605D01*
X356756Y9652123D01*
X360274Y9649901D01*
X362126Y9648605D01*
X363792Y9647124D01*
X363977Y9646939D01*
X364533Y9646383D01*
X365273Y9645457D01*
X366199Y9644346D01*
X367310Y9642865D01*
X368421Y9641384D01*
X369347Y9639532D01*
X370273Y9637680D01*
X371754Y9632496D01*
X372310Y9629163D01*
Y9626385D01*
Y9608054D01*
Y9607869D01*
Y9607498D01*
Y9606943D01*
X372124Y9606017D01*
Y9605091D01*
X371939Y9603795D01*
X371199Y9601018D01*
X370273Y9597685D01*
X368606Y9594352D01*
X366569Y9590833D01*
X365088Y9589167D01*
X363607Y9587501D01*
X363422D01*
X363237Y9587130D01*
X362681Y9586760D01*
X362126Y9586204D01*
X360274Y9584723D01*
X357867Y9583242D01*
X354719Y9581760D01*
X351201Y9580279D01*
X347127Y9579353D01*
X344905Y9579168D01*
X342683Y9578983D01*
X317315D01*
Y9530469D01*
Y9530284D01*
Y9529914D01*
X317130Y9528803D01*
X316575Y9527322D01*
X315464Y9525840D01*
X315093Y9525655D01*
X314168Y9525100D01*
X312501Y9524359D01*
X310649Y9524174D01*
X310464D01*
X309724Y9524359D01*
X308427Y9524729D01*
X306576Y9525285D01*
X306205Y9525655D01*
X305465Y9526581D01*
X304724Y9528247D01*
X304539Y9529358D01*
X304354Y9530469D01*
Y9649161D01*
Y9649531D01*
X304539Y9650272D01*
X304724Y9651198D01*
X305094Y9652494D01*
X305835Y9653605D01*
X306946Y9654716D01*
X308613Y9655456D01*
X310649Y9655642D01*
X343979D01*
X344905Y9655456D01*
D02*
G37*
G36*
X1718514Y4805733D02*
X1719625D01*
X1720736Y4805548D01*
X1723699Y4804807D01*
X1726847Y4803881D01*
X1730365Y4802215D01*
X1733883Y4800178D01*
X1735550Y4798697D01*
X1737216Y4797215D01*
Y4797030D01*
X1737587Y4796845D01*
X1737957Y4796289D01*
X1738512Y4795734D01*
X1739994Y4793882D01*
X1741475Y4791475D01*
X1742956Y4788327D01*
X1744438Y4784809D01*
X1745364Y4780921D01*
X1745549Y4778699D01*
X1745734Y4776477D01*
Y4766107D01*
X1745549Y4765367D01*
X1745364Y4763145D01*
X1744623Y4760552D01*
X1743697Y4757405D01*
X1742216Y4754072D01*
X1740179Y4750553D01*
X1738883Y4748702D01*
X1737401Y4747035D01*
X1737216Y4746850D01*
X1737031Y4746665D01*
X1736476Y4746295D01*
X1735920Y4745739D01*
X1734068Y4744258D01*
X1731661Y4742591D01*
X1728513Y4740925D01*
X1724995Y4739629D01*
X1721107Y4738518D01*
X1718885Y4738332D01*
X1716663Y4738147D01*
X1676111D01*
X1675926D01*
X1675186D01*
X1674260D01*
X1672778Y4738332D01*
X1671112Y4738518D01*
X1669075Y4738703D01*
X1666668Y4739073D01*
X1664261Y4739443D01*
X1661483Y4739999D01*
X1658706Y4740554D01*
X1652595Y4742406D01*
X1649633Y4743517D01*
X1646485Y4744813D01*
X1643337Y4746480D01*
X1640189Y4748146D01*
X1640004Y4748331D01*
X1639449Y4748702D01*
X1638523Y4749257D01*
X1637227Y4750183D01*
X1635930Y4751294D01*
X1634264Y4752590D01*
X1632412Y4754257D01*
X1630375Y4756108D01*
X1628339Y4758145D01*
X1626302Y4760367D01*
X1624080Y4762959D01*
X1622043Y4765737D01*
X1620006Y4768514D01*
X1618154Y4771847D01*
X1616303Y4775180D01*
X1614822Y4778699D01*
X1614266Y4781291D01*
Y4781846D01*
X1614451Y4782957D01*
X1615192Y4784254D01*
X1615747Y4784994D01*
X1616488Y4785735D01*
X1616858Y4786105D01*
X1617784Y4786661D01*
X1619265Y4787216D01*
X1620932Y4787587D01*
X1621117D01*
X1621858Y4787401D01*
X1622969Y4787216D01*
X1624080Y4786661D01*
X1624265Y4786476D01*
X1624820Y4785920D01*
X1625746Y4784994D01*
X1626857Y4783513D01*
X1627413Y4781661D01*
X1628339Y4779624D01*
X1630190Y4776291D01*
Y4776106D01*
X1630561Y4775736D01*
X1630931Y4774995D01*
X1631486Y4774069D01*
X1633153Y4771847D01*
X1635005Y4769440D01*
X1635190Y4769255D01*
X1635745Y4768514D01*
X1636671Y4767403D01*
X1637967Y4766107D01*
X1639819Y4764441D01*
X1641856Y4762774D01*
X1644263Y4760923D01*
X1647040Y4758886D01*
X1647226Y4758701D01*
X1647966Y4758330D01*
X1648892Y4757775D01*
X1650373Y4757034D01*
X1652040Y4756294D01*
X1654077Y4755368D01*
X1656299Y4754442D01*
X1658706Y4753516D01*
X1659076Y4753331D01*
X1659817Y4753146D01*
X1660928Y4752775D01*
X1662409Y4752405D01*
X1665742Y4751479D01*
X1667409Y4751294D01*
X1668890Y4751109D01*
Y4777588D01*
X1669075Y4778328D01*
Y4779439D01*
X1669260Y4780735D01*
X1670001Y4783513D01*
X1670927Y4786846D01*
X1672593Y4790364D01*
X1674630Y4793882D01*
X1676111Y4795549D01*
X1677593Y4797215D01*
X1677778Y4797400D01*
X1677963Y4797586D01*
X1678519Y4797956D01*
X1679074Y4798511D01*
X1680926Y4799993D01*
X1683333Y4801659D01*
X1686481Y4803141D01*
X1689999Y4804622D01*
X1693887Y4805548D01*
X1696109Y4805918D01*
X1698331D01*
X1716478D01*
X1716663D01*
X1717033D01*
X1717589D01*
X1718514Y4805733D01*
D02*
G37*
G36*
X1741105Y4721853D02*
X1742586Y4721112D01*
X1743327Y4720556D01*
X1744253Y4719816D01*
X1744438Y4719445D01*
X1744993Y4718520D01*
X1745549Y4717038D01*
X1745734Y4715187D01*
Y4714261D01*
X1745549Y4713150D01*
X1745178Y4712039D01*
X1744993Y4711854D01*
X1744438Y4711298D01*
X1743697Y4710558D01*
X1742401Y4709632D01*
X1690925Y4679635D01*
Y4667043D01*
X1739438D01*
X1739623D01*
X1739994D01*
X1741105Y4666858D01*
X1742586Y4666303D01*
X1744067Y4665192D01*
X1744253Y4664822D01*
X1744808Y4663896D01*
X1745549Y4662229D01*
X1745734Y4660378D01*
Y4660192D01*
X1745549Y4659452D01*
X1745178Y4658156D01*
X1744623Y4656304D01*
X1744253Y4655934D01*
X1743327Y4655193D01*
X1741660Y4654452D01*
X1740549Y4654267D01*
X1739438Y4654082D01*
X1620747D01*
X1620376D01*
X1619636Y4654267D01*
X1618710Y4654452D01*
X1617414Y4654823D01*
X1616303Y4655563D01*
X1615192Y4656674D01*
X1614451Y4658341D01*
X1614266Y4660378D01*
Y4693522D01*
X1614451Y4694448D01*
Y4695559D01*
X1614636Y4696670D01*
X1615377Y4699448D01*
X1616303Y4702781D01*
X1617969Y4706299D01*
X1620006Y4709817D01*
X1621487Y4711483D01*
X1622969Y4713150D01*
X1623154Y4713335D01*
X1623339Y4713520D01*
X1624450Y4714631D01*
X1626302Y4715927D01*
X1628709Y4717594D01*
X1631672Y4719260D01*
X1635190Y4720742D01*
X1639263Y4721667D01*
X1641300Y4721853D01*
X1643522Y4722038D01*
X1661854D01*
X1662039D01*
X1662409D01*
X1662965D01*
X1663890Y4721853D01*
X1664816D01*
X1666112Y4721667D01*
X1668890Y4720927D01*
X1672223Y4720001D01*
X1675556Y4718334D01*
X1679074Y4716298D01*
X1680741Y4714816D01*
X1682407Y4713335D01*
Y4713150D01*
X1682777Y4712965D01*
X1683148Y4712409D01*
X1683703Y4711854D01*
X1685185Y4710002D01*
X1686666Y4707595D01*
X1688147Y4704447D01*
X1689629Y4700929D01*
X1690554Y4696855D01*
X1690740Y4694633D01*
X1690925Y4692411D01*
Y4693337D01*
X1736661Y4721297D01*
X1736846Y4721482D01*
X1737401Y4721667D01*
X1738327Y4721853D01*
X1739623Y4722038D01*
X1739809D01*
X1739994D01*
X1741105Y4721853D01*
D02*
G37*
G36*
X1858700Y7921197D02*
X1859625D01*
X1860922Y7921011D01*
X1863699Y7920271D01*
X1866847Y7919345D01*
X1870365Y7917678D01*
X1873883Y7915642D01*
X1875550Y7914160D01*
X1877216Y7912679D01*
Y7912494D01*
X1877587Y7912309D01*
X1877957Y7911753D01*
X1878512Y7911198D01*
X1879994Y7909346D01*
X1881475Y7906939D01*
X1882956Y7903791D01*
X1884438Y7900273D01*
X1885364Y7896384D01*
X1885549Y7894162D01*
X1885734Y7891940D01*
Y7868424D01*
X1885549Y7867313D01*
X1884993Y7865832D01*
X1884067Y7864351D01*
X1883882D01*
X1883697Y7864165D01*
X1882771Y7863610D01*
X1881290Y7862869D01*
X1879438Y7862684D01*
X1879253D01*
X1878327Y7862869D01*
X1877216Y7863240D01*
X1875550Y7864165D01*
X1875365D01*
X1875179Y7864536D01*
X1874254Y7865276D01*
X1873328Y7866758D01*
X1873143Y7867869D01*
X1872957Y7868980D01*
Y7893051D01*
X1872772Y7894347D01*
X1872402Y7896014D01*
X1871846Y7897866D01*
X1870921Y7899717D01*
X1869810Y7901754D01*
X1868328Y7903606D01*
X1868143Y7903791D01*
X1867402Y7904346D01*
X1866477Y7905087D01*
X1864995Y7906013D01*
X1863329Y7906939D01*
X1861292Y7907679D01*
X1859070Y7908235D01*
X1856663Y7908420D01*
X1838331D01*
X1837961D01*
X1837220D01*
X1835924Y7908235D01*
X1834443Y7907865D01*
X1832591Y7907309D01*
X1830740Y7906383D01*
X1828703Y7905272D01*
X1826851Y7903606D01*
X1826666Y7903421D01*
X1826110Y7902680D01*
X1825370Y7901754D01*
X1824444Y7900273D01*
X1823518Y7898606D01*
X1822777Y7896569D01*
X1822222Y7894347D01*
X1822037Y7891940D01*
Y7868795D01*
X1821852Y7868054D01*
X1821666Y7866943D01*
X1821296Y7865832D01*
X1820555Y7864721D01*
X1819444Y7863610D01*
X1817778Y7862869D01*
X1815741Y7862684D01*
X1760747D01*
X1760376D01*
X1759636Y7862869D01*
X1758710Y7863054D01*
X1757414Y7863425D01*
X1756303Y7864165D01*
X1755192Y7865276D01*
X1754451Y7866943D01*
X1754266Y7868980D01*
Y7915086D01*
X1754451Y7916197D01*
X1755192Y7917678D01*
X1755562Y7918419D01*
X1756303Y7919160D01*
Y7919345D01*
X1756673Y7919530D01*
X1757599Y7920271D01*
X1759080Y7921011D01*
X1759821Y7921382D01*
X1760747D01*
X1760932D01*
X1761117D01*
X1762043Y7921197D01*
X1763524Y7920641D01*
X1765006Y7919530D01*
X1765376Y7919160D01*
X1765931Y7918234D01*
X1766672Y7916753D01*
X1766857Y7915827D01*
X1767042Y7914716D01*
Y7875646D01*
X1809260D01*
Y7893051D01*
X1809445Y7893977D01*
Y7895088D01*
X1809631Y7896199D01*
X1810371Y7898977D01*
X1811297Y7902310D01*
X1812964Y7905828D01*
X1815000Y7909346D01*
X1816482Y7911012D01*
X1817963Y7912679D01*
X1818148Y7912864D01*
X1818333Y7913049D01*
X1819444Y7913975D01*
X1821296Y7915456D01*
X1823703Y7917123D01*
X1826666Y7918604D01*
X1830184Y7920086D01*
X1834258Y7921011D01*
X1836295Y7921382D01*
X1838517D01*
X1856663D01*
X1856848D01*
X1857218D01*
X1857774D01*
X1858700Y7921197D01*
D02*
G37*
G36*
X1881105Y7846389D02*
X1882586Y7845649D01*
X1883327Y7845093D01*
X1884253Y7844353D01*
X1884438Y7843982D01*
X1884993Y7843056D01*
X1885549Y7841575D01*
X1885734Y7839723D01*
Y7838798D01*
X1885549Y7837687D01*
X1885178Y7836576D01*
X1884993Y7836390D01*
X1884438Y7835835D01*
X1883697Y7835094D01*
X1882401Y7834168D01*
X1830925Y7804172D01*
Y7791580D01*
X1879438D01*
X1879623D01*
X1879994D01*
X1881105Y7791395D01*
X1882586Y7790840D01*
X1884067Y7789729D01*
X1884253Y7789358D01*
X1884808Y7788432D01*
X1885549Y7786766D01*
X1885734Y7784914D01*
Y7784729D01*
X1885549Y7783988D01*
X1885178Y7782692D01*
X1884623Y7780841D01*
X1884253Y7780470D01*
X1883327Y7779730D01*
X1881660Y7778989D01*
X1880549Y7778804D01*
X1879438Y7778619D01*
X1760747D01*
X1760376D01*
X1759636Y7778804D01*
X1758710Y7778989D01*
X1757414Y7779359D01*
X1756303Y7780100D01*
X1755192Y7781211D01*
X1754451Y7782877D01*
X1754266Y7784914D01*
Y7818059D01*
X1754451Y7818985D01*
Y7820096D01*
X1754636Y7821207D01*
X1755377Y7823984D01*
X1756303Y7827317D01*
X1757969Y7830835D01*
X1760006Y7834354D01*
X1761487Y7836020D01*
X1762969Y7837687D01*
X1763154Y7837872D01*
X1763339Y7838057D01*
X1764450Y7839168D01*
X1766302Y7840464D01*
X1768709Y7842131D01*
X1771672Y7843797D01*
X1775190Y7845278D01*
X1779263Y7846204D01*
X1781300Y7846389D01*
X1783522Y7846575D01*
X1801854D01*
X1802039D01*
X1802409D01*
X1802965D01*
X1803890Y7846389D01*
X1804816D01*
X1806112Y7846204D01*
X1808890Y7845464D01*
X1812223Y7844538D01*
X1815556Y7842871D01*
X1819074Y7840834D01*
X1820741Y7839353D01*
X1822407Y7837872D01*
Y7837687D01*
X1822777Y7837501D01*
X1823148Y7836946D01*
X1823703Y7836390D01*
X1825185Y7834539D01*
X1826666Y7832132D01*
X1828147Y7828984D01*
X1829629Y7825466D01*
X1830554Y7821392D01*
X1830740Y7819170D01*
X1830925Y7816948D01*
Y7817874D01*
X1876661Y7845834D01*
X1876846Y7846019D01*
X1877401Y7846204D01*
X1878327Y7846389D01*
X1879623Y7846575D01*
X1879809D01*
X1879994D01*
X1881105Y7846389D01*
D02*
G37*
G36*
X1723330Y4355825D02*
X1724811Y4355270D01*
X1726292Y4354159D01*
X1726663Y4353789D01*
X1727218Y4352863D01*
X1727959Y4351381D01*
X1728144Y4350456D01*
X1728329Y4349345D01*
Y4337679D01*
X1749438D01*
X1749623D01*
X1749993D01*
X1751104Y4337494D01*
X1752586Y4336938D01*
X1754067Y4335827D01*
X1754252Y4335457D01*
X1754808Y4334531D01*
X1755548Y4332865D01*
X1755734Y4331013D01*
Y4330828D01*
X1755548Y4330087D01*
X1755178Y4328791D01*
X1754623Y4326940D01*
X1754252Y4326569D01*
X1753326Y4325829D01*
X1751660Y4325088D01*
X1750549Y4324903D01*
X1749438Y4324718D01*
X1728329D01*
Y4293980D01*
X1728144Y4292684D01*
X1727588Y4291202D01*
X1726663Y4289721D01*
X1726292Y4289536D01*
X1725366Y4288980D01*
X1723885Y4288240D01*
X1722033Y4288055D01*
X1720922D01*
X1629821Y4306386D01*
X1629636D01*
X1629265Y4306571D01*
X1628154Y4306756D01*
X1626858Y4307497D01*
X1625562Y4308793D01*
X1624266Y4312311D01*
Y4313422D01*
X1624451Y4313978D01*
X1625006Y4315644D01*
X1626117Y4317311D01*
Y4317496D01*
X1626488Y4317681D01*
X1627414Y4318422D01*
X1628710Y4318977D01*
X1629636Y4319348D01*
X1630561D01*
X1631858Y4319163D01*
X1715553Y4302127D01*
Y4324718D01*
X1694629D01*
X1694444D01*
X1694258D01*
X1693333Y4324903D01*
X1691851Y4325458D01*
X1690370Y4326569D01*
X1690185D01*
X1690000Y4326940D01*
X1689259Y4327865D01*
X1688518Y4329162D01*
X1688148Y4330087D01*
Y4331384D01*
X1688333Y4332495D01*
X1688889Y4333976D01*
X1690000Y4335457D01*
Y4335642D01*
X1690370Y4335827D01*
X1691111Y4336568D01*
X1692592Y4337309D01*
X1693518Y4337679D01*
X1694629D01*
X1715553D01*
Y4349715D01*
X1715738Y4350826D01*
X1716478Y4352307D01*
X1716849Y4353233D01*
X1717589Y4353974D01*
Y4354159D01*
X1717960Y4354344D01*
X1718886Y4355085D01*
X1720367Y4355640D01*
X1721108Y4356011D01*
X1722033D01*
X1722219D01*
X1722404D01*
X1723330Y4355825D01*
D02*
G37*
G36*
X1751104Y4271760D02*
X1752586Y4271019D01*
X1753326Y4270464D01*
X1754252Y4269723D01*
X1754437Y4269353D01*
X1754993Y4268427D01*
X1755548Y4266946D01*
X1755734Y4265094D01*
Y4264168D01*
X1755548Y4263057D01*
X1755178Y4261946D01*
X1754993Y4261761D01*
X1754437Y4261206D01*
X1753697Y4260465D01*
X1752401Y4259539D01*
X1700924Y4229542D01*
Y4216951D01*
X1749438D01*
X1749623D01*
X1749993D01*
X1751104Y4216766D01*
X1752586Y4216210D01*
X1754067Y4215099D01*
X1754252Y4214729D01*
X1754808Y4213803D01*
X1755548Y4212137D01*
X1755734Y4210285D01*
Y4210100D01*
X1755548Y4209359D01*
X1755178Y4208063D01*
X1754623Y4206211D01*
X1754252Y4205841D01*
X1753326Y4205100D01*
X1751660Y4204360D01*
X1750549Y4204174D01*
X1749438Y4203989D01*
X1630747D01*
X1630376D01*
X1629636Y4204174D01*
X1628710Y4204360D01*
X1627414Y4204730D01*
X1626303Y4205471D01*
X1625192Y4206582D01*
X1624451Y4208248D01*
X1624266Y4210285D01*
Y4243430D01*
X1624451Y4244355D01*
Y4245466D01*
X1624636Y4246577D01*
X1625377Y4249355D01*
X1626303Y4252688D01*
X1627969Y4256206D01*
X1630006Y4259724D01*
X1631487Y4261391D01*
X1632969Y4263057D01*
X1633154Y4263242D01*
X1633339Y4263428D01*
X1634450Y4264539D01*
X1636302Y4265835D01*
X1638709Y4267501D01*
X1641671Y4269168D01*
X1645189Y4270649D01*
X1649263Y4271575D01*
X1651300Y4271760D01*
X1653522Y4271945D01*
X1671853D01*
X1672039D01*
X1672409D01*
X1672964D01*
X1673890Y4271760D01*
X1674816D01*
X1676112Y4271575D01*
X1678890Y4270834D01*
X1682223Y4269908D01*
X1685556Y4268242D01*
X1689074Y4266205D01*
X1690740Y4264724D01*
X1692407Y4263242D01*
Y4263057D01*
X1692777Y4262872D01*
X1693147Y4262317D01*
X1693703Y4261761D01*
X1695184Y4259909D01*
X1696666Y4257502D01*
X1698147Y4254354D01*
X1699628Y4250836D01*
X1700554Y4246763D01*
X1700739Y4244541D01*
X1700924Y4242319D01*
Y4243244D01*
X1746660Y4271205D01*
X1746846Y4271390D01*
X1747401Y4271575D01*
X1748327Y4271760D01*
X1749623Y4271945D01*
X1749808D01*
X1749993D01*
X1751104Y4271760D01*
D02*
G37*
G36*
X1898514Y7541196D02*
X1899625D01*
X1900736Y7541011D01*
X1903699Y7540270D01*
X1906847Y7539345D01*
X1910365Y7537678D01*
X1913883Y7535641D01*
X1915550Y7534160D01*
X1917216Y7532679D01*
Y7532493D01*
X1917586Y7532308D01*
X1917957Y7531753D01*
X1918512Y7531197D01*
X1919994Y7529346D01*
X1921475Y7526938D01*
X1922956Y7523791D01*
X1924438Y7520272D01*
X1925363Y7516384D01*
X1925549Y7514162D01*
X1925734Y7511940D01*
Y7488424D01*
X1925549Y7487313D01*
X1924993Y7485832D01*
X1924067Y7484350D01*
X1923882D01*
X1923697Y7484165D01*
X1922771Y7483610D01*
X1921290Y7482869D01*
X1919438Y7482684D01*
X1919253D01*
X1918327Y7482869D01*
X1917216Y7483239D01*
X1915550Y7484165D01*
X1915364D01*
X1915179Y7484535D01*
X1914253Y7485276D01*
X1913328Y7486757D01*
X1913142Y7487868D01*
X1912957Y7488979D01*
Y7513051D01*
X1912772Y7514347D01*
X1912402Y7516014D01*
X1911846Y7517865D01*
X1910920Y7519717D01*
X1909809Y7521754D01*
X1908328Y7523605D01*
X1908143Y7523791D01*
X1907402Y7524346D01*
X1906477Y7525087D01*
X1904995Y7526013D01*
X1903329Y7526938D01*
X1901292Y7527679D01*
X1899070Y7528235D01*
X1896478Y7528420D01*
X1878146D01*
X1877776D01*
X1877035D01*
X1875739Y7528235D01*
X1874258Y7527864D01*
X1872406Y7527309D01*
X1870554Y7526383D01*
X1868517Y7525272D01*
X1866666Y7523605D01*
X1866481Y7523420D01*
X1865925Y7522865D01*
X1864999Y7521754D01*
X1864073Y7520458D01*
X1863333Y7518791D01*
X1862407Y7516754D01*
X1861851Y7514532D01*
X1861666Y7511940D01*
Y7506755D01*
X1861481Y7505644D01*
X1860926Y7504163D01*
X1860000Y7502682D01*
X1859815D01*
X1859630Y7502497D01*
X1858704Y7501941D01*
X1857222Y7501200D01*
X1855371Y7501015D01*
X1855186D01*
X1854260Y7501200D01*
X1853149Y7501571D01*
X1851482Y7502497D01*
X1851297D01*
X1851112Y7502867D01*
X1850186Y7503608D01*
X1849260Y7505089D01*
X1849075Y7506200D01*
X1848890Y7507311D01*
Y7508422D01*
X1848705Y7509718D01*
X1848334Y7511385D01*
X1847779Y7513236D01*
X1846853Y7515088D01*
X1845742Y7517125D01*
X1844261Y7518976D01*
X1844076Y7519161D01*
X1843335Y7519717D01*
X1842409Y7520458D01*
X1840928Y7521383D01*
X1839261Y7522309D01*
X1837224Y7523050D01*
X1835002Y7523605D01*
X1832595Y7523791D01*
X1823522D01*
X1823152D01*
X1822411D01*
X1821115Y7523605D01*
X1819448Y7523235D01*
X1817597Y7522680D01*
X1815745Y7521754D01*
X1813708Y7520643D01*
X1811857Y7518976D01*
X1811672Y7518791D01*
X1811116Y7518236D01*
X1810375Y7517125D01*
X1809450Y7515829D01*
X1808524Y7514162D01*
X1807783Y7512125D01*
X1807228Y7509903D01*
X1807042Y7507311D01*
Y7488609D01*
X1806857Y7487313D01*
X1806302Y7485832D01*
X1805376Y7484350D01*
X1805191D01*
X1805006Y7484165D01*
X1804080Y7483610D01*
X1802598Y7482869D01*
X1800747Y7482684D01*
X1800562D01*
X1799636Y7482869D01*
X1798525Y7483239D01*
X1796858Y7484165D01*
X1796673D01*
X1796488Y7484535D01*
X1795562Y7485276D01*
X1794636Y7486757D01*
X1794451Y7487868D01*
X1794266Y7488979D01*
Y7508607D01*
X1794451Y7509348D01*
Y7510459D01*
X1794636Y7511755D01*
X1795377Y7514532D01*
X1796303Y7517865D01*
X1797784Y7521383D01*
X1800006Y7524902D01*
X1801302Y7526568D01*
X1802784Y7528235D01*
X1802969Y7528420D01*
X1803154Y7528605D01*
X1803709Y7528975D01*
X1804265Y7529531D01*
X1806117Y7531012D01*
X1808524Y7532493D01*
X1811672Y7533975D01*
X1815190Y7535456D01*
X1819078Y7536382D01*
X1821300Y7536752D01*
X1823522D01*
X1832595D01*
X1835558D01*
X1837595D01*
X1839632Y7536012D01*
X1839817D01*
X1840002D01*
X1840557Y7535826D01*
X1841298Y7535641D01*
X1843150Y7535086D01*
X1845187Y7533975D01*
X1845372Y7533790D01*
X1846112Y7533419D01*
X1847038Y7532864D01*
X1848149Y7532123D01*
X1849445Y7531012D01*
X1850927Y7529901D01*
X1852223Y7528420D01*
X1853519Y7526753D01*
X1853704Y7526938D01*
X1853889Y7527679D01*
X1854630Y7528790D01*
X1855371Y7530086D01*
X1856667Y7531568D01*
X1858333Y7533234D01*
X1860370Y7535086D01*
X1862962Y7536752D01*
X1863333Y7536937D01*
X1864259Y7537493D01*
X1865740Y7538234D01*
X1867592Y7539159D01*
X1869814Y7539900D01*
X1872406Y7540641D01*
X1875369Y7541196D01*
X1878331Y7541381D01*
X1896478D01*
X1896663D01*
X1897033D01*
X1897589D01*
X1898514Y7541196D01*
D02*
G37*
G36*
X1921105Y7466389D02*
X1922586Y7465649D01*
X1923327Y7465093D01*
X1924252Y7464352D01*
X1924438Y7463982D01*
X1924993Y7463056D01*
X1925549Y7461575D01*
X1925734Y7459723D01*
Y7458797D01*
X1925549Y7457686D01*
X1925178Y7456575D01*
X1924993Y7456390D01*
X1924438Y7455835D01*
X1923697Y7455094D01*
X1922401Y7454168D01*
X1870925Y7424171D01*
Y7411580D01*
X1919438D01*
X1919623D01*
X1919994D01*
X1921105Y7411395D01*
X1922586Y7410839D01*
X1924067Y7409728D01*
X1924252Y7409358D01*
X1924808Y7408432D01*
X1925549Y7406766D01*
X1925734Y7404914D01*
Y7404729D01*
X1925549Y7403988D01*
X1925178Y7402692D01*
X1924623Y7400840D01*
X1924252Y7400470D01*
X1923327Y7399729D01*
X1921660Y7398989D01*
X1920549Y7398804D01*
X1919438Y7398618D01*
X1800747D01*
X1800376D01*
X1799636Y7398804D01*
X1798710Y7398989D01*
X1797414Y7399359D01*
X1796303Y7400100D01*
X1795192Y7401211D01*
X1794451Y7402877D01*
X1794266Y7404914D01*
Y7438059D01*
X1794451Y7438985D01*
Y7440096D01*
X1794636Y7441207D01*
X1795377Y7443984D01*
X1796303Y7447317D01*
X1797969Y7450835D01*
X1800006Y7454353D01*
X1801487Y7456020D01*
X1802969Y7457686D01*
X1803154Y7457872D01*
X1803339Y7458057D01*
X1804450Y7459168D01*
X1806302Y7460464D01*
X1808709Y7462130D01*
X1811672Y7463797D01*
X1815190Y7465278D01*
X1819263Y7466204D01*
X1821300Y7466389D01*
X1823522Y7466574D01*
X1841854D01*
X1842039D01*
X1842409D01*
X1842965D01*
X1843890Y7466389D01*
X1844816D01*
X1846112Y7466204D01*
X1848890Y7465463D01*
X1852223Y7464538D01*
X1855556Y7462871D01*
X1859074Y7460834D01*
X1860740Y7459353D01*
X1862407Y7457872D01*
Y7457686D01*
X1862777Y7457501D01*
X1863148Y7456946D01*
X1863703Y7456390D01*
X1865184Y7454539D01*
X1866666Y7452131D01*
X1868147Y7448984D01*
X1869628Y7445465D01*
X1870554Y7441392D01*
X1870739Y7439170D01*
X1870925Y7436948D01*
Y7437874D01*
X1916661Y7465834D01*
X1916846Y7466019D01*
X1917401Y7466204D01*
X1918327Y7466389D01*
X1919623Y7466574D01*
X1919808D01*
X1919994D01*
X1921105Y7466389D01*
D02*
G37*
G36*
X1610558Y3896103D02*
X1611855Y3895918D01*
X1613521Y3895733D01*
X1616854Y3894807D01*
X1617039D01*
X1617595Y3894437D01*
X1618706Y3894067D01*
X1619817Y3893696D01*
X1621483Y3892956D01*
X1623150Y3892030D01*
X1625186Y3890919D01*
X1627223Y3889623D01*
X1692957Y3844812D01*
Y3889067D01*
X1693142Y3890178D01*
X1693883Y3891659D01*
X1694253Y3892585D01*
X1694994Y3893326D01*
Y3893511D01*
X1695364Y3893696D01*
X1696290Y3894437D01*
X1697772Y3894992D01*
X1698512Y3895363D01*
X1699438D01*
X1699623D01*
X1699808D01*
X1700734Y3895178D01*
X1702216Y3894622D01*
X1703697Y3893696D01*
X1704067Y3893326D01*
X1704623Y3892400D01*
X1705363Y3890919D01*
X1705549Y3889808D01*
X1705734Y3888697D01*
Y3833703D01*
X1705549Y3832777D01*
X1704808Y3831295D01*
X1704438Y3830555D01*
X1703697Y3829629D01*
X1703512D01*
X1703327Y3829259D01*
X1702401Y3828703D01*
X1700919Y3828148D01*
X1699068Y3827777D01*
X1698697D01*
X1697957Y3827962D01*
X1697031Y3828148D01*
X1696105Y3828703D01*
X1620187Y3878698D01*
X1616669Y3880550D01*
X1613706Y3881846D01*
X1613521D01*
X1613151Y3882031D01*
X1612595Y3882216D01*
X1611855Y3882401D01*
X1609818Y3882772D01*
X1607596Y3882957D01*
X1607411D01*
X1607225D01*
X1606114Y3882772D01*
X1604633Y3882586D01*
X1602596Y3882031D01*
X1600374Y3881290D01*
X1597967Y3879994D01*
X1595560Y3878328D01*
X1593338Y3876106D01*
X1593153Y3875920D01*
X1592782Y3875550D01*
X1592412Y3874809D01*
X1591671Y3874069D01*
X1591116Y3872958D01*
X1590375Y3871662D01*
X1588894Y3868699D01*
Y3868514D01*
X1588709Y3867958D01*
X1588338Y3867218D01*
X1587968Y3866107D01*
X1587783Y3864996D01*
X1587413Y3863514D01*
X1587227Y3860552D01*
Y3859626D01*
X1587413Y3858515D01*
X1587598Y3857033D01*
X1587968Y3855367D01*
X1588709Y3853515D01*
X1589449Y3851664D01*
X1590560Y3849812D01*
X1590746Y3849627D01*
X1591116Y3849071D01*
X1592042Y3848145D01*
X1593153Y3847034D01*
X1594634Y3845738D01*
X1596486Y3844442D01*
X1598708Y3843146D01*
X1601485Y3841850D01*
X1601856Y3841665D01*
X1602596Y3841294D01*
X1603707Y3840554D01*
X1604633Y3839443D01*
X1604818Y3839257D01*
X1605003Y3838517D01*
X1605374Y3837591D01*
X1605744Y3836295D01*
Y3835739D01*
X1605559Y3835184D01*
Y3834628D01*
X1605003Y3832962D01*
X1604078Y3831295D01*
X1603707Y3830925D01*
X1602781Y3830370D01*
X1601115Y3829629D01*
X1600189Y3829444D01*
X1599078Y3829259D01*
X1597412Y3829629D01*
X1597226D01*
X1596856Y3829814D01*
X1596301Y3829999D01*
X1595375Y3830370D01*
X1593338Y3831295D01*
X1590746Y3832777D01*
X1587783Y3834443D01*
X1584820Y3836665D01*
X1582043Y3839257D01*
X1579636Y3842220D01*
X1579450Y3842590D01*
X1578710Y3843516D01*
X1577969Y3845183D01*
X1576858Y3847405D01*
X1575932Y3849997D01*
X1575007Y3852960D01*
X1574451Y3856293D01*
X1574266Y3859996D01*
Y3861292D01*
X1574451Y3862403D01*
X1574636Y3863514D01*
X1575007Y3864996D01*
X1575932Y3868329D01*
X1576488Y3870365D01*
X1577414Y3872217D01*
X1578339Y3874439D01*
X1579636Y3876476D01*
X1581117Y3878698D01*
X1582783Y3880920D01*
X1584820Y3883142D01*
X1587042Y3885364D01*
Y3885549D01*
X1587413Y3885919D01*
X1587783Y3886290D01*
X1588338Y3887030D01*
X1589820Y3888882D01*
X1592042Y3890919D01*
X1595004Y3892770D01*
X1598523Y3894622D01*
X1600559Y3895363D01*
X1602781Y3895733D01*
X1605003Y3896103D01*
X1607596Y3896289D01*
X1607781D01*
X1608336D01*
X1609262D01*
X1610558Y3896103D01*
D02*
G37*
G36*
X1701105Y3811483D02*
X1702586Y3810742D01*
X1703327Y3810186D01*
X1704252Y3809446D01*
X1704438Y3809075D01*
X1704993Y3808150D01*
X1705549Y3806668D01*
X1705734Y3804817D01*
Y3803891D01*
X1705549Y3802780D01*
X1705178Y3801669D01*
X1704993Y3801484D01*
X1704438Y3800928D01*
X1703697Y3800187D01*
X1702401Y3799262D01*
X1650925Y3769265D01*
Y3756673D01*
X1699438D01*
X1699623D01*
X1699994D01*
X1701105Y3756488D01*
X1702586Y3755933D01*
X1704067Y3754822D01*
X1704252Y3754451D01*
X1704808Y3753526D01*
X1705549Y3751859D01*
X1705734Y3750007D01*
Y3749822D01*
X1705549Y3749082D01*
X1705178Y3747785D01*
X1704623Y3745934D01*
X1704252Y3745564D01*
X1703327Y3744823D01*
X1701660Y3744082D01*
X1700549Y3743897D01*
X1699438Y3743712D01*
X1580747D01*
X1580376D01*
X1579636Y3743897D01*
X1578710Y3744082D01*
X1577414Y3744453D01*
X1576303Y3745193D01*
X1575192Y3746304D01*
X1574451Y3747971D01*
X1574266Y3750007D01*
Y3783152D01*
X1574451Y3784078D01*
Y3785189D01*
X1574636Y3786300D01*
X1575377Y3789078D01*
X1576303Y3792410D01*
X1577969Y3795929D01*
X1580006Y3799447D01*
X1581487Y3801113D01*
X1582969Y3802780D01*
X1583154Y3802965D01*
X1583339Y3803150D01*
X1584450Y3804261D01*
X1586302Y3805557D01*
X1588709Y3807224D01*
X1591671Y3808890D01*
X1595190Y3810372D01*
X1599263Y3811297D01*
X1601300Y3811483D01*
X1603522Y3811668D01*
X1621853D01*
X1622039D01*
X1622409D01*
X1622964D01*
X1623890Y3811483D01*
X1624816D01*
X1626112Y3811297D01*
X1628890Y3810557D01*
X1632223Y3809631D01*
X1635556Y3807964D01*
X1639074Y3805928D01*
X1640740Y3804446D01*
X1642407Y3802965D01*
Y3802780D01*
X1642777Y3802595D01*
X1643148Y3802039D01*
X1643703Y3801484D01*
X1645184Y3799632D01*
X1646666Y3797225D01*
X1648147Y3794077D01*
X1649628Y3790559D01*
X1650554Y3786485D01*
X1650739Y3784263D01*
X1650925Y3782041D01*
Y3782967D01*
X1696661Y3810927D01*
X1696846Y3811112D01*
X1697401Y3811297D01*
X1698327Y3811483D01*
X1699623Y3811668D01*
X1699808D01*
X1699994D01*
X1701105Y3811483D01*
D02*
G37*
G36*
X1771105Y8322123D02*
X1772586Y8321568D01*
X1774067Y8320457D01*
X1774252Y8320086D01*
X1774808Y8319161D01*
X1775549Y8317494D01*
X1775734Y8315642D01*
Y8315457D01*
X1775549Y8314717D01*
X1775178Y8313421D01*
X1774623Y8311569D01*
X1774252Y8311199D01*
X1773327Y8310458D01*
X1771660Y8309717D01*
X1770549Y8309532D01*
X1769438Y8309347D01*
X1663523D01*
X1682595Y8292867D01*
X1682966Y8292497D01*
X1683521Y8291571D01*
X1684077Y8290275D01*
X1684447Y8288423D01*
Y8288053D01*
X1684262Y8286757D01*
X1683706Y8285275D01*
X1682595Y8283794D01*
X1682225Y8283424D01*
X1681299Y8282868D01*
X1679818Y8282313D01*
X1677966Y8281942D01*
X1677781D01*
X1677040Y8282127D01*
X1675744Y8282683D01*
X1674818Y8283053D01*
X1673707Y8283609D01*
X1646118Y8311013D01*
X1645747Y8311384D01*
X1645192Y8312310D01*
X1644636Y8313606D01*
X1644266Y8315457D01*
Y8316013D01*
X1644451Y8317124D01*
X1645007Y8318605D01*
X1646118Y8320272D01*
Y8320457D01*
X1646488Y8320642D01*
X1647229Y8321383D01*
X1648710Y8321938D01*
X1649636Y8322308D01*
X1650562D01*
X1769438D01*
X1769623D01*
X1769994D01*
X1771105Y8322123D01*
D02*
G37*
G36*
Y8265463D02*
X1772586Y8264722D01*
X1773327Y8264166D01*
X1774252Y8263426D01*
X1774438Y8263055D01*
X1774993Y8262130D01*
X1775549Y8260648D01*
X1775734Y8258797D01*
Y8257871D01*
X1775549Y8256760D01*
X1775178Y8255649D01*
X1774993Y8255464D01*
X1774438Y8254908D01*
X1773697Y8254167D01*
X1772401Y8253242D01*
X1720925Y8223245D01*
Y8210653D01*
X1769438D01*
X1769623D01*
X1769994D01*
X1771105Y8210468D01*
X1772586Y8209913D01*
X1774067Y8208802D01*
X1774252Y8208431D01*
X1774808Y8207506D01*
X1775549Y8205839D01*
X1775734Y8203987D01*
Y8203802D01*
X1775549Y8203062D01*
X1775178Y8201765D01*
X1774623Y8199914D01*
X1774252Y8199543D01*
X1773327Y8198803D01*
X1771660Y8198062D01*
X1770549Y8197877D01*
X1769438Y8197692D01*
X1650747D01*
X1650376D01*
X1649636Y8197877D01*
X1648710Y8198062D01*
X1647414Y8198432D01*
X1646303Y8199173D01*
X1645192Y8200284D01*
X1644451Y8201951D01*
X1644266Y8203987D01*
Y8237132D01*
X1644451Y8238058D01*
Y8239169D01*
X1644636Y8240280D01*
X1645377Y8243057D01*
X1646303Y8246390D01*
X1647969Y8249909D01*
X1650006Y8253427D01*
X1651487Y8255093D01*
X1652969Y8256760D01*
X1653154Y8256945D01*
X1653339Y8257130D01*
X1654450Y8258241D01*
X1656302Y8259537D01*
X1658709Y8261204D01*
X1661672Y8262870D01*
X1665190Y8264352D01*
X1669263Y8265277D01*
X1671300Y8265463D01*
X1673522Y8265648D01*
X1691854D01*
X1692039D01*
X1692409D01*
X1692965D01*
X1693890Y8265463D01*
X1694816D01*
X1696112Y8265277D01*
X1698890Y8264537D01*
X1702223Y8263611D01*
X1705556Y8261944D01*
X1709074Y8259908D01*
X1710741Y8258426D01*
X1712407Y8256945D01*
Y8256760D01*
X1712777Y8256575D01*
X1713148Y8256019D01*
X1713703Y8255464D01*
X1715185Y8253612D01*
X1716666Y8251205D01*
X1718147Y8248057D01*
X1719629Y8244539D01*
X1720554Y8240465D01*
X1720740Y8238243D01*
X1720925Y8236021D01*
Y8236947D01*
X1766661Y8264907D01*
X1766846Y8265092D01*
X1767401Y8265277D01*
X1768327Y8265463D01*
X1769623Y8265648D01*
X1769808D01*
X1769994D01*
X1771105Y8265463D01*
D02*
G37*
G36*
X1093329Y2221104D02*
X1094811Y2220548D01*
X1096292Y2219437D01*
X1096662Y2219067D01*
X1097218Y2218141D01*
X1097958Y2216660D01*
X1098144Y2215734D01*
X1098329Y2214623D01*
Y2202957D01*
X1119438D01*
X1119623D01*
X1119993D01*
X1121104Y2202772D01*
X1122586Y2202217D01*
X1124067Y2201106D01*
X1124252Y2200736D01*
X1124808Y2199810D01*
X1125548Y2198143D01*
X1125733Y2196292D01*
Y2196106D01*
X1125548Y2195366D01*
X1125178Y2194070D01*
X1124622Y2192218D01*
X1124252Y2191848D01*
X1123326Y2191107D01*
X1121660Y2190366D01*
X1120549Y2190181D01*
X1119438Y2189996D01*
X1098329D01*
Y2159258D01*
X1098144Y2157962D01*
X1097588Y2156481D01*
X1096662Y2154999D01*
X1096292Y2154814D01*
X1095366Y2154259D01*
X1093885Y2153518D01*
X1092033Y2153333D01*
X1090922D01*
X999820Y2171664D01*
X999635D01*
X999265Y2171850D01*
X998154Y2172035D01*
X996858Y2172775D01*
X995562Y2174072D01*
X994265Y2177590D01*
Y2178701D01*
X994451Y2179256D01*
X995006Y2180923D01*
X996117Y2182589D01*
Y2182774D01*
X996487Y2182960D01*
X997413Y2183700D01*
X998709Y2184256D01*
X999635Y2184626D01*
X1000561D01*
X1001857Y2184441D01*
X1085552Y2167406D01*
Y2189996D01*
X1064629D01*
X1064443D01*
X1064258D01*
X1063332Y2190181D01*
X1061851Y2190737D01*
X1060370Y2191848D01*
X1060185D01*
X1059999Y2192218D01*
X1059259Y2193144D01*
X1058518Y2194440D01*
X1058148Y2195366D01*
Y2196662D01*
X1058333Y2197773D01*
X1058888Y2199254D01*
X1059999Y2200736D01*
Y2200921D01*
X1060370Y2201106D01*
X1061110Y2201846D01*
X1062592Y2202587D01*
X1063518Y2202957D01*
X1064629D01*
X1085552D01*
Y2214993D01*
X1085737Y2216104D01*
X1086478Y2217586D01*
X1086848Y2218511D01*
X1087589Y2219252D01*
Y2219437D01*
X1087959Y2219622D01*
X1088885Y2220363D01*
X1090367Y2220919D01*
X1091107Y2221289D01*
X1092033D01*
X1092218D01*
X1092403D01*
X1093329Y2221104D01*
D02*
G37*
G36*
X1120734Y2137224D02*
X1122215Y2136668D01*
X1123697Y2135557D01*
X1124067Y2135187D01*
X1124622Y2134261D01*
X1125363Y2132780D01*
X1125548Y2131854D01*
X1125733Y2130743D01*
Y2106856D01*
X1125548Y2106116D01*
Y2105005D01*
X1125363Y2103894D01*
X1124622Y2101116D01*
X1123697Y2097968D01*
X1122215Y2094450D01*
X1120178Y2091117D01*
X1118882Y2089266D01*
X1117401Y2087599D01*
X1117216Y2087414D01*
X1117031Y2087229D01*
X1116475Y2086858D01*
X1115920Y2086303D01*
X1114068Y2084822D01*
X1111661Y2083155D01*
X1108513Y2081489D01*
X1104995Y2080192D01*
X1101106Y2079081D01*
X1098884Y2078896D01*
X1096662Y2078711D01*
X1023522D01*
X1023337D01*
X1022966D01*
X1022411D01*
X1021485Y2078896D01*
X1020559D01*
X1019448Y2079081D01*
X1016671Y2079822D01*
X1013338Y2080748D01*
X1010005Y2082229D01*
X1006486Y2084266D01*
X1004820Y2085562D01*
X1003153Y2087044D01*
X1002968Y2087229D01*
X1002783Y2087414D01*
X1002413Y2087969D01*
X1001672Y2088525D01*
X1000376Y2090377D01*
X998709Y2092784D01*
X997043Y2095932D01*
X995562Y2099450D01*
X994636Y2103523D01*
X994451Y2105745D01*
X994265Y2107967D01*
Y2131113D01*
X994451Y2132224D01*
X995191Y2133705D01*
X995562Y2134631D01*
X996302Y2135372D01*
Y2135557D01*
X996673Y2135742D01*
X997598Y2136483D01*
X999080Y2137038D01*
X999820Y2137409D01*
X1000746D01*
X1000931D01*
X1001117D01*
X1002042Y2137224D01*
X1003524Y2136668D01*
X1005005Y2135557D01*
X1005375Y2135187D01*
X1005931Y2134261D01*
X1006672Y2132780D01*
X1006857Y2131854D01*
X1007042Y2130743D01*
Y2106856D01*
X1007227Y2105560D01*
X1007597Y2104079D01*
X1008153Y2102227D01*
X1009079Y2100376D01*
X1010190Y2098339D01*
X1011856Y2096487D01*
X1012041Y2096302D01*
X1012597Y2095746D01*
X1013708Y2095006D01*
X1015004Y2094080D01*
X1016671Y2093154D01*
X1018707Y2092413D01*
X1020929Y2091858D01*
X1023522Y2091673D01*
X1096662D01*
X1097033D01*
X1097773D01*
X1099069Y2091858D01*
X1100736Y2092228D01*
X1102588Y2092784D01*
X1104439Y2093710D01*
X1106476Y2094821D01*
X1108328Y2096487D01*
X1108513Y2096672D01*
X1109068Y2097413D01*
X1109809Y2098339D01*
X1110550Y2099820D01*
X1111476Y2101487D01*
X1112216Y2103338D01*
X1112772Y2105560D01*
X1112957Y2107967D01*
Y2131113D01*
X1113142Y2132224D01*
X1113883Y2133705D01*
X1114253Y2134631D01*
X1114994Y2135372D01*
Y2135557D01*
X1115364Y2135742D01*
X1116290Y2136483D01*
X1117771Y2137038D01*
X1118512Y2137409D01*
X1119438D01*
X1119623D01*
X1119808D01*
X1120734Y2137224D01*
D02*
G37*
G36*
X6394626Y10425549D02*
X6395737D01*
X6397033Y10425364D01*
X6399811Y10424623D01*
X6403144Y10423697D01*
X6406662Y10422216D01*
X6410180Y10419994D01*
X6411846Y10418698D01*
X6413513Y10417216D01*
X6413698Y10417031D01*
X6413883Y10416846D01*
X6414254Y10416291D01*
X6414809Y10415735D01*
X6416290Y10413883D01*
X6417772Y10411476D01*
X6419253Y10408328D01*
X6420734Y10404810D01*
X6421660Y10400922D01*
X6422031Y10398700D01*
Y10396478D01*
Y10387405D01*
Y10384442D01*
Y10382405D01*
X6421290Y10380368D01*
Y10380183D01*
Y10379998D01*
X6421105Y10379443D01*
X6420920Y10378702D01*
X6420364Y10376850D01*
X6419253Y10374813D01*
X6419068Y10374628D01*
X6418698Y10373888D01*
X6418142Y10372962D01*
X6417401Y10371851D01*
X6416290Y10370555D01*
X6415179Y10369073D01*
X6413698Y10367777D01*
X6412032Y10366481D01*
X6412217Y10366296D01*
X6412957Y10366111D01*
X6414068Y10365370D01*
X6415365Y10364629D01*
X6416846Y10363333D01*
X6418512Y10361667D01*
X6420364Y10359630D01*
X6422031Y10357037D01*
X6422216Y10356667D01*
X6422771Y10355741D01*
X6423512Y10354260D01*
X6424438Y10352408D01*
X6425178Y10350186D01*
X6425919Y10347594D01*
X6426475Y10344631D01*
X6426660Y10341669D01*
Y10323522D01*
Y10323337D01*
Y10322967D01*
Y10322411D01*
X6426475Y10321486D01*
Y10320375D01*
X6426289Y10319264D01*
X6425549Y10316301D01*
X6424623Y10313153D01*
X6422956Y10309635D01*
X6420920Y10306117D01*
X6419438Y10304450D01*
X6417957Y10302784D01*
X6417772D01*
X6417587Y10302413D01*
X6417031Y10302043D01*
X6416476Y10301488D01*
X6414624Y10300006D01*
X6412217Y10298525D01*
X6409069Y10297044D01*
X6405551Y10295562D01*
X6401662Y10294637D01*
X6399440Y10294451D01*
X6397218Y10294266D01*
X6373702D01*
X6372591Y10294451D01*
X6371110Y10295007D01*
X6369629Y10295933D01*
Y10296118D01*
X6369443Y10296303D01*
X6368888Y10297229D01*
X6368147Y10298710D01*
X6367962Y10300562D01*
Y10300747D01*
X6368147Y10301673D01*
X6368518Y10302784D01*
X6369443Y10304450D01*
Y10304635D01*
X6369814Y10304821D01*
X6370554Y10305746D01*
X6372036Y10306672D01*
X6373147Y10306857D01*
X6374258Y10307043D01*
X6398329D01*
X6399626Y10307228D01*
X6401292Y10307598D01*
X6403144Y10308154D01*
X6404995Y10309079D01*
X6407032Y10310190D01*
X6408884Y10311672D01*
X6409069Y10311857D01*
X6409624Y10312598D01*
X6410365Y10313523D01*
X6411291Y10315005D01*
X6412217Y10316671D01*
X6412957Y10318708D01*
X6413513Y10320930D01*
X6413698Y10323522D01*
Y10341854D01*
Y10342224D01*
Y10342965D01*
X6413513Y10344261D01*
X6413143Y10345742D01*
X6412587Y10347594D01*
X6411661Y10349446D01*
X6410550Y10351482D01*
X6408884Y10353334D01*
X6408699Y10353519D01*
X6408143Y10354075D01*
X6407032Y10355001D01*
X6405736Y10355926D01*
X6404069Y10356667D01*
X6402033Y10357593D01*
X6399811Y10358148D01*
X6397218Y10358334D01*
X6392034D01*
X6390923Y10358519D01*
X6389441Y10359074D01*
X6387960Y10360000D01*
Y10360185D01*
X6387775Y10360370D01*
X6387219Y10361296D01*
X6386479Y10362778D01*
X6386294Y10364629D01*
Y10364814D01*
X6386479Y10365740D01*
X6386849Y10366851D01*
X6387775Y10368518D01*
Y10368703D01*
X6388145Y10368888D01*
X6388886Y10369814D01*
X6390367Y10370740D01*
X6391478Y10370925D01*
X6392589Y10371110D01*
X6393700D01*
X6394996Y10371295D01*
X6396663Y10371666D01*
X6398515Y10372221D01*
X6400366Y10373147D01*
X6402403Y10374258D01*
X6404255Y10375739D01*
X6404440Y10375924D01*
X6404995Y10376665D01*
X6405736Y10377591D01*
X6406662Y10379072D01*
X6407588Y10380739D01*
X6408328Y10382776D01*
X6408884Y10384998D01*
X6409069Y10387405D01*
Y10396478D01*
Y10396848D01*
Y10397589D01*
X6408884Y10398885D01*
X6408513Y10400551D01*
X6407958Y10402403D01*
X6407032Y10404255D01*
X6405921Y10406292D01*
X6404255Y10408143D01*
X6404069Y10408328D01*
X6403514Y10408884D01*
X6402403Y10409625D01*
X6401107Y10410550D01*
X6399440Y10411476D01*
X6397404Y10412217D01*
X6395182Y10412772D01*
X6392589Y10412958D01*
X6373887D01*
X6372591Y10413143D01*
X6371110Y10413698D01*
X6369629Y10414624D01*
Y10414809D01*
X6369443Y10414994D01*
X6368888Y10415920D01*
X6368147Y10417402D01*
X6367962Y10419253D01*
Y10419438D01*
X6368147Y10420364D01*
X6368518Y10421475D01*
X6369443Y10423142D01*
Y10423327D01*
X6369814Y10423512D01*
X6370554Y10424438D01*
X6372036Y10425364D01*
X6373147Y10425549D01*
X6374258Y10425734D01*
X6393885D01*
X6394626Y10425549D01*
D02*
G37*
G36*
X6346853D02*
X6348335Y10424808D01*
X6349260Y10424438D01*
X6350001Y10423697D01*
X6350186D01*
X6350371Y10423327D01*
X6351112Y10422401D01*
X6351668Y10420920D01*
X6352038Y10420179D01*
Y10419253D01*
Y10419068D01*
Y10418883D01*
X6351853Y10417957D01*
X6351297Y10416476D01*
X6350186Y10414994D01*
X6349816Y10414624D01*
X6348890Y10414069D01*
X6347409Y10413328D01*
X6346483Y10413143D01*
X6345372Y10412958D01*
X6321485D01*
X6320189Y10412772D01*
X6318708Y10412402D01*
X6316856Y10411847D01*
X6315005Y10410921D01*
X6312968Y10409810D01*
X6311116Y10408143D01*
X6310931Y10407958D01*
X6310375Y10407403D01*
X6309635Y10406292D01*
X6308709Y10404995D01*
X6307783Y10403329D01*
X6307043Y10401292D01*
X6306487Y10399070D01*
X6306302Y10396478D01*
Y10323337D01*
Y10322967D01*
Y10322226D01*
X6306487Y10320930D01*
X6306857Y10319264D01*
X6307413Y10317412D01*
X6308339Y10315560D01*
X6309450Y10313523D01*
X6311116Y10311672D01*
X6311301Y10311487D01*
X6312042Y10310931D01*
X6312968Y10310190D01*
X6314449Y10309450D01*
X6316116Y10308524D01*
X6317967Y10307783D01*
X6320189Y10307228D01*
X6322596Y10307043D01*
X6345742D01*
X6346853Y10306857D01*
X6348335Y10306117D01*
X6349260Y10305746D01*
X6350001Y10305006D01*
X6350186D01*
X6350371Y10304635D01*
X6351112Y10303710D01*
X6351668Y10302228D01*
X6352038Y10301488D01*
Y10300562D01*
Y10300377D01*
Y10300191D01*
X6351853Y10299266D01*
X6351297Y10297784D01*
X6350186Y10296303D01*
X6349816Y10295933D01*
X6348890Y10295377D01*
X6347409Y10294637D01*
X6346483Y10294451D01*
X6345372Y10294266D01*
X6321485D01*
X6320745Y10294451D01*
X6319634D01*
X6318523Y10294637D01*
X6315745Y10295377D01*
X6312597Y10296303D01*
X6309079Y10297784D01*
X6305746Y10299821D01*
X6303895Y10301117D01*
X6302228Y10302599D01*
X6302043Y10302784D01*
X6301858Y10302969D01*
X6301488Y10303524D01*
X6300932Y10304080D01*
X6299451Y10305932D01*
X6297784Y10308339D01*
X6296118Y10311487D01*
X6294822Y10315005D01*
X6293711Y10318893D01*
X6293525Y10321115D01*
X6293340Y10323337D01*
Y10396478D01*
Y10396663D01*
Y10397033D01*
Y10397589D01*
X6293525Y10398515D01*
Y10399440D01*
X6293711Y10400551D01*
X6294451Y10403329D01*
X6295377Y10406662D01*
X6296858Y10409995D01*
X6298895Y10413513D01*
X6300191Y10415180D01*
X6301673Y10416846D01*
X6301858Y10417031D01*
X6302043Y10417216D01*
X6302599Y10417587D01*
X6303154Y10418327D01*
X6305006Y10419624D01*
X6307413Y10421290D01*
X6310561Y10422957D01*
X6314079Y10424438D01*
X6318152Y10425364D01*
X6320374Y10425549D01*
X6322596Y10425734D01*
X6345742D01*
X6346853Y10425549D01*
D02*
G37*
G36*
X6147681Y4765549D02*
X6148792Y4765364D01*
X6150274Y4764993D01*
X6153607Y4764067D01*
X6155644Y4763512D01*
X6157495Y4762586D01*
X6159717Y4761660D01*
X6161754Y4760364D01*
X6163976Y4758883D01*
X6166198Y4757216D01*
X6168420Y4755179D01*
X6170642Y4752957D01*
X6170827D01*
X6171197Y4752587D01*
X6171568Y4752217D01*
X6172308Y4751661D01*
X6174160Y4750180D01*
X6176197Y4747958D01*
X6178049Y4744995D01*
X6179900Y4741477D01*
X6180641Y4739440D01*
X6181011Y4737218D01*
X6181382Y4734996D01*
X6181567Y4732404D01*
Y4732219D01*
Y4731663D01*
Y4730738D01*
X6181382Y4729441D01*
X6181196Y4728145D01*
X6181011Y4726479D01*
X6180085Y4723146D01*
Y4722961D01*
X6179715Y4722405D01*
X6179345Y4721294D01*
X6178974Y4720183D01*
X6178234Y4718517D01*
X6177308Y4716850D01*
X6176197Y4714813D01*
X6174901Y4712776D01*
X6130091Y4647043D01*
X6174345D01*
X6175456Y4646857D01*
X6176938Y4646117D01*
X6177863Y4645746D01*
X6178604Y4645006D01*
X6178789D01*
X6178974Y4644635D01*
X6179715Y4643710D01*
X6180271Y4642228D01*
X6180641Y4641488D01*
Y4640562D01*
Y4640377D01*
Y4640191D01*
X6180456Y4639266D01*
X6179900Y4637784D01*
X6178974Y4636303D01*
X6178604Y4635933D01*
X6177678Y4635377D01*
X6176197Y4634636D01*
X6175086Y4634451D01*
X6173975Y4634266D01*
X6118981D01*
X6118055Y4634451D01*
X6116573Y4635192D01*
X6115833Y4635562D01*
X6114907Y4636303D01*
Y4636488D01*
X6114537Y4636673D01*
X6113981Y4637599D01*
X6113426Y4639080D01*
X6113055Y4640932D01*
Y4641302D01*
X6113241Y4642043D01*
X6113426Y4642969D01*
X6113981Y4643895D01*
X6163976Y4719813D01*
X6165828Y4723331D01*
X6167124Y4726294D01*
Y4726479D01*
X6167309Y4726849D01*
X6167494Y4727405D01*
X6167679Y4728145D01*
X6168050Y4730182D01*
X6168235Y4732404D01*
Y4732589D01*
Y4732774D01*
X6168050Y4733885D01*
X6167864Y4735367D01*
X6167309Y4737404D01*
X6166568Y4739626D01*
X6165272Y4742033D01*
X6163606Y4744440D01*
X6161384Y4746662D01*
X6161198Y4746847D01*
X6160828Y4747217D01*
X6160088Y4747588D01*
X6159347Y4748328D01*
X6158236Y4748884D01*
X6156940Y4749624D01*
X6153977Y4751106D01*
X6153792D01*
X6153236Y4751291D01*
X6152496Y4751661D01*
X6151385Y4752032D01*
X6150274Y4752217D01*
X6148792Y4752587D01*
X6145830Y4752772D01*
X6144904D01*
X6143793Y4752587D01*
X6142312Y4752402D01*
X6140645Y4752032D01*
X6138793Y4751291D01*
X6136942Y4750550D01*
X6135090Y4749439D01*
X6134905Y4749254D01*
X6134349Y4748884D01*
X6133424Y4747958D01*
X6132313Y4746847D01*
X6131016Y4745366D01*
X6129720Y4743514D01*
X6128424Y4741292D01*
X6127128Y4738515D01*
X6126943Y4738144D01*
X6126572Y4737404D01*
X6125832Y4736293D01*
X6124721Y4735367D01*
X6124536Y4735182D01*
X6123795Y4734996D01*
X6122869Y4734626D01*
X6121573Y4734256D01*
X6121017D01*
X6120462Y4734441D01*
X6119906D01*
X6118240Y4734996D01*
X6116573Y4735922D01*
X6116203Y4736293D01*
X6115648Y4737218D01*
X6114907Y4738885D01*
X6114722Y4739811D01*
X6114537Y4740922D01*
X6114907Y4742588D01*
Y4742773D01*
X6115092Y4743144D01*
X6115277Y4743699D01*
X6115648Y4744625D01*
X6116573Y4746662D01*
X6118055Y4749254D01*
X6119721Y4752217D01*
X6121943Y4755179D01*
X6124536Y4757957D01*
X6127498Y4760364D01*
X6127869Y4760549D01*
X6128794Y4761290D01*
X6130461Y4762031D01*
X6132683Y4763142D01*
X6135275Y4764067D01*
X6138238Y4764993D01*
X6141571Y4765549D01*
X6145274Y4765734D01*
X6146570D01*
X6147681Y4765549D01*
D02*
G37*
G36*
X6091946D02*
X6093428Y4764808D01*
X6094354Y4764438D01*
X6095094Y4763697D01*
X6095279D01*
X6095465Y4763327D01*
X6096205Y4762401D01*
X6096761Y4760920D01*
X6097131Y4760179D01*
Y4759253D01*
Y4759068D01*
Y4758883D01*
X6096946Y4757957D01*
X6096390Y4756476D01*
X6095279Y4754994D01*
X6094909Y4754624D01*
X6093983Y4754068D01*
X6092502Y4753328D01*
X6091576Y4753143D01*
X6090465Y4752957D01*
X6066579D01*
X6065283Y4752772D01*
X6063801Y4752402D01*
X6061950Y4751846D01*
X6060098Y4750921D01*
X6058061Y4749810D01*
X6056209Y4748143D01*
X6056024Y4747958D01*
X6055469Y4747402D01*
X6054728Y4746291D01*
X6053802Y4744995D01*
X6052876Y4743329D01*
X6052136Y4741292D01*
X6051580Y4739070D01*
X6051395Y4736478D01*
Y4663337D01*
Y4662967D01*
Y4662226D01*
X6051580Y4660930D01*
X6051951Y4659263D01*
X6052506Y4657412D01*
X6053432Y4655560D01*
X6054543Y4653523D01*
X6056209Y4651672D01*
X6056395Y4651487D01*
X6057135Y4650931D01*
X6058061Y4650190D01*
X6059542Y4649450D01*
X6061209Y4648524D01*
X6063061Y4647783D01*
X6065283Y4647228D01*
X6067690Y4647043D01*
X6090835D01*
X6091946Y4646857D01*
X6093428Y4646117D01*
X6094354Y4645746D01*
X6095094Y4645006D01*
X6095279D01*
X6095465Y4644635D01*
X6096205Y4643710D01*
X6096761Y4642228D01*
X6097131Y4641488D01*
Y4640562D01*
Y4640377D01*
Y4640191D01*
X6096946Y4639266D01*
X6096390Y4637784D01*
X6095279Y4636303D01*
X6094909Y4635933D01*
X6093983Y4635377D01*
X6092502Y4634636D01*
X6091576Y4634451D01*
X6090465Y4634266D01*
X6066579D01*
X6065838Y4634451D01*
X6064727D01*
X6063616Y4634636D01*
X6060839Y4635377D01*
X6057691Y4636303D01*
X6054173Y4637784D01*
X6050840Y4639821D01*
X6048988Y4641117D01*
X6047321Y4642599D01*
X6047136Y4642784D01*
X6046951Y4642969D01*
X6046581Y4643524D01*
X6046025Y4644080D01*
X6044544Y4645932D01*
X6042877Y4648339D01*
X6041211Y4651487D01*
X6039915Y4655005D01*
X6038804Y4658893D01*
X6038619Y4661115D01*
X6038433Y4663337D01*
Y4736478D01*
Y4736663D01*
Y4737033D01*
Y4737589D01*
X6038619Y4738515D01*
Y4739440D01*
X6038804Y4740551D01*
X6039544Y4743329D01*
X6040470Y4746662D01*
X6041952Y4749995D01*
X6043988Y4753513D01*
X6045285Y4755179D01*
X6046766Y4756846D01*
X6046951Y4757031D01*
X6047136Y4757216D01*
X6047692Y4757587D01*
X6048247Y4758327D01*
X6050099Y4759623D01*
X6052506Y4761290D01*
X6055654Y4762956D01*
X6059172Y4764438D01*
X6063246Y4765364D01*
X6065468Y4765549D01*
X6067690Y4765734D01*
X6090835D01*
X6091946Y4765549D01*
D02*
G37*
G36*
X2822402Y11975549D02*
X2823883Y11974993D01*
X2825550Y11973882D01*
X2825735D01*
X2825920Y11973512D01*
X2826661Y11972771D01*
X2827216Y11971290D01*
X2827587Y11970364D01*
Y11969438D01*
Y11850562D01*
Y11850377D01*
Y11850006D01*
X2827402Y11848895D01*
X2826846Y11847414D01*
X2825735Y11845933D01*
X2825365Y11845747D01*
X2824439Y11845192D01*
X2822772Y11844451D01*
X2820921Y11844266D01*
X2820736D01*
X2819995Y11844451D01*
X2818699Y11844822D01*
X2816847Y11845377D01*
X2816477Y11845747D01*
X2815736Y11846673D01*
X2814995Y11848340D01*
X2814810Y11849451D01*
X2814625Y11850562D01*
Y11956477D01*
X2798145Y11937405D01*
X2797775Y11937034D01*
X2796849Y11936479D01*
X2795553Y11935923D01*
X2793701Y11935553D01*
X2793331D01*
X2792035Y11935738D01*
X2790553Y11936294D01*
X2789072Y11937405D01*
X2788702Y11937775D01*
X2788146Y11938701D01*
X2787591Y11940182D01*
X2787220Y11942034D01*
Y11942219D01*
X2787406Y11942960D01*
X2787961Y11944256D01*
X2788331Y11945182D01*
X2788887Y11946293D01*
X2816292Y11973882D01*
X2816662Y11974253D01*
X2817588Y11974808D01*
X2818884Y11975364D01*
X2820736Y11975734D01*
X2821291D01*
X2822402Y11975549D01*
D02*
G37*
G36*
X2765926D02*
X2767408Y11974808D01*
X2768334Y11974438D01*
X2769074Y11973697D01*
X2769259D01*
X2769445Y11973327D01*
X2770185Y11972401D01*
X2770741Y11970920D01*
X2771111Y11970179D01*
Y11969253D01*
Y11969068D01*
Y11968883D01*
X2770926Y11967957D01*
X2770370Y11966476D01*
X2769259Y11964994D01*
X2768889Y11964624D01*
X2767963Y11964069D01*
X2766482Y11963328D01*
X2765556Y11963143D01*
X2764445Y11962958D01*
X2740559D01*
X2739262Y11962772D01*
X2737781Y11962402D01*
X2735930Y11961847D01*
X2734078Y11960921D01*
X2732041Y11959810D01*
X2730189Y11958143D01*
X2730004Y11957958D01*
X2729449Y11957403D01*
X2728708Y11956292D01*
X2727782Y11954995D01*
X2726856Y11953329D01*
X2726116Y11951292D01*
X2725560Y11949070D01*
X2725375Y11946478D01*
Y11873337D01*
Y11872967D01*
Y11872226D01*
X2725560Y11870930D01*
X2725931Y11869264D01*
X2726486Y11867412D01*
X2727412Y11865560D01*
X2728523Y11863523D01*
X2730189Y11861672D01*
X2730375Y11861487D01*
X2731115Y11860931D01*
X2732041Y11860190D01*
X2733522Y11859450D01*
X2735189Y11858524D01*
X2737040Y11857783D01*
X2739262Y11857228D01*
X2741670Y11857043D01*
X2764815D01*
X2765926Y11856857D01*
X2767408Y11856117D01*
X2768334Y11855746D01*
X2769074Y11855006D01*
X2769259D01*
X2769445Y11854635D01*
X2770185Y11853710D01*
X2770741Y11852228D01*
X2771111Y11851488D01*
Y11850562D01*
Y11850377D01*
Y11850191D01*
X2770926Y11849266D01*
X2770370Y11847784D01*
X2769259Y11846303D01*
X2768889Y11845933D01*
X2767963Y11845377D01*
X2766482Y11844636D01*
X2765556Y11844451D01*
X2764445Y11844266D01*
X2740559D01*
X2739818Y11844451D01*
X2738707D01*
X2737596Y11844636D01*
X2734819Y11845377D01*
X2731671Y11846303D01*
X2728153Y11847784D01*
X2724820Y11849821D01*
X2722968Y11851117D01*
X2721301Y11852599D01*
X2721116Y11852784D01*
X2720931Y11852969D01*
X2720561Y11853524D01*
X2720005Y11854080D01*
X2718524Y11855932D01*
X2716857Y11858339D01*
X2715191Y11861487D01*
X2713895Y11865005D01*
X2712784Y11868893D01*
X2712599Y11871115D01*
X2712413Y11873337D01*
Y11946478D01*
Y11946663D01*
Y11947033D01*
Y11947589D01*
X2712599Y11948515D01*
Y11949440D01*
X2712784Y11950551D01*
X2713524Y11953329D01*
X2714450Y11956662D01*
X2715932Y11959995D01*
X2717968Y11963513D01*
X2719265Y11965180D01*
X2720746Y11966846D01*
X2720931Y11967031D01*
X2721116Y11967216D01*
X2721672Y11967587D01*
X2722227Y11968327D01*
X2724079Y11969624D01*
X2726486Y11971290D01*
X2729634Y11972956D01*
X2733152Y11974438D01*
X2737226Y11975364D01*
X2739448Y11975549D01*
X2741670Y11975734D01*
X2764815D01*
X2765926Y11975549D01*
D02*
G37*
%LPC*%
G36*
X342683Y9642865D02*
X317315D01*
Y9591759D01*
X343794D01*
X345090Y9591944D01*
X346572Y9592315D01*
X348423Y9592870D01*
X350460Y9593796D01*
X352497Y9594907D01*
X354349Y9596388D01*
X354534Y9596574D01*
X355089Y9597314D01*
X356015Y9598240D01*
X356941Y9599536D01*
X357682Y9601203D01*
X358607Y9603240D01*
X359163Y9605462D01*
X359348Y9608054D01*
Y9626385D01*
Y9626756D01*
Y9627496D01*
X359163Y9628793D01*
X358793Y9630274D01*
X358052Y9632126D01*
X357311Y9633977D01*
X356015Y9636014D01*
X354349Y9637866D01*
X354163Y9638051D01*
X353423Y9638606D01*
X352497Y9639532D01*
X351016Y9640458D01*
X349349Y9641199D01*
X347312Y9642124D01*
X345090Y9642680D01*
X342683Y9642865D01*
D02*
G37*
G36*
X1716478Y4792956D02*
X1698146D01*
X1697776D01*
X1697035D01*
X1695739Y4792771D01*
X1694258Y4792401D01*
X1692406Y4791845D01*
X1690554Y4790920D01*
X1688518Y4789809D01*
X1686666Y4788142D01*
X1686481Y4787957D01*
X1685925Y4787216D01*
X1684999Y4786290D01*
X1684074Y4784809D01*
X1683333Y4783143D01*
X1682407Y4781106D01*
X1681852Y4778884D01*
X1681666Y4776477D01*
Y4751109D01*
X1716478D01*
X1716848D01*
X1717589D01*
X1718885Y4751294D01*
X1720551Y4751664D01*
X1722403Y4752220D01*
X1724255Y4753146D01*
X1726291Y4754257D01*
X1728143Y4755923D01*
X1728328Y4756108D01*
X1728884Y4756849D01*
X1729624Y4757775D01*
X1730550Y4759256D01*
X1731476Y4760923D01*
X1732217Y4762774D01*
X1732772Y4764996D01*
X1732957Y4767218D01*
Y4777588D01*
X1732772Y4778884D01*
X1732402Y4780550D01*
X1731846Y4782402D01*
X1730921Y4784254D01*
X1729810Y4786290D01*
X1728328Y4788142D01*
X1728143Y4788327D01*
X1727402Y4788883D01*
X1726477Y4789623D01*
X1724995Y4790549D01*
X1723329Y4791475D01*
X1721292Y4792216D01*
X1719070Y4792771D01*
X1716478Y4792956D01*
D02*
G37*
G36*
X1661854Y4709076D02*
X1643522D01*
X1643152D01*
X1642411D01*
X1641115Y4708891D01*
X1639634Y4708521D01*
X1637782Y4707780D01*
X1635930Y4707039D01*
X1633894Y4705743D01*
X1632042Y4704077D01*
X1631857Y4703892D01*
X1631301Y4703151D01*
X1630375Y4702225D01*
X1629450Y4700744D01*
X1628709Y4699077D01*
X1627783Y4697040D01*
X1627228Y4694818D01*
X1627042Y4692411D01*
Y4667043D01*
X1678148D01*
Y4693522D01*
X1677963Y4694818D01*
X1677593Y4696300D01*
X1677037Y4698151D01*
X1676111Y4700188D01*
X1675000Y4702225D01*
X1673519Y4704077D01*
X1673334Y4704262D01*
X1672593Y4704817D01*
X1671667Y4705743D01*
X1670371Y4706669D01*
X1668705Y4707410D01*
X1666668Y4708336D01*
X1664446Y4708891D01*
X1661854Y4709076D01*
D02*
G37*
G36*
X1801854Y7833613D02*
X1783522D01*
X1783152D01*
X1782411D01*
X1781115Y7833428D01*
X1779634Y7833057D01*
X1777782Y7832317D01*
X1775930Y7831576D01*
X1773894Y7830280D01*
X1772042Y7828614D01*
X1771857Y7828428D01*
X1771301Y7827688D01*
X1770375Y7826762D01*
X1769450Y7825281D01*
X1768709Y7823614D01*
X1767783Y7821577D01*
X1767228Y7819355D01*
X1767042Y7816948D01*
Y7791580D01*
X1818148D01*
Y7818059D01*
X1817963Y7819355D01*
X1817593Y7820837D01*
X1817037Y7822688D01*
X1816111Y7824725D01*
X1815000Y7826762D01*
X1813519Y7828614D01*
X1813334Y7828799D01*
X1812593Y7829354D01*
X1811667Y7830280D01*
X1810371Y7831206D01*
X1808705Y7831946D01*
X1806668Y7832872D01*
X1804446Y7833428D01*
X1801854Y7833613D01*
D02*
G37*
G36*
X1671853Y4258984D02*
X1653522D01*
X1653152D01*
X1652411D01*
X1651115Y4258798D01*
X1649633Y4258428D01*
X1647782Y4257687D01*
X1645930Y4256947D01*
X1643893Y4255651D01*
X1642042Y4253984D01*
X1641857Y4253799D01*
X1641301Y4253058D01*
X1640375Y4252132D01*
X1639449Y4250651D01*
X1638709Y4248985D01*
X1637783Y4246948D01*
X1637227Y4244726D01*
X1637042Y4242319D01*
Y4216951D01*
X1688148D01*
Y4243430D01*
X1687963Y4244726D01*
X1687593Y4246207D01*
X1687037Y4248059D01*
X1686111Y4250096D01*
X1685000Y4252132D01*
X1683519Y4253984D01*
X1683334Y4254169D01*
X1682593Y4254725D01*
X1681667Y4255651D01*
X1680371Y4256576D01*
X1678705Y4257317D01*
X1676668Y4258243D01*
X1674446Y4258798D01*
X1671853Y4258984D01*
D02*
G37*
G36*
X1841854Y7453613D02*
X1823522D01*
X1823152D01*
X1822411D01*
X1821115Y7453428D01*
X1819634Y7453057D01*
X1817782Y7452317D01*
X1815930Y7451576D01*
X1813894Y7450280D01*
X1812042Y7448613D01*
X1811857Y7448428D01*
X1811301Y7447687D01*
X1810375Y7446762D01*
X1809450Y7445280D01*
X1808709Y7443614D01*
X1807783Y7441577D01*
X1807228Y7439355D01*
X1807042Y7436948D01*
Y7411580D01*
X1858148D01*
Y7438059D01*
X1857963Y7439355D01*
X1857593Y7440836D01*
X1857037Y7442688D01*
X1856111Y7444725D01*
X1855000Y7446762D01*
X1853519Y7448613D01*
X1853334Y7448798D01*
X1852593Y7449354D01*
X1851667Y7450280D01*
X1850371Y7451206D01*
X1848705Y7451946D01*
X1846668Y7452872D01*
X1844446Y7453428D01*
X1841854Y7453613D01*
D02*
G37*
G36*
X1621853Y3798706D02*
X1603522D01*
X1603152D01*
X1602411D01*
X1601115Y3798521D01*
X1599634Y3798151D01*
X1597782Y3797410D01*
X1595930Y3796669D01*
X1593893Y3795373D01*
X1592042Y3793707D01*
X1591857Y3793521D01*
X1591301Y3792781D01*
X1590375Y3791855D01*
X1589449Y3790374D01*
X1588709Y3788707D01*
X1587783Y3786670D01*
X1587227Y3784448D01*
X1587042Y3782041D01*
Y3756673D01*
X1638148D01*
Y3783152D01*
X1637963Y3784448D01*
X1637593Y3785930D01*
X1637037Y3787781D01*
X1636111Y3789818D01*
X1635000Y3791855D01*
X1633519Y3793707D01*
X1633334Y3793892D01*
X1632593Y3794447D01*
X1631667Y3795373D01*
X1630371Y3796299D01*
X1628705Y3797040D01*
X1626668Y3797965D01*
X1624446Y3798521D01*
X1621853Y3798706D01*
D02*
G37*
G36*
X1691854Y8252686D02*
X1673522D01*
X1673152D01*
X1672411D01*
X1671115Y8252501D01*
X1669634Y8252131D01*
X1667782Y8251390D01*
X1665930Y8250649D01*
X1663894Y8249353D01*
X1662042Y8247687D01*
X1661857Y8247501D01*
X1661301Y8246761D01*
X1660375Y8245835D01*
X1659450Y8244354D01*
X1658709Y8242687D01*
X1657783Y8240650D01*
X1657228Y8238428D01*
X1657042Y8236021D01*
Y8210653D01*
X1708148D01*
Y8237132D01*
X1707963Y8238428D01*
X1707593Y8239910D01*
X1707037Y8241761D01*
X1706111Y8243798D01*
X1705000Y8245835D01*
X1703519Y8247687D01*
X1703334Y8247872D01*
X1702593Y8248427D01*
X1701667Y8249353D01*
X1700371Y8250279D01*
X1698705Y8251020D01*
X1696668Y8251945D01*
X1694446Y8252501D01*
X1691854Y8252686D01*
D02*
G37*
%LPD*%
D10*
X4210000Y10200000D02*
G03*
X4210000Y10200000I-1510000J0D01*
G01*
X7510000Y3000000D02*
G03*
X7510000Y3000000I-1510000J0D01*
G01*
Y8700000D02*
G03*
X7510000Y8700000I-1510000J0D01*
G01*
X4210000Y2000000D02*
G03*
X4210000Y2000000I-1510000J0D01*
G01*
X2232000Y7387500D02*
X3532000D01*
X2232000D02*
X3532000D01*
X2232000Y7552500D02*
X3532000D01*
X2232000D02*
X3532000D01*
X2232000Y7767500D02*
X3532000D01*
X2232000D02*
X3532000D01*
X2232000Y7932500D02*
X3532000D01*
X2232000D02*
X3532000D01*
X2032000Y4352500D02*
X3332000D01*
X2032000D02*
X3332000D01*
X2032000Y4187500D02*
X3332000D01*
X2032000D02*
X3332000D01*
X2032000Y4782500D02*
X3332000D01*
X2032000D02*
X3332000D01*
X2032000Y4617500D02*
X3332000D01*
X2032000D02*
X3332000D01*
D11*
X3654000Y7620000D02*
G03*
X3644000Y7620000I-5000J0D01*
G01*
D02*
G03*
X3654000Y7620000I5000J0D01*
G01*
D02*
G03*
X3644000Y7620000I-5000J0D01*
G01*
X3654000Y8000000D02*
G03*
X3644000Y8000000I-5000J0D01*
G01*
D02*
G03*
X3654000Y8000000I5000J0D01*
G01*
D02*
G03*
X3644000Y8000000I-5000J0D01*
G01*
X1910000Y4120000D02*
G03*
X1920000Y4120000I5000J0D01*
G01*
D02*
G03*
X1910000Y4120000I-5000J0D01*
G01*
D02*
G03*
X1920000Y4120000I5000J0D01*
G01*
X1910000Y4550000D02*
G03*
X1920000Y4550000I5000J0D01*
G01*
D02*
G03*
X1910000Y4550000I-5000J0D01*
G01*
D02*
G03*
X1920000Y4550000I5000J0D01*
G01*
X100000Y7138000D02*
Y9172000D01*
Y7138000D02*
X600000D01*
Y9428000D01*
X340000D02*
X600000D01*
X1820000Y8430000D02*
X3980000D01*
Y8110000D02*
Y8430000D01*
X1820000Y8110000D02*
X3980000D01*
X1820000D02*
Y8430000D01*
X1750000Y3640000D02*
X3910000D01*
X1750000D02*
Y3960000D01*
X3910000D01*
Y3640000D02*
Y3960000D01*
M02*
