%TF.GenerationSoftware,Altium Limited,Altium Designer,25.8.1 (18)*%
G04 Layer_Physical_Order=1*
G04 Layer_Color=255*
%FSLAX45Y45*%
%MOMM*%
%TF.SameCoordinates,F77D2C81-43CC-4E03-AA96-368D1325198D*%
%TF.FilePolarity,Positive*%
%TF.FileFunction,Copper,L1,Top,Signal*%
%TF.Part,Single*%
G01*
G75*
%TA.AperFunction,SMDPad,CuDef*%
%ADD10R,1.00000X1.60000*%
%ADD11O,0.65000X1.52500*%
%ADD12R,0.65000X1.52500*%
%ADD13R,1.25000X1.00000*%
%ADD14R,1.60000X0.60000*%
G04:AMPARAMS|DCode=15|XSize=1.6mm|YSize=0.6mm|CornerRadius=0.3mm|HoleSize=0mm|Usage=FLASHONLY|Rotation=0.000|XOffset=0mm|YOffset=0mm|HoleType=Round|Shape=RoundedRectangle|*
%AMROUNDEDRECTD15*
21,1,1.60000,0.00000,0,0,0.0*
21,1,1.00000,0.60000,0,0,0.0*
1,1,0.60000,0.50000,0.00000*
1,1,0.60000,-0.50000,0.00000*
1,1,0.60000,-0.50000,0.00000*
1,1,0.60000,0.50000,0.00000*
%
%ADD15ROUNDEDRECTD15*%
%ADD16R,1.60000X1.00000*%
%ADD17R,0.42000X0.89000*%
%ADD18R,0.70000X1.05000*%
%ADD19R,1.50000X1.50000*%
%ADD20R,1.50000X1.50000*%
%TA.AperFunction,Conductor*%
%ADD21C,0.38100*%
%ADD22C,0.25400*%
%TA.AperFunction,ComponentPad*%
%ADD23C,1.00000*%
%ADD24R,1.00000X1.00000*%
%ADD25C,1.30000*%
%ADD26R,1.30000X1.30000*%
%ADD27C,2.20000*%
%TA.AperFunction,WasherPad*%
%ADD28C,3.00000*%
%TA.AperFunction,ComponentPad*%
%ADD29C,3.00000*%
D10*
X17220000Y-1040000D02*
D03*
X16920000Y-1040000D02*
D03*
X15500000Y-1040000D02*
D03*
X15200000Y-1040000D02*
D03*
X13599998Y-1040000D02*
D03*
X13300002Y-1040001D02*
D03*
X5265999Y-1040000D02*
D03*
X4966001Y-1040001D02*
D03*
X3520001D02*
D03*
X3819999Y-1040000D02*
D03*
X9018999Y-2560000D02*
D03*
X8719001Y-2560001D02*
D03*
X13199001Y-2570000D02*
D03*
X12899001D02*
D03*
D11*
X16849448Y-1338815D02*
D03*
X16976448D02*
D03*
X17103448D02*
D03*
X17230447Y-1881215D02*
D03*
X17103448D02*
D03*
X16976448D02*
D03*
X17230447Y-1338815D02*
D03*
X15129451D02*
D03*
X15256451D02*
D03*
X15383450D02*
D03*
X15510451Y-1881215D02*
D03*
X15383450D02*
D03*
X15256451D02*
D03*
X15510451Y-1338815D02*
D03*
X13239455D02*
D03*
X13366454D02*
D03*
X13493454D02*
D03*
Y-1881215D02*
D03*
X13366454D02*
D03*
X13620454D02*
D03*
Y-1338815D02*
D03*
X4839500D02*
D03*
X4966500D02*
D03*
X5093500D02*
D03*
X5220500Y-1881215D02*
D03*
X5093500D02*
D03*
X4966500D02*
D03*
X5220500Y-1338815D02*
D03*
X3596439Y-1881215D02*
D03*
X3723439D02*
D03*
X3850439D02*
D03*
Y-1338815D02*
D03*
X3723439D02*
D03*
X3596439D02*
D03*
X3469439D02*
D03*
D12*
X16849448Y-1881215D02*
D03*
X15129451D02*
D03*
X13239455D02*
D03*
X4839500D02*
D03*
X3469439D02*
D03*
D13*
X16580000Y-1470000D02*
D03*
Y-1670000D02*
D03*
X14870000Y-1470000D02*
D03*
Y-1670000D02*
D03*
X12973405Y-1470000D02*
D03*
Y-1670000D02*
D03*
X13930000Y-1710000D02*
D03*
Y-1510000D02*
D03*
X3250000Y-1470000D02*
D03*
Y-1670000D02*
D03*
X8220000Y-2990000D02*
D03*
Y-3190000D02*
D03*
X4630000Y-1670000D02*
D03*
X12400000Y-3200000D02*
D03*
Y-3000000D02*
D03*
X4630000Y-1470000D02*
D03*
D14*
X10700000Y-2050000D02*
D03*
D15*
Y-2177000D02*
D03*
Y-2304000D02*
D03*
Y-2431000D02*
D03*
Y-2558000D02*
D03*
Y-2685000D02*
D03*
Y-2812000D02*
D03*
X11290000D02*
D03*
Y-2685000D02*
D03*
Y-2558000D02*
D03*
Y-2431000D02*
D03*
Y-2304000D02*
D03*
Y-2177000D02*
D03*
Y-2050000D02*
D03*
D16*
X9440000Y-3180000D02*
D03*
Y-2880000D02*
D03*
X9690000Y-3180000D02*
D03*
Y-2880000D02*
D03*
X8450000Y-3190000D02*
D03*
Y-2890000D02*
D03*
X9180000Y-2880000D02*
D03*
Y-3180000D02*
D03*
X13620000Y-3190000D02*
D03*
X13360001D02*
D03*
X2800000Y-3359878D02*
D03*
Y-3059878D02*
D03*
X4730000Y-3369878D02*
D03*
Y-3069878D02*
D03*
X6675000Y-3360000D02*
D03*
Y-3060000D02*
D03*
X16675000Y-3360000D02*
D03*
Y-3060000D02*
D03*
X14739999Y-3360000D02*
D03*
Y-3060000D02*
D03*
X12630000Y-3200000D02*
D03*
X13360001Y-2890000D02*
D03*
X12630000Y-2900000D02*
D03*
X13870000Y-3190000D02*
D03*
Y-2890000D02*
D03*
X13620000D02*
D03*
D17*
X8760000Y-2830000D02*
D03*
X8825000D02*
D03*
X8890000D02*
D03*
X8955000D02*
D03*
Y-3249000D02*
D03*
X8890000D02*
D03*
X8825000D02*
D03*
X8760000D02*
D03*
X13070000Y-3259000D02*
D03*
X12939999Y-2840000D02*
D03*
X13005000Y-3259000D02*
D03*
Y-2840000D02*
D03*
X13070000D02*
D03*
X13135001D02*
D03*
Y-3259000D02*
D03*
X12939999D02*
D03*
D18*
X17195000Y-3100000D02*
D03*
X15260001D02*
D03*
X7195000D02*
D03*
X5250000Y-3109878D02*
D03*
X3320000Y-3099878D02*
D03*
X3415000Y-3329878D02*
D03*
X3510000Y-3099878D02*
D03*
X5345000Y-3339878D02*
D03*
X5440000Y-3109878D02*
D03*
X7290000Y-3330000D02*
D03*
X7385000Y-3100000D02*
D03*
X17289999Y-3330000D02*
D03*
X17385001Y-3100000D02*
D03*
X15355000Y-3330000D02*
D03*
X15450000Y-3100000D02*
D03*
D19*
X2919894Y-4749894D02*
D03*
X4849894Y-4759894D02*
D03*
X6794894Y-4750016D02*
D03*
X16794894D02*
D03*
X14859894Y-4750017D02*
D03*
D20*
X3299545Y-4749829D02*
D03*
X5229545Y-4759829D02*
D03*
X7174545Y-4749951D02*
D03*
X17174545D02*
D03*
X15239545Y-4749951D02*
D03*
D21*
X15500000Y-1070000D02*
Y-1040000D01*
X15383450Y-1186549D02*
X15500000Y-1070000D01*
X15383450Y-1338815D02*
Y-1186549D01*
X15200000Y-1070000D02*
Y-1040000D01*
Y-1070000D02*
X15256451Y-1126451D01*
Y-1338815D02*
Y-1126451D01*
X17220000Y-1178514D02*
Y-1040000D01*
X17103448Y-1295065D02*
X17220000Y-1178514D01*
X17103448Y-1338815D02*
Y-1295065D01*
X16920000Y-1231338D02*
Y-1040000D01*
Y-1231338D02*
X16976448Y-1287786D01*
Y-1338815D02*
Y-1287786D01*
X13599998Y-1188519D02*
Y-1040000D01*
X13493454Y-1295065D02*
X13599998Y-1188519D01*
X13493454Y-1338815D02*
Y-1295065D01*
X13300002Y-1070001D02*
Y-1040001D01*
Y-1070001D02*
X13366454Y-1136453D01*
Y-1338815D02*
Y-1136453D01*
X4966001Y-1040001D02*
X4966251Y-1040250D01*
Y-1338566D02*
Y-1040250D01*
Y-1338566D02*
X4966500Y-1338815D01*
X5235049Y-1070950D02*
X5265999Y-1040000D01*
X5235049Y-1153516D02*
Y-1070950D01*
X5093500Y-1295065D02*
X5235049Y-1153516D01*
X5093500Y-1338815D02*
Y-1295065D01*
X3819999Y-1070000D02*
Y-1040000D01*
X3723439Y-1166559D02*
X3819999Y-1070000D01*
X3723439Y-1338815D02*
Y-1166559D01*
X3520001Y-1070001D02*
Y-1040001D01*
Y-1070001D02*
X3596439Y-1146439D01*
Y-1338815D02*
Y-1146439D01*
D22*
X14870000Y-1670000D02*
X15256451D01*
Y-1636565D01*
X15510451Y-1382565D02*
Y-1338815D01*
X15256451Y-1636565D02*
X15510451Y-1382565D01*
X15256451Y-1881215D02*
Y-1670000D01*
X16976448Y-1684879D02*
Y-1636565D01*
X17230447Y-1382565D01*
Y-1338815D01*
X16976448Y-1881215D02*
Y-1684879D01*
X16961569Y-1670000D02*
X16976448Y-1684879D01*
X16580000Y-1670000D02*
X16961569D01*
X16580000Y-1470000D02*
X16592500D01*
X16723685Y-1338815D01*
X16849448D01*
X15129451Y-1382565D02*
Y-1338815D01*
X15042017Y-1470000D02*
X15129451Y-1382565D01*
X14870000Y-1470000D02*
X15042017D01*
X13620918Y-1710000D02*
X13930000D01*
X13493454Y-1837465D02*
X13620918Y-1710000D01*
X13493454Y-1881215D02*
Y-1837465D01*
X13620454Y-1382565D02*
Y-1338815D01*
X13333018Y-1670000D02*
X13620454Y-1382565D01*
X12973405Y-1670000D02*
X13333018D01*
X13239455Y-1382565D02*
Y-1338815D01*
X13152019Y-1470000D02*
X13239455Y-1382565D01*
X12973405Y-1470000D02*
X13152019D01*
X4951621Y-1670000D02*
X4966500Y-1684879D01*
Y-1881215D02*
Y-1684879D01*
X4951621Y-1670000D02*
Y-1651444D01*
X5220500Y-1382565D01*
Y-1338815D01*
X4630000Y-1670000D02*
X4951621D01*
X4839500Y-1382565D02*
Y-1338815D01*
X4789365Y-1432700D02*
X4839500Y-1382565D01*
X4667300Y-1432700D02*
X4789365D01*
X4630000Y-1470000D02*
X4667300Y-1432700D01*
X3596439Y-1670000D02*
Y-1636565D01*
Y-1837465D02*
Y-1670000D01*
Y-1636565D02*
X3850439Y-1382565D01*
Y-1338815D01*
X3250000Y-1670000D02*
X3596439D01*
X3469439Y-1382565D02*
Y-1338815D01*
X3382004Y-1470000D02*
X3469439Y-1382565D01*
X3250000Y-1470000D02*
X3382004D01*
X8641932Y-4536932D02*
X8804999Y-4699998D01*
X8641932Y-4536932D02*
Y-3510000D01*
X8774000D01*
X8825000Y-3459000D02*
Y-3249000D01*
X8774000Y-3510000D02*
X8825000Y-3459000D01*
X8500000Y-3510000D02*
X8641932D01*
X8450000Y-3460000D02*
X8500000Y-3510000D01*
X8450000Y-3460000D02*
Y-3190000D01*
X8220000Y-3190000D02*
X8450000D01*
X9410000Y-2880000D02*
X9440000D01*
X9372700Y-2842700D02*
Y-2825600D01*
Y-2842700D02*
X9410000Y-2880000D01*
X9107099Y-2560000D02*
X9372700Y-2825600D01*
X9018999Y-2560000D02*
X9107099D01*
X9018999Y-2590000D02*
Y-2560000D01*
X8981699Y-2627300D02*
X9018999Y-2590000D01*
X8966477Y-2627300D02*
X8981699D01*
X8890000Y-2703777D02*
X8966477Y-2627300D01*
X8890000Y-2830000D02*
Y-2703777D01*
X8955000Y-2853500D02*
Y-2830000D01*
Y-2853500D02*
X8981500Y-2880000D01*
X9660000D02*
X9690000D01*
X8981500D02*
X9180000D01*
X9571900Y-2968100D02*
X9660000Y-2880000D01*
X9180000D02*
X9210000D01*
X9298100Y-2968100D02*
X9571900D01*
X9210000Y-2880000D02*
X9298100Y-2968100D01*
X13188660Y-3176400D02*
X13202258Y-3190000D01*
X13098218Y-3176400D02*
X13188660D01*
X13075900Y-3198719D02*
X13098218Y-3176400D01*
X9180000Y-3180000D02*
X9410000D01*
X9372700Y-3217300D02*
X9410000Y-3180000D01*
X13589999Y-3190000D02*
X13620000D01*
X13360001D02*
X13589999D01*
X13568999Y-3211001D02*
X13589999Y-3190000D01*
X9410000Y-3180000D02*
X9440000D01*
X13202258Y-3190000D02*
X13360001D01*
X9022259Y-3180000D02*
X9180000D01*
X9008659Y-3166400D02*
X9022259Y-3180000D01*
X8918218Y-3166400D02*
X9008659D01*
X8895900Y-3188719D02*
X8918218Y-3166400D01*
X13568999Y-4380000D02*
Y-3211001D01*
X13075900Y-3253100D02*
Y-3198719D01*
X13238998Y-4710000D02*
X13568999Y-4380000D01*
X13070000Y-3259000D02*
X13075900Y-3253100D01*
X8895900Y-3243100D02*
Y-3188719D01*
X9372700Y-4386299D02*
Y-3217300D01*
X9058999Y-4699999D02*
X9372700Y-4386299D01*
X8890000Y-3249000D02*
X8895900Y-3243100D01*
X8517300Y-2982800D02*
X8594500Y-3060000D01*
X9540000D01*
X9660000Y-3180000D01*
X8594500Y-3060000D02*
X8626400Y-3091900D01*
X8744559D02*
X8760000Y-3107340D01*
X8626400Y-3091900D02*
X8744559D01*
X8517300Y-2982800D02*
Y-2927300D01*
X9660000Y-3180000D02*
X9690000D01*
X8760000Y-3249000D02*
Y-3107340D01*
X8450000Y-2890000D02*
X8480000D01*
X8420000D02*
X8450000D01*
X8480000D02*
X8517300Y-2927300D01*
X8382700D02*
X8420000Y-2890000D01*
X8382700Y-2927900D02*
Y-2927300D01*
X8320600Y-2990000D02*
X8382700Y-2927900D01*
X8220000Y-2990000D02*
X8320600D01*
X8825000Y-2830000D02*
Y-2696000D01*
X8719001Y-2590001D02*
Y-2560001D01*
Y-2590001D02*
X8825000Y-2696000D01*
X12919000Y-3045000D02*
X12939999Y-3066000D01*
Y-3259000D02*
Y-3066000D01*
X12919000Y-3045000D02*
X13695000D01*
X13839999Y-3190000D02*
X13870000D01*
X13695000Y-3045000D02*
X13839999Y-3190000D01*
X12805000Y-3045000D02*
X12919000D01*
X12660000Y-2900000D02*
X12805000Y-3045000D01*
X12630000Y-2900000D02*
X12660000D01*
X12600000D02*
X12630000D01*
X12562700Y-2937300D02*
X12600000Y-2900000D01*
X12562700Y-2937900D02*
Y-2937300D01*
X12500600Y-3000000D02*
X12562700Y-2937900D01*
X12400000Y-3000000D02*
X12500600D01*
X12798999Y-4523999D02*
X12984999Y-4709999D01*
X12798999Y-4523999D02*
Y-3633999D01*
X13005000D01*
X12697300Y-3532300D02*
X12798999Y-3633999D01*
X12697300Y-3532300D02*
Y-3237300D01*
X12660000Y-3200000D02*
X12697300Y-3237300D01*
X12630000Y-3200000D02*
X12660000D01*
X2800000Y-4630000D02*
Y-3359878D01*
Y-4630000D02*
X2919894Y-4749894D01*
X3415000Y-4634374D02*
Y-3329878D01*
X3299545Y-4749829D02*
X3415000Y-4634374D01*
X4730000Y-4640000D02*
Y-3369878D01*
Y-4640000D02*
X4849894Y-4759894D01*
X5345000Y-4644374D02*
Y-3339878D01*
X5229545Y-4759829D02*
X5345000Y-4644374D01*
X6675000Y-4630122D02*
Y-3360000D01*
Y-4630122D02*
X6794894Y-4750017D01*
X7290000Y-4634496D02*
Y-3330000D01*
X7174545Y-4749951D02*
X7290000Y-4634496D01*
X16675000Y-4630122D02*
Y-3360000D01*
Y-4630122D02*
X16794894Y-4750017D01*
X17289999Y-4634496D02*
Y-3330000D01*
X17174545Y-4749951D02*
X17289999Y-4634496D01*
X15239545Y-4749951D02*
X15355000Y-4634496D01*
Y-3330000D01*
X14739999Y-4630122D02*
X14859894Y-4750017D01*
X14739999Y-4630122D02*
Y-3360000D01*
X13005000Y-3633999D02*
Y-3259000D01*
X12400000Y-3200000D02*
X12630000D01*
X13135001Y-2863500D02*
X13161501Y-2890000D01*
X13135001Y-2863500D02*
Y-2840000D01*
X13161501Y-2890000D02*
X13360001D01*
X13839999D02*
X13870000D01*
X13360001D02*
X13389999D01*
X13751900Y-2978100D02*
X13839999Y-2890000D01*
X13478101Y-2978100D02*
X13751900D01*
X13389999Y-2890000D02*
X13478101Y-2978100D01*
X13552699Y-2852700D02*
Y-2835601D01*
X13287099Y-2570000D02*
X13552699Y-2835601D01*
X13198999Y-2600000D02*
Y-2570000D01*
X13287099D01*
X13589999Y-2890000D02*
X13620000D01*
X13552699Y-2852700D02*
X13589999Y-2890000D01*
X13161699Y-2637300D02*
X13198999Y-2600000D01*
X13146477Y-2637300D02*
X13161699D01*
X13070000Y-2713777D02*
X13146477Y-2637300D01*
X13070000Y-2840000D02*
Y-2713777D01*
X13005000Y-2840000D02*
Y-2706000D01*
X12899001Y-2600001D02*
Y-2570001D01*
Y-2600001D02*
X13005000Y-2706000D01*
D23*
X8804999Y-4699998D02*
D03*
X12984999Y-4709999D02*
D03*
D24*
X9058999Y-4699999D02*
D03*
X13238998Y-4709999D02*
D03*
D25*
X21500000Y-960000D02*
D03*
X21300000Y-1360001D02*
D03*
Y-1760000D02*
D03*
X21500002Y-1360000D02*
D03*
X21300000Y-2560000D02*
D03*
Y-2360001D02*
D03*
X21500000Y-1960000D02*
D03*
X21500000Y-760000D02*
D03*
X21300000Y-960000D02*
D03*
X21300000Y-1160000D02*
D03*
X21500002Y-1160000D02*
D03*
X21300000Y-1560000D02*
D03*
X21500000Y-1560000D02*
D03*
Y-1760000D02*
D03*
X21299998Y-1960000D02*
D03*
X21300000Y-2160001D02*
D03*
X21499998Y-2160000D02*
D03*
X21500000Y-2360000D02*
D03*
Y-2560000D02*
D03*
D26*
X21300000Y-760000D02*
D03*
D27*
X21010159Y-7250002D02*
D03*
X21010159Y-4250002D02*
D03*
X11010160Y-7250002D02*
D03*
X11010159Y-4250002D02*
D03*
X1010160Y-7250002D02*
D03*
X1010160Y-4250002D02*
D03*
D28*
X2000000Y-499999D02*
D03*
X20000000Y-499999D02*
D03*
D29*
X18920000Y-7550001D02*
D03*
X18920000Y-3950001D02*
D03*
X16980000Y-7550001D02*
D03*
X16980000Y-3950001D02*
D03*
X15039999Y-7550001D02*
D03*
X15039999Y-3950001D02*
D03*
X13100000Y-7550001D02*
D03*
X13100000Y-3950001D02*
D03*
X8920000Y-7550001D02*
D03*
X8920000Y-3950001D02*
D03*
X3100000Y-7550001D02*
D03*
X3100000Y-3950001D02*
D03*
X5040000Y-7540001D02*
D03*
X5040000Y-3940001D02*
D03*
X6980000Y-7550002D02*
D03*
X6980000Y-3950001D02*
D03*
%TF.MD5,82d7d2b99730d147cf390b0a541d0303*%
M02*
