%TF.GenerationSoftware,Altium Limited,Altium Designer,25.8.1 (18)*%
G04 Layer_Color=0*
%FSLAX45Y45*%
%MOMM*%
%TF.SameCoordinates,F77D2C81-43CC-4E03-AA96-368D1325198D*%
%TF.FilePolarity,Positive*%
%TF.FileFunction,Plated,1,2,PTH,Drill*%
%TF.Part,Single*%
G01*
G75*
%TA.AperFunction,ComponentDrill*%
%ADD58C,0.80000*%
%ADD59C,3.00000*%
D58*
X21500000Y-960000D02*
D03*
X21300000Y-760000D02*
D03*
Y-1360001D02*
D03*
Y-1760000D02*
D03*
X21500002Y-1360000D02*
D03*
X21300000Y-2560000D02*
D03*
Y-2360001D02*
D03*
X21500000Y-1960000D02*
D03*
X21500000Y-760000D02*
D03*
X21300000Y-960000D02*
D03*
X21300000Y-1160000D02*
D03*
X21500002Y-1160000D02*
D03*
X21300000Y-1560000D02*
D03*
X21500000Y-1560000D02*
D03*
Y-1760000D02*
D03*
X21299998Y-1960000D02*
D03*
X21300000Y-2160001D02*
D03*
X21499998Y-2160000D02*
D03*
X21500000Y-2360000D02*
D03*
Y-2560000D02*
D03*
D59*
X18920000Y-7550001D02*
D03*
X18920000Y-3950001D02*
D03*
X16980000Y-7550001D02*
D03*
X16980000Y-3950001D02*
D03*
X15039999Y-7550001D02*
D03*
X15039999Y-3950001D02*
D03*
X13100000Y-7550001D02*
D03*
X13100000Y-3950001D02*
D03*
X8920000Y-7550001D02*
D03*
X8920000Y-3950001D02*
D03*
X3100000Y-7550001D02*
D03*
X3100000Y-3950001D02*
D03*
X5040000Y-7540001D02*
D03*
X5040000Y-3940001D02*
D03*
X6980000Y-7550002D02*
D03*
X6980000Y-3950001D02*
D03*
%TF.MD5,34c8c679ae26a4d05a7c9a9070f8c34b*%
M02*
