%TF.GenerationSoftware,Altium Limited,Altium Designer,25.8.1 (18)*%
G04 Layer_Physical_Order=2*
G04 Layer_Color=16711680*
%FSLAX45Y45*%
%MOMM*%
%TF.SameCoordinates,F77D2C81-43CC-4E03-AA96-368D1325198D*%
%TF.FilePolarity,Positive*%
%TF.FileFunction,Copper,L2,Bot,Signal*%
%TF.Part,Single*%
G01*
G75*
%TA.AperFunction,ComponentPad*%
%ADD23C,1.00000*%
%ADD24R,1.00000X1.00000*%
%ADD25C,1.30000*%
%ADD26R,1.30000X1.30000*%
%ADD27C,2.20000*%
%TA.AperFunction,WasherPad*%
%ADD28C,3.00000*%
%TA.AperFunction,ComponentPad*%
%ADD29C,3.00000*%
D23*
X8804999Y-4699998D02*
D03*
X12984999Y-4709999D02*
D03*
D24*
X9058999Y-4699999D02*
D03*
X13238998Y-4709999D02*
D03*
D25*
X21500000Y-960000D02*
D03*
X21300000Y-1360001D02*
D03*
Y-1760000D02*
D03*
X21500002Y-1360000D02*
D03*
X21300000Y-2560000D02*
D03*
Y-2360001D02*
D03*
X21500000Y-1960000D02*
D03*
X21500000Y-760000D02*
D03*
X21300000Y-960000D02*
D03*
X21300000Y-1160000D02*
D03*
X21500002Y-1160000D02*
D03*
X21300000Y-1560000D02*
D03*
X21500000Y-1560000D02*
D03*
Y-1760000D02*
D03*
X21299998Y-1960000D02*
D03*
X21300000Y-2160001D02*
D03*
X21499998Y-2160000D02*
D03*
X21500000Y-2360000D02*
D03*
Y-2560000D02*
D03*
D26*
X21300000Y-760000D02*
D03*
D27*
X21010159Y-7250002D02*
D03*
X21010159Y-4250002D02*
D03*
X11010160Y-7250002D02*
D03*
X11010159Y-4250002D02*
D03*
X1010160Y-7250002D02*
D03*
X1010160Y-4250002D02*
D03*
D28*
X2000000Y-499999D02*
D03*
X20000000Y-499999D02*
D03*
D29*
X18920000Y-7550001D02*
D03*
X18920000Y-3950001D02*
D03*
X16980000Y-7550001D02*
D03*
X16980000Y-3950001D02*
D03*
X15039999Y-7550001D02*
D03*
X15039999Y-3950001D02*
D03*
X13100000Y-7550001D02*
D03*
X13100000Y-3950001D02*
D03*
X8920000Y-7550001D02*
D03*
X8920000Y-3950001D02*
D03*
X3100000Y-7550001D02*
D03*
X3100000Y-3950001D02*
D03*
X5040000Y-7540001D02*
D03*
X5040000Y-3940001D02*
D03*
X6980000Y-7550002D02*
D03*
X6980000Y-3950001D02*
D03*
%TF.MD5,24f0f6073c73db6243664e9865c5e2aa*%
M02*
