%TF.GenerationSoftware,Altium Limited,Altium Designer,25.8.1 (18)*%
G04 Layer_Color=8421504*
%FSLAX45Y45*%
%MOMM*%
%TF.SameCoordinates,F77D2C81-43CC-4E03-AA96-368D1325198D*%
%TF.FilePolarity,Positive*%
%TF.FileFunction,Paste,Top*%
%TF.Part,Single*%
G01*
G75*
%TA.AperFunction,SMDPad,CuDef*%
%ADD10R,1.00000X1.60000*%
%ADD11O,0.65000X1.52500*%
%ADD12R,0.65000X1.52500*%
%ADD13R,1.25000X1.00000*%
%ADD14R,1.60000X0.60000*%
G04:AMPARAMS|DCode=15|XSize=1.6mm|YSize=0.6mm|CornerRadius=0.3mm|HoleSize=0mm|Usage=FLASHONLY|Rotation=0.000|XOffset=0mm|YOffset=0mm|HoleType=Round|Shape=RoundedRectangle|*
%AMROUNDEDRECTD15*
21,1,1.60000,0.00000,0,0,0.0*
21,1,1.00000,0.60000,0,0,0.0*
1,1,0.60000,0.50000,0.00000*
1,1,0.60000,-0.50000,0.00000*
1,1,0.60000,-0.50000,0.00000*
1,1,0.60000,0.50000,0.00000*
%
%ADD15ROUNDEDRECTD15*%
%ADD16R,1.60000X1.00000*%
%ADD17R,0.42000X0.89000*%
%ADD18R,0.70000X1.05000*%
%ADD19R,1.50000X1.50000*%
%ADD20R,1.50000X1.50000*%
D10*
X17220000Y-1040000D02*
D03*
X16920000Y-1040000D02*
D03*
X15500000Y-1040000D02*
D03*
X15200000Y-1040000D02*
D03*
X13599998Y-1040000D02*
D03*
X13300002Y-1040001D02*
D03*
X5265999Y-1040000D02*
D03*
X4966001Y-1040001D02*
D03*
X3520001D02*
D03*
X3819999Y-1040000D02*
D03*
X9018999Y-2560000D02*
D03*
X8719001Y-2560001D02*
D03*
X13199001Y-2570000D02*
D03*
X12899001D02*
D03*
D11*
X16849448Y-1338815D02*
D03*
X16976448D02*
D03*
X17103448D02*
D03*
X17230447Y-1881215D02*
D03*
X17103448D02*
D03*
X16976448D02*
D03*
X17230447Y-1338815D02*
D03*
X15129451D02*
D03*
X15256451D02*
D03*
X15383450D02*
D03*
X15510451Y-1881215D02*
D03*
X15383450D02*
D03*
X15256451D02*
D03*
X15510451Y-1338815D02*
D03*
X13239455D02*
D03*
X13366454D02*
D03*
X13493454D02*
D03*
Y-1881215D02*
D03*
X13366454D02*
D03*
X13620454D02*
D03*
Y-1338815D02*
D03*
X4839500D02*
D03*
X4966500D02*
D03*
X5093500D02*
D03*
X5220500Y-1881215D02*
D03*
X5093500D02*
D03*
X4966500D02*
D03*
X5220500Y-1338815D02*
D03*
X3596439Y-1881215D02*
D03*
X3723439D02*
D03*
X3850439D02*
D03*
Y-1338815D02*
D03*
X3723439D02*
D03*
X3596439D02*
D03*
X3469439D02*
D03*
D12*
X16849448Y-1881215D02*
D03*
X15129451D02*
D03*
X13239455D02*
D03*
X4839500D02*
D03*
X3469439D02*
D03*
D13*
X16580000Y-1470000D02*
D03*
Y-1670000D02*
D03*
X14870000Y-1470000D02*
D03*
Y-1670000D02*
D03*
X12973405Y-1470000D02*
D03*
Y-1670000D02*
D03*
X13930000Y-1710000D02*
D03*
Y-1510000D02*
D03*
X3250000Y-1470000D02*
D03*
Y-1670000D02*
D03*
X8220000Y-2990000D02*
D03*
Y-3190000D02*
D03*
X4630000Y-1670000D02*
D03*
X12400000Y-3200000D02*
D03*
Y-3000000D02*
D03*
X4630000Y-1470000D02*
D03*
D14*
X10700000Y-2050000D02*
D03*
D15*
Y-2177000D02*
D03*
Y-2304000D02*
D03*
Y-2431000D02*
D03*
Y-2558000D02*
D03*
Y-2685000D02*
D03*
Y-2812000D02*
D03*
X11290000D02*
D03*
Y-2685000D02*
D03*
Y-2558000D02*
D03*
Y-2431000D02*
D03*
Y-2304000D02*
D03*
Y-2177000D02*
D03*
Y-2050000D02*
D03*
D16*
X9440000Y-3180000D02*
D03*
Y-2880000D02*
D03*
X9690000Y-3180000D02*
D03*
Y-2880000D02*
D03*
X8450000Y-3190000D02*
D03*
Y-2890000D02*
D03*
X9180000Y-2880000D02*
D03*
Y-3180000D02*
D03*
X13620000Y-3190000D02*
D03*
X13360001D02*
D03*
X2800000Y-3359878D02*
D03*
Y-3059878D02*
D03*
X4730000Y-3369878D02*
D03*
Y-3069878D02*
D03*
X6675000Y-3360000D02*
D03*
Y-3060000D02*
D03*
X16675000Y-3360000D02*
D03*
Y-3060000D02*
D03*
X14739999Y-3360000D02*
D03*
Y-3060000D02*
D03*
X12630000Y-3200000D02*
D03*
X13360001Y-2890000D02*
D03*
X12630000Y-2900000D02*
D03*
X13870000Y-3190000D02*
D03*
Y-2890000D02*
D03*
X13620000D02*
D03*
D17*
X8760000Y-2830000D02*
D03*
X8825000D02*
D03*
X8890000D02*
D03*
X8955000D02*
D03*
Y-3249000D02*
D03*
X8890000D02*
D03*
X8825000D02*
D03*
X8760000D02*
D03*
X13070000Y-3259000D02*
D03*
X12939999Y-2840000D02*
D03*
X13005000Y-3259000D02*
D03*
Y-2840000D02*
D03*
X13070000D02*
D03*
X13135001D02*
D03*
Y-3259000D02*
D03*
X12939999D02*
D03*
D18*
X17195000Y-3100000D02*
D03*
X15260001D02*
D03*
X7195000D02*
D03*
X5250000Y-3109878D02*
D03*
X3320000Y-3099878D02*
D03*
X3415000Y-3329878D02*
D03*
X3510000Y-3099878D02*
D03*
X5345000Y-3339878D02*
D03*
X5440000Y-3109878D02*
D03*
X7290000Y-3330000D02*
D03*
X7385000Y-3100000D02*
D03*
X17289999Y-3330000D02*
D03*
X17385001Y-3100000D02*
D03*
X15355000Y-3330000D02*
D03*
X15450000Y-3100000D02*
D03*
D19*
X2919894Y-4749894D02*
D03*
X4849894Y-4759894D02*
D03*
X6794894Y-4750016D02*
D03*
X16794894D02*
D03*
X14859894Y-4750017D02*
D03*
D20*
X3299545Y-4749829D02*
D03*
X5229545Y-4759829D02*
D03*
X7174545Y-4749951D02*
D03*
X17174545D02*
D03*
X15239545Y-4749951D02*
D03*
%TF.MD5,470f6b65334438981efd4150c1d4f7df*%
M02*
