%TF.GenerationSoftware,Altium Limited,Altium Designer,25.8.1 (18)*%
G04 Layer_Color=16711935*
%FSLAX45Y45*%
%MOMM*%
%TF.SameCoordinates,F77D2C81-43CC-4E03-AA96-368D1325198D*%
%TF.FilePolarity,Negative*%
%TF.FileFunction,Soldermask,Bot*%
%TF.Part,Single*%
G01*
G75*
%TA.AperFunction,ComponentPad*%
%ADD46C,1.20320*%
%ADD47R,1.20320X1.20320*%
%ADD48C,1.50320*%
%ADD49R,1.50320X1.50320*%
%ADD50C,2.40320*%
%TA.AperFunction,WasherPad*%
%ADD51C,3.20320*%
%TA.AperFunction,ComponentPad*%
%ADD52C,3.20320*%
D46*
X8804999Y-4699998D02*
D03*
X12984999Y-4709999D02*
D03*
D47*
X9058999Y-4699999D02*
D03*
X13238998Y-4709999D02*
D03*
D48*
X21500000Y-960000D02*
D03*
X21300000Y-1360001D02*
D03*
Y-1760000D02*
D03*
X21500002Y-1360000D02*
D03*
X21300000Y-2560000D02*
D03*
Y-2360001D02*
D03*
X21500000Y-1960000D02*
D03*
X21500000Y-760000D02*
D03*
X21300000Y-960000D02*
D03*
X21300000Y-1160000D02*
D03*
X21500002Y-1160000D02*
D03*
X21300000Y-1560000D02*
D03*
X21500000Y-1560000D02*
D03*
Y-1760000D02*
D03*
X21299998Y-1960000D02*
D03*
X21300000Y-2160001D02*
D03*
X21499998Y-2160000D02*
D03*
X21500000Y-2360000D02*
D03*
Y-2560000D02*
D03*
D49*
X21300000Y-760000D02*
D03*
D50*
X21010159Y-7250002D02*
D03*
X21010159Y-4250002D02*
D03*
X11010160Y-7250002D02*
D03*
X11010159Y-4250002D02*
D03*
X1010160Y-7250002D02*
D03*
X1010160Y-4250002D02*
D03*
D51*
X2000000Y-499999D02*
D03*
X20000000Y-499999D02*
D03*
D52*
X18920000Y-7550001D02*
D03*
X18920000Y-3950001D02*
D03*
X16980000Y-7550001D02*
D03*
X16980000Y-3950001D02*
D03*
X15039999Y-7550001D02*
D03*
X15039999Y-3950001D02*
D03*
X13100000Y-7550001D02*
D03*
X13100000Y-3950001D02*
D03*
X8920000Y-7550001D02*
D03*
X8920000Y-3950001D02*
D03*
X3100000Y-7550001D02*
D03*
X3100000Y-3950001D02*
D03*
X5040000Y-7540001D02*
D03*
X5040000Y-3940001D02*
D03*
X6980000Y-7550002D02*
D03*
X6980000Y-3950001D02*
D03*
%TF.MD5,a2284f17cb32f1d33ed27e8c8d1d2d3e*%
M02*
