G04*
G04 #@! TF.GenerationSoftware,Altium Limited,Altium Designer,24.3.1 (35)*
G04*
G04 Layer_Color=8421504*
%FSLAX44Y44*%
%MOMM*%
G71*
G04*
G04 #@! TF.SameCoordinates,E3953B27-7C31-4D11-A27F-1EAA8932F3DA*
G04*
G04*
G04 #@! TF.FilePolarity,Positive*
G04*
G01*
G75*
%ADD14R,1.0000X1.6000*%
%ADD15R,0.4200X0.8900*%
%ADD16R,1.5000X1.5000*%
%ADD17R,1.5000X1.5000*%
%ADD18R,1.6000X1.0000*%
%ADD19O,0.6500X1.5250*%
%ADD20R,0.6500X1.5250*%
%ADD21O,1.5250X0.6500*%
%ADD22R,1.5250X0.6500*%
%ADD23C,1.0000*%
%ADD24R,0.7000X1.0500*%
%ADD25R,1.2500X1.0000*%
%ADD26R,1.0000X1.2500*%
%ADD27R,0.6000X1.6000*%
G04:AMPARAMS|DCode=28|XSize=1.6mm|YSize=0.6mm|CornerRadius=0.3mm|HoleSize=0mm|Usage=FLASHONLY|Rotation=90.000|XOffset=0mm|YOffset=0mm|HoleType=Round|Shape=RoundedRectangle|*
%AMROUNDEDRECTD28*
21,1,1.6000,0.0000,0,0,90.0*
21,1,1.0000,0.6000,0,0,90.0*
1,1,0.6000,0.0000,0.5000*
1,1,0.6000,0.0000,-0.5000*
1,1,0.6000,0.0000,-0.5000*
1,1,0.6000,0.0000,0.5000*
%
%ADD28ROUNDEDRECTD28*%
D14*
X871900Y-218000D02*
D03*
X901900Y-218000D02*
D03*
X303750Y-104000D02*
D03*
X333750Y-104000D02*
D03*
X434000Y-104000D02*
D03*
X404000Y-104000D02*
D03*
X634000Y-104000D02*
D03*
X604000Y-104000D02*
D03*
X534150Y-104025D02*
D03*
X504150Y-104025D02*
D03*
X1599000Y-104000D02*
D03*
X1569000Y-104000D02*
D03*
X1500750Y-104000D02*
D03*
X1470750Y-104000D02*
D03*
X584000Y-104000D02*
D03*
X554000Y-104000D02*
D03*
X352000Y-104000D02*
D03*
X382000Y-104000D02*
D03*
X1259000Y-104000D02*
D03*
X1289000Y-104000D02*
D03*
X1319900Y-221000D02*
D03*
X1289900D02*
D03*
X1520000Y-104000D02*
D03*
X1550000Y-104000D02*
D03*
D15*
X876000Y-286900D02*
D03*
X882500D02*
D03*
X889000D02*
D03*
X895500D02*
D03*
Y-245000D02*
D03*
X889000D02*
D03*
X882500D02*
D03*
X876000D02*
D03*
X1307000Y-289900D02*
D03*
X1294000Y-248000D02*
D03*
X1300500Y-289900D02*
D03*
Y-248000D02*
D03*
X1307000D02*
D03*
X1313500D02*
D03*
Y-289900D02*
D03*
X1294000D02*
D03*
D16*
X1291289Y-468002D02*
D03*
X872989Y-467002D02*
D03*
X1678989Y-475002D02*
D03*
X290989D02*
D03*
X484989D02*
D03*
X678989D02*
D03*
X1485035Y-475006D02*
D03*
D17*
X1329254Y-467995D02*
D03*
X910955Y-466995D02*
D03*
X1716954Y-474995D02*
D03*
X328955D02*
D03*
X522954D02*
D03*
X716954D02*
D03*
X1523000Y-475000D02*
D03*
D18*
X1749000Y-135000D02*
D03*
X1749000Y-105000D02*
D03*
Y-209000D02*
D03*
X1749000Y-239000D02*
D03*
X1667500Y-317000D02*
D03*
X1474000D02*
D03*
X667500D02*
D03*
X473000Y-317988D02*
D03*
X280000Y-316988D02*
D03*
X1667500Y-347000D02*
D03*
X280000Y-346988D02*
D03*
X473000Y-347988D02*
D03*
X667500Y-347000D02*
D03*
X845000Y-281000D02*
D03*
Y-251000D02*
D03*
X918000Y-250000D02*
D03*
Y-280000D02*
D03*
X944000D02*
D03*
Y-250000D02*
D03*
X969000Y-280000D02*
D03*
Y-250000D02*
D03*
X1263000Y-284000D02*
D03*
Y-254000D02*
D03*
X1362000Y-283000D02*
D03*
Y-253000D02*
D03*
X1387000Y-283000D02*
D03*
Y-253000D02*
D03*
X1474000Y-347000D02*
D03*
X1749000Y-156000D02*
D03*
X1749000Y-186000D02*
D03*
X1336000Y-283000D02*
D03*
Y-253000D02*
D03*
D19*
X579450Y-133881D02*
D03*
X554050Y-188121D02*
D03*
X566750D02*
D03*
X579450D02*
D03*
X541350Y-133881D02*
D03*
X566750D02*
D03*
X554050D02*
D03*
X1291045Y-133882D02*
D03*
Y-188121D02*
D03*
X1265645D02*
D03*
X1278345D02*
D03*
Y-133882D02*
D03*
X1265645D02*
D03*
X1252945D02*
D03*
X1551045D02*
D03*
X1525645Y-188121D02*
D03*
X1538345D02*
D03*
X1551045D02*
D03*
X1538345Y-133882D02*
D03*
X1525645D02*
D03*
X1512945D02*
D03*
X346944D02*
D03*
X359644D02*
D03*
X372344D02*
D03*
X385044D02*
D03*
Y-188121D02*
D03*
X372344D02*
D03*
X359644D02*
D03*
D20*
X541350Y-188121D02*
D03*
X346944Y-188121D02*
D03*
X1252945D02*
D03*
X1512945D02*
D03*
D21*
X1713118Y-149945D02*
D03*
X1713118Y-162645D02*
D03*
X1713118Y-175345D02*
D03*
X1658878Y-188045D02*
D03*
Y-175345D02*
D03*
Y-162645D02*
D03*
X1713118Y-188045D02*
D03*
D22*
X1658878Y-149945D02*
D03*
D23*
X2174511Y-18217D02*
D03*
X2099490D02*
D03*
X2182500Y-475021D02*
D03*
Y-400000D02*
D03*
X2102500Y-475021D02*
D03*
X24979Y-17500D02*
D03*
X100000D02*
D03*
X24979Y-97500D02*
D03*
X17500Y-475021D02*
D03*
Y-400000D02*
D03*
X97500Y-475021D02*
D03*
D24*
X1729000Y-333000D02*
D03*
X1738500Y-310000D02*
D03*
X351000Y-309988D02*
D03*
X332000D02*
D03*
X341500Y-332988D02*
D03*
X525000Y-310988D02*
D03*
X534500Y-333988D02*
D03*
X544000Y-310988D02*
D03*
X719500Y-310000D02*
D03*
X729000Y-333000D02*
D03*
X738500Y-310000D02*
D03*
X1526000D02*
D03*
X1535500Y-333000D02*
D03*
X1545000Y-310000D02*
D03*
X1719500D02*
D03*
D25*
X1322000Y-151000D02*
D03*
Y-171000D02*
D03*
X822000Y-261000D02*
D03*
Y-281000D02*
D03*
X1240000Y-284000D02*
D03*
Y-264000D02*
D03*
X1342000Y-171000D02*
D03*
Y-151000D02*
D03*
X1487000Y-167000D02*
D03*
Y-147000D02*
D03*
X520400Y-147000D02*
D03*
Y-167000D02*
D03*
X325000Y-167000D02*
D03*
Y-147000D02*
D03*
D26*
X1680000Y-123000D02*
D03*
X1700000Y-123000D02*
D03*
D27*
X834900Y-121000D02*
D03*
D28*
X847600D02*
D03*
X860300Y-121000D02*
D03*
X873000Y-121000D02*
D03*
X885700Y-121000D02*
D03*
X898400D02*
D03*
X911100D02*
D03*
X911100Y-62000D02*
D03*
X898400D02*
D03*
X885700Y-62000D02*
D03*
X873000Y-62000D02*
D03*
X860300Y-62000D02*
D03*
X847600Y-62000D02*
D03*
X834900D02*
D03*
M02*
