G04*
G04 #@! TF.GenerationSoftware,Altium Limited,Altium Designer,24.3.1 (35)*
G04*
G04 Layer_Color=128*
%FSLAX44Y44*%
%MOMM*%
G71*
G04*
G04 #@! TF.SameCoordinates,E3953B27-7C31-4D11-A27F-1EAA8932F3DA*
G04*
G04*
G04 #@! TF.FilePolarity,Positive*
G04*
G01*
G75*
%ADD63C,0.1270*%
D63*
X900700Y-420000D02*
X908700D01*
X904700Y-424000D02*
Y-416000D01*
X875300Y-420000D02*
X883300D01*
X879300Y-424000D02*
Y-416000D01*
X1319000Y-420000D02*
X1327000D01*
X1323000Y-424000D02*
Y-416000D01*
X1293600Y-420000D02*
X1301600D01*
X1297600Y-424000D02*
Y-416000D01*
X2090016Y-425000D02*
X2112016D01*
X2101016Y-436000D02*
Y-414000D01*
X1683000Y-395000D02*
X1713000D01*
X1698000Y-410000D02*
Y-380000D01*
X1877000Y-395000D02*
X1907000D01*
X1892000Y-410000D02*
Y-380000D01*
X1295000Y-345000D02*
X1325000D01*
X1310000Y-360000D02*
Y-330000D01*
X877000Y-345000D02*
X907000D01*
X892000Y-360000D02*
Y-330000D01*
X1090016Y-425000D02*
X1112016D01*
X1101016Y-436000D02*
Y-414000D01*
X1489000Y-395000D02*
X1519000D01*
X1504000Y-410000D02*
Y-380000D01*
X683000Y-395000D02*
X713000D01*
X698000Y-410000D02*
Y-380000D01*
X489000Y-395000D02*
X519000D01*
X504000Y-410000D02*
Y-380000D01*
X295000Y-395000D02*
X325000D01*
X310000Y-410000D02*
Y-380000D01*
X90016Y-425000D02*
X112016D01*
X101016Y-436000D02*
Y-414000D01*
X2125500Y-100000D02*
X2134500D01*
X2130000Y-104500D02*
Y-95500D01*
X2145500Y-100000D02*
X2154500D01*
X2150000Y-104500D02*
Y-95500D01*
X2125500Y-120000D02*
X2134500D01*
X2130000Y-124500D02*
Y-115500D01*
X2145500Y-120000D02*
X2154500D01*
X2150000Y-124500D02*
Y-115500D01*
X2125500Y-140000D02*
X2134500D01*
X2130000Y-144500D02*
Y-135500D01*
X2145500Y-140000D02*
X2154500D01*
X2150000Y-144500D02*
Y-135500D01*
X2125500Y-160000D02*
X2134500D01*
X2130000Y-164500D02*
Y-155500D01*
X2145500Y-160000D02*
X2154500D01*
X2150000Y-164500D02*
Y-155500D01*
X2125500Y-180000D02*
X2134500D01*
X2130000Y-184500D02*
Y-175500D01*
X2145500Y-180000D02*
X2154500D01*
X2150000Y-184500D02*
Y-175500D01*
X2125500Y-200000D02*
X2134500D01*
X2130000Y-204500D02*
Y-195500D01*
X2145500Y-200000D02*
X2154500D01*
X2150000Y-204500D02*
Y-195500D01*
X2125500Y-220000D02*
X2134500D01*
X2130000Y-224500D02*
Y-215500D01*
X2145500Y-220000D02*
X2154500D01*
X2150000Y-224500D02*
Y-215500D01*
X2125500Y-240000D02*
X2134500D01*
X2130000Y-244500D02*
Y-235500D01*
X2145500Y-240000D02*
X2154500D01*
X2150000Y-244500D02*
Y-235500D01*
X2125500Y-260000D02*
X2134500D01*
X2130000Y-264500D02*
Y-255500D01*
X2145500Y-260000D02*
X2154500D01*
X2150000Y-264500D02*
Y-255500D01*
X2125500Y-280000D02*
X2134500D01*
X2130000Y-284500D02*
Y-275500D01*
X2145500Y-280000D02*
X2154500D01*
X2150000Y-284500D02*
Y-275500D01*
X1845000Y-347000D02*
X1853000D01*
X1849000Y-351000D02*
Y-343000D01*
X1625000Y-347000D02*
X1633000D01*
X1629000Y-351000D02*
Y-343000D01*
X1437000Y-347000D02*
X1445000D01*
X1441000Y-351000D02*
Y-343000D01*
X1207000Y-298000D02*
X1215000D01*
X1211000Y-302000D02*
Y-294000D01*
X790000Y-296000D02*
X798000D01*
X794000Y-300000D02*
Y-292000D01*
X637000Y-347000D02*
X645000D01*
X641000Y-351000D02*
Y-343000D01*
X438000Y-347988D02*
X446000D01*
X442000Y-351988D02*
Y-343988D01*
X243000Y-346988D02*
X251000D01*
X247000Y-350988D02*
Y-342988D01*
X185000Y-50000D02*
X215000D01*
X200000Y-65000D02*
Y-35000D01*
X1985000Y-50000D02*
X2015000D01*
X2000000Y-65000D02*
Y-35000D01*
X2102500Y-130000D02*
X2107500D01*
X2105000Y-132500D02*
Y-127500D01*
X1697500Y-317000D02*
X1702500D01*
X1700000Y-319500D02*
Y-314500D01*
X1501500Y-317000D02*
X1506500D01*
X1504000Y-319500D02*
Y-314500D01*
X850500Y-226000D02*
X855500D01*
X853000Y-228500D02*
Y-223500D01*
X698500Y-317000D02*
X703500D01*
X701000Y-319500D02*
Y-314500D01*
X503500Y-317988D02*
X508500D01*
X506000Y-320488D02*
Y-315488D01*
X301500Y-316988D02*
X306500D01*
X304000Y-319488D02*
Y-314488D01*
X1722500Y-238000D02*
X1727500D01*
X1725000Y-240500D02*
Y-235500D01*
X1720500Y-103000D02*
X1725500D01*
X1723000Y-105500D02*
Y-100500D01*
X1446500Y-104000D02*
X1451500D01*
X1449000Y-106500D02*
Y-101500D01*
X1431500Y-104000D02*
X1436500D01*
X1434000Y-106500D02*
Y-101500D01*
X1595500Y-130506D02*
X1600500D01*
X1598000Y-133006D02*
Y-128006D01*
X631500Y-130000D02*
X636500D01*
X634000Y-132500D02*
Y-127500D01*
X481500Y-104025D02*
X486500D01*
X484000Y-106525D02*
Y-101525D01*
X466500Y-104000D02*
X471500D01*
X469000Y-106500D02*
Y-101500D01*
X278500Y-104000D02*
X283500D01*
X281000Y-106500D02*
Y-101500D01*
X263500Y-104000D02*
X268500D01*
X266000Y-106500D02*
Y-101500D01*
X431500Y-130256D02*
X436500D01*
X434000Y-132756D02*
Y-127756D01*
X1802500Y-115255D02*
X1807500D01*
X1805000Y-117755D02*
Y-112755D01*
X819500Y-161920D02*
X824500D01*
X822000Y-164420D02*
Y-159420D01*
X979500Y-143000D02*
X984500D01*
X982000Y-145500D02*
Y-140500D01*
X1284500Y-241000D02*
X1289500D01*
X1287000Y-243500D02*
Y-238500D01*
X717500Y-146000D02*
X722500D01*
X720000Y-148500D02*
Y-143500D01*
X2086500Y-141255D02*
X2091500D01*
X2089000Y-143755D02*
Y-138755D01*
X2080271Y-73332D02*
X2085271D01*
X2082771Y-75831D02*
Y-70832D01*
X2091373Y-62230D02*
X2096373D01*
X2093873Y-64730D02*
Y-59730D01*
X1363500Y-146000D02*
X1368500D01*
X1366000Y-148500D02*
Y-143500D01*
X1863500Y-269000D02*
X1868500D01*
X1866000Y-271500D02*
Y-266500D01*
X1302500Y-132000D02*
X1307500D01*
X1305000Y-134500D02*
Y-129500D01*
X588500Y-133881D02*
X593500D01*
X591000Y-136381D02*
Y-131381D01*
X395500Y-133882D02*
X400500D01*
X398000Y-136382D02*
Y-131382D01*
X1561500Y-133000D02*
X1566500D01*
X1564000Y-135500D02*
Y-130500D01*
X1663052Y-123000D02*
X1668052D01*
X1665552Y-125500D02*
Y-120500D01*
X2031500Y-196000D02*
X2036500D01*
X2034000Y-198500D02*
Y-193500D01*
X1697500Y-103000D02*
X1702500D01*
X1700000Y-105500D02*
Y-100500D01*
X1320500Y-105000D02*
X1325500D01*
X1323000Y-107500D02*
Y-102500D01*
X2094500Y-256000D02*
X2099500D01*
X2097000Y-258500D02*
Y-253500D01*
X2070500Y-191000D02*
X2075500D01*
X2073000Y-193500D02*
Y-188500D01*
X2075003Y-284113D02*
X2080003D01*
X2077503Y-286613D02*
Y-281613D01*
X2029088Y-168000D02*
X2034088D01*
X2031588Y-170500D02*
Y-165500D01*
X1993500Y-168000D02*
X1998500D01*
X1996000Y-170500D02*
Y-165500D01*
X2027500Y-150495D02*
X2032500D01*
X2030000Y-152995D02*
Y-147995D01*
X2009840Y-159820D02*
X2014840D01*
X2012340Y-162320D02*
Y-157320D01*
X2046500Y-144955D02*
X2051500D01*
X2049000Y-147455D02*
Y-142455D01*
M02*
