G04*
G04 #@! TF.GenerationSoftware,Altium Limited,Altium Designer,24.3.1 (35)*
G04*
G04 Layer_Color=32896*
%FSLAX44Y44*%
%MOMM*%
G71*
G04*
G04 #@! TF.SameCoordinates,E3953B27-7C31-4D11-A27F-1EAA8932F3DA*
G04*
G04*
G04 #@! TF.FilePolarity,Positive*
G04*
G01*
G75*
G36*
X2134810Y-79876D02*
X2135018Y-79945D01*
X2135157Y-80038D01*
X2135203Y-80061D01*
X2135342Y-80246D01*
X2135412Y-80385D01*
X2135435Y-80478D01*
Y-80501D01*
X2135412Y-80639D01*
X2135388Y-80755D01*
X2135365Y-80848D01*
X2135342Y-80871D01*
X2135273Y-80987D01*
X2135180Y-81102D01*
X2135111Y-81172D01*
X2135088Y-81195D01*
X2131941Y-84319D01*
X2131756Y-84458D01*
X2131570Y-84527D01*
X2131455Y-84550D01*
X2131432D01*
X2131409D01*
X2131293Y-84527D01*
X2131200Y-84504D01*
X2131015Y-84411D01*
X2130900Y-84342D01*
X2130876Y-84296D01*
X2130853D01*
X2130714Y-84110D01*
X2130645Y-83925D01*
X2130622Y-83810D01*
Y-83763D01*
X2130668Y-83555D01*
X2130737Y-83370D01*
X2130807Y-83254D01*
X2130853Y-83208D01*
X2132658Y-81403D01*
X2120464D01*
X2120209Y-81357D01*
X2120024Y-81287D01*
X2119931Y-81218D01*
X2119885Y-81172D01*
X2119769Y-80987D01*
X2119723Y-80825D01*
X2119700Y-80686D01*
Y-80639D01*
X2119723Y-80408D01*
X2119793Y-80223D01*
X2119862Y-80130D01*
X2119885Y-80084D01*
X2120070Y-79945D01*
X2120255Y-79876D01*
X2120394Y-79853D01*
X2120441D01*
X2120464D01*
X2134532D01*
X2134810Y-79876D01*
D02*
G37*
G36*
X2143672Y-77752D02*
X2143834Y-77821D01*
X2143949Y-77891D01*
X2143996Y-77937D01*
X2144088Y-78030D01*
X2144135Y-78099D01*
X2144227Y-78284D01*
X2144250Y-78423D01*
Y-83329D01*
X2152280Y-78284D01*
X2152650Y-78122D01*
X2152997Y-77983D01*
X2153321Y-77891D01*
X2153599Y-77845D01*
X2153853Y-77798D01*
X2154038Y-77775D01*
X2154154D01*
X2154200D01*
X2154501Y-77798D01*
X2154802Y-77821D01*
X2155357Y-77983D01*
X2155866Y-78169D01*
X2156283Y-78400D01*
X2156630Y-78654D01*
X2156769Y-78747D01*
X2156884Y-78840D01*
X2156977Y-78932D01*
X2157046Y-79002D01*
X2157070Y-79025D01*
X2157093Y-79048D01*
X2157301Y-79302D01*
X2157509Y-79557D01*
X2157671Y-79811D01*
X2157810Y-80066D01*
X2158018Y-80598D01*
X2158157Y-81084D01*
X2158250Y-81501D01*
X2158273Y-81686D01*
X2158296Y-81848D01*
X2158319Y-81963D01*
Y-82149D01*
X2158296Y-82449D01*
X2158250Y-82750D01*
X2158203Y-82866D01*
X2158180Y-82958D01*
X2158157Y-83005D01*
Y-83028D01*
X2158041Y-83352D01*
X2157903Y-83653D01*
X2157856Y-83768D01*
X2157810Y-83861D01*
X2157787Y-83907D01*
X2157764Y-83930D01*
X2157556Y-84254D01*
X2157324Y-84555D01*
X2157093Y-84786D01*
X2156884Y-84995D01*
X2156699Y-85180D01*
X2156537Y-85295D01*
X2156445Y-85365D01*
X2156398Y-85388D01*
X2156213Y-85457D01*
X2156075Y-85504D01*
X2155982Y-85527D01*
X2155959D01*
X2155843Y-85504D01*
X2155728Y-85481D01*
X2155565Y-85388D01*
X2155450Y-85319D01*
X2155403Y-85272D01*
X2155288Y-85087D01*
X2155218Y-84902D01*
X2155195Y-84763D01*
Y-84717D01*
X2155265Y-84370D01*
X2155357Y-84231D01*
X2155450Y-84138D01*
X2155519Y-84092D01*
X2155542Y-84069D01*
X2155913Y-83791D01*
X2156075Y-83629D01*
X2156213Y-83491D01*
X2156306Y-83352D01*
X2156375Y-83259D01*
X2156422Y-83190D01*
X2156445Y-83167D01*
X2156561Y-82958D01*
X2156630Y-82750D01*
X2156699Y-82565D01*
X2156723Y-82380D01*
X2156746Y-82241D01*
X2156769Y-82125D01*
Y-82033D01*
X2156746Y-81616D01*
X2156699Y-81431D01*
X2156676Y-81292D01*
X2156630Y-81153D01*
X2156584Y-81061D01*
X2156561Y-80992D01*
Y-80968D01*
X2156375Y-80621D01*
X2156213Y-80367D01*
X2156121Y-80251D01*
X2156075Y-80182D01*
X2156028Y-80135D01*
X2156005Y-80112D01*
X2155728Y-79858D01*
X2155427Y-79650D01*
X2155126Y-79511D01*
X2154871Y-79418D01*
X2154617Y-79372D01*
X2154432Y-79325D01*
X2154316D01*
X2154293D01*
X2154270D01*
X2154061Y-79349D01*
X2153853Y-79372D01*
X2153645Y-79418D01*
X2153483Y-79464D01*
X2153321Y-79534D01*
X2153205Y-79580D01*
X2153113Y-79603D01*
X2153090Y-79626D01*
X2143903Y-85388D01*
X2143672Y-85504D01*
X2143487Y-85550D01*
X2143371Y-85573D01*
X2143325D01*
X2143116Y-85527D01*
X2142955Y-85434D01*
X2142862Y-85295D01*
X2142769Y-85133D01*
X2142723Y-84995D01*
X2142700Y-84856D01*
Y-78469D01*
X2142723Y-78330D01*
X2142746Y-78215D01*
X2142839Y-78053D01*
X2142908Y-77937D01*
X2142955Y-77914D01*
X2143140Y-77798D01*
X2143302Y-77729D01*
X2143417Y-77706D01*
X2143464D01*
X2143672Y-77752D01*
D02*
G37*
G36*
X2156380Y-290807D02*
X2156866Y-290923D01*
X2157283Y-291085D01*
X2157630Y-291270D01*
X2157908Y-291478D01*
X2158116Y-291640D01*
X2158255Y-291756D01*
X2158301Y-291779D01*
Y-291802D01*
X2158486Y-291987D01*
X2158648Y-292195D01*
X2158880Y-292612D01*
X2159065Y-293005D01*
X2159203Y-293376D01*
X2159273Y-293723D01*
X2159296Y-293977D01*
X2159319Y-294070D01*
Y-295389D01*
X2159273Y-295643D01*
X2159157Y-296129D01*
X2158995Y-296523D01*
X2158810Y-296893D01*
X2158602Y-297170D01*
X2158440Y-297379D01*
X2158324Y-297518D01*
X2158301Y-297541D01*
X2158278Y-297564D01*
X2158070Y-297749D01*
X2157885Y-297888D01*
X2157468Y-298142D01*
X2157051Y-298304D01*
X2156681Y-298443D01*
X2156357Y-298512D01*
X2156103Y-298536D01*
X2156010Y-298559D01*
X2155941D01*
X2155894D01*
X2155871D01*
X2147125D01*
X2146847Y-298536D01*
X2146592Y-298512D01*
X2146130Y-298397D01*
X2145713Y-298235D01*
X2145343Y-298050D01*
X2145065Y-297865D01*
X2144857Y-297703D01*
X2144718Y-297587D01*
X2144695Y-297541D01*
X2144672D01*
X2144348Y-297147D01*
X2144117Y-296731D01*
X2143931Y-296337D01*
X2143816Y-295944D01*
X2143746Y-295620D01*
X2143723Y-295366D01*
X2143700Y-295273D01*
Y-294209D01*
X2143723Y-293954D01*
X2143746Y-293699D01*
X2143862Y-293214D01*
X2144024Y-292797D01*
X2144209Y-292450D01*
X2144394Y-292172D01*
X2144556Y-291964D01*
X2144672Y-291825D01*
X2144718Y-291779D01*
X2144903Y-291594D01*
X2145112Y-291432D01*
X2145528Y-291201D01*
X2145921Y-291015D01*
X2146315Y-290877D01*
X2146639Y-290807D01*
X2146893Y-290784D01*
X2146986Y-290761D01*
X2147055D01*
X2147101D01*
X2147125D01*
X2155871D01*
X2156126D01*
X2156380Y-290807D01*
D02*
G37*
G36*
X2144672Y-301752D02*
X2144834Y-301821D01*
X2144949Y-301891D01*
X2144996Y-301937D01*
X2145088Y-302030D01*
X2145135Y-302099D01*
X2145227Y-302284D01*
X2145250Y-302423D01*
Y-307329D01*
X2153280Y-302284D01*
X2153650Y-302122D01*
X2153997Y-301983D01*
X2154321Y-301891D01*
X2154599Y-301845D01*
X2154853Y-301798D01*
X2155038Y-301775D01*
X2155154D01*
X2155200D01*
X2155501Y-301798D01*
X2155802Y-301821D01*
X2156357Y-301983D01*
X2156866Y-302169D01*
X2157283Y-302400D01*
X2157630Y-302654D01*
X2157769Y-302747D01*
X2157885Y-302840D01*
X2157977Y-302932D01*
X2158046Y-303002D01*
X2158070Y-303025D01*
X2158093Y-303048D01*
X2158301Y-303302D01*
X2158509Y-303557D01*
X2158671Y-303811D01*
X2158810Y-304066D01*
X2159018Y-304598D01*
X2159157Y-305084D01*
X2159250Y-305501D01*
X2159273Y-305686D01*
X2159296Y-305848D01*
X2159319Y-305963D01*
Y-306148D01*
X2159296Y-306449D01*
X2159250Y-306750D01*
X2159203Y-306866D01*
X2159180Y-306958D01*
X2159157Y-307005D01*
Y-307028D01*
X2159041Y-307352D01*
X2158903Y-307653D01*
X2158856Y-307768D01*
X2158810Y-307861D01*
X2158787Y-307907D01*
X2158764Y-307930D01*
X2158555Y-308254D01*
X2158324Y-308555D01*
X2158093Y-308786D01*
X2157885Y-308995D01*
X2157699Y-309180D01*
X2157537Y-309296D01*
X2157445Y-309365D01*
X2157399Y-309388D01*
X2157213Y-309457D01*
X2157075Y-309504D01*
X2156982Y-309527D01*
X2156959D01*
X2156843Y-309504D01*
X2156727Y-309481D01*
X2156566Y-309388D01*
X2156450Y-309319D01*
X2156404Y-309272D01*
X2156288Y-309087D01*
X2156218Y-308902D01*
X2156195Y-308763D01*
Y-308717D01*
X2156265Y-308370D01*
X2156357Y-308231D01*
X2156450Y-308139D01*
X2156519Y-308092D01*
X2156542Y-308069D01*
X2156913Y-307791D01*
X2157075Y-307629D01*
X2157213Y-307491D01*
X2157306Y-307352D01*
X2157375Y-307259D01*
X2157422Y-307190D01*
X2157445Y-307167D01*
X2157560Y-306958D01*
X2157630Y-306750D01*
X2157699Y-306565D01*
X2157722Y-306380D01*
X2157746Y-306241D01*
X2157769Y-306125D01*
Y-306033D01*
X2157746Y-305616D01*
X2157699Y-305431D01*
X2157676Y-305292D01*
X2157630Y-305154D01*
X2157584Y-305061D01*
X2157560Y-304991D01*
Y-304968D01*
X2157375Y-304621D01*
X2157213Y-304367D01*
X2157121Y-304251D01*
X2157075Y-304182D01*
X2157028Y-304135D01*
X2157005Y-304112D01*
X2156727Y-303858D01*
X2156427Y-303650D01*
X2156126Y-303511D01*
X2155871Y-303418D01*
X2155617Y-303372D01*
X2155432Y-303326D01*
X2155316D01*
X2155293D01*
X2155270D01*
X2155061Y-303349D01*
X2154853Y-303372D01*
X2154645Y-303418D01*
X2154483Y-303464D01*
X2154321Y-303534D01*
X2154205Y-303580D01*
X2154113Y-303603D01*
X2154090Y-303626D01*
X2144903Y-309388D01*
X2144672Y-309504D01*
X2144487Y-309550D01*
X2144371Y-309573D01*
X2144325D01*
X2144117Y-309527D01*
X2143954Y-309434D01*
X2143862Y-309296D01*
X2143769Y-309133D01*
X2143723Y-308995D01*
X2143700Y-308856D01*
Y-302469D01*
X2143723Y-302330D01*
X2143746Y-302215D01*
X2143839Y-302053D01*
X2143908Y-301937D01*
X2143954Y-301914D01*
X2144140Y-301798D01*
X2144302Y-301729D01*
X2144417Y-301706D01*
X2144464D01*
X2144672Y-301752D01*
D02*
G37*
G36*
X2132958Y-291950D02*
X2133374Y-292043D01*
X2133745Y-292205D01*
X2134069Y-292367D01*
X2134323Y-292529D01*
X2134532Y-292691D01*
X2134647Y-292783D01*
X2134693Y-292830D01*
X2134994Y-293177D01*
X2135226Y-293547D01*
X2135388Y-293917D01*
X2135503Y-294264D01*
X2135573Y-294565D01*
X2135596Y-294820D01*
X2135619Y-294912D01*
Y-296601D01*
X2135573Y-297064D01*
X2135480Y-297481D01*
X2135318Y-297874D01*
X2135156Y-298175D01*
X2134994Y-298452D01*
X2134832Y-298638D01*
X2134740Y-298753D01*
X2134693Y-298800D01*
X2134323Y-299100D01*
X2133953Y-299332D01*
X2133583Y-299471D01*
X2133259Y-299586D01*
X2132958Y-299656D01*
X2132704Y-299679D01*
X2132611Y-299702D01*
X2132542D01*
X2132518D01*
X2132495D01*
X2129371D01*
X2128909Y-299656D01*
X2128469Y-299563D01*
X2128099Y-299401D01*
X2127775Y-299239D01*
X2127497Y-299077D01*
X2127312Y-298915D01*
X2127196Y-298823D01*
X2127150Y-298776D01*
X2126849Y-298406D01*
X2126618Y-298036D01*
X2126479Y-297689D01*
X2126363Y-297342D01*
X2126294Y-297041D01*
X2126271Y-296810D01*
X2126248Y-296717D01*
Y-293778D01*
X2125577Y-293963D01*
X2124998Y-294172D01*
X2124558Y-294380D01*
X2124142Y-294634D01*
X2123795Y-294866D01*
X2123471Y-295074D01*
X2123216Y-295282D01*
X2123031Y-295444D01*
X2122915Y-295537D01*
X2122869Y-295583D01*
X2122545Y-295930D01*
X2122268Y-296254D01*
X2122175Y-296393D01*
X2122106Y-296486D01*
X2122059Y-296555D01*
X2122036Y-296578D01*
X2121805Y-296972D01*
X2121712Y-297157D01*
X2121643Y-297319D01*
X2121573Y-297458D01*
X2121527Y-297573D01*
X2121481Y-297643D01*
Y-297666D01*
X2121365Y-297851D01*
X2121273Y-297967D01*
X2121180Y-298036D01*
X2121157Y-298059D01*
X2121041Y-298105D01*
X2120926Y-298129D01*
X2120833Y-298152D01*
X2120810D01*
X2120578Y-298105D01*
X2120393Y-298036D01*
X2120278Y-297967D01*
X2120255Y-297920D01*
X2120231D01*
X2120092Y-297735D01*
X2120023Y-297573D01*
X2120000Y-297458D01*
Y-297411D01*
X2120046Y-297064D01*
X2120301Y-296532D01*
X2120578Y-296046D01*
X2120856Y-295606D01*
X2121134Y-295213D01*
X2121388Y-294912D01*
X2121597Y-294681D01*
X2121666Y-294611D01*
X2121735Y-294542D01*
X2121759Y-294519D01*
X2121782Y-294496D01*
X2122221Y-294102D01*
X2122661Y-293755D01*
X2123101Y-293454D01*
X2123494Y-293200D01*
X2123864Y-293015D01*
X2124003Y-292945D01*
X2124119Y-292876D01*
X2124234Y-292830D01*
X2124304Y-292783D01*
X2124350Y-292760D01*
X2124373D01*
X2125114Y-292482D01*
X2125854Y-292274D01*
X2126572Y-292112D01*
X2127220Y-292020D01*
X2127497Y-291973D01*
X2127775Y-291950D01*
X2128006Y-291927D01*
X2128215D01*
X2128376Y-291904D01*
X2128492D01*
X2128562D01*
X2128585D01*
X2132495D01*
X2132958Y-291950D01*
D02*
G37*
G36*
X2135110Y-302826D02*
X2135318Y-302895D01*
X2135457Y-302988D01*
X2135503Y-303011D01*
X2135642Y-303196D01*
X2135712Y-303335D01*
X2135735Y-303428D01*
Y-303451D01*
X2135712Y-303589D01*
X2135688Y-303705D01*
X2135665Y-303798D01*
X2135642Y-303821D01*
X2135573Y-303937D01*
X2135480Y-304052D01*
X2135411Y-304122D01*
X2135388Y-304145D01*
X2132241Y-307269D01*
X2132056Y-307407D01*
X2131871Y-307477D01*
X2131755Y-307500D01*
X2131732D01*
X2131709D01*
X2131593Y-307477D01*
X2131500Y-307454D01*
X2131315Y-307361D01*
X2131199Y-307292D01*
X2131176Y-307246D01*
X2131153D01*
X2131014Y-307060D01*
X2130945Y-306875D01*
X2130922Y-306759D01*
Y-306713D01*
X2130968Y-306505D01*
X2131037Y-306320D01*
X2131107Y-306204D01*
X2131153Y-306158D01*
X2132958Y-304353D01*
X2120764D01*
X2120509Y-304307D01*
X2120324Y-304237D01*
X2120231Y-304168D01*
X2120185Y-304122D01*
X2120069Y-303937D01*
X2120023Y-303775D01*
X2120000Y-303636D01*
Y-303589D01*
X2120023Y-303358D01*
X2120092Y-303173D01*
X2120162Y-303080D01*
X2120185Y-303034D01*
X2120370Y-302895D01*
X2120555Y-302826D01*
X2120694Y-302803D01*
X2120740D01*
X2120764D01*
X2134832D01*
X2135110Y-302826D01*
D02*
G37*
G36*
X2200183Y-185042D02*
X2200516Y-185153D01*
X2200738Y-185301D01*
X2200812Y-185338D01*
X2201034Y-185635D01*
X2201145Y-185857D01*
X2201183Y-186005D01*
Y-186042D01*
X2201145Y-186264D01*
X2201109Y-186450D01*
X2201071Y-186598D01*
X2201034Y-186635D01*
X2200923Y-186820D01*
X2200775Y-187005D01*
X2200664Y-187116D01*
X2200627Y-187153D01*
X2195591Y-192153D01*
X2195294Y-192375D01*
X2194998Y-192486D01*
X2194813Y-192523D01*
X2194776D01*
X2194739D01*
X2194554Y-192486D01*
X2194406Y-192449D01*
X2194109Y-192301D01*
X2193924Y-192190D01*
X2193887Y-192116D01*
X2193850D01*
X2193628Y-191819D01*
X2193517Y-191523D01*
X2193480Y-191338D01*
Y-191264D01*
X2193554Y-190931D01*
X2193665Y-190634D01*
X2193776Y-190449D01*
X2193850Y-190375D01*
X2196739Y-187486D01*
X2177222D01*
X2176815Y-187412D01*
X2176519Y-187301D01*
X2176370Y-187190D01*
X2176296Y-187116D01*
X2176111Y-186820D01*
X2176037Y-186561D01*
X2176000Y-186338D01*
Y-186264D01*
X2176037Y-185894D01*
X2176148Y-185598D01*
X2176259Y-185450D01*
X2176296Y-185375D01*
X2176593Y-185153D01*
X2176889Y-185042D01*
X2177111Y-185005D01*
X2177185D01*
X2177222D01*
X2199738D01*
X2200183Y-185042D01*
D02*
G37*
G36*
X2196739Y-197596D02*
X2197405Y-197745D01*
X2197998Y-198004D01*
X2198516Y-198263D01*
X2198923Y-198522D01*
X2199257Y-198782D01*
X2199442Y-198930D01*
X2199516Y-199004D01*
X2199998Y-199559D01*
X2200368Y-200152D01*
X2200627Y-200744D01*
X2200812Y-201300D01*
X2200923Y-201781D01*
X2200960Y-202189D01*
X2200997Y-202337D01*
Y-211299D01*
X2200960Y-211706D01*
X2200812Y-212002D01*
X2200590Y-212225D01*
X2200368Y-212373D01*
X2200146Y-212447D01*
X2199923Y-212484D01*
X2199775Y-212521D01*
X2199738D01*
X2177222D01*
X2176815Y-212447D01*
X2176519Y-212336D01*
X2176370Y-212225D01*
X2176296Y-212150D01*
X2176111Y-211854D01*
X2176037Y-211595D01*
X2176000Y-211373D01*
Y-211299D01*
X2176037Y-210928D01*
X2176148Y-210632D01*
X2176259Y-210484D01*
X2176296Y-210410D01*
X2176593Y-210188D01*
X2176889Y-210077D01*
X2177111Y-210040D01*
X2177185D01*
X2177222D01*
X2185999D01*
Y-202559D01*
X2186073Y-201818D01*
X2186221Y-201115D01*
X2186443Y-200522D01*
X2186740Y-200004D01*
X2186999Y-199596D01*
X2187221Y-199263D01*
X2187369Y-199078D01*
X2187443Y-199004D01*
X2188036Y-198522D01*
X2188628Y-198152D01*
X2189221Y-197893D01*
X2189776Y-197708D01*
X2190258Y-197596D01*
X2190665Y-197559D01*
X2190813Y-197522D01*
X2190924D01*
X2190961D01*
X2190998D01*
X2195998D01*
X2196739Y-197596D01*
D02*
G37*
G36*
X2200072Y-217520D02*
X2200331Y-217631D01*
X2200516Y-217780D01*
X2200590Y-217817D01*
Y-217854D01*
X2200738Y-218002D01*
X2200812Y-218187D01*
X2200960Y-218483D01*
X2200997Y-218705D01*
Y-219076D01*
X2200886Y-219335D01*
X2200738Y-219520D01*
X2200590Y-219668D01*
X2200479Y-219742D01*
X2200442Y-219779D01*
X2190739Y-226223D01*
X2200405Y-232704D01*
X2200590Y-232852D01*
X2200738Y-233037D01*
X2200849Y-233185D01*
X2200923Y-233371D01*
X2200960Y-233482D01*
X2200997Y-233593D01*
Y-233889D01*
X2200923Y-234074D01*
X2200812Y-234370D01*
X2200664Y-234556D01*
X2200627Y-234630D01*
X2200590D01*
X2200294Y-234852D01*
X2200034Y-234963D01*
X2199812Y-235000D01*
X2199775D01*
X2199738D01*
X2199405D01*
X2199035Y-234852D01*
X2188480Y-227742D01*
X2177926Y-234815D01*
X2177666Y-234926D01*
X2177444Y-234963D01*
X2177296Y-235000D01*
X2177259D01*
X2177074Y-234963D01*
X2176889Y-234926D01*
X2176630Y-234778D01*
X2176444Y-234667D01*
X2176370Y-234593D01*
X2176148Y-234259D01*
X2176037Y-234000D01*
X2176000Y-233815D01*
Y-233741D01*
X2176111Y-233185D01*
X2176259Y-232963D01*
X2176407Y-232815D01*
X2176519Y-232741D01*
X2176555Y-232704D01*
X2186221Y-226223D01*
X2176555Y-219779D01*
X2176370Y-219631D01*
X2176222Y-219446D01*
X2176148Y-219298D01*
X2176074Y-219113D01*
X2176037Y-219002D01*
X2176000Y-218891D01*
Y-218780D01*
X2176074Y-218409D01*
X2176185Y-218113D01*
X2176296Y-217928D01*
X2176370Y-217854D01*
X2176519Y-217705D01*
X2176667Y-217631D01*
X2176926Y-217483D01*
X2177148Y-217446D01*
X2177185D01*
X2177222D01*
X2177555Y-217520D01*
X2177926Y-217668D01*
X2188480Y-224705D01*
X2198998Y-217668D01*
X2199294Y-217520D01*
X2199516Y-217483D01*
X2199664Y-217446D01*
X2199701D01*
X2199886D01*
X2200072Y-217520D01*
D02*
G37*
%LPC*%
G36*
X2156010Y-292311D02*
X2155918D01*
X2155871D01*
X2147125D01*
X2146824Y-292334D01*
X2146569Y-292404D01*
X2146338Y-292496D01*
X2146153Y-292589D01*
X2145991Y-292705D01*
X2145875Y-292797D01*
X2145806Y-292866D01*
X2145783Y-292890D01*
X2145597Y-293098D01*
X2145482Y-293329D01*
X2145389Y-293561D01*
X2145320Y-293746D01*
X2145273Y-293931D01*
X2145250Y-294070D01*
Y-295134D01*
X2145273Y-295412D01*
X2145343Y-295666D01*
X2145412Y-295898D01*
X2145528Y-296106D01*
X2145621Y-296268D01*
X2145690Y-296384D01*
X2145759Y-296453D01*
X2145783Y-296476D01*
X2145991Y-296661D01*
X2146222Y-296777D01*
X2146454Y-296870D01*
X2146662Y-296939D01*
X2146847Y-296985D01*
X2146986Y-297008D01*
X2147101D01*
X2147125D01*
X2155871D01*
X2156149Y-296985D01*
X2156404Y-296916D01*
X2156635Y-296847D01*
X2156843Y-296731D01*
X2157005Y-296638D01*
X2157121Y-296569D01*
X2157190Y-296499D01*
X2157213Y-296476D01*
X2157399Y-296268D01*
X2157537Y-296037D01*
X2157630Y-295805D01*
X2157699Y-295597D01*
X2157746Y-295412D01*
X2157769Y-295273D01*
Y-294209D01*
X2157746Y-293908D01*
X2157676Y-293653D01*
X2157584Y-293422D01*
X2157491Y-293237D01*
X2157399Y-293075D01*
X2157306Y-292959D01*
X2157237Y-292890D01*
X2157213Y-292866D01*
X2157005Y-292681D01*
X2156774Y-292542D01*
X2156542Y-292450D01*
X2156334Y-292381D01*
X2156149Y-292334D01*
X2156010Y-292311D01*
D02*
G37*
G36*
X2132611Y-293454D02*
X2132518D01*
X2132495D01*
X2128562D01*
X2128145D01*
X2127798Y-293477D01*
Y-296601D01*
X2127821Y-296810D01*
X2127844Y-296995D01*
X2127867Y-297157D01*
X2127890Y-297180D01*
Y-297203D01*
X2128006Y-297388D01*
X2128122Y-297550D01*
X2128215Y-297666D01*
X2128238Y-297712D01*
X2128423Y-297851D01*
X2128608Y-297967D01*
X2128793Y-298036D01*
X2128978Y-298105D01*
X2129117Y-298129D01*
X2129233Y-298152D01*
X2129325D01*
X2129348D01*
X2132495D01*
X2132727Y-298129D01*
X2132912Y-298105D01*
X2133051Y-298082D01*
X2133074Y-298059D01*
X2133097D01*
X2133305Y-297967D01*
X2133467Y-297851D01*
X2133560Y-297758D01*
X2133606Y-297712D01*
X2133768Y-297527D01*
X2133884Y-297342D01*
X2133953Y-297157D01*
X2134023Y-296972D01*
X2134046Y-296833D01*
X2134069Y-296717D01*
Y-295028D01*
X2134046Y-294797D01*
X2133999Y-294565D01*
X2133930Y-294380D01*
X2133837Y-294218D01*
X2133745Y-294102D01*
X2133675Y-293987D01*
X2133629Y-293940D01*
X2133606Y-293917D01*
X2133421Y-293755D01*
X2133236Y-293640D01*
X2133051Y-293570D01*
X2132889Y-293501D01*
X2132727Y-293477D01*
X2132611Y-293454D01*
D02*
G37*
G36*
X2196183Y-200004D02*
X2196035D01*
X2195998D01*
X2190961D01*
X2190554Y-200041D01*
X2190221Y-200115D01*
X2189887Y-200226D01*
X2189628Y-200374D01*
X2189443Y-200522D01*
X2189258Y-200633D01*
X2189184Y-200707D01*
X2189147Y-200744D01*
X2188925Y-201041D01*
X2188776Y-201337D01*
X2188628Y-201633D01*
X2188554Y-201892D01*
X2188517Y-202152D01*
X2188480Y-202337D01*
Y-210040D01*
X2198516D01*
Y-202522D01*
X2198479Y-202152D01*
X2198405Y-201781D01*
X2198294Y-201485D01*
X2198146Y-201226D01*
X2197998Y-201041D01*
X2197887Y-200855D01*
X2197812Y-200781D01*
X2197776Y-200744D01*
X2197479Y-200485D01*
X2197183Y-200300D01*
X2196887Y-200189D01*
X2196628Y-200078D01*
X2196368Y-200041D01*
X2196183Y-200004D01*
D02*
G37*
%LPD*%
M02*
