G04*
G04 #@! TF.GenerationSoftware,Altium Limited,Altium Designer,24.3.1 (35)*
G04*
G04 Layer_Physical_Order=2*
G04 Layer_Color=16711680*
%FSLAX44Y44*%
%MOMM*%
G71*
G04*
G04 #@! TF.SameCoordinates,E3953B27-7C31-4D11-A27F-1EAA8932F3DA*
G04*
G04*
G04 #@! TF.FilePolarity,Positive*
G04*
G01*
G75*
%ADD23C,1.0000*%
%ADD51C,0.5000*%
%ADD52C,0.3810*%
%ADD53C,0.2540*%
%ADD57R,1.3000X1.3000*%
%ADD58C,1.3000*%
%ADD59C,2.2000*%
%ADD60C,3.0000*%
%ADD61R,1.3000X1.3000*%
%ADD62C,0.8000*%
G36*
X2190000Y-210000D02*
X2155759D01*
X2155090Y-207500D01*
X2155551Y-207234D01*
X2157234Y-205551D01*
X2158424Y-203489D01*
X2159040Y-201190D01*
Y-198810D01*
X2158424Y-196511D01*
X2157234Y-194449D01*
X2155551Y-192766D01*
X2153489Y-191576D01*
X2152437Y-191294D01*
Y-188706D01*
X2153489Y-188424D01*
X2155551Y-187234D01*
X2157234Y-185551D01*
X2158424Y-183489D01*
X2159040Y-181190D01*
Y-178810D01*
X2158424Y-176511D01*
X2157234Y-174449D01*
X2155551Y-172766D01*
X2153489Y-171576D01*
X2152437Y-171294D01*
Y-168706D01*
X2153489Y-168424D01*
X2155551Y-167234D01*
X2157234Y-165551D01*
X2158424Y-163489D01*
X2159040Y-161190D01*
Y-158810D01*
X2158424Y-156511D01*
X2157234Y-154449D01*
X2155551Y-152766D01*
X2153489Y-151576D01*
X2152437Y-151294D01*
Y-148706D01*
X2153489Y-148424D01*
X2155551Y-147234D01*
X2157234Y-145551D01*
X2158424Y-143489D01*
X2159040Y-141190D01*
Y-138810D01*
X2158424Y-136511D01*
X2157234Y-134449D01*
X2155551Y-132766D01*
X2153489Y-131576D01*
X2152437Y-131294D01*
Y-128706D01*
X2153489Y-128424D01*
X2155551Y-127234D01*
X2157234Y-125551D01*
X2158424Y-123489D01*
X2159019Y-121270D01*
X2150000D01*
Y-118730D01*
X2159019D01*
X2158424Y-116511D01*
X2157234Y-114449D01*
X2155551Y-112766D01*
X2153489Y-111576D01*
X2152437Y-111294D01*
Y-108706D01*
X2153489Y-108424D01*
X2155551Y-107234D01*
X2157234Y-105551D01*
X2158424Y-103489D01*
X2159040Y-101190D01*
Y-98810D01*
X2158424Y-96511D01*
X2157234Y-94449D01*
X2155551Y-92766D01*
X2153489Y-91576D01*
X2151190Y-90960D01*
X2148810D01*
X2146511Y-91576D01*
X2144449Y-92766D01*
X2142766Y-94449D01*
X2141576Y-96511D01*
X2141540Y-96645D01*
X2139040Y-96316D01*
Y-90960D01*
X2131270D01*
Y-100000D01*
X2130000D01*
Y-101270D01*
X2120960D01*
Y-109040D01*
X2126316D01*
X2126645Y-111540D01*
X2126511Y-111576D01*
X2124449Y-112766D01*
X2122766Y-114449D01*
X2121576Y-116511D01*
X2120960Y-118810D01*
Y-121190D01*
X2121576Y-123489D01*
X2122766Y-125551D01*
X2124449Y-127234D01*
X2126511Y-128424D01*
X2127563Y-128706D01*
Y-131294D01*
X2126511Y-131576D01*
X2124449Y-132766D01*
X2122766Y-134449D01*
X2121576Y-136511D01*
X2120960Y-138810D01*
Y-141190D01*
X2121576Y-143489D01*
X2122766Y-145551D01*
X2124449Y-147234D01*
X2126511Y-148424D01*
X2127563Y-148706D01*
Y-151294D01*
X2126511Y-151576D01*
X2124449Y-152766D01*
X2122766Y-154449D01*
X2121576Y-156511D01*
X2120981Y-158730D01*
X2130000D01*
Y-161270D01*
X2120981D01*
X2121576Y-163489D01*
X2122766Y-165551D01*
X2124449Y-167234D01*
X2126511Y-168424D01*
X2127563Y-168706D01*
Y-171294D01*
X2126511Y-171576D01*
X2124449Y-172766D01*
X2122766Y-174449D01*
X2121576Y-176511D01*
X2120960Y-178810D01*
Y-181190D01*
X2121576Y-183489D01*
X2122766Y-185551D01*
X2124449Y-187234D01*
X2126511Y-188424D01*
X2127563Y-188706D01*
Y-191294D01*
X2126511Y-191576D01*
X2124449Y-192766D01*
X2122766Y-194449D01*
X2121576Y-196511D01*
X2120981Y-198730D01*
X2130000D01*
Y-201270D01*
X2120981D01*
X2121576Y-203489D01*
X2122766Y-205551D01*
X2124449Y-207234D01*
X2124910Y-207500D01*
X2124241Y-210000D01*
X2111753D01*
X2092615Y-190862D01*
Y-184685D01*
X2092319Y-183198D01*
X2091477Y-181938D01*
X2057420Y-147881D01*
X2057890Y-146125D01*
Y-143785D01*
X2057284Y-141524D01*
X2056114Y-139496D01*
X2054459Y-137841D01*
X2052431Y-136671D01*
X2050170Y-136065D01*
X2047830D01*
X2045569Y-136671D01*
X2043541Y-137841D01*
X2041886Y-139496D01*
X2040716Y-141524D01*
X2040110Y-143785D01*
Y-145226D01*
X2037610Y-145896D01*
X2037114Y-145036D01*
X2035459Y-143381D01*
X2033431Y-142211D01*
X2031170Y-141605D01*
X2028830D01*
X2026569Y-142211D01*
X2024541Y-143381D01*
X2022886Y-145036D01*
X2021716Y-147064D01*
X2021110Y-149325D01*
Y-151665D01*
X2020466Y-152504D01*
X2017798Y-152706D01*
X2015771Y-151536D01*
X2013510Y-150930D01*
X2011169D01*
X2008908Y-151536D01*
X2006881Y-152706D01*
X2006451Y-153136D01*
X1732669D01*
X1732500Y-152695D01*
X1732000Y-153195D01*
X1371845Y-152939D01*
X1370810Y-150439D01*
X1371233Y-150016D01*
X1372094Y-148524D01*
X1372430Y-147270D01*
X1359570D01*
X1359906Y-148524D01*
X1360767Y-150016D01*
X1361183Y-150432D01*
X1360147Y-152931D01*
X726303Y-152481D01*
X725233Y-150016D01*
X726094Y-148524D01*
X726430Y-147270D01*
X713570D01*
X713906Y-148524D01*
X714767Y-150016D01*
X713688Y-152473D01*
X322208Y-152195D01*
Y-111000D01*
X1320312D01*
X1320476Y-111094D01*
X1322139Y-111540D01*
X1323861D01*
X1325524Y-111094D01*
X1325688Y-111000D01*
X1733000D01*
X1733210Y-110790D01*
X1793268D01*
X1798460Y-115982D01*
Y-116116D01*
X1798906Y-117779D01*
X1799767Y-119271D01*
X1800984Y-120488D01*
X1802476Y-121349D01*
X1804139Y-121795D01*
X1805861D01*
X1807524Y-121349D01*
X1809016Y-120488D01*
X1810233Y-119271D01*
X1811094Y-117779D01*
X1811540Y-116116D01*
Y-114394D01*
X1811244Y-113290D01*
X1812080Y-111648D01*
X1812861Y-110790D01*
X2011706D01*
X2019748Y-102748D01*
X2048777Y-102998D01*
X2049000Y-103000D01*
X2050000Y-104000D01*
X2051197Y-102803D01*
X2051197Y-101661D01*
Y-71300D01*
X2051786Y-70710D01*
X2051000Y-69924D01*
Y-14000D01*
X2190000D01*
Y-210000D01*
D02*
G37*
%LPC*%
G36*
X2128730Y-90960D02*
X2120960D01*
Y-98730D01*
X2128730D01*
Y-90960D01*
D02*
G37*
G36*
X1666822Y-116570D02*
Y-121730D01*
X1671982D01*
X1671646Y-120476D01*
X1670785Y-118984D01*
X1669567Y-117767D01*
X1668076Y-116906D01*
X1666822Y-116570D01*
D02*
G37*
G36*
X1664282D02*
X1663027Y-116906D01*
X1661536Y-117767D01*
X1660318Y-118984D01*
X1659457Y-120476D01*
X1659121Y-121730D01*
X1664282D01*
Y-116570D01*
D02*
G37*
G36*
X635270Y-123570D02*
Y-128730D01*
X640430D01*
X640094Y-127476D01*
X639233Y-125984D01*
X638016Y-124767D01*
X636524Y-123906D01*
X635270Y-123570D01*
D02*
G37*
G36*
X632730D02*
X631476Y-123906D01*
X629984Y-124767D01*
X628767Y-125984D01*
X627906Y-127476D01*
X627570Y-128730D01*
X632730D01*
Y-123570D01*
D02*
G37*
G36*
X435270Y-123826D02*
Y-128986D01*
X440430D01*
X440094Y-127732D01*
X439233Y-126241D01*
X438016Y-125023D01*
X436524Y-124162D01*
X435270Y-123826D01*
D02*
G37*
G36*
X432730D02*
X431476Y-124162D01*
X429984Y-125023D01*
X428767Y-126241D01*
X427906Y-127732D01*
X427570Y-128986D01*
X432730D01*
Y-123826D01*
D02*
G37*
G36*
X1599270Y-124076D02*
Y-129236D01*
X1604430D01*
X1604094Y-127982D01*
X1603233Y-126491D01*
X1602016Y-125273D01*
X1600524Y-124412D01*
X1599270Y-124076D01*
D02*
G37*
G36*
X1596730D02*
X1595476Y-124412D01*
X1593984Y-125273D01*
X1592767Y-126491D01*
X1591906Y-127982D01*
X1591570Y-129236D01*
X1596730D01*
Y-124076D01*
D02*
G37*
G36*
X1671982Y-124270D02*
X1666822D01*
Y-129430D01*
X1668076Y-129094D01*
X1669567Y-128233D01*
X1670785Y-127016D01*
X1671646Y-125524D01*
X1671982Y-124270D01*
D02*
G37*
G36*
X1664282D02*
X1659121D01*
X1659457Y-125524D01*
X1660318Y-127016D01*
X1661536Y-128233D01*
X1663027Y-129094D01*
X1664282Y-129430D01*
Y-124270D01*
D02*
G37*
G36*
X1306270Y-125570D02*
Y-130730D01*
X1311430D01*
X1311094Y-129476D01*
X1310233Y-127984D01*
X1309016Y-126767D01*
X1307524Y-125906D01*
X1306270Y-125570D01*
D02*
G37*
G36*
X1303730D02*
X1302476Y-125906D01*
X1300984Y-126767D01*
X1299767Y-127984D01*
X1298906Y-129476D01*
X1298570Y-130730D01*
X1303730D01*
Y-125570D01*
D02*
G37*
G36*
X1565270Y-126570D02*
Y-131730D01*
X1570430D01*
X1570094Y-130476D01*
X1569233Y-128984D01*
X1568016Y-127767D01*
X1566524Y-126906D01*
X1565270Y-126570D01*
D02*
G37*
G36*
X1562730D02*
X1561476Y-126906D01*
X1559984Y-127767D01*
X1558767Y-128984D01*
X1557906Y-130476D01*
X1557570Y-131730D01*
X1562730D01*
Y-126570D01*
D02*
G37*
G36*
X592270Y-127451D02*
Y-132611D01*
X597430D01*
X597094Y-131357D01*
X596233Y-129866D01*
X595016Y-128648D01*
X593524Y-127787D01*
X592270Y-127451D01*
D02*
G37*
G36*
X589730D02*
X588476Y-127787D01*
X586984Y-128648D01*
X585767Y-129866D01*
X584906Y-131357D01*
X584570Y-132611D01*
X589730D01*
Y-127451D01*
D02*
G37*
G36*
X399270Y-127451D02*
Y-132612D01*
X404430D01*
X404094Y-131357D01*
X403233Y-129866D01*
X402016Y-128648D01*
X400524Y-127787D01*
X399270Y-127451D01*
D02*
G37*
G36*
X396730D02*
X395476Y-127787D01*
X393984Y-128648D01*
X392767Y-129866D01*
X391906Y-131357D01*
X391570Y-132612D01*
X396730D01*
Y-127451D01*
D02*
G37*
G36*
X640430Y-131270D02*
X635270D01*
Y-136430D01*
X636524Y-136094D01*
X638016Y-135233D01*
X639233Y-134016D01*
X640094Y-132524D01*
X640430Y-131270D01*
D02*
G37*
G36*
X632730D02*
X627570D01*
X627906Y-132524D01*
X628767Y-134016D01*
X629984Y-135233D01*
X631476Y-136094D01*
X632730Y-136430D01*
Y-131270D01*
D02*
G37*
G36*
X440430Y-131526D02*
X435270D01*
Y-136687D01*
X436524Y-136351D01*
X438016Y-135490D01*
X439233Y-134272D01*
X440094Y-132781D01*
X440430Y-131526D01*
D02*
G37*
G36*
X432730D02*
X427570D01*
X427906Y-132781D01*
X428767Y-134272D01*
X429984Y-135490D01*
X431476Y-136351D01*
X432730Y-136687D01*
Y-131526D01*
D02*
G37*
G36*
X1604430Y-131776D02*
X1599270D01*
Y-136937D01*
X1600524Y-136601D01*
X1602016Y-135740D01*
X1603233Y-134522D01*
X1604094Y-133031D01*
X1604430Y-131776D01*
D02*
G37*
G36*
X1596730D02*
X1591570D01*
X1591906Y-133031D01*
X1592767Y-134522D01*
X1593984Y-135740D01*
X1595476Y-136601D01*
X1596730Y-136937D01*
Y-131776D01*
D02*
G37*
G36*
X1311430Y-133270D02*
X1306270D01*
Y-138430D01*
X1307524Y-138094D01*
X1309016Y-137233D01*
X1310233Y-136016D01*
X1311094Y-134524D01*
X1311430Y-133270D01*
D02*
G37*
G36*
X1303730D02*
X1298570D01*
X1298906Y-134524D01*
X1299767Y-136016D01*
X1300984Y-137233D01*
X1302476Y-138094D01*
X1303730Y-138430D01*
Y-133270D01*
D02*
G37*
G36*
X2095043Y-53340D02*
X2092702D01*
X2090441Y-53946D01*
X2088414Y-55116D01*
X2086759Y-56771D01*
X2085589Y-58799D01*
X2084983Y-61060D01*
Y-62132D01*
X2084265Y-63724D01*
X2082674Y-64442D01*
X2081601D01*
X2079340Y-65047D01*
X2077313Y-66218D01*
X2075658Y-67873D01*
X2074487Y-69900D01*
X2073881Y-72161D01*
Y-74502D01*
X2074487Y-76763D01*
X2075658Y-78790D01*
X2077313Y-80445D01*
X2078887Y-81354D01*
Y-129771D01*
X2079182Y-131258D01*
X2080024Y-132518D01*
X2082594Y-135088D01*
X2081886Y-135796D01*
X2080716Y-137824D01*
X2080110Y-140085D01*
Y-142425D01*
X2080716Y-144686D01*
X2081886Y-146714D01*
X2083541Y-148369D01*
X2085569Y-149539D01*
X2087830Y-150145D01*
X2090170D01*
X2092431Y-149539D01*
X2094459Y-148369D01*
X2096114Y-146714D01*
X2097284Y-144686D01*
X2097890Y-142425D01*
Y-140085D01*
X2097492Y-138600D01*
X2099127Y-137415D01*
X2099708Y-137210D01*
X2101569Y-138284D01*
X2103830Y-138890D01*
X2106170D01*
X2108431Y-138284D01*
X2110459Y-137114D01*
X2112114Y-135459D01*
X2113284Y-133431D01*
X2113890Y-131170D01*
Y-128830D01*
X2113284Y-126569D01*
X2112114Y-124541D01*
X2110459Y-122886D01*
X2109532Y-122351D01*
Y-73357D01*
X2109532Y-73357D01*
X2109187Y-71623D01*
X2108205Y-70153D01*
X2102486Y-64434D01*
X2102763Y-63400D01*
Y-61060D01*
X2102157Y-58799D01*
X2100987Y-56771D01*
X2099331Y-55116D01*
X2097304Y-53946D01*
X2095043Y-53340D01*
D02*
G37*
G36*
X1570430Y-134270D02*
X1565270D01*
Y-139430D01*
X1566524Y-139094D01*
X1568016Y-138233D01*
X1569233Y-137016D01*
X1570094Y-135524D01*
X1570430Y-134270D01*
D02*
G37*
G36*
X1562730D02*
X1557570D01*
X1557906Y-135524D01*
X1558767Y-137016D01*
X1559984Y-138233D01*
X1561476Y-139094D01*
X1562730Y-139430D01*
Y-134270D01*
D02*
G37*
G36*
X597430Y-135151D02*
X592270D01*
Y-140312D01*
X593524Y-139976D01*
X595016Y-139115D01*
X596233Y-137897D01*
X597094Y-136406D01*
X597430Y-135151D01*
D02*
G37*
G36*
X589730D02*
X584570D01*
X584906Y-136406D01*
X585767Y-137897D01*
X586984Y-139115D01*
X588476Y-139976D01*
X589730Y-140312D01*
Y-135151D01*
D02*
G37*
G36*
X404430Y-135152D02*
X399270D01*
Y-140312D01*
X400524Y-139976D01*
X402016Y-139115D01*
X403233Y-137897D01*
X404094Y-136406D01*
X404430Y-135152D01*
D02*
G37*
G36*
X396730D02*
X391570D01*
X391906Y-136406D01*
X392767Y-137897D01*
X393984Y-139115D01*
X395476Y-139976D01*
X396730Y-140312D01*
Y-135152D01*
D02*
G37*
G36*
X983270Y-136570D02*
Y-141730D01*
X988430D01*
X988094Y-140476D01*
X987233Y-138984D01*
X986016Y-137767D01*
X984524Y-136906D01*
X983270Y-136570D01*
D02*
G37*
G36*
X980730D02*
X979476Y-136906D01*
X977984Y-137767D01*
X976767Y-138984D01*
X975906Y-140476D01*
X975570Y-141730D01*
X980730D01*
Y-136570D01*
D02*
G37*
G36*
X1367270Y-139570D02*
Y-144730D01*
X1372430D01*
X1372094Y-143476D01*
X1371233Y-141984D01*
X1370016Y-140767D01*
X1368524Y-139906D01*
X1367270Y-139570D01*
D02*
G37*
G36*
X1364730D02*
X1363476Y-139906D01*
X1361984Y-140767D01*
X1360767Y-141984D01*
X1359906Y-143476D01*
X1359570Y-144730D01*
X1364730D01*
Y-139570D01*
D02*
G37*
G36*
X721270D02*
Y-144730D01*
X726430D01*
X726094Y-143476D01*
X725233Y-141984D01*
X724016Y-140767D01*
X722524Y-139906D01*
X721270Y-139570D01*
D02*
G37*
G36*
X718730D02*
X717476Y-139906D01*
X715984Y-140767D01*
X714767Y-141984D01*
X713906Y-143476D01*
X713570Y-144730D01*
X718730D01*
Y-139570D01*
D02*
G37*
G36*
X988430Y-144270D02*
X983270D01*
Y-149430D01*
X984524Y-149094D01*
X986016Y-148233D01*
X987233Y-147016D01*
X988094Y-145524D01*
X988430Y-144270D01*
D02*
G37*
G36*
X980730D02*
X975570D01*
X975906Y-145524D01*
X976767Y-147016D01*
X977984Y-148233D01*
X979476Y-149094D01*
X980730Y-149430D01*
Y-144270D01*
D02*
G37*
%LPD*%
D23*
X2105000Y-130000D02*
D03*
X2089000Y-141255D02*
D03*
X2082771Y-73332D02*
D03*
X2093873Y-62230D02*
D03*
X1866000Y-269000D02*
D03*
X2034000Y-196000D02*
D03*
X2073000Y-191000D02*
D03*
X2077503Y-284113D02*
D03*
X2031588Y-168000D02*
D03*
X1996000D02*
D03*
X2030000Y-150495D02*
D03*
X2012340Y-159820D02*
D03*
X2049000Y-144955D02*
D03*
D51*
X851893Y-317000D02*
X1338014D01*
X1287000Y-265986D02*
Y-241000D01*
X2097000Y-256000D02*
X2097574Y-256574D01*
Y-264545D02*
Y-256574D01*
Y-264545D02*
X2125029Y-292000D01*
X2138000D01*
X2150000Y-280000D01*
X1287000Y-265986D02*
X1338014Y-317000D01*
X1504000D01*
X851893D02*
X853000Y-315893D01*
Y-226000D01*
X700188Y-317000D02*
X851893D01*
X505188Y-317988D02*
X506000D01*
X700188Y-317000D02*
X701000D01*
X822000Y-201170D02*
X834128Y-213298D01*
X840298D01*
X853000Y-226000D01*
X822000Y-201170D02*
Y-161920D01*
X1700000Y-317000D02*
X1809000D01*
X1857000Y-269000D01*
X1504000Y-317000D02*
X1700000D01*
X505188Y-317988D02*
X699200D01*
X700188Y-317000D01*
X504188Y-316988D02*
X505188Y-317988D01*
X304000Y-316988D02*
X504188D01*
X1725000Y-238000D02*
Y-235000D01*
X1732000Y-228000D01*
Y-145000D01*
X1449000Y-104000D02*
X1699000D01*
X469000D02*
X658500D01*
X1433188D02*
X1449000D01*
X1323000Y-105000D02*
X1432188D01*
X1433188Y-104000D01*
X281000D02*
X304349D01*
X382148D02*
X469000D01*
X381148Y-105000D02*
X382148Y-104000D01*
X659000Y-104500D02*
X1322500D01*
X658500Y-104000D02*
X659000Y-104500D01*
X304349Y-104000D02*
X305350Y-105000D01*
X266429Y-104000D02*
X281000D01*
X1322500Y-104500D02*
X1323000Y-105000D01*
X305350D02*
X381148D01*
X1792745Y-103000D02*
X1805000Y-115255D01*
X1701000Y-103000D02*
X1792745D01*
X1699000Y-104000D02*
X1700000Y-103000D01*
X1857000Y-269000D02*
X1866000D01*
D52*
X2012340Y-197617D02*
Y-159820D01*
Y-197617D02*
X2119668Y-304945D01*
X2149019D01*
X2166945Y-287019D02*
Y-256945D01*
X2150000Y-240000D02*
X2166945Y-256945D01*
X2149019Y-304945D02*
X2166945Y-287019D01*
X2105000Y-130000D02*
Y-73357D01*
X2093873Y-62230D02*
X2105000Y-73357D01*
X2032794Y-194794D02*
Y-169206D01*
Y-194794D02*
X2034000Y-196000D01*
X2031588Y-168000D02*
X2032794Y-169206D01*
X2071752Y-191000D02*
X2073000D01*
X2030000Y-150495D02*
X2031247D01*
X2071752Y-191000D01*
X1996000Y-202610D02*
X2077503Y-284113D01*
X1996000Y-202610D02*
Y-168000D01*
D53*
X2049000Y-144955D02*
X2088730Y-184685D01*
Y-265275D02*
Y-184685D01*
Y-265275D02*
X2122225Y-298770D01*
X2146461D01*
X2160770Y-284461D01*
Y-270770D01*
X2150000Y-260000D02*
X2160770Y-270770D01*
X2082771Y-129771D02*
X2087056Y-134056D01*
Y-139311D02*
Y-134056D01*
Y-139311D02*
X2089000Y-141255D01*
X2082771Y-129771D02*
Y-73332D01*
D57*
X904700Y-420000D02*
D03*
X1323000Y-420000D02*
D03*
D58*
X879300Y-420000D02*
D03*
X1297600Y-420000D02*
D03*
X2150000Y-100000D02*
D03*
X2130000Y-120000D02*
D03*
X2150000D02*
D03*
X2130000Y-140000D02*
D03*
X2150000D02*
D03*
X2130000Y-160000D02*
D03*
X2150000D02*
D03*
X2130000Y-180000D02*
D03*
X2150000D02*
D03*
X2130000Y-200000D02*
D03*
X2150000D02*
D03*
X2130000Y-220000D02*
D03*
X2150000D02*
D03*
X2130000Y-240000D02*
D03*
X2150000D02*
D03*
X2130000Y-260000D02*
D03*
X2150000D02*
D03*
X2130000Y-280000D02*
D03*
X2150000D02*
D03*
X1849000Y-347000D02*
D03*
X1629000D02*
D03*
X1441000Y-347000D02*
D03*
X1211000Y-298000D02*
D03*
X794000Y-296000D02*
D03*
X641000Y-347000D02*
D03*
X442000Y-347988D02*
D03*
X247000Y-346988D02*
D03*
D59*
X2101016Y-425000D02*
D03*
X1101016D02*
D03*
X101016D02*
D03*
D60*
X1698000Y-395000D02*
D03*
X1892000D02*
D03*
X1310000Y-345000D02*
D03*
X892000D02*
D03*
X1504000Y-395000D02*
D03*
X698000Y-395000D02*
D03*
X504000Y-395000D02*
D03*
X310000Y-395000D02*
D03*
X200000Y-50000D02*
D03*
X2000000Y-50000D02*
D03*
D61*
X2130000Y-100000D02*
D03*
D62*
X1700000Y-317000D02*
D03*
X1504000D02*
D03*
X853000Y-226000D02*
D03*
X701000Y-317000D02*
D03*
X506000Y-317988D02*
D03*
X304000Y-316988D02*
D03*
X1725000Y-238000D02*
D03*
X1723000Y-103000D02*
D03*
X1449000Y-104000D02*
D03*
X1434000D02*
D03*
X1598000Y-130506D02*
D03*
X634000Y-130000D02*
D03*
X484000Y-104025D02*
D03*
X469000Y-104000D02*
D03*
X281000D02*
D03*
X266000D02*
D03*
X434000Y-130256D02*
D03*
X1805000Y-115255D02*
D03*
X822000Y-161920D02*
D03*
X982000Y-143000D02*
D03*
X1287000Y-241000D02*
D03*
X720000Y-146000D02*
D03*
X1366000D02*
D03*
X1305000Y-132000D02*
D03*
X591000Y-133881D02*
D03*
X398000Y-133882D02*
D03*
X1564000Y-133000D02*
D03*
X1665552Y-123000D02*
D03*
X1700000Y-103000D02*
D03*
X1323000Y-105000D02*
D03*
X2097000Y-256000D02*
D03*
M02*
